<svg xmlns="http://www.w3.org/2000/svg" viewBox="0 0 400.2 324.4"><style>.st0{opacity:.15;fill:#050d2d}.st1{fill:#6f3d1b}.st2{opacity:.7;fill:#300e05}.st3{fill:#002845}.st4{opacity:.41;fill:#300e05}.st5{fill:#fdbc80}.st6{opacity:.14;fill:#711b09}.st7{fill:#6d3e1a}.st9{fill:#e09615}.st10{opacity:.21;fill:#711b09}.st12{fill:none;stroke:#021826;stroke-width:.5;stroke-linecap:round;stroke-linejoin:round;stroke-miterlimit:10}.st13{opacity:.25;fill:#87dde3}.st14{opacity:.77}.st15{fill:#fff}.st16{fill:#e39e67}.st17{fill:#2d2d2d}.st18{fill:#595959}.st19{fill:#4c4c4c}.st20{fill:#5d7ab5}.st21{opacity:.41;fill:#050d2d}.st22{fill:#323850}.st23{fill:#367dd0}.st29{fill:#22303f}.st32{fill:#f3ffff}.st33{fill:#99cfd9}.st37{opacity:.14;fill:#fff}.st39{fill:none;stroke:#99cfd9;stroke-width:2;stroke-linecap:round;stroke-linejoin:round;stroke-miterlimit:10}.st42{fill:#095d9d}</style><g id="OBJECTS"><path id="XMLID_157_" class="st0" d="M193.6 80.5s1.7 1.7-2.3 4.2-7.5 5.2-7.6 7-12.6 17.7-14 18.6c-1.5.9-6.3 1-11.2.4-4.9-.6-23.8-11-27.6-15.7-3.9-4.7 8.8-15 18.9-15.3 10.1-.3 24 4.9 24 4.9s1.7-2.5 5.8-3.1 8.6-4.4 14-1z"/><path id="XMLID_46_" class="st1" d="M187.6 85.9c-3.6 2.4-3.3 2.7-5.7 5.7l-4.7-3.3s.7-.6 0-2.3c-.7-1.7.2-3.3 3.9-2.9 3.6.3 5-1.4 7-2.5 1.5-.8 3.7-1.3 4.9-.7.3.2.6.4.7.7.5 1.4-2.5 2.9-6.1 5.3z"/><path id="XMLID_43_" class="st2" d="M192.9 79.8c-2.1-.7-4.1 1.1-5.4 2.2-1.3 1.1-4.1 4-6.1 3.6-2-.5-2.1 1.3-1.5 2.3.6 1 1.9 3.7 1.9 3.7l-4.7-3.3s.7-.6 0-2.3c-.7-1.7.2-3.3 3.9-2.9 3.6.3 5-1.4 7-2.5 1.6-1 3.8-1.4 4.9-.8z"/><path id="XMLID_337_" class="st3" d="M162.8 82.9c-3.8 5.9-5.4 15.6-5.8 16.3-3.8 9-20.6 9.6-18.2-.6 2.4-10.2 9.4-18 9.4-18 .6-.7 12.9 1.9 14.4 2.3h.2z"/><path id="XMLID_37_" class="st4" d="M162.8 82.9c-3.8 5.8-5.4 15.5-5.7 16.3-3.8 9-20.6 9.6-18.2-.6 2.4-10.2 9.4-18 9.4-18 .6-.7 12.9 1.9 14.4 2.3-.3.2-.6.4-1 .6 0 0-5.7 1.6-9.8 1.2-4.1-.4-9.1 17.2-4.4 17.8s6.7-1.1 8.3-5.7c1.2-3.6 3-12.1 7-13.9z"/><path id="XMLID_60_" class="st5" d="M152.2 53.1c-1 3.2-2.9 6.9-2.9 6.9-3.3 9.1-13.2 15.2-14 16.5-.8 1.4-.4 2.3-.9 3-.3.4-.3 1.4-.6 1.8-.2.3-.4.3-.8-.3-1.1-1.4-.8-3.2-.8-3.2-.6.9-1.8 1.6-2.4 2-.5.4-.3 2.5-.7 4-.1.3-.2.6-.4.8-.9 1.4-1.8 1.8-1.8 0v-4.8c0-1.2.8-2.7 5.2-5.9s5-5 10.3-12.9c2.8-4.2 4.2-7.1 5-8.9.7-1.6.8-2.4.8-2.4 5.1-3.4 5.2-.3 4 3.4z"/><path id="XMLID_33_" class="st6" d="M152.2 53.1c-1 3.2-2.9 6.9-2.9 6.9-3.3 9.1-13.2 15.2-14 16.5-.8 1.4-.4 2.3-.9 3-.3.4-.3 1.4-.6 1.8-.1-1.1-.1-3.6.6-5 1-1.8 8.3-6.3 11-10.5 2.7-4.2 2.8-7.6 2.5-9.2 0 0-.7-1.4-1.7 1-1 2.5-7.2 12.8-10 15.1-2.9 2.3-9.5 4.5-7.1 11-.1.3-.2.6-.4.8-.9 1.4-1.8 1.8-1.8 0v-4.8c0-1.2.8-2.7 5.2-5.9s5-5 10.3-12.9c2.8-4.2 4.2-7.1 5-8.9 1.9.5 3.6.8 4.8 1.1z"/><path id="XMLID_56_" class="st7" d="M170.2 35.1c-.1.1-.1.3-.2.4-.2.5-.4 1-.7 1.5-.7 1.3-1.7 2.5-2.9 3.6-.3.3-.7.6-1 .8-2.2 1.6-4.9 3-7.8 4-.1 0-.1 0-.2.1-4.4 1.6-9.4 2.5-13.9 2.7-2.7.1-5.2-.1-7.3-.6 0 0 8.2-7.1 2.7-22-5.5-14.9-1.7-19.3 2.9-22.8 1.5-1.2 3.1-2 4.7-2.4 3.4-1 7-.5 10.4 1.2 5.2 2.6 7.4 6.5 9.3 12 1.8 5.1 6.8 13.6 4 21.5z"/><path id="XMLID_22_" d="M170 35.6c-.2.5-.4 1-.7 1.5-.7 1.3-1.7 2.5-2.9 3.6-.5.2-1 .4-1.5.8-4.7-2.3-14.2-7.2-14.2-7.2v-18l3.4 4.2 7.5-5.3s3 2.2.1 5.1c0 0 1.1 2.1 0 5.4 0 0 .4 2.6 1.1 4 0 0 1-.7 2 2.4 0 0 3.4 0 5.2 3.5z" opacity=".51" fill="#300e05"/><path id="XMLID_48_" class="st4" d="M158.9 32.5s-1.3 9.5-1.5 13.1c-7.1 2.5-15.6 3.4-21.1 2.1 0 0 8.2-7.1 2.7-22-5.5-14.9-1.7-19.3 2.9-22.8 1.5-1.2 3.1-2 4.7-2.4-2.6 1.6-9.3 6.9-4.3 17.7l-2.3 2 18.9 12.3z"/><path id="XMLID_29_" class="st2" d="M161.7 30.9s-2 7.3-4.1 14.6c-.1 0-.1 0-.2.1-4.4 1.6-8.6 2.5-13 2.7 1.2-12.6 7.9-11.6 7.9-11.6l1.3-2.4c-1.1 0-2.2.5-7.1-2.7-4.9-3.3-6.8-11.8-6.8-11.8l22 11.1z"/><path id="XMLID_61_" class="st9" d="M155.8 52.3c-.4 1.3-.9 2.5-1.4 3.5 0 0-1.1.4-3.1.3-1.8-.1-4.2-.8-6.9-2.6 0 0 1.9-14.4 7.2-15.6.2 0 .3 0 .5-.1h.9c2.7.5 3.8 3 4 6 .2 2.7-.4 5.9-1.2 8.5z"/><path id="XMLID_47_" class="st10" d="M155.8 52.3c-1.4 1.2-3 2.5-4.4 3.7-1.8-.1-4.2-.8-6.9-2.6 0 0 1.9-14.4 7.2-15.6-2.9 2.7-4 8.9-4.7 12-.9 3.7 1.7 3.5 1.7 3.5 1.4-13.4 3.4-15.4 3.6-15.5s2.6 3.3 4.9 6.1c0 2.6-.6 5.8-1.4 8.4z"/><path id="XMLID_334_" class="st3" d="M179.2 96.6c-.2.3-.5.6-.8 1l-.1.1c-2.9 3.6-8.4 10.3-10.9 11.6-2.9 1.5-6.7 1.5-7.8 0-1.1-1.5-3.3-2.3-2.5-10.9.7-8.6 5-15.7 5-15.7 5.7.3 11.6-5 11.6-5 3.4 3.9.9 10.6-.3 13.2 2.5-4.9 3.4-2.9 7.1-.5 3.9 2.6 1.2 3.1-1.3 6.2z"/><path id="XMLID_36_" class="st4" d="M178.3 97.8c-2.9 3.6-8.4 10.3-10.9 11.6-2.9 1.5-6.7 1.5-7.8 0-1.1-1.5-3.3-2.3-2.5-10.9.7-8.6 5-15.7 5-15.7 5.7.3 11.6-5 11.6-5s-1.2 2.7-6.6 6.6c-5.4 3.9-6.6 21.7-3.8 23.1 2.8 1.2 8.6-2.2 15-9.7z"/><path id="XMLID_306_" d="M173.7 77.7c-.3.7-.9 1.3-1.7 1.8-4.1 2.7-8 3.8-12.6 3.3s-9.1-2.1-11.1-2.3c-2-.2.2-2.3 0-4.3-.1-2-1-12.7.9-23.1 1.9-10.3 1.7-15.8 6.7-19.4 0 0 3-1.8 6.4-1.3.4.1.9.2 1.3.3 0 0 2.2-.5 5 2.2 2.7 2.7 1.8 21.8 3.3 29.7 1.3 6.5 3.2 10.4 1.8 13.1z" fill="#fdd802"/><path id="XMLID_255_" class="st10" d="M173.7 77.7c-.3.7-.9 1.3-1.7 1.8-4.1 2.7-8 3.8-12.6 3.3s-9.1-2.1-11.1-2.3c-2-.2.2-2.3 0-4.3-.1-2-1-12.7.9-23.1 1.9-10.3 1.7-15.8 6.7-19.4 0 0 3-1.8 6.4-1.3 1.4.8 2.4 1.4 2.4 1.4s-.3 3.5-6.3 5.2c-5.9 1.7-4.9 37.2-1.4 39.5 3.5 2.5 10.6 5.2 16.7-.8z"/><path id="XMLID_63_" class="st5" d="M174.8 56.1c-.1.4-.1.8-.2 1.2-2.7 17.7-13.3 25.7-15.2 27.2-1.9 1.6-4.7 5.6-6.4 6.5-1.6.9-4.4 1.7-3.4 0 .1-.1.1-.2.2-.3 1.6-2.1.6-1.1 2.3-2.4 1.7-1.4 1.6-3.5 1.6-3.5-1.6.6-3.1.4-3.6-1.2-.5-1.7.9-.2 2.3-.7 1.4-.5 3.5-.7 5.8-2.1 2.2-1.4 2.9-4.2 7-11.1 4.1-6.8 4.1-12.6 4.1-12.6l5.5-1z"/><path id="XMLID_10_" class="st4" d="M172.9 92.1s-.2 3.2-3.9 6.6c0 0 5.3-2.5 4.8-8.5l-.9 1.9z"/><path id="XMLID_9_" class="st4" d="M157.7 91.4s-.9 3.1-5.3 5.5c0 0 5.7-1.2 6.7-7.2l-1.4 1.7z"/><path id="XMLID_50_" class="st12" d="M140 25.9l1.1-2.6"/><path id="XMLID_293_" class="st5" d="M160.7 19.8c.3.7.9 2.5.5 4.6v.1c-.2 1.1-.6 2.4-1.5 3.6-2.6 3.6-6.7 7.4-12.6 2.3-6.8-5.9-7.3-10.6-7.3-10.6-.4-7.2 2.2-10.5 5.4-11.6 2-.7 4.2-.6 6 0 2.4.7 4.3 2.1 4.5 3.4.5 3.2 2 4.1 2.5 4.3.1.1.2.1.2.1 1.1-3 2.9-2.4 4.1 0 1.3 2.4-1.8 3.8-1.8 3.8z"/><path id="XMLID_51_" class="st10" d="M161.2 24.4c-.2 1.2-.7 2.5-1.6 3.7-2.6 3.6-6.7 7.4-12.6 2.3-6.8-5.9-7.3-10.6-7.3-10.6-.4-7.2 2.2-10.5 5.4-11.6h6c2.4.7 4.3 2.1 4.5 3.4.5 3.2 2 4.1 2.5 4.3-.4-.2-1.4-.6-2.4-1.6 0 0-5.5 2-6.4 2.7 0 0-1.1-1.6-1.4-2.7 0 0-.4 1.3 0 3.1 0 0-2.8.8-3.5 1.3-.7.6 4 10.9 9 11.3 5.3.4 7.8-5.6 7.8-5.6z"/><path id="XMLID_292_" class="st13" d="M146.2 27l-.3.3c-.2.2-.5.3-.8.5 0 0-.1 0-.1.1-.4.2-.7.3-1 .4-2.5.7-3.5-1.2-4-2.3l4-1.9 1-.5.8-.4.2-.2s1.9 2.2.2 4z"/><path id="XMLID_291_" class="st13" d="M155.9 22.7c-.1.1-.2.2-.4.3-.2.2-.5.4-.9.5-.1.1-.3.1-.5.2s-.4.1-.5.2c-3.1 1-4-1-4.5-2.2l4.5-2 1-.5.7-.3.3-.1.5-.2c.1 0 1.6 2.3-.2 4.1z"/><g id="XMLID_21_" class="st14"><path id="XMLID_281_" class="st15" d="M144.9 23.5v4.3c-.4.2-.7.3-1 .4V24l1-.5z"/><path id="XMLID_276_" class="st15" d="M146.2 27l-.2-4-.3.2.1 4.1z"/></g><g id="XMLID_28_" class="st14"><path id="XMLID_35_" class="st15" d="M154.7 23.5v-4.3l-1 .5v4.2z"/><path id="XMLID_27_" class="st15" d="M155.9 22.7l-.2-3.9-.3.1.1 4.1z"/></g><path id="XMLID_249_" class="st1" d="M155.6 13.9c-2 .5-6 2.2-6 2.2-1.5-2.6-2-6.7-2-6.7-.6 3.2 0 7.4 0 7.4-.6.3-3.8 1.2-3.8 1.2-2.4-3-1.4-7-1.4-7-2.6 3.6-.1 7.1-.1 7.1l-2.1 1.3-1.2.7c-1.9-4.6-.3-8.5 1.6-11 .5-.6 1-1.2 1.5-1.6 1.7-1.5 3.8-2.4 6-2.6 7.2-.3 7.5 9 7.5 9z"/><path id="XMLID_26_" class="st12" d="M140 25.9l6-2.9s2.6 2.9-.9 4.7c-3.4 1.8-4.6-.6-5.1-1.8z"/><path id="XMLID_25_" class="st12" d="M149.2 21.7l7-3.2s2.3 3.4-2 5.1c-3.5 1.5-4.6-.7-5-1.9z"/><path id="XMLID_24_" class="st12" d="M156.2 18.6l2.7-3.7"/><path id="XMLID_23_" class="st12" d="M146 23l3.2-1.3"/><path id="XMLID_290_" class="st16" d="M163.3 34.9c-.2.3-.4.5-.7.6-1.9 1.1-4.6 2-6.4-.3 0 0-.1-1.7-1.1-2.9 0 0 3.9-2.3 6-7.2v.6c0 1.1.3 3.9 2.2 6.3.6.9.6 2 0 2.9z"/><path id="XMLID_201_" class="st10" d="M163.3 34.9c-.2.2-.4.5-.7.6-1.9 1.1-4.6 2-6.4-.3 0 0-.1-1.7-1.1-2.9 0 0 3.9-2.3 6-7.2v.6c-.5 1.7-1.2 3.9-2.1 5.2-1.7 2.1 1.1 6.4 4.3 4-.1 0 0 0 0 0z"/><path id="XMLID_52_" class="st4" d="M123.7 4.2h.1-.1z"/><path id="XMLID_204_" class="st4" d="M140.2 19.5l-1.2.7c-1.9-4.6-.3-8.5 1.6-11 .1 0-1.9 6.1-.4 10.3z"/><path id="XMLID_12_" class="st9" d="M156.2 35.2s6.3 2 7-3.3l-.7-1.1s1.7-.6 2.3 2c.6 2.6-2.2 4.6-5.8 4.8-4.6.3-4.4-3.1-3-3.8l.2 1.4z"/><path id="XMLID_49_" class="st6" d="M174.8 56.1c-.1.4-.1.8-.2 1.2 0 0-2 1.5-3.3 1.7-1.3.2-.3 3.7-2.8 8.2-2.5 4.5-4.9 9.7-6.4 12.4-1.5 2.7-5.3 3.7-6.4 4.8-1 1-.7 4.5-6.1 6.8.1-.1.1-.2.2-.3 1.6-2.1.6-1.1 2.3-2.4 1.7-1.4 1.6-3.5 1.6-3.5-1.6.6-3.1.4-3.6-1.2-.5-1.7.9-.2 2.3-.7 1.4-.5 3.5-.7 5.8-2.1 2.2-1.4 2.9-4.2 7-11.1 4.1-6.8 4.1-12.6 4.1-12.6l5.5-1.2z"/><path id="XMLID_323_" class="st9" d="M177.1 55.1s-.2.2-.7.5c-1.4.9-5 2.4-10.8 1.2 0 0-4.7-18.7 2.6-20.1 1.2-.2 2.2-.1 3.2.4 4.7 2.5 6.2 12.9 5.7 18z"/><path id="XMLID_53_" class="st10" d="M176.4 55.6c-1.4.9-5 2.4-10.8 1.2 0 0-4.7-18.7 2.6-20.1 1.2-.2 2.2-.1 3.2.4-.3-.1-2.5-.3-3 5.9-.6 6.6 1.7 15.3 8 12.6z"/><g id="XMLID_577_"><path id="XMLID_671_" class="st17" d="M133.2 280.3h.6l.9.3 1.4 1 .7-.5h.7l.4 1.1h1.2l.7-1.1h1l1 1.1 1.4-.6.2-1h.6l.8.5 1.2-.5v-1.1l.4-.4.8.8.1-4.2-.3-.1.1-1.5-.5-.7-.9.2-.3-1.4-3.2 5.9-8.1-2.3-.9 1.3z"/><path id="XMLID_663_" class="st18" d="M147.2 276.7l.1-1.1-1.1-.1-.1-.8 1-.7-.5-.8-1 .3-.4-.4.2-1-.7-.6-.7.6-.5-.3-.2-.8-1.1-.3-.5.9h-.7l-.4-1.1h-1l-.5 1.1h-.8l-.6-1.1h-.7l-.3 1.1h-.8l-.6-.7-1.1.3v1.2l-1.1-.5-.7.7.5 1-1.1.1v.9l1.5.4v.6l-.6.5.7 1.1 1-.3.5.2v1.3l1.4.4.9-1 .6.2.3 1.4h1.2l.8-1.1h1.1l.8 1 1.3-.2.3-.9.8-.3.8.6 1-.4-.6-1 .5-.3h1.1zm-5.2-.7c-.7.4-1.7.7-2.8.7-1.3 0-2.5-.4-3.1-1 0 0 .1-1.5 3.1-1.5 3.1.1 2.8 1.8 2.8 1.8z"/><path id="XMLID_660_" class="st17" d="M139.2 273c2 0 3.6.8 3.6 1.9 0 .4-.3.9-.8 1.2 0 0 .3-1.8-2.8-1.8-3.1 0-3.1 1.5-3.1 1.5-.3-.3-.4-.6-.4-.9 0-1.1 1.6-1.9 3.5-1.9z"/><g id="XMLID_634_"><g id="XMLID_638_"><path id="XMLID_653_" class="st19" d="M132.5 276v3.6l.7.7v-3.2z"/><path id="XMLID_652_" class="st19" d="M134.7 278.2v2.9l1.4.5v-3z"/><path id="XMLID_651_" class="st19" d="M137.9 279.1h1.2v3h-1.2z"/><path id="XMLID_648_" class="st19" d="M141.8 279.1v3.1l1.4-.6-.1-2.6z"/><path id="XMLID_644_" class="st19" d="M145.1 278.3l-.2 2.7 1.2-.5v-2.6z"/><path id="XMLID_639_" class="st19" d="M147.2 276.8v3l.2-1.1-.1-2.9z"/></g></g><path id="XMLID_578_" class="st17" d="M131.6 274.6l.3 3.6.6.6V276l.6-.5v-.5z"/></g><g id="XMLID_511_"><path id="XMLID_541_" class="st17" d="M110 275.1h.5l.8.3 1.3.9.5-.4h.7l.3.9h1l.7-.9h.9l.8.9 1.2-.5.2-.8.6-.1.7.5 1-.4v-1l.3-.4.8.7v-3.7h-.2l.1-1.4-.4-.6-.9.2-.2-1.2-2.9 5.2-7-2.1-.8 1.1z"/><path id="XMLID_533_" class="st18" d="M122.3 272l.1-.9-1-.1-.1-.7.9-.6-.4-.7-.9.2-.4-.4.2-.9-.6-.5-.6.5-.4-.3-.1-.7-1-.3-.5.8h-.6l-.4-1h-.8l-.4 1h-.7l-.5-1h-.8l-.3 1h-.7l-.5-.6-1 .3v1l-1-.5-.6.6.4.9-1 .1v.8l1.3.4v.5l-.6.4.6.9.9-.3.5.2v1.1l1.3.3.8-.9.5.2.2 1.2h1.1l.7-.9h.9l.7.9 1.1-.2.3-.8.7-.3.7.5.9-.3-.5-.8.4-.2h1.2zm-4.6-.6c-.6.4-1.4.6-2.4.6-1.2 0-2.2-.3-2.7-.9 0 0 0-1.3 2.7-1.3s2.4 1.6 2.4 1.6z"/><path id="XMLID_530_" class="st17" d="M115.3 268.7c1.7 0 3.1.7 3.1 1.7 0 .4-.3.8-.7 1 0 0 .2-1.6-2.4-1.6s-2.7 1.3-2.7 1.3c-.2-.2-.4-.5-.4-.8 0-.8 1.4-1.6 3.1-1.6z"/><g id="XMLID_515_"><g id="XMLID_517_"><path id="XMLID_523_" class="st19" d="M109.4 271.4v3.2l.6.5v-2.8z"/><path id="XMLID_522_" class="st19" d="M111.3 273.3v2.6l1.3.4v-2.7z"/><path id="XMLID_521_" class="st19" d="M114.1 274.1h1.1v2.7h-1.1z"/><path id="XMLID_520_" class="st19" d="M117.5 274.1v2.7l1.2-.5V274z"/><path id="XMLID_519_" class="st19" d="M120.4 273.4l-.1 2.4 1-.4v-2.3z"/><path id="XMLID_518_" class="st19" d="M122.3 272.1v2.6l.2-1-.2-2.5z"/></g></g><path id="XMLID_512_" class="st17" d="M108.6 270.1l.2 3.2.6.6v-2.5l.5-.4v-.5z"/></g><g id="XMLID_817_"><g id="XMLID_821_"><path id="XMLID_835_" class="st15" d="M365.8 182.5l-25 11.8-16-4.3-11.9-3.2 25.1-11.5 3.7 1z"/><g id="XMLID_822_"><g id="XMLID_824_"><g id="XMLID_827_"><path id="XMLID_828_" class="st20" d="M345.2 180.7c-.4 2-7.5-1-8.5.4-1 1.3 5.7 4.6 3.7 7.9-1.3 2.1-9.6 1.6-15.5 1l-11.9-3.2 25.1-11.5 3.8 1c1.6 1.4 3.5 3.3 3.3 4.4z"/></g><g id="XMLID_825_"><path id="XMLID_826_" class="st20" d="M349.8 183.2c1.3.1 2.3.9 2.2 1.8-.1.9-1.2 1.5-2.5 1.4-1.3-.1-2.3-.9-2.2-1.8.1-.9 1.2-1.5 2.5-1.4z"/></g></g></g></g><path id="XMLID_820_" class="st15" d="M314.4 187.1l25-11.5-1.4-.3-25.1 11.5z"/><path id="XMLID_819_" class="st15" d="M338 175.3l27.8 7.2-1.3.7-27.7-7.4z"/><path id="XMLID_818_" class="st15" d="M312.9 186.8l27.9 7.5 1.4-.6-28-7.6z"/></g><path id="XMLID_814_" class="st0" d="M305.6 160.1l-2.2-.6-1.3-.3-1.1.5-21.1 9.7-1.3.5 26.1 7.1 23.4-11z"/><path id="XMLID_811_" class="st0" d="M308.7 155.8s-11.2-.1-20.3-.5c-9.2-.4-16.5 5.2-23.7 7.3-7.2 2-23.3-4.5-34.2-5.8-10.8-1.3-14.6-6.6-22.4-10.1-7.8-3.5-16.6-11.8-9.2-14.6 7.4-2.8 5.9-3.5 11.2-4.2 5.4-.6 12.9 3.8 24 5.8s19.8 3.7 25.5 6.5c5.7 2.8 21.9 7.8 27.9 7.3 5.8-.5 20.9 4.2 21.2 8.3z"/><path id="XMLID_810_" class="st16" d="M286 120.9s2.2 21.9 4.4 27.9c2.3 6 4.7 3.1 4.2 6.4-.5 3.2-4.4-1.6-4.9-2.1s-3.9.5-2.5-1.9-6.6-11.8-5.4-30.9l4.2.6z"/><path id="XMLID_809_" class="st5" d="M308.7 155.8c-2-.2-6.2-3.1-8.7-3.9-2.5-.8-16.4-4.7-25.8-21.8l5.9-1s.2.5.6 1.3c1 1.9 3.5 5.8 8.1 9.4 6.6 5.1 8.3 7.6 11 8.1 2.7.5 4.9-.1 6.4-.2 1.5 0 2.3-2 2.5-.2.2 1.8-1.2 2.5-3 2.5 0 0 .7 2.1 2.9 2.8 2.1.7.7.1 3.1 1.5.1.1.2.1.3.2 1.7 1.3-1.4 1.5-3.3 1.3z"/><path id="XMLID_806_" class="st10" d="M308.7 155.8c-2-.2-6.2-3.1-8.7-3.9-2.5-.8-16.4-4.7-25.8-21.8l5.9-1s.2.5.6 1.3-1.3.9-2.5 1.7c-1.1.8 7.9 11.5 15.1 14.9 7.2 3.4 9.3 4 12 6.1 2 1.5 4.2.1 6.6 1.4 1.8 1.3-1.3 1.5-3.2 1.3z"/><path id="XMLID_803_" class="st3" d="M254.6 152c-.6 1.4-1.4 2.1-2.4 2.3-3.9 1-9.8-6.7-11.3-7l2.5-8.9s1.9.9 3.4 2.8c-.8-1.3-2.6-4.9-1.6-10.7l10.9-1.5c.1-.1 1.9 15.8-1.5 23z"/><path id="XMLID_800_" class="st21" d="M252.3 154.3c-3.9 1-9.8-6.7-11.3-7l2.5-8.9s1.9.9 3.4 2.8c-.8-1.3-2.6-4.9-1.6-10.7l10.9-1.5s-2.9 2-5.9 4.1c-3 2.1-.1 5.4 0 9.4.1 4.1-4-1.1-5.2 1.2-1.1 2.3 1.3 10.5 7.2 10.6z"/><path id="XMLID_797_" class="st22" d="M288.7 124.2c-.2.8-1 1.3-3.3 2-5.4 1.4-8.2.5-9.2-.1-.9-.6 1-2.7.4-7.1-.5-4.4 1.6-6.6 4.4-7 2.3-.4 3.9.5 4.9 1.8 1.3 1.7 1.8 4.1 1.9 6.2.2 1.9 1.1 3.2.9 4.2z"/><path id="XMLID_794_" class="st21" d="M288.7 124.2c-.1.7-1 1.3-3.3 1.9-5.4 1.4-8.2.5-9.2-.1-.9-.6 1-2.7.4-7.1-.5-4.4 1.6-6.6 4.4-7 2.3-.4 3.9.5 4.9 1.8 0 0-.8 2.3-2.3 5-1.4 2.7 2.3 9 5.1 5.5z"/><path id="XMLID_791_" class="st1" d="M218.2 143.4l-2.2 5.1c-3.4-1.3-3.3-1.6-7.5-1.8h-.5c-4-.1-7 0-7.2-1.4-.3-1.5 2.4-2.7 4.6-2.8 2.2-.1 4.2.7 7-1.4 1.8-1.3 3.1-1.5 3.8-1 .4.3.7.8.8 1.5.3 1.6 1.2 1.8 1.2 1.8z"/><path id="XMLID_788_" class="st1" d="M235.1 135.5s-.8-.1-1.1-1.8-1.7-2.4-4.3-.5c-2.6 2-4.5 1.3-6.5 1.3-2 .1-4.5 1.2-4.3 2.6.2 1.4 3.3 1.2 7.1 1.3 3.9.1 3.8.5 6.9 1.7l2.2-4.6z"/><path id="XMLID_785_" class="st4" d="M233.1 132.4c-.5.3-1.3 1-2.1 2.3-1.4 2.3-4.5.7-5.8 1.9-.9.9-1.2 1.5.3 2-3.6-.1-6.4 0-6.6-1.3-.2-1.4 2.2-2.5 4.2-2.6 2-.1 3.8.6 6.4-1.4 1.8-1.3 2.9-1.4 3.6-.9z"/><path id="XMLID_782_" class="st3" d="M245.5 130.3c0 .1 0 .1 0 0 0 .3 0 .6-.1.9-.6 4.5-4.2 17.5-6.1 21.3-2 4-5.1 3.2-9.7 1.4-.9-.4-2.1-.8-3.4-1.3-4.8-1.8-10.9-4.1-10.9-4.1.9-2.7 2.1-5.9 2.1-5.9 1.5-.2 6.1-.6 9.9.7 3.5 1.2 4.5 2.7 4.6 3.2 0-.6-.1-2.7 0-8 .1-6.8 1.1-15.9 1.1-15.9 2.8 5.8 11 7.4 12.2 7.6l.3.1z"/><path id="XMLID_779_" class="st21" d="M246.1 130.9l-.6.3c-.9.3-2.7.8-5.6.5-4.3-.5-1.6 13.6-3.2 16.8-1.6 3.2-5.8-1.8-9.6-1.3-3.6.5-3.4 2.4-.7 5.4-4.8-1.8-10.9-4.1-10.9-4.1.9-2.7 2.1-5.9 2.1-5.9 1.5-.2 6.1-.6 9.9.7 3.5 1.2 4.5 2.7 4.6 3.2 0-.6-.1-2.7 0-8 .1-6.8 1.1-15.9 1.1-15.9 2.8 5.8 11 7.4 12.2 7.6l.1.1.6.6z"/><path id="XMLID_776_" class="st23" d="M285.8 112.1c0 .2 0 .3-.1.4-.5 2.5-2.7 5.2-7.2 7.4-4.8 2.4-23.9 11-31.6 10.9-7.7-.1-16.4-5-13.1-11.4 3.2-6.4 13.3-7.2 18.2-8.1 4.9-.8 18.1-1.5 23.2-3.9 5.1-2.4 5.3-2.3 5.3-2.3 4.3 1.7 5.3 7 5.3 7z"/><path id="XMLID_768_" class="st21" d="M285.8 112.1s-1-5.3-5.2-6.8c0 0-.3-.1-5.3 2.3-5.1 2.4-18.4 3.1-23.2 3.9-4.9.8-15 1.7-18.2 8.1-3.3 6.4 5.4 11.3 13.1 11.4 7.7.1 26.8-8.5 31.6-10.9 4.5-2.3 6.7-4.9 7.2-7.4.1-.2.2-.5.3-.7-.1-.1-.2 0-.3.1zm-6.2 6.6c-2.3 1.7-18.1 7.5-21.6 8.7-3.5 1.2-10.1 2.8-13.4 0-3.3-2.8 2-9.2 11.8-11 9.8-1.9 19.5-6.6 22.1-7.5 2.6-.8 3.3-.3 5.1 1.3 1.3 1.1 1.8 1.8 1.9 2.2-1.6 2.3-4.4 5.2-5.9 6.3z"/><path id="XMLID_764_" class="st22" d="M284.7 127.5c-.1.2-.3.3-.5.5-1.3 1.1-4.3 2.7-10.2 2.9-6.9.2-4.1-2.1-5.2-6.5-1.1-4.4-1.2-10.8 5.2-11.7.2 0 .4-.1.7-.1 3.3-.2 6.1 1.7 7 6.7.9 5.3 3.9 7.1 3 8.2z"/><path id="XMLID_763_" class="st12" d="M304.1 102l-1.5-.7"/><path id="XMLID_760_" class="st7" d="M298.7 97.2c-7.7 0-11.4-3.2-11.4-3.2.4 2.1-1.3 11.3-.1 12.2 1.1.9 3.4 3.1 4.3 3.2h.2c.7-.2-.2-1.5 1.7-1.5s5.1-.2 7 .6c1.9.8 1.2.9 1.2.9-.4 3.8-2.3 6.3-6.3 6.8-.6.1-1.2.1-1.9.1-5.3-.1-7.8-4-9.1-7.4-1.3-3.3-5.2-2.1-5.6-10-.4-7.8 1.3-9.4 7.3-13.2 3.1-1.9 6.9-2.1 10.2-1.3 3.3.8 6 2.6 6.9 4.9 1.9 4.5 4 2.6 4.9 4.6.8 1.9-1.3 3.1-8.2 3.2-.4.1-.8.1-1.1.1z"/><path id="XMLID_757_" class="st4" d="M291.2 110.1c-.8 5.8 3.2 6.1 3.8 6.1-.6.1-1.2.1-1.8.1-5.3-.1-7.8-4-9.1-7.3-1.3-3.3-5.2-2.1-5.6-10-.4-7.8 1.3-9.4 7.3-13.2 3-1.9 6.9-2.1 10.2-1.3-3.8.2-5.5 3-5.7 7.5-.1 3.9 7.3 5 9.2 5.2h.5s-7.4 6.1-8.7 12.2c0 .2 0 .5-.1.7z"/><path id="XMLID_756_" class="st5" d="M301 108.9s-.5-.1-1.3-.2c-2-.3-5.6-.7-6.4.2-1.1 1.2-1.7 2.2-5 0s-2.4-5.7-2.5-8.3 1-5.6.6-7.2c0 0 7.1 4.3 15.8 3.8 0-.1 1.5 5.3-1.2 11.7z"/><path id="XMLID_753_" class="st10" d="M299.7 108.6c-2-.3-5.6-.7-6.4.2-1.1 1.2-1.7 2.2-5 0s-2.4-5.7-2.5-8.3 1-5.6.6-7.2c0 0 7.1 4.3 15.8 3.8 0 0-3.8 1.3-8.9 1.5-5.1.2-3 11.7-1.3 10.4 1.7-1.2 5.9-1.2 7.7-.4z"/><path id="XMLID_752_" class="st13" d="M296.2 101.8c0 1.5-1 2.8-2.3 3.1-.2 0-.4.1-.6.1-.3 0-.6-.1-.9-.2-.2-.1-.5-.2-.7-.4-.7-.6-1.2-1.5-1.2-2.6 0-1.7 1.3-3.2 2.9-3.2.5 0 1 .2 1.4.4.3.2.5.4.7.7.2.2.3.4.4.7.1.2.1.4.2.6 0 .2.1.5.1.8z"/><path id="XMLID_751_" class="st13" d="M304 102.7c-.2 1.5-1.2 2.7-2.4 2.8h-.5c-.3 0-.5-.1-.7-.3-.2-.1-.4-.3-.6-.5-.6-.6-.9-1.6-.8-2.7.2-1.7 1.5-3 2.9-2.8.5.1.9.3 1.2.6.2.2.4.5.6.7.1.2.2.5.3.7l.1.6c0 .3 0 .6-.1.9z"/><g id="XMLID_748_"><path id="XMLID_750_" class="st15" d="M304 101.6l-1.9 3.9c-.2 0-.3.1-.5.1l2.3-4.5.1.5z"/><path id="XMLID_749_" class="st15" d="M300.8 105.4l2.7-5c-.2-.3-.4-.5-.6-.7l-2.7 5.3.6.4z"/></g><g id="XMLID_745_"><path id="XMLID_747_" class="st15" d="M295.9 100.4l-2.6 4.5c.2 0 .4 0 .6-.1l2.2-3.9-.2-.5z"/><path id="XMLID_746_" class="st15" d="M295.5 99.7l-3.1 5-.7-.4 3-5.3c.3.2.6.4.8.7z"/></g><path id="XMLID_744_" class="st5" d="M282.2 103.9c-1-.9-1.2-3.4-.6-4.5.1-.3.4-.6.6-.6h.3c1.1 0 1.7 1.5 1.7 1.5.4 5.2-.8 4.8-2 3.6z"/><path id="XMLID_743_" class="st12" d="M296.2 101.8c0 1.7-1.3 3.2-2.8 3.2-1.6 0-2.8-1.4-2.8-3.2 0-1.7 1.3-3.2 2.8-3.2 1.5 0 2.8 1.4 2.8 3.2z"/><path id="XMLID_742_" d="M304 102.7c-.2 1.7-1.5 3-2.9 2.8-1.4-.2-2.3-1.7-2.1-3.4.2-1.7 1.5-3 2.9-2.8 1.4.1 2.4 1.7 2.1 3.4z" fill="none" stroke="#021826" stroke-width=".469" stroke-linecap="round" stroke-linejoin="round" stroke-miterlimit="10"/><path id="XMLID_741_" class="st12" d="M296.2 101.8l2.8.1"/><path id="XMLID_740_" class="st12" d="M284.1 98.3l6.4 3"/><g id="XMLID_707_"><path id="XMLID_737_" class="st17" d="M272.6 164.1h1.1l1.4.5 2.3 1.7 1.1-.8h1.2l.6 1.7h1.9l1.2-1.7h1.7l1.6 1.7 2.3-.9.4-1.6 1-.1 1.3.9 1.9-.8v-1.8l.6-.7 1.3 1.3.2-6.9h-.5l.2-2.5-.8-1.3-1.6.4-.3-2.3-5.4 9.7-13.2-3.9-1.5 2.2z"/><path id="XMLID_729_" class="st18" d="M295.5 158.3l.1-1.7-1.8-.2-.2-1.2 1.7-1.1-.8-1.2-1.6.4-.7-.7.4-1.6-1.1-.9-1.1.9-.8-.5-.2-1.3-1.8-.5-.8 1.4h-1.1l-.7-1.8h-1.6l-.8 1.8h-1.3l-.9-1.8H279l-.6 1.8H277l-1-1.1-1.8.5v1.9l-1.8-.9-1.2 1.1.8 1.6-1.8.2v1.4l2.4.7.1.9-1.1.8 1.1 1.7 1.6-.6.8.3v2.1l2.3.6 1.5-1.6.9.3.4 2.3h2l1.3-1.8 1.8.1 1.3 1.7 2.1-.3.5-1.5 1.3-.5 1.3 1 1.6-.6-1-1.6.8-.4h2.3zm-8.4-1.1c-1.1.7-2.7 1.2-4.5 1.2-2.2 0-4.1-.6-5.1-1.6 0 0 .1-2.5 5.1-2.5s4.5 2.9 4.5 2.9z"/><path id="XMLID_726_" class="st17" d="M282.5 152.2c3.2 0 5.8 1.4 5.8 3.1 0 .7-.5 1.4-1.3 1.9 0 0 .5-2.9-4.5-2.9s-5.1 2.5-5.1 2.5c-.5-.4-.7-.9-.7-1.5 0-1.8 2.6-3.1 5.8-3.1z"/><g id="XMLID_711_"><g id="XMLID_713_"><path id="XMLID_719_" class="st19" d="M271.5 157.2v5.9l1.1 1v-5.2z"/><path id="XMLID_718_" class="st19" d="M275.1 160.7v4.8l2.3.8v-5z"/><path id="XMLID_717_" class="st19" d="M280.3 162.2h2v5h-2z"/><path id="XMLID_716_" class="st19" d="M286.7 162.2v5l2.3-.9-.2-4.3z"/><path id="XMLID_715_" class="st19" d="M292.1 160.9l-.3 4.4 1.9-.8v-4.2z"/><path id="XMLID_714_" class="st19" d="M295.5 158.4v5l.4-1.9-.2-4.8z"/></g></g><path id="XMLID_708_" class="st17" d="M270.1 154.8l.4 5.9 1 1v-4.5l1-.8v-.9z"/></g><g id="XMLID_674_"><path id="XMLID_704_" class="st17" d="M300.3 171.6h.7l.8.3 1.5 1.1.6-.5h.7l.4 1h1.2l.7-1h1.1l.9 1 1.4-.5.3-1 .6-.1.8.6 1.2-.5v-1.1l.3-.4.8.7.1-4.2h-.3l.2-1.5-.5-.8-1 .3-.2-1.5-3.3 6-8.1-2.4-.9 1.3z"/><path id="XMLID_696_" class="st18" d="M314.3 168.1l.1-1.1-1.1-.1-.1-.8 1-.7-.5-.8-1 .3-.4-.4.2-1-.7-.6-.7.6-.5-.3-.2-.8-1.1-.3-.5.9h-.7l-.4-1.1h-1l-.5 1.1h-.8l-.6-1.1h-.9l-.3 1.1h-.6l-.6-.7-1.1.3v1.2l-1.1-.5-.7.7.5 1-1.1.1v.9l1.5.4v.6l-.6.5.7 1.1 1-.3.5.2v1.3l1.4.4.9-1 .6.2.3 1.4h1.2l.8-1.1h1.1l.8 1 1.3-.2.3-.9.8-.3.8.6 1-.4-.6-1 .5-.3h1.1zm-5.1-.7c-.7.4-1.7.7-2.8.7-1.3 0-2.5-.4-3.1-1 0 0 .1-1.5 3.1-1.5s2.8 1.8 2.8 1.8z"/><path id="XMLID_693_" class="st17" d="M306.4 164.3c2 0 3.6.8 3.6 1.9 0 .4-.3.9-.8 1.2 0 0 .3-1.8-2.8-1.8s-3.1 1.5-3.1 1.5c-.3-.3-.4-.6-.4-.9-.1-1.1 1.5-1.9 3.5-1.9z"/><g id="XMLID_678_"><g id="XMLID_680_"><path id="XMLID_686_" class="st19" d="M299.6 167.4v3.6l.7.6v-3.2z"/><path id="XMLID_685_" class="st19" d="M301.8 169.5v3l1.5.5v-3.1z"/><path id="XMLID_684_" class="st19" d="M305 170.5h1.2v3H305z"/><path id="XMLID_683_" class="st19" d="M308.9 170.5v3l1.4-.5-.1-2.7z"/><path id="XMLID_682_" class="st19" d="M312.3 169.7l-.2 2.6 1.1-.4v-2.6z"/><path id="XMLID_681_" class="st19" d="M314.3 168.1v3.1l.3-1.2-.2-2.9z"/></g></g><path id="XMLID_675_" class="st17" d="M298.8 165.9l.2 3.6.6.7v-2.8l.7-.5-.1-.6z"/></g><g id="XMLID_544_"><path id="XMLID_574_" class="st17" d="M285.2 179.5h.5l.8.3 1.2.9.6-.4h.7l.3.9h1l.7-.9h.9l.8.9 1.2-.5.2-.8.6-.1.7.5 1-.4v-1l.3-.4.8.7v-3.7h-.2l.1-1.4-.4-.6-.9.2-.2-1.2-2.9 5.2-7.1-2.1-.7 1.2z"/><path id="XMLID_566_" class="st18" d="M297.5 176.4l.1-.9-1-.1-.1-.7.9-.6-.4-.7-.9.2-.4-.4.2-.9-.6-.5-.6.5-.4-.3-.1-.7-1-.3-.5.8h-.6l-.4-1h-.8l-.4 1h-.7l-.5-1h-.8l-.3 1h-.7l-.5-.6-1 .3v1l-1-.5-.6.6.4.9-1 .1v.8l1.3.4v.5l-.6.4.6.9.9-.3.5.2v1.1l1.3.3.8-.9.5.2.2 1.2h1.1l.7-.9h.9l.7.9 1.1-.2.3-.8.7-.3.7.5.9-.3-.5-.8.4-.2h1.2zm-4.6-.6c-.6.4-1.4.6-2.4.6-1.2 0-2.2-.3-2.7-.9 0 0 0-1.3 2.7-1.3 2.7.1 2.4 1.6 2.4 1.6z"/><path id="XMLID_563_" class="st17" d="M290.5 173.1c1.7 0 3.1.7 3.1 1.7 0 .4-.3.8-.7 1 0 0 .2-1.6-2.4-1.6-2.7 0-2.7 1.3-2.7 1.3-.2-.2-.4-.5-.4-.8 0-.8 1.4-1.6 3.1-1.6z"/><g id="XMLID_548_"><g id="XMLID_550_"><path id="XMLID_556_" class="st19" d="M284.5 175.8v3.2l.7.5v-2.7z"/><path id="XMLID_555_" class="st19" d="M286.5 177.7v2.6l1.2.4V178z"/><path id="XMLID_554_" class="st19" d="M289.3 178.5h1.1v2.7h-1.1z"/><path id="XMLID_553_" class="st19" d="M292.7 178.5v2.7l1.2-.5v-2.3z"/><path id="XMLID_552_" class="st19" d="M295.6 177.8l-.1 2.4 1-.4v-2.3z"/><path id="XMLID_551_" class="st19" d="M297.5 176.5v2.6l.1-1-.1-2.5z"/></g></g><path id="XMLID_545_" class="st17" d="M283.8 174.5l.2 3.2.5.6v-2.5l.6-.4v-.5z"/></g><path id="XMLID_508_" class="st21" d="M284.2 128c-1.3 1.1-4.3 2.7-10.2 2.9-6.9.2-4.1-2.1-5.2-6.5-1.1-4.4-1.2-10.8 5.2-11.7.2 0 .4-.1.7-.1-.3.2-4.3 3.5-2.5 9.2 1.8 5.8 1.2 10 12 6.2z"/><path id="XMLID_505_" class="st4" d="M216.3 140c-.5.3-1.4 1-2.3 2.5-1.5 2.5-5 .7-6.3 2.1-1 1-1.4 1.6.4 2.1-4-.1-7 0-7.2-1.4-.3-1.5 2.4-2.7 4.6-2.8 2.2-.1 4.2.7 7-1.4 1.7-1.5 3-1.6 3.8-1.1z"/><g id="XMLID_486_"><g id="XMLID_490_"><path id="XMLID_504_" class="st15" d="M355.4 148.5l-25 11.8-15.9-4.4-11.9-3.2 25-11.5 3.8 1z"/><g id="XMLID_491_"><g id="XMLID_493_"><g id="XMLID_496_"><path id="XMLID_497_" class="st20" d="M334.8 146.6c-.4 2-7.5-1-8.5.4s5.7 4.6 3.7 7.9c-1.3 2.1-9.6 1.6-15.5 1l-11.9-3.2 25-11.5 3.8 1c1.7 1.5 3.6 3.3 3.4 4.4z"/></g><g id="XMLID_494_"><path id="XMLID_495_" class="st20" d="M339.5 149.1c1.3.1 2.3.9 2.2 1.8-.1.9-1.2 1.5-2.5 1.4-1.3-.1-2.3-.9-2.2-1.8.1-.8 1.2-1.5 2.5-1.4z"/></g></g></g></g><path id="XMLID_489_" class="st15" d="M304 153.1l25-11.5-1.4-.4-25 11.5z"/><path id="XMLID_488_" class="st15" d="M327.6 141.2l27.8 7.3-1.3.6-27.6-7.3z"/><path id="XMLID_487_" class="st15" d="M302.6 152.7l27.8 7.6 1.4-.7-27.9-7.5z"/></g><g id="XMLID_467_"><g id="XMLID_471_"><path id="XMLID_485_" class="st15" d="M400.2 176.9l-25 11.8-16-4.3-11.9-3.2 25.1-11.5 3.8 1z"/><g id="XMLID_472_"><g id="XMLID_474_"><g id="XMLID_477_"><path id="XMLID_478_" class="st20" d="M379.6 175.1c-.4 2-7.5-1-8.5.4-1 1.3 5.7 4.6 3.7 7.9-1.3 2.1-9.6 1.6-15.5 1l-11.9-3.2 25-11.5 3.8 1c1.7 1.4 3.6 3.3 3.4 4.4z"/></g><g id="XMLID_475_"><path id="XMLID_476_" class="st20" d="M384.3 177.6c1.3.1 2.3.9 2.2 1.8s-1.2 1.5-2.5 1.4c-1.3-.1-2.3-.9-2.2-1.8 0-.9 1.2-1.5 2.5-1.4z"/></g></g></g></g><path id="XMLID_470_" class="st15" d="M348.8 181.6l25-11.6-1.4-.3-25.1 11.5z"/><path id="XMLID_469_" class="st15" d="M372.4 169.7l27.8 7.2-1.3.7-27.7-7.4z"/><path id="XMLID_468_" class="st15" d="M347.3 181.2l27.9 7.5 1.4-.6-27.9-7.5z"/></g><g id="XMLID_448_"><g id="XMLID_452_"><path id="XMLID_466_" class="st15" d="M367.8 167.2l-20.3 9.6-13-3.5-9.6-2.6 20.3-9.4 3.1.8z"/><g id="XMLID_453_"><g id="XMLID_455_"><g id="XMLID_458_"><path id="XMLID_459_" class="st20" d="M351.1 165.7c-.3 1.6-6.1-.8-6.9.3-.8 1.1 4.7 3.7 3 6.4-1 1.7-7.8 1.3-12.6.8l-9.7-2.6 20.4-9.3 3.1.8c1.3 1.2 2.8 2.7 2.7 3.6z"/></g><g id="XMLID_456_"><path id="XMLID_457_" class="st20" d="M354.9 167.7c1.1.1 1.9.7 1.8 1.5-.1.7-1 1.2-2 1.2-1.1-.1-1.9-.7-1.8-1.5 0-.7.9-1.2 2-1.2z"/></g></g></g></g><path id="XMLID_451_" class="st15" d="M326 171l20.3-9.4-1.1-.3-20.3 9.4z"/><path id="XMLID_450_" class="st15" d="M345.2 161.3l22.6 5.9-1.1.5-22.4-5.9z"/><path id="XMLID_449_" class="st15" d="M324.9 170.7l22.6 6.1 1.1-.5-22.7-6.1z"/></g><path id="XMLID_15_" class="st0" d="M76.3 287.3l7.9-5.2 83.8 10.6-6.7 5.2z"/><path id="XMLID_41_" class="st0" d="M110 289.5l-29.3 30.6 94.3 4.4-65-35zm1.7 12.6l28.6 12.3-39-1.6 10.4-10.7z"/><path id="XMLID_81_" class="st3" d="M80.3 285.3l7.8-5.2 83.9 10.7-6.7 5.1z"/><path id="XMLID_128_" class="st23" d="M116.4 287.7l-29.3 30.6 94.3 4.4-65-35zm1.7 12.6l28.6 12.3-39-1.6 10.4-10.7z"/><path id="XMLID_155_" class="st0" d="M312.1 231.6s-71.9 63.4-98.3 72.1c0 0-14.8 5.2-27.7-2.7-5.5-3.3-152.4-96.6-181.8-127.6-4.2-4.4-4.8-9.5-4-10.6 6.5-8.4 51.5-26.9 52.2-26.7.8.3 259.6 95.5 259.6 95.5z"/><path id="XMLID_69_" d="M312.3 224.2c.6 4.2-.6 8.7-3.9 12-15.8 16-46.4 40.8-81.6 62.2-4 2.4-8.5 3.5-12.9 3.4-.5 0-1 0-1.5-.1-3.3-.4-6.6-1.4-9.5-3.3C171 278.7 67.2 211.3 15 169.1c-1.4-1.1-2.3-2.5-2.9-4-.4-.9-.5-1.9-.6-2.9-.9-4.9-1.9-14.7 1.8-21.4 0 0 5.6 3 6.6 8.7 1.4-.9 2.9-1.8 4.5-2.8 18.4-11.2 50.4-27.6 87.9-41.3 7.4-2.7 15.5-1.8 22.2 2.4 36.9 23.2 106.4 65.1 157 97.2 5.1 3.3 10 6.4 14.7 9.4.1 0 .1.1.2.1.9-2.4 2.5-5 5.3-7.8-.2-.1 1.9 5.7.6 17.5z" fill="#c7c5c6"/><path id="XMLID_62_" d="M212.3 286.3v15.3c-3.3-.4-6.6-1.4-9.5-3.3C171 278.7 67.2 211.3 15 169.1c-1.4-1.1-2.3-2.5-2.9-4-.4-.9-.5-1.9-.6-2.9-.9-4.9-1.9-14.7 1.8-21.4 0 0 5.6 3 6.6 8.7 1.4-.9 2.9-1.8 4.5-2.8l187.9 139.6z" opacity=".34" fill="#303030"/><path id="XMLID_146_" class="st29" d="M308.4 221.7c-15.8 16-49.9 39.8-85.1 61.2-3.4 2.1-7.1 3.2-11 3.4-4.5.2-9-.9-13-3.3-3.6-2.2-4.7-2.6-9.5-5.6-.4-.3-.8-.5-1.3-.8l14.1-10.2 97-70.5c2.1 1.4 4.2 2.7 6.3 4 7.6 4.9 8.8 15.5 2.5 21.8z"/><path id="XMLID_136_" d="M299.7 195.9l-96.5 71.6-13.4 9.9-.3.2c-1.4-.9-2.8-1.8-4.3-2.8-9-5.9-19.8-13-31.6-20.9-43.3-28.9-97.5-66.4-132.2-94l71.3-38.2 17.3-9.2 14.6-7.8 14.9-8c40.2 25 111.4 68 160.2 99.2z" fill="#284179"/><path id="XMLID_162_" class="st29" d="M139.5 96.6l-14.9 8-14.6 7.8-17.3 9.2-71.3 38.2c-2.2-1.8-4.4-3.5-6.5-5.2-5.6-4.5-4.3-13.6 1.7-17.6 12.4-8.4 36.8-21.9 67.2-34.9 5.8-2.5 11.9-4.9 18.1-7.4 3.4-1.3 6.8-2.6 10.3-3.9 1.7-.6 3.5-1.1 5.3-1.3 5.8-.8 11.8.5 16.9 3.7 1.6 1.2 3.3 2.3 5.1 3.4z"/><path id="XMLID_65_" d="M271 237.4c1.7 4-1.1 9-6.3 11.2-5.2 2.2-10.7.8-12.4-3.2-1.7-4 1.1-9 6.3-11.2 5.2-2.2 10.7-.8 12.4 3.2z" fill="none" stroke="#fff" stroke-width=".75" stroke-miterlimit="10"/><path id="XMLID_73_" class="st15" d="M57.6 130.4c0 2-1.6 3.6-3.6 3.6s-3.6-1.6-3.6-3.6 1.6-3.6 3.6-3.6c2-.1 3.6 1.6 3.6 3.6z"/><g id="XMLID_76_"><path id="XMLID_77_" class="st15" d="M65.1 125.5c-.7 0-1.4-.4-1.8-1.1-.5-1-.1-2.2.9-2.7l39.5-19.8c1-.5 2.2-.1 2.7.9s.1 2.2-.9 2.7L66 125.3c-.3.2-.6.2-.9.2z"/></g><path id="XMLID_230_" class="st23" d="M162.6 124.9l-12.3 7.2-10-7.3 11.8-6.8z"/><path id="XMLID_229_" class="st32" d="M150.3 132.1l-78.6 45.5-11-7.4 79.6-45.4z"/><path id="XMLID_78_" class="st32" d="M91.3 185.7l22.1 15.8 80.9-50.7-21.1-12.7z"/><path id="XMLID_104_" class="st33" d="M116.1 176l15.2 10.7-17.1 11-15.3-11.9z"/><path id="XMLID_86_" class="st33" d="M209.3 154.8l25.9 16-24.9 17-26.9-16.4z"/><path id="XMLID_80_" class="st33" d="M179.8 173.6l26.3 16.9-26.9 17.6-25.4-17.7z"/><path id="XMLID_132_" class="st33" d="M149.2 193.1l26.1 17.8-28.8 19.3-26.2-18.4z"/><path id="XMLID_87_" class="st33" d="M197.6 208.2l35.2 24.2-40.7 29.5-36.9-25.6z"/><path id="XMLID_88_" class="st33" d="M244.2 176.6l34.1 22.7-41.8 30.2-35.5-24.1z"/><g id="XMLID_82_"><path id="XMLID_18_" class="st33" d="M127 173.9c-.5 0-1-.3-1.3-.7-.4-.7-.2-1.6.5-2.1l48-28.2c.7-.4 1.6-.2 2.1.5.4.7.2 1.6-.5 2.1l-48 28.2c-.3.1-.6.2-.8.2z"/></g><g id="XMLID_83_"><path id="XMLID_17_" class="st33" d="M133.7 178.1c-.5 0-1-.3-1.3-.7-.4-.7-.2-1.6.5-2.1l48-28.2c.7-.4 1.6-.2 2.1.5.4.7.2 1.6-.5 2.1l-48 28.2c-.3.2-.5.2-.8.2z"/></g><g id="XMLID_34_" fill="none" stroke="#fff" stroke-width="1.5" stroke-miterlimit="10"><ellipse id="XMLID_103_" cx="149.7" cy="125.2" rx="3.1" ry="2.6"/><path id="XMLID_106_" stroke-linecap="round" stroke-linejoin="round" d="M153.4 125.2h5.1"/></g><path id="XMLID_5_" fill="none" stroke="#99cfd9" stroke-miterlimit="10" d="M21.4 159.9l121.3-65.1"/><path id="XMLID_143_" class="st37" d="M308.4 221.7c-15.8 16-49.9 39.8-85.1 61.2-3.4 2.1-7.1 3.2-11 3.4l-9.1-18.8-.5-1.1-78-161.7-7.2-14.9c5.8-.8 11.8.5 16.9 3.7 1.7 1 3.4 2.1 5.2 3.3 40.2 25.1 111.4 68.1 160.2 99.3 2.1 1.4 4.2 2.7 6.3 4 7.4 4.7 8.6 15.3 2.3 21.6z"/><path id="XMLID_59_" class="st37" d="M153.7 253.9L92.8 121.7l-9-19.5c5.8-2.5 11.9-4.9 18.1-7.4l8.1 17.6 75.2 162.3c-9-5.8-19.7-13-31.5-20.8z"/><path id="XMLID_234_" opacity=".19" fill="#300e05" d="M120.4 141.3l33.1-29.5-30-1.6-30.4 27.5z"/><path id="XMLID_207_" class="st32" d="M120.1 141.6l33.4-55.5-24.1-3.6-35.9 55.3z"/><path id="XMLID_206_" class="st39" d="M100.2 135.6l30.6-50.1"/><path id="XMLID_205_" class="st39" d="M115.2 123.6l16-26.2"/><path id="XMLID_187_" class="st10" d="M284.1 100.2s-.6-1.5-1.7-1.5h-.3c-.3.1-.5.3-.6.6-.6 1.2-.4 3.6.6 4.5 1.3 1.3 2.5 1.7 2-3.6zm-.4 2.9c0 1.1-1.5.8-1.3-1.4.2-2.2.9-1.5.9-1.5v-.1c.3.2.4.3.5.5 0 1.3-.1 1.4-.1 2.5z"/><path id="XMLID_186_" class="st33" d="M118.7 132.7c0 1.5-1.4 2.7-3.2 2.7-1.8 0-3.2-1.1-3.2-2.6s1.4-2.7 3.2-2.7c1.8 0 3.2 1.1 3.2 2.6z"/><path id="XMLID_185_" class="st33" d="M142.7 91.5c0 1.5-1.4 2.7-3.2 2.7-1.8 0-3.2-1.1-3.2-2.6s1.4-2.7 3.2-2.7c1.7 0 3.2 1.2 3.2 2.6z"/><path id="XMLID_100_" class="st0" d="M92.9 265.8L62 285.3s-10.7 3.4-13 5.8c-2.2 2.4-11.4 1.3-8.3-3.2 3.1-4.5 8.6-8.9 3.1-6.4s-5.7 3.5-8.9 2.3c-3.2-1.2-10.5 6.1-13.5 7.2-3 1.1-13.1-4.7-7.7-11.1 5.4-6.4 12.3-13.8 21.2-15.8 8.9-2-8.3-3.1-6.7-14.7 1.7-11.6 36.6-14.6 36.6-14.6l28.1 31z"/><path id="XMLID_620_" class="st1" d="M61.1 283.5c0 .1-.1.1 0 0-.2.1-.3.1-.4.1-3.2 1.3-3.5 1-6.8 3.8-1.3 1.1-2.4 2-3.3 2.6-1.5 1-2.5 1.4-3.3.7-1.3-1-.5-2.9 1.1-4.5s3.7-2.4 4.4-6.1c.7-3.6 2.5-4.1 4-2.9 1.5 1.2 2.3.7 2.3.7l1.9 5.3.1.3z"/><path id="XMLID_628_" class="st1" d="M35.4 281.4c-3.6 1.5-3.7 1.1-7.1 3.9-1.1 1-2.1 1.8-3 2.4-1.6 1.2-2.8 1.6-3.6 1-1.3-1-.5-2.9 1.1-4.5s3.7-2.5 4.4-6.1 2.5-4.1 4-2.9c1.4 1.2 2.3.7 2.3.7l1.9 5.5z"/><path id="XMLID_626_" class="st4" d="M35.4 281.4s-2.5-1.9-3.4-3.6c-.9-1.7-2.7-.8-2.6 1.2.1 1.9-7.6 6.8-4.1 8.7-1.6 1.2-2.8 1.6-3.6 1-1.3-1-.5-2.9 1.1-4.5s3.7-2.5 4.4-6.1 2.5-4.1 4-2.9c1.4 1.2 2.3.7 2.3.7l1.9 5.5z"/><path id="XMLID_354_" class="st4" d="M61 283.4v.6l-.3-.3c-.7-.6-2.4-2-3-3.3-.9-1.7-2.7-.8-2.6 1.2.1 1.9-7.2 6.6-4.4 8.6-1.5 1-2.5 1.4-3.3.7-1.3-1-.5-2.9 1.1-4.5s3.7-2.4 4.4-6.1c.7-3.6 2.5-4.1 4-2.9 1.5 1.2 2.3.7 2.3.7l1.8 5.3z"/><path id="XMLID_621_" class="st3" d="M63.3 271.2c-1 .9-2.7 1.9-4.8 2.9-5.6 2.7-13.9 5.4-16.1 5.8-3.1.5-6.3 2.3-6.3 2.3-3.3-3.5-4-8.4-4-8.4s5.3-1.3 11.4-5.1c6.2-3.8 9.1-3.5 9.1-3.5-3.7-13-2.4-20.8-2.4-20.8-5.5-9.8-1.8-15.3-1.8-15.3l7 2.3.4.1c-1.7 7.8 1.5 12.7 4.3 15.4 1.9 1.8 3.7 2.6 3.7 2.6.1 4 .7 8 1.1 11.6.4 4.5.4 8.2-1.6 10.1z"/><path id="XMLID_219_" class="st21" d="M58.5 274.1c-5.6 2.7-13.9 5.4-16.1 5.8-3.1.5-6.3 2.3-6.3 2.3-3.3-3.5-4-8.4-4-8.4s5.3-1.3 11.4-5.1c6.2-3.8 9.1-3.5 9.1-3.5-3.7-13-2.4-20.8-2.4-20.8-5.5-9.8-1.8-15.3-1.8-15.3l7 2.3c-.3.3-.7.6-1.2.9 0 0 2.6 2.5 1 2s.2 5 .8 10.1c.1.6-2.8 6.5.1 13.1s2.1 9.6.1 11.2c-2 1.6-3 .1-6.1 1.1-3.1 1-5.7 3.2-3.3 5.6 2.2 2.4 6.6.2 11.7-1.3z"/><path id="XMLID_359_" d="M64.9 261.1c-2.6-3.5-5.3-8.6-5.4-16.1 2.2 2.1 4.2 3 4.2 3 .1 4.5.8 9.1 1.2 13.1z" opacity=".3" fill="#050d2d"/><path id="XMLID_592_" class="st3" d="M92.9 265.8c-.5 1.4-2.5 3.2-5.3 5.1h-.1c-.1.1-.3.2-.6.4-8.4 5.5-22.9 11.9-25 14 0 0-3.5-3.2-4.6-8.6 0 0 4.8-2.8 8.9-5.7 4.1-2.8 7.2-7.1 14.6-9.8 0 0-4.5-1.9-7.6-5.1-3.1-3.2-5.3-5.9-7-6.2-1.8-.3-10.2-1.4-11.9-9.8-1.7-8.3.7-8.8.7-8.8l16.8-1.7s.7 1.8 5.8 9.1c5.2 7.5 17.1 21.5 15.3 27.1z"/><path id="XMLID_257_" class="st21" d="M87 271.3c-8.4 5.5-22.9 11.9-25 14 0 0-3.5-3.2-4.6-8.6 0 0 4.8-2.8 8.9-5.7 4.1-2.8 7.2-7.1 14.6-9.8 0 0-4.5-1.9-7.6-5.1-3.1-3.2-5.3-5.9-7-6.2-1.8-.3-10.2-1.4-11.9-9.8-1.7-8.3.7-8.8.7-8.8l16.8-1.7s-2.3 1.4-5.1 3.3c-2.9 1.9-1.3 8.5 3.2 10.3 4.5 1.8 5.9 8.5 11.9 11.4 6 2.9 3.6 6.1 0 8.1s-13.8 8.8-11.5 12.6c2.1 3.8 13.5-2.1 16.6-4z"/><path id="XMLID_609_" class="st5" d="M132.9 195.7c-1.7 1.3-6.9 2.4-9.4 3.7-2.4 1.3-15.6 8.9-35.4 3.3l3.6-5.2s2.8 1.2 7.4 1.6c2 .1 4.4.1 7.1-.2 8.7-1.2 11.8-.6 14.2-2.2 2.4-1.6 3.5-3.8 4.6-4.9 1.1-1.2.2-3.2 1.6-2 .5.4.8.8.9 1.3.2.9-.3 1.9-1.2 2.9 0 0 2.1 1 4.2-.1l.8-.4c.9-.5.3-.2 2.6-.8.2-.1.4-.1.6-.1 2-.5-.1 1.9-1.6 3.1z"/><path id="XMLID_222_" class="st10" d="M132.9 195.7c-1.7 1.3-6.9 2.4-9.4 3.7-2.4 1.3-15.6 8.9-35.4 3.3l3.6-5.2s2.8 1.2 7.4 1.6c0 .2.1 2-.2 3.1-.3 1.2 13.1 1.4 18.5-1.5 5.5-2.9 9.1-4.5 12.3-4.7 3.2-.2 5.4-3 4.8-3.6 2-.3-.1 2.1-1.6 3.3z"/><path id="XMLID_597_" class="st16" d="M112.4 175.1c-2.7 1.1-1.2.7-3.5 1-2.3.4-3.5 2.4-3.5 2.4 1.8.3 3.2 1.3 2.7 3.2s-.9-.4-2.5-.7c-1.6-.3-3.7-1.4-6.6-1.3-2.9.1-5.1 2.4-12.8 6.5-7.7 4.1-10.9 9.6-10.9 9.6l-1.8-.6-4.1-1.4C82 177.6 97.1 176 99.8 175.6c2.7-.4 7.6-2.6 9.7-2.5 1.2.1 2.8.4 3.5.8.6.3.6.8-.6 1.2z"/><path id="XMLID_581_" class="st10" d="M113.1 173.9c-.9-.1-3.6-.1-6.1 1.4-2.9 1.7-20.7 2.1-33.6 19.9l-4.1-1.4C82 177.6 97.1 176 99.8 175.6c2.7-.4 7.6-2.6 9.7-2.5 1.3.1 2.9.4 3.6.8z"/><path id="XMLID_598_" class="st23" d="M83.2 199.5c-1 2.1-1.4 3.1-6.5 10-3.3 4.5-4.4 10.2-4.7 13.6-.1 1.9-.1 3.1-.1 3.1-14.8 5.3-22.8-1-22.8-1 .5-1-.1-4.6 4.5-14.4s11.7-19.1 16.2-22.6 7.2-3.9 10.2-3.6l5.5 2.8c.3.4.5.7.6 1.1 1.5 3.8-2 9.1-2.9 11z"/><path id="XMLID_580_" class="st21" d="M86 188.4c-1.3.1-4.3.1-7.2-1.3-4-1.9-18.8 23.2-17.7 32.4 1.1 9.2 9.1 4.7 10.9 3.6-.1 1.9-.1 3.1-.1 3.1-14.8 5.3-22.8-1-22.8-1 .5-1-.1-4.6 4.5-14.4s11.7-19.1 16.2-22.6 7.2-3.9 10.2-3.6l5.5 2.8c.1.3.3.6.5 1z"/><path id="XMLID_588_" class="st7" d="M102.2 164.9c-.1 2.4-3.1 3.2-5.6 3.3-2.5.1-2.3 1.3-1.1 4.2 1.3 2.9 1.2 5.3.9 6-.3.8-1.8.5-1.8.5 1-2.6-3.1-5.9-4.6-1.9-1.5 4 1.4 5.5 1.4 5.5-.9 1.4-1.9 2.9-3.2 3.9-2.4 1.9-5.6 2.2-9.5-2.2-5.9-6.7-3.2-14.3-3.2-14.3s-3.7 1.3-4.1 0c-.4-1.3 3.8-2.3 3.8-2.3s-2.4-2.8-1.2-3.6c1.3-.8 3.3 3.5 3.3 3.5s.6-2.1 5-5c3.6-2.4 8.2-1.7 11.1-.4.7.3 1.2.6 1.7.9 2.6 1.7 3.7 1.4 4.6.6 1.1-.6 2.6-1.1 2.5 1.3z"/><path id="XMLID_585_" class="st4" d="M93.5 162.2s-4-1.1-7.3 4.8c-2.4 4.4-4.1 14.8 1.9 19.5-2.4 1.9-5.6 2.2-9.5-2.2-5.9-6.7-3.2-14.3-3.2-14.3s-3.7 1.3-4.1 0c-.4-1.3 3.8-2.3 3.8-2.3s-2.4-2.8-1.2-3.6c1.3-.8 3.3 3.5 3.3 3.5s.6-2.1 5-5c3.8-2.4 8.4-1.7 11.3-.4z"/><path id="XMLID_594_" class="st5" d="M99.5 187.8c-1.5 1-6.7 3.8-14.6 0 0 0 5.6-3.3 5-4.8-.6-1.5-2.6-6.7 1.5-8.6 2.8-1.4 3.7.7 4 2 .1.6.1 1.1.1 1.1v-1.7c-.2-2-.8-5.2-2.9-6.4-3-1.7 4.6-4.2 6.6-2.1.1.1.2.3.3.5 0 0 2.4 3.8 2.7 10.1s-1.2 8.9-2.7 9.9z"/><path id="XMLID_605_" class="st42" d="M93.4 205.6c-2.3 1.4-1.9 2-8-3.3s-5.1-9.8-3-12c1.3-1.4 2.9-1.7 4.7-1.5 5.2.7 11.5 6.6 12.4 7.6 1.2 1.5-3.8 7.8-6.1 9.2z"/><path id="XMLID_584_" class="st10" d="M99.5 187.8c-1.5 1-6.7 3.8-14.6 0 0 0 5.6-3.3 5-4.8-.6-1.5-2.6-6.7 1.5-8.6 2.8-1.4 3.7.7 4 2-.1-.3-.8-2.7-2.7-1.1-2 1.7-2.4 2-1.6 4.9.7 2.9.5 3.4-.8 5.5-1.3 2.2 1.9 3.8 9.2 2.1z"/><path id="XMLID_590_" class="st10" d="M99.2 167.3c-.3-.1-3.5-.8-4.5 1s2.3.7.8 7.5c-.2-2-.8-5.2-2.9-6.4-3.1-1.7 4.5-4.2 6.6-2.1z"/><path id="XMLID_224_" class="st21" d="M93.4 205.6c-2.3 1.4-1.9 2-8-3.3s-5.1-9.8-3-12c1.3-1.4 2.9-1.7 4.7-1.5-.9.4-4.6 2.5.6 8.9 5.7 7 10.7 2.8 11.9-1.2 1.1 1.4-3.9 7.7-6.2 9.1z"/><path id="XMLID_258_" class="st10" d="M131.3 193.2c-1.5 1.8-7.5 2.4-5.9.7 1.6-1.7 2-3.1 2-3.1.2.9-.3 1.9-1.2 2.9 0 0 2.1 1 4.2-.1.5-.2.8-.3.9-.4z"/><path id="XMLID_362_" class="st42" d="M71.8 229.8c-.2.1-.4.1-.6.1-20.4 4.6-23.7-1.6-23.7-1.6.6-4.3 1.7-3.9 1.7-3.9 8.3 4.9 16.9 2.9 20.7 1.7 1-.4 1.7-.6 1.9-.7h.1c2.4-.2-.1 4.4-.1 4.4z"/><path id="XMLID_220_" class="st21" d="M71.2 229.9c-20.4 4.6-23.7-1.6-23.7-1.6.6-4.3 1.7-3.9 1.7-3.9 8.3 4.9 16.9 2.9 20.7 1.7-.5.7-1.3 1.2-2.4 1.5-4.8 1-3.5 3.8 3.7 2.3z"/></g></svg>