<svg version="1.1" id="OBJECTS" xmlns="http://www.w3.org/2000/svg" x="0" y="0" viewBox="0 0 375.7 412.6" xml:space="preserve"><style>.st2{fill:#ff0d40}.st3{fill:#264f5f}.st5{fill:#ffb073}.st6{fill:#ed924c}.st7{fill:#153845}</style><ellipse cx="56.2" cy="402.3" rx="56.2" ry="10.3" fill="#1cb0a5"/><path id="XMLID_4_" d="M75.9 55.9C105.1 24.1 144.8 4.5 187.6.7l.5 6c-85.2 7.5-151.8 80.5-151.8 166 0 17 2.6 33.4 7.3 48.9l23-7.9c-4-13.2-6-27-6-40.9 0-43.8 19.6-84.2 53.9-111.5l-5.9-6.9c-36.3 29-57.1 72-57.1 118.4 0 10.7 1.1 21.4 3.3 31.8l-5.9 1.3c-2.3-10.8-3.5-21.9-3.5-33 0-49.3 22.5-94.8 61.7-125l2.3-1.7L123 62.1l-2.5 1.9c-34.3 26.1-54 65.7-54 108.7 0 50.6 27.6 96.4 72.1 120.3l4.3-8c-19.5-10.4-35.9-25.8-47.8-44.5-12.8-20.3-19.6-43.7-19.6-67.8 0-70.2 57.1-127.4 127.4-127.4 29.5 0 58.2 10.3 81 29.1l2.3 1.9-22.7 28.2-2.3-1.9c-15.5-12.9-35-20.3-55.2-21v9.1c43.8 1.6 79 37.7 79 81.9 0 45.2-36.8 82-82 82s-82-36.8-82-82c0-38.1 26.6-71.4 63.6-79.9l-.9-9.6c-41.8 8.7-71.9 45.8-71.9 89.5 0 50.2 40.9 91.1 91.1 91.1s91.1-40.9 91.1-91.1c0-22.3-8.1-43.7-22.9-60.4l-1.8-2.1 25.3-26 2.1 2.3c21.7 23.6 33.6 54.2 33.6 86.1 0 9.2-1 18.2-2.9 26.9l8.7 2.8c2.2-9.7 3.3-19.7 3.3-29.8 0-56.5-34-106.3-86.6-127.1l-2.9-1.1 8.5-19.4 2.7 1.1c29 11.5 53.7 31.3 71.6 57 18.3 26.4 27.9 57.3 27.9 89.5 0 19.3-3.5 38.3-10.4 56.2l-1 2.7-14.3-5.1c-10.4 25.4-27.8 47.1-50.4 63-24 16.8-52.2 25.7-81.5 25.7-17.1 0-33.9-3-49.8-9l-3.1-1.1 9.1-19.1 2.6.9c13.2 4.8 27 7.2 41.2 7.2 66.9 0 121.4-54.4 121.4-121.4 0-29.4-10.6-57.6-29.9-79.7l-17 17.4c14.6 17.5 22.6 39.5 22.6 62.3 0 53.5-43.6 97.1-97.1 97.1s-97.1-43.6-97.1-97.1c0-22.8 8-45.1 22.6-62.7C143.2 92 163.6 80.2 186 76.3l3.2-.5 2.7 30.6c3.6-.6 7.3-.9 11.1-.9 36.9 0 66.9 30 66.9 66.9 0 22.6-11.3 43.5-30.3 55.9l-2.5 1.7-16.5-25.5c-5.2 2.9-11.2 4.5-17.6 4.5-20.2 0-36.6-16.4-36.6-36.6v-3h15.4c1.5-10.4 10.4-18.5 21.3-18.5 6.2 0 12.1 2.7 16.2 7.4l-4.5 3.9c-2.9-3.4-7.2-5.3-11.7-5.3-8.5 0-15.5 7-15.5 15.5s7 15.5 15.5 15.5 15.5-7 15.5-15.5h6c0 11.9-9.6 21.5-21.5 21.5-10.8 0-19.8-8.1-21.3-18.5h-9.2c1.5 15.5 14.6 27.6 30.5 27.6 16.9 0 30.6-13.7 30.6-30.6s-13.7-30.6-30.6-30.6c-12.3 0-23.3 7.3-28.2 18.6l-5.5-2.4c5.8-13.5 19-22.3 33.7-22.3 20.2 0 36.6 16.4 36.6 36.6 0 11.7-5.5 22.1-14.1 28.8l5 7.7c11.5-8.6 18.2-22.1 18.2-36.5 0-25.2-20.5-45.7-45.8-45.7s-45.8 20.5-45.8 45.7c0 25.2 20.5 45.7 45.8 45.7 3.6 0 8.4-.8 11.7-1.6l2.3-.5 10 18.9-3.4 1.1c-6.6 2.1-13.5 3.2-20.6 3.2-36.9 0-66.9-30-66.9-66.9 0-31 21.2-57.1 49.8-64.7l-.8-9.2c-33.8 8.2-58.1 38.8-58.1 73.9 0 41.9 34.1 76 76 76s76-34.1 76-76-34.1-76-76-76h-3V75.6h3c21.6 0 42.6 7.3 59.6 20.5l15.2-18.9c-21.3-16.7-47.7-25.9-74.8-25.9-66.9 0-121.4 54.4-121.4 121.4 0 45.1 24.5 85.8 64.2 107l4.3-8c-35.3-18.9-59.4-56.2-59.4-99 0-61.9 50.4-112.2 112.2-112.2 20.7 0 40.9 5.7 58.4 16.4l-3.1 5.1c-16.6-10.2-35.8-15.6-55.3-15.6-58.6 0-106.2 47.7-106.2 106.2C96.7 231.3 144.4 279 203 279c58.6 0 106.2-47.7 106.2-106.2 0-22.1-6.7-43.2-19.5-61.2l4.9-3.5c13.5 19 20.6 41.4 20.6 64.7 0 61.9-50.4 112.2-112.2 112.2-17 0-33-3.8-47.5-10.5l-14.4 26.7-2.6-1.3c-23.1-11.8-42.6-29.6-56.3-51.6-5.7-9.1-10.3-18.8-13.8-28.8l-8.7 3c21.2 61.1 78.3 102 143.3 102 57.3 0 109.2-31.9 135.2-83.1l5.3 2.7c-13 25.6-32.7 47.1-57.1 62.4-25 15.7-53.9 24-83.5 24-34 0-66.5-10.7-93.8-31-25.4-18.8-44.8-45.4-55.2-75l-8.6 3C68 292.7 130 339.7 202.9 339.7c91.9 0 166.7-74.8 166.7-166.7C369.7 81.8 296.5 7.6 206 6v9.1c14.2.3 28.2 2.4 41.7 6.4l3.2.9-8 19.7-2.6-.8c-12-3.6-23.5-5.2-37.2-5.2-25.3 0-49.9 7-71.4 20.2l-2.4 1.5L117 40.6l2.7-1.7c24.1-15.1 51.8-23.2 80.3-23.8V0h3c95.2 0 172.7 77.5 172.7 172.7S298.2 345.5 203 345.5 30.3 268 30.3 172.7c0-43.3 16.2-84.8 45.6-116.8zM203 300.1c-13.9 0-27.6-2.2-40.7-6.7l-4 8.3c14.3 5 29.3 7.5 44.6 7.5 56 0 107.2-35.2 127.4-87.5l1.1-2.7 14.2 5c5.9-16.4 8.9-33.7 8.9-51.3 0-61.5-36.4-116.1-93-139.8l-3.7 8.4c25.1 10.5 46.5 27.9 62.2 50.4 16.6 23.9 25.4 52 25.4 81.1 0 11.6-1.4 23.2-4.2 34.4l-.8 3.1-14.4-4.7c-14.4 54.3-64.1 94.5-123 94.5zm-60.9-127.4c0 33.6 27.3 60.9 60.9 60.9 5.2 0 10.3-.7 15.3-1.9l-4.4-8.5c-2.7.6-7 1.3-10.8 1.3-28.5 0-51.8-23.2-51.8-51.7 0-28.5 23.2-51.7 51.8-51.7 28.5 0 51.8 23.2 51.8 51.7 0 16.5-7.8 31.8-20.9 41.5l5 7.7c15.8-11.5 25.1-29.7 25.1-49.2 0-33.6-27.3-60.9-60.9-60.9-33.8 0-61.1 27.3-61.1 60.8zM130.9 49.9C152.7 37 177.6 30.2 203 30.2c13.4 0 24.7 1.4 36.3 4.7l3.5-8.5c-12.9-3.5-26.3-5.3-39.8-5.3-27.3 0-54 7.3-77.4 21.3l5.3 7.5z" fill="#fefefe"/><g id="XMLID_10_"><g id="XMLID_11_"><path id="XMLID_12_" class="st2" d="M197.2 172.7c0 1.6 2.6 2.9 5.8 2.9 3.2 0 5.8-1.3 5.8-2.9 0-1.6-2.6-2.9-5.8-2.9-3.2.1-5.8 1.4-5.8 2.9z"/></g><g id="XMLID_13_"><path id="XMLID_14_" class="st2" d="M203 140l-17.1 7.8 17.1 5.8z"/></g><g id="XMLID_15_"><path id="XMLID_16_" class="st3" d="M203 173.2c.3 0 .5-.2.5-.5v-33.6c0-.3-.2-.5-.5-.5s-.5.2-.5.5v33.6c0 .3.2.5.5.5z"/></g></g><g id="XMLID_18_"><path id="XMLID_21_" class="st3" d="M139.1 189.8c6.5 0 13.6.3 20.2-.8.5-.1.9-.2 1.4-.3 1.7-.3 3.4-.8 5.1-1.4-1.9-.5-3.8-.7-5.7-.7h-1.2c-1.3 0-2.7.1-4.1.2-4.5.3-9.1.5-13.6.7h-.3c-.4 0-.8 0-1.1.1-.3.1-.6.2-.8.4-.6.6-.6 1.7.1 1.8z"/><path id="XMLID_22_" d="M140.9 186c1.3-.6 3.7-.9 4.9-.1 0 0 .1 0 .1.1.3.2.3.5.1.7-.5.6-1.5.1-2.1.2-.8 0-3.5.1-2.9 1.5.2.4-.4.8-.7.5-1.1-.9-.5-2.4.6-2.9z" fill="#274f5f"/><path id="XMLID_23_" class="st5" d="M158.8 186.6c.2.7.4 1.4.5 2.1v.3c.5-.1.9-.2 1.4-.3-.1-.7-.3-1.5-.6-2.1h-1.3z"/></g><path id="XMLID_26_" class="st5" d="M148.5 188.5c.6-1.2 1.5-2.3 2.7-2.9.6-.3.8-.7 1.5-.3.1.1 1 .9.7 1.1.7-.4 1.6-.3 2.3.1.7.4 1 1.3.9 2.1 1.3.5 2.1 1.9 2 3.2 2.3 3.2 1.4 7.1-.3 10.4-.1.2-.2.4-.4.4-.3.1-.6-.2-.7-.5-.1-.3-.1-.6-.3-.9-.2-.4-.7-.5-1.1-.4-.6.2-1 .9-1.7 1.1-1 .3-2 .3-2.9-.1-3.8-1.4-6.3-5-6.9-8.9-.2-1.1-.2-2.7.8-3.4.8-.6 2-.4 2.1.7.1.4 0 .9-.1 1.3.4-.9.9-2 1.4-3z"/><g id="XMLID_66_"><path class="st6" d="M151.7 186.4c.2-.1-.1-.6-.4-.9.5-.3.8-.6 1.5-.2.1.1.8.7.7 1-.6-.2-1.3-.1-1.8.1z" id="XMLID_88_"/><path class="st6" d="M145.3 191.6c.1-.4.2-.9.1-1.3 0-.3-.2-.5-.3-.7.4-.3.9-.4 1.3-.3-.4.8-.7 1.6-1.1 2.3z" id="XMLID_87_"/><path class="st6" d="M152.4 202c.7-.3 1.1-.9 1.7-1.1.4-.1.9 0 1.1.4-.3.3-.6.5-1 .7-.7.3-1.5.3-2.2.1 0 0 .2 0 .4-.1z" id="XMLID_86_"/><path class="st6" d="M156.8 191.8c.2-1.3-.7-2.7-2-3.2.1-.8-.3-1.6-.9-2.1-.1-.1-.2-.1-.4-.2.7-.3 1.5-.2 2.1.2.7.4 1 1.3.9 2.1 1.3.5 2.1 1.9 2 3.2 2.3 3.2 1.4 7.1-.3 10.4-.1.2-.2.4-.4.4-.3.1-.6-.2-.7-.5-.1-.3-.1-.5-.2-.8 1.5-3 2.1-6.5-.1-9.5z" id="XMLID_85_"/></g><path class="st7" d="M91.7 402.2c-8.8.2-17.5 0-26.3-.5-.6 0 3-5.8 3.6-6.3 2.3-1.8 5.4-2.2 8.1-1.1 1.8.8 3.3 2.3 5 3.3 3.1 1.7 6.4 3.1 9.6 4.6zm-46.3-1.7c-8.8.2-17.5 0-26.3-.5-.6 0 3-5.8 3.6-6.3 2.3-1.8 5.4-2.2 8.1-1.1 1.8.8 3.3 2.3 5 3.3 3.1 1.6 6.4 3 9.6 4.6z"/><path id="XMLID_31_" class="st5" d="M69 117.9c.9-.6 1.9-1.1 2.9-1.4 4.6-1.7 9.9-.9 14.1 1.6 2 1.2 3.8 2.7 4.9 4.8.9 1.7 2.7 3.9 3.2 5.7.2.8 0 1.8-.8 2.2 1.4 2 2.7 4 3.8 6.2 1.5 2.9-1.6 2.8-2.4 5-.9 2.4.4 5.5-.5 8.1-1.6 4.6-5 1.5-8.2 3.9-1.6 1.2-2.6 2.9-3.9 4.4-3 3.6-7.4 5.9-12 6.5-4.6.6-9.5-.7-13.2-3.5-.8-.6-1.7-1.4-1.7-2.4 0-1.5 1.6-2.4 3.1-2.4s2.9.5 4.4.3c2.8-.3 3.6-2.6 5-4.5 1.8-2.4 3-4.4 2.4-7.5-.5-2.8-2.2-5.2-4.3-7-3.2-2.6-5.4-4.9-4.3-9.1 1.1-4.5 3.7-8.4 7.5-10.9z"/><g id="XMLID_33_"><path id="XMLID_47_" class="st6" d="M60.1 156.8c-.9.1-1.8-.1-2.7-.2.3-.1.6-.1.9-.1.8 0 1.5.1 2.3.2-.2 0-.3.1-.5.1z"/><path id="XMLID_56_" class="st6" d="M67.5 164.7c4.6-.6 9-2.9 12-6.5 1.3-1.5 2.3-3.2 3.9-4.4 3.2-2.4 6.5.7 8.2-3.9.9-2.6-.4-5.7.5-8.1.8-2.2 3.9-2.1 2.4-5-1.1-2.2-2.4-4.2-3.8-6.2.7-.4 1-1.4.8-2.2-.5-1.8-2.3-4-3.2-5.7-1-2.1-2.9-3.6-4.9-4.8-2.3-1.4-4.9-2.2-7.6-2.4 3.5-.3 7.2.6 10.2 2.4 2 1.2 3.8 2.7 4.9 4.8.9 1.7 2.7 3.9 3.2 5.7.2.8 0 1.8-.8 2.2 1.4 2 2.7 4 3.8 6.2 1.5 2.9-1.6 2.8-2.4 5-.9 2.4.4 5.5-.5 8.1-1.6 4.6-5 1.5-8.2 3.9-1.6 1.2-2.6 2.9-3.9 4.4-3 3.6-7.4 5.9-12 6.5-1.2.1-2.4.2-3.6.1.4 0 .7 0 1-.1z"/></g><path id="XMLID_34_" class="st3" d="M63.8 109.9c.4-.4.9-.8 1.4-1.1 3.2-2.1 7.2-2.6 11-2.8 3.8-.2 7.7-.1 11.4-1.3 1.4-.5 2.9-1.1 4.3-.7 1.7.5 2.6 2.3 2.9 4.1.6 3.9-1.4 9-4.1 11.9-2.2 2.4-5.9 2.9-8.1 5.3-1.3 1.4-1.8 3.4-1.8 5.3s.5 3.8 1 5.6c-.3.1-.7.3-1 .4.2-.1-2.7-4.3-4.5-4-1.8.3-2.6 2.5-2.5 4.3.2 1.6.7 4.1 2.8 3.8-.7.1-1.6 11.6-7 7.4-1.5-1.2-1-2.2-1.3-3.9-.3-2-1.4-4-2.6-5.6-1.6-2.2-3.6-4-5.2-6.1-1.7-2.1-3-4.6-3.2-7.3-.1-2.7 1.3-5.6 3.8-6.5-1-3.1.4-6.5 2.7-8.8z"/><path id="XMLID_37_" class="st3" d="M107.9 309.5c3 6.1 6.1 12.5 5.8 19.3-.3 6.2-3.4 11.9-6.4 17.3-9.5 16.9-18.9 33.7-28.4 50.6.1-.2-9.7-.7-10.6-.6 3.6-11.7 9-22.3 14.4-33.3 5-10.2 9.8-22 6.5-33.5-2.3-8.1-8.1-11.4-13.7-16.8-5.8-5.6-11.8-11.2-16-18-4.2-6.9-6.6-15.3-4.5-23.1 1.6-6 6.6-10.7 12.3-12.8 3.4-1.3 7.4-1.7 10.9-.8 3.8.9 4.5 2.6 6.3 6 8.4 14.9 15.8 30.4 23.4 45.7z"/><path id="XMLID_40_" class="st3" d="M67.1 309.2c0 1.2-.1 2.5-.1 3.7-.2 5.6.3 11.5-.3 17-.6 5.7-3.6 10.9-6.3 15.8-9.5 16.9-18.9 33.7-28.4 50.6l-10.5-1.5c1.8.3 12-28.8 13-31.8 2.4-6.8 4.3-13.7 6.1-20.6 1-3.8 2.6-7.6 3-11.5.4-4.3-.9-9-1.6-13.3-1.6-10-3.9-20-6.8-29.7-1.9-6.3-4-12.9-2.1-19.2 2.2-7.1 9.9-11.9 17.2-10.8 9 1.4 12.2 9.3 14 17.1 2.8 11 3 22.8 2.8 34.2z"/><path id="XMLID_43_" class="st7" d="M79.5 279c-5.1 3.8-11.9 4.3-18.2 3.8-5.6-.4-11.2-1.4-16.6-3-3.7-1.1-7.7-2.8-9.4-6.3-1.3-2.9-.8-6.4.9-9.1 1.6-2.7 4.2-4.7 6.8-6.5 6.6-4.3 14.4-7.1 22.2-6.4 12.2 1.2 28.7 16.8 14.3 27.5z"/><path id="XMLID_46_" class="st3" d="M75.1 160c-6.5-2-13.3-3.6-20.2-3.2-6.8.4-13.8 2.8-18.5 7.8-5 5.4-6.9 12.9-8.3 20.2-3 15.7-4.8 31.7-3.5 47.7.6 7.3 1.8 14.6 3.8 21.6 1.6 5.5 3.5 13.9 7.1 18.5 7 9 26.9 4.5 35.9 2 3.5-1 7.2-2.2 9.5-5 4.5-5.3 2.5-13.5 3.5-19.9 1.3-7.8 4.3-15.7 7.6-22.8 4.3-9.2 9.8-17.8 12.7-27.5 2.3-7.8 3.7-20.5-2.5-27-6.2-6.7-18.9-9.9-27.1-12.4z"/><path id="XMLID_49_" d="M144.6 197.1c-.7 3.9 2.1 5.7 5.5 6.2 1 .2 2.3.2 3.1 1 .7.7 1.1 2 1.6 2.9.5 0 1-.4 1.2-.9.2-.5.3-1 .6-1.5s.7-.9 1.1-1.4c2.6-3.3-4.9-7.2-7-8.4-.9-.5-1.9-1.1-2.9-1-1.7 0-2.9 1.5-3.2 3.1z" fill="#db766b"/><path class="st3" d="M9.7 197c-2.1 6.3-3.6 12.9-5 19.4-.7 3.2-1.2 6.6-.4 9.8 1.4 5.3 6.3 8.9 11 11.7 5 3.1 10.2 5.9 15.4 8.5 3 1.5 11.9 4.1 10.7-2.4-.3-1.7-1.4-3.1-2.7-4.3-3.9-3.6-9.3-4.5-13.6-7.6-6.1-4.4-5.6-10.4-2.9-16.7 5.5-13 11.2-26.3 20.2-37.2 3-3.6 10.4-15.7 1.4-17.8-2-.5-4 .3-5.9 1.2-15.3 7.3-23.2 20.5-28.2 35.4z"/><path id="XMLID_53_" class="st3" d="M115.8 206.6c1.4 6 2.8 11.6 5.1 15.7 1.4 2.6 3.7 5.4 6.7 5.3 3.3-.1 5.3-3.5 6.7-6.5 2-4.2 3.9-8.5 6-12.6 1.5-3 1.8-5.6 3-8.7.7-1.7 2.2-3.3 4.1-3.4 1.8-.1 3.4 1.1 4.9 2.2 1.5 1.2 2.6 2.6 3.9 4 .4.4.8.8.8 1.3.1.6-.2 1.1-.4 1.6-2.6 4.9-5 9.8-7.3 14.9-2.4 5.1-5.5 9.7-8 14.7-3.9 6.3-10.1 14.1-18.4 13.4-6.6-.5-11.3-6.5-14.7-12.2-5.6-9.4-8.8-19.4-13.4-29.1-3.1-6.6-7.3-12.5-10-19.3-1.9-4.7-5-16.1.7-19.5 1.3-.8 2.8-1 4.3-.9 18.8.2 22 21.6 26 39.1z"/><path id="XMLID_54_" class="st3" d="M154.7 198.3c1 0 1 1.5 0 1.5-.9 0-.9-1.5 0-1.5z"/></svg>