<?xml version="1.0" encoding="utf-8"?>
<!-- Generator: Adobe Illustrator 23.0.1, SVG Export Plug-In . SVG Version: 6.00 Build 0)  -->
<svg version="1.1" xmlns="http://www.w3.org/2000/svg" xmlns:xlink="http://www.w3.org/1999/xlink" x="0px" y="0px"
	 viewBox="0 0 400.2 324.4" style="enable-background:new 0 0 400.2 324.4;" xml:space="preserve">
<style type="text/css">
	.st0{opacity:0.15;fill:#050D2D;}
	.st1{fill:#6F3D1B;}
	.st2{opacity:0.7;fill:#300E05;}
	.st3{fill:#002845;}
	.st4{opacity:0.41;fill:#300E05;}
	.st5{fill:#FDBC80;}
	.st6{opacity:0.14;fill:#711B09;}
	.st7{fill:#6D3E1A;}
	.st8{opacity:0.51;fill:#300E05;}
	.st9{fill:#E09615;}
	.st10{opacity:0.21;fill:#711B09;}
	.st11{fill:#FDD802;}
	.st12{fill:none;stroke:#021826;stroke-width:0.5;stroke-linecap:round;stroke-linejoin:round;stroke-miterlimit:10;}
	.st13{opacity:0.25;fill:#87DDE3;}
	.st14{opacity:0.77;}
	.st15{fill:#FFFFFF;}
	.st16{fill:#E39E67;}
	.st17{fill:#2D2D2D;}
	.st18{fill:#595959;}
	.st19{fill:#4C4C4C;}
	.st20{fill:#5D7AB5;}
	.st21{opacity:0.41;fill:#050D2D;}
	.st22{fill:#323850;}
	.st23{fill:#367DD0;}
	.st24{fill:none;stroke:#1C1C1B;stroke-width:0.7114;stroke-miterlimit:10;}
	.st25{fill:none;stroke:#021826;stroke-width:0.4692;stroke-linecap:round;stroke-linejoin:round;stroke-miterlimit:10;}
	.st26{opacity:0.26;fill:#FFFFFF;}
	.st27{fill:#C7C5C6;}
	.st28{opacity:0.34;fill:#303030;}
	.st29{fill:#22303F;}
	.st30{fill:#284179;}
	.st31{fill:none;stroke:#FFFFFF;stroke-width:0.75;stroke-miterlimit:10;}
	.st32{fill:#F3FFFF;}
	.st33{fill:#99CFD9;}
	.st34{fill:none;stroke:#FFFFFF;stroke-width:1.5;stroke-miterlimit:10;}
	.st35{fill:none;stroke:#FFFFFF;stroke-width:1.5;stroke-linecap:round;stroke-linejoin:round;stroke-miterlimit:10;}
	.st36{fill:none;stroke:#99CFD9;stroke-miterlimit:10;}
	.st37{opacity:0.14;fill:#FFFFFF;}
	.st38{opacity:0.19;fill:#300E05;}
	.st39{fill:none;stroke:#99CFD9;stroke-width:2;stroke-linecap:round;stroke-linejoin:round;stroke-miterlimit:10;}
	.st40{fill:#711B09;}
	.st41{opacity:0.3;fill:#050D2D;}
	.st42{fill:#095D9D;}
</style>
<g id="BACKGROUND">
</g>
<g id="OBJECTS">
	<g>
		<path id="XMLID_157_" class="st0" d="M193.6,80.5c0,0,1.7,1.7-2.3,4.2s-7.5,5.2-7.6,7s-12.6,17.7-14,18.6c-1.5,0.9-6.3,1-11.2,0.4
			c-4.9-0.6-23.8-11-27.6-15.7c-3.9-4.7,8.8-15,18.9-15.3c10.1-0.3,24,4.9,24,4.9s1.7-2.5,5.8-3.1S188.2,77.1,193.6,80.5z"/>
		<path id="XMLID_46_" class="st1" d="M187.6,85.9c-3.6,2.4-3.3,2.7-5.7,5.7l-4.7-3.3c0,0,0.7-0.6,0-2.3c-0.7-1.7,0.2-3.3,3.9-2.9
			c3.6,0.3,5-1.4,7-2.5c1.5-0.8,3.7-1.3,4.9-0.7h0c0.3,0.2,0.6,0.4,0.7,0.7C194.2,82,191.2,83.5,187.6,85.9z"/>
		<path id="XMLID_43_" class="st2" d="M192.9,79.8c-2.1-0.7-4.1,1.1-5.4,2.2c-1.3,1.1-4.1,4-6.1,3.6c-2-0.5-2.1,1.3-1.5,2.3
			c0.6,1,1.9,3.7,1.9,3.7l-4.7-3.3c0,0,0.7-0.6,0-2.3c-0.7-1.7,0.2-3.3,3.9-2.9c3.6,0.3,5-1.4,7-2.5
			C189.6,79.6,191.8,79.2,192.9,79.8z"/>
		<path id="XMLID_337_" class="st3" d="M162.8,82.9C162.8,82.9,162.8,82.9,162.8,82.9c-3.8,5.9-5.4,15.6-5.8,16.3
			c-3.8,9-20.6,9.6-18.2-0.6c2.4-10.2,9.4-18,9.4-18c0.6-0.7,12.9,1.9,14.4,2.3C162.8,82.9,162.8,82.9,162.8,82.9z"/>
		<path id="XMLID_37_" class="st4" d="M162.8,82.9c-3.8,5.8-5.4,15.5-5.7,16.3c-3.8,9-20.6,9.6-18.2-0.6c2.4-10.2,9.4-18,9.4-18
			c0.6-0.7,12.9,1.9,14.4,2.3c-0.3,0.2-0.6,0.4-1,0.6c0,0-5.7,1.6-9.8,1.2c-4.1-0.4-9.1,17.2-4.4,17.8s6.7-1.1,8.3-5.7
			C157,93.2,158.8,84.7,162.8,82.9z"/>
		<path id="XMLID_60_" class="st5" d="M152.2,53.1c-1,3.2-2.9,6.9-2.9,6.9c-3.3,9.1-13.2,15.2-14,16.5c-0.8,1.4-0.4,2.3-0.9,3
			c-0.3,0.4-0.3,1.4-0.6,1.8c0,0,0,0,0,0c-0.2,0.3-0.4,0.3-0.8-0.3c-1.1-1.4-0.8-3.2-0.8-3.2c-0.6,0.9-1.8,1.6-2.4,2
			c-0.5,0.4-0.3,2.5-0.7,4c-0.1,0.3-0.2,0.6-0.4,0.8c-0.9,1.4-1.8,1.8-1.8,0v-4.8c0-1.2,0.8-2.7,5.2-5.9c4.4-3.2,5-5,10.3-12.9
			c2.8-4.2,4.2-7.1,5-8.9c0.7-1.6,0.8-2.4,0.8-2.4C153.3,46.3,153.4,49.4,152.2,53.1z"/>
		<path id="XMLID_33_" class="st6" d="M152.2,53.1c-1,3.2-2.9,6.9-2.9,6.9c-3.3,9.1-13.2,15.2-14,16.5c-0.8,1.4-0.4,2.3-0.9,3
			c-0.3,0.4-0.3,1.4-0.6,1.8c-0.1-1.1-0.1-3.6,0.6-5c1-1.8,8.3-6.3,11-10.5c2.7-4.2,2.8-7.6,2.5-9.2c0,0-0.7-1.4-1.7,1
			c-1,2.5-7.2,12.8-10,15.1c-2.9,2.3-9.5,4.5-7.1,11c-0.1,0.3-0.2,0.6-0.4,0.8c-0.9,1.4-1.8,1.8-1.8,0v-4.8c0-1.2,0.8-2.7,5.2-5.9
			c4.4-3.2,5-5,10.3-12.9c2.8-4.2,4.2-7.1,5-8.9C149.3,52.5,151,52.8,152.2,53.1z"/>
		<path id="XMLID_56_" class="st7" d="M170.2,35.1c-0.1,0.1-0.1,0.3-0.2,0.4c-0.2,0.5-0.4,1-0.7,1.5c-0.7,1.3-1.7,2.5-2.9,3.6
			c-0.3,0.3-0.7,0.6-1,0.8c-2.2,1.6-4.9,3-7.8,4c-0.1,0-0.1,0-0.2,0.1c-4.4,1.6-9.4,2.5-13.9,2.7c-2.7,0.1-5.2-0.1-7.3-0.6
			c0,0,8.2-7.1,2.7-22c-5.5-14.9-1.7-19.3,2.9-22.8c1.5-1.2,3.1-2,4.7-2.4c3.4-1,7-0.5,10.4,1.2c5.2,2.6,7.4,6.5,9.3,12
			C168,18.7,173,27.2,170.2,35.1z"/>
		<path id="XMLID_22_" class="st8" d="M170,35.6c-0.2,0.5-0.4,1-0.7,1.5c-0.7,1.3-1.7,2.5-2.9,3.6c-0.5,0.2-1,0.4-1.5,0.8
			c-4.7-2.3-14.2-7.2-14.2-7.2V16.3l3.4,4.2l7.5-5.3c0,0,3,2.2,0.1,5.1c0,0,1.1,2.1,0,5.4c0,0,0.4,2.6,1.1,4c0,0,1-0.7,2,2.4
			C164.8,32.1,168.2,32.1,170,35.6z"/>
		<path id="XMLID_48_" class="st4" d="M158.9,32.5c0,0-1.3,9.5-1.5,13.1c-7.1,2.5-15.6,3.4-21.1,2.1c0,0,8.2-7.1,2.7-22
			c-5.5-14.9-1.7-19.3,2.9-22.8c1.5-1.2,3.1-2,4.7-2.4c-2.6,1.6-9.3,6.9-4.3,17.7l-2.3,2L158.9,32.5z"/>
		<path id="XMLID_29_" class="st2" d="M161.7,30.9c0,0-2,7.3-4.1,14.6c-0.1,0-0.1,0-0.2,0.1c-4.4,1.6-8.6,2.5-13,2.7
			c1.2-12.6,7.9-11.6,7.9-11.6l1.3-2.4c-1.1,0-2.2,0.5-7.1-2.7c-4.9-3.3-6.8-11.8-6.8-11.8L161.7,30.9z"/>
		<path id="XMLID_61_" class="st9" d="M155.8,52.3c-0.4,1.3-0.9,2.5-1.4,3.5c0,0-1.1,0.4-3.1,0.3c-1.8-0.1-4.2-0.8-6.9-2.6
			c0,0,1.9-14.4,7.2-15.6c0.2,0,0.3,0,0.5-0.1c0,0,0,0,0,0c0.1,0,0.2,0,0.3,0c0.2,0,0.4,0,0.6,0c2.7,0.5,3.8,3,4,6
			C157.2,46.5,156.6,49.7,155.8,52.3z"/>
		<path id="XMLID_47_" class="st10" d="M155.8,52.3c-1.4,1.2-3,2.5-4.4,3.7c-1.8-0.1-4.2-0.8-6.9-2.6c0,0,1.9-14.4,7.2-15.6
			c-2.9,2.7-4,8.9-4.7,12c-0.9,3.7,1.7,3.5,1.7,3.5c1.4-13.4,3.4-15.4,3.6-15.5c0,0,0,0,0,0s2.6,3.3,4.9,6.1
			C157.2,46.5,156.6,49.7,155.8,52.3z"/>
		<path id="XMLID_334_" class="st3" d="M179.2,96.6c-0.2,0.3-0.5,0.6-0.8,1c0,0-0.1,0.1-0.1,0.1c-2.9,3.6-8.4,10.3-10.9,11.6
			c-2.9,1.5-6.7,1.5-7.8,0c-1.1-1.5-3.3-2.3-2.5-10.9c0.7-8.6,5-15.7,5-15.7c5.7,0.3,11.6-5,11.6-5c3.4,3.9,0.9,10.6-0.3,13.2
			c2.5-4.9,3.4-2.9,7.1-0.5C184.4,93,181.7,93.5,179.2,96.6z"/>
		<path id="XMLID_36_" class="st4" d="M178.3,97.8c-2.9,3.6-8.4,10.3-10.9,11.6c-2.9,1.5-6.7,1.5-7.8,0c-1.1-1.5-3.3-2.3-2.5-10.9
			c0.7-8.6,5-15.7,5-15.7c5.7,0.3,11.6-5,11.6-5s-1.2,2.7-6.6,6.6c-5.4,3.9-6.6,21.7-3.8,23.1C166.1,108.7,171.9,105.3,178.3,97.8z"
			/>
		<path id="XMLID_306_" class="st11" d="M173.7,77.7c-0.3,0.7-0.9,1.3-1.7,1.8c-4.1,2.7-8,3.8-12.6,3.3c-4.6-0.5-9.1-2.1-11.1-2.3
			c-2-0.2,0.2-2.3,0-4.3c-0.1-2-1-12.7,0.9-23.1c1.9-10.3,1.7-15.8,6.7-19.4c0,0,3-1.8,6.4-1.3c0.4,0.1,0.9,0.2,1.3,0.3
			c0,0,2.2-0.5,5,2.2c2.7,2.7,1.8,21.8,3.3,29.7C173.2,71.1,175.1,75,173.7,77.7z"/>
		<path id="XMLID_255_" class="st10" d="M173.7,77.7c-0.3,0.7-0.9,1.3-1.7,1.8c-4.1,2.7-8,3.8-12.6,3.3c-4.6-0.5-9.1-2.1-11.1-2.3
			c-2-0.2,0.2-2.3,0-4.3c-0.1-2-1-12.7,0.9-23.1c1.9-10.3,1.7-15.8,6.7-19.4c0,0,3-1.8,6.4-1.3c1.4,0.8,2.4,1.4,2.4,1.4
			s-0.3,3.5-6.3,5.2c-5.9,1.7-4.9,37.2-1.4,39.5C160.5,81,167.6,83.7,173.7,77.7z"/>
		<path id="XMLID_63_" class="st5" d="M174.8,56.1c-0.1,0.4-0.1,0.8-0.2,1.2C171.9,75,161.3,83,159.4,84.5c-1.9,1.6-4.7,5.6-6.4,6.5
			c-1.6,0.9-4.4,1.7-3.4,0c0.1-0.1,0.1-0.2,0.2-0.3c1.6-2.1,0.6-1.1,2.3-2.4c1.7-1.4,1.6-3.5,1.6-3.5c-1.6,0.6-3.1,0.4-3.6-1.2
			c-0.5-1.7,0.9-0.2,2.3-0.7c1.4-0.5,3.5-0.7,5.8-2.1c2.2-1.4,2.9-4.2,7-11.1c4.1-6.8,4.1-12.6,4.1-12.6L174.8,56.1z"/>
		<path id="XMLID_10_" class="st4" d="M172.9,92.1c0,0-0.2,3.2-3.9,6.6c0,0,5.3-2.5,4.8-8.5L172.9,92.1z"/>
		<path id="XMLID_9_" class="st4" d="M157.7,91.4c0,0-0.9,3.1-5.3,5.5c0,0,5.7-1.2,6.7-7.2L157.7,91.4z"/>
		<line id="XMLID_50_" class="st12" x1="140" y1="25.9" x2="141.1" y2="23.3"/>
		<path id="XMLID_293_" class="st5" d="M160.7,19.8c0.3,0.7,0.9,2.5,0.5,4.6l0,0.1c-0.2,1.1-0.6,2.4-1.5,3.6
			c-2.6,3.6-6.7,7.4-12.6,2.3c-6.8-5.9-7.3-10.6-7.3-10.6c-0.4-7.2,2.2-10.5,5.4-11.6c2-0.7,4.2-0.6,6,0c2.4,0.7,4.3,2.1,4.5,3.4
			c0.5,3.2,2,4.1,2.5,4.3c0.1,0.1,0.2,0.1,0.2,0.1c1.1-3,2.9-2.4,4.1,0C163.8,18.4,160.7,19.8,160.7,19.8z"/>
		<path id="XMLID_51_" class="st10" d="M161.2,24.4L161.2,24.4c-0.2,1.2-0.7,2.5-1.6,3.7c-2.6,3.6-6.7,7.4-12.6,2.3
			c-6.8-5.9-7.3-10.6-7.3-10.6c-0.4-7.2,2.2-10.5,5.4-11.6h6c2.4,0.7,4.3,2.1,4.5,3.4c0.5,3.2,2,4.1,2.5,4.3
			c-0.4-0.2-1.4-0.6-2.4-1.6c0,0-5.5,2-6.4,2.7c0,0-1.1-1.6-1.4-2.7c0,0-0.4,1.3,0,3.1c0,0-2.8,0.8-3.5,1.3c-0.7,0.6,4,10.9,9,11.3
			C158.7,30.4,161.2,24.4,161.2,24.4z"/>
		<path id="XMLID_292_" class="st13" d="M146.2,27c-0.1,0.1-0.2,0.2-0.3,0.3c-0.2,0.2-0.5,0.3-0.8,0.5c0,0-0.1,0-0.1,0.1
			c-0.4,0.2-0.7,0.3-1,0.4c-2.5,0.7-3.5-1.2-4-2.3l4-1.9l1-0.5l0.8-0.4L146,23l0,0C146,23,147.9,25.2,146.2,27z"/>
		<path id="XMLID_291_" class="st13" d="M155.9,22.7c-0.1,0.1-0.2,0.2-0.4,0.3c-0.2,0.2-0.5,0.4-0.9,0.5c-0.1,0.1-0.3,0.1-0.5,0.2
			c-0.2,0.1-0.4,0.1-0.5,0.2c-3.1,1-4-1-4.5-2.2l4.5-2l1-0.5l0.7-0.3l0.3-0.1l0.5-0.2C156.2,18.6,157.7,20.9,155.9,22.7z"/>
		<g id="XMLID_21_" class="st14">
			<path id="XMLID_281_" class="st15" d="M144.9,23.5v4.3c-0.4,0.2-0.7,0.3-1,0.4V24L144.9,23.5z"/>
			<polygon id="XMLID_276_" class="st15" points="146.2,27 146,23 145.7,23.2 145.8,27.3 			"/>
		</g>
		<g id="XMLID_28_" class="st14">
			<polygon id="XMLID_35_" class="st15" points="154.7,23.5 154.7,19.2 153.7,19.7 153.7,23.9 			"/>
			<polygon id="XMLID_27_" class="st15" points="155.9,22.7 155.7,18.8 155.4,18.9 155.5,23 			"/>
		</g>
		<path id="XMLID_249_" class="st1" d="M155.6,13.9c-2,0.5-6,2.2-6,2.2c-1.5-2.6-2-6.7-2-6.7c-0.6,3.2,0,7.4,0,7.4
			c-0.6,0.3-3.8,1.2-3.8,1.2c-2.4-3-1.4-7-1.4-7c-2.6,3.6-0.1,7.1-0.1,7.1l-2.1,1.3l-1.2,0.7c-1.9-4.6-0.3-8.5,1.6-11
			c0.5-0.6,1-1.2,1.5-1.6c1.7-1.5,3.8-2.4,6-2.6C155.3,4.6,155.6,13.9,155.6,13.9z"/>
		<path id="XMLID_26_" class="st12" d="M140,25.9l6-2.9c0,0,2.6,2.9-0.9,4.7C141.7,29.5,140.5,27.1,140,25.9z"/>
		<path id="XMLID_25_" class="st12" d="M149.2,21.7l7-3.2c0,0,2.3,3.4-2,5.1C150.7,25.1,149.6,22.9,149.2,21.7z"/>
		<line id="XMLID_24_" class="st12" x1="156.2" y1="18.6" x2="158.9" y2="14.9"/>
		<line id="XMLID_23_" class="st12" x1="146" y1="23" x2="149.2" y2="21.7"/>
		<path id="XMLID_290_" class="st16" d="M163.3,34.9L163.3,34.9c-0.2,0.3-0.4,0.5-0.7,0.6c-1.9,1.1-4.6,2-6.4-0.3
			c0,0-0.1-1.7-1.1-2.9c0,0,3.9-2.3,6-7.2c0,0,0,0.2,0,0.6c0,1.1,0.3,3.9,2.2,6.3C163.9,32.9,163.9,34,163.3,34.9z"/>
		<path id="XMLID_201_" class="st10" d="M163.3,34.9c-0.2,0.2-0.4,0.5-0.7,0.6c-1.9,1.1-4.6,2-6.4-0.3c0,0-0.1-1.7-1.1-2.9
			c0,0,3.9-2.3,6-7.2c0,0,0,0.2,0,0.6c-0.5,1.7-1.2,3.9-2.1,5.2C157.3,33,160.1,37.3,163.3,34.9C163.2,34.9,163.3,34.9,163.3,34.9z"
			/>
		<path id="XMLID_52_" class="st4" d="M123.7,4.2c0,0,0.1,0,0.1,0C123.5,4.2,123.4,4.2,123.7,4.2z"/>
		<path id="XMLID_204_" class="st4" d="M140.2,19.5l-1.2,0.7c-1.9-4.6-0.3-8.5,1.6-11C140.7,9.2,138.7,15.3,140.2,19.5z"/>
		<path id="XMLID_12_" class="st9" d="M156.2,35.2c0,0,6.3,2,7-3.3l-0.7-1.1c0,0,1.7-0.6,2.3,2c0.6,2.6-2.2,4.6-5.8,4.8
			c-4.6,0.3-4.4-3.1-3-3.8L156.2,35.2z"/>
		<path id="XMLID_49_" class="st6" d="M174.8,56.1c-0.1,0.4-0.1,0.8-0.2,1.2c0,0-2,1.5-3.3,1.7c-1.3,0.2-0.3,3.7-2.8,8.2
			c-2.5,4.5-4.9,9.7-6.4,12.4c-1.5,2.7-5.3,3.7-6.4,4.8c-1,1-0.7,4.5-6.1,6.8c0.1-0.1,0.1-0.2,0.2-0.3c1.6-2.1,0.6-1.1,2.3-2.4
			c1.7-1.4,1.6-3.5,1.6-3.5c-1.6,0.6-3.1,0.4-3.6-1.2c-0.5-1.7,0.9-0.2,2.3-0.7c1.4-0.5,3.5-0.7,5.8-2.1c2.2-1.4,2.9-4.2,7-11.1
			c4.1-6.8,4.1-12.6,4.1-12.6L174.8,56.1z"/>
		<path id="XMLID_323_" class="st9" d="M177.1,55.1c0,0-0.2,0.2-0.7,0.5c-1.4,0.9-5,2.4-10.8,1.2c0,0-4.7-18.7,2.6-20.1
			c1.2-0.2,2.2-0.1,3.2,0.4c0,0,0,0,0,0C176.1,39.6,177.6,50,177.1,55.1z"/>
		<path id="XMLID_53_" class="st10" d="M176.4,55.6c-1.4,0.9-5,2.4-10.8,1.2c0,0-4.7-18.7,2.6-20.1c1.2-0.2,2.2-0.1,3.2,0.4
			c-0.3-0.1-2.5-0.3-3,5.9C167.8,49.6,170.1,58.3,176.4,55.6z"/>
	</g>
	<g>
		<g id="XMLID_577_">
			<polygon id="XMLID_671_" class="st17" points="133.2,280.3 133.8,280.3 134.7,280.6 136.1,281.6 136.8,281.1 137.5,281.1 
				137.9,282.2 139.1,282.2 139.8,281.1 140.8,281.1 141.8,282.2 143.2,281.6 143.4,280.6 144,280.6 144.8,281.1 146,280.6 
				146,279.5 146.4,279.1 147.2,279.9 147.3,275.7 147,275.6 147.1,274.1 146.6,273.4 145.7,273.6 145.4,272.2 142.2,278.1 
				134.1,275.8 133.2,277.1 			"/>
			<path id="XMLID_663_" class="st18" d="M147.2,276.7l0.1-1.1l-1.1-0.1l-0.1-0.8l1-0.7l-0.5-0.8l-1,0.3l-0.4-0.4l0.2-1l-0.7-0.6
				l-0.7,0.6l-0.5-0.3l-0.2-0.8l-1.1-0.3l-0.5,0.9h-0.7l-0.4-1.1h-1l-0.5,1.1h-0.8l-0.6-1.1H137l-0.3,1.1h-0.8l-0.6-0.7l-1.1,0.3
				v1.2l-1.1-0.5l-0.7,0.7l0.5,1l-1.1,0.1v0.9l1.5,0.4l0,0.6l-0.6,0.5l0.7,1.1l1-0.3l0.5,0.2v1.3l1.4,0.4l0.9-1l0.6,0.2l0.3,1.4h1.2
				l0.8-1.1l1.1,0l0.8,1l1.3-0.2l0.3-0.9l0.8-0.3l0.8,0.6l1-0.4l-0.6-1l0.5-0.3H147.2z M142,276c-0.7,0.4-1.7,0.7-2.8,0.7
				c-1.3,0-2.5-0.4-3.1-1c0,0,0.1-1.5,3.1-1.5C142.3,274.3,142,276,142,276z"/>
			<path id="XMLID_660_" class="st17" d="M139.2,273c2,0,3.6,0.8,3.6,1.9c0,0.4-0.3,0.9-0.8,1.2c0,0,0.3-1.8-2.8-1.8
				c-3.1,0-3.1,1.5-3.1,1.5c-0.3-0.3-0.4-0.6-0.4-0.9C135.7,273.8,137.3,273,139.2,273z"/>
			<g id="XMLID_634_">
				<g id="XMLID_638_">
					<polygon id="XMLID_653_" class="st19" points="132.5,276 132.5,279.6 133.2,280.3 133.2,277.1 					"/>
					<polygon id="XMLID_652_" class="st19" points="134.7,278.2 134.7,281.1 136.1,281.6 136.1,278.6 					"/>
					<rect id="XMLID_651_" x="137.9" y="279.1" class="st19" width="1.2" height="3"/>
					<polygon id="XMLID_648_" class="st19" points="141.8,279.1 141.8,282.2 143.2,281.6 143.1,279 					"/>
					<polygon id="XMLID_644_" class="st19" points="145.1,278.3 144.9,281 146.1,280.5 146.1,277.9 					"/>
					<polygon id="XMLID_639_" class="st19" points="147.2,276.8 147.2,279.8 147.4,278.7 147.3,275.8 					"/>
				</g>
			</g>
			<polygon id="XMLID_578_" class="st17" points="131.6,274.6 131.9,278.2 132.5,278.8 132.5,276 133.1,275.5 133.1,275 			"/>
		</g>
		<g id="XMLID_511_">
			<polygon id="XMLID_541_" class="st17" points="110,275.1 110.5,275.1 111.3,275.4 112.6,276.3 113.1,275.9 113.8,275.9 
				114.1,276.8 115.1,276.8 115.8,275.9 116.7,275.9 117.5,276.8 118.7,276.3 118.9,275.5 119.5,275.4 120.2,275.9 121.2,275.5 
				121.2,274.5 121.5,274.1 122.3,274.8 122.3,271.1 122.1,271.1 122.2,269.7 121.8,269.1 120.9,269.3 120.7,268.1 117.8,273.3 
				110.8,271.2 110,272.3 			"/>
			<path id="XMLID_533_" class="st18" d="M122.3,272l0.1-0.9l-1-0.1l-0.1-0.7l0.9-0.6l-0.4-0.7l-0.9,0.2l-0.4-0.4l0.2-0.9l-0.6-0.5
				l-0.6,0.5l-0.4-0.3l-0.1-0.7l-1-0.3l-0.5,0.8h-0.6l-0.4-1h-0.8l-0.4,1h-0.7l-0.5-1h-0.8l-0.3,1h-0.7l-0.5-0.6l-1,0.3v1l-1-0.5
				l-0.6,0.6l0.4,0.9l-1,0.1v0.8l1.3,0.4l0,0.5l-0.6,0.4l0.6,0.9l0.9-0.3l0.5,0.2v1.1l1.3,0.3l0.8-0.9l0.5,0.2l0.2,1.2h1.1l0.7-0.9
				l0.9,0l0.7,0.9l1.1-0.2l0.3-0.8l0.7-0.3l0.7,0.5l0.9-0.3l-0.5-0.8l0.4-0.2H122.3z M117.7,271.4c-0.6,0.4-1.4,0.6-2.4,0.6
				c-1.2,0-2.2-0.3-2.7-0.9c0,0,0-1.3,2.7-1.3S117.7,271.4,117.7,271.4z"/>
			<path id="XMLID_530_" class="st17" d="M115.3,268.7c1.7,0,3.1,0.7,3.1,1.7c0,0.4-0.3,0.8-0.7,1c0,0,0.2-1.6-2.4-1.6
				s-2.7,1.3-2.7,1.3c-0.2-0.2-0.4-0.5-0.4-0.8C112.2,269.5,113.6,268.7,115.3,268.7z"/>
			<g id="XMLID_515_">
				<g id="XMLID_517_">
					<polygon id="XMLID_523_" class="st19" points="109.4,271.4 109.4,274.6 110,275.1 110,272.3 					"/>
					<polygon id="XMLID_522_" class="st19" points="111.3,273.3 111.3,275.9 112.6,276.3 112.6,273.6 					"/>
					<rect id="XMLID_521_" x="114.1" y="274.1" class="st19" width="1.1" height="2.7"/>
					<polygon id="XMLID_520_" class="st19" points="117.5,274.1 117.5,276.8 118.7,276.3 118.7,274 					"/>
					<polygon id="XMLID_519_" class="st19" points="120.4,273.4 120.3,275.8 121.3,275.4 121.3,273.1 					"/>
					<polygon id="XMLID_518_" class="st19" points="122.3,272.1 122.3,274.7 122.5,273.7 122.3,271.2 					"/>
				</g>
			</g>
			<polygon id="XMLID_512_" class="st17" points="108.6,270.1 108.8,273.3 109.4,273.9 109.4,271.4 109.9,271 109.9,270.5 			"/>
		</g>
	</g>
	<g>
		<g id="XMLID_817_">
			<g id="XMLID_821_">
				<polygon id="XMLID_835_" class="st15" points="365.8,182.5 340.8,194.3 324.8,190 312.9,186.8 338,175.3 341.7,176.3 				"/>
				<g id="XMLID_822_">
					<g id="XMLID_824_">
						<g id="XMLID_827_">
							<path id="XMLID_828_" class="st20" d="M345.2,180.7c-0.4,2-7.5-1-8.5,0.4c-1,1.3,5.7,4.6,3.7,7.9c-1.3,2.1-9.6,1.6-15.5,1
								l-11.9-3.2l25.1-11.5l3.8,1C343.5,177.7,345.4,179.6,345.2,180.7z"/>
						</g>
						<g id="XMLID_825_">
							<path id="XMLID_826_" class="st20" d="M349.8,183.2c1.3,0.1,2.3,0.9,2.2,1.8c-0.1,0.9-1.2,1.5-2.5,1.4
								c-1.3-0.1-2.3-0.9-2.2-1.8C347.4,183.7,348.5,183.1,349.8,183.2z"/>
						</g>
					</g>
				</g>
			</g>
			<polygon id="XMLID_820_" class="st15" points="314.4,187.1 339.4,175.6 338,175.3 312.9,186.8 			"/>
			<polygon id="XMLID_819_" class="st15" points="338,175.3 365.8,182.5 364.5,183.2 336.8,175.8 			"/>
			<polygon id="XMLID_818_" class="st15" points="312.9,186.8 340.8,194.3 342.2,193.7 314.2,186.1 			"/>
		</g>
		<polygon id="XMLID_814_" class="st0" points="305.6,160.1 303.4,159.5 303.4,159.5 302.1,159.2 301,159.7 301,159.7 279.9,169.4 
			279.9,169.4 278.6,169.9 304.7,177 328.1,166 		"/>
		<path id="XMLID_811_" class="st0" d="M308.7,155.8c0,0-11.2-0.1-20.3-0.5c-9.2-0.4-16.5,5.2-23.7,7.3c-7.2,2-23.3-4.5-34.2-5.8
			c-10.8-1.3-14.6-6.6-22.4-10.1c-7.8-3.5-16.6-11.8-9.2-14.6c7.4-2.8,5.9-3.5,11.2-4.2c5.4-0.6,12.9,3.8,24,5.8
			c11.1,2,19.8,3.7,25.5,6.5c5.7,2.8,21.9,7.8,27.9,7.3C293.3,147,308.4,151.7,308.7,155.8z"/>
		<path id="XMLID_810_" class="st16" d="M286,120.9c0,0,2.2,21.9,4.4,27.9c2.3,6,4.7,3.1,4.2,6.4c-0.5,3.2-4.4-1.6-4.9-2.1
			c-0.5-0.5-3.9,0.5-2.5-1.9c1.4-2.4-6.6-11.8-5.4-30.9L286,120.9z"/>
		<path id="XMLID_809_" class="st5" d="M308.7,155.8c-2-0.2-6.2-3.1-8.7-3.9c-2.5-0.8-16.4-4.7-25.8-21.8l5.9-1c0,0,0.2,0.5,0.6,1.3
			c1,1.9,3.5,5.8,8.1,9.4c6.6,5.1,8.3,7.6,11,8.1c2.7,0.5,4.9-0.1,6.4-0.2c1.5,0,2.3-2,2.5-0.2c0.2,1.8-1.2,2.5-3,2.5
			c0,0,0.7,2.1,2.9,2.8c2.1,0.7,0.7,0.1,3.1,1.5c0.1,0.1,0.2,0.1,0.3,0.2C313.7,155.8,310.6,156,308.7,155.8z"/>
		<path id="XMLID_806_" class="st10" d="M308.7,155.8c-2-0.2-6.2-3.1-8.7-3.9c-2.5-0.8-16.4-4.7-25.8-21.8l5.9-1
			c0,0,0.2,0.5,0.6,1.3c0,0,0,0,0,0s-1.3,0.9-2.5,1.7c-1.1,0.8,7.9,11.5,15.1,14.9c7.2,3.4,9.3,4,12,6.1c2,1.5,4.2,0.1,6.6,1.4
			C313.7,155.8,310.6,156,308.7,155.8z"/>
		<path id="XMLID_803_" class="st3" d="M254.6,152c-0.6,1.4-1.4,2.1-2.4,2.3h0c-3.9,1-9.8-6.7-11.3-7l2.5-8.9c0,0,1.9,0.9,3.4,2.8
			c-0.8-1.3-2.6-4.9-1.6-10.7l10.9-1.5C256.2,128.9,258,144.8,254.6,152z"/>
		<path id="XMLID_800_" class="st21" d="M252.3,154.3c-3.9,1-9.8-6.7-11.3-7l2.5-8.9c0,0,1.9,0.9,3.4,2.8c-0.8-1.3-2.6-4.9-1.6-10.7
			l10.9-1.5c0,0-2.9,2-5.9,4.1c-3,2.1-0.1,5.4,0,9.4c0.1,4.1-4-1.1-5.2,1.2C244,146,246.4,154.2,252.3,154.3z"/>
		<path id="XMLID_797_" class="st22" d="M288.7,124.2L288.7,124.2c-0.2,0.8-1,1.3-3.3,2c-5.4,1.4-8.2,0.5-9.2-0.1
			c-0.9-0.6,1-2.7,0.4-7.1c-0.5-4.4,1.6-6.6,4.4-7c2.3-0.4,3.9,0.5,4.9,1.8c1.3,1.7,1.8,4.1,1.9,6.2
			C288,121.9,288.9,123.2,288.7,124.2z"/>
		<path id="XMLID_794_" class="st21" d="M288.7,124.2c-0.1,0.7-1,1.3-3.3,1.9c-5.4,1.4-8.2,0.5-9.2-0.1c-0.9-0.6,1-2.7,0.4-7.1
			c-0.5-4.4,1.6-6.6,4.4-7c2.3-0.4,3.9,0.5,4.9,1.8c0,0-0.8,2.3-2.3,5C282.2,121.4,285.9,127.7,288.7,124.2z"/>
		<path id="XMLID_791_" class="st1" d="M218.2,143.4l-2.2,5.1c-3.4-1.3-3.3-1.6-7.5-1.8c-0.2,0-0.3,0-0.5,0c-4-0.1-7,0-7.2-1.4
			c-0.3-1.5,2.4-2.7,4.6-2.8c2.2-0.1,4.2,0.7,7-1.4c1.8-1.3,3.1-1.5,3.8-1c0.4,0.3,0.7,0.8,0.8,1.5
			C217.3,143.2,218.2,143.4,218.2,143.4z"/>
		<path id="XMLID_788_" class="st1" d="M235.1,135.5c0,0-0.8-0.1-1.1-1.8s-1.7-2.4-4.3-0.5c-2.6,2-4.5,1.3-6.5,1.3
			c-2,0.1-4.5,1.2-4.3,2.6c0.2,1.4,3.3,1.2,7.1,1.3c3.9,0.1,3.8,0.5,6.9,1.7L235.1,135.5z"/>
		<path id="XMLID_785_" class="st4" d="M233.1,132.4c-0.5,0.3-1.3,1-2.1,2.3c-1.4,2.3-4.5,0.7-5.8,1.9c-0.9,0.9-1.2,1.5,0.3,2
			c-3.6-0.1-6.4,0-6.6-1.3c-0.2-1.4,2.2-2.5,4.2-2.6c2-0.1,3.8,0.6,6.4-1.4C231.3,132,232.4,131.9,233.1,132.4z"/>
		<path id="XMLID_782_" class="st3" d="M245.5,130.3C245.5,130.4,245.5,130.4,245.5,130.3c0,0.3,0,0.6-0.1,0.9
			c-0.6,4.5-4.2,17.5-6.1,21.3c-2,4-5.1,3.2-9.7,1.4c-0.9-0.4-2.1-0.8-3.4-1.3c-4.8-1.8-10.9-4.1-10.9-4.1c0.9-2.7,2.1-5.9,2.1-5.9
			c1.5-0.2,6.1-0.6,9.9,0.7c3.5,1.2,4.5,2.7,4.6,3.2c0-0.6-0.1-2.7,0-8c0.1-6.8,1.1-15.9,1.1-15.9c2.8,5.8,11,7.4,12.2,7.6
			C245.5,130.3,245.5,130.3,245.5,130.3z"/>
		<path id="XMLID_779_" class="st21" d="M246.1,130.9c0,0-0.2,0.1-0.6,0.3c-0.9,0.3-2.7,0.8-5.6,0.5c-4.3-0.5-1.6,13.6-3.2,16.8
			c-1.6,3.2-5.8-1.8-9.6-1.3c-3.6,0.5-3.4,2.4-0.7,5.4c-4.8-1.8-10.9-4.1-10.9-4.1c0.9-2.7,2.1-5.9,2.1-5.9c1.5-0.2,6.1-0.6,9.9,0.7
			c3.5,1.2,4.5,2.7,4.6,3.2c0-0.6-0.1-2.7,0-8c0.1-6.8,1.1-15.9,1.1-15.9c2.8,5.8,11,7.4,12.2,7.6l0.1,0.1L246.1,130.9z"/>
		<path id="XMLID_776_" class="st23" d="M285.8,112.1C285.8,112.1,285.8,112.1,285.8,112.1c0,0.2,0,0.3-0.1,0.4
			c-0.5,2.5-2.7,5.2-7.2,7.4c-4.8,2.4-23.9,11-31.6,10.9c-7.7-0.1-16.4-5-13.1-11.4c3.2-6.4,13.3-7.2,18.2-8.1
			c4.9-0.8,18.1-1.5,23.2-3.9c5.1-2.4,5.3-2.3,5.3-2.3C284.8,106.8,285.8,112.1,285.8,112.1z"/>
		<path id="XMLID_768_" class="st21" d="M285.8,112.1c0,0-1-5.3-5.2-6.8c0,0-0.3-0.1-5.3,2.3c-5.1,2.4-18.4,3.1-23.2,3.9
			c-4.9,0.8-15,1.7-18.2,8.1c-3.3,6.4,5.4,11.3,13.1,11.4c7.7,0.1,26.8-8.5,31.6-10.9c4.5-2.3,6.7-4.9,7.2-7.4
			c0.1-0.2,0.2-0.5,0.3-0.7C286,111.9,285.9,112,285.8,112.1z M279.6,118.7c-2.3,1.7-18.1,7.5-21.6,8.7c-3.5,1.2-10.1,2.8-13.4,0
			c-3.3-2.8,2-9.2,11.8-11c9.8-1.9,19.5-6.6,22.1-7.5c2.6-0.8,3.3-0.3,5.1,1.3c1.3,1.1,1.8,1.8,1.9,2.2
			C283.9,114.7,281.1,117.6,279.6,118.7z"/>
		<path id="XMLID_767_" class="st24" d="M216.1,147.2"/>
		<path id="XMLID_764_" class="st22" d="M284.7,127.5c-0.1,0.2-0.3,0.3-0.5,0.5c-1.3,1.1-4.3,2.7-10.2,2.9c-6.9,0.2-4.1-2.1-5.2-6.5
			c-1.1-4.4-1.2-10.8,5.2-11.7c0.2,0,0.4-0.1,0.7-0.1c3.3-0.2,6.1,1.7,7,6.7C282.6,124.6,285.6,126.4,284.7,127.5z"/>
		<line id="XMLID_763_" class="st12" x1="304.1" y1="102" x2="302.6" y2="101.3"/>
		<path id="XMLID_760_" class="st7" d="M298.7,97.2c-7.7,0-11.4-3.2-11.4-3.2c0.4,2.1-1.3,11.3-0.1,12.2c1.1,0.9,3.4,3.1,4.3,3.2
			c0.1,0,0.1,0,0.2,0c0.7-0.2-0.2-1.5,1.7-1.5c1.9,0,5.1-0.2,7,0.6c1.9,0.8,1.2,0.9,1.2,0.9c-0.4,3.8-2.3,6.3-6.3,6.8c0,0,0,0,0,0
			c-0.6,0.1-1.2,0.1-1.9,0.1c-5.3-0.1-7.8-4-9.1-7.4c-1.3-3.3-5.2-2.1-5.6-10c-0.4-7.8,1.3-9.4,7.3-13.2c3.1-1.9,6.9-2.1,10.2-1.3
			c3.3,0.8,6,2.6,6.9,4.9c1.9,4.5,4,2.6,4.9,4.6c0.8,1.9-1.3,3.1-8.2,3.2C299.4,97.2,299,97.2,298.7,97.2z"/>
		<path id="XMLID_757_" class="st4" d="M291.2,110.1c-0.8,5.8,3.2,6.1,3.8,6.1c-0.6,0.1-1.2,0.1-1.8,0.1c-5.3-0.1-7.8-4-9.1-7.3
			c-1.3-3.3-5.2-2.1-5.6-10c-0.4-7.8,1.3-9.4,7.3-13.2c3-1.9,6.9-2.1,10.2-1.3c-3.8,0.2-5.5,3-5.7,7.5c-0.1,3.9,7.3,5,9.2,5.2
			c0.3,0,0.5,0,0.5,0s-7.4,6.1-8.7,12.2C291.3,109.6,291.3,109.9,291.2,110.1z"/>
		<path id="XMLID_756_" class="st5" d="M301,108.9c0,0-0.5-0.1-1.3-0.2h0c-2-0.3-5.6-0.7-6.4,0.2c-1.1,1.2-1.7,2.2-5,0
			c-3.3-2.2-2.4-5.7-2.5-8.3s1-5.6,0.6-7.2c0,0,7.1,4.3,15.8,3.8C302.2,97.1,303.7,102.5,301,108.9z"/>
		<path id="XMLID_753_" class="st10" d="M299.7,108.6c-2-0.3-5.6-0.7-6.4,0.2c-1.1,1.2-1.7,2.2-5,0c-3.3-2.2-2.4-5.7-2.5-8.3
			s1-5.6,0.6-7.2c0,0,7.1,4.3,15.8,3.8c0,0-3.8,1.3-8.9,1.5c-5.1,0.2-3,11.7-1.3,10.4C293.7,107.8,297.9,107.8,299.7,108.6z"/>
		<path id="XMLID_752_" class="st13" d="M296.2,101.8c0,1.5-1,2.8-2.3,3.1c-0.2,0-0.4,0.1-0.6,0.1h0c-0.3,0-0.6-0.1-0.9-0.2
			c-0.2-0.1-0.5-0.2-0.7-0.4l0,0c-0.7-0.6-1.2-1.5-1.2-2.6c0-1.7,1.3-3.2,2.9-3.2c0.5,0,1,0.2,1.4,0.4c0.3,0.2,0.5,0.4,0.7,0.7
			c0.2,0.2,0.3,0.4,0.4,0.7c0.1,0.2,0.1,0.4,0.2,0.6C296.1,101.2,296.2,101.5,296.2,101.8z"/>
		<path id="XMLID_751_" class="st13" d="M304,102.7c-0.2,1.5-1.2,2.7-2.4,2.8c-0.2,0-0.3,0-0.5,0l0,0c-0.3,0-0.5-0.1-0.7-0.3
			c-0.2-0.1-0.4-0.3-0.6-0.5c-0.6-0.6-0.9-1.6-0.8-2.7c0.2-1.7,1.5-3,2.9-2.8c0.5,0.1,0.9,0.3,1.2,0.6c0.2,0.2,0.4,0.5,0.6,0.7
			c0.1,0.2,0.2,0.5,0.3,0.7l0.1,0.6C304.1,102.1,304.1,102.4,304,102.7z"/>
		<g id="XMLID_748_">
			<path id="XMLID_750_" class="st15" d="M304,101.6l-1.9,3.9c-0.2,0-0.3,0.1-0.5,0.1h0l2.3-4.5L304,101.6z"/>
			<path id="XMLID_749_" class="st15" d="M300.8,105.4l2.7-5c-0.2-0.3-0.4-0.5-0.6-0.7l-2.7,5.3L300.8,105.4z"/>
		</g>
		<g id="XMLID_745_">
			<path id="XMLID_747_" class="st15" d="M295.9,100.4l-2.6,4.5h0c0.2,0,0.4,0,0.6-0.1l2.2-3.9L295.9,100.4z"/>
			<path id="XMLID_746_" class="st15" d="M295.5,99.7l-3.1,5l-0.7-0.4l0,0l3-5.3C295,99.2,295.3,99.4,295.5,99.7z"/>
		</g>
		<path id="XMLID_744_" class="st5" d="M282.2,103.9c-1-0.9-1.2-3.4-0.6-4.5c0.1-0.3,0.4-0.6,0.6-0.6c0.1,0,0.2,0,0.3,0h0
			c1.1,0,1.7,1.5,1.7,1.5C284.6,105.5,283.4,105.1,282.2,103.9z"/>
		<path id="XMLID_743_" class="st12" d="M296.2,101.8c0,1.7-1.3,3.2-2.8,3.2c-1.6,0-2.8-1.4-2.8-3.2c0-1.7,1.3-3.2,2.8-3.2
			C294.9,98.6,296.2,100,296.2,101.8z"/>
		<path id="XMLID_742_" class="st25" d="M304,102.7c-0.2,1.7-1.5,3-2.9,2.8c-1.4-0.2-2.3-1.7-2.1-3.4c0.2-1.7,1.5-3,2.9-2.8
			C303.3,99.4,304.3,101,304,102.7z"/>
		<line id="XMLID_741_" class="st12" x1="296.2" y1="101.8" x2="299" y2="101.9"/>
		<line id="XMLID_740_" class="st12" x1="284.1" y1="98.3" x2="290.5" y2="101.3"/>
		<g id="XMLID_707_">
			<polygon id="XMLID_737_" class="st17" points="272.6,164.1 273.7,164.1 275.1,164.6 277.4,166.3 278.5,165.5 279.7,165.5 
				280.3,167.2 282.2,167.2 283.4,165.5 285.1,165.5 286.7,167.2 289,166.3 289.4,164.7 290.4,164.6 291.7,165.5 293.6,164.7 
				293.6,162.9 294.2,162.2 295.5,163.5 295.7,156.6 295.2,156.6 295.4,154.1 294.6,152.8 293,153.2 292.7,150.9 287.3,160.6 
				274.1,156.7 272.6,158.9 			"/>
			<path id="XMLID_729_" class="st18" d="M295.5,158.3l0.1-1.7l-1.8-0.2l-0.2-1.2l1.7-1.1l-0.8-1.2l-1.6,0.4l-0.7-0.7l0.4-1.6
				l-1.1-0.9l-1.1,0.9l-0.8-0.5l-0.2-1.3l-1.8-0.5l-0.8,1.4h-1.1l-0.7-1.8h-1.6l-0.8,1.8h-1.3l-0.9-1.8h-1.4l-0.6,1.8H277l-1-1.1
				l-1.8,0.5v1.9l-1.8-0.9l-1.2,1.1l0.8,1.6l-1.8,0.2v1.4l2.4,0.7l0.1,0.9l-1.1,0.8l1.1,1.7l1.6-0.6l0.8,0.3v2.1l2.3,0.6l1.5-1.6
				l0.9,0.3l0.4,2.3h2l1.3-1.8l1.8,0.1l1.3,1.7l2.1-0.3l0.5-1.5l1.3-0.5l1.3,1l1.6-0.6l-1-1.6l0.8-0.4H295.5z M287.1,157.2
				c-1.1,0.7-2.7,1.2-4.5,1.2c-2.2,0-4.1-0.6-5.1-1.6c0,0,0.1-2.5,5.1-2.5S287.1,157.2,287.1,157.2z"/>
			<path id="XMLID_726_" class="st17" d="M282.5,152.2c3.2,0,5.8,1.4,5.8,3.1c0,0.7-0.5,1.4-1.3,1.9c0,0,0.5-2.9-4.5-2.9
				s-5.1,2.5-5.1,2.5c-0.5-0.4-0.7-0.9-0.7-1.5C276.7,153.5,279.3,152.2,282.5,152.2z"/>
			<g id="XMLID_711_">
				<g id="XMLID_713_">
					<polygon id="XMLID_719_" class="st19" points="271.5,157.2 271.5,163.1 272.6,164.1 272.6,158.9 					"/>
					<polygon id="XMLID_718_" class="st19" points="275.1,160.7 275.1,165.5 277.4,166.3 277.4,161.3 					"/>
					<rect id="XMLID_717_" x="280.3" y="162.2" class="st19" width="2" height="5"/>
					<polygon id="XMLID_716_" class="st19" points="286.7,162.2 286.7,167.2 289,166.3 288.8,162 					"/>
					<polygon id="XMLID_715_" class="st19" points="292.1,160.9 291.8,165.3 293.7,164.5 293.7,160.3 					"/>
					<polygon id="XMLID_714_" class="st19" points="295.5,158.4 295.5,163.4 295.9,161.5 295.7,156.7 					"/>
				</g>
			</g>
			<polygon id="XMLID_708_" class="st17" points="270.1,154.8 270.5,160.7 271.5,161.7 271.5,157.2 272.5,156.4 272.5,155.5 			"/>
		</g>
		<g id="XMLID_674_">
			<polygon id="XMLID_704_" class="st17" points="300.3,171.6 301,171.6 301.8,171.9 303.3,173 303.9,172.5 304.6,172.5 305,173.5 
				306.2,173.5 306.9,172.5 308,172.5 308.9,173.5 310.3,173 310.6,172 311.2,171.9 312,172.5 313.2,172 313.2,170.9 313.5,170.5 
				314.3,171.2 314.4,167 314.1,167 314.3,165.5 313.8,164.7 312.8,165 312.6,163.5 309.3,169.5 301.2,167.1 300.3,168.4 			"/>
			<path id="XMLID_696_" class="st18" d="M314.3,168.1l0.1-1.1l-1.1-0.1l-0.1-0.8l1-0.7l-0.5-0.8l-1,0.3l-0.4-0.4l0.2-1l-0.7-0.6
				l-0.7,0.6l-0.5-0.3l-0.2-0.8l-1.1-0.3l-0.5,0.9h-0.7l-0.4-1.1h-1l-0.5,1.1h-0.8l-0.6-1.1h-0.9l-0.3,1.1H303l-0.6-0.7l-1.1,0.3
				v1.2l-1.1-0.5l-0.7,0.7l0.5,1l-1.1,0.1v0.9l1.5,0.4l0,0.6l-0.6,0.5l0.7,1.1l1-0.3l0.5,0.2v1.3l1.4,0.4l0.9-1l0.6,0.2l0.3,1.4h1.2
				l0.8-1.1l1.1,0l0.8,1l1.3-0.2l0.3-0.9l0.8-0.3l0.8,0.6l1-0.4l-0.6-1l0.5-0.3H314.3z M309.2,167.4c-0.7,0.4-1.7,0.7-2.8,0.7
				c-1.3,0-2.5-0.4-3.1-1c0,0,0.1-1.5,3.1-1.5S309.2,167.4,309.2,167.4z"/>
			<path id="XMLID_693_" class="st17" d="M306.4,164.3c2,0,3.6,0.8,3.6,1.9c0,0.4-0.3,0.9-0.8,1.2c0,0,0.3-1.8-2.8-1.8
				s-3.1,1.5-3.1,1.5c-0.3-0.3-0.4-0.6-0.4-0.9C302.8,165.1,304.4,164.3,306.4,164.3z"/>
			<g id="XMLID_678_">
				<g id="XMLID_680_">
					<polygon id="XMLID_686_" class="st19" points="299.6,167.4 299.6,171 300.3,171.6 300.3,168.4 					"/>
					<polygon id="XMLID_685_" class="st19" points="301.8,169.5 301.8,172.5 303.3,173 303.3,169.9 					"/>
					<rect id="XMLID_684_" x="305" y="170.5" class="st19" width="1.2" height="3"/>
					<polygon id="XMLID_683_" class="st19" points="308.9,170.5 308.9,173.5 310.3,173 310.2,170.3 					"/>
					<polygon id="XMLID_682_" class="st19" points="312.3,169.7 312.1,172.3 313.2,171.9 313.2,169.3 					"/>
					<polygon id="XMLID_681_" class="st19" points="314.3,168.1 314.3,171.2 314.6,170 314.4,167.1 					"/>
				</g>
			</g>
			<polygon id="XMLID_675_" class="st17" points="298.8,165.9 299,169.5 299.6,170.2 299.6,167.4 300.3,166.9 300.2,166.3 			"/>
		</g>
		<g id="XMLID_544_">
			<polygon id="XMLID_574_" class="st17" points="285.2,179.5 285.7,179.5 286.5,179.8 287.7,180.7 288.3,180.3 289,180.3 
				289.3,181.2 290.3,181.2 291,180.3 291.9,180.3 292.7,181.2 293.9,180.7 294.1,179.9 294.7,179.8 295.4,180.3 296.4,179.9 
				296.4,178.9 296.7,178.5 297.5,179.2 297.5,175.5 297.3,175.5 297.4,174.1 297,173.5 296.1,173.7 295.9,172.5 293,177.7 
				285.9,175.6 285.2,176.8 			"/>
			<path id="XMLID_566_" class="st18" d="M297.5,176.4l0.1-0.9l-1-0.1l-0.1-0.7l0.9-0.6l-0.4-0.7l-0.9,0.2l-0.4-0.4l0.2-0.9
				l-0.6-0.5l-0.6,0.5l-0.4-0.3l-0.1-0.7l-1-0.3l-0.5,0.8h-0.6l-0.4-1h-0.8l-0.4,1h-0.7l-0.5-1h-0.8l-0.3,1h-0.7l-0.5-0.6l-1,0.3v1
				l-1-0.5l-0.6,0.6l0.4,0.9l-1,0.1v0.8l1.3,0.4l0,0.5l-0.6,0.4l0.6,0.9l0.9-0.3l0.5,0.2v1.1l1.3,0.3l0.8-0.9l0.5,0.2l0.2,1.2h1.1
				l0.7-0.9l0.9,0l0.7,0.9l1.1-0.2l0.3-0.8l0.7-0.3l0.7,0.5l0.9-0.3l-0.5-0.8l0.4-0.2H297.5z M292.9,175.8c-0.6,0.4-1.4,0.6-2.4,0.6
				c-1.2,0-2.2-0.3-2.7-0.9c0,0,0-1.3,2.7-1.3C293.2,174.3,292.9,175.8,292.9,175.8z"/>
			<path id="XMLID_563_" class="st17" d="M290.5,173.1c1.7,0,3.1,0.7,3.1,1.7c0,0.4-0.3,0.8-0.7,1c0,0,0.2-1.6-2.4-1.6
				c-2.7,0-2.7,1.3-2.7,1.3c-0.2-0.2-0.4-0.5-0.4-0.8C287.4,173.9,288.8,173.1,290.5,173.1z"/>
			<g id="XMLID_548_">
				<g id="XMLID_550_">
					<polygon id="XMLID_556_" class="st19" points="284.5,175.8 284.5,179 285.2,179.5 285.2,176.8 					"/>
					<polygon id="XMLID_555_" class="st19" points="286.5,177.7 286.5,180.3 287.7,180.7 287.7,178 					"/>
					<rect id="XMLID_554_" x="289.3" y="178.5" class="st19" width="1.1" height="2.7"/>
					<polygon id="XMLID_553_" class="st19" points="292.7,178.5 292.7,181.2 293.9,180.7 293.9,178.4 					"/>
					<polygon id="XMLID_552_" class="st19" points="295.6,177.8 295.5,180.2 296.5,179.8 296.5,177.5 					"/>
					<polygon id="XMLID_551_" class="st19" points="297.5,176.5 297.5,179.1 297.6,178.1 297.5,175.6 					"/>
				</g>
			</g>
			<polygon id="XMLID_545_" class="st17" points="283.8,174.5 284,177.7 284.5,178.3 284.5,175.8 285.1,175.4 285.1,174.9 			"/>
		</g>
		<path id="XMLID_508_" class="st21" d="M284.2,128c-1.3,1.1-4.3,2.7-10.2,2.9c-6.9,0.2-4.1-2.1-5.2-6.5c-1.1-4.4-1.2-10.8,5.2-11.7
			c0.2,0,0.4-0.1,0.7-0.1c-0.3,0.2-4.3,3.5-2.5,9.2C274,127.6,273.4,131.8,284.2,128z"/>
		<path id="XMLID_505_" class="st4" d="M216.3,140c-0.5,0.3-1.4,1-2.3,2.5c-1.5,2.5-5,0.7-6.3,2.1c-1,1-1.4,1.6,0.4,2.1
			c-4-0.1-7,0-7.2-1.4c-0.3-1.5,2.4-2.7,4.6-2.8c2.2-0.1,4.2,0.7,7-1.4C214.2,139.6,215.5,139.5,216.3,140z"/>
		<g id="XMLID_486_">
			<g id="XMLID_490_">
				<polygon id="XMLID_504_" class="st15" points="355.4,148.5 330.4,160.3 314.5,155.9 302.6,152.7 327.6,141.2 331.4,142.2 				
					"/>
				<g id="XMLID_491_">
					<g id="XMLID_493_">
						<g id="XMLID_496_">
							<path id="XMLID_497_" class="st20" d="M334.8,146.6c-0.4,2-7.5-1-8.5,0.4c-1,1.4,5.7,4.6,3.7,7.9c-1.3,2.1-9.6,1.6-15.5,1
								l-11.9-3.2l25-11.5l3.8,1C333.1,143.7,335,145.5,334.8,146.6z"/>
						</g>
						<g id="XMLID_494_">
							<path id="XMLID_495_" class="st20" d="M339.5,149.1c1.3,0.1,2.3,0.9,2.2,1.8c-0.1,0.9-1.2,1.5-2.5,1.4
								c-1.3-0.1-2.3-0.9-2.2-1.8C337.1,149.7,338.2,149,339.5,149.1z"/>
						</g>
					</g>
				</g>
			</g>
			<polygon id="XMLID_489_" class="st15" points="304,153.1 329,141.6 327.6,141.2 302.6,152.7 			"/>
			<polygon id="XMLID_488_" class="st15" points="327.6,141.2 355.4,148.5 354.1,149.1 326.5,141.8 			"/>
			<polygon id="XMLID_487_" class="st15" points="302.6,152.7 330.4,160.3 331.8,159.6 303.9,152.1 			"/>
		</g>
		<g id="XMLID_467_">
			<g id="XMLID_471_">
				<polygon id="XMLID_485_" class="st15" points="400.2,176.9 375.2,188.7 359.2,184.4 347.3,181.2 372.4,169.7 376.2,170.7 				
					"/>
				<g id="XMLID_472_">
					<g id="XMLID_474_">
						<g id="XMLID_477_">
							<path id="XMLID_478_" class="st20" d="M379.6,175.1c-0.4,2-7.5-1-8.5,0.4c-1,1.3,5.7,4.6,3.7,7.9c-1.3,2.1-9.6,1.6-15.5,1
								l-11.9-3.2l25-11.5l3.8,1C377.9,172.1,379.8,174,379.6,175.1z"/>
						</g>
						<g id="XMLID_475_">
							<path id="XMLID_476_" class="st20" d="M384.3,177.6c1.3,0.1,2.3,0.9,2.2,1.8s-1.2,1.5-2.5,1.4c-1.3-0.1-2.3-0.9-2.2-1.8
								C381.8,178.1,383,177.5,384.3,177.6z"/>
						</g>
					</g>
				</g>
			</g>
			<polygon id="XMLID_470_" class="st15" points="348.8,181.6 373.8,170 372.4,169.7 347.3,181.2 			"/>
			<polygon id="XMLID_469_" class="st15" points="372.4,169.7 400.2,176.9 398.9,177.6 371.2,170.2 			"/>
			<polygon id="XMLID_468_" class="st15" points="347.3,181.2 375.2,188.7 376.6,188.1 348.7,180.6 			"/>
		</g>
		<g id="XMLID_448_">
			<g id="XMLID_452_">
				<polygon id="XMLID_466_" class="st15" points="367.8,167.2 347.5,176.8 334.5,173.3 324.9,170.7 345.2,161.3 348.3,162.1 				
					"/>
				<g id="XMLID_453_">
					<g id="XMLID_455_">
						<g id="XMLID_458_">
							<path id="XMLID_459_" class="st20" d="M351.1,165.7c-0.3,1.6-6.1-0.8-6.9,0.3c-0.8,1.1,4.7,3.7,3,6.4
								c-1,1.7-7.8,1.3-12.6,0.8l-9.7-2.6l20.4-9.3l3.1,0.8C349.7,163.3,351.2,164.8,351.1,165.7z"/>
						</g>
						<g id="XMLID_456_">
							<path id="XMLID_457_" class="st20" d="M354.9,167.7c1.1,0.1,1.9,0.7,1.8,1.5c-0.1,0.7-1,1.2-2,1.2c-1.1-0.1-1.9-0.7-1.8-1.5
								C352.9,168.2,353.8,167.7,354.9,167.7z"/>
						</g>
					</g>
				</g>
			</g>
			<polygon id="XMLID_451_" class="st15" points="326,171 346.3,161.6 345.2,161.3 324.9,170.7 			"/>
			<polygon id="XMLID_450_" class="st15" points="345.2,161.3 367.8,167.2 366.7,167.7 344.3,161.8 			"/>
			<polygon id="XMLID_449_" class="st15" points="324.9,170.7 347.5,176.8 348.6,176.3 325.9,170.2 			"/>
		</g>
	</g>
	<path id="XMLID_141_" class="st26" d="M181.4,21.4C181.4,21.4,181.4,21.4,181.4,21.4C181.4,21.4,181.4,21.4,181.4,21.4z"/>
	<g>
		<polygon id="XMLID_15_" class="st0" points="76.3,287.3 84.2,282.1 168,292.7 161.3,297.9 		"/>
		<path id="XMLID_41_" class="st0" d="M110,289.5l-29.3,30.6l94.3,4.4L110,289.5z M111.7,302.1l28.6,12.3l-39-1.6L111.7,302.1z"/>
		<polygon id="XMLID_81_" class="st3" points="80.3,285.3 88.1,280.1 172,290.8 165.3,295.9 		"/>
		<path id="XMLID_128_" class="st23" d="M116.4,287.7l-29.3,30.6l94.3,4.4L116.4,287.7z M118.1,300.3l28.6,12.3l-39-1.6L118.1,300.3
			z"/>
	</g>
	<g>
		<g>
			<path id="XMLID_155_" class="st0" d="M312.1,231.6c0,0-71.9,63.4-98.3,72.1c0,0-14.8,5.2-27.7-2.7
				c-5.5-3.3-152.4-96.6-181.8-127.6c-4.2-4.4-4.8-9.5-4-10.6c6.5-8.4,51.5-26.9,52.2-26.7C53.3,136.4,312.1,231.6,312.1,231.6z"/>
			<path id="XMLID_69_" class="st27" d="M312.3,224.2c0.6,4.2-0.6,8.7-3.9,12c-15.8,16-46.4,40.8-81.6,62.2c-4,2.4-8.5,3.5-12.9,3.4
				c-0.5,0-1,0-1.5-0.1c-3.3-0.4-6.6-1.4-9.5-3.3C171,278.7,67.2,211.3,15,169.1c-1.4-1.1-2.3-2.5-2.9-4c0,0,0,0,0,0
				c-0.4-0.9-0.5-1.9-0.6-2.9c-0.9-4.9-1.9-14.7,1.8-21.4c0,0,5.6,3,6.6,8.7c1.4-0.9,2.9-1.8,4.5-2.8c18.4-11.2,50.4-27.6,87.9-41.3
				c7.4-2.7,15.5-1.8,22.2,2.4c36.9,23.2,106.4,65.1,157,97.2c5.1,3.3,10,6.4,14.7,9.4c0.1,0,0.1,0.1,0.2,0.1c0.9-2.4,2.5-5,5.3-7.8
				C311.5,206.6,313.6,212.4,312.3,224.2z"/>
			<path id="XMLID_62_" class="st28" d="M212.3,286.3v15.3c-3.3-0.4-6.6-1.4-9.5-3.3C171,278.7,67.2,211.3,15,169.1
				c-1.4-1.1-2.3-2.5-2.9-4c0,0,0,0,0,0c-0.4-0.9-0.5-1.9-0.6-2.9c-0.9-4.9-1.9-14.7,1.8-21.4c0,0,5.6,3,6.6,8.7
				c1.4-0.9,2.9-1.8,4.5-2.8L212.3,286.3z"/>
			<path id="XMLID_146_" class="st29" d="M308.4,221.7c-15.8,16-49.9,39.8-85.1,61.2c-3.4,2.1-7.1,3.2-11,3.4c-4.5,0.2-9-0.9-13-3.3
				c-3.6-2.2-4.7-2.6-9.5-5.6c-0.4-0.3-0.8-0.5-1.3-0.8l14.1-10.2l97-70.5c2.1,1.4,4.2,2.7,6.3,4
				C313.5,204.8,314.7,215.4,308.4,221.7z"/>
			<path id="XMLID_136_" class="st30" d="M299.7,195.9l-96.5,71.6l-13.4,9.9l-0.3,0.2c-1.4-0.9-2.8-1.8-4.3-2.8
				c-9-5.9-19.8-13-31.6-20.9v0c-43.3-28.9-97.5-66.4-132.2-94l71.3-38.2l17.3-9.2l14.6-7.8l14.9-8
				C179.7,121.7,250.9,164.7,299.7,195.9z"/>
			<path id="XMLID_162_" class="st29" d="M139.5,96.6l-14.9,8l-14.6,7.8l-17.3,9.2l-71.3,38.2c-2.2-1.8-4.4-3.5-6.5-5.2
				c-5.6-4.5-4.3-13.6,1.7-17.6c12.4-8.4,36.8-21.9,67.2-34.9c5.8-2.5,11.9-4.9,18.1-7.4c3.4-1.3,6.8-2.6,10.3-3.9
				c1.7-0.6,3.5-1.1,5.3-1.3c5.8-0.8,11.8,0.5,16.9,3.7C136,94.4,137.7,95.5,139.5,96.6z"/>
			<path id="XMLID_65_" class="st31" d="M271,237.4c1.7,4-1.1,9-6.3,11.2c-5.2,2.2-10.7,0.8-12.4-3.2c-1.7-4,1.1-9,6.3-11.2
				C263.8,232,269.3,233.4,271,237.4z"/>
			<path id="XMLID_73_" class="st15" d="M57.6,130.4c0,2-1.6,3.6-3.6,3.6c-2,0-3.6-1.6-3.6-3.6c0-2,1.6-3.6,3.6-3.6
				C56,126.7,57.6,128.4,57.6,130.4z"/>
			<g id="XMLID_76_">
				<path id="XMLID_77_" class="st15" d="M65.1,125.5c-0.7,0-1.4-0.4-1.8-1.1c-0.5-1-0.1-2.2,0.9-2.7l39.5-19.8
					c1-0.5,2.2-0.1,2.7,0.9c0.5,1,0.1,2.2-0.9,2.7L66,125.3C65.7,125.5,65.4,125.5,65.1,125.5z"/>
			</g>
			<polygon id="XMLID_230_" class="st23" points="162.6,124.9 150.3,132.1 140.3,124.8 152.1,118 			"/>
			<polygon id="XMLID_229_" class="st32" points="150.3,132.1 71.7,177.6 60.7,170.2 140.3,124.8 			"/>
			<polygon id="XMLID_78_" class="st32" points="91.3,185.7 113.4,201.5 194.3,150.8 173.2,138.1 			"/>
			<polygon id="XMLID_104_" class="st33" points="116.1,176 131.3,186.7 114.2,197.7 98.9,185.8 			"/>
			<polygon id="XMLID_86_" class="st33" points="209.3,154.8 235.2,170.8 210.3,187.8 183.4,171.4 			"/>
			<polygon id="XMLID_80_" class="st33" points="179.8,173.6 206.1,190.5 179.2,208.1 153.8,190.4 			"/>
			<polygon id="XMLID_132_" class="st33" points="149.2,193.1 175.3,210.9 146.5,230.2 120.3,211.8 			"/>
			<polygon id="XMLID_87_" class="st33" points="197.6,208.2 232.8,232.4 192.1,261.9 155.2,236.3 			"/>
			<polygon id="XMLID_88_" class="st33" points="244.2,176.6 278.3,199.3 236.5,229.5 201,205.4 			"/>
			<g id="XMLID_82_">
				<g>
					<path id="XMLID_18_" class="st33" d="M127,173.9c-0.5,0-1-0.3-1.3-0.7c-0.4-0.7-0.2-1.6,0.5-2.1l48-28.2
						c0.7-0.4,1.6-0.2,2.1,0.5c0.4,0.7,0.2,1.6-0.5,2.1l-48,28.2C127.5,173.8,127.2,173.9,127,173.9z"/>
				</g>
			</g>
			<g id="XMLID_83_">
				<g>
					<path id="XMLID_17_" class="st33" d="M133.7,178.1c-0.5,0-1-0.3-1.3-0.7c-0.4-0.7-0.2-1.6,0.5-2.1l48-28.2
						c0.7-0.4,1.6-0.2,2.1,0.5c0.4,0.7,0.2,1.6-0.5,2.1l-48,28.2C134.2,178.1,134,178.1,133.7,178.1z"/>
				</g>
			</g>
			<g id="XMLID_34_">
				<ellipse id="XMLID_103_" class="st34" cx="149.7" cy="125.2" rx="3.1" ry="2.6"/>
				<line id="XMLID_106_" class="st35" x1="153.4" y1="125.2" x2="158.5" y2="125.2"/>
			</g>
			<line id="XMLID_5_" class="st36" x1="21.4" y1="159.9" x2="142.7" y2="94.8"/>
		</g>
		<path id="XMLID_143_" class="st37" d="M308.4,221.7c-15.8,16-49.9,39.8-85.1,61.2c-3.4,2.1-7.1,3.2-11,3.4c0,0,0,0,0,0l-9.1-18.8
			l-0.5-1.1l-78-161.7l-7.2-14.9c5.8-0.8,11.8,0.5,16.9,3.7c1.7,1,3.4,2.1,5.2,3.3c40.2,25.1,111.4,68.1,160.2,99.3
			c2.1,1.4,4.2,2.7,6.3,4C313.5,204.8,314.7,215.4,308.4,221.7z"/>
		<path id="XMLID_59_" class="st37" d="M153.7,253.9L153.7,253.9L92.8,121.7l-9-19.5c5.8-2.5,11.9-4.9,18.1-7.4l8.1,17.6l75.2,162.3
			C176.2,268.9,165.5,261.7,153.7,253.9z"/>
	</g>
	<polygon id="XMLID_234_" class="st38" points="120.4,141.3 153.5,111.8 123.5,110.2 93.1,137.7 	"/>
	<polygon id="XMLID_207_" class="st32" points="120.1,141.6 153.5,86.1 129.4,82.5 93.5,137.8 	"/>
	<line id="XMLID_206_" class="st39" x1="100.2" y1="135.6" x2="130.8" y2="85.5"/>
	<line id="XMLID_205_" class="st39" x1="115.2" y1="123.6" x2="131.2" y2="97.4"/>
	<path id="XMLID_202_" class="st40" d="M284.1,100.2"/>
	<path id="XMLID_187_" class="st10" d="M284.1,100.2c0,0-0.6-1.5-1.7-1.5h0c-0.1,0-0.2,0-0.3,0c-0.3,0.1-0.5,0.3-0.6,0.6
		c-0.6,1.2-0.4,3.6,0.6,4.5C283.4,105.1,284.6,105.5,284.1,100.2z M283.7,103.1c0,1.1-1.5,0.8-1.3-1.4c0.2-2.2,0.9-1.5,0.9-1.5
		c0,0,0-0.1,0-0.1c0.3,0.2,0.4,0.3,0.5,0.5C283.8,101.9,283.7,102,283.7,103.1z"/>
	<path id="XMLID_186_" class="st33" d="M118.7,132.7c0,1.5-1.4,2.7-3.2,2.7c-1.8,0-3.2-1.1-3.2-2.6c0-1.5,1.4-2.7,3.2-2.7
		C117.3,130.1,118.7,131.2,118.7,132.7z"/>
	<path id="XMLID_185_" class="st33" d="M142.7,91.5c0,1.5-1.4,2.7-3.2,2.7c-1.8,0-3.2-1.1-3.2-2.6c0-1.5,1.4-2.7,3.2-2.7
		C141.2,88.9,142.7,90.1,142.7,91.5z"/>
	<g>
		<path id="XMLID_100_" class="st0" d="M92.9,265.8L62,285.3c0,0-10.7,3.4-13,5.8c-2.2,2.4-11.4,1.3-8.3-3.2
			c3.1-4.5,8.6-8.9,3.1-6.4s-5.7,3.5-8.9,2.3c-3.2-1.2-10.5,6.1-13.5,7.2c-3,1.1-13.1-4.7-7.7-11.1c5.4-6.4,12.3-13.8,21.2-15.8
			c8.9-2-8.3-3.1-6.7-14.7c1.7-11.6,36.6-14.6,36.6-14.6L92.9,265.8z"/>
		<path id="XMLID_620_" class="st1" d="M61.1,283.5C61.1,283.6,61,283.6,61.1,283.5c-0.2,0.1-0.3,0.1-0.4,0.1
			c-3.2,1.3-3.5,1-6.8,3.8c-1.3,1.1-2.4,2-3.3,2.6c-1.5,1-2.5,1.4-3.3,0.7c-1.3-1-0.5-2.9,1.1-4.5c1.6-1.6,3.7-2.4,4.4-6.1
			c0.7-3.6,2.5-4.1,4-2.9c1.5,1.2,2.3,0.7,2.3,0.7l1.9,5.3L61.1,283.5z"/>
		<path id="XMLID_628_" class="st1" d="M35.4,281.4c-3.6,1.5-3.7,1.1-7.1,3.9c-1.1,1-2.1,1.8-3,2.4c-1.6,1.2-2.8,1.6-3.6,1
			c-1.3-1-0.5-2.9,1.1-4.5c1.6-1.6,3.7-2.5,4.4-6.1s2.5-4.1,4-2.9c1.4,1.2,2.3,0.7,2.3,0.7L35.4,281.4z"/>
		<path id="XMLID_626_" class="st4" d="M35.4,281.4c0,0-2.5-1.9-3.4-3.6c-0.9-1.7-2.7-0.8-2.6,1.2c0.1,1.9-7.6,6.8-4.1,8.7
			c-1.6,1.2-2.8,1.6-3.6,1c-1.3-1-0.5-2.9,1.1-4.5c1.6-1.6,3.7-2.5,4.4-6.1s2.5-4.1,4-2.9c1.4,1.2,2.3,0.7,2.3,0.7L35.4,281.4z"/>
		<path id="XMLID_354_" class="st4" d="M61,283.4c0,0.1,0,0.1,0,0.2c0,0.2,0,0.4,0,0.4s-0.1-0.1-0.3-0.3c-0.7-0.6-2.4-2-3-3.3
			c-0.9-1.7-2.7-0.8-2.6,1.2c0.1,1.9-7.2,6.6-4.4,8.6c-1.5,1-2.5,1.4-3.3,0.7c-1.3-1-0.5-2.9,1.1-4.5c1.6-1.6,3.7-2.4,4.4-6.1
			c0.7-3.6,2.5-4.1,4-2.9c1.5,1.2,2.3,0.7,2.3,0.7L61,283.4z"/>
		<path id="XMLID_621_" class="st3" d="M63.3,271.2c-1,0.9-2.7,1.9-4.8,2.9c-5.6,2.7-13.9,5.4-16.1,5.8c-3.1,0.5-6.3,2.3-6.3,2.3
			c-3.3-3.5-4-8.4-4-8.4s5.3-1.3,11.4-5.1c6.2-3.8,9.1-3.5,9.1-3.5c-3.7-13-2.4-20.8-2.4-20.8c-5.5-9.8-1.8-15.3-1.8-15.3l7,2.3
			l0.4,0.1c-1.7,7.8,1.5,12.7,4.3,15.4c1.9,1.8,3.7,2.6,3.7,2.6c0.1,4,0.7,8,1.1,11.6C65.3,265.6,65.3,269.3,63.3,271.2z"/>
		<path id="XMLID_219_" class="st21" d="M58.5,274.1c-5.6,2.7-13.9,5.4-16.1,5.8c-3.1,0.5-6.3,2.3-6.3,2.3c-3.3-3.5-4-8.4-4-8.4
			s5.3-1.3,11.4-5.1c6.2-3.8,9.1-3.5,9.1-3.5c-3.7-13-2.4-20.8-2.4-20.8c-5.5-9.8-1.8-15.3-1.8-15.3l7,2.3c-0.3,0.3-0.7,0.6-1.2,0.9
			c0,0,2.6,2.5,1,2c-1.6-0.5,0.2,5,0.8,10.1c0.1,0.6-2.8,6.5,0.1,13.1c2.9,6.6,2.1,9.6,0.1,11.2c-2,1.6-3,0.1-6.1,1.1
			c-3.1,1-5.7,3.2-3.3,5.6C49,277.8,53.4,275.6,58.5,274.1z"/>
		<path id="XMLID_359_" class="st41" d="M64.9,261.1c-2.6-3.5-5.3-8.6-5.4-16.1c2.2,2.1,4.2,3,4.2,3
			C63.8,252.5,64.5,257.1,64.9,261.1z"/>
		<path id="XMLID_592_" class="st3" d="M92.9,265.8c-0.5,1.4-2.5,3.2-5.3,5.1c0,0,0,0-0.1,0c-0.1,0.1-0.3,0.2-0.6,0.4
			c-8.4,5.5-22.9,11.9-25,14c0,0-3.5-3.2-4.6-8.6c0,0,4.8-2.8,8.9-5.7c4.1-2.8,7.2-7.1,14.6-9.8c0,0-4.5-1.9-7.6-5.1
			c-3.1-3.2-5.3-5.9-7-6.2c-1.8-0.3-10.2-1.4-11.9-9.8c-1.7-8.3,0.7-8.8,0.7-8.8l16.8-1.7c0,0,0.7,1.8,5.8,9.1
			C82.8,246.2,94.7,260.2,92.9,265.8z"/>
		<path id="XMLID_257_" class="st21" d="M87,271.3c-8.4,5.5-22.9,11.9-25,14c0,0-3.5-3.2-4.6-8.6c0,0,4.8-2.8,8.9-5.7
			c4.1-2.8,7.2-7.1,14.6-9.8c0,0-4.5-1.9-7.6-5.1c-3.1-3.2-5.3-5.9-7-6.2c-1.8-0.3-10.2-1.4-11.9-9.8c-1.7-8.3,0.7-8.8,0.7-8.8
			l16.8-1.7c0,0-2.3,1.4-5.1,3.3c-2.9,1.9-1.3,8.5,3.2,10.3c4.5,1.8,5.9,8.5,11.9,11.4c6,2.9,3.6,6.1,0,8.1
			c-3.6,2-13.8,8.8-11.5,12.6C72.5,279.1,83.9,273.2,87,271.3z"/>
		<path id="XMLID_609_" class="st5" d="M132.9,195.7c-1.7,1.3-6.9,2.4-9.4,3.7c-2.4,1.3-15.6,8.9-35.4,3.3l3.6-5.2
			c0,0,2.8,1.2,7.4,1.6c2,0.1,4.4,0.1,7.1-0.2c8.7-1.2,11.8-0.6,14.2-2.2c2.4-1.6,3.5-3.8,4.6-4.9c1.1-1.2,0.2-3.2,1.6-2
			c0.5,0.4,0.8,0.8,0.9,1.3c0.2,0.9-0.3,1.9-1.2,2.9c0,0,2.1,1,4.2-0.1c0.4-0.2,0.6-0.3,0.8-0.4c0.9-0.5,0.3-0.2,2.6-0.8
			c0.2-0.1,0.4-0.1,0.6-0.1C136.5,192.1,134.4,194.5,132.9,195.7z"/>
		<path id="XMLID_222_" class="st10" d="M132.9,195.7c-1.7,1.3-6.9,2.4-9.4,3.7c-2.4,1.3-15.6,8.9-35.4,3.3l3.6-5.2
			c0,0,2.8,1.2,7.4,1.6c0,0.2,0.1,2-0.2,3.1c-0.3,1.2,13.1,1.4,18.5-1.5c5.5-2.9,9.1-4.5,12.3-4.7c3.2-0.2,5.4-3,4.8-3.6
			C136.5,192.1,134.4,194.5,132.9,195.7z"/>
		<path id="XMLID_597_" class="st16" d="M112.4,175.1c-2.7,1.1-1.2,0.7-3.5,1c-2.3,0.4-3.5,2.4-3.5,2.4c1.8,0.3,3.2,1.3,2.7,3.2
			s-0.9-0.4-2.5-0.7c-1.6-0.3-3.7-1.4-6.6-1.3c-2.9,0.1-5.1,2.4-12.8,6.5c-7.7,4.1-10.9,9.6-10.9,9.6l-1.8-0.6l-4.1-1.4
			C82,177.6,97.1,176,99.8,175.6c2.7-0.4,7.6-2.6,9.7-2.5c1.2,0.1,2.8,0.4,3.5,0.8C113.6,174.2,113.6,174.7,112.4,175.1z"/>
		<path id="XMLID_581_" class="st10" d="M113.1,173.9c-0.9-0.1-3.6-0.1-6.1,1.4c-2.9,1.7-20.7,2.1-33.6,19.9l-4.1-1.4
			C82,177.6,97.1,176,99.8,175.6c2.7-0.4,7.6-2.6,9.7-2.5C110.8,173.2,112.4,173.5,113.1,173.9z"/>
		<path id="XMLID_598_" class="st23" d="M83.2,199.5c-1,2.1-1.4,3.1-6.5,10c-3.3,4.5-4.4,10.2-4.7,13.6c-0.1,1.9-0.1,3.1-0.1,3.1
			c-14.8,5.3-22.8-1-22.8-1c0.5-1-0.1-4.6,4.5-14.4c4.6-9.8,11.7-19.1,16.2-22.6c4.5-3.5,7.2-3.9,10.2-3.6l5.5,2.8
			c0.3,0.4,0.5,0.7,0.6,1.1C87.6,192.3,84.1,197.6,83.2,199.5z"/>
		<path id="XMLID_580_" class="st21" d="M86,188.4c-1.3,0.1-4.3,0.1-7.2-1.3c-4-1.9-18.8,23.2-17.7,32.4c1.1,9.2,9.1,4.7,10.9,3.6
			c-0.1,1.9-0.1,3.1-0.1,3.1c-14.8,5.3-22.8-1-22.8-1c0.5-1-0.1-4.6,4.5-14.4c4.6-9.8,11.7-19.1,16.2-22.6c4.5-3.5,7.2-3.9,10.2-3.6
			l5.5,2.8C85.6,187.7,85.8,188,86,188.4z"/>
		<path id="XMLID_588_" class="st7" d="M102.2,164.9c-0.1,2.4-3.1,3.2-5.6,3.3c-2.5,0.1-2.3,1.3-1.1,4.2c1.3,2.9,1.2,5.3,0.9,6
			c-0.3,0.8-1.8,0.5-1.8,0.5c1-2.6-3.1-5.9-4.6-1.9c-1.5,4,1.4,5.5,1.4,5.5c-0.9,1.4-1.9,2.9-3.2,3.9c-2.4,1.9-5.6,2.2-9.5-2.2
			c-5.9-6.7-3.2-14.3-3.2-14.3s-3.7,1.3-4.1,0c-0.4-1.3,3.8-2.3,3.8-2.3s-2.4-2.8-1.2-3.6c1.3-0.8,3.3,3.5,3.3,3.5s0.6-2.1,5-5
			c3.6-2.4,8.2-1.7,11.1-0.4c0.7,0.3,1.2,0.6,1.7,0.9c2.6,1.7,3.7,1.4,4.6,0.6C100.8,163,102.3,162.5,102.2,164.9z"/>
		<path id="XMLID_585_" class="st4" d="M93.5,162.2L93.5,162.2c0,0-4-1.1-7.3,4.8c-2.4,4.4-4.1,14.8,1.9,19.5
			c-2.4,1.9-5.6,2.2-9.5-2.2c-5.9-6.7-3.2-14.3-3.2-14.3s-3.7,1.3-4.1,0c-0.4-1.3,3.8-2.3,3.8-2.3s-2.4-2.8-1.2-3.6
			c1.3-0.8,3.3,3.5,3.3,3.5s0.6-2.1,5-5C86,160.2,90.6,160.9,93.5,162.2z"/>
		<path id="XMLID_594_" class="st5" d="M99.5,187.8c-1.5,1-6.7,3.8-14.6,0c0,0,5.6-3.3,5-4.8c-0.6-1.5-2.6-6.7,1.5-8.6
			c2.8-1.4,3.7,0.7,4,2c0.1,0.6,0.1,1.1,0.1,1.1s0-0.7,0-1.7c-0.2-2-0.8-5.2-2.9-6.4c-3-1.7,4.6-4.2,6.6-2.1c0,0,0,0,0,0
			c0.1,0.1,0.2,0.3,0.3,0.5c0,0,2.4,3.8,2.7,10.1S101,186.8,99.5,187.8z"/>
		<path id="XMLID_605_" class="st42" d="M93.4,205.6c-2.3,1.4-1.9,2-8-3.3c-6.1-5.3-5.1-9.8-3-12c1.3-1.4,2.9-1.7,4.7-1.5
			c5.2,0.7,11.5,6.6,12.4,7.6C100.7,197.9,95.7,204.2,93.4,205.6z"/>
		<path id="XMLID_584_" class="st10" d="M99.5,187.8c-1.5,1-6.7,3.8-14.6,0c0,0,5.6-3.3,5-4.8c-0.6-1.5-2.6-6.7,1.5-8.6
			c2.8-1.4,3.7,0.7,4,2c-0.1-0.3-0.8-2.7-2.7-1.1c-2,1.7-2.4,2-1.6,4.9c0.7,2.9,0.5,3.4-0.8,5.5C89,187.9,92.2,189.5,99.5,187.8z"/>
		<path id="XMLID_590_" class="st10" d="M99.2,167.3c-0.3-0.1-3.5-0.8-4.5,1c-1,1.8,2.3,0.7,0.8,7.5c-0.2-2-0.8-5.2-2.9-6.4
			C89.5,167.7,97.1,165.2,99.2,167.3z"/>
		<path id="XMLID_224_" class="st21" d="M93.4,205.6c-2.3,1.4-1.9,2-8-3.3c-6.1-5.3-5.1-9.8-3-12c1.3-1.4,2.9-1.7,4.7-1.5
			c-0.9,0.4-4.6,2.5,0.6,8.9c5.7,7,10.7,2.8,11.9-1.2C100.7,197.9,95.7,204.2,93.4,205.6z"/>
		<path id="XMLID_258_" class="st10" d="M131.3,193.2c-1.5,1.8-7.5,2.4-5.9,0.7c1.6-1.7,2-3.1,2-3.1s0,0,0,0
			c0.2,0.9-0.3,1.9-1.2,2.9c0,0,2.1,1,4.2-0.1C130.9,193.4,131.2,193.3,131.3,193.2z"/>
		<path id="XMLID_362_" class="st42" d="M71.8,229.8c-0.2,0.1-0.4,0.1-0.6,0.1c-20.4,4.6-23.7-1.6-23.7-1.6c0.6-4.3,1.7-3.9,1.7-3.9
			c8.3,4.9,16.9,2.9,20.7,1.7c1-0.4,1.7-0.6,1.9-0.7c0,0,0.1,0,0.1,0C74.3,225.2,71.8,229.8,71.8,229.8z"/>
		<path id="XMLID_220_" class="st21" d="M71.2,229.9c-20.4,4.6-23.7-1.6-23.7-1.6c0.6-4.3,1.7-3.9,1.7-3.9
			c8.3,4.9,16.9,2.9,20.7,1.7c-0.5,0.7-1.3,1.2-2.4,1.5C62.7,228.6,64,231.4,71.2,229.9z"/>
	</g>
</g>
<g id="DESIGNED_BY_FREEPIK">
</g>
</svg>
