<?xml version="1.0" encoding="utf-8"?>
<!-- Generator: Adobe Illustrator 23.0.1, SVG Export Plug-In . SVG Version: 6.00 Build 0)  -->
<svg version="1.1" id="Layer_1" xmlns="http://www.w3.org/2000/svg" xmlns:xlink="http://www.w3.org/1999/xlink" x="0px" y="0px"
	 viewBox="0 0 89.4 89.4" style="enable-background:new 0 0 89.4 89.4;" xml:space="preserve">
<style type="text/css">
	.st0{fill:#4F4F4F;}
</style>
<title>aboutSquare</title>
<g>
	<g id="content">
		<path class="st0" d="M0,0v89.4h89.4V0H0z M30.3,18.1c-2.2,2.6-3.3,6.1-3.1,9.5v7.6c-0.9,1.1-1.4,2.4-1.4,3.8v5.8
			c0,1.8,0.8,3.5,2.2,4.6c1,3.7,2.7,7.3,5,10.4v4.7c0,1.3-0.7,2.5-1.9,3.2l-12.9,7c-0.4,0.2-0.8,0.5-1.2,0.8C0,60.2-1.4,34,13.8,17
			s41.5-18.5,58.5-3.2s18.5,41.5,3.2,58.5c-1.1,1.2-2.2,2.3-3.4,3.4c-0.5-0.3-0.9-0.6-1.4-0.9L57,67.9c-1.2-0.6-2-1.9-2-3.2v-4.8
			c0.3-0.4,0.7-0.8,1-1.3c1.8-2.6,3.2-5.4,4.3-8.3c2.1-1,3.4-3.1,3.4-5.3v-5.8c0-1.4-0.5-2.8-1.4-3.8v-7.6c0.3-3.5-0.8-6.9-3.1-9.5
			c-3-3.4-7.9-5.2-14.4-5.2S33.3,14.7,30.3,18.1z"/>
	</g>
</g>
</svg>
