<?xml version="1.0" encoding="utf-8"?>
<!-- Generator: Adobe Illustrator 23.0.1, SVG Export Plug-In . SVG Version: 6.00 Build 0)  -->
<svg version="1.1" id="Ñëîé_1" xmlns="http://www.w3.org/2000/svg" xmlns:xlink="http://www.w3.org/1999/xlink" x="0px" y="0px"
	 viewBox="0 0 77.1 102.4" style="enable-background:new 0 0 77.1 102.4;" xml:space="preserve">
<style type="text/css">
	.st0{opacity:0.2;fill:#5D5D5D;}
	.st1{opacity:0.4;fill:#B3B3FF;}
	.st2{fill:#6B2F29;}
	.st3{fill:#FCB87E;}
	.st4{fill:#0C96A8;}
	.st5{fill:#F90D3E;}
	.st6{fill:#5D5D5D;}
	.st7{fill:#A00B36;}
	.st8{fill:#FFFFFF;}
	.st9{fill:#8C0928;}
	.st10{fill:#E0E0E0;}
	.st11{fill:#A0A0A0;}
	.st12{fill:#F0F0F0;}
	.st13{fill:#C60C39;}
	.st14{fill:none;}
</style>
<path class="st0" d="M70.5,99.8c0,1.4-13.4,2.5-29.9,2.5c-16.5,0-29.9-1.1-29.9-2.5c0-1.4,13.4-2.5,29.9-2.5
	C57.1,97.3,70.5,98.4,70.5,99.8z"/>
<path class="st1" d="M76,23c-5-15.2-25.9-20.5-46.5-11.8C8.8,19.9-3.9,39.3,1.1,54.6c3.3,10,13.3,15.6,25.7,16c2.7,1.6,5.6,3,8.8,4
	c16.6,5.4,32.6,0,35.7-12.3c1.1-4.2,0.5-8.7-1.4-13C76.2,40.9,78.7,31.3,76,23z"/>
<g>
	<g>
		<g>
			<g>
				<path class="st2" d="M51.7,60.6c0.1-0.1,1.3,1.4,2.3,3.4c1,2.1,1.3,3.9,1.2,3.9c-0.1,0-0.6-1.7-1.6-3.7
					C52.6,62.2,51.6,60.6,51.7,60.6z"/>
			</g>
			<g>
				<path class="st3" d="M58.4,74.5c0,0,1.9,1,3.8-1.9c2.3-3.7-6.8-14.8-6.8-14.8l-4.1,1.8L58.4,74.5z"/>
				<g>
					<path class="st2" d="M58.4,74.5c0,0,0.3,0.1,0.8,0.1c0.5,0,1.3-0.3,1.9-0.9c0.3-0.3,0.6-0.8,0.9-1.2c0.2-0.5,0.3-1,0.2-1.6
						c-0.1-1.2-0.6-2.5-1.3-3.9c-1.3-2.6-2.8-4.8-3.9-6.4c-1.1-1.6-1.8-2.6-1.8-2.6c0.1,0,0.9,0.8,2,2.4c1.2,1.6,2.7,3.7,4.1,6.4
						c0.6,1.3,1.2,2.7,1.3,4c0,0.7,0,1.3-0.3,1.9c-0.3,0.5-0.6,0.9-1,1.3c-0.7,0.7-1.6,0.9-2.2,0.9C58.7,74.7,58.4,74.5,58.4,74.5z"
						/>
				</g>
			</g>
			<g>
				<g>
					<path class="st2" d="M56.4,75.2c0-0.1,0.4,0.1,1,0.1c0.6,0.1,1.4,0,2.1-0.6c0.7-0.6,1.1-1.3,1.3-1.9c0.2-0.6,0.4-0.9,0.5-0.9
						c0.1,0,0,0.4-0.1,1c-0.2,0.6-0.5,1.5-1.3,2.1c-0.8,0.7-1.8,0.7-2.5,0.6C56.7,75.5,56.4,75.3,56.4,75.2z"/>
				</g>
			</g>
			<g>
				<g>
					<path class="st2" d="M55.1,67.5c0,0-0.3,0.2-0.9,0.5c-0.5,0.3-1.2,0.9-1.5,2c-0.1,0.5-0.2,1.1-0.2,1.8c-0.1,0.6,0.6,1.1,1.2,1
						c0.3,0,0.5-0.2,0.6-0.6c0-0.2,0.1-0.3,0.1-0.5c0-0.2,0-0.4,0.1-0.7c0.1-0.2,0.2-0.5,0.4-0.6c0.1-0.1,0.2-0.1,0.3-0.2
						c0.1,0,0.1,0,0.2-0.1c0.1,0,0.2,0,0.3-0.1c0.4,0.3,0.4,0.5,0.5,0.7c0.1,0.2,0.1,0.5,0.1,0.7c0,0.5,0,1.1-0.2,1.6
						c-0.1,0.3-0.2,0.5-0.4,0.7c-0.2,0.2-0.5,0.4-0.8,0.4c-0.2,0-0.3,0-0.4,0c-0.1,0-0.2,0-0.3,0c-0.2,0.1-0.3,0.2-0.4,0.3
						c-0.2,0.3-0.1,0.7,0.2,0.8l0,0l0,0c0.8,0.4,1.8,0.4,2.5,0.1c0.7-0.3,1.2-0.9,1.5-1.4c0.6-1,0.7-1.7,0.8-1.7c0,0,0,0.2-0.1,0.5
						c-0.1,0.3-0.2,0.8-0.5,1.3c-0.3,0.5-0.7,1.2-1.5,1.6c-0.8,0.4-1.9,0.4-2.9,0l0,0c-0.3-0.1-0.5-0.3-0.6-0.6
						c-0.1-0.3,0-0.6,0.1-0.8c0.1-0.2,0.4-0.4,0.6-0.5c0.1-0.1,0.3-0.1,0.4-0.1c0.1,0,0.3,0,0.3,0c0.3,0,0.6-0.4,0.7-0.8
						c0.1-0.4,0.2-0.9,0.2-1.4c0-0.2-0.1-0.4-0.1-0.6c0-0.2-0.2-0.4-0.2-0.3c0,0,0,0,0,0l-0.1,0c-0.1,0-0.1,0.1-0.2,0.1
						C55.1,70.9,55,71,55,71.1c-0.1,0.2-0.1,0.3-0.1,0.5c0,0.2,0,0.4-0.1,0.7c-0.1,0.4-0.6,0.8-1,0.9c-0.5,0.1-0.9-0.1-1.2-0.4
						c-0.3-0.3-0.5-0.7-0.5-1.1c0-0.7,0.1-1.3,0.3-1.9c0.3-1.2,1.2-1.8,1.8-2.1C54.8,67.5,55.1,67.5,55.1,67.5z"/>
				</g>
			</g>
		</g>
		<g>
			<path class="st4" d="M45.6,54.3l5.2,8.6l6.9-4.1c0,0-4.1-7.5-9.1-12.3l-5.1,5.2L45.6,54.3z"/>
			<g>
				<path class="st2" d="M45.6,54.3c0,0,0.2,0.2,0.4,0.6c0.3,0.4,0.6,1,1.1,1.7c0.9,1.5,2.2,3.5,3.7,5.9c1.7-1,3.6-2.1,5.5-3.3
					l0.7-0.4l0.2-0.1c0,0,0,0.1-0.1-0.1c-0.3-0.5-0.6-1-0.8-1.4c-0.6-0.9-1.1-1.8-1.7-2.6c-1.1-1.7-2.1-3.1-3.1-4.3
					c-0.9-1.2-1.7-2.1-2.3-2.8c-0.6-0.6-0.9-1-0.9-1c0,0,0.4,0.3,1,0.9c0.6,0.6,1.5,1.5,2.4,2.7c1,1.2,2.1,2.6,3.2,4.3
					c0.6,0.8,1.1,1.7,1.7,2.6c0.3,0.5,0.6,0.9,0.8,1.4l0.1,0.3l0.1,0.2c0,0,0,0.1,0,0.1L57.9,59l-0.5,0.3l-0.7,0.4
					c-2.1,1.2-4.1,2.4-5.9,3.5c-0.8-1.3-1.5-2.6-2.2-3.7c-0.6-1.1-1.2-2-1.6-2.7c-0.4-0.8-0.8-1.4-1-1.8
					C45.7,54.6,45.5,54.4,45.6,54.3z"/>
			</g>
		</g>
		<g>
			<g>
				<path class="st4" d="M41.1,94.2c0,0-2.1,4.8-0.9,5.7c1.2,0.9,15,0.8,15,0.8s-4-7.2-8.1-7L41.1,94.2z"/>
				<g>
					<path class="st2" d="M47.1,93.7c0,0,0.3,0,0.8,0c0.5,0.1,1.3,0.3,2.2,0.9c0.9,0.5,1.8,1.4,2.7,2.4c0.5,0.5,0.9,1.1,1.3,1.7
						c0.2,0.3,0.4,0.6,0.7,1l0.3,0.5l0.2,0.4l0.3,0.5c-0.9,0-1.9,0-2.8,0c-0.8,0-1.7,0-2.5,0c-2.2,0-4.4-0.1-6.3-0.2
						c-1-0.1-1.9-0.2-2.7-0.3c-0.4-0.1-0.9-0.1-1.3-0.5c-0.3-0.4-0.3-0.8-0.3-1.2c0.1-1.5,0.6-2.6,0.9-3.4c0.3-0.8,0.5-1.2,0.6-1.1
						c0,0-0.1,0.4-0.4,1.2c-0.2,0.8-0.7,1.9-0.7,3.3c0,0.3,0.1,0.7,0.3,0.9c0.2,0.2,0.6,0.3,1,0.3c0.8,0.1,1.7,0.2,2.7,0.3
						c1.9,0.1,4,0.2,6.3,0.2c1.6,0,3.1,0,4.5,0l0,0l-0.1-0.1l-0.3-0.5c-0.2-0.3-0.4-0.6-0.6-0.9c-0.4-0.6-0.9-1.2-1.3-1.7
						c-0.9-1-1.7-1.8-2.5-2.4c-0.8-0.6-1.5-0.8-2.1-1C47.4,93.8,47.1,93.7,47.1,93.7z"/>
				</g>
			</g>
			<g>
				<path class="st5" d="M42.8,88.5c0,0-2.4,0.4-1.3,2.2l-0.4,3.5c0,0,4.1,2,6.4-0.2l0-3c1.6-2-1.2-2.2-1.2-2.2L42.8,88.5z"/>
				<path class="st3" d="M43.7,78.9l-1,10.9c0,0,1.8,1,3.3,0.3l0.8-11L43.7,78.9z"/>
				<g>
					<path class="st2" d="M46.3,88.9c0,0,0.3-0.1,0.8,0.1c0.2,0.1,0.6,0.2,0.8,0.5c0.3,0.3,0.2,0.9,0,1.3c-0.1,0.1-0.1,0.2-0.2,0.3
						c0,0.1-0.1,0.1-0.1,0.1l0,0.1c0,0.2,0,0.5,0,0.8c0,0.5,0,1.1,0,1.7l0,0.2c0,0.1,0,0.2,0,0.2l-0.2,0.1l-0.4,0.3
						c-0.3,0.2-0.6,0.3-0.9,0.4c-0.7,0.2-1.4,0.3-2.1,0.2c-0.7,0-1.4-0.2-2-0.4c-0.3-0.1-0.6-0.2-0.9-0.3l-0.3-0.1c0,0-0.1,0-0.1,0
						l0-0.1l0-0.2c0-0.2,0-0.3,0.1-0.5c0.1-0.6,0.1-1.2,0.2-1.7c0-0.3,0.1-0.5,0.1-0.8c0-0.1,0-0.2,0-0.4c0-0.1,0-0.1,0-0.1
						l-0.1-0.1c-0.2-0.4-0.2-1,0-1.3c0.2-0.3,0.5-0.5,0.8-0.6c0.5-0.2,0.8-0.2,0.8-0.2c0,0-0.3,0.1-0.7,0.3
						c-0.2,0.1-0.5,0.3-0.6,0.6c-0.2,0.3-0.2,0.6,0.1,1l0.1,0.2c0.1,0.1,0,0.2,0,0.3c0,0.1,0,0.2,0,0.4c0,0.2,0,0.5-0.1,0.8
						c0,0.5-0.1,1.1-0.2,1.7c0,0.1,0,0.3,0,0.4c0,0-0.1,0,0.1,0c0.3,0.1,0.6,0.2,0.9,0.3c0.6,0.2,1.2,0.3,1.9,0.4
						c0.7,0,1.3,0,1.9-0.2c0.3-0.1,0.6-0.2,0.8-0.4l0.3-0.3c0,0,0,0,0,0l0-0.2c0-0.6,0-1.2,0-1.7c0-0.3,0-0.5,0-0.8l0-0.2
						c0-0.1,0-0.1,0.1-0.1l0.1-0.1c0.1-0.1,0.1-0.2,0.2-0.3c0.2-0.4,0.3-0.7,0.1-1c-0.2-0.3-0.5-0.4-0.7-0.5
						C46.6,88.9,46.3,88.9,46.3,88.9z"/>
				</g>
			</g>
			<g>
				<g>
					<path class="st2" d="M42.7,90c-0.1,0,0-0.8,0.1-2c0.1-1.2,0.2-2.9,0.4-4.8c0.3-3.7,0.5-6.8,0.6-6.8c0.1,0,0.2,3.1-0.1,6.8
						C43.4,87,42.9,90,42.7,90z"/>
				</g>
			</g>
			<g>
				<g>
					<path class="st2" d="M46.1,90c-0.1,0,0-0.8,0.1-2c0.1-1.2,0.2-2.9,0.4-4.8c0.3-3.7,0.5-6.8,0.6-6.8c0.1,0,0.2,3.1-0.1,6.8
						C46.8,87,46.2,90,46.1,90z"/>
				</g>
			</g>
			<g>
				<g>
					<path class="st2" d="M46.8,89.9c0,0-0.2,0.3-0.6,0.4c-0.4,0.2-1.1,0.3-1.8,0.2C43,90.5,42,89.9,42,89.8c0-0.1,1.1,0.2,2.4,0.3
						C45.8,90.2,46.8,89.8,46.8,89.9z"/>
				</g>
			</g>
		</g>
		<g>
			<g>
				<path class="st4" d="M30.2,94c0,0-2.2,4.9-0.9,5.9c1.3,1,15.6,0.8,15.6,0.8s-4.2-7.4-8.5-7.3L30.2,94z"/>
				<g>
					<path class="st2" d="M36.4,93.5c0,0,0.3,0,0.9,0c0.6,0.1,1.4,0.3,2.3,0.9c0.9,0.6,1.8,1.4,2.8,2.5c0.5,0.5,1,1.1,1.4,1.7
						c0.2,0.3,0.5,0.6,0.7,1c0.1,0.2,0.2,0.3,0.3,0.5l0.2,0.4l0.3,0.5c-0.9,0-1.9,0-2.9,0c-0.9,0-1.7,0-2.6,0
						c-2.3,0-4.5-0.1-6.5-0.2c-1-0.1-2-0.2-2.9-0.3c-0.4-0.1-0.9-0.1-1.3-0.5c-0.3-0.4-0.4-0.9-0.3-1.3c0.1-1.6,0.6-2.7,0.9-3.5
						c0.3-0.8,0.5-1.2,0.6-1.2c0,0-0.1,0.5-0.4,1.3c-0.2,0.8-0.7,2-0.7,3.5c0,0.4,0.1,0.8,0.3,1c0.2,0.2,0.7,0.3,1.1,0.3
						c0.9,0.1,1.8,0.2,2.8,0.3c2,0.1,4.2,0.2,6.5,0.2c1.7,0,3.2,0,4.7,0l0,0l-0.1-0.2l-0.3-0.5c-0.2-0.3-0.4-0.7-0.7-1
						c-0.4-0.6-0.9-1.2-1.4-1.7c-0.9-1.1-1.8-1.9-2.7-2.5c-0.8-0.6-1.6-0.8-2.1-1C36.7,93.5,36.4,93.5,36.4,93.5z"/>
				</g>
			</g>
			<g>
				<path class="st5" d="M31.9,88.1c0,0-2.5,0.5-1.4,2.2L30.2,94c0,0,4.2,2,6.6-0.2l0-3.1c1.7-2.1-1.2-2.3-1.2-2.3L31.9,88.1z"/>
				<path class="st3" d="M33.1,78.6l-1,10.9c0,0,1.8,1,3.3,0.3l0.8-11L33.1,78.6z"/>
				<g>
					<path class="st2" d="M35.6,88.5c0,0,0.3-0.1,0.8,0.1c0.3,0.1,0.6,0.2,0.9,0.5c0.3,0.4,0.2,0.9,0,1.3c-0.1,0.1-0.1,0.2-0.2,0.3
						l0,0.1c0,0,0,0,0,0l0,0.1c0,0.3,0,0.5,0,0.8c0,0.5,0,1.1,0,1.7l0,0.2c0,0.1,0,0.2,0,0.2l-0.2,0.1l-0.4,0.3
						c-0.3,0.2-0.6,0.3-0.9,0.4c-0.7,0.2-1.4,0.3-2.1,0.2c-0.7-0.1-1.4-0.2-2.1-0.4c-0.3-0.1-0.6-0.2-0.9-0.3L30,94.2
						c0,0-0.1,0-0.1-0.1l0-0.1l0-0.2c0-0.2,0-0.3,0.1-0.5c0.1-0.6,0.1-1.2,0.2-1.7c0-0.3,0.1-0.5,0.1-0.8c0-0.1,0-0.2,0-0.4
						c0-0.1,0-0.1,0-0.1l-0.1-0.1c-0.2-0.4-0.2-1,0-1.3c0.2-0.3,0.6-0.5,0.8-0.6c0.5-0.2,0.8-0.2,0.8-0.2c0,0-0.3,0.1-0.7,0.3
						c-0.2,0.1-0.5,0.3-0.7,0.6c-0.2,0.3-0.2,0.7,0.1,1l0.1,0.2c0.1,0.1,0,0.2,0,0.3c0,0.1,0,0.2,0,0.4c0,0.3,0,0.5-0.1,0.8
						c-0.1,0.5-0.1,1.1-0.2,1.7c0,0.2,0,0.3,0,0.5c0,0-0.1,0,0.1,0.1c0.3,0.1,0.6,0.2,0.9,0.3c0.6,0.2,1.3,0.3,2,0.4
						c0.7,0,1.3,0,1.9-0.2c0.3-0.1,0.6-0.2,0.8-0.4l0.4-0.3c0,0,0,0,0,0l0-0.2c0-0.6,0-1.2,0-1.7c0-0.3,0-0.5,0-0.8l0-0.2
						c0-0.1,0-0.1,0.1-0.1l0.1-0.1c0.1-0.1,0.1-0.2,0.2-0.3c0.2-0.4,0.3-0.8,0.1-1c-0.2-0.3-0.5-0.4-0.7-0.5
						C35.9,88.6,35.6,88.5,35.6,88.5z"/>
				</g>
			</g>
			<g>
				<g>
					<path class="st2" d="M32,90c-0.1,0,0-0.8,0.1-2c0.1-1.2,0.2-2.9,0.4-4.8c0.3-3.7,0.5-6.8,0.6-6.8c0.1,0,0.2,3.1-0.1,6.8
						C32.7,87,32.2,90,32,90z"/>
				</g>
			</g>
			<g>
				<g>
					<path class="st2" d="M35.4,90c-0.1,0,0-0.8,0.1-2c0.1-1.2,0.2-2.9,0.4-4.8c0.3-3.7,0.5-6.8,0.6-6.8c0.1,0,0.2,3.1-0.1,6.8
						C36.1,87,35.5,90,35.4,90z"/>
				</g>
			</g>
			<g>
				<g>
					<path class="st2" d="M36.1,89.6c0,0-0.2,0.3-0.7,0.4c-0.5,0.2-1.1,0.3-1.8,0.2c-1.5-0.1-2.5-0.6-2.5-0.8c0-0.1,1.1,0.2,2.5,0.3
						C35,89.9,36.1,89.5,36.1,89.6z"/>
				</g>
			</g>
		</g>
		<g>
			<g>
				<g>
					<path class="st2" d="M49.7,68.3c0.1,0,0,1.2-0.2,3.1c-0.1,0.9-0.2,2.1-0.3,3.3C49.1,76,49,77.5,48.8,79c-0.2,0-0.4,0-0.6,0
						c-2.1,0.1-4,0.2-5.7,0.2c0-0.9,0-1.7,0-2.5c0-0.7,0-1.2,0.1-1.7c0-1,0.1-1.5,0.1-1.5c0,0,0.1,0.5,0.1,1.5
						c0,0.9,0.1,2.2,0.1,3.7c1.5-0.1,3.3-0.2,5.2-0.3l0.2,0c0.2-1.4,0.3-2.7,0.4-3.9c0.2-1.3,0.3-2.4,0.4-3.3
						C49.5,69.4,49.6,68.3,49.7,68.3z"/>
				</g>
			</g>
			<g>
				<polygon class="st6" points="30.7,67.7 31.8,78.8 38,78.9 39.5,73.6 46.4,72.6 				"/>
				<g>
					<path class="st2" d="M46.4,72.6c0,0-0.7,0.2-1.9,0.4c-1.2,0.2-2.8,0.5-4.8,0.8c-0.5,1.6-1,3.4-1.5,5.4c-0.8,0-1.7,0-2.6-0.1
						c-1.4,0-2.7-0.1-4-0.1c-0.2-1.7-0.3-3.2-0.4-4.6c-0.1-1.3-0.2-2.5-0.3-3.5c-0.1-1-0.1-1.8-0.2-2.3c0-0.5,0-0.8,0-0.8
						c0,0,0.1,0.3,0.2,0.8c0.1,0.5,0.2,1.3,0.3,2.3c0.1,1,0.3,2.2,0.4,3.5c0.1,1.3,0.3,2.7,0.5,4.2c1.1,0,2.3,0,3.5,0.1
						c0.8,0,1.5,0,2.2,0.1c0.6-1.9,1.1-3.7,1.6-5.2c1.1-0.1,2.1-0.3,2.9-0.4c0.8-0.1,1.6-0.2,2.2-0.3C45.7,72.6,46.4,72.6,46.4,72.6
						z"/>
				</g>
			</g>
		</g>
		<g>
			<polygon class="st4" points="48.4,52.7 51.7,69.3 28.6,70.2 31.4,51.4 			"/>
			<g>
				<path class="st2" d="M31.4,51.4c0,0,0,0.1,0,0.4c0,0.2-0.1,0.6-0.1,1c-0.1,0.9-0.3,2.2-0.5,3.9c-0.5,3.3-1.1,7.9-1.9,13.3
					c3.2-0.1,6.6-0.3,10.2-0.4c4.4-0.2,8.6-0.3,12.3-0.5c-0.9-4.8-1.7-8.9-2.3-11.7c-0.3-1.5-0.5-2.6-0.6-3.4
					c-0.1-0.8-0.2-1.2-0.2-1.2c0,0,0.1,0.4,0.3,1.2c0.2,0.8,0.4,1.9,0.8,3.4c0.6,3,1.5,7.2,2.6,12.2c-3.9,0.2-8.3,0.3-12.9,0.5
					c-3.8,0.1-7.4,0.3-10.8,0.4c0.9-5.6,1.6-10.4,2.1-13.8c0.3-1.7,0.5-3,0.6-3.9c0.1-0.4,0.1-0.8,0.2-1
					C31.4,51.5,31.4,51.4,31.4,51.4z"/>
			</g>
		</g>
		<g>
			<g>
				<path class="st2" d="M31,46.9c0,0-0.3,0.4-0.9,1c-0.6,0.6-1.4,1.5-2.4,2.7c-1,1.2-2.1,2.6-3.2,4.2c-0.6,0.8-1.2,1.7-1.8,2.6
					c-0.3,0.5-0.6,0.9-0.9,1.4c-0.3,0,0.5,0.4,1,0.6c2,1.2,3.8,2.3,5.5,3.3c1.5-2.4,2.8-4.5,3.7-5.9c0.5-0.7,0.9-1.3,1.1-1.7
					c0.3-0.4,0.4-0.6,0.4-0.6c0,0-0.1,0.2-0.3,0.7c-0.2,0.4-0.6,1-1,1.8c-0.4,0.8-1,1.7-1.6,2.7c-0.7,1.1-1.4,2.3-2.2,3.7
					c-1.8-1.1-3.8-2.2-5.9-3.5l-0.7-0.4L21.4,59l-0.2-0.1c0,0,0.1-0.1,0.1-0.2l0.2-0.3c0.3-0.5,0.6-0.9,0.9-1.4
					c0.6-0.9,1.2-1.8,1.8-2.6c1.2-1.6,2.3-3,3.3-4.1c1-1.1,1.9-2,2.5-2.6C30.6,47.2,31,46.9,31,46.9z"/>
			</g>
		</g>
		<g>
			<polygon class="st7" points="50.1,8.6 50.9,23.2 48,23 42.8,9.8 			"/>
			<g>
				<path class="st2" d="M50.1,8.6c0,0-0.2,0.1-0.5,0.1c-0.3,0.1-0.8,0.2-1.4,0.3c-1.2,0.2-2.9,0.6-5,1c1.2,3,2.8,6.9,4.5,11.1
					c0.2,0.6,0.5,1.2,0.7,1.7c0.9,0.1,1.7,0.1,2.4,0.2c-0.2-4.1-0.4-7.7-0.5-10.2c0-1.3-0.1-2.4-0.1-3.1C50.1,9,50.1,8.6,50.1,8.6
					c0,0,0.1,0.4,0.1,1.1c0.1,0.7,0.1,1.8,0.2,3.1c0.1,1.3,0.2,2.9,0.3,4.6c0.1,1.9,0.2,3.9,0.4,6.1c-1.1-0.1-2.1-0.2-3.3-0.2
					c-0.2-0.6-0.5-1.3-0.8-2c-1.7-4.4-3.3-8.4-4.5-11.6c2.3-0.4,4.2-0.7,5.5-0.9c0.6-0.1,1.1-0.2,1.5-0.2
					C49.9,8.6,50.1,8.5,50.1,8.6z"/>
			</g>
		</g>
		<g>
			<path class="st3" d="M48.4,22.3c7.3-6.8,8.5,5.2,0.4,2.9L48.4,22.3z"/>
			<g>
				<path class="st2" d="M48.8,25.2c0-0.1,0.9,0.2,2.2,0.1c0.7-0.1,1.5-0.2,2.1-0.8c0.7-0.5,1.1-1.5,1-2.4c-0.1-0.5-0.3-0.9-0.6-1.2
					c-0.3-0.3-0.7-0.4-1.1-0.5c-0.8,0-1.6,0.4-2.2,0.7c-1.2,0.7-1.8,1.3-1.9,1.2c0,0,0.5-0.7,1.7-1.5c0.6-0.4,1.4-0.8,2.4-0.8
					c0.5,0,1.1,0.2,1.5,0.6c0.4,0.4,0.7,0.9,0.7,1.5c0.1,1.1-0.4,2.2-1.2,2.8c-0.8,0.6-1.7,0.8-2.4,0.8c-0.7,0-1.3-0.1-1.6-0.2
					C49,25.3,48.8,25.2,48.8,25.2z"/>
			</g>
		</g>
		<g>
			<path class="st3" d="M48.5,46.6c4.5-15.8,2-41.8-12.1-37.7c-11,3.2-2.6,23.8-5.1,38.1l11.8,8.1L48.5,46.6z"/>
			<polygon class="st8" points="41,50.5 46,50.4 44,53.7 			"/>
			<g>
				<path class="st2" d="M48.5,46.6c0,0,0,0.1-0.1,0.2c-0.1,0.1-0.1,0.2-0.3,0.4c-0.2,0.4-0.6,1-1,1.7c-0.9,1.5-2.3,3.7-4,6.4
					c-2.1-1.4-4.6-3.1-7.3-5c-1.4-0.9-2.8-1.9-4.3-2.9l-0.3-0.2c0,0-0.1,0-0.1-0.1l0-0.2l0-0.2l0.1-0.7c0.1-0.4,0.1-0.9,0.2-1.4
					c0.1-0.9,0.1-1.9,0.2-2.8c0.1-3.9-0.3-8-0.7-12.4c-0.2-2.2-0.4-4.4-0.5-6.7c-0.1-2.3-0.1-4.6,0.3-7c0.3-1.9,1-3.8,2.4-5.2
					c0.7-0.7,1.5-1.2,2.4-1.6c0.4-0.2,0.9-0.3,1.3-0.4c0.5-0.1,0.9-0.2,1.4-0.2c1.8-0.2,3.8,0.1,5.3,1.1c1.5,1,2.7,2.3,3.5,3.8
					c1.7,2.9,2.5,6.1,3,9c0.5,2.9,0.7,5.7,0.7,8.2c0,5.1-0.6,9.1-1.1,11.9c-0.3,1.4-0.5,2.4-0.7,3.2c-0.1,0.4-0.2,0.6-0.2,0.8
					C48.6,46.5,48.6,46.6,48.5,46.6c0,0,0-0.1,0-0.3c0-0.2,0.1-0.5,0.2-0.8c0.2-0.7,0.4-1.8,0.7-3.2c0.5-2.8,1-6.8,0.9-11.9
					c0-2.5-0.2-5.3-0.7-8.2c-0.5-2.9-1.3-6-3-8.8c-0.8-1.4-1.9-2.7-3.4-3.6c-1.4-0.9-3.2-1.2-5-1c-0.4,0-0.9,0.1-1.3,0.2
					c-0.4,0.1-0.9,0.3-1.3,0.4c-0.8,0.4-1.6,0.8-2.2,1.5c-1.3,1.3-1.9,3.1-2.3,5c-0.4,2.3-0.4,4.6-0.3,6.9c0.1,2.3,0.3,4.5,0.5,6.7
					c0.4,4.4,0.7,8.5,0.6,12.4c0,1-0.1,1.9-0.2,2.9c-0.1,0.5-0.1,0.9-0.2,1.4l-0.1,0.7c0,0.2,0,0.1,0,0.1l0.2,0.2
					c1.5,1,2.9,2,4.2,2.9c2.6,1.8,5,3.5,7,4.9c1.7-2.6,3.1-4.7,4-6.1c0.5-0.7,0.8-1.3,1.1-1.6c0.1-0.2,0.2-0.3,0.3-0.4
					C48.5,46.6,48.5,46.6,48.5,46.6z"/>
			</g>
		</g>
		<g>
			<path class="st9" d="M30.7,23.7c-13.8-6.3-1.3-13.6-1.3-13.6s2.8-9.3,4-8.3c1.1,1,0.7,4.3,0.7,4.3s10.6-6.4,11.9-5.9
				c0.8,0.4-2,4.5-2,5c0,0.6,10.3-2.9,10.8-2.2C55.4,4,50,8.8,50,8.8s9.4,1.8,10.1,3.1c0.7,1.3-25.8,2.4-25.8,2.4
				c-1.1,0-2.1,8.5-2.1,8.5L30.7,23.7z"/>
			<g>
				<path class="st2" d="M32.2,22.8c0,0,0-0.2,0-0.6c0-0.4,0.1-1,0.2-1.7c0.1-0.8,0.2-1.7,0.5-2.8c0.1-0.5,0.2-1.1,0.4-1.7
					c0.1-0.3,0.2-0.6,0.3-0.9c0.1-0.2,0.1-0.3,0.2-0.5c0.1-0.1,0.2-0.4,0.5-0.4c3.1-0.2,6.9-0.4,11.3-0.7c2.2-0.2,4.5-0.3,7-0.5
					c1.2-0.1,2.5-0.2,3.8-0.4c0.6-0.1,1.3-0.2,1.9-0.3c0.3-0.1,0.6-0.1,1-0.2c0.2,0,0.3-0.1,0.4-0.1c0.1,0,0.1,0,0.1,0c0,0,0,0,0,0
					c0,0,0,0-0.1-0.1l-0.2-0.2c-0.2-0.1-0.4-0.2-0.5-0.3c-0.4-0.2-0.8-0.3-1.2-0.4c-0.8-0.3-1.6-0.5-2.5-0.7
					c-0.8-0.2-1.7-0.4-2.6-0.6c-0.4-0.1-0.9-0.2-1.3-0.3c-0.6-0.1-1.2-0.2-1.8-0.4L50.5,8l0.7-0.6c0.5-0.4,0.9-0.9,1.3-1.3
					c0.4-0.5,0.9-0.9,1.3-1.4c0.2-0.2,0.4-0.5,0.5-0.8c0.1-0.1,0.1-0.3,0.2-0.4c0.1-0.1,0-0.3,0-0.2c0.1,0-0.2,0-0.3,0
					c-0.2,0-0.4,0-0.6,0.1c-0.4,0.1-0.8,0.2-1.2,0.2c-0.8,0.2-1.6,0.4-2.3,0.6c-1,0.3-2,0.5-2.9,0.8c-0.5,0.1-1,0.3-1.5,0.4L45,5.5
					l-0.4,0.1c-0.2,0-0.2,0-0.5,0.1c-0.2,0-0.4-0.1-0.4-0.3c0-0.1,0-0.2,0.1-0.3l0.1-0.2c0.1-0.2,0.2-0.5,0.3-0.7
					c0.2-0.4,0.5-0.9,0.7-1.3c0.2-0.4,0.4-0.9,0.6-1.3c0.1-0.2,0.2-0.4,0.2-0.6c0.1-0.2,0-0.4,0-0.4c-0.1,0-0.4,0-0.7,0.1
					c-0.3,0.1-0.5,0.2-0.8,0.3c-0.5,0.2-1,0.4-1.6,0.7c-1,0.5-2,1-3,1.5c-1,0.5-1.9,1.1-2.9,1.6C36.5,5,36,5.3,35.5,5.5
					c-0.6,0.3-1.2,0.7-1.7,1c0-0.3,0.1-0.6,0.1-0.9l0-0.5c0-0.3,0-0.6,0-0.9c0-0.6-0.1-1.2-0.3-1.7c0-0.1-0.1-0.2-0.2-0.4L33.2,2
					c0,0,0,0-0.1,0c-0.1,0-0.3,0.3-0.5,0.5c-0.3,0.5-0.6,1-0.8,1.5C31.4,5,31,6.1,30.6,7.1c-0.2,0.5-0.4,1-0.5,1.5
					c-0.2,0.5-0.3,1.1-0.5,1.6l-0.3,0.2L29,10.5l-0.4,0.3c-0.3,0.2-0.6,0.4-0.8,0.6c-0.5,0.4-1,0.9-1.5,1.3c-0.9,0.9-1.6,2-1.9,3.1
					c-0.3,1.1-0.1,2.2,0.3,3c0.4,0.9,1.1,1.5,1.7,2.1c1.2,1.1,2.3,1.7,3.1,2.1c0.4,0.2,0.7,0.3,0.9,0.4c0.2,0.1,0.3,0.2,0.3,0.2
					c0,0-0.1,0-0.3-0.1c-0.2-0.1-0.5-0.2-0.9-0.4c-0.8-0.4-1.9-1-3.2-2c-0.6-0.5-1.3-1.2-1.7-2.1c-0.5-0.9-0.7-2.1-0.4-3.2
					c0.6-2.3,2.7-4.3,5.1-5.8c0.2-0.5,0.3-1,0.5-1.4c0.2-0.5,0.3-1,0.5-1.5c0.4-1,0.8-2.1,1.3-3.2c0.2-0.5,0.5-1.1,0.9-1.6
					c0.1-0.1,0.2-0.3,0.3-0.4c0.1-0.1,0.3-0.3,0.5-0.3c0.1,0,0.3,0.1,0.3,0.1l0.2,0.2C33.8,2,33.9,2.2,34,2.3
					c0.3,0.6,0.3,1.3,0.4,1.9c0,0.3,0,0.6,0,1l0,0.5c0.8-0.5,1.6-0.9,2.4-1.4c0.9-0.5,1.9-1.1,2.9-1.6c1-0.5,2-1.1,3-1.6
					c0.5-0.3,1-0.5,1.6-0.7c0.3-0.1,0.6-0.2,0.8-0.3c0.3-0.1,0.6-0.2,1-0.1c0.2,0.1,0.3,0.4,0.3,0.5c0,0.2,0,0.3-0.1,0.4
					c-0.1,0.3-0.2,0.5-0.3,0.7c-0.2,0.5-0.4,0.9-0.6,1.3c-0.2,0.4-0.5,0.9-0.7,1.3c-0.1,0.2-0.2,0.4-0.3,0.6l-0.1,0.1l0,0l0.2,0
					L44.9,5l0.7-0.2c0.5-0.1,1-0.2,1.4-0.4C48,4.2,49,3.9,50,3.7c0.8-0.2,1.6-0.4,2.4-0.6c0.4-0.1,0.8-0.2,1.2-0.2
					c0.2,0,0.4-0.1,0.6-0.1c0.1,0,0.2,0,0.3,0c0.1,0,0.3,0,0.5,0.2c0.2,0.3,0.1,0.5,0,0.7c-0.1,0.2-0.1,0.3-0.2,0.5
					c-0.2,0.3-0.4,0.6-0.6,0.8c-0.4,0.5-0.8,1-1.3,1.4c-0.4,0.5-0.9,0.9-1.4,1.3c-0.3,0.3-0.7,0.6-1,0.9C51.3,8.8,52,9,52.7,9.1
					c0.9,0.2,1.7,0.4,2.6,0.6c0.9,0.2,1.7,0.5,2.5,0.7c0.4,0.1,0.8,0.3,1.2,0.5c0.2,0.1,0.4,0.2,0.6,0.3c0.2,0.1,0.3,0.2,0.6,0.5
					c0.2,0.3-0.2,0.6-0.4,0.6c-0.2,0.1-0.3,0.1-0.5,0.2c-0.3,0.1-0.7,0.1-1,0.2c-0.7,0.1-1.3,0.2-2,0.3c-1.3,0.2-2.6,0.3-3.8,0.4
					c-2.5,0.2-4.8,0.4-7,0.5c-4.4,0.3-8.2,0.4-11.3,0.6c-0.2,0-0.4,0.4-0.5,0.7c-0.1,0.3-0.2,0.6-0.3,0.9c-0.2,0.6-0.3,1.2-0.4,1.7
					c-0.2,1.1-0.4,2-0.5,2.7c-0.1,0.8-0.2,1.3-0.3,1.7C32.2,22.6,32.2,22.8,32.2,22.8z"/>
			</g>
		</g>
		<g>
			<path class="st3" d="M32.2,23.6c-8-6.1-7.9,6-0.2,2.9L32.2,23.6z"/>
			<g>
				<path class="st2" d="M32,26.5c0,0-0.2,0.1-0.5,0.3c-0.4,0.1-0.9,0.3-1.6,0.4c-0.7,0.1-1.6,0-2.4-0.6c-0.8-0.5-1.5-1.6-1.5-2.7
					c0-0.6,0.2-1.1,0.6-1.6c0.4-0.4,0.9-0.7,1.4-0.7c1-0.1,1.8,0.3,2.4,0.6c1.2,0.7,1.8,1.3,1.8,1.3c-0.1,0.1-0.7-0.5-2-1
					c-0.6-0.3-1.4-0.6-2.2-0.5c-0.4,0-0.8,0.2-1.1,0.6c-0.3,0.3-0.4,0.8-0.4,1.3c0,1,0.5,1.9,1.2,2.3c0.7,0.5,1.5,0.6,2.2,0.6
					C31.2,26.8,32,26.4,32,26.5z"/>
			</g>
		</g>
		<g>
			<g>
				<path class="st2" d="M42.4,39c0,0-0.3,0.3-1,0.3c-0.7,0-1.7-0.3-2.3-1.1c-0.7-0.8-0.7-1.9-0.5-2.5c0.2-0.6,0.5-1,0.5-0.9
					c0.1,0-0.1,0.4-0.2,1c-0.1,0.6,0,1.4,0.6,2.1c0.5,0.7,1.4,1,1.9,1.1C42,39.1,42.4,38.9,42.4,39z"/>
			</g>
		</g>
		<g>
			<g>
				<path class="st2" d="M46,50.4c0,0.1-1.9,0.4-4.2,0.6c-2.3,0.2-4.2,0.2-4.3,0.1c0-0.1,1.9-0.4,4.2-0.6C44.1,50.3,46,50.3,46,50.4
					z"/>
			</g>
		</g>
		<g>
			<path class="st8" d="M45.6,20.4c-2,0-3.5,1.6-3.5,3.5c0,2,1.6,3.5,3.5,3.5c2,0,3.5-1.6,3.5-3.5C49.1,22,47.5,20.4,45.6,20.4z"/>
			<g>
				<path class="st2" d="M45.6,20.4c0,0,0.3-0.1,0.9,0c0.6,0.1,1.4,0.4,2.1,1.3c0.7,0.8,1.1,2.2,0.6,3.5c-0.4,1.3-1.9,2.5-3.5,2.5
					c-1.7,0-3.1-1.2-3.5-2.5c-0.5-1.4-0.1-2.7,0.6-3.5c0.7-0.8,1.5-1.2,2.1-1.3C45.3,20.4,45.6,20.4,45.6,20.4c0,0-0.3,0-0.8,0.2
					c-0.5,0.2-1.3,0.5-1.8,1.3c-0.6,0.8-0.9,2-0.4,3.2c0.4,1.2,1.7,2.2,3.1,2.2c1.5,0,2.7-1,3.1-2.2c0.4-1.2,0.1-2.4-0.4-3.2
					c-0.6-0.8-1.3-1.1-1.8-1.3C45.9,20.5,45.6,20.5,45.6,20.4z"/>
			</g>
		</g>
		<g>
			<path class="st8" d="M39.7,20.4c-2,0-3.7,1.6-3.7,3.7s1.6,3.7,3.7,3.7c2,0,3.7-1.6,3.7-3.7S41.7,20.4,39.7,20.4z"/>
			<g>
				<path class="st2" d="M39.7,20.4c0,0,0.3-0.1,0.9,0c0.6,0.1,1.5,0.5,2.1,1.3c0.7,0.8,1.1,2.3,0.6,3.7c-0.5,1.4-1.9,2.6-3.7,2.6
					c-1.7,0-3.2-1.2-3.7-2.6c-0.5-1.4-0.1-2.8,0.6-3.7c0.7-0.9,1.6-1.2,2.1-1.3C39.3,20.4,39.7,20.4,39.7,20.4c0,0-0.3,0-0.9,0.2
					c-0.5,0.2-1.3,0.5-1.9,1.4c-0.6,0.8-0.9,2.1-0.5,3.3c0.4,1.2,1.7,2.3,3.2,2.3c1.5,0,2.8-1,3.2-2.3c0.5-1.2,0.1-2.5-0.5-3.3
					c-0.6-0.8-1.4-1.2-1.9-1.4C40,20.5,39.7,20.5,39.7,20.4z"/>
			</g>
		</g>
		<path class="st2" d="M40.6,24.7c0,0.4-0.3,0.8-0.7,0.8s-0.7-0.3-0.7-0.8s0.3-0.8,0.7-0.8S40.6,24.2,40.6,24.7z"/>
		<path class="st2" d="M45.7,24.7c0,0.4-0.3,0.8-0.7,0.8s-0.7-0.3-0.7-0.8s0.3-0.8,0.7-0.8S45.7,24.2,45.7,24.7z"/>
		<g>
			<g>
				<path class="st2" d="M41.4,18.1c0.1,0.1-1,0.7-2.4,1.2c-1.4,0.5-2.6,0.9-2.6,0.7c-0.1-0.1,1-0.7,2.4-1.2
					C40.2,18.3,41.3,18,41.4,18.1z"/>
			</g>
		</g>
		<g>
			<g>
				<path class="st2" d="M43.5,17.9c0.1-0.1,1.1,0.3,2.3,0.8c1.2,0.6,2.2,1.2,2.1,1.3c-0.1,0.1-1.1-0.3-2.3-0.8
					C44.4,18.6,43.5,18,43.5,17.9z"/>
			</g>
		</g>
	</g>
	<g>
		<g>
			<polygon class="st10" points="49.3,88.4 19,56.1 34,42.1 65.1,75.2 68.8,94 			"/>
			<polygon class="st11" points="49.3,88.4 19,56.1 26.1,50.2 57.2,83.4 68.8,94 			"/>
			<g>
				<path class="st2" d="M49.3,88.4c0,0,0.1,0,0.3,0.1c0.2,0.1,0.6,0.1,1,0.3c0.9,0.2,2.2,0.6,3.9,1.1c3.3,0.9,8.1,2.3,14,3.9
					c-1.1-5.3-2.3-11.5-3.7-18.4c-7.2-7.7-15.5-16.5-24.2-25.8c-2.3-2.4-4.5-4.8-6.7-7.1c-5.2,4.8-10.1,9.4-14.7,13.7
					c8.8,9.5,16.3,17.5,21.6,23.2c2.7,2.9,4.7,5.1,6.2,6.7c0.7,0.8,1.3,1.4,1.6,1.8c0.2,0.2,0.3,0.4,0.4,0.5
					C49.3,88.4,49.3,88.4,49.3,88.4c0,0-0.1,0-0.2-0.1c-0.1-0.1-0.2-0.2-0.4-0.4c-0.4-0.4-0.9-1-1.7-1.7c-1.5-1.5-3.6-3.8-6.3-6.6
					c-5.4-5.7-13.1-13.8-22.1-23.4c4.8-4.5,9.9-9.3,15.3-14.4c2.3,2.4,4.6,4.9,7,7.5c8.8,9.4,17.1,18.2,24.3,25.9
					c1.4,7.2,2.7,13.6,3.7,19.1C62.9,92.4,57.9,91,54.5,90c-1.7-0.5-3-0.9-3.9-1.1c-0.4-0.1-0.8-0.2-1-0.3
					C49.4,88.5,49.3,88.4,49.3,88.4z"/>
			</g>
		</g>
		<g>
			<path class="st12" d="M13.2,49.6c-8-0.1,10.9,20.1,16.1,23.3c5.2,3.2-3.6,9.6-3.5,4.6C26,72.5,9.2,57,8.4,55.8
				c-0.8-1.3-4.9-8.1,3.4-9.5L13.2,49.6z"/>
			<g>
				<path class="st2" d="M11.7,46.3c0,0-0.3,0.1-0.8,0.2c-0.3,0.1-0.6,0.1-1,0.3c-0.2,0.1-0.4,0.2-0.6,0.2c-0.2,0.1-0.4,0.2-0.6,0.4
					C7.8,48,6.8,49,6.8,50.5c-0.1,1.5,0.5,3.1,1.5,4.8c0.2,0.4,0.5,0.7,0.9,1.1c0.3,0.4,0.7,0.7,1.1,1.1c0.7,0.7,1.5,1.5,2.3,2.3
					c1.6,1.6,3.2,3.3,5,5.2c1.7,1.9,3.5,3.8,5.2,6c0.8,1.1,1.7,2.2,2.4,3.5c0.3,0.6,0.7,1.3,0.9,2c0.1,0.4,0.2,0.7,0.2,1.1
					c0,0.3,0,0.7,0.1,1c0.2,0.6,0.9,0.8,1.5,0.6c0.6-0.2,1.2-0.6,1.7-1c1-0.9,1.6-2.3,1.1-3.5c-0.2-0.6-0.7-1-1.3-1.4
					c-0.6-0.4-1.1-0.8-1.6-1.2c-1-0.8-2-1.7-2.9-2.6c-3.6-3.5-6.7-6.9-9-9.9c-2.3-3-4-5.7-4.4-7.8c-0.1-0.3,0-0.5,0-0.8
					c0.1-0.2,0.1-0.5,0.3-0.6c0.2-0.4,0.6-0.5,0.9-0.6c0.6-0.1,0.9-0.1,0.9-0.1c0,0-0.3,0-0.8,0.1c-0.3,0.1-0.6,0.2-0.8,0.5
					c-0.2,0.3-0.3,0.8-0.2,1.3c0.4,2.1,2.2,4.7,4.5,7.7c2.4,3,5.4,6.4,9,9.8c0.9,0.9,1.9,1.7,2.9,2.5c0.5,0.4,1,0.8,1.6,1.2
					c0.6,0.4,1.1,0.9,1.4,1.6c0.3,0.7,0.3,1.5,0,2.2c-0.3,0.7-0.7,1.3-1.2,1.8c-0.5,0.5-1.2,0.9-1.9,1.2c-0.4,0.1-0.8,0.2-1.2,0
					c-0.4-0.1-0.8-0.5-0.9-0.9c-0.2-0.4-0.2-0.8-0.2-1.2c0-0.3-0.1-0.7-0.2-1c-0.2-0.7-0.5-1.3-0.9-1.9c-0.7-1.2-1.5-2.3-2.3-3.4
					c-1.7-2.2-3.4-4.1-5.1-6c-1.7-1.9-3.4-3.6-4.9-5.2c-0.8-0.8-1.5-1.6-2.3-2.3c-0.4-0.4-0.7-0.7-1.1-1.1c-0.3-0.3-0.7-0.8-0.9-1.2
					c-1-1.7-1.6-3.4-1.4-5c0.1-1.6,1.1-2.7,2.1-3.2C8.8,47.2,9,47,9.2,46.9c0.2-0.1,0.4-0.2,0.6-0.2c0.4-0.2,0.7-0.2,1-0.3
					C11.4,46.3,11.7,46.3,11.7,46.3z"/>
			</g>
		</g>
		<g>
			<path class="st5" d="M73.5,98.8L73.5,98.8c-0.5,0.5-1.2,0.5-1.7,0l-2.5-2.5c-0.5-0.5-0.5-1.2,0-1.7l0,0c0.5-0.5,1.2-0.5,1.7,0
				l2.5,2.5C74,97.5,74,98.3,73.5,98.8z"/>
			<g>
				<path class="st2" d="M73.5,98.8c0,0,0.1-0.2,0.2-0.5c0.1-0.3,0-0.9-0.5-1.2c-0.5-0.5-1.1-1-1.7-1.6c-0.2-0.2-0.3-0.3-0.5-0.5
					c-0.2-0.2-0.3-0.3-0.5-0.4c-0.2-0.1-0.4-0.1-0.6-0.1c-0.1,0-0.2,0-0.3,0.1c0,0-0.1,0-0.1,0.1c0,0,0,0-0.1,0l0,0l0,0l0,0l0,0l0,0
					c-0.1-0.1,0.2,0.2-0.2-0.2c0.4,0.4,0.1,0.1,0.2,0.2l0,0l0,0l0,0l0,0l0,0c0,0,0,0,0,0.1c0,0-0.1,0.1-0.1,0.1
					c0,0.1-0.1,0.2-0.1,0.3c0,0.2,0,0.4,0.1,0.6c0.1,0.2,0.2,0.3,0.4,0.5c0.2,0.2,0.3,0.3,0.5,0.5c0.6,0.6,1.2,1.2,1.6,1.7
					c0.4,0.5,0.9,0.6,1.2,0.5C73.3,98.9,73.5,98.7,73.5,98.8c0,0-0.1,0.2-0.5,0.4c-0.2,0.1-0.4,0.1-0.7,0.1c-0.3,0-0.6-0.3-0.8-0.5
					c-0.5-0.5-1.1-1-1.7-1.6c-0.2-0.2-0.3-0.3-0.5-0.5c-0.1-0.2-0.4-0.3-0.5-0.6c-0.1-0.3-0.2-0.6-0.1-0.9c0-0.1,0.1-0.3,0.1-0.4
					c0-0.1,0.1-0.1,0.1-0.2c0,0,0-0.1,0.1-0.1l0,0l0,0l0,0l0,0l0,0c0.1,0.1-0.2-0.2,0.2,0.2c-0.4-0.4-0.1-0.1-0.2-0.2l0,0l0,0l0,0
					l0,0l0,0c0,0,0.1,0,0.1-0.1c0.1,0,0.1-0.1,0.2-0.1c0.1-0.1,0.3-0.1,0.4-0.1c0.3,0,0.6,0,0.9,0.1c0.3,0.1,0.5,0.4,0.6,0.5
					c0.2,0.2,0.3,0.3,0.5,0.5c0.6,0.6,1.2,1.2,1.6,1.7c0.2,0.2,0.5,0.5,0.5,0.8c0.1,0.3,0,0.5-0.1,0.7
					C73.7,98.7,73.5,98.8,73.5,98.8z"/>
			</g>
		</g>
		<g>
			<polygon class="st12" points="49.3,88.4 70.5,97.4 72.3,95.9 65.1,75.2 			"/>
			<polygon class="st10" points="56.3,82.3 71.3,97.1 70.3,97.3 49.3,88.4 			"/>
			<g>
				<path class="st2" d="M49.3,88.4c0,0,0.1-0.1,0.3-0.3c0.2-0.2,0.5-0.4,0.8-0.8c0.7-0.6,1.8-1.6,3.2-2.8c2.8-2.4,6.8-5.8,11.6-9.8
					c1.4,4,2.9,8.3,4.6,12.9c1,2.9,2,5.7,2.9,8.2c-0.8,0.6-1.4,1.2-2.1,1.7c-6.2-2.7-11.6-5-15.3-6.6c-1.9-0.8-3.4-1.5-4.4-1.9
					c-0.5-0.2-0.9-0.4-1.2-0.5C49.4,88.5,49.3,88.5,49.3,88.4c0,0,0.1,0,0.4,0.1c0.3,0.1,0.7,0.3,1.2,0.5c1,0.4,2.5,1,4.4,1.8
					c3.7,1.6,9,3.8,15.1,6.3c0.5-0.4,1-0.8,1.6-1.3c-0.9-2.4-1.8-5.1-2.8-7.9c-1.5-4.4-3-8.5-4.3-12.3c-4.6,3.8-8.4,7-11.2,9.2
					c-1.4,1.1-2.5,2.1-3.3,2.7c-0.4,0.3-0.7,0.5-0.9,0.7C49.4,88.4,49.3,88.4,49.3,88.4z"/>
			</g>
		</g>
		<g>
			<path class="st4" d="M18.5,52.1L1.7,34.9c-1-1.1-1-2.8,0.1-3.9l7.9-7.4c1.1-1,2.8-1,3.9,0.1L30.3,41L18.5,52.1z"/>
			<g>
				<path class="st2" d="M18.5,52.1c0,0,0.1-0.1,0.2-0.2c0.1-0.1,0.3-0.3,0.6-0.6c0.5-0.5,1.3-1.3,2.3-2.3c2-1.9,4.9-4.7,8.4-8
					c-2.4-2.5-5.2-5.3-8.1-8.3c-1.5-1.5-3.1-3.1-4.7-4.8c-0.8-0.8-1.6-1.7-2.4-2.5c-0.4-0.4-0.8-0.8-1.2-1.3
					c-0.4-0.4-0.8-0.8-1.4-0.9c-0.6-0.2-1.3-0.1-1.9,0.3c-0.3,0.2-0.5,0.4-0.8,0.7l-0.8,0.7c-1,1-2,1.9-3,2.8c-1,0.9-2,1.8-2.9,2.7
					c-0.5,0.5-1,0.9-1.3,1.4c-0.3,0.5-0.4,1.1-0.3,1.7c0.1,0.6,0.4,1,0.9,1.5c0.4,0.4,0.8,0.9,1.3,1.3c0.8,0.9,1.6,1.7,2.4,2.5
					c1.5,1.6,3,3.1,4.3,4.5c2.6,2.7,4.7,4.9,6.2,6.5c0.7,0.8,1.3,1.4,1.7,1.8C18.3,51.8,18.5,52.1,18.5,52.1c0,0-0.2-0.2-0.6-0.6
					c-0.4-0.4-1-1-1.7-1.7c-1.5-1.5-3.6-3.7-6.3-6.4C8.5,42.1,7,40.6,5.5,39c-0.8-0.8-1.6-1.6-2.4-2.5c-0.4-0.4-0.8-0.9-1.3-1.3
					c-0.4-0.4-0.9-1-1-1.7c-0.1-0.7,0-1.4,0.3-2c0.2-0.3,0.4-0.6,0.6-0.8l0.7-0.7c1-0.9,1.9-1.8,2.9-2.7c1-0.9,2-1.9,3-2.8l0.8-0.7
					c0.3-0.2,0.5-0.5,0.9-0.7c0.7-0.4,1.5-0.5,2.3-0.3c0.6,0.1,1.2,0.6,1.6,1c0.4,0.4,0.8,0.9,1.2,1.3c0.8,0.8,1.6,1.7,2.4,2.5
					c1.6,1.7,3.2,3.3,4.7,4.8c3,3.2,5.9,6.1,8.4,8.6c-3.7,3.4-6.7,6.2-8.8,8.2c-1,0.9-1.9,1.7-2.4,2.2c-0.3,0.2-0.5,0.4-0.6,0.6
					C18.6,52,18.5,52.1,18.5,52.1z"/>
			</g>
		</g>
		<g>
			
				<rect x="10.1" y="36.8" transform="matrix(0.7291 -0.6844 0.6844 0.7291 -23.6725 25.1992)" class="st10" width="19.7" height="11.4"/>
			<polygon class="st11" points="8.9,45.1 16.7,53.4 23.2,47.2 15.4,38.9 			"/>
			<g>
				<path class="st2" d="M8.9,45.1c0,0,0.1-0.1,0.2-0.3c0.2-0.2,0.4-0.4,0.8-0.8c0.7-0.7,1.7-1.6,2.9-2.8c2.6-2.4,6.2-5.9,10.5-9.9
					c2.5,2.7,5.3,5.6,8.2,8.7c-5.6,5.2-10.7,10-14.7,13.8c-2.4-2.6-4.4-4.8-5.8-6.3c-0.7-0.7-1.2-1.3-1.5-1.7
					C9.1,45.3,8.9,45.1,8.9,45.1c0,0,0.2,0.2,0.6,0.5c0.4,0.4,0.9,0.9,1.6,1.6c1.3,1.4,3.3,3.4,5.6,5.9c3.8-3.6,8.7-8.2,14-13.2
					c-2.6-2.8-5.2-5.5-7.5-8c-4.2,3.9-7.7,7.2-10.2,9.5c-1.3,1.2-2.3,2.1-3,2.7c-0.4,0.3-0.6,0.6-0.8,0.7C9,45,8.9,45.1,8.9,45.1z"
					/>
			</g>
		</g>
		<g>
			
				<rect x="13.3" y="44" transform="matrix(0.7291 -0.6844 0.6844 0.7291 -25.5226 29.6297)" class="st5" width="22.7" height="6.1"/>
			
				<rect x="15.2" y="48.7" transform="matrix(0.7291 -0.6844 0.6844 0.7291 -30.1051 27.4678)" class="st13" width="9" height="6.1"/>
			<g>
				<path class="st2" d="M14.3,52.6c0,0,0.1-0.1,0.3-0.3c0.2-0.2,0.5-0.5,0.9-0.9c0.8-0.8,2-1.9,3.4-3.3c3-2.8,7.2-6.8,12-11.3
					c1.4,1.5,3,3.1,4.5,4.8c-3.4,3.2-6.7,6.3-9.6,9c-2.9,2.7-5.4,5-7.4,6.8c-1.3-1.5-2.4-2.6-3.1-3.4c-0.3-0.4-0.6-0.7-0.8-0.9
					C14.4,52.7,14.3,52.6,14.3,52.6c0,0,0.1,0.1,0.3,0.3c0.2,0.2,0.5,0.5,0.8,0.8c0.7,0.7,1.7,1.8,3,3.1c1.9-1.8,4.3-4.1,7-6.7
					c2.8-2.6,5.9-5.5,9.2-8.7c-1.3-1.4-2.6-2.8-3.8-4.1c-4.7,4.4-8.8,8.2-11.7,10.9c-1.5,1.4-2.7,2.5-3.5,3.2
					c-0.4,0.4-0.7,0.7-1,0.8C14.4,52.5,14.3,52.6,14.3,52.6z"/>
			</g>
		</g>
		<g>
			<g>
				<path class="st2" d="M35.1,66.8c0.1-0.1,4.3,3.9,9.3,9c5,5,9,9.2,9,9.3c-0.1,0.1-4.3-3.9-9.3-9C39,71,35,66.9,35.1,66.8z"/>
			</g>
		</g>
	</g>
	<g>
		<path class="st3" d="M58.5,69c1.4-1.4,3.1-2.1,4-0.5c0.9,1.5-2.3,3.1-2.7,3.3C59.1,72.2,56.1,71.6,58.5,69z"/>
		<g>
			<path class="st2" d="M58.5,69c0,0-0.1,0.2-0.3,0.5c-0.2,0.3-0.5,0.8-0.5,1.3c0,0.6,0.8,0.9,1.6,0.9c0.1,0,0.2,0,0.3,0
				c0.1,0,0.1-0.1,0.3-0.1c0.2-0.1,0.4-0.2,0.6-0.3c0.4-0.2,0.8-0.5,1.1-0.8c0.4-0.3,0.7-0.7,0.8-1c0.1-0.4,0-0.7-0.2-1
				c-0.5-0.6-1.3-0.6-1.8-0.4C59.1,68.4,58.6,69.1,58.5,69c0,0,0.1-0.2,0.3-0.5c0.3-0.3,0.7-0.6,1.3-0.9c0.3-0.1,0.7-0.3,1.1-0.2
				c0.4,0,0.9,0.3,1.2,0.6c0.3,0.3,0.6,0.9,0.4,1.5c-0.2,0.5-0.5,0.9-0.9,1.3c-0.4,0.3-0.8,0.6-1.2,0.9c-0.2,0.1-0.4,0.2-0.6,0.3
				c-0.1,0-0.2,0.1-0.4,0.2c-0.1,0-0.3,0.1-0.4,0.1c-0.5,0-0.9-0.1-1.3-0.3c-0.4-0.2-0.6-0.6-0.6-1c0-0.8,0.5-1.2,0.7-1.5
				C58.4,69.1,58.5,68.9,58.5,69z"/>
		</g>
	</g>
	<g>
		<path class="st3" d="M60.2,71.8c1.3-1.4,2.9-1.9,3.7-0.4c0.8,1.5-2.1,2.9-2.5,3.1C60.8,74.9,57.9,74.2,60.2,71.8z"/>
		<g>
			<path class="st2" d="M60.2,71.8c0,0-0.1,0.2-0.3,0.5c-0.2,0.3-0.5,0.7-0.4,1.2c0,0.5,0.7,0.9,1.5,0.8c0.1,0,0.2,0,0.3,0
				c0.1,0,0.1,0,0.2-0.1c0.2-0.1,0.4-0.2,0.6-0.3c0.4-0.2,0.7-0.5,1.1-0.8c0.3-0.3,0.6-0.6,0.7-1c0.1-0.3,0-0.7-0.2-1
				c-0.4-0.6-1.2-0.6-1.7-0.4C60.8,71.2,60.3,71.9,60.2,71.8c0,0,0.1-0.2,0.3-0.4c0.2-0.2,0.6-0.6,1.2-0.9c0.3-0.1,0.7-0.2,1.1-0.2
				c0.4,0,0.8,0.3,1.1,0.6c0.3,0.3,0.5,0.9,0.4,1.4c-0.2,0.5-0.5,0.9-0.9,1.2c-0.4,0.3-0.8,0.6-1.1,0.8c-0.2,0.1-0.4,0.2-0.6,0.3
				c-0.1,0-0.2,0.1-0.3,0.1c-0.1,0-0.2,0-0.4,0c-0.5,0-0.9-0.1-1.2-0.3c-0.4-0.2-0.6-0.6-0.6-1c0-0.7,0.4-1.1,0.6-1.4
				C60,71.9,60.2,71.8,60.2,71.8z"/>
		</g>
	</g>
	<g>
		<path class="st3" d="M56.3,66.9c1.3-1.4,2.9-1.9,3.7-0.4c0.8,1.5-2.1,2.9-2.5,3.1C56.9,70,54,69.4,56.3,66.9z"/>
		<g>
			<path class="st2" d="M56.3,66.9c0,0-0.1,0.2-0.3,0.5c-0.2,0.3-0.5,0.7-0.4,1.2c0,0.5,0.7,0.9,1.5,0.8c0.1,0,0.2,0,0.3,0
				c0.1,0,0.1,0,0.2-0.1c0.2-0.1,0.4-0.2,0.6-0.3c0.4-0.2,0.7-0.5,1.1-0.8c0.3-0.3,0.6-0.6,0.7-1c0.1-0.3,0-0.7-0.2-1
				c-0.4-0.6-1.2-0.6-1.7-0.4C56.9,66.3,56.4,67,56.3,66.9c0,0,0.1-0.2,0.3-0.4c0.2-0.2,0.6-0.6,1.2-0.9c0.3-0.1,0.7-0.2,1.1-0.2
				c0.4,0,0.8,0.3,1.1,0.6c0.3,0.3,0.5,0.9,0.4,1.4c-0.2,0.5-0.5,0.9-0.9,1.2c-0.4,0.3-0.8,0.6-1.1,0.8c-0.2,0.1-0.4,0.2-0.6,0.3
				c-0.1,0-0.2,0.1-0.3,0.1c-0.1,0-0.2,0-0.4,0c-0.5,0-0.9-0.1-1.2-0.3c-0.4-0.2-0.6-0.6-0.6-1c0-0.7,0.4-1.1,0.6-1.4
				C56.1,67,56.3,66.9,56.3,66.9z"/>
		</g>
	</g>
	<g>
		<g>
			<path class="st3" d="M25.2,69.3c0,0-3.9,7.8-8.5,3.5c-2.1-2,0.5-5.6,2.7-8c0.3-0.3,0.5-2.6,1-3.9c0.5-1.3-0.9-2.2,0.1-2.7
				c2.1-1.2,3.1,3.1,3.1,3.1L25.2,69.3z"/>
			<g>
				<path class="st2" d="M23.4,61.2c0,0-0.2-0.4-0.5-1.2c-0.2-0.4-0.4-0.8-0.7-1.3c-0.3-0.4-0.9-0.9-1.5-0.6
					c-0.3,0.1-0.6,0.3-0.5,0.6c0.1,0.3,0.3,0.7,0.4,1.2c0.1,0.5-0.1,1-0.2,1.4c-0.1,0.4-0.2,0.9-0.3,1.4c-0.1,0.5-0.2,1-0.3,1.5
					c-0.1,0.3-0.1,0.5-0.3,0.8c-0.2,0.2-0.3,0.4-0.5,0.6c-0.7,0.8-1.3,1.6-1.9,2.6c-0.6,0.9-1,1.9-1,2.9c0,0.5,0.2,0.9,0.5,1.3
					l0.2,0.3l0.3,0.2c0.2,0.1,0.4,0.3,0.6,0.4c0.8,0.5,1.7,0.7,2.5,0.5c0.8-0.1,1.5-0.5,2.1-1c1.1-0.9,1.8-1.8,2.3-2.5
					c0.5-0.7,0.7-1.1,0.7-1c0,0-0.1,0.4-0.6,1.1c-0.4,0.7-1.1,1.7-2.3,2.7c-0.6,0.5-1.3,0.9-2.2,1.1c-0.9,0.2-1.9-0.1-2.8-0.6
					c-0.2-0.2-0.4-0.3-0.6-0.5l-0.3-0.2l-0.3-0.3c-0.3-0.4-0.6-1-0.6-1.6c0-1.1,0.5-2.2,1-3.2c0.6-1,1.3-1.8,2-2.6
					c0.2-0.2,0.4-0.4,0.5-0.6c0.1-0.1,0.2-0.4,0.2-0.6c0.1-0.5,0.2-1,0.3-1.4c0.1-0.5,0.2-0.9,0.3-1.4c0.2-0.5,0.3-0.8,0.2-1.2
					c0-0.4-0.2-0.7-0.3-1.2c-0.1-0.2,0-0.5,0.2-0.7c0.2-0.2,0.4-0.2,0.6-0.3c0.4-0.1,0.8-0.1,1.1,0.1c0.3,0.2,0.5,0.4,0.7,0.7
					c0.3,0.5,0.5,1,0.7,1.4C23.4,60.7,23.5,61.1,23.4,61.2z"/>
			</g>
		</g>
		<g>
			<path class="st3" d="M22.3,71.9l1.8-2.4c4.1-1,5.3-3.4,5.6-4.4c0.3-1-0.8-1.7-0.8-1.7l-11.1,5.2L22.3,71.9z"/>
			<g>
				<path class="st14" d="M22.3,71.9c-0.1,0,0.3-0.6,0.9-1.6c0.2-0.2,0.3-0.5,0.5-0.8l0.1-0.1c0,0,0.1-0.1,0.1-0.2l0.3-0.1
					c0.2-0.1,0.3-0.1,0.5-0.2c0.7-0.2,1.4-0.6,2.1-1c1.4-0.9,2.3-2.2,2.6-3.2c0.1-0.5-0.2-0.9-0.4-1.1c-0.2-0.2-0.3-0.4-0.3-0.4
					c0,0,0.2,0,0.4,0.2c0.2,0.2,0.6,0.6,0.6,1.3c-0.2,1.2-1.1,2.6-2.7,3.6c-0.8,0.5-1.5,0.8-2.3,1c-0.2,0-0.4,0.1-0.5,0.1
					c-0.1,0-0.2,0.1-0.2,0c0,0,0,0,0,0l-0.1,0.1c-0.2,0.3-0.4,0.5-0.6,0.7C22.8,71.4,22.3,72,22.3,71.9z"/>
			</g>
		</g>
		<g>
			<path class="st3" d="M23.4,64.7c1.6-1.3,3.6-2.5,4-3.3c0.3-0.7,3.3-0.4,0.4,3.9c-0.2,0.3-1.2,1.2-2.9,2.1L23.4,64.7z"/>
			<g>
				<path class="st2" d="M24.8,67.3c0-0.1,0.7-0.4,1.7-1.2c0.3-0.2,0.5-0.4,0.8-0.7c0.3-0.2,0.4-0.6,0.7-1c0.4-0.7,0.9-1.6,0.7-2.5
					c-0.1-0.4-0.4-0.6-0.8-0.6c-0.1,0-0.2,0-0.2,0.1c0,0-0.1,0-0.1,0.1c0,0,0,0-0.1,0.1c-0.1,0.2-0.3,0.4-0.5,0.6
					c-0.7,0.6-1.3,1-1.9,1.4c-1.1,0.7-1.8,1.2-1.8,1.1c0-0.1,0.6-0.6,1.6-1.4c0.5-0.4,1.2-0.9,1.8-1.4c0.1-0.1,0.3-0.3,0.4-0.5
					c0,0,0.1-0.1,0.1-0.2c0.1-0.1,0.1-0.1,0.2-0.2c0.1-0.1,0.3-0.1,0.4-0.1c0.3,0,0.6,0,0.9,0.2c0.2,0.2,0.4,0.5,0.5,0.7
					c0.2,1.2-0.4,2.1-0.8,2.8c-0.1,0.2-0.2,0.4-0.4,0.5c-0.1,0.2-0.3,0.4-0.4,0.5c-0.3,0.3-0.6,0.5-0.9,0.7
					C25.6,67.1,24.8,67.4,24.8,67.3z"/>
			</g>
		</g>
		<g>
			<path class="st3" d="M23.4,64.7c0.5-0.2,1.9-1.2,2.5-1.6c3.4-2.6,0.9-3.6,0.2-3.2c-0.4,0.2-3.5,1.2-4.5,2.6L23.4,64.7z"/>
			<g>
				<path class="st2" d="M21.7,62.4c-0.1,0,0.3-0.7,1.4-1.4c0.5-0.3,1.2-0.7,1.9-1c0.4-0.2,0.8-0.3,1.2-0.5c0.6-0.2,1.1,0,1.5,0.4
					c0.2,0.2,0.3,0.5,0.3,0.8c0,0.3-0.1,0.5-0.2,0.7c-0.2,0.4-0.5,0.7-0.8,1c-0.6,0.6-1.2,1-1.7,1.3c-1,0.7-1.7,1-1.7,0.9
					c0,0,0.6-0.4,1.5-1.2c0.5-0.4,1-0.8,1.6-1.3c0.3-0.3,0.5-0.6,0.7-0.9c0.2-0.3,0.2-0.7,0-1c-0.2-0.2-0.7-0.4-1-0.3
					c-0.4,0.2-0.8,0.3-1.2,0.4c-0.7,0.3-1.4,0.6-1.9,0.8C22.2,61.9,21.7,62.5,21.7,62.4z"/>
			</g>
		</g>
	</g>
</g>
<g>
	<g>
		<g>
			<path class="st5" d="M33,46.7c0.2,0.2,0.7,0.6,1.1,1c0.5,0.5,0.7,0.8,0.8,1.2c0.1,0.4,0.1,0.8-0.3,1.2c-0.3,0.3-0.7,0.4-1.3,0.1
				l0,0c0.3,0.5,0.2,1.1-0.2,1.5c-0.3,0.3-0.7,0.4-1.1,0.3c-0.4-0.1-1-0.4-1.7-1.2c-0.4-0.4-0.7-0.8-0.8-1L33,46.7z M31.1,50.3
				c0.1,0.1,0.1,0.2,0.2,0.3c0.3,0.3,0.7,0.5,1,0.2c0.3-0.3,0.2-0.7-0.2-1l-0.2-0.2L31.1,50.3z M32.5,48.9l0.2,0.2
				c0.4,0.4,0.7,0.5,0.9,0.2c0.2-0.2,0.2-0.5-0.1-0.8c-0.1-0.2-0.2-0.2-0.3-0.3L32.5,48.9z"/>
			<path class="st5" d="M33.3,53.9l1.4-1.3l1-3.1l1,1.1l-0.5,1c-0.2,0.3-0.3,0.6-0.4,0.8l0,0c0.3-0.1,0.5-0.2,0.9-0.4l1.1-0.5l1,1.1
				l-3.1,0.8l-1.4,1.4L33.3,53.9z"/>
			<path class="st5" d="M38.8,54.3l-0.8-0.9l0.8-0.7l2.6,2.7l-0.8,0.7l-0.9-0.9L37,57.8l-0.9-0.9L38.8,54.3z"/>
			<path class="st5" d="M41.6,59.9l-1.2-1.3l-0.6,0.6l1.3,1.4l-0.8,0.7L38.1,59l3.5-3.3l2.2,2.3L43,58.7l-1.3-1.3l-0.6,0.5l1.2,1.3
				L41.6,59.9z"/>
			<path class="st5" d="M41.7,60.9c0.1,0.3,0.3,0.8,0.6,1.1c0.3,0.3,0.6,0.4,0.7,0.2c0.2-0.2,0.1-0.4-0.1-0.9
				c-0.3-0.8-0.4-1.5,0.1-2c0.6-0.6,1.6-0.5,2.4,0.4c0.4,0.4,0.6,0.8,0.7,1.1l-0.9,0.5c-0.1-0.2-0.2-0.6-0.6-0.9
				c-0.3-0.3-0.5-0.3-0.7-0.2c-0.2,0.2-0.1,0.4,0.2,1c0.4,0.8,0.3,1.5-0.2,1.9c-0.6,0.6-1.6,0.6-2.5-0.4c-0.4-0.4-0.7-0.9-0.8-1.2
				L41.7,60.9z"/>
			<path class="st5" d="M46.8,65.3l-1.2-1.3l-0.6,0.6l1.3,1.4l-0.8,0.7l-2.2-2.3l3.5-3.3l2.2,2.3l-0.8,0.7l-1.3-1.3l-0.6,0.5
				l1.2,1.3L46.8,65.3z"/>
			<path class="st5" d="M49.3,63.9c0.3,0.2,0.7,0.6,1.1,1.1c0.5,0.5,0.8,1,0.9,1.4c0,0.4-0.1,0.7-0.4,1.1c-0.4,0.4-1.1,0.4-1.4,0.2
				l0,0c0.1,0.3,0,0.7-0.2,1c-0.3,0.4-0.7,1-0.7,1.2l-0.9-1c0.1-0.1,0.2-0.5,0.6-1c0.3-0.5,0.3-0.7,0-1L48,66.9l-1.3,1.2l-0.9-0.9
				L49.3,63.9z M48.7,66.2l0.2,0.2c0.3,0.4,0.7,0.4,1,0.1c0.3-0.2,0.2-0.6,0-0.9c-0.2-0.2-0.3-0.3-0.3-0.3L48.7,66.2z"/>
			<path class="st5" d="M52.2,66.9l0.9,0.9l-1.5,1.4l0,0c0.2-0.1,0.4-0.1,0.6-0.1l1.7-0.4l1.1,1.2l-2.5,0.3l-0.9,3.1l-1-1.1l0.7-2.1
				l-0.6,0.1l-1.1,1l-0.9-0.9L52.2,66.9z"/>
			<path class="st5" d="M55.3,74.3l-1.2-1.3l-0.6,0.6l1.3,1.4L54,75.8l-2.2-2.3l3.5-3.3l2.2,2.3l-0.8,0.7l-1.3-1.3l-0.6,0.5l1.2,1.3
				L55.3,74.3z"/>
			<path class="st5" d="M57.8,72.9c0.3,0.2,0.7,0.6,1.1,1.1c0.5,0.5,0.8,1,0.9,1.4c0,0.4-0.1,0.7-0.4,1.1c-0.4,0.4-1.1,0.4-1.4,0.2
				l0,0c0.1,0.3,0,0.7-0.2,1c-0.3,0.4-0.7,1-0.7,1.2l-0.9-1c0.1-0.2,0.2-0.5,0.6-1c0.3-0.5,0.3-0.7,0-1l-0.1-0.2l-1.3,1.2l-0.9-0.9
				L57.8,72.9z M57.2,75.2l0.2,0.2c0.3,0.4,0.7,0.4,1,0.1c0.3-0.2,0.2-0.6,0-0.9c-0.2-0.2-0.3-0.3-0.3-0.3L57.2,75.2z"/>
		</g>
	</g>
	<g>
		<g>
			<path class="st5" d="M33,46.7c0.2,0.2,0.7,0.6,1.1,1c0.5,0.5,0.7,0.8,0.8,1.2c0.1,0.4,0.1,0.8-0.3,1.2c-0.3,0.3-0.7,0.4-1.3,0.1
				l0,0c0.3,0.5,0.2,1.1-0.2,1.5c-0.3,0.3-0.7,0.4-1.1,0.3c-0.4-0.1-1-0.4-1.7-1.2c-0.4-0.4-0.7-0.8-0.8-1L33,46.7z M31.1,50.3
				c0.1,0.1,0.1,0.2,0.2,0.3c0.3,0.3,0.7,0.5,1,0.2c0.3-0.3,0.2-0.7-0.2-1l-0.2-0.2L31.1,50.3z M32.5,48.9l0.2,0.2
				c0.4,0.4,0.7,0.5,0.9,0.2c0.2-0.2,0.2-0.5-0.1-0.8c-0.1-0.2-0.2-0.2-0.3-0.3L32.5,48.9z"/>
			<path class="st5" d="M33.3,53.9l1.4-1.3l1-3.1l1,1.1l-0.5,1c-0.2,0.3-0.3,0.6-0.4,0.8l0,0c0.3-0.1,0.5-0.2,0.9-0.4l1.1-0.5l1,1.1
				l-3.1,0.8l-1.4,1.4L33.3,53.9z"/>
			<path class="st5" d="M38.8,54.3l-0.8-0.9l0.8-0.7l2.6,2.7l-0.8,0.7l-0.9-0.9L37,57.8l-0.9-0.9L38.8,54.3z"/>
			<path class="st5" d="M41.6,59.9l-1.2-1.3l-0.6,0.6l1.3,1.4l-0.8,0.7L38.1,59l3.5-3.3l2.2,2.3L43,58.7l-1.3-1.3l-0.6,0.5l1.2,1.3
				L41.6,59.9z"/>
			<path class="st5" d="M41.7,60.9c0.1,0.3,0.3,0.8,0.6,1.1c0.3,0.3,0.6,0.4,0.7,0.2c0.2-0.2,0.1-0.4-0.1-0.9
				c-0.3-0.8-0.4-1.5,0.1-2c0.6-0.6,1.6-0.5,2.4,0.4c0.4,0.4,0.6,0.8,0.7,1.1l-0.9,0.5c-0.1-0.2-0.2-0.6-0.6-0.9
				c-0.3-0.3-0.5-0.3-0.7-0.2c-0.2,0.2-0.1,0.4,0.2,1c0.4,0.8,0.3,1.5-0.2,1.9c-0.6,0.6-1.6,0.6-2.5-0.4c-0.4-0.4-0.7-0.9-0.8-1.2
				L41.7,60.9z"/>
			<path class="st5" d="M46.8,65.3l-1.2-1.3l-0.6,0.6l1.3,1.4l-0.8,0.7l-2.2-2.3l3.5-3.3l2.2,2.3l-0.8,0.7l-1.3-1.3l-0.6,0.5
				l1.2,1.3L46.8,65.3z"/>
			<path class="st5" d="M49.3,63.9c0.3,0.2,0.7,0.6,1.1,1.1c0.5,0.5,0.8,1,0.9,1.4c0,0.4-0.1,0.7-0.4,1.1c-0.4,0.4-1.1,0.4-1.4,0.2
				l0,0c0.1,0.3,0,0.7-0.2,1c-0.3,0.4-0.7,1-0.7,1.2l-0.9-1c0.1-0.1,0.2-0.5,0.6-1c0.3-0.5,0.3-0.7,0-1L48,66.9l-1.3,1.2l-0.9-0.9
				L49.3,63.9z M48.7,66.2l0.2,0.2c0.3,0.4,0.7,0.4,1,0.1c0.3-0.2,0.2-0.6,0-0.9c-0.2-0.2-0.3-0.3-0.3-0.3L48.7,66.2z"/>
			<path class="st5" d="M52.2,66.9l0.9,0.9l-1.5,1.4l0,0c0.2-0.1,0.4-0.1,0.6-0.1l1.7-0.4l1.1,1.2l-2.5,0.3l-0.9,3.1l-1-1.1l0.7-2.1
				l-0.6,0.1l-1.1,1l-0.9-0.9L52.2,66.9z"/>
			<path class="st5" d="M55.3,74.3l-1.2-1.3l-0.6,0.6l1.3,1.4L54,75.8l-2.2-2.3l3.5-3.3l2.2,2.3l-0.8,0.7l-1.3-1.3l-0.6,0.5l1.2,1.3
				L55.3,74.3z"/>
			<path class="st5" d="M57.8,72.9c0.3,0.2,0.7,0.6,1.1,1.1c0.5,0.5,0.8,1,0.9,1.4c0,0.4-0.1,0.7-0.4,1.1c-0.4,0.4-1.1,0.4-1.4,0.2
				l0,0c0.1,0.3,0,0.7-0.2,1c-0.3,0.4-0.7,1-0.7,1.2l-0.9-1c0.1-0.2,0.2-0.5,0.6-1c0.3-0.5,0.3-0.7,0-1l-0.1-0.2l-1.3,1.2l-0.9-0.9
				L57.8,72.9z M57.2,75.2l0.2,0.2c0.3,0.4,0.7,0.4,1,0.1c0.3-0.2,0.2-0.6,0-0.9c-0.2-0.2-0.3-0.3-0.3-0.3L57.2,75.2z"/>
		</g>
	</g>
</g>
</svg>
