<svg id="Layer_1" data-name="Layer 1" xmlns="http://www.w3.org/2000/svg" viewBox="0 0 70 59.5"><defs><style>.cls-1{fill:#fdc305;}.cls-2{fill:#f06351;}.cls-3{fill:#e55645;}.cls-4{fill:#111;}</style></defs><title>cat-en-logo</title><path class="cls-1" d="M59.8,24A25.62,25.62,0,1,0,32.4,59.2c-.6-2.1-1.2-4.4-1.7-6.9a36.69,36.69,0,0,0,4.8,2.6s.1,2.2.3,4.6a23.25,23.25,0,0,0,5.3-.5v-.8c.3-1.9,1.1-5.2,1.2-7.4a17.57,17.57,0,0,0,2.9-3.7.6.6,0,0,1-.1.4c-.6,4.3-1.7,8.8-2.4,10.1a5,5,0,0,1-.8,1.2A32.38,32.38,0,0,0,46,57.5,25.66,25.66,0,0,0,59.8,24Zm-1.5,3.8c-.4.4-1.3.7-1.5-.6a16,16,0,0,1-.2-2.2s-1.9-3.4-2.7-3.5-5.8,3.5-7.2,5c-1.2,1.3-1.4,1.2-1.4,3.5,0,1.7.2,8.2.1,13.1l-8.1,2.2a67.45,67.45,0,0,1-7.8,1.8l-1-5.8L25.8,28s-3.8-1.4-5.2-1.8-2.3-.7-4,.6a5,5,0,0,0-1.7,3.9s.4,1,.5,1.4-1.2.4-2,.4-.9-1.4-.3-3.1A21.34,21.34,0,0,1,15,25.7a10.9,10.9,0,0,1,2.1-2.9s.1-.3,1.3-.2,7.3.4,7.3.4l.1-2.3A137,137,0,0,1,46,19.4a10.87,10.87,0,0,1-.1,1.8,23.64,23.64,0,0,1,8.1-2,1.24,1.24,0,0,1,.8.4c.3.4,2.4,3,2.7,3.4a32.52,32.52,0,0,1,1.8,3C59.2,26,58.7,27.3,58.3,27.8Z"/><path class="cls-2" d="M56.4,21.7a11.46,11.46,0,0,1,1,1.3,32.52,32.52,0,0,1,1.8,3,5.71,5.71,0,0,1-.9,1.8c-.5.5-1.3.7-1.5-.6a16,16,0,0,1-.2-2.2s-1.9-3.4-2.7-3.5-5.8,3.5-7.2,5c-1.2,1.3-1.4,1.2-1.4,3.5,0,1.5.2,6.6.1,11.2,1.8.2,4.5.7,5.3,1.9,0,0-.3-7.2,7.8-3.4,0,0,.3-9.8,11.5-7.3A41.36,41.36,0,0,0,56.4,21.7ZM45.8,19.4A95.5,95.5,0,0,0,44.4,2.9s-.1-1.3-.9-.2a15.64,15.64,0,0,0-1.2,4,62.23,62.23,0,0,0-12.8.2c-.8-2.7-2.2-4-2.9-3.7s-.7,3.3-.7,3.3l-.3,14.2A137,137,0,0,1,45.8,19.4Z"/><path class="cls-3" d="M45.3,47.1c.1-1.1.2-2.5.2-4.1l-8.1,2.2A67.45,67.45,0,0,1,29.6,47l1.1,5a.37.37,0,0,0,.1.3,36.69,36.69,0,0,0,4.8,2.6,47.7,47.7,0,0,0,6.9-4.1v.1A22,22,0,0,0,45.3,47.1Z"/><path d="M31.9,16.2c0-.1,1,.7,1.4.9s.6.4.6.6-.3.3-.6.3-.9-.1-1-.3h1.2A9.24,9.24,0,0,1,31.9,16.2Zm7.5.1-1.1,1.3c0,.1-.2.3.2.3a3,3,0,0,0,1.2-.3c.1-.1.1-.2-.1-.2a3.75,3.75,0,0,0-1,.1l.8-1.2C39.5,16.3,39.5,16.2,39.4,16.3Zm-3.1,6.1a2.79,2.79,0,0,0,1.1-1c.3-.7,0-.9-.4-1a2.59,2.59,0,0,0-1.7.3.68.68,0,0,0-.1,1A1.9,1.9,0,0,0,36.3,22.4Z"/><path class="cls-2" d="M35.8,23.7a1.79,1.79,0,0,1-.5.6,1.53,1.53,0,0,1-1,.4,3.31,3.31,0,0,1-1.5-.4,2.18,2.18,0,0,1-.5-.4,1.73,1.73,0,0,0-.4-.3s.8,4.1,2.6,4.8,2.2-.8,2.2-1.1a6,6,0,0,0-.8-3.2C36,23.6,35.9,23.8,35.8,23.7Z"/><path d="M34.2,24.8c-1.3,0-2.3-1.4-2.4-1.4v-.2H32s1,1.3,2.1,1.3a1.94,1.94,0,0,0,1.6-1l.1-.2.1.2s.4.8,1,.8,1.1-.4,1.6-1.3c0-.1.1-.1.2,0s.1.1,0,.2c-.6,1-1.3,1.5-1.9,1.4a1.37,1.37,0,0,1-1.1-.8A1.58,1.58,0,0,1,34.2,24.8Z"/><circle class="cls-1" cx="36.2" cy="34.5" r="3.8"/><path class="cls-4" d="M41.1,31.5,38,32.8l1.1-5.6L31.6,37l3.1-1.3-1.1,5.6Zm-7.4,3.8,4.1-5.4-.8,4,2-.8-4.1,5.4.8-4Z"/><circle class="cls-4" cx="32.3" cy="32.7" r="1.1"/><circle class="cls-4" cx="38.9" cy="37.1" r="0.8"/><circle class="cls-4" cx="39.8" cy="35.4" r="0.3"/><path class="cls-2" d="M45.8,21.2a60.88,60.88,0,0,0-5.1,5.2,34,34,0,0,1-5.3,4.9c-.2-.5-1.6-1.5-1.6-1.5s-3.1-2.1-5.2-3.8a30.22,30.22,0,0,1-3.1-3c-.3,0-1.1-.1-2-.1a22.38,22.38,0,0,0,12,8.8c.9-.1,3.3-1.9,5.1-3.3a56.1,56.1,0,0,0,6-5.9,5.75,5.75,0,0,0,1.1-2A8.16,8.16,0,0,0,45.8,21.2Z"/><path class="cls-1" d="M65.1,3.5l-8.4,9.4-1.3-2L63.6,0ZM62.5,17.3l5.6-4.2-.8-3.7-5.4,4.8ZM59.8,49.4,66,52.6l3-2.4-6.7-2.7ZM1.9,6l3-3.4,9.3,9L13,13.9ZM7.3,16.3,2.6,13.2.2,17l5.1,2.4Zm6.5,36.3L9.3,55.9l2.8,3.6,4-4Z"/><path class="cls-2" d="M25.8,28s-3.8-1.4-5.2-1.8-2.3-.7-4,.6a5,5,0,0,0-1.7,3.9s.4,1,.5,1.4-1.2.4-2,.4-.9-1.4-.3-3.1A21.34,21.34,0,0,1,15,25.7C9.6,28.5,0,35.1,0,35.1a46.36,46.36,0,0,1,8.2.2c5.3.5,5,4.7,5,4.7a32.83,32.83,0,0,1,5.6-1.1A2.24,2.24,0,0,1,21.1,41l.5,3.9a24.45,24.45,0,0,1,2.7-2.4,5.89,5.89,0,0,1,4.4-1.3Z"/></svg>