<?xml version="1.0" encoding="utf-8"?>
<!-- Generator: Adobe Illustrator 23.0.1, SVG Export Plug-In . SVG Version: 6.00 Build 0)  -->
<svg version="1.1" xmlns="http://www.w3.org/2000/svg" xmlns:xlink="http://www.w3.org/1999/xlink" x="0px" y="0px"
	 viewBox="0 0 3523.9 5456.2" style="enable-background:new 0 0 3523.9 5456.2;" xml:space="preserve">
<style type="text/css">
	.st0{fill:#FFFFFF;}
	.st1{fill:#CECECE;}
	.st2{fill:#E0E0E0;}
	.st3{fill:#EDEDED;}
	.st4{fill:#939393;}
	.st5{fill:#9E9E9E;}
	.st6{opacity:8.000000e-02;fill:#020202;}
	.st7{fill:#777777;}
	.st8{fill:#BFBFBF;}
	.st9{fill:#E6E7E9;}
	.st10{fill:#B8B9BB;}
	.st11{fill:#FEFCFE;}
	.st12{fill:#D30D3C;}
	.st13{fill:#F90D3E;}
	.st14{fill:#1B1F21;}
	.st15{fill:#475059;}
	.st16{fill:#F9F9F7;}
	.st17{fill:#F4BA2E;}
	.st18{fill:#FFDB92;}
	.st19{fill:#FFCC5A;}
	.st20{fill:#2D3538;}
	.st21{fill:#CECFD1;}
	.st22{opacity:0.15;fill:#231F20;}
	.st23{fill:#F6F4F4;}
	.st24{opacity:0.2;fill:#231F20;}
	.st25{fill:#DEDEDE;}
	.st26{fill:#3A4349;}
	.st27{fill:#8E6040;}
	.st28{fill:#323B3F;}
	.st29{fill:#252B2D;}
	.st30{fill:#414A51;}
	.st31{fill:#EA0F43;}
	.st32{fill:#EAEAEA;}
	.st33{fill:#B2B2B2;}
	.st34{fill:#848484;}
	.st35{fill:#3F4D50;}
	.st36{opacity:0.26;fill:#020202;}
	.st37{fill:#EDBE85;}
	.st38{fill:#FFF2E6;}
	.st39{fill:#E2E2E2;}
	.st40{fill:#31373A;}
</style>
<g id="Layer_1">
</g>
<g id="Layer_5">
</g>
<g id="Layer_6">
</g>
<g id="Layer_7">
</g>
<g id="Layer_4">
</g>
<g id="Layer_2">
	<g>
		
			<rect x="2764.5" y="4180.7" transform="matrix(0.9292 0.3696 -0.3696 0.9292 1772.3644 -722.3032)" class="st0" width="14" height="168.7"/>
		
			<rect x="2734.8" y="4335.3" transform="matrix(-0.9292 -0.3695 0.3695 -0.9292 3685.8535 9385.5449)" class="st1" width="14" height="9"/>
		<path class="st0" d="M2760.2,4347.5l-36.8-14.7c-1-0.4-2.1,0.1-2.5,1.1l-17.4,43.8c-0.4,1,0.1,2.1,1.1,2.5l36.8,14.7
			c1,0.4,2.1-0.1,2.5-1.1l17.4-43.8C2761.7,4349,2761.2,4347.9,2760.2,4347.5z"/>
		<g>
			<path class="st0" d="M2750.3,4392.7l-50.3-20c-5.4-2.1-11.5,0.5-13.7,5.9l-35,88.1c-2.1,5.4,0.5,11.5,5.9,13.7l50.3,20
				c5.4,2.1,11.5-0.5,13.7-5.9l35-88.1C2758.3,4401,2755.7,4394.9,2750.3,4392.7z"/>
			<path class="st2" d="M2758.9,4402.5c0,1.5-0.3,3.1-0.9,4.6l-35,88.1c-1.2,3.1-3.6,5.5-6.7,6.9s-6.5,1.4-9.6,0.1l-50.3-20
				c-3.1-1.2-5.5-3.6-6.9-6.7c-1.3-3.1-1.4-6.5-0.1-9.6l35-88.1c2.5-6.4,9.8-9.6,16.2-7l50.3,20
				C2755.9,4392.8,2758.9,4397.5,2758.9,4402.5z M2652.6,4470.6c0,1.1,0.2,2.3,0.7,3.4c0.9,2.1,2.6,3.7,4.7,4.5l50.3,20
				c2.1,0.8,4.4,0.8,6.5-0.1c2.1-0.9,3.7-2.6,4.5-4.7l35-88.1c1.7-4.4-0.4-9.3-4.8-11.1l-50.3-20c-4.4-1.7-9.3,0.4-11.1,4.8
				l-35,88.1C2652.8,4468.5,2652.6,4469.5,2652.6,4470.6z"/>
		</g>
		<path class="st3" d="M2227.6,5150.5l331.9,132c24.3,9.7,51.9-2.2,61.6-26.5l259.8-653.1c9.7-24.3-2.2-51.9-26.5-61.6l-331.9-132
			c-24.3-9.7-51.9,2.2-61.6,26.5l-259.8,653.1C2191.4,5113.2,2203.3,5140.8,2227.6,5150.5z"/>
		
			<rect x="2328.2" y="4534.1" transform="matrix(-0.9292 -0.3695 0.3695 -0.9292 3112.4585 10285.3174)" class="st4" width="426.2" height="621"/>
		<path class="st5" d="M2613.7,4501l110.4,43.9c3.4,1.4,7.3-0.3,8.7-3.7l0,0c1.4-3.4-0.3-7.3-3.7-8.7l-110.4-43.9
			c-3.4-1.4-7.3,0.3-8.7,3.7l0,0C2608.6,4495.7,2610.3,4499.6,2613.7,4501z"/>
		<path class="st6" d="M2460.7,4435.6L2201,5088.7c-9.7,24.3,2.4,51.9,26.7,61.6l45.2,18l445.3-681.3l-195.7-77.8
			C2498.1,4399.6,2470.4,4411.3,2460.7,4435.6z"/>
		
			<rect x="2698.9" y="4404" transform="matrix(-0.9292 -0.3695 0.3695 -0.9292 3583.4321 9545.5303)" class="st2" width="14.1" height="51.2"/>
		<path class="st0" d="M3117.3,4906c-27.5-15.6-49.4-39-69-62c-10.6-12.4-21.3-25.7-30.7-40c-17.6-1-35.9-4.9-54.4-11.7
			c-30.8-11.4-59-29.7-82.5-46.1c-21.4-14.9-45.4-33-58.6-58.6c-13-25.2-15.2-57.6-6.2-91.2c4.9-18.1,13.3-36.2,21.5-53.7
			c5.2-11,10-21.4,14.1-31.8c17.5-45.1,35.5-91.7,42.7-140c5.5-37.4,6.4-91.9-21-139.3c-14.1-24.4-33.8-44.1-55.4-63.6l-12.4,30.7
			l-13-5.2l14.3-35.4c-1.3-1.2-2.7-2.4-4.1-3.6c-21.1-18.7-43-38-60.4-60.8c-8.9-11.6-20.6-29.5-20.4-50.3
			c0.3-22.9,16.1-44.5,38.5-52.5c20.9-7.5,46-2.7,63.8,12.2c16.6,13.9,26.7,35.8,27.1,58.8c0.3,22.6-8.3,44-16,62.8l-11.9,29.4
			c23.2,20.8,46.1,42.9,62,70.4c29.4,50.9,28.6,108.8,22.7,148.3c-7.4,49.9-25.7,97.2-43.5,143c-4.2,10.8-9.4,21.9-14.4,32.7
			c-7.9,16.9-16.1,34.4-20.7,51.4c-8.1,30.2-6.3,59,5.1,81.2c11.8,22.7,33.2,38.9,54.2,53.5c23.9,16.7,50.1,33.6,79.3,44.4
			c13.8,5.1,27.4,8.4,40.6,10c-2-3.7-4-7.5-5.7-11.4c-9-19.4-18.3-49.2-11.4-80.9c6.4-29.4,27.1-54.1,52.8-62.8
			c23.4-8,50.7-2.8,69.6,13.2c25.1,21.4,33.3,60.5,19.4,93.1c-12.3,28.8-40.9,51.8-74.8,60c-7.8,1.9-15.8,3.1-24.1,3.5
			c7.7,10.9,16.1,21.2,24.4,31c18.7,22,39.6,44.4,65.2,58.9c27.5,15.6,57.2,19.4,81.4,10.5c3.8-1.4,7.5-3.1,11.5-4.9
			c6.1-2.8,12.5-5.7,19.4-7.5c11.7-3,27.6-2.2,37.2,9l-10.6,9.1c-5.4-6.3-15.8-6.4-23.1-4.5c-5.7,1.5-11.2,4-17,6.7
			c-4,1.8-8.2,3.8-12.5,5.4c-23,8.4-49.8,7.2-75.9-3.2C3128.8,4912,3123,4909.2,3117.3,4906z M3049,4647.3
			c-21.1,7.2-38.2,27.9-43.6,52.6c-6.1,27.9,2.3,54.5,10.4,72c2.9,6.3,6.2,12.4,9.8,18.3c10.3,0,20.3-1.1,29.8-3.4
			c29.7-7.2,54.6-27.1,65.2-51.9c11.4-26.7,4.6-59.8-15.6-77c-4.7-4-10-7.1-15.7-9.4C3076.6,4643.4,3062,4642.8,3049,4647.3z
			 M2765.2,4004.1c-16.7,6-29,22.6-29.2,39.5c-0.1,12.5,5.4,25.7,17.5,41.6c16.6,21.8,37.9,40.6,58.5,58.8c0.1,0.1,0.2,0.2,0.3,0.3
			l10-24.8c7.1-17.6,15.2-37.6,15-57.4c-0.3-18.9-8.5-37-22-48.2c-4.4-3.7-9.4-6.6-14.6-8.7
			C2789.3,4000.6,2776.4,4000,2765.2,4004.1z"/>
		<path class="st0" d="M3440.6,4797.7c-9.2,42.9-23.4,73.4-44.5,95.9c-26.3,28-64.6,40.6-96.6,32c2.3,3,4.5,6,6.6,9
			c40.9,57,71,123.2,87.1,191.4l-13.6,3.2c-15.7-66.5-45-131-84.9-186.5c-13.2-18.4-28.9-38.1-47.7-38.1l-0.7-14
			c15.5-1.7,25.5,4.7,35.2,10.9c5.5,3.5,11.2,7.2,18.2,9.5c32.1,10.5,66.4-6,86.2-27.1c19.4-20.6,32.4-49,41.1-89.3L3440.6,4797.7z"
			/>
		
			<ellipse transform="matrix(0.9292 -0.3697 0.3697 0.9292 -1698.6801 1610.7118)" class="st7" cx="3353.1" cy="5237.3" rx="12.8" ry="61.4"/>
		<path class="st0" d="M3366.9,5286.6c4,12.8,26.5,20.4,35.4,7.3c12.1-17.8,21.1-37,22.9-41.2l9.4,23.7c2.6,6.5,10.3,9.4,17.1,6.7
			l1.3-0.5c6.8-2.7,10.3-10,7.7-16.5l-66.5-167.1l-26.1,10.4l27.6,69.3c-5.3-1.6-33.3-10.1-40.6-12.6c-9.9-3.4-17.5,1.1-17.5,1.1
			c-2.8,1.6-4.9,3.6-6.4,5.6c-4,5.2-5.9,12.5-2.5,17.8C3339.6,5207.4,3362.4,5272.5,3366.9,5286.6z"/>
		<path class="st8" d="M3347.8,5041.4l14.6-5.8c3.2-1.3,6.9,0.3,8.2,3.5l31.1,78.1l-26.4,10.5l-31.1-78.1
			C3343,5046.3,3344.5,5042.7,3347.8,5041.4z"/>
		
			<ellipse transform="matrix(0.3697 -0.9292 0.9292 0.3697 -2166.1902 6103.2427)" class="st7" cx="3415.4" cy="4648.3" rx="61.4" ry="12.8"/>
		<path class="st0" d="M3429.2,4599c4-12.8,26.5-20.4,35.4-7.3c12.1,17.8,21.1,37,22.9,41.2l9.4-23.7c2.6-6.5,10.3-9.4,17.1-6.7
			l1.3,0.5c6.8,2.7,10.3,10,7.7,16.5l-66.5,167.1l-26.1-10.4l27.6-69.3c-5.3,1.6-33.3,10.1-40.6,12.6c-9.9,3.4-17.5-1.1-17.5-1.1
			c-2.8-1.6-4.9-3.6-6.4-5.6c-4-5.2-5.9-12.5-2.5-17.8C3401.9,4678.2,3424.7,4613.1,3429.2,4599z"/>
		<path class="st8" d="M3410.1,4844.2l14.6,5.8c3.2,1.3,6.9-0.3,8.2-3.5l31.1-78.1l-26.4-10.5l-31.1,78.1
			C3405.3,4839.2,3406.9,4842.9,3410.1,4844.2z"/>
		<g>
			<path class="st9" d="M2966.7,3030.8c19.2,0,38.1,1.4,56.5,4.1c188.1,27.4,332.4,189.3,332.4,384.8c0,5.7-0.1,11.2-0.4,16.8
				c-8.8,207-179.4,372.2-388.5,372.2c-214.8,0-388.9-174.2-388.9-389C2577.7,3205,2751.8,3030.8,2966.7,3030.8z"/>
			<path class="st0" d="M2566.6,3419.7c0,220.6,179.4,400.1,400.1,400.1c215.1,0,390.6-168.1,399.7-382.9c0.1-4.2,0.3-8.3,0.3-12.5
				l-11.4,11.4l-11.8,11.7c-14.2,197.2-177.6,350-376.7,350c-208.3,0-377.8-169.5-377.8-377.8c0-208.3,169.5-377.8,377.8-377.8
				c15.1,0,30.4,0.9,45.4,2.8l10-10l9.7-9.7c-2.3-0.4-4.6-0.7-7-1.1c-19.3-2.8-38.8-4.2-58.1-4.2
				C2746,3019.7,2566.6,3199.1,2566.6,3419.7z"/>
		</g>
		<path class="st5" d="M3031.8,3025c191.4,31.3,335,199.8,335,394.7c0,1.6,0,3.2-0.1,4.8l-11.4,11.4l-11.8,11.7
			c0.3-3.8,0.5-7.7,0.7-11.5c0.2-5.4,0.4-10.9,0.4-16.4c0-186.4-138.8-347-322.9-373.8c-3.1-0.4-6.3-0.9-9.4-1.2l10-10L3031.8,3025z
			"/>
		<path class="st10" d="M3012.1,3044.7c3.1,0.3,6.3,0.7,9.4,1.2c184.1,26.8,322.9,187.5,322.9,373.8c0,5.5-0.1,10.9-0.4,16.4
			c-0.1,3.9-0.4,7.7-0.7,11.5l-345.6,342.3l-177.6-552.8L3012.1,3044.7z"/>
		<path class="st11" d="M2997.8,3777.6v-135c0-0.2-0.2-0.4-0.4-0.4h-54.9c-2.9,0-5.3,2.4-5.3,5.3v129.4c0,16.9,13.8,30.6,30.6,30.6
			l0,0C2984.4,3807.5,2997.8,3794,2997.8,3777.6z"/>
		
			<ellipse transform="matrix(0.7071 -0.7071 0.7071 0.7071 -1549.2157 3099.3706)" class="st11" cx="2966.7" cy="3419.8" rx="233" ry="233"/>
		<path class="st12" d="M2966.7,3227.5c106.2,0,192.3,86.1,192.3,192.2c0,60.3-27.7,114-71.1,149.3c-33,27-75.2,43-121.2,43
			c-106.2,0-192.3-86.1-192.3-192.3c0-74.8,42.7-139.6,105.2-171.3C2905.7,3235,2935.3,3227.5,2966.7,3227.5z"/>
		<path class="st13" d="M2966.7,3227.5c106.2,0,192.3,86.1,192.3,192.2c0,60.3-27.7,114-71.1,149.3c-26.2,13.4-55.8,20.9-87.1,20.9
			c-106.2,0-192.3-86.1-192.3-192.2c0-60.3,27.7-114,71.1-149.3C2905.7,3235,2935.3,3227.5,2966.7,3227.5z"/>
		<path class="st11" d="M907,2631.2l414.5,476.8l-798.4,693.9l-414.5-476.8c-24.9-28.7-21.9-72.1,6.8-97l43.1-37.5l1.8-1.5
			l40.8-35.5l1.8-1.5l39-33.9l1.8-1.5l39-33.9l1.8-1.5l39-33.9l1.8-1.5l484.8-421.4c3.5-3,7.2-5.7,11.1-7.9c0.7-0.4,1.4-0.8,2.1-1.2
			C850.9,2600.9,885.7,2606.6,907,2631.2z"/>
		<path class="st14" d="M521.5,3723.9c7.4-6.5,17.6-6.9,22.7-1c5.1,5.9,3.2,15.9-4.2,22.3c-7.4,6.5-17.6,6.9-22.7,1
			C512.2,3740.4,514.1,3730.4,521.5,3723.9z"/>
		<path class="st14" d="M605.3,3651.1c7.4-6.5,17.6-6.9,22.7-1s3.2,15.9-4.2,22.3c-7.4,6.5-17.6,6.9-22.7,1
			C596,3667.5,597.8,3657.5,605.3,3651.1z"/>
		<path class="st14" d="M686.8,3582.6c7.4-6.5,17.6-6.9,22.7-1c5.1,5.9,3.2,15.9-4.2,22.3c-7.4,6.5-17.6,6.9-22.7,1
			C677.5,3599,679.4,3589,686.8,3582.6z"/>
		<path class="st14" d="M767.9,3506.6c7.4-6.5,17.6-6.9,22.7-1c5.1,5.9,3.2,15.9-4.2,22.3c-7.4,6.5-17.6,6.9-22.7,1
			C758.6,3523.1,760.4,3513.1,767.9,3506.6z"/>
		<path class="st14" d="M848.2,3436.8c7.4-6.5,17.6-6.9,22.7-1c5.1,5.9,3.2,15.9-4.2,22.3c-7.4,6.5-17.6,6.9-22.7,1
			C838.9,3453.3,840.8,3443.3,848.2,3436.8z"/>
		<path class="st14" d="M928.6,3367c7.4-6.5,17.6-6.9,22.7-1c5.1,5.9,3.2,15.9-4.2,22.3c-7.4,6.5-17.6,6.9-22.7,1
			C919.3,3383.4,921.2,3373.4,928.6,3367z"/>
		<path class="st14" d="M1008.9,3297.1c7.4-6.5,17.6-6.9,22.7-1c5.1,5.9,3.2,15.9-4.2,22.3c-7.4,6.5-17.6,6.9-22.7,1
			C999.6,3313.6,1001.5,3303.6,1008.9,3297.1z"/>
		
			<ellipse transform="matrix(0.7548 -0.656 0.656 0.7548 -1848.9141 1517.8859)" class="st14" cx="1105.6" cy="3231.8" rx="17.8" ry="14.1"/>
		<path class="st14" d="M1178.5,3149.7c7.4-6.5,17.6-6.9,22.7-1s3.2,15.9-4.2,22.3c-7.4,6.5-17.6,6.9-22.7,1
			C1169.2,3166.2,1171.1,3156.2,1178.5,3149.7z"/>
		<path class="st15" d="M521.4,3731l63.6,73.2c1.2,1.4,1.1,3.5-0.3,4.8l0,0c-1.4,1.2-3.5,1.1-4.8-0.3l-63.6-73.2
			c-1.2-1.4-1.1-3.5,0.3-4.8l0,0C518,3729.4,520.2,3729.6,521.4,3731z"/>
		<path class="st15" d="M535.3,3720.1l63.6,73.2c1.2,1.4,1.1,3.5-0.3,4.8l0,0c-1.4,1.2-3.5,1.1-4.8-0.3l-63.6-73.2
			c-1.2-1.4-1.1-3.5,0.3-4.8l0,0C531.9,3718.5,534.1,3718.7,535.3,3720.1z"/>
		<path class="st15" d="M605,3658.6l63.6,73.2c1.2,1.4,1.1,3.5-0.3,4.8l0,0c-1.4,1.2-3.5,1.1-4.8-0.3l-63.6-73.2
			c-1.2-1.4-1.1-3.5,0.3-4.8l0,0C601.6,3657.1,603.8,3657.2,605,3658.6z"/>
		<path class="st15" d="M617.9,3647.4l63.6,73.2c1.2,1.4,1.1,3.5-0.3,4.8l0,0c-1.4,1.2-3.5,1.1-4.8-0.3l-63.6-73.2
			c-1.2-1.4-1.1-3.5,0.3-4.8l0,0C614.5,3645.9,616.7,3646,617.9,3647.4z"/>
		<path class="st15" d="M686.6,3590.1l63.6,73.2c1.2,1.4,1.1,3.5-0.3,4.8l0,0c-1.4,1.2-3.5,1.1-4.8-0.3l-63.6-73.2
			c-1.2-1.4-1.1-3.5,0.3-4.8l0,0C683.3,3588.6,685.4,3588.7,686.6,3590.1z"/>
		<path class="st15" d="M699.5,3579l63.6,73.2c1.2,1.4,1.1,3.5-0.3,4.8l0,0c-1.4,1.2-3.5,1.1-4.8-0.3l-63.6-73.2
			c-1.2-1.4-1.1-3.5,0.3-4.8l0,0C696.1,3577.4,698.3,3577.6,699.5,3579z"/>
		<path class="st15" d="M767.6,3514.3l63.6,73.2c1.2,1.4,1.1,3.5-0.3,4.8l0,0c-1.4,1.2-3.5,1.1-4.8-0.3l-63.6-73.2
			c-1.2-1.4-1.1-3.5,0.3-4.8l0,0C764.3,3512.7,766.4,3512.8,767.6,3514.3z"/>
		<path class="st15" d="M780.5,3503.1l63.6,73.2c1.2,1.4,1.1,3.5-0.3,4.8h0c-1.4,1.2-3.5,1.1-4.8-0.3l-63.6-73.2
			c-1.2-1.4-1.1-3.5,0.3-4.8l0,0C777.1,3501.5,779.3,3501.7,780.5,3503.1z"/>
		<path class="st15" d="M848,3444.4l63.6,73.2c1.2,1.4,1.1,3.5-0.3,4.8l0,0c-1.4,1.2-3.5,1.1-4.8-0.3l-63.6-73.2
			c-1.2-1.4-1.1-3.5,0.3-4.8l0,0C844.6,3442.8,846.8,3443,848,3444.4z"/>
		<path class="st15" d="M860.8,3433.2l63.6,73.2c1.2,1.4,1.1,3.5-0.3,4.8l0,0c-1.4,1.2-3.5,1.1-4.8-0.3l-63.6-73.2
			c-1.2-1.4-1.1-3.5,0.3-4.8l0,0C857.5,3431.6,859.6,3431.8,860.8,3433.2z"/>
		<path class="st15" d="M928.4,3374.4l63.6,73.2c1.2,1.4,1.1,3.5-0.3,4.8l0,0c-1.4,1.2-3.5,1.1-4.8-0.3l-63.6-73.2
			c-1.2-1.4-1.1-3.5,0.3-4.8v0C925,3372.9,927.1,3373,928.4,3374.4z"/>
		<path class="st15" d="M941.2,3363.2l63.6,73.2c1.2,1.4,1.1,3.5-0.3,4.8l0,0c-1.4,1.2-3.5,1.1-4.8-0.3l-63.6-73.2
			c-1.2-1.4-1.1-3.5,0.3-4.8l0,0C937.9,3361.7,940,3361.8,941.2,3363.2z"/>
		<path class="st15" d="M1008.7,3304.7l63.6,73.2c1.2,1.4,1.1,3.5-0.3,4.8l0,0c-1.4,1.2-3.5,1.1-4.8-0.3l-63.6-73.2
			c-1.2-1.4-1.1-3.5,0.3-4.8l0,0C1005.3,3303.1,1007.5,3303.3,1008.7,3304.7z"/>
		<path class="st15" d="M1021.5,3293.5l63.6,73.2c1.2,1.4,1.1,3.5-0.3,4.8l0,0c-1.4,1.2-3.5,1.1-4.8-0.3l-63.6-73.2
			c-1.2-1.4-1.1-3.5,0.3-4.8l0,0C1018.2,3291.9,1020.3,3292.1,1021.5,3293.5z"/>
		<path class="st15" d="M1096.1,3228.7l63.6,73.2c1.2,1.4,1.1,3.5-0.3,4.8l0,0c-1.4,1.2-3.5,1.1-4.8-0.3l-63.6-73.2
			c-1.2-1.4-1.1-3.5,0.3-4.8l0,0C1092.8,3227.1,1094.9,3227.3,1096.1,3228.7z"/>
		<path class="st15" d="M1109,3217.5l63.6,73.2c1.2,1.4,1.1,3.5-0.3,4.8l0,0c-1.4,1.2-3.5,1.1-4.8-0.3l-63.6-73.2
			c-1.2-1.4-1.1-3.5,0.3-4.8l0,0C1105.6,3215.9,1107.8,3216.1,1109,3217.5z"/>
		<path class="st15" d="M1178.3,3157.4l63.6,73.2c1.2,1.4,1.1,3.5-0.3,4.8l0,0c-1.4,1.2-3.5,1.1-4.8-0.3l-63.6-73.2
			c-1.2-1.4-1.1-3.5,0.3-4.8l0,0C1175,3155.8,1177.1,3156,1178.3,3157.4z"/>
		<path class="st15" d="M1191.2,3146.2l63.6,73.2c1.2,1.4,1.1,3.5-0.3,4.8l0,0c-1.4,1.2-3.5,1.1-4.8-0.3l-63.6-73.2
			c-1.2-1.4-1.1-3.5,0.3-4.8l0,0C1187.8,3144.7,1190,3144.8,1191.2,3146.2z"/>
		
			<rect x="430.4" y="3067.1" transform="matrix(0.7547 -0.656 0.656 0.7547 -2135.7583 1121.1254)" class="st14" width="2.3" height="699.8"/>
		
			<rect x="387.8" y="3104.1" transform="matrix(0.7548 -0.656 0.656 0.7548 -2170.4631 1102.2504)" class="st14" width="2.3" height="699.8"/>
		
			<rect x="350.5" y="3136.5" transform="matrix(0.7548 -0.656 0.656 0.7548 -2200.8545 1085.7615)" class="st14" width="2.4" height="699.8"/>
		
			<rect x="471.2" y="3031.6" transform="matrix(0.7548 -0.656 0.656 0.7548 -2102.4673 1139.1788)" class="st14" width="2.3" height="699.8"/>
		
			<rect x="512" y="2996.1" transform="matrix(0.7548 -0.656 0.656 0.7548 -2069.1924 1157.2472)" class="st14" width="2.3" height="699.8"/>
		
			<rect x="552.8" y="2960.7" transform="matrix(0.7548 -0.656 0.656 0.7548 -2035.9169 1175.3195)" class="st14" width="2.4" height="699.8"/>
		
			<rect x="593.4" y="2924.6" transform="matrix(0.7548 -0.656 0.656 0.7548 -2002.5354 1193.1877)" class="st14" width="2.4" height="700.5"/>
		
			<rect x="634.2" y="2889.1" transform="matrix(0.7548 -0.656 0.656 0.7548 -1969.2603 1211.2583)" class="st14" width="2.4" height="700.5"/>
		
			<rect x="673.2" y="2855.2" transform="matrix(0.7548 -0.656 0.656 0.7548 -1937.432 1228.5436)" class="st14" width="2.4" height="700.5"/>
		
			<rect x="715.8" y="2818.2" transform="matrix(0.7548 -0.656 0.656 0.7548 -1902.7104 1247.4004)" class="st14" width="2.4" height="700.5"/>
		
			<rect x="754.8" y="2784.3" transform="matrix(0.7548 -0.656 0.656 0.7548 -1870.8824 1264.6857)" class="st14" width="2.4" height="700.5"/>
		
			<rect x="793.9" y="2750.4" transform="matrix(0.7548 -0.656 0.656 0.7548 -1839.054 1281.9707)" class="st14" width="2.4" height="700.5"/>
		
			<rect x="836.4" y="2713.3" transform="matrix(0.7548 -0.656 0.656 0.7548 -1804.3323 1300.8271)" class="st14" width="2.4" height="700.5"/>
		
			<rect x="880.8" y="2674.8" transform="matrix(0.7548 -0.656 0.656 0.7548 -1768.1638 1320.4695)" class="st14" width="2.4" height="700.5"/>
		
			<rect x="923.4" y="2637.8" transform="matrix(0.7548 -0.656 0.656 0.7548 -1733.4423 1339.3262)" class="st14" width="2.4" height="700.5"/>
		
			<rect x="964.2" y="2602.3" transform="matrix(0.7548 -0.656 0.656 0.7548 -1700.1671 1357.3967)" class="st14" width="2.4" height="700.5"/>
		
			<rect x="1006.8" y="2565.3" transform="matrix(0.7548 -0.656 0.656 0.7548 -1665.4456 1376.2537)" class="st14" width="2.4" height="700.5"/>
		<path class="st14" d="M823.3,2615.3l457.9,526.8l-1.8,1.5l-458.2-527.2C821.9,2616.1,822.6,2615.7,823.3,2615.3z"/>
		
			<rect x="177.8" y="4473.1" transform="matrix(-0.6748 0.738 -0.738 -0.6748 4418.8057 7763.6504)" class="st16" width="642.1" height="764.7"/>
		
			<rect x="1156.8" y="1148.7" transform="matrix(0.9201 -0.3917 0.3917 0.9201 -481.6197 701.232)" class="st16" width="642.1" height="764.7"/>
		<path class="st17" d="M105.7,4491.9l437.9,76.9c2.7,0.5,5.5-2.7,6.2-7l7.4-41.9c0.8-4.3-0.8-8.2-3.5-8.7l-437.9-76.9
			c-0.4-0.1-0.7-0.1-1.1,0l-10.1,57.2C105,4491.7,105.3,4491.9,105.7,4491.9z"/>
		<path class="st18" d="M554.2,4536.9l3-17c0.8-4.3-0.8-8.2-3.5-8.7l-437.9-76.9c-0.4-0.1-0.7-0.1-1.1,0l-3,17
			c0.3-0.1,0.6-0.1,0.9-0.1c0.1,0,0.2,0,0.3,0l437.9,76.9C553.4,4528.7,554.9,4532.6,554.2,4536.9z"/>
		<path class="st19" d="M109.3,4471.6l437.9,76.9c2.7,0.5,5.1-0.4,5.4-1.9l2.6-14.8c0.3-1.5-1.7-3.1-4.4-3.6l-437.9-76.9
			c-0.1,0-0.2,0-0.3,0c-0.3,0-0.6-0.1-0.8-0.1l-3.5,20.2C108.5,4471.5,108.9,4471.6,109.3,4471.6z"/>
		<path class="st3" d="M114.7,4434.3c0,0-99,8.8-99.7,12c-0.7,3.3,89.7,45.3,89.7,45.3L114.7,4434.3z"/>
		<path class="st20" d="M49.2,4440.8c0,0-35,3.6-35,5.3c0,2.2,31,17,31,17L49.2,4440.8z"/>
		<path class="st21" d="M1624.4,2721.2c-14.1,28.9-2,64.2,26.9,78.3l362.3,177.1c28.9,14.1,64.2,2,78.3-26.9l245.7-502.8
			c14.1-28.9,2-64.2-26.9-78.3l-362.3-177.1c-28.9-14.1-64.2-2-78.3,26.9L1624.4,2721.2z"/>
		<path class="st22" d="M2179,2771.6l-150.3,210.7c-5.5-0.4-15.4-5.8-20.8-8.5l-170-84.9c0,0-216.9-157.7-217.7-158.3l103.7-201.6
			l210.9-315.3l10.2,4.1l259.4,500.9L2179,2771.6z"/>
		<path class="st23" d="M1618.1,2633.4c-19.3,25.8-14,62.7,11.8,82l322.8,241.7c25.8,19.3,62.7,14,82-11.8l335.4-447.9
			c19.3-25.8,14-62.7-11.8-82l-322.8-241.7c-25.8-19.3-62.7-14-82,11.8L1618.1,2633.4z"/>
		<path class="st24" d="M2293.4,2376.3l-69.8,107.8c0,0-12,12.6,2.1,24.2c14,11.5,99.5,50.3,99.5,50.3L2293.4,2376.3z"/>
		<path class="st25" d="M2297.6,2370.5l-69.4,95.7c0,0-12,12.6,2.1,24.2c14,11.5,94.6,68.7,94.6,68.7L2297.6,2370.5z"/>
		<path class="st22" d="M2138.4,2643.5c-2.7,3.6-7.8,4.3-11.4,1.6l-248.1-185.6c-3.6-2.7-4.3-7.8-1.6-11.4l0,0
			c2.7-3.6,7.8-4.3,11.4-1.6l248.1,185.6C2140.4,2634.9,2141.1,2640,2138.4,2643.5L2138.4,2643.5z"/>
		<path class="st22" d="M2046.2,2615.9c-2.7,3.6-7.8,4.3-11.4,1.6l-174.9-131.7c-3.6-2.7-4.3-7.8-1.6-11.4l0,0
			c2.7-3.6,7.8-4.3,11.4-1.6l174.9,131.7C2048.1,2607.2,2048.9,2612.3,2046.2,2615.9L2046.2,2615.9z"/>
		<path class="st22" d="M2098.3,2698.7c-2.7,3.6-7.8,4.3-11.4,1.6l-248.1-185.6c-3.6-2.7-4.3-7.8-1.6-11.4l0,0
			c2.7-3.6,7.8-4.3,11.4-1.6l248.1,185.6C2100.2,2690.1,2101,2695.2,2098.3,2698.7L2098.3,2698.7z"/>
		<path class="st22" d="M1978.7,2657.9c-2.7,3.6-7.8,4.3-11.4,1.6l-151.1-113.8c-3.6-2.7-4.3-7.8-1.6-11.4l0,0
			c2.7-3.6,7.8-4.3,11.4-1.6l151.1,113.8C1980.7,2649.3,1981.4,2654.3,1978.7,2657.9L1978.7,2657.9z"/>
		<path class="st22" d="M1986.2,2708.5c-2.7,3.6-7.8,4.3-11.4,1.6l-179.7-135.3c-3.6-2.7-4.3-7.8-1.6-11.4l0,0
			c2.7-3.6,7.8-4.3,11.4-1.6l179.7,135.3C1988.2,2699.8,1988.9,2704.9,1986.2,2708.5L1986.2,2708.5z"/>
		<path class="st22" d="M2031.9,2790.1c-2.7,3.6-7.8,4.3-11.4,1.6l-248.1-185.6c-3.6-2.7-4.3-7.8-1.6-11.4l0,0
			c2.7-3.6,7.8-4.3,11.4-1.6l248.1,185.6C2033.9,2781.4,2034.6,2786.5,2031.9,2790.1L2031.9,2790.1z"/>
		<path class="st22" d="M2011.2,2818.5c-2.7,3.6-7.8,4.3-11.4,1.6l-248.1-185.6c-3.6-2.7-4.3-7.8-1.6-11.4l0,0
			c2.7-3.6,7.8-4.3,11.4-1.6l248.1,185.6C2013.2,2809.8,2013.9,2814.9,2011.2,2818.5L2011.2,2818.5z"/>
		<path class="st20" d="M2127.9,2075.4l435.2,90.7c2.7,0.6,5.6-2.5,6.5-6.8l8.7-41.7c0.9-4.3-0.5-8.3-3.2-8.8l-435.2-90.7
			c-0.4-0.1-0.7-0.1-1.1,0l-11.9,56.9C2127.2,2075.2,2127.5,2075.3,2127.9,2075.4z"/>
		<path class="st15" d="M2574.7,2134.5l3.5-16.9c0.9-4.3-0.5-8.3-3.2-8.8l-435.2-90.7c-0.4-0.1-0.7-0.1-1.1,0l-3.5,16.9
			c0.3,0,0.6-0.1,0.9,0c0.1,0,0.2,0,0.3,0l435.2,90.7C2574.2,2126.2,2575.6,2130.2,2574.7,2134.5z"/>
		<path class="st26" d="M2132.1,2055.2l435.2,90.7c2.7,0.6,5.1-0.2,5.4-1.7l3.1-14.7c0.3-1.5-1.6-3.2-4.3-3.8l-435.2-90.7
			c-0.1,0-0.2,0-0.3,0c-0.3-0.1-0.6-0.1-0.8-0.1l-4.2,20.1C2131.4,2055,2131.7,2055.1,2132.1,2055.2z"/>
		<path class="st27" d="M2138.7,2018c0,0-99.3,5.6-100.1,8.9c-0.8,3.2,88.2,48.1,88.2,48.1L2138.7,2018z"/>
		<path class="st28" d="M2073.1,2022.5c0,0-35.1,2.5-35.2,4.2c-0.1,2.2,30.4,18,30.4,18L2073.1,2022.5z"/>
		<path class="st29" d="M2071.4,2330.9l363.3-256.2c2.2-1.6,2-5.8-0.6-9.4l-24.5-34.8c-2.5-3.6-6.4-5.3-8.6-3.7l-363.3,256.2
			c-0.3,0.2-0.6,0.5-0.8,0.8l33.5,47.5C2070.8,2331.3,2071.1,2331.2,2071.4,2330.9z"/>
		<path class="st30" d="M2419.6,2044.7l-10-14.1c-2.5-3.6-6.4-5.3-8.6-3.7l-363.3,256.2c-0.3,0.2-0.6,0.5-0.8,0.8l10,14.1
			c0.2-0.2,0.4-0.5,0.6-0.6c0.1-0.1,0.1-0.1,0.2-0.2l363.3-256.2C2413.2,2039.4,2417,2041.1,2419.6,2044.7z"/>
		<path class="st28" d="M2059.5,2314.1l363.3-256.2c2.2-1.6,3.3-3.9,2.4-5.1l-8.6-12.3c-0.9-1.3-3.4-1-5.7,0.6l-363.3,256.2
			c-0.1,0.1-0.2,0.1-0.2,0.2c-0.2,0.2-0.4,0.3-0.6,0.5l11.8,16.7C2058.9,2314.5,2059.2,2314.3,2059.5,2314.1z"/>
		<path class="st27" d="M2036.9,2283.9c0,0-63.6,76.4-61.8,79.2c1.8,2.8,95.3-31.6,95.3-31.6L2036.9,2283.9z"/>
		<path class="st28" d="M1995.3,2334.9c0,0-22.1,27.4-20.9,28.6c1.5,1.5,33.9-10,33.9-10L1995.3,2334.9z"/>
		<path class="st26" d="M907.7,1315.5c24.8,7.8,300,296.9,534.9,572.4c243.5,285.6,632.9,1003,632.9,1003
			c198.1,495.3,292.7,1297.7,292.7,1297.7l-10.8,508.7l-862.5-9.8l30.8-1319.7c-139.9-214.9-285.1-770.9-344.4-922.3
			c-9.7-24.7-15.1-38.7-15.1-38.7c-64.1-74.8-67.9-171.1-97.3-223.8c-39.9-71.7-68.4-141.4-123.7-202.1
			c-52.6-57.7-81.9-145.5-121-208.2c-57.7-92.7-115.9-156.1-132.6-192.5c-5.5-12.1-8.4-18.8-8.4-18.8
			C690.2,1304.9,907.7,1315.5,907.7,1315.5z"/>
		<path class="st14" d="M691.6,1580.2c258.6,257.5,1053.9,1181.5,1053.9,1181.5l-343.3,10.2c-9.7-24.7-251-383.3-251-383.3
			c-51-96.9-130.9-242.2-162-295.9c-60.3-104.1-158.1-276.9-202-351C743.3,1667.6,691.6,1580.2,691.6,1580.2z"/>
		<path class="st15" d="M1950.4,950.8l-49.6,285.1c0,0-172.9,713.5-204.1,991.5c0,0-84.7,673.5-104.8,907
			c0,0-59.4,1294.4-73.6,1483.1l-535.7,110.6l-251.3-503.5c0,0,96.6-561.1,207.6-1135.8c88.3-456.9,185.7-922.5,250.9-1121.5
			l172.7-519.8c18.6-56,107.8-299,145.7-361.5c24.4-40.3,20.2-89,96-141c0,0,58.4-102.9,166.8-169c0,0-13.9-55.6,23.9-58
			C1832.6,715.8,1950.4,816.4,1950.4,950.8z"/>
		<path class="st14" d="M385.2,653.4c216.6,0,309.5,223.1,343,338.2c14.8,50.7,36.2,99.3,64.1,144.2l88.2,142
			c0,0-207,10.6-228.2,238.8l-329-393.3l-72.4-86.6c-55.5-63.3-108-167.3-81.8-247.4c12.3-37.6,34.5-73.8,73.3-99.4h0
			C276,667.6,322.2,653.4,385.2,653.4z"/>
		<path class="st31" d="M2412.6,4908.7c0,0,51.6-268.4-10.5-280.3C1704.1,4494.7,689.4,4614,689.4,4614l26.8,349.1L2412.6,4908.7z"
			/>
		<path class="st20" d="M1604.2,945.1c-327.3,615.9-579.5,2167.1-579.5,2167.1l-85.8-23.2c88.3-456.9,185.7-922.5,250.9-1121.5
			l172.7-519.8c18.6-56,96.4-293.7,129.4-359C1521.5,1030.1,1574.8,959,1604.2,945.1z"/>
		<path class="st32" d="M2246.9,4487H852.3c-40.8,0-73.9-33.1-73.9-73.9v-930c0-40.8,33.1-73.9,73.9-73.9h1394.6
			c40.8,0,73.9,33.1,73.9,73.9v930C2320.7,4453.9,2287.7,4487,2246.9,4487z"/>
		<path class="st33" d="M2193.4,4029.1H899c-15.4,0-27.9-12.5-27.9-27.9v-497c0-15.4,12.5-27.9,27.9-27.9h1294.4
			c15.4,0,27.9,12.5,27.9,27.9v497C2221.3,4016.6,2208.8,4029.1,2193.4,4029.1z"/>
		<path class="st8" d="M1783.4,4441.2h-464.6c-10.6,0-19.2-8.6-19.2-19.2v-326.9c0-10.6,8.6-19.2,19.2-19.2h464.6
			c10.6,0,19.2,8.6,19.2,19.2v326.9C1802.5,4432.6,1794,4441.2,1783.4,4441.2z"/>
		<g>
			<path class="st0" d="M966.3,3555h-55.7c-7.8,0-14.1-6.3-14.1-14.1v-23.1c0-7.8,6.3-14.1,14.1-14.1h55.7c7.8,0,14.1,6.3,14.1,14.1
				v23.1C980.4,3548.8,974.1,3555,966.3,3555z"/>
			<path class="st0" d="M1060.2,3555h-55.7c-7.8,0-14.1-6.3-14.1-14.1v-23.1c0-7.8,6.3-14.1,14.1-14.1h55.7
				c7.8,0,14.1,6.3,14.1,14.1v23.1C1074.2,3548.8,1068,3555,1060.2,3555z"/>
			<path class="st0" d="M1154.1,3555h-55.7c-7.8,0-14.1-6.3-14.1-14.1v-23.1c0-7.8,6.3-14.1,14.1-14.1h55.7
				c7.8,0,14.1,6.3,14.1,14.1v23.1C1168.1,3548.8,1161.8,3555,1154.1,3555z"/>
			<path class="st0" d="M1247.9,3555h-55.7c-7.8,0-14.1-6.3-14.1-14.1v-23.1c0-7.8,6.3-14.1,14.1-14.1h55.7
				c7.8,0,14.1,6.3,14.1,14.1v23.1C1262,3548.8,1255.7,3555,1247.9,3555z"/>
			<path class="st0" d="M1341.8,3555h-55.7c-7.8,0-14.1-6.3-14.1-14.1v-23.1c0-7.8,6.3-14.1,14.1-14.1h55.7
				c7.8,0,14.1,6.3,14.1,14.1v23.1C1355.8,3548.8,1349.5,3555,1341.8,3555z"/>
			<path class="st0" d="M1435.6,3555H1380c-7.8,0-14.1-6.3-14.1-14.1v-23.1c0-7.8,6.3-14.1,14.1-14.1h55.7c7.8,0,14.1,6.3,14.1,14.1
				v23.1C1449.7,3548.8,1443.4,3555,1435.6,3555z"/>
			<path class="st0" d="M1529.5,3555h-55.7c-7.8,0-14.1-6.3-14.1-14.1v-23.1c0-7.8,6.3-14.1,14.1-14.1h55.7
				c7.8,0,14.1,6.3,14.1,14.1v23.1C1543.5,3548.8,1537.2,3555,1529.5,3555z"/>
			<path class="st0" d="M1623.3,3555h-55.7c-7.8,0-14.1-6.3-14.1-14.1v-23.1c0-7.8,6.3-14.1,14.1-14.1h55.7
				c7.8,0,14.1,6.3,14.1,14.1v23.1C1637.4,3548.8,1631.1,3555,1623.3,3555z"/>
			<path class="st0" d="M1717.2,3555h-55.7c-7.8,0-14.1-6.3-14.1-14.1v-23.1c0-7.8,6.3-14.1,14.1-14.1h55.7
				c7.8,0,14.1,6.3,14.1,14.1v23.1C1731.3,3548.8,1725,3555,1717.2,3555z"/>
			<path class="st0" d="M1811.1,3555h-55.7c-7.8,0-14.1-6.3-14.1-14.1v-23.1c0-7.8,6.3-14.1,14.1-14.1h55.7
				c7.8,0,14.1,6.3,14.1,14.1v23.1C1825.1,3548.8,1818.8,3555,1811.1,3555z"/>
			<path class="st0" d="M1904.9,3555h-55.7c-7.8,0-14.1-6.3-14.1-14.1v-23.1c0-7.8,6.3-14.1,14.1-14.1h55.7
				c7.8,0,14.1,6.3,14.1,14.1v23.1C1919,3548.8,1912.7,3555,1904.9,3555z"/>
			<path class="st0" d="M1998.8,3555h-55.7c-7.8,0-14.1-6.3-14.1-14.1v-23.1c0-7.8,6.3-14.1,14.1-14.1h55.7
				c7.8,0,14.1,6.3,14.1,14.1v23.1C2012.8,3548.8,2006.5,3555,1998.8,3555z"/>
			<path class="st0" d="M2092.6,3555H2037c-7.8,0-14.1-6.3-14.1-14.1v-23.1c0-7.8,6.3-14.1,14.1-14.1h55.7c7.8,0,14.1,6.3,14.1,14.1
				v23.1C2106.7,3548.8,2100.4,3555,2092.6,3555z"/>
			<path class="st0" d="M2186.5,3555h-55.7c-7.8,0-14.1-6.3-14.1-14.1v-23.1c0-7.8,6.3-14.1,14.1-14.1h55.7
				c7.8,0,14.1,6.3,14.1,14.1v23.1C2200.5,3548.8,2194.3,3555,2186.5,3555z"/>
			<path class="st0" d="M972.4,3638.7h-69.7c-1.7,0-3.1-1.4-3.1-3.1v-69.7c0-1.7,1.4-3.1,3.1-3.1h69.7c1.7,0,3.1,1.4,3.1,3.1v69.7
				C975.5,3637.3,974.1,3638.7,972.4,3638.7z"/>
			<path class="st0" d="M1110.1,3726.6h-69.7c-1.7,0-3.1-1.4-3.1-3.1v-69.7c0-1.7,1.4-3.1,3.1-3.1h69.7c1.7,0,3.1,1.4,3.1,3.1v69.7
				C1113.3,3725.2,1111.9,3726.6,1110.1,3726.6z"/>
			<path class="st0" d="M1130.4,3814.6h-69.7c-1.7,0-3.1-1.4-3.1-3.1v-69.7c0-1.7,1.4-3.1,3.1-3.1h69.7c1.7,0,3.1,1.4,3.1,3.1v69.7
				C1133.6,3813.2,1132.2,3814.6,1130.4,3814.6z"/>
			<path class="st0" d="M1177.7,3902.5h-69.7c-1.7,0-3.1-1.4-3.1-3.1v-69.7c0-1.7,1.4-3.1,3.1-3.1h69.7c1.7,0,3.1,1.4,3.1,3.1v69.7
				C1180.9,3901.1,1179.4,3902.5,1177.7,3902.5z"/>
			<path class="st0" d="M972.2,4000.1h-69.3c-1.8,0-3.3-1.5-3.3-3.3v-79c0-1.8,1.5-3.3,3.3-3.3h69.3c1.8,0,3.3,1.5,3.3,3.3v79
				C975.5,3998.6,974.1,4000.1,972.2,4000.1z"/>
			<path class="st0" d="M1064.7,4000.1h-69.3c-1.8,0-3.3-1.5-3.3-3.3v-79c0-1.8,1.5-3.3,3.3-3.3h69.3c1.8,0,3.3,1.5,3.3,3.3v79
				C1068.1,3998.6,1066.6,4000.1,1064.7,4000.1z"/>
			<path class="st0" d="M1154.4,4000.1h-69.3c-1.8,0-3.3-1.5-3.3-3.3v-79c0-1.8,1.5-3.3,3.3-3.3h69.3c1.8,0,3.3,1.5,3.3,3.3v79
				C1157.8,3998.6,1156.3,4000.1,1154.4,4000.1z"/>
			<path class="st0" d="M1267.5,4000.1h-91.4c-2.1,0-3.8-1.7-3.8-3.8v-78c0-2.1,1.7-3.8,3.8-3.8h91.4c2.1,0,3.8,1.7,3.8,3.8v78
				C1271.3,3998.4,1269.6,4000.1,1267.5,4000.1z"/>
			<path class="st0" d="M1829.8,4000.1h-91.4c-2.1,0-3.8-1.7-3.8-3.8v-78c0-2.1,1.7-3.8,3.8-3.8h91.4c2.1,0,3.8,1.7,3.8,3.8v78
				C1833.6,3998.4,1831.9,4000.1,1829.8,4000.1z"/>
			<path class="st0" d="M1922.4,4000.1h-68.3c-1.8,0-3.3-1.5-3.3-3.3v-79c0-1.8,1.5-3.3,3.3-3.3h68.3c1.8,0,3.3,1.5,3.3,3.3v79
				C1925.7,3998.6,1924.2,4000.1,1922.4,4000.1z"/>
			<path class="st0" d="M1715.6,4000.1h-421.8c-4.4,0-8-3.6-8-8v-69.6c0-4.4,3.6-8,8-8h421.8c4.4,0,8,3.6,8,8v69.6
				C1723.6,3996.5,1720,4000.1,1715.6,4000.1z"/>
			<path class="st0" d="M1268.2,3902.5h-69.7c-1.7,0-3.1-1.4-3.1-3.1v-69.7c0-1.7,1.4-3.1,3.1-3.1h69.7c1.7,0,3.1,1.4,3.1,3.1v69.7
				C1271.3,3901.1,1269.9,3902.5,1268.2,3902.5z"/>
			<path class="st0" d="M1358.6,3902.5H1289c-1.7,0-3.1-1.4-3.1-3.1v-69.7c0-1.7,1.4-3.1,3.1-3.1h69.7c1.7,0,3.1,1.4,3.1,3.1v69.7
				C1361.8,3901.1,1360.4,3902.5,1358.6,3902.5z"/>
			<path class="st0" d="M1449.1,3902.5h-69.7c-1.7,0-3.1-1.4-3.1-3.1v-69.7c0-1.7,1.4-3.1,3.1-3.1h69.7c1.7,0,3.1,1.4,3.1,3.1v69.7
				C1452.2,3901.1,1450.8,3902.5,1449.1,3902.5z"/>
			<path class="st0" d="M1539.6,3902.5h-69.7c-1.7,0-3.1-1.4-3.1-3.1v-69.7c0-1.7,1.4-3.1,3.1-3.1h69.7c1.7,0,3.1,1.4,3.1,3.1v69.7
				C1542.7,3901.1,1541.3,3902.5,1539.6,3902.5z"/>
			<path class="st0" d="M1630,3902.5h-69.7c-1.7,0-3.1-1.4-3.1-3.1v-69.7c0-1.7,1.4-3.1,3.1-3.1h69.7c1.7,0,3.1,1.4,3.1,3.1v69.7
				C1633.2,3901.1,1631.8,3902.5,1630,3902.5z"/>
			<path class="st0" d="M1720.5,3902.5h-69.7c-1.7,0-3.1-1.4-3.1-3.1v-69.7c0-1.7,1.4-3.1,3.1-3.1h69.7c1.7,0,3.1,1.4,3.1,3.1v69.7
				C1723.6,3901.1,1722.2,3902.5,1720.5,3902.5z"/>
			<path class="st0" d="M1810.9,3902.5h-69.7c-1.7,0-3.1-1.4-3.1-3.1v-69.7c0-1.7,1.4-3.1,3.1-3.1h69.7c1.7,0,3.1,1.4,3.1,3.1v69.7
				C1814.1,3901.1,1812.7,3902.5,1810.9,3902.5z"/>
			<path class="st0" d="M1901.4,3902.5h-69.7c-1.7,0-3.1-1.4-3.1-3.1v-69.7c0-1.7,1.4-3.1,3.1-3.1h69.7c1.7,0,3.1,1.4,3.1,3.1v69.7
				C1904.5,3901.1,1903.1,3902.5,1901.4,3902.5z"/>
			<path class="st0" d="M2004,4001.4h-53c-6.7,0-12.2-5.5-12.2-12.2v-19.7c0-6.7,5.5-12.2,12.2-12.2h53c6.7,0,12.2,5.5,12.2,12.2
				v19.7C2016.2,3995.9,2010.8,4001.4,2004,4001.4z"/>
			<path class="st0" d="M2094.8,4001.4h-53c-6.7,0-12.2-5.5-12.2-12.2v-19.7c0-6.7,5.5-12.2,12.2-12.2h53c6.7,0,12.2,5.5,12.2,12.2
				v19.7C2107,3995.9,2101.5,4001.4,2094.8,4001.4z"/>
			<path class="st0" d="M2094.8,3951.9h-53c-6.7,0-12.2-5.5-12.2-12.2V3920c0-6.7,5.5-12.2,12.2-12.2h53c6.7,0,12.2,5.5,12.2,12.2
				v19.7C2107,3946.5,2101.5,3951.9,2094.8,3951.9z"/>
			<path class="st0" d="M2185.5,4001.4h-53c-6.7,0-12.2-5.5-12.2-12.2v-19.7c0-6.7,5.5-12.2,12.2-12.2h53c6.7,0,12.2,5.5,12.2,12.2
				v19.7C2197.7,3995.9,2192.2,4001.4,2185.5,4001.4z"/>
			<path class="st0" d="M1221.7,3814.6h-69.7c-1.7,0-3.1-1.4-3.1-3.1v-69.7c0-1.7,1.4-3.1,3.1-3.1h69.7c1.7,0,3.1,1.4,3.1,3.1v69.7
				C1224.9,3813.2,1223.5,3814.6,1221.7,3814.6z"/>
			<path class="st0" d="M1313,3814.6h-69.7c-1.7,0-3.1-1.4-3.1-3.1v-69.7c0-1.7,1.4-3.1,3.1-3.1h69.7c1.7,0,3.1,1.4,3.1,3.1v69.7
				C1316.2,3813.2,1314.8,3814.6,1313,3814.6z"/>
			<path class="st0" d="M1404.3,3814.6h-69.7c-1.7,0-3.1-1.4-3.1-3.1v-69.7c0-1.7,1.4-3.1,3.1-3.1h69.7c1.7,0,3.1,1.4,3.1,3.1v69.7
				C1407.5,3813.2,1406.1,3814.6,1404.3,3814.6z"/>
			<path class="st0" d="M1495.1,3814.6h-69.7c-1.7,0-3.1-1.4-3.1-3.1v-69.7c0-1.7,1.4-3.1,3.1-3.1h69.7c1.7,0,3.1,1.4,3.1,3.1v69.7
				C1498.2,3813.2,1496.8,3814.6,1495.1,3814.6z"/>
			<path class="st0" d="M1586.4,3814.6h-69.7c-1.7,0-3.1-1.4-3.1-3.1v-69.7c0-1.7,1.4-3.1,3.1-3.1h69.7c1.7,0,3.1,1.4,3.1,3.1v69.7
				C1589.5,3813.2,1588.1,3814.6,1586.4,3814.6z"/>
			<path class="st0" d="M1673.8,3814.6h-69.7c-1.7,0-3.1-1.4-3.1-3.1v-69.7c0-1.7,1.4-3.1,3.1-3.1h69.7c1.7,0,3.1,1.4,3.1,3.1v69.7
				C1676.9,3813.2,1675.5,3814.6,1673.8,3814.6z"/>
			<path class="st0" d="M1764.2,3814.6h-69.7c-1.7,0-3.1-1.4-3.1-3.1v-69.7c0-1.7,1.4-3.1,3.1-3.1h69.7c1.7,0,3.1,1.4,3.1,3.1v69.7
				C1767.4,3813.2,1766,3814.6,1764.2,3814.6z"/>
			<path class="st0" d="M1854.7,3814.6H1785c-1.7,0-3.1-1.4-3.1-3.1v-69.7c0-1.7,1.4-3.1,3.1-3.1h69.7c1.7,0,3.1,1.4,3.1,3.1v69.7
				C1857.8,3813.2,1856.4,3814.6,1854.7,3814.6z"/>
			<path class="st0" d="M1944.6,3814.6h-69.7c-1.7,0-3.1-1.4-3.1-3.1v-69.7c0-1.7,1.4-3.1,3.1-3.1h69.7c1.7,0,3.1,1.4,3.1,3.1v69.7
				C1947.7,3813.2,1946.3,3814.6,1944.6,3814.6z"/>
			<path class="st0" d="M2034.5,3814.6h-69.7c-1.7,0-3.1-1.4-3.1-3.1v-69.7c0-1.7,1.4-3.1,3.1-3.1h69.7c1.7,0,3.1,1.4,3.1,3.1v69.7
				C2037.6,3813.2,2036.2,3814.6,2034.5,3814.6z"/>
			<path class="st0" d="M1991,3902.5h-69.7c-1.7,0-3.1-1.4-3.1-3.1v-69.7c0-1.7,1.4-3.1,3.1-3.1h69.7c1.7,0,3.1,1.4,3.1,3.1v69.7
				C1994.1,3901.1,1992.7,3902.5,1991,3902.5z"/>
			<path class="st0" d="M2193.8,3814.6h-134.5c-2.4,0-4.3-1.9-4.3-4.3v-67.3c0-2.4,1.9-4.3,4.3-4.3h134.5c2.4,0,4.3,1.9,4.3,4.3
				v67.3C2198.1,3812.6,2196.1,3814.6,2193.8,3814.6z"/>
			<path class="st0" d="M2193.1,3902.5h-180.4c-2.7,0-5-2.2-5-5v-66c0-2.7,2.2-5,5-5h180.4c2.7,0,5,2.2,5,5v66
				C2198.1,3900.3,2195.9,3902.5,2193.1,3902.5z"/>
			<path class="st0" d="M1039.9,3814.6h-136c-2.4,0-4.3-1.9-4.3-4.3v-67.3c0-2.4,1.9-4.3,4.3-4.3h136c2.4,0,4.3,1.9,4.3,4.3v67.3
				C1044.2,3812.6,1042.3,3814.6,1039.9,3814.6z"/>
			<path class="st0" d="M1086.1,3902.5h-183c-2.8,0-5-2.2-5-5v-65.9c0-2.8,2.2-5,5-5h183c2.8,0,5,2.2,5,5v65.9
				C1091.1,3900.3,1088.9,3902.5,1086.1,3902.5z"/>
			<path class="st0" d="M1201,3726.6h-69.7c-1.7,0-3.1-1.4-3.1-3.1v-69.7c0-1.7,1.4-3.1,3.1-3.1h69.7c1.7,0,3.1,1.4,3.1,3.1v69.7
				C1204.1,3725.2,1202.7,3726.6,1201,3726.6z"/>
			<path class="st0" d="M1291.3,3726.6h-69.7c-1.7,0-3.1-1.4-3.1-3.1v-69.7c0-1.7,1.4-3.1,3.1-3.1h69.7c1.7,0,3.1,1.4,3.1,3.1v69.7
				C1294.4,3725.2,1293,3726.6,1291.3,3726.6z"/>
			<path class="st0" d="M1382.1,3726.6h-69.7c-1.7,0-3.1-1.4-3.1-3.1v-69.7c0-1.7,1.4-3.1,3.1-3.1h69.7c1.7,0,3.1,1.4,3.1,3.1v69.7
				C1385.2,3725.2,1383.8,3726.6,1382.1,3726.6z"/>
			<path class="st0" d="M1472.9,3726.6h-69.7c-1.7,0-3.1-1.4-3.1-3.1v-69.7c0-1.7,1.4-3.1,3.1-3.1h69.7c1.7,0,3.1,1.4,3.1,3.1v69.7
				C1476.1,3725.2,1474.7,3726.6,1472.9,3726.6z"/>
			<path class="st0" d="M1563.2,3726.6h-69.7c-1.7,0-3.1-1.4-3.1-3.1v-69.7c0-1.7,1.4-3.1,3.1-3.1h69.7c1.7,0,3.1,1.4,3.1,3.1v69.7
				C1566.3,3725.2,1564.9,3726.6,1563.2,3726.6z"/>
			<path class="st0" d="M1651.4,3726.6h-69.7c-1.7,0-3.1-1.4-3.1-3.1v-69.7c0-1.7,1.4-3.1,3.1-3.1h69.7c1.7,0,3.1,1.4,3.1,3.1v69.7
				C1654.6,3725.2,1653.2,3726.6,1651.4,3726.6z"/>
			<path class="st0" d="M1743,3726.6h-69.7c-1.7,0-3.1-1.4-3.1-3.1v-69.7c0-1.7,1.4-3.1,3.1-3.1h69.7c1.7,0,3.1,1.4,3.1,3.1v69.7
				C1746.1,3725.2,1744.7,3726.6,1743,3726.6z"/>
			<path class="st0" d="M1833.5,3726.6h-69.7c-1.7,0-3.1-1.4-3.1-3.1v-69.7c0-1.7,1.4-3.1,3.1-3.1h69.7c1.7,0,3.1,1.4,3.1,3.1v69.7
				C1836.6,3725.2,1835.2,3726.6,1833.5,3726.6z"/>
			<path class="st0" d="M1922.4,3726.6h-69.7c-1.7,0-3.1-1.4-3.1-3.1v-69.7c0-1.7,1.4-3.1,3.1-3.1h69.7c1.7,0,3.1,1.4,3.1,3.1v69.7
				C1925.6,3725.2,1924.2,3726.6,1922.4,3726.6z"/>
			<path class="st0" d="M2015.1,3726.6h-69.7c-1.7,0-3.1-1.4-3.1-3.1v-69.7c0-1.7,1.4-3.1,3.1-3.1h69.7c1.7,0,3.1,1.4,3.1,3.1v69.7
				C2018.3,3725.2,2016.9,3726.6,2015.1,3726.6z"/>
			<path class="st0" d="M2103.7,3726.6h-69.7c-1.7,0-3.1-1.4-3.1-3.1v-69.7c0-1.7,1.4-3.1,3.1-3.1h69.7c1.7,0,3.1,1.4,3.1,3.1v69.7
				C2106.9,3725.2,2105.5,3726.6,2103.7,3726.6z"/>
			<path class="st0" d="M2194.9,3726.6h-69.7c-1.7,0-3.1-1.4-3.1-3.1v-69.7c0-1.7,1.4-3.1,3.1-3.1h69.7c1.7,0,3.1,1.4,3.1,3.1v69.7
				C2198.1,3725.2,2196.7,3726.6,2194.9,3726.6z"/>
			<path class="st0" d="M1064.5,3638.7h-69.7c-1.7,0-3.1-1.4-3.1-3.1v-69.7c0-1.7,1.4-3.1,3.1-3.1h69.7c1.7,0,3.1,1.4,3.1,3.1v69.7
				C1067.7,3637.3,1066.3,3638.7,1064.5,3638.7z"/>
			<path class="st0" d="M1153.9,3638.7h-69.7c-1.7,0-3.1-1.4-3.1-3.1v-69.7c0-1.7,1.4-3.1,3.1-3.1h69.7c1.7,0,3.1,1.4,3.1,3.1v69.7
				C1157,3637.3,1155.6,3638.7,1153.9,3638.7z"/>
			<path class="st0" d="M1245.5,3638.7h-69.7c-1.7,0-3.1-1.4-3.1-3.1v-69.7c0-1.7,1.4-3.1,3.1-3.1h69.7c1.7,0,3.1,1.4,3.1,3.1v69.7
				C1248.6,3637.3,1247.2,3638.7,1245.5,3638.7z"/>
			<path class="st0" d="M1334.8,3638.7h-69.7c-1.7,0-3.1-1.4-3.1-3.1v-69.7c0-1.7,1.4-3.1,3.1-3.1h69.7c1.7,0,3.1,1.4,3.1,3.1v69.7
				C1337.9,3637.3,1336.5,3638.7,1334.8,3638.7z"/>
			<path class="st0" d="M1426.9,3638.7h-69.7c-1.7,0-3.1-1.4-3.1-3.1v-69.7c0-1.7,1.4-3.1,3.1-3.1h69.7c1.7,0,3.1,1.4,3.1,3.1v69.7
				C1430,3637.3,1428.6,3638.7,1426.9,3638.7z"/>
			<path class="st0" d="M1515.4,3638.7h-69.7c-1.7,0-3.1-1.4-3.1-3.1v-69.7c0-1.7,1.4-3.1,3.1-3.1h69.7c1.7,0,3.1,1.4,3.1,3.1v69.7
				C1518.5,3637.3,1517.1,3638.7,1515.4,3638.7z"/>
			<path class="st0" d="M1607.3,3638.7h-69.7c-1.7,0-3.1-1.4-3.1-3.1v-69.7c0-1.7,1.4-3.1,3.1-3.1h69.7c1.7,0,3.1,1.4,3.1,3.1v69.7
				C1610.5,3637.3,1609,3638.7,1607.3,3638.7z"/>
			<path class="st0" d="M1696.7,3638.7H1627c-1.7,0-3.1-1.4-3.1-3.1v-69.7c0-1.7,1.4-3.1,3.1-3.1h69.7c1.7,0,3.1,1.4,3.1,3.1v69.7
				C1699.8,3637.3,1698.4,3638.7,1696.7,3638.7z"/>
			<path class="st0" d="M1788.4,3638.7h-69.7c-1.7,0-3.1-1.4-3.1-3.1v-69.7c0-1.7,1.4-3.1,3.1-3.1h69.7c1.7,0,3.1,1.4,3.1,3.1v69.7
				C1791.6,3637.3,1790.2,3638.7,1788.4,3638.7z"/>
			<path class="st0" d="M1880,3638.7h-69.7c-1.7,0-3.1-1.4-3.1-3.1v-69.7c0-1.7,1.4-3.1,3.1-3.1h69.7c1.7,0,3.1,1.4,3.1,3.1v69.7
				C1883.1,3637.3,1881.7,3638.7,1880,3638.7z"/>
			<path class="st0" d="M1970.6,3638.7H1901c-1.7,0-3.1-1.4-3.1-3.1v-69.7c0-1.7,1.4-3.1,3.1-3.1h69.7c1.7,0,3.1,1.4,3.1,3.1v69.7
				C1973.8,3637.3,1972.4,3638.7,1970.6,3638.7z"/>
			<path class="st0" d="M2057.8,3638.7h-69.7c-1.7,0-3.1-1.4-3.1-3.1v-69.7c0-1.7,1.4-3.1,3.1-3.1h69.7c1.7,0,3.1,1.4,3.1,3.1v69.7
				C2060.9,3637.3,2059.5,3638.7,2057.8,3638.7z"/>
			<path class="st0" d="M2188.3,3638.7h-104.2c-4.8,0-8.7-3.9-8.7-8.7v-58.5c0-4.8,3.9-8.7,8.7-8.7h104.2c4.8,0,8.7,3.9,8.7,8.7
				v58.5C2197.1,3634.8,2193.1,3638.7,2188.3,3638.7z"/>
			<path class="st0" d="M1012.5,3726.6H908.3c-4.8,0-8.7-3.9-8.7-8.7v-58.5c0-4.8,3.9-8.7,8.7-8.7h104.2c4.8,0,8.7,3.9,8.7,8.7v58.5
				C1021.2,3722.7,1017.3,3726.6,1012.5,3726.6z"/>
		</g>
		<path class="st34" d="M2150.4,3431.8H944.2c-4.1,0-7.5-3.3-7.5-7.5v-17.5c0-4.1,3.3-7.5,7.5-7.5h1206.1c4.1,0,7.5,3.3,7.5,7.5
			v17.5C2157.8,3428.4,2154.5,3431.8,2150.4,3431.8z"/>
		<path class="st32" d="M2278,3399.3H816.7c-13.4,0-26-8.3-30.6-20.3l-229.6-595.2c-2.4-6.1,1.5-12,7.9-12h1962.8
			c7.3,0,11.8,6.8,9.1,13.9l-225.9,592.2C2305.4,3390.5,2292.1,3399.3,2278,3399.3z"/>
		<path class="st34" d="M2540.1,2771l-1985.5,0.8c0,0,10.6-13.6,17.4-19.8c6.8-6.2,24-15.8,24-15.8h1897.9c0,0,19.3,12.2,23.9,15.8
			C2522.3,2755.6,2540.1,2771,2540.1,2771z"/>
		<polygon class="st35" points="2275.2,3334.7 824.6,3334.7 634.8,2806.7 2463.9,2806.7 		"/>
		<path class="st8" d="M2150.4,3431.8H944.1c-4.1,0-7.4-3.3-7.4-7.4v-4.6h1221.1v4.6C2157.8,3428.4,2154.5,3431.8,2150.4,3431.8z"/>
		<path class="st13" d="M2646.7,5456.1H389.9l36-241.9L551.4,4899c3.7,0,105.4-62.8,292.8-118.4c171.1-50.7,413.6-95.3,718.2-80.5
			c0,0,316.8-20.7,894.5,160.1L2646.7,5456.1z"/>
		<path class="st36" d="M2148.1,4578.2l-5.1-19.8c0,0-55.3,1.7-78.2-21.5c0,0-195.1-187.5-224.6-221.2c0,0-14.8-64.5,52.5-55.6
			c0,0,12.2-2.9,29.6,11.2l78.2,70.2l-94.6-319.6c-3.1-10.3-3.5-21.3-0.8-31.7c3.4-13.7,12.6-29.3,35.5-35.2c0,0,12.4-3.6,28.2,5
			c13.6,7.4,18.1,20.3,22.5,35.1l85.3,250l-78.9-285.3c-4.6-15.8-10.4-45.1-1.2-58.8c7.9-11.7,25.5-21.5,43.9-21.5
			c0,0,32,2.4,47,40.8l85.1,273l-56.9-225.7c-5-18.2-14.6-61.9,3.6-75.1c4.9-3.5,12.1-5.6,19.1-6.9c0,0,24-11.3,45.2,21.4
			c3.7,5.7,10.1,22.8,12,29.2l80.5,245.3l-43.6-168.2c-5.1-17.5-5.1-38.5,9.4-49.6c4.8-3.7,10.5-6.5,17.2-7.4
			c0,0,36.6-8.9,51.3,36.6L2389,4293l14.2,68.7c3.8,18.3,4.9,37,3.1,55.5c-1.3,13-4.1,27.2-9.8,40.4c0,0-10.3,26.5-17.2,28.9
			l8.1,25.5L2148.1,4578.2z"/>
		<path class="st37" d="M2158.3,4576.6l-5.1-19.8c0,0-55.3,1.7-78.2-21.5c0,0-195.1-187.5-224.6-221.2c0,0-14.8-64.5,52.5-55.6
			c0,0,12.2-2.9,29.6,11.2l78.2,70.2l-94.6-319.6c-3.1-10.3-3.5-21.3-0.8-31.7c3.4-13.7,12.6-29.3,35.5-35.2c0,0,12.4-3.6,28.2,5
			c13.6,7.4,18.1,20.3,22.5,35.1l85.3,250l-78.9-285.3c-4.6-15.8-10.4-45.1-1.2-58.8c7.9-11.7,25.5-21.5,43.9-21.5
			c0,0,32,2.4,47,40.8l85.1,273l-56.9-225.7c-5-18.2-14.6-61.9,3.6-75.1c4.9-3.5,12.1-5.6,19.1-6.9c0,0,24-11.3,45.2,21.4
			c3.7,5.7,10.1,22.8,12,29.2l80.5,245.3l-43.6-168.2c-5.1-17.5-5.1-38.5,9.4-49.6c4.8-3.7,10.5-6.5,17.2-7.4
			c0,0,36.6-8.9,51.3,36.6l78.7,300.1l14.2,68.7c3.8,18.3,4.9,37,3.1,55.5c-1.3,13-4.1,27.2-9.8,40.4c0,0-10.3,26.5-17.2,28.9
			l8.1,25.5L2158.3,4576.6z"/>
		
			<rect x="2258.9" y="4384.2" transform="matrix(-0.2919 -0.9564 0.9564 -0.2919 -1404.9301 8047.7036)" class="st0" width="35.1" height="319.3"/>
		<path class="st13" d="M2434.9,4507.5l10.9,43.4c0,0,103.7,367.4,180.4,674.1c24.9,99.6,44.5,184.5,53.3,231.2l-406.9-0.1
			c-6.7-153.1-110.3-644.7-110.3-644.7l-51.9-203.8l70.4-22L2434.9,4507.5z"/>
		<path class="st0" d="M2428.8,4634.6c5.8-4.8,14.4-4.1,19.2,1.7s4.1,14.4-1.7,19.2s-14.4,4.1-19.2-1.7
			C2422.2,4648,2423,4639.4,2428.8,4634.6z"/>
		<path class="st0" d="M2441.2,4677c5.8-4.8,14.4-4.1,19.2,1.7s4.1,14.4-1.7,19.2c-5.8,4.8-14.4,4.1-19.2-1.7
			C2434.7,4690.5,2435.5,4681.9,2441.2,4677z"/>
		
			<ellipse transform="matrix(0.8434 -0.5372 0.5372 0.8434 -2156.0481 2063.1448)" class="st0" cx="2461.6" cy="4730.6" rx="13.6" ry="13.6"/>
		<path class="st38" d="M1943.6,4040.4l51.2-15.1c4.4-1.3,6.8-5.9,5.5-10.3l-8.9-27.8c0,0-8.4-21.7-37.4-16.9
			c0,0-24.2,4.9-28.7,28.7c0,0-1.1,9.7,5.6,26.9l2.6,9C1934.7,4039.2,1939.3,4041.7,1943.6,4040.4z"/>
		<path class="st38" d="M2033.9,3965l49-14.5c4.2-1.2,6.5-5.7,5.2-9.8l-8.5-26.7c0,0-8-20.7-35.8-16.2c0,0-23.2,4.7-27.4,27.5
			c0,0-1,9.2,5.3,25.7l2.5,8.6C2025.4,3963.8,2029.8,3966.2,2033.9,3965z"/>
		<path class="st38" d="M2143.8,3956l42.7-10.6c3.6-0.9,5.8-4.6,4.9-8.3l-6.3-23.3c0,0-6.1-18.2-30.2-15.3c0,0-20.1,3.1-24.7,22.6
			c0,0-1.3,7.9,3.6,22.4l1.8,7.5C2136.5,3954.7,2140.2,3956.9,2143.8,3956z"/>
		<path class="st38" d="M2265.4,4025.4l41.8-10.3c3.6-0.9,5.7-4.5,4.8-8.1l-6.1-22.7c0,0-5.9-17.8-29.5-15c0,0-19.7,3.1-24.1,22.1
			c0,0-1.2,7.7,3.5,21.9l1.8,7.3C2258.3,4024.1,2261.9,4026.2,2265.4,4025.4z"/>
		<path class="st38" d="M1887.4,4333.5l21.8-24.2c1.9-2.1,1.1-5.6-1.6-7.8l-17.6-14.2c0,0-14.6-10.6-28.7,0.8c0,0-11.3,10.1-3,25.8
			c0,0,3.8,6.1,15.4,14.6l5.6,4.7C1881.9,4335.3,1885.5,4335.5,1887.4,4333.5z"/>
		<path class="st36" d="M921.2,4425.9l4.9-18.7c0,0,52.4,1.6,74.1-20.4c0,0,184.8-177.6,212.7-209.5c0,0,14-61.1-49.7-52.7
			c0,0-11.5-2.8-28.1,10.6l-74.1,66.5l89.6-302.7c2.9-9.8,3.3-20.2,0.8-30.1c-3.3-13-11.9-27.7-33.6-33.3c0,0-11.8-3.4-26.7,4.8
			c-12.9,7-17.1,19.2-21.4,33.3l-80.8,236.8l74.8-270.2c4.4-15,9.9-42.7,1.2-55.7c-7.4-11.1-24.2-20.4-41.6-20.3
			c0,0-30.3,2.3-44.5,38.6l-80.6,258.5l53.9-213.8c4.7-17.2,13.9-58.6-3.4-71.2c-4.6-3.4-11.5-5.3-18.1-6.6c0,0-22.8-10.7-42.8,20.3
			c-3.5,5.4-9.5,21.5-11.4,27.7l-76.2,232.4l41.3-159.3c4.8-16.6,4.8-36.5-8.9-47c-4.5-3.5-9.9-6.1-16.3-7c0,0-34.7-8.5-48.6,34.6
			l-74.5,284.2l-13.4,65.1c-3.6,17.3-4.7,35-2.9,52.6c1.2,12.3,3.9,25.8,9.3,38.2c0,0,9.7,25.1,16.3,27.4l-7.6,24.1L921.2,4425.9z"
			/>
		<path class="st37" d="M916.5,4417.5l4.9-18.7c0,0,52.4,1.6,74.1-20.4c0,0,184.8-177.6,212.7-209.5c0,0,14-61.1-49.7-52.7
			c0,0-11.5-2.8-28.1,10.6l-74.1,66.5l89.6-302.7c2.9-9.8,3.3-20.2,0.8-30.1c-3.3-13-11.9-27.7-33.6-33.3c0,0-11.8-3.4-26.7,4.8
			c-12.9,7-17.1,19.2-21.4,33.3l-80.8,236.8l74.8-270.2c4.4-15,9.9-42.7,1.2-55.7c-7.4-11.1-24.2-20.4-41.6-20.3
			c0,0-30.3,2.3-44.5,38.6L893.4,4053l53.9-213.8c4.7-17.2,13.9-58.6-3.4-71.2c-4.6-3.4-11.5-5.3-18.1-6.6c0,0-22.8-10.7-42.8,20.3
			c-3.5,5.4-9.5,21.5-11.4,27.7l-76.2,232.4l41.3-159.3c4.8-16.6,4.8-36.5-8.9-47c-4.5-3.5-9.9-6.1-16.3-7c0,0-34.7-8.5-48.6,34.6
			l-74.5,284.2l-13.4,65.1c-3.6,17.3-4.7,35-2.9,52.6c1.2,12.3,3.9,25.8,9.3,38.2c0,0,9.7,25.1,16.3,27.4l-7.6,24.1L916.5,4417.5z"
			/>
		
			<rect x="790.1" y="4235.1" transform="matrix(0.2692 -0.9631 0.9631 0.2692 -3642.2737 3989.5154)" class="st0" width="35.1" height="319.3"/>
		<path class="st13" d="M960.1,4457.3l-18.2,71.6l-62.1,244.8h-0.6c-2.8,12.3-5.6,24.8-8.5,37.6
			c-49.1,219.5-103.6,491.6-110.3,644.7l-423.7,0.1c8.9-46.7,27.1-134.1,53.2-233.4c48.3-184.4,126.6-413.2,176.3-587l70.5-278
			L960.1,4457.3z"/>
		<path class="st0" d="M679.4,4469.6c-5.8-4.8-14.4-4.1-19.2,1.7c-4.8,5.8-4.1,14.4,1.7,19.2c5.8,4.8,14.4,4.1,19.2-1.7
			C686,4483.1,685.2,4474.5,679.4,4469.6z"/>
		<path class="st0" d="M666.9,4512c-5.8-4.8-14.4-4.1-19.2,1.7c-4.8,5.8-4.1,14.4,1.7,19.2c5.8,4.8,14.4,4.1,19.2-1.7
			C673.5,4525.5,672.7,4516.9,666.9,4512z"/>
		<path class="st0" d="M655.3,4555.2c-5.8-4.8-14.4-4.1-19.2,1.7c-4.8,5.8-4.1,14.4,1.7,19.2c5.8,4.8,14.4,4.1,19.2-1.7
			C661.8,4568.6,661.1,4560,655.3,4555.2z"/>
		<path class="st38" d="M1119.8,3909.6l-48.5-14.3c-4.1-1.2-6.5-5.6-5.2-9.7l8.4-26.4c0,0,7.9-20.5,35.5-16c0,0,22.9,4.7,27.2,27.2
			c0,0,1,9.1-5.3,25.5l-2.5,8.5C1128.2,3908.5,1123.9,3910.9,1119.8,3909.6z"/>
		<path class="st38" d="M1034.3,3838.2l-46.4-13.7c-4-1.2-6.2-5.4-4.9-9.3l8-25.2c0,0,7.6-19.6,33.9-15.3c0,0,21.9,4.5,26,26
			c0,0,1,8.8-5,24.4l-2.4,8.2C1042.3,3837.1,1038.2,3839.3,1034.3,3838.2z"/>
		<path class="st38" d="M930.2,3829.7l-40.5-10c-3.5-0.9-5.5-4.4-4.6-7.8l5.9-22c0,0,5.7-17.2,28.6-14.5c0,0,19,3,23.4,21.4
			c0,0,1.2,7.5-3.4,21.2l-1.7,7.1C937.1,3828.4,933.6,3830.5,930.2,3829.7z"/>
		<path class="st38" d="M815,3895.4l-39.6-9.8c-3.4-0.8-5.4-4.3-4.5-7.6l5.8-21.5c0,0,5.6-16.8,28-14.2c0,0,18.6,2.9,22.9,20.9
			c0,0,1.2,7.3-3.3,20.7l-1.7,6.9C821.7,3894.2,818.3,3896.2,815,3895.4z"/>
		<path class="st38" d="M1173.1,4187.2l-20.6-22.9c-1.8-2-1.1-5.3,1.5-7.4l16.7-13.5c0,0,13.8-10.1,27.1,0.8c0,0,10.7,9.5,2.8,24.4
			c0,0-3.6,5.8-14.6,13.8l-5.3,4.4C1178.3,4189,1174.8,4189.1,1173.1,4187.2z"/>
		<path class="st12" d="M960.1,4457.3c-5.2,14.8-11.3,39.5-18.2,71.6l-62.1,244.8h-0.6c-2.8,12.3-5.6,24.8-8.5,37.6
			c-49.1,219.5-103.6,491.6-110.3,644.7h-139L803,4721.1c0,0,20.4-72,34.4-164.1c13.9-91.7-64.1-157.2-64.1-157.2L960.1,4457.3z"/>
		<path class="st12" d="M2256.2,4562c0,0-29.2,41-36.3,99.5c-7.1,58.5,8.7,128,8.7,128l155.6,666.6h-111.5
			c-6.7-153.1-110.3-644.7-110.3-644.7l-51.9-203.8L2256.2,4562z"/>
		<path class="st39" d="M691.6,1580.2l-51.6-52.9c-20.7-21.2-25.7-53.1-12.4-79.6c27.8-55.3,84.9-146.3,176.9-192.6
			c32.6-16.4,72.4-6,92.8,24.3l35,51.9C932.3,1331.3,783.5,1369.8,691.6,1580.2z"/>
		<path class="st14" d="M1685.1,0.4c26.6,1.8,51.3,9.6,73.6,20.7c0.7,0.3,1.3,0.6,2,1c75.1,38.1,111.5,148.8,117,232.8l3.1,34.8
			l0.8,8.9l51.6,579.5c-176.4-146.3-330.2-7.5-330.2-7.5l-38.1-162.8c-12-51.5-31.2-100.9-56.6-147.3
			c-57.7-105-149.8-328.5,3.4-481.6c3.7-3.7,7.4-7.2,11-10.6c31.6-29.2,62.1-47.6,91.2-57.8C1638.8,1.6,1662.6-1.1,1685.1,0.4z"/>
		<path class="st39" d="M1950.4,950.8l-0.9-73.9c-0.4-29.6-19.4-55.7-47.5-65c-58.7-19.5-163.4-43.4-261.2-11.1
			c-34.7,11.5-55.4,47-48.5,82.8l10.1,62.4C1602.4,946,1734.3,869.9,1950.4,950.8z"/>
		<path class="st39" d="M594,927.8c0,0-46.9,33.8-91.3,74.2c-30.9,28.1-82.5,83.8-82.5,83.8c-5.8,5.3-13.6,6.3-17.2,2.2l-3.4-3.7
			c-3.7-4.1-1.2-11,3.8-16.9c0,0,31.1-36.8,82.6-83.7c55.2-50.2,91.2-74.3,91.2-74.3c8.1-5.3,13.6-6.3,17.2-2.2l3.4,3.7
			C601.5,914.9,599.8,922.5,594,927.8z"/>
		<path class="st39" d="M552.5,880.6c0,0-46.9,33.8-91.3,74.2c-30.9,28.1-82.5,83.8-82.5,83.8c-5.8,5.3-13.6,6.3-17.2,2.2l-3.4-3.7
			c-3.7-4.1-1.2-11,3.8-16.9c0,0,31.1-36.8,82.6-83.7c55.2-50.2,91.2-74.3,91.2-74.3c8.1-5.3,13.6-6.3,17.2-2.2l3.4,3.7
			C560,867.7,558.3,875.3,552.5,880.6z"/>
		<path class="st39" d="M513.1,831.7c0,0-46.9,33.8-91.3,74.2c-30.9,28.1-82.5,83.8-82.5,83.8c-5.8,5.3-13.6,6.3-17.2,2.2l-3.4-3.7
			c-3.7-4.1-1.2-11,3.8-16.9c0,0,31.1-36.8,82.6-83.7c55.2-50.2,91.2-74.3,91.2-74.3c8.1-5.3,13.6-6.3,17.2-2.2l3.4,3.7
			C520.6,818.8,518.9,826.4,513.1,831.7z"/>
		<path class="st39" d="M1803.6,372.8c0,0-57.8,0.3-117.4,7.4c-41.5,4.9-115.8,20.3-115.8,20.3c-7.8,0.9-14.7-2.8-15.3-8.2l-0.6-4.9
			c-0.6-5.4,5.4-9.6,13-11.6c0,0,46.7-12,115.9-20.2c74.1-8.8,117.4-7.5,117.4-7.5c9.7,0.4,14.7,2.8,15.3,8.2l0.6,4.9
			C1817.2,366.7,1811.4,371.9,1803.6,372.8z"/>
		<path class="st39" d="M1797.2,310.2c0,0-57.8,0.3-117.4,7.4C1638.3,322.6,1564,338,1564,338c-7.8,0.9-14.7-2.8-15.3-8.2l-0.6-4.9
			c-0.6-5.4,5.4-9.6,13-11.6c0,0,46.7-12,115.9-20.2c74.1-8.8,117.4-7.5,117.4-7.5c9.7,0.4,14.7,2.8,15.3,8.2l0.6,4.9
			C1810.8,304.1,1805,309.3,1797.2,310.2z"/>
		<path class="st39" d="M1793.5,247.5c0,0-57.8,0.3-117.4,7.4c-41.5,4.9-115.8,20.3-115.8,20.3c-7.8,0.9-14.7-2.8-15.3-8.2l-0.6-4.9
			c-0.6-5.4,5.4-9.6,13-11.6c0,0,46.7-12,115.9-20.2c74.1-8.8,117.4-7.5,117.4-7.5c9.7,0.4,14.7,2.8,15.3,8.2l0.6,4.9
			C1807.1,241.4,1801.2,246.6,1793.5,247.5z"/>
		<path class="st40" d="M242.3,689.8L242.3,689.8c-64.8,137.2,81,433.4,81,433.4l-72.4-86.6c-55.5-63.3-108-167.3-81.8-247.4
			C181.3,751.7,203.5,715.4,242.3,689.8z"/>
		<path class="st40" d="M1881.5,298.5l-0.8-8.9C1881.1,292.6,1881.4,295.5,1881.5,298.5z"/>
		<path class="st40" d="M1685.1,0.4c33.8,2.5,58.4,13.4,73.6,20.7c0.7,0.3,1.3,0.6,2,1c75.1,38.1,111.5,148.8,117,232.8l3.1,34.8
			c-21.8-189.9-351.1-218.5-358-221.4c31.6-29.2,62.1-47.6,91.2-57.8C1638.8,1.6,1662.6-1.1,1685.1,0.4z"/>
	</g>
</g>
<g id="Layer_3">
</g>
</svg>
