<?xml version="1.0" encoding="utf-8"?>
<!-- Generator: Adobe Illustrator 23.0.1, SVG Export Plug-In . SVG Version: 6.00 Build 0)  -->
<svg version="1.1" xmlns="http://www.w3.org/2000/svg" xmlns:xlink="http://www.w3.org/1999/xlink" x="0px" y="0px"
	 viewBox="0 0 403.5 312.1" style="enable-background:new 0 0 403.5 312.1;" xml:space="preserve">
<style type="text/css">
	.st0{opacity:8.000000e-02;}
	.st1{opacity:0.25;}
	.st2{opacity:0.25;fill:#FFFFFF;}
	.st3{fill:url(#SVGID_1_);}
	.st4{fill:url(#SVGID_2_);}
	.st5{fill:#002A66;}
	.st6{fill:#EEF8FF;}
	.st7{fill:#FFFFFF;}
	.st8{fill:url(#SVGID_3_);}
	.st9{fill:url(#SVGID_4_);}
	.st10{opacity:0.86;fill:#B3B3FF;}
	.st11{fill:url(#SVGID_5_);}
	.st12{fill:url(#SVGID_6_);}
	.st13{fill:url(#SVGID_7_);}
	.st14{fill:url(#SVGID_8_);}
	.st15{fill:url(#SVGID_9_);}
	.st16{fill:#010D19;}
	.st17{fill:url(#SVGID_10_);}
	.st18{fill:url(#SVGID_11_);}
	.st19{fill:url(#SVGID_12_);}
	.st20{fill:url(#SVGID_13_);}
	.st21{opacity:0.35;}
	.st22{fill:url(#SVGID_14_);}
	.st23{fill:#FFB7A9;}
	.st24{fill:url(#SVGID_15_);}
	.st25{fill:#0049B2;}
	.st26{fill:url(#SVGID_16_);}
	.st27{fill:url(#SVGID_17_);}
	.st28{fill:#A2A5AA;}
	.st29{fill:url(#SVGID_18_);}
	
		.st30{opacity:0.25;fill:none;stroke:#FFFFFF;stroke-width:1.1792;stroke-linecap:round;stroke-linejoin:round;stroke-miterlimit:10;}
	.st31{fill:url(#SVGID_19_);}
	.st32{fill:url(#SVGID_20_);}
	.st33{fill:url(#SVGID_21_);}
	.st34{fill:url(#SVGID_22_);}
	.st35{fill:#9CACF2;}
	.st36{fill:#C7CFFF;}
	.st37{fill:#7189E2;}
	.st38{fill:url(#SVGID_23_);}
	.st39{fill:url(#SVGID_24_);}
	.st40{fill:url(#SVGID_25_);}
	.st41{fill:url(#SVGID_26_);}
	.st42{fill:#B3CEE8;}
	.st43{opacity:0.28;}
	.st44{fill:none;stroke:url(#SVGID_27_);stroke-width:2.9479;stroke-linecap:round;stroke-linejoin:round;stroke-miterlimit:10;}
	.st45{fill:none;stroke:#FFFFFF;stroke-width:2.9479;stroke-linecap:round;stroke-linejoin:round;stroke-miterlimit:10;}
	.st46{fill:url(#SVGID_28_);}
	.st47{fill:none;stroke:url(#SVGID_29_);stroke-width:2.9479;stroke-linecap:round;stroke-linejoin:round;stroke-miterlimit:10;}
	.st48{fill:none;stroke:url(#SVGID_30_);stroke-width:2.9479;stroke-linecap:round;stroke-linejoin:round;stroke-miterlimit:10;}
	.st49{fill:url(#SVGID_31_);}
	.st50{fill:url(#SVGID_32_);}
	.st51{fill:none;stroke:#66D7FF;stroke-width:1.1792;stroke-linecap:round;stroke-linejoin:round;stroke-miterlimit:10;}
	.st52{fill:none;stroke:#0098FF;stroke-width:1.1792;stroke-linecap:round;stroke-linejoin:round;stroke-miterlimit:10;}
	.st53{fill:url(#SVGID_33_);}
	.st54{fill:url(#SVGID_34_);}
	.st55{fill:url(#SVGID_35_);}
	.st56{fill:url(#SVGID_36_);}
</style>
<g id="BACKGROUND">
</g>
<g id="OBJECTS">
	<path class="st0" d="M346.4,267.9c-5.5,10.3-10.8,19.6-15.2,26.9c-6.4,10.6-10.8,17.3-10.8,17.3H84.1c-4.9,0-8.9-4.1-8.6-9.1
		c0.1-2.3,1.2-4.4,2.8-5.9c1.6-1.5,3.8-2.4,6.1-2.4c4.9,0,7.1-6.2,3.1-9.3c-2.3-1.8-4.9-3.9-7.6-6.2c-5.2-4.5-10.9-9.9-16.8-16.4
		c-4.2-4.6-8.4-9.8-12.5-15.4h0c-8.4-11.6-16.4-25.5-22.5-41.7c18.6,18.7,45.9,38.1,80.3,40.4c68.2,4.6,196.1-122.2,251.9-100.1
		C395.7,160.2,369.9,223.7,346.4,267.9z"/>
	<g>
		<g>
			
				<rect x="95.6" y="208.3" transform="matrix(-1 -1.224647e-16 1.224647e-16 -1 212.8195 424.7253)" class="st1" width="21.6" height="8.1"/>
			
				<rect x="71.4" y="208.3" transform="matrix(-1 -1.224647e-16 1.224647e-16 -1 164.4132 424.7253)" class="st1" width="21.6" height="8.1"/>
		</g>
		<g>
			
				<rect x="83.5" y="219.7" transform="matrix(-1 -1.224647e-16 1.224647e-16 -1 188.6164 447.4918)" class="st2" width="21.6" height="8.1"/>
			
				<rect x="59.3" y="219.7" transform="matrix(-1 -1.224647e-16 1.224647e-16 -1 140.2101 447.4918)" class="st2" width="21.6" height="8.1"/>
		</g>
	</g>
	<g>
		<g>
			<rect x="244" y="7.6" class="st1" width="21.6" height="8.1"/>
			<rect x="268.2" y="7.6" class="st1" width="21.6" height="8.1"/>
		</g>
		<g>
			<rect x="256.1" y="19" class="st2" width="21.6" height="8.1"/>
			<rect x="280.3" y="19" class="st2" width="21.6" height="8.1"/>
		</g>
	</g>
	<g>
		
			<radialGradient id="SVGID_1_" cx="52.1769" cy="8.2952" r="45.3286" gradientTransform="matrix(0.9183 -0.3959 0.3472 0.8053 16.0058 153.6617)" gradientUnits="userSpaceOnUse">
			<stop  offset="0" style="stop-color:#3E84FF"/>
			<stop  offset="0.3286" style="stop-color:#5469FF;stop-opacity:0.6714"/>
			<stop  offset="0.7569" style="stop-color:#6B4BFF;stop-opacity:0.2431"/>
			<stop  offset="1" style="stop-color:#7440FF;stop-opacity:0"/>
		</radialGradient>
		<path class="st3" d="M117.1,118c10.7,24.8-3.2,54.5-30.9,66.5c-27.8,12-58.9,1.6-69.6-23.2s3.2-54.5,30.9-66.5
			S106.4,93.3,117.1,118z"/>
		<linearGradient id="SVGID_2_" gradientUnits="userSpaceOnUse" x1="33.8011" y1="15.0676" x2="69.43" y2="308.437">
			<stop  offset="0" style="stop-color:#3E84FF"/>
			<stop  offset="1" style="stop-color:#7440FF"/>
		</linearGradient>
		<path class="st4" d="M92.2,83.4v65.9c0,2.4-1.9,4.3-4.3,4.3H4.3c-2.4,0-4.3-1.9-4.3-4.3V83.4c0-2.4,1.9-4.3,4.3-4.3h83.6
			C90.3,79.1,92.2,81,92.2,83.4z"/>
		<path class="st5" d="M39,90.5H7.9c-0.9,0-1.6-0.7-1.6-1.6l0,0c0-0.9,0.7-1.6,1.6-1.6H39c0.9,0,1.6,0.7,1.6,1.6l0,0
			C40.6,89.7,39.9,90.5,39,90.5z"/>
		<path class="st6" d="M39,101.6H7.9c-0.9,0-1.6-0.7-1.6-1.6l0,0c0-0.9,0.7-1.6,1.6-1.6H39c0.9,0,1.6,0.7,1.6,1.6l0,0
			C40.6,100.9,39.9,101.6,39,101.6z"/>
		<path class="st5" d="M49.4,112.7H7.9c-0.9,0-1.6-0.7-1.6-1.6l0,0c0-0.9,0.7-1.6,1.6-1.6h41.5c0.9,0,1.6,0.7,1.6,1.6l0,0
			C51,112,50.3,112.7,49.4,112.7z"/>
		<path class="st5" d="M49.4,143.8H7.9c-0.9,0-1.6-0.7-1.6-1.6l0,0c0-0.9,0.7-1.6,1.6-1.6h41.5c0.9,0,1.6,0.7,1.6,1.6l0,0
			C51,143.1,50.3,143.8,49.4,143.8z"/>
		<path class="st6" d="M79.6,143.8H58.7c-0.9,0-1.6-0.7-1.6-1.6l0,0c0-0.9,0.7-1.6,1.6-1.6h20.9c0.9,0,1.6,0.7,1.6,1.6l0,0
			C81.2,143.1,80.5,143.8,79.6,143.8z"/>
		<g>
			<path class="st7" d="M30,120.2v4.7c0,0.4,0.3,0.7,0.7,0.7h2.6c0.4,0,0.7-0.3,0.7-0.7v-4.7c0-0.4,0.3-0.7,0.7-0.7h0.3
				c0.4,0,0.7,0.3,0.7,0.7v12.9c0,0.4-0.3,0.7-0.7,0.7h-0.3c-0.4,0-0.7-0.3-0.7-0.7v-5.3c0-0.4-0.3-0.7-0.7-0.7h-2.6
				c-0.4,0-0.7,0.3-0.7,0.7v5.3c0,0.4-0.3,0.7-0.7,0.7h-0.3c-0.4,0-0.7-0.3-0.7-0.7v-12.9c0-0.4,0.3-0.7,0.7-0.7h0.3
				C29.7,119.5,30,119.8,30,120.2z"/>
			<path class="st7" d="M39.1,121h-1.2c-0.4,0-0.7-0.3-0.7-0.7v-0.1c0-0.4,0.3-0.7,0.7-0.7h5.4c0.4,0,0.7,0.3,0.7,0.7v0.1
				c0,0.4-0.3,0.7-0.7,0.7h-1.2c-0.4,0-0.7,0.3-0.7,0.7v11.4c0,0.4-0.3,0.7-0.7,0.7h-0.3c-0.4,0-0.7-0.3-0.7-0.7v-11.4
				C39.8,121.3,39.5,121,39.1,121z"/>
			<path class="st7" d="M54.2,127.6c-0.1-1.9-0.2-4-0.1-5.6h-0.1c-0.3,1.6-0.7,3.3-1.1,4.9l-1.8,6.7h-1l-1.7-6.4
				c-0.5-1.8-0.9-3.6-1.2-5.2h-0.1c0,1.7-0.1,3.7-0.2,5.7l-0.2,5.4c0,0.4-0.3,0.7-0.7,0.7h-0.1c-0.4,0-0.7-0.3-0.7-0.7l0.8-12.9
				c0-0.4,0.3-0.6,0.7-0.6h0.6c0.3,0,0.6,0.2,0.7,0.5l1.5,6c0.5,1.9,0.8,3.3,1.1,4.9h0.1c0.3-1.6,0.6-3,1.1-4.9l1.5-6
				c0.1-0.3,0.4-0.5,0.7-0.5h0.6c0.4,0,0.7,0.3,0.7,0.6l0.7,12.9c0,0.4-0.3,0.7-0.7,0.7h-0.1c-0.4,0-0.7-0.3-0.7-0.7L54.2,127.6z"/>
			<path class="st7" d="M58.9,119.5h0.3c0.4,0,0.7,0.3,0.7,0.7v11.5c0,0.4,0.3,0.7,0.7,0.7h2.6c0.4,0,0.7,0.3,0.7,0.7l0,0
				c0,0.4-0.3,0.7-0.7,0.7h-4.3c-0.4,0-0.7-0.3-0.7-0.7v-12.9C58.2,119.8,58.5,119.5,58.9,119.5z"/>
		</g>
		<radialGradient id="SVGID_3_" cx="79.4076" cy="142.2063" r="8.8144" gradientUnits="userSpaceOnUse">
			<stop  offset="0" style="stop-color:#FFFFFF"/>
			<stop  offset="1" style="stop-color:#000000"/>
		</radialGradient>
		<circle class="st8" cx="79.4" cy="142.2" r="8.8"/>
	</g>
	<g>
		<path class="st1" d="M92.2,83.4v29.1H45c-2,0-3.6-1.6-3.6-3.6V79.1h46.5C90.3,79.1,92.2,81,92.2,83.4z"/>
		<linearGradient id="SVGID_4_" gradientUnits="userSpaceOnUse" x1="128.2334" y1="-30.1949" x2="128.2334" y2="81.8043">
			<stop  offset="0" style="stop-color:#3E84FF"/>
			<stop  offset="1" style="stop-color:#7440FF"/>
		</linearGradient>
		<path class="st9" d="M209,6.6H47.5V3c0-1.7,1.4-3,3-3h155.4c1.7,0,3,1.4,3,3V6.6z"/>
		<path class="st10" d="M205.4,106.4H51.1c-2,0-3.6-1.6-3.6-3.6V6.6H209v96.2C209,104.8,207.4,106.4,205.4,106.4z"/>
		<g>
			<path class="st6" d="M202,3.3c0,0.6-0.5,1.1-1.1,1.1c-0.6,0-1.1-0.5-1.1-1.1c0-0.6,0.5-1.1,1.1-1.1C201.5,2.1,202,2.7,202,3.3z"
				/>
			<path class="st6" d="M195,3.3c0,0.6-0.5,1.1-1.1,1.1c-0.6,0-1.1-0.5-1.1-1.1c0-0.6,0.5-1.1,1.1-1.1C194.5,2.1,195,2.7,195,3.3z"
				/>
			<path class="st6" d="M188.1,3.3c0,0.6-0.5,1.1-1.1,1.1c-0.6,0-1.1-0.5-1.1-1.1c0-0.6,0.5-1.1,1.1-1.1
				C187.6,2.1,188.1,2.7,188.1,3.3z"/>
		</g>
		<path class="st7" d="M146.4,19H63.8c-0.9,0-1.6-0.7-1.6-1.6l0,0c0-0.9,0.7-1.6,1.6-1.6h82.6c0.9,0,1.6,0.7,1.6,1.6l0,0
			C148.1,18.2,147.3,19,146.4,19z"/>
		<path class="st7" d="M146.4,29.3H63.8c-0.9,0-1.6-0.7-1.6-1.6l0,0c0-0.9,0.7-1.6,1.6-1.6h82.6c0.9,0,1.6,0.7,1.6,1.6l0,0
			C148.1,28.6,147.3,29.3,146.4,29.3z"/>
		<path class="st5" d="M101.8,39.7h-38c-0.9,0-1.6-0.7-1.6-1.6v0c0-0.9,0.7-1.6,1.6-1.6h38c0.9,0,1.6,0.7,1.6,1.6v0
			C103.5,38.9,102.7,39.7,101.8,39.7z"/>
		<path class="st5" d="M146.4,80.7H63.8c-0.9,0-1.6-0.7-1.6-1.6l0,0c0-0.9,0.7-1.6,1.6-1.6h82.6c0.9,0,1.6,0.7,1.6,1.6l0,0
			C148.1,80,147.3,80.7,146.4,80.7z"/>
		<path class="st5" d="M101.8,91.1h-38c-0.9,0-1.6-0.7-1.6-1.6l0,0c0-0.9,0.7-1.6,1.6-1.6h38c0.9,0,1.6,0.7,1.6,1.6l0,0
			C103.5,90.3,102.7,91.1,101.8,91.1z"/>
		<g>
			<path class="st5" d="M180,25.8c-7.7,0-13.9,6.2-13.9,13.9c0,7.7,6.2,13.9,13.9,13.9c7.7,0,13.9-6.2,13.9-13.9
				C193.9,32,187.7,25.8,180,25.8z M180,51.2c-6.4,0-11.5-5.2-11.5-11.5s5.2-11.5,11.5-11.5c6.4,0,11.5,5.2,11.5,11.5
				S186.4,51.2,180,51.2z"/>
			<path class="st5" d="M185.8,42.8c-3.2,3.2-8.4,3.2-11.5,0c-0.3-0.3-0.9-0.3-1.2,0c-0.3,0.3-0.3,0.9,0,1.2
				c1.9,1.9,4.4,2.9,6.9,2.9c2.5,0,5-1,6.9-2.9c0.3-0.3,0.3-0.9,0-1.2C186.6,42.5,186.1,42.5,185.8,42.8z"/>
			<path class="st5" d="M175,38.9c0.8,0,1.4-0.6,1.4-1.4c0-0.8-0.6-1.4-1.4-1.4c-0.8,0-1.4,0.6-1.4,1.4
				C173.6,38.3,174.2,38.9,175,38.9z"/>
			<path class="st5" d="M185,38.9c0.8,0,1.4-0.6,1.4-1.4c0-0.8-0.6-1.4-1.4-1.4s-1.4,0.6-1.4,1.4C183.6,38.3,184.2,38.9,185,38.9z"
				/>
		</g>
		<g>
			<g>
				<g>
					<linearGradient id="SVGID_5_" gradientUnits="userSpaceOnUse" x1="91.9375" y1="28.9829" x2="50.2456" y2="87.099">
						<stop  offset="0" style="stop-color:#3E84FF"/>
						<stop  offset="1" style="stop-color:#7440FF"/>
					</linearGradient>
					<path class="st11" d="M69.6,69.1c-0.3,0-0.7-0.1-1-0.4l-6.1-6.5c-0.5-0.6-0.5-1.5,0-2l6.2-6.6c0.5-0.6,1.4-0.6,1.9,0
						c0.5,0.6,0.5,1.5,0,2l-5.3,5.6l5.2,5.5c0.5,0.6,0.5,1.5,0,2C70.3,68.9,70,69.1,69.6,69.1z"/>
				</g>
				<g>
					<linearGradient id="SVGID_6_" gradientUnits="userSpaceOnUse" x1="105.7368" y1="38.8823" x2="64.0449" y2="96.9984">
						<stop  offset="0" style="stop-color:#3E84FF"/>
						<stop  offset="1" style="stop-color:#7440FF"/>
					</linearGradient>
					<path class="st12" d="M89.2,69.1c-0.3,0-0.7-0.1-1-0.4c-0.5-0.6-0.5-1.5,0-2l5.2-5.5l-5.3-5.6c-0.5-0.6-0.5-1.5,0-2
						c0.5-0.6,1.4-0.6,1.9,0l6.2,6.6c0.3,0.3,0.4,0.6,0.4,1c0,0.4-0.1,0.8-0.4,1l-6.1,6.5C89.9,68.9,89.5,69.1,89.2,69.1z"/>
				</g>
			</g>
			<g>
				<linearGradient id="SVGID_7_" gradientUnits="userSpaceOnUse" x1="99.0392" y1="34.0778" x2="57.3473" y2="92.1938">
					<stop  offset="0" style="stop-color:#3E84FF"/>
					<stop  offset="1" style="stop-color:#7440FF"/>
				</linearGradient>
				<path class="st13" d="M76.4,70.9c-0.2,0-0.3,0-0.5-0.1c-0.7-0.3-1-1.1-0.7-1.9l6.1-15.9c0.3-0.7,1.1-1.1,1.8-0.8
					c0.7,0.3,1,1.1,0.7,1.9L77.6,70C77.4,70.5,76.9,70.9,76.4,70.9z"/>
			</g>
		</g>
		<g>
			<path class="st5" d="M201.5,65h-42.9c-2.1,0-3.9-1.7-3.9-3.9V18.2c0-2.1,1.7-3.9,3.9-3.9h42.9c2.1,0,3.9,1.7,3.9,3.9v42.9
				C205.3,63.3,203.6,65,201.5,65z M158.5,16.7c-0.8,0-1.5,0.7-1.5,1.5v42.9c0,0.8,0.7,1.5,1.5,1.5h42.9c0.8,0,1.5-0.7,1.5-1.5V18.2
				c0-0.8-0.7-1.5-1.5-1.5H158.5z"/>
		</g>
		<linearGradient id="SVGID_8_" gradientUnits="userSpaceOnUse" x1="119.4164" y1="53.5622" x2="138.9858" y2="53.5622">
			<stop  offset="0" style="stop-color:#3E84FF"/>
			<stop  offset="1" style="stop-color:#7440FF"/>
		</linearGradient>
		<path class="st14" d="M139,54.2v-1.3c0-0.5-0.4-0.9-0.9-0.9h-2.2c-0.2-0.7-0.5-1.4-0.8-2l1.5-1.5c0.4-0.4,0.4-0.9,0-1.3l-0.9-0.9
			c-0.4-0.4-0.9-0.4-1.3,0l-1.5,1.5c-0.6-0.4-1.3-0.7-2-0.8v-2.2c0-0.5-0.4-0.9-0.9-0.9h-1.3c-0.5,0-0.9,0.4-0.9,0.9v2.2
			c-0.7,0.2-1.4,0.5-2,0.8l-1.5-1.5c-0.4-0.4-0.9-0.4-1.3,0l-0.9,0.9c-0.4,0.4-0.4,0.9,0,1.3l1.5,1.5c-0.4,0.6-0.7,1.3-0.8,2h-2.2
			c-0.5,0-0.9,0.4-0.9,0.9v1.3c0,0.5,0.4,0.9,0.9,0.9h2.2c0.2,0.7,0.5,1.4,0.8,2l-1.5,1.5c-0.4,0.4-0.4,0.9,0,1.3l0.9,0.9
			c0.4,0.4,0.9,0.4,1.3,0l1.5-1.5c0.6,0.4,1.3,0.7,2,0.8v2.2c0,0.5,0.4,0.9,0.9,0.9h1.3c0.5,0,0.9-0.4,0.9-0.9v-2.2
			c0.7-0.2,1.4-0.5,2-0.8l1.5,1.5c0.4,0.4,0.9,0.4,1.3,0l0.9-0.9c0.4-0.4,0.4-0.9,0-1.3l-1.5-1.5c0.4-0.6,0.7-1.3,0.8-2h2.2
			C138.6,55.1,139,54.7,139,54.2z M129.8,57.3c-2.6,0.4-4.8-1.8-4.4-4.4c0.3-1.6,1.5-2.8,3.1-3.1c2.6-0.4,4.8,1.8,4.4,4.4
			C132.7,55.8,131.4,57,129.8,57.3z"/>
	</g>
	<g>
		<g>
			<linearGradient id="SVGID_9_" gradientUnits="userSpaceOnUse" x1="302.3539" y1="293.1644" x2="301.5134" y2="272.9903">
				<stop  offset="0" style="stop-color:#3E84FF"/>
				<stop  offset="1" style="stop-color:#7440FF"/>
			</linearGradient>
			<path class="st15" d="M287.5,292.3l24.8-1.4c0,0,9.9-0.1,1.3-5.2c-1.5-0.9-2.9-1.9-4.1-2.9c-3.9-3.4-6.2-7.2-7.2-9.2l-4.9,1.3
				l-8.5,2.2c-0.1,0-0.1,0-0.2,0C288.1,282.3,287.5,292.3,287.5,292.3z"/>
			<path class="st16" d="M320.5,294.7c0,0-0.5-8.2-6.9-9c-6.4-0.8-7.2,5.5-7.2,5.5l-18.8-1.1l-0.5,4.5H320.5z"/>
			<path class="st16" d="M297.4,275c0.8,2.5,2.9,8,6.9,9.7c1.9-1.6,3.9-1.8,5.2-1.8c-3.9-3.4-6.2-7.2-7.2-9.2L297.4,275z"/>
		</g>
		<linearGradient id="SVGID_10_" gradientUnits="userSpaceOnUse" x1="279.3366" y1="159.08" x2="273.6513" y2="253.0754">
			<stop  offset="0" style="stop-color:#2B2B2B"/>
			<stop  offset="1" style="stop-color:#111111"/>
		</linearGradient>
		<path class="st17" d="M303.1,271.8l-16.6,1.8c0,0-6.5-52-12.4-73.5c-1.9,4.4-5.7,20.4-9.3,36.4c-4.2,18.6-8,37.2-8,37.2
			s-9.5,1.1-14.8-3.2c1.6-29.7,13.1-88.9,14.6-97.5c0,0.1,0,0.1,0,0.2c0.1,0.4,0.2,0.7,0.4,1c0.1,0.1,0.2,0.3,0.3,0.4c0,0,0,0,0,0
			c1.4,1.5,5.5,3.2,11.2,3.3c6.2,0.2,14.3-1.3,22.9-6.6c0.2-0.4,0.2-1.4,0.1-2.7c0.3,0.3,0.8,3.8,1.6,9.3
			C296.5,203.3,303.1,271.8,303.1,271.8z"/>
		<linearGradient id="SVGID_11_" gradientUnits="userSpaceOnUse" x1="245.7574" y1="159.0529" x2="253.5904" y2="127.2155">
			<stop  offset="0" style="stop-color:#3E84FF"/>
			<stop  offset="1" style="stop-color:#7440FF"/>
		</linearGradient>
		<path class="st18" d="M256.5,142.6l-1.2,4.5l-0.1,0.3l-0.3,1.1v0c0,0-2.1,0.2-5-0.8c-1.4-0.4-2.9-1.1-4.4-2.2
			c-0.4-0.3-0.8-0.5-1.1-0.9c0.5-6.1,2.5-16.9,3.2-20.3c0.1-0.7,0.2-1.1,0.2-1.1L256.5,142.6z"/>
		<linearGradient id="SVGID_12_" gradientUnits="userSpaceOnUse" x1="252.3736" y1="141.2166" x2="240.4346" y2="175.3282">
			<stop  offset="0" style="stop-color:#F78B7C"/>
			<stop  offset="1" style="stop-color:#FFB7A9"/>
		</linearGradient>
		<path class="st19" d="M256.9,147.9c0,0-1.2,5.5-2.8,10.5c-1.1,3.6-2.4,6.9-3.6,8c-2.8,2.7-10,7-10,7l-4.2-8.6l6.2-5.4l2.4-10.8
			l0.7-3.1c4.7,3.3,9.4,2.9,9.4,2.9l0.3-1.1L256.9,147.9z"/>
		<linearGradient id="SVGID_13_" gradientUnits="userSpaceOnUse" x1="259.1651" y1="102.3785" x2="275.3365" y2="167.5697">
			<stop  offset="0" style="stop-color:#3E84FF"/>
			<stop  offset="1" style="stop-color:#7440FF"/>
		</linearGradient>
		<path class="st20" d="M291.6,171.3c-8.6,5.2-16.7,6.8-22.9,6.6c-5.8-0.2-9.9-1.9-11.3-3.4c-0.1-0.1-0.2-0.3-0.3-0.4
			c-0.1-0.3-0.3-0.6-0.4-1c0-0.1,0-0.1,0-0.2c-0.4-1.9-0.5-5.1-0.5-8.5c0-0.5,0-1,0-1.6c0-1.4,0-2.8,0.1-4.2v0c0-1.8,0-3.4-0.1-4.7
			c0-0.6-0.1-1.1-0.1-1.5c0-0.2-0.1-0.3-0.1-0.4c0,0,0-0.1,0-0.2c-0.2-0.8-0.5-1.9-0.9-3.3v0c-0.4-1.3-0.9-2.8-1.4-4.4
			c-0.2-0.5-0.3-1-0.5-1.5c-0.5-1.5-1-3-1.5-4.6c-0.4-1.2-0.8-2.4-1.2-3.6c-0.2-0.5-0.3-1-0.5-1.5c-1-3.3-1.9-6.3-2.2-8.3
			c0-0.1,0-0.2,0-0.3c0-0.2-0.1-0.4-0.1-0.6c0.1-0.1,0.2-0.3,0.3-0.4c0.1-0.1,0.1-0.2,0.2-0.3c1.8-2.6,4.4-5,6.6-6.8
			c0.6-0.5,1.3-1,1.9-1.4c0.5-0.3,0.9-0.7,1.3-0.9l0,0l2.7-1.5c3-0.5,5.8-0.7,8.3-0.7c3.5,0,6.4,0.3,8.6,0.7c2.8,0.5,4.4,1,4.4,1
			l0.1,1.7l0.1,1.5l0.7,8.7l0.1,1.5l0.1,0.7c0,0,0,0,0,0c0.1,0.3,0.8,3.3,1.9,7.7c0.1,0.5,0.2,1,0.4,1.5c0.6,2.5,1.3,5.4,2,8.4
			c0.1,0.5,0.2,1,0.3,1.5c0.6,2.8,1.3,5.7,1.8,8.4c0.1,0.5,0.2,1,0.3,1.5c0.6,3.1,1.2,6.1,1.6,8.5c0.1,0.5,0.2,1,0.2,1.5
			c0.1,0.8,0.2,1.5,0.2,2.1C291.8,170,291.8,170.9,291.6,171.3z"/>
		<g class="st21">
			<path class="st1" d="M282.1,116.6l-34.4,8.1c0-0.1,0-0.2,0-0.3c0-0.2-0.1-0.4-0.1-0.6c0.1-0.1,0.2-0.3,0.3-0.4
				c0.1-0.1,0.1-0.2,0.2-0.3l33.9-8L282.1,116.6z"/>
			<path class="st1" d="M282.9,126.8l-32.6,7.7c-0.2-0.5-0.3-1-0.5-1.5l32.9-7.8L282.9,126.8z"/>
			<path class="st1" d="M285.3,136.7l-31.7,7.5c-0.2-0.5-0.3-1-0.5-1.5l31.8-7.5C285,135.7,285.1,136.2,285.3,136.7z"/>
			<path class="st1" d="M287.6,146.6l-31.4,7.4c0-0.6-0.1-1.1-0.1-1.5l31.2-7.3C287.3,145.6,287.4,146.1,287.6,146.6z"/>
			<path class="st1" d="M289.7,156.5l-33.5,7.9c0-0.5,0-1,0-1.6l33.2-7.8C289.5,155.5,289.6,156,289.7,156.5z"/>
			<path class="st1" d="M291.5,166.5l-34.1,8c-0.1-0.1-0.2-0.3-0.3-0.4c-0.1-0.3-0.3-0.6-0.4-1l34.5-8.1
				C291.3,165.5,291.4,166,291.5,166.5z"/>
		</g>
		<path class="st1" d="M277.5,112.3c-1.6,4.5-5.1,10.8-12.4,11c-8.6,0.3-10.2-4.7-10.4-7.1c0.6-0.5,1.3-1,1.9-1.4
			c0.5-0.3,0.9-0.7,1.3-0.9l0,0l2.7-1.5c3-0.5,5.8-0.7,8.3-0.7C272.3,111.6,275.3,112,277.5,112.3z"/>
		<g>
			<linearGradient id="SVGID_14_" gradientUnits="userSpaceOnUse" x1="258.3439" y1="100.8235" x2="255.1223" y2="117.6898">
				<stop  offset="0" style="stop-color:#F78B7C"/>
				<stop  offset="1" style="stop-color:#FFB7A9"/>
			</linearGradient>
			<path class="st22" d="M265.1,118.8c-0.7,0.7-1.5,1-2.5,0.9c-1.9-0.3-3-1.6-3.7-2.6c-0.4-0.6-0.6-1.2-0.7-1.3c0,0,0,0,0,0
				s-0.4,0.2-1.5,0.1c-0.1,0-0.1,0-0.2,0c0,0-0.1,0-0.1,0c-0.8-0.2-2-0.6-3.5-1.4c-2.3-1.3-4.1-3.2-5.5-5.1
				c-0.3-0.4-0.6-0.8-0.8-1.2c-0.3-0.5-0.6-0.9-0.8-1.3c5.2-0.5,8.6-4.2,10.1-8.6c0,0,2.8,4.7,3.5,4.7c0.6,0,1.1-4.4,3-4.5
				c0.3,0,0.6,0.1,0.8,0.2c1.1,0.7,1.1,3.1,0.2,5.6c-0.6,1.6,1.8,2.9,2.3,3c0,0,0.1,0,0.1-0.1c0.1,1.7,0.4,3.5,0.7,4.8
				c0.1,0.7,0.3,1.3,0.4,1.7C267.3,114.5,266.6,117.3,265.1,118.8z"/>
			<path class="st23" d="M251.5,101.2c-0.1,0.2-1.8,3.6-5.7,5.2c-0.2-0.3-0.3-0.6-0.4-0.8C248.6,104,251.4,101.4,251.5,101.2z"/>
		</g>
		<linearGradient id="SVGID_15_" gradientUnits="userSpaceOnUse" x1="252.3433" y1="86.6522" x2="255.7544" y2="105.0345">
			<stop  offset="0" style="stop-color:#2B2B2B"/>
			<stop  offset="1" style="stop-color:#111111"/>
		</linearGradient>
		<path class="st24" d="M269.7,96.7c-0.8,5-3.1,9.6-3.8,10.2c-0.1,0.1-0.1,0.1-0.1,0.1c-0.5-0.1-2.8-1.5-2.3-3c1.1-3,0.9-5.9-1-5.8
			c-1.9,0.1-2.4,4.5-3,4.5c-0.6,0-3.5-4.7-3.5-4.7c-1.5,4.4-4.9,8.1-10.1,8.6c-0.2,0-0.4,0-0.6,0c0.2-0.1,0.3-0.1,0.5-0.2
			c3.9-1.6,5.6-5,5.7-5.2c-0.2,0.2-2.9,2.8-6.2,4.3c-1.6,0.7-3.3,1.2-4.8,1c-0.1-0.2-0.2-0.3-0.3-0.5c-4.6-6.8-1.3-20.9,5.1-23.7
			c0,0-1.7-0.5-3.6-1.9c2.8,0.6,10.1-1.9,12.6-1.6c2.5,0.3,3.3,2.3,3.3,2.3s3.2-2.9,6.8-1.7c-1.8-0.1-3.1,2.1-3.1,2.1
			s6.8,1.5,8.4,8.7C270.1,92.3,270.1,94.5,269.7,96.7z"/>
		<path class="st1" d="M265.1,118.8c-0.7,0.7-1.5,1-2.5,0.9c-1.9-0.3-3-1.6-3.7-2.6c-0.4-0.6-0.6-1.2-0.7-1.3
			c1.2-0.3,2.9-1.3,4.2-4.5v0c0,0,0,0,0,0C263.6,112,263.4,117.4,265.1,118.8z"/>
		<g>
			<path class="st1" d="M245.8,106.4c-0.2-0.3-0.3-0.6-0.4-0.8c3.2-1.5,6-4.2,6.2-4.3C251.4,101.4,249.8,104.8,245.8,106.4z"/>
			<path class="st1" d="M263.4,98.3c-3,1-1.8,5.8-3.4,6.1c-2,0.3-3-2.7-3-2.7s-1.3,2.5-5.1,4.7c-1.7,1-3.6,1.3-5.2,1.5
				c-0.3-0.5-0.6-0.9-0.8-1.3c5.2-0.5,8.6-4.2,10.1-8.6c0,0,2.8,4.7,3.5,4.7c0.6,0,1.1-4.4,3-4.5C262.9,98.1,263.1,98.2,263.4,98.3z
				"/>
		</g>
		<path class="st2" d="M262.4,111.2c-1.3,3.2-2.9,4.2-4.2,4.5c0,0,0,0,0,0s-0.5,0.3-1.7,0c0,0-0.1,0-0.1,0c-0.8-0.2-2-0.6-3.5-1.4
			c-2.3-1.3-4.1-3.2-5.5-5.1c0.4,0,0.9,0.1,1.6,0.6c1.6,1.2,3,4.1,6.5,4.8C259.2,115.3,261.5,112.5,262.4,111.2z"/>
		<path class="st1" d="M262.6,100.2c0,0-0.6,1.8-0.3,2.3C262.5,103.1,264.4,101.3,262.6,100.2z"/>
		<path class="st1" d="M269.7,96.7c-0.8,5-3.1,9.6-3.8,10.2c-0.1,0.1-0.1,0.1-0.1,0.1c-0.5-0.1-2.8-1.5-2.3-3c1.1-3,0.9-5.9-1-5.8
			c-1.9,0.1-2.4,4.5-3,4.5c-0.6,0-3.5-4.7-3.5-4.7c-1.5,4.4-4.9,8.1-10.1,8.6c-0.2,0-0.4,0-0.6,0c0.2-0.1,0.3-0.1,0.5-0.2
			c3.9-1.6,5.6-5,5.7-5.2c-0.2,0.2-2.9,2.8-6.2,4.3c-1.6,0.7-3.3,1.2-4.8,1c-0.1-0.2-0.2-0.3-0.3-0.5c3.5-2.4,12.3-8.9,12.1-15.4
			c1.7,3.2,1.3,7.3,1.3,7.3s1.6-4.3,1.3-7.9c2.6,3.6,3.3,6.7,3.3,6.7s0.3-3.6,4.5-4.3c4.2-0.7,4.3,5.4,4.3,5.4s1.4-2.2-0.2-6.1
			C268,92.5,269,94.4,269.7,96.7z"/>
		<path class="st25" d="M264,121.7c-5.1,0.7-6.8-4.2-7.3-6c1.1,0.2,1.5-0.1,1.5-0.1s0,0,0,0c0.1,0.2,0.3,0.7,0.7,1.3
			c0.6,1,1.8,2.3,3.7,2.6c1,0.2,1.9-0.2,2.5-0.9c1.5-1.5,2.2-4.3,1.9-5.4c-0.1-0.4-0.2-0.9-0.4-1.7c0.8,0,1.5-0.1,2.3-0.1
			C269.1,115.7,268.5,121.2,264,121.7z"/>
		<path class="st1" d="M256.3,158.6c0-2.8,0-5.3-0.3-6.7c-0.2-0.7-0.5-1.9-1-3.4c0,0-2.1,0.2-5-0.8c0.5-1.6,0.4-4.9,0.5-8.9
			c0-1.6-0.1-4-0.5-5.5c1.9,4.3,4.5,9.2,5.3,13.7C256.3,152,256.6,156.2,256.3,158.6z"/>
		<path class="st1" d="M291.6,171.3c-8.6,5.2-16.7,6.8-22.9,6.6c7.4-3.1,5.2-10.5-1.6-11.9c6.8-5.1,12.3-9.5,11.2-25.9
			c-0.6-8.4,0.6-15.3,0.6-15.3l4.1,2.7C283.3,128.6,293.2,168.1,291.6,171.3z"/>
		<linearGradient id="SVGID_16_" gradientUnits="userSpaceOnUse" x1="294.4769" y1="147.8609" x2="280.5792" y2="123.3504">
			<stop  offset="0" style="stop-color:#3E84FF"/>
			<stop  offset="1" style="stop-color:#7440FF"/>
		</linearGradient>
		<path class="st26" d="M291.8,133c0,0.1-0.1,0.3-0.1,0.4c-0.4,0.8-1.5,1.6-2.9,2.3c-2.5,1.3-5.7,2.3-7.2,2.7
			c-0.5,0.1-0.7,0.2-0.7,0.2s-4.1-8.1-4.8-15.2c-0.5-4.5,0.4-8.6,4.6-9.9c0.4-0.1,0.8-0.2,1.2-0.3c0,0,5.7,3.2,9.7,19
			C291.6,132.5,291.7,132.8,291.8,133z"/>
		<linearGradient id="SVGID_17_" gradientUnits="userSpaceOnUse" x1="290.0281" y1="118.5046" x2="268.4242" y2="171.5669">
			<stop  offset="0" style="stop-color:#F78B7C"/>
			<stop  offset="1" style="stop-color:#FFB7A9"/>
		</linearGradient>
		<path class="st27" d="M295.5,154.4c-1.6,3.2-27.8,15.9-27.8,15.9s-2,3.8-5.7,4.5c-3.7,0.8-6.4-1.3-8.6-1.4
			c-2.2-0.1-5.2,2.1-5.2,2.1s-0.4,0-0.7-0.1c-0.4-0.2-0.7-0.7,0-1.9c2.8-5.1,13.2-5.9,14-6.3c0.4-0.2,5.6-4.4,11-8.8
			c6.1-4.9,12.3-10,12.3-10l-2.5-7.6l-0.8-2.4c2.3-0.7,9-2.9,10.1-5.1c0.3,0.9,0.6,2.2,1.1,3.7C294.3,143,296.6,152.3,295.5,154.4z"
			/>
		<path class="st1" d="M292.7,137.1c-3.4,3.2-8,3.7-10.3,3.8l-0.8-2.4c2.3-0.7,9-2.9,10.1-5.1C291.9,134.3,292.3,135.6,292.7,137.1z
			"/>
		<path class="st1" d="M255.9,151.8c-0.5,1.9-1.1,4.3-1.9,6.6c-3.2-2-7.1-6.9-9.2-9.8l0.7-3.1c4.7,3.3,9.4,2.9,9.4,2.9
			C255.4,149.9,255.8,151.1,255.9,151.8z"/>
		<path class="st28" d="M302.6,276.1l-14.1,1.2c-1.3,0.1-2.4-0.9-2.6-2.2l0-0.3c-0.1-1.3,0.9-2.4,2.2-2.6l14.1-1.2
			c1.3-0.1,2.4,0.9,2.6,2.2l0,0.3C304.8,274.8,303.9,276,302.6,276.1z"/>
		<path class="st28" d="M258.6,275.4c-0.3,1.1-1.3,1.9-2.4,1.9c-0.1,0-0.3,0-0.4,0c-0.1,0-0.1,0-0.2,0l-13.4-3.5l-0.7-0.2
			c-1.4-0.4-2.2-1.7-1.8-3.1c0.3-1.1,1.3-1.9,2.4-1.9c0.2,0,0.4,0,0.6,0.1l14.1,3.7C258.2,272.7,259,274,258.6,275.4z"/>
		<g>
			<linearGradient id="SVGID_18_" gradientUnits="userSpaceOnUse" x1="242.4072" y1="295.6622" x2="241.5667" y2="275.4879">
				<stop  offset="0" style="stop-color:#3E84FF"/>
				<stop  offset="1" style="stop-color:#7440FF"/>
			</linearGradient>
			<path class="st29" d="M257,292.3l-24.8-1.4c0,0-9.9-0.1-1.3-5.2c1.5-0.9,2.9-1.9,4.1-2.9c3.9-3.4,6.2-7.2,7.2-9.2l4.9,1.3
				l8.5,2.2c0.1,0,0.1,0,0.2,0C256.4,282.3,257,292.3,257,292.3z"/>
			<path class="st16" d="M224,294.7c0,0,0.5-8.2,6.9-9c6.4-0.8,7.2,5.5,7.2,5.5l18.8-1.1l0.5,4.5H224z"/>
			<path class="st16" d="M247,275c-0.8,2.5-2.9,8-6.9,9.7c-1.9-1.6-3.9-1.8-5.2-1.8c3.9-3.4,6.2-7.2,7.2-9.2L247,275z"/>
		</g>
		<path class="st1" d="M291.8,133c0,0.1-0.1,0.3-0.1,0.4c-0.4,0.8-1.5,1.6-2.9,2.3c0-2.9-0.4-7-1.6-11.1c-1.6-5.3-4.8-9.2-6.5-11.1
			c0.4-0.1,0.8-0.2,1.2-0.3c0,0,5.7,3.2,9.7,19C291.6,132.5,291.7,132.8,291.8,133z"/>
		<path class="st30" d="M285.6,177.9c0,0-0.4,5.5,5.1,6.6"/>
		<line class="st30" x1="288.1" y1="186.7" x2="298.9" y2="268.5"/>
		<line class="st30" x1="271.5" y1="199.1" x2="253.2" y2="268.5"/>
		<path class="st1" d="M274.1,200.1c-1.9,4.4-5.7,20.4-9.3,36.4c-0.1-8.3,0.1-17.3,1-24C268.1,195.8,274.1,200.1,274.1,200.1z"/>
		<path class="st1" d="M293.3,177.9c-24.3,12.1-35.3-2.7-35.8-3.3c1.4,1.5,5.5,3.2,11.2,3.3c6.2,0.2,14.3-1.3,22.9-6.6
			c0.2-0.4,0.2-1.4,0.1-2.7C292,168.9,292.5,172.4,293.3,177.9z"/>
		<path class="st2" d="M272.6,158.5c-1,3.9-9.3,10.2-10.8,10.1c-1.7-0.1-9.4,1.9-11.8,3.3c-1.9,1.1-2.3,2.9-2.4,3.6
			c-0.4-0.2-0.7-0.7,0-1.9c2.8-5.1,13.2-5.9,14-6.3C261.9,167.1,267.1,162.9,272.6,158.5z"/>
	</g>
	<g>
		<linearGradient id="SVGID_19_" gradientUnits="userSpaceOnUse" x1="100.4351" y1="147.7749" x2="100.8555" y2="219.6456">
			<stop  offset="0" style="stop-color:#6D5BD8"/>
			<stop  offset="1" style="stop-color:#C7CFFF"/>
		</linearGradient>
		<path class="st31" d="M117.2,188.1l-1.9-1.4l-1.9-1.4c-0.3,0.4-7.3,10.4-14.3,29c-6.5,17.1-14.2,44.8-14.2,80.4h4.7
			C89.5,228.3,116.9,188.5,117.2,188.1z"/>
		<linearGradient id="SVGID_20_" gradientUnits="userSpaceOnUse" x1="173.332" y1="153.5831" x2="130.0416" y2="272.1065">
			<stop  offset="0" style="stop-color:#6D5BD8"/>
			<stop  offset="1" style="stop-color:#C7CFFF"/>
		</linearGradient>
		<path class="st32" d="M159.3,188.1l-1.9-1.4l-1.9-1.4c-0.3,0.4-7.3,10.4-14.3,29c-6.5,17.1-14.2,44.8-14.2,80.4h4.7
			C131.7,228.3,159.1,188.5,159.3,188.1z"/>
		<linearGradient id="SVGID_21_" gradientUnits="userSpaceOnUse" x1="281.9074" y1="170.4323" x2="323.0964" y2="267.5208">
			<stop  offset="0" style="stop-color:#6D5BD8"/>
			<stop  offset="1" style="stop-color:#C7CFFF"/>
		</linearGradient>
		<path class="st33" d="M294.6,188.1l1.9-1.4l1.9-1.4c0.3,0.4,7.3,10.4,14.3,29c6.5,17.1,14.2,44.8,14.2,80.4h-4.7
			C322.2,228.3,294.9,188.5,294.6,188.1z"/>
		<linearGradient id="SVGID_22_" gradientUnits="userSpaceOnUse" x1="268.0474" y1="146.7948" x2="268.4677" y2="218.6654">
			<stop  offset="0" style="stop-color:#6D5BD8"/>
			<stop  offset="1" style="stop-color:#C7CFFF"/>
		</linearGradient>
		<path class="st34" d="M252.4,188.1l1.9-1.4l1.9-1.4c0.3,0.4,7.3,10.4,14.3,29c6.5,17.1,14.2,44.8,14.2,80.4h-4.7
			C280.1,228.3,252.7,188.5,252.4,188.1z"/>
		<g>
			<path class="st35" d="M298.9,185.8c0,0.9-0.3,1.6-0.9,2.2c-0.6,0.6-1.3,0.9-2.2,0.9H84.2c-1.7,0-3.1-1.4-3.1-3.1
				c0-0.9,0.3-1.6,0.9-2.2c0.6-0.6,1.3-0.9,2.2-0.9h211.6C297.5,182.6,298.9,184,298.9,185.8z"/>
			<path class="st36" d="M336.3,185.8c0,0.9-0.3,1.6-0.9,2.2c-0.6,0.6-1.3,0.9-2.2,0.9h-37.4c0.9,0,1.6-0.3,2.2-0.9
				c0.6-0.6,0.9-1.3,0.9-2.2c0-1.7-1.4-3.1-3.1-3.1h37.4C334.9,182.6,336.3,184,336.3,185.8z"/>
		</g>
	</g>
	<g>
		<path class="st6" d="M157.4,91.2v68.5h-49.4c-3.9,0-7.1-3.2-7.1-7.1V98.3c0-3.9,3.2-7.1,7.1-7.1H157.4z"/>
		<path class="st36" d="M157.4,159.7L157.4,159.7V91.2l0,0c-3.9,0-7.1,3.2-7.1,7.1v54.3C150.3,156.5,153.5,159.7,157.4,159.7z"/>
		<path class="st1" d="M132.9,159.7h-17.3l4.3-26.6c0,0,2-3.9,6.5-1.4C129.9,133.8,128.2,151.7,132.9,159.7z"/>
		<path class="st35" d="M108.4,174.5l11.4-41.4c0.4-1.5,2.4-1.9,3.3-0.6c1.7,2.4,3.6,6.6,3.1,12.6c-0.9,10.4-7,30.4-7,30.4
			L108.4,174.5z"/>
		<path class="st37" d="M128.7,173.4h-23.1c-2.5,0-4.6,2.1-4.6,4.6l0,0c0,2.5,2.1,4.6,4.6,4.6h23.1c2.5,0,4.6-2.1,4.6-4.6l0,0
			C133.3,175.5,131.2,173.4,128.7,173.4z"/>
		<linearGradient id="SVGID_23_" gradientUnits="userSpaceOnUse" x1="124.6718" y1="151.7018" x2="120.8876" y2="96.8309">
			<stop  offset="0" style="stop-color:#3E84FF"/>
			<stop  offset="1" style="stop-color:#7440FF"/>
		</linearGradient>
		<path class="st38" d="M126.3,119.5c0,3.3-1.7,5.9-3.9,5.9s-3.9-2.7-3.9-5.9s1.7-5.9,3.9-5.9S126.3,116.2,126.3,119.5z"/>
	</g>
	<g>
		<polygon class="st35" points="270.5,179.4 240.7,177.9 240.7,182.6 270.5,182.6 		"/>
		<path class="st36" d="M247,182.6h-57.5c-0.7,0-1.3-0.5-1.4-1.1l-9.1-37.3c-0.2-0.9,0.5-1.8,1.4-1.8h57.5c0.7,0,1.3,0.5,1.4,1.1
			l9.1,37.3C248.6,181.8,247.9,182.6,247,182.6z"/>
		<path class="st6" d="M245.1,180.9h-57.5c-0.7,0-1.3-0.5-1.4-1.1l-9.1-37.3c-0.1-0.5,0-0.9,0.3-1.3c0.3-0.3,0.7-0.5,1.1-0.5h57.5
			c0.7,0,1.3,0.5,1.4,1.1l9.1,37.3C246.8,180,246.1,180.9,245.1,180.9z"/>
		<linearGradient id="SVGID_24_" gradientUnits="userSpaceOnUse" x1="221.2763" y1="197.3079" x2="203.3437" y2="136.225">
			<stop  offset="0" style="stop-color:#3E84FF"/>
			<stop  offset="1" style="stop-color:#7440FF"/>
		</linearGradient>
		<path class="st39" d="M214,161.4c0.8,2,0,4.1-1.6,4.7c-1.6,0.6-3.6-0.5-4.3-2.4s0-4.1,1.6-4.7C211.3,158.3,213.3,159.4,214,161.4z
			"/>
	</g>
	<g>
		
			<radialGradient id="SVGID_25_" cx="309.6929" cy="42.4634" r="45.3286" gradientTransform="matrix(0.9183 -0.3959 0.3472 0.8053 23.9168 172.0128)" gradientUnits="userSpaceOnUse">
			<stop  offset="0" style="stop-color:#3E84FF"/>
			<stop  offset="0.3286" style="stop-color:#5469FF;stop-opacity:0.6714"/>
			<stop  offset="0.7569" style="stop-color:#6B4BFF;stop-opacity:0.2431"/>
			<stop  offset="1" style="stop-color:#7440FF;stop-opacity:0"/>
		</radialGradient>
		<path class="st40" d="M373.3,61.9c10.7,24.8-3.2,54.5-30.9,66.5c-27.8,12-58.9,1.6-69.6-23.2c-10.7-24.8,3.2-54.5,30.9-66.5
			C331.5,26.8,362.6,37.2,373.3,61.9z"/>
		<linearGradient id="SVGID_26_" gradientUnits="userSpaceOnUse" x1="295.6896" y1="23.7064" x2="335.1075" y2="123.7672">
			<stop  offset="0" style="stop-color:#3E84FF"/>
			<stop  offset="1" style="stop-color:#7440FF"/>
		</linearGradient>
		<path class="st41" d="M355.6,55v43.4c0,2.3-1.9,4.2-4.2,4.2h-69.7c-2.3,0-4.2-1.9-4.2-4.2V55c0-2.3,1.9-4.2,4.2-4.2h69.7
			C353.8,50.8,355.6,52.7,355.6,55z"/>
		<g>
			<g>
				<path class="st6" d="M301.3,93.3c-2.3,0-4.2-1.9-4.2-4.2v-7.5c0-0.6-0.2-1.1-0.6-1.5l-1.5-1.5c-1-1-1-2.6,0-3.6l1.5-1.5
					c0.4-0.4,0.6-0.9,0.6-1.5v-7.5c0-2.3,1.9-4.2,4.2-4.2v2.1c-1.2,0-2.1,0.9-2.1,2.1v7.5c0,1.1-0.4,2.2-1.2,3l-1.5,1.5
					c-0.2,0.2-0.2,0.5,0,0.7l1.5,1.5c0.8,0.8,1.2,1.8,1.2,3v7.5c0,1.2,0.9,2.1,2.1,2.1V93.3z"/>
			</g>
			<g>
				<path class="st6" d="M331.9,60.2c2.3,0,4.2,1.9,4.2,4.2v7.5c0,0.6,0.2,1.1,0.6,1.5l1.5,1.5c1,1,1,2.6,0,3.6l-1.5,1.5
					c-0.4,0.4-0.6,0.9-0.6,1.5v7.5c0,2.3-1.9,4.2-4.2,4.2v-2.1c1.2,0,2.1-0.9,2.1-2.1v-7.5c0-1.1,0.4-2.2,1.2-3l1.5-1.5
					c0.2-0.2,0.2-0.5,0-0.7l-1.5-1.5c-0.8-0.8-1.2-1.8-1.2-3v-7.5c0-1.2-0.9-2.1-2.1-2.1V60.2z"/>
			</g>
			<path class="st6" d="M326.2,70.5c-1.8-1.8-4.6-1.8-6.4,0l-3.2,3.2l-3.2-3.2c-1.8-1.8-4.6-1.8-6.4,0c-1.8,1.8-1.8,4.6,0,6.4
				l3.2,3.2l6.4,6.4l6.4-6.4l3.2-3.2C328,75.1,328,72.2,326.2,70.5z"/>
		</g>
	</g>
	<g>
		<path class="st42" d="M266.4,54.6v-2c0-0.8-0.6-1.4-1.4-1.4h-3.3c-0.3-1.1-0.7-2.1-1.3-3.1l2.3-2.3c0.5-0.5,0.5-1.4,0-2l-1.4-1.4
			c-0.5-0.5-1.4-0.5-2,0l-2.3,2.3c-0.9-0.6-2-1-3.1-1.3v-3.3c0-0.8-0.6-1.4-1.4-1.4h-2c-0.8,0-1.4,0.6-1.4,1.4v3.3
			c-1.1,0.3-2.1,0.7-3.1,1.3l-2.3-2.3c-0.5-0.5-1.4-0.5-2,0l-1.4,1.4c-0.5,0.5-0.5,1.4,0,2l2.3,2.3c-0.6,0.9-1,2-1.3,3.1h-3.3
			c-0.8,0-1.4,0.6-1.4,1.4v2c0,0.8,0.6,1.4,1.4,1.4h3.3c0.3,1.1,0.7,2.1,1.3,3.1l-2.3,2.3c-0.5,0.5-0.5,1.4,0,2l1.4,1.4
			c0.5,0.5,1.4,0.5,2,0l2.3-2.3c0.9,0.6,2,1,3.1,1.3V67c0,0.8,0.6,1.4,1.4,1.4h2c0.8,0,1.4-0.6,1.4-1.4v-3.3
			c1.1-0.3,2.1-0.7,3.1-1.3l2.3,2.3c0.5,0.5,1.4,0.5,2,0l1.4-1.4c0.5-0.5,0.5-1.4,0-2l-2.3-2.3c0.6-0.9,1-2,1.3-3.1h3.3
			C265.8,56,266.4,55.3,266.4,54.6z M252.6,59.2c-3.9,0.6-7.3-2.7-6.6-6.6c0.4-2.4,2.3-4.3,4.7-4.7c3.9-0.6,7.3,2.7,6.6,6.6
			C256.8,56.9,254.9,58.8,252.6,59.2z"/>
		<g>
			<path class="st6" d="M222.8,101.8L222.8,101.8c-0.8,0-1.4-0.6-1.5-1.3c-0.7-6.1-5.9-11-12.2-11c-5.2,0-9.7,3.3-11.5,7.9l2.9,0.6
				l-3.6,2.7l-1.5,1.1H195l-1.1-1.9l-2.2-3.7l2.9,0.6c2.1-6,7.7-10.3,14.4-10.3c7.8,0,14.3,6,15.2,13.6
				C224.3,101,223.7,101.8,222.8,101.8z"/>
			<path class="st6" d="M195.1,105.8L195.1,105.8c0.8,0,1.4,0.6,1.5,1.3c0.7,6.1,5.9,11,12.2,11c5.2,0,9.7-3.3,11.5-7.9l-2.9-0.6
				l3.6-2.7l1.5-1.1h0.3l1.1,1.9l2.2,3.7l-2.9-0.6c-2.1,6-7.7,10.3-14.4,10.3c-7.8,0-14.3-6-15.2-13.6
				C193.6,106.6,194.3,105.8,195.1,105.8z"/>
			<polygon class="st6" points="195.3,101.8 195.1,101.9 195,101.8 			"/>
		</g>
	</g>
	<path class="st43" d="M338.9,303.8c-0.2,4.7-4.2,8.2-8.9,8.2h-246c-4.9,0-8.9-4.1-8.6-9.1c0.1-2.3,1.2-4.4,2.8-5.9
		c1.6-1.5,3.8-2.4,6.1-2.4h246C335.2,294.7,339.2,298.9,338.9,303.8z"/>
	<g>
		<linearGradient id="SVGID_27_" gradientUnits="userSpaceOnUse" x1="330.3902" y1="121.0796" x2="382.7646" y2="121.0796">
			<stop  offset="0" style="stop-color:#3E84FF"/>
			<stop  offset="1" style="stop-color:#7440FF"/>
		</linearGradient>
		<line class="st44" x1="331.9" y1="121.1" x2="381.3" y2="121.1"/>
		<line class="st45" x1="331.9" y1="129.9" x2="363.9" y2="129.9"/>
		<line class="st45" x1="331.9" y1="138.5" x2="363.9" y2="138.5"/>
		<radialGradient id="SVGID_28_" cx="331.8641" cy="129.8804" r="8.8144" gradientUnits="userSpaceOnUse">
			<stop  offset="0" style="stop-color:#FFFFFF"/>
			<stop  offset="1" style="stop-color:#000000"/>
		</radialGradient>
		<circle class="st46" cx="331.9" cy="129.9" r="8.8"/>
	</g>
	<g>
		<line class="st45" x1="75.3" y1="169.3" x2="25.9" y2="169.3"/>
		<linearGradient id="SVGID_29_" gradientUnits="userSpaceOnUse" x1="41.8348" y1="178.1305" x2="76.7745" y2="178.1305">
			<stop  offset="0" style="stop-color:#3E84FF"/>
			<stop  offset="1" style="stop-color:#7440FF"/>
		</linearGradient>
		<line class="st47" x1="75.3" y1="178.1" x2="43.3" y2="178.1"/>
		<linearGradient id="SVGID_30_" gradientUnits="userSpaceOnUse" x1="41.8348" y1="186.7415" x2="76.7745" y2="186.7415">
			<stop  offset="0" style="stop-color:#3E84FF"/>
			<stop  offset="1" style="stop-color:#7440FF"/>
		</linearGradient>
		<line class="st48" x1="75.3" y1="186.7" x2="43.3" y2="186.7"/>
		<radialGradient id="SVGID_31_" cx="75.6141" cy="169.1732" r="8.8144" gradientUnits="userSpaceOnUse">
			<stop  offset="0" style="stop-color:#FFFFFF"/>
			<stop  offset="1" style="stop-color:#000000"/>
		</radialGradient>
		<circle class="st49" cx="75.6" cy="169.2" r="8.8"/>
	</g>
	<radialGradient id="SVGID_32_" cx="139.6671" cy="291.022" r="232.6777" gradientUnits="userSpaceOnUse">
		<stop  offset="0" style="stop-color:#FF00FF"/>
		<stop  offset="1" style="stop-color:#00FFFF;stop-opacity:0"/>
	</radialGradient>
	<path class="st50" d="M246.6,179.1l-9.1-37.3c-0.2-0.7-0.7-1.1-1.4-1.1h-57.5c-0.5,0-0.9,0.2-1.1,0.5l-0.3-0.2l10.6-57.3
		c0,0,83-41.2,99.4,8.1c1,3.1,28.4,42.8,28.9,45.5C323.6,178,246.6,179.1,246.6,179.1z"/>
	<g>
		<path class="st51" d="M111.2,149.5c0,0-15.6,83.1,51.5,92c51,6.8,106.8-34.1,92.9-61.3"/>
		<path class="st52" d="M135.3,147.8c0,0-21.2,37.6,0,90.7c21.2,53.1,149.9,67.9,126.4-57.3"/>
		<radialGradient id="SVGID_33_" cx="235.411" cy="222.1246" r="8.8144" gradientUnits="userSpaceOnUse">
			<stop  offset="0" style="stop-color:#FFFFFF"/>
			<stop  offset="1" style="stop-color:#000000"/>
		</radialGradient>
		<circle class="st53" cx="235.4" cy="222.1" r="8.8"/>
		<radialGradient id="SVGID_34_" cx="165.8222" cy="268.5119" r="8.8144" gradientUnits="userSpaceOnUse">
			<stop  offset="0" style="stop-color:#FFFFFF"/>
			<stop  offset="1" style="stop-color:#000000"/>
		</radialGradient>
		<circle class="st54" cx="165.8" cy="268.5" r="8.8"/>
	</g>
	<g>
		<linearGradient id="SVGID_35_" gradientUnits="userSpaceOnUse" x1="403.6907" y1="134.6877" x2="384.3608" y2="213.5234">
			<stop  offset="0" style="stop-color:#3E84FF"/>
			<stop  offset="1" style="stop-color:#7440FF"/>
		</linearGradient>
		<path class="st55" d="M396.3,192.8c-5.5,14.3-12.6,27.9-20.9,40.4c1.3-9.8,10.7-73.9,27.5-94.8C405,152,401,174,396.3,192.8z"/>
		<path class="st42" d="M379.9,226.1c-1.5,2.4-3,4.8-4.5,7.1c-2.4,3.6-5,7.2-7.6,10.7c-0.1-0.9-2.9-48.3,12.1-72.8
			C385.2,189.2,382.3,212.7,379.9,226.1z"/>
		<g class="st1">
			<path d="M402.9,138.4c-3.5,13-6.8,26.1-9.8,39.2c-1.5,6.6-2.9,13.1-4.2,19.7c-1.3,6.6-2.5,13.2-3.2,19.9l-1.2-0.1
				c0.9-6.7,2.2-13.3,3.5-19.9c1.4-6.6,2.9-13.2,4.5-19.7C395.7,164.4,399.2,151.4,402.9,138.4z"/>
		</g>
		<g class="st1">
			<path d="M379.9,171.1c-0.9,5.1-1.7,10.3-2.3,15.4c-0.7,5.2-1.2,10.3-1.6,15.5c-0.4,5.2-0.7,10.4-0.7,15.6
				c0,5.2,0.1,10.4,0.8,15.5l-1.2,0.2c-0.6-5.2-0.6-10.5-0.5-15.7c0.1-5.2,0.6-10.4,1-15.6c0.5-5.2,1.2-10.4,1.9-15.5
				C378,181.3,378.9,176.2,379.9,171.1z"/>
		</g>
	</g>
	<g>
		<path class="st42" d="M54.3,255.8c0,0-23.4-14.3-32.2-42c24.5,3.1,46.3,43.3,46.3,43.3L54.3,255.8z"/>
		<g class="st1">
			<path d="M22.1,213.8c6.6,6,13.1,12.2,19.4,18.5c6.3,6.3,12.5,12.8,18.2,19.7l-0.9,0.7c-5.6-7-11.6-13.6-17.7-20.1
				C34.9,226.3,28.6,220,22.1,213.8z"/>
		</g>
		<linearGradient id="SVGID_36_" gradientUnits="userSpaceOnUse" x1="13.805" y1="245.5591" x2="58.9081" y2="288.0092">
			<stop  offset="0" style="stop-color:#3E84FF"/>
			<stop  offset="1" style="stop-color:#7440FF"/>
		</linearGradient>
		<path class="st56" d="M81.2,279.2c-0.4,0.2-0.9,0.2-1.3,0.1c-5.2-4.5-10.9-9.9-16.8-16.4c-28.9-16.5-56.8,18.3-56.8,18.3
			s11.7-40.6,44.3-33.7h0C83.3,254.3,81.2,279.2,81.2,279.2z"/>
		<g class="st1">
			<path d="M6.3,281.1c4-6.3,8.8-12.1,14.4-17.1c5.6-4.9,12.1-9.1,19.6-10.7c3.7-0.8,7.5-0.8,11.3-0.1c3.7,0.7,7.3,2.1,10.5,4.1
				c0.8,0.5,1.6,1,2.4,1.6l1.2,0.8l1.1,0.9c0.7,0.6,1.5,1.2,2.2,1.8l1,1l1,1.1c1.3,1.4,2.3,3.1,3.1,4.8c0.8,1.8,1.4,3.6,1.5,5.6
				l-1.2,0c-0.1-1.7-0.6-3.5-1.3-5.2c-0.7-1.7-1.7-3.2-2.9-4.6l-0.9-1l-1-1c-0.7-0.6-1.4-1.2-2.1-1.8l-1.1-0.9l-1.1-0.8
				c-0.8-0.5-1.5-1.1-2.3-1.6c-3.1-2-6.6-3.4-10.2-4.1c-3.6-0.7-7.4-0.7-11,0c-7.3,1.4-13.9,5.5-19.5,10.3
				C15.2,269.1,10.3,274.9,6.3,281.1z"/>
		</g>
	</g>
</g>
<g id="DESIGNED_BY_FREEPIK">
</g>
</svg>
