<?xml version="1.0" encoding="utf-8"?>
<!-- Generator: Adobe Illustrator 23.0.1, SVG Export Plug-In . SVG Version: 6.00 Build 0)  -->
<svg version="1.1" id="Layer_1" xmlns="http://www.w3.org/2000/svg" xmlns:xlink="http://www.w3.org/1999/xlink" x="0px" y="0px"
	 viewBox="0 0 187.7 362.5" style="enable-background:new 0 0 187.7 362.5;" xml:space="preserve">
<style type="text/css">
	.st0{fill:#00BAEA;}
	.st1{fill:#00AFD8;}
	.st2{fill:#4C4B89;}
	.st3{fill:#474950;}
	.st4{fill:#22225A;}
	.st5{fill:#252832;}
	.st6{fill:#26264C;}
	.st7{clip-path:url(#SVGID_2_);}
	.st8{enable-background:new    ;}
	.st9{fill:#F90D3E;}
	.st10{fill:#CAF0F1;}
	.st11{fill:#FFFFFF;}
	.st12{fill:#C1E0E0;}
	.st13{fill:#E80F42;}
	.st14{fill:#4C4B8B;}
	.st15{fill:#35357F;}
	.st16{fill:#00BBEB;}
	.st17{fill:#00A1CE;}
	.st18{clip-path:url(#SVGID_4_);}
	.st19{fill:#A0E4E4;}
	.st20{fill:#BFDEDE;}
	.st21{fill:#34346F;}
	.st22{fill:#6868AE;}
	.st23{clip-path:url(#SVGID_6_);}
	.st24{fill:#FF1049;}
	.st25{fill:#A1E5E5;}
	.st26{fill:#C0DFDF;}
	.st27{fill:#DB0E3F;}
	.st28{clip-path:url(#SVGID_8_);}
	.st29{fill:#FFAE65;}
	.st30{fill:#B9B9BA;}
	.st31{fill:#CCCCCC;}
	.st32{fill:#FFCD8F;}
</style>
<g id="BACKGROUND">
</g>
<g>
	<g>
		<g>
			<path class="st0" d="M68.5,79C68.5,79,68.6,79,68.5,79C68.5,79,68.5,79,68.5,79L68.5,79z"/>
			<path class="st0" d="M68.5,79L68.5,79c0.1,0,0.2-0.1,0.2-0.1c0.3-0.1,0.7,0,1.1,0.2l1,0.6l9.9-5.8l-1-0.6c-0.5-0.3-1-0.3-1.3-0.1
				L68.5,79z"/>
			<path class="st1" d="M67.8,95.3c0,1.2,0.8,2.6,1.9,3.2l1,0.6V79.7l-1-0.6c-0.4-0.2-0.7-0.3-1.1-0.2h-0.1h-0.1l0,0
				c-0.4,0.2-0.6,0.6-0.6,1.2L67.8,95.3z"/>
			<path class="st2" d="M92.6,257.5v1.6l-4.7-2.7c-1.6-0.9-2.9-0.2-3,1.7c0,1.9,1.3,4.2,2.9,5.1l7.1,4.1c0.4,0.2,0.6,0,0.6-0.4
				s-0.3-0.9-0.6-1.1l-7.1-4.1c-0.9-0.5-1.7-1.8-1.7-2.9s0.8-1.5,1.7-1l4.7,2.7v1.6l3.5-0.3L92.6,257.5z"/>
			<path class="st3" d="M111.7,269.2c-1.8-1-3.2-0.2-3.2,1.8v1.6c0,2,1.4,4.6,3.2,5.6l26.4,15.3c1.8,1,3.2,0.2,3.2-1.8v-1.6
				c0-2-1.4-4.6-3.2-5.6L111.7,269.2z M109.6,273.6v-2.2c0-1.4,1-2,2.2-1.3l26.2,15.1c1.2,0.7,2.2,2.4,2.2,3.8v2.2
				c0,1.4-1,2-2.2,1.3l-26.2-15.1C110.6,276.7,109.6,275,109.6,273.6"/>
			<path class="st2" d="M178,73.8v0.7c0-0.3,0-0.7,0-1C178,73.6,178,73.7,178,73.8z"/>
			<path class="st0" d="M175.3,321l5.5-3.2c2.6-1.5,4.2-4.7,4.2-9.3l0.4-160.3l-5.5,3.2L179.6,254l-0.1,43.3v12.3v2.2
				c0,0.3,0,0.6,0,0.9c0,0.2,0,0.4,0,0.5c0,0.5-0.1,0.9-0.2,1.3c0,0.1,0,0.2-0.1,0.3c-0.1,0.3-0.1,0.6-0.2,0.9
				c-0.1,0.2-0.1,0.4-0.2,0.6c-0.1,0.4-0.3,0.8-0.5,1.2c0,0,0,0.1-0.1,0.1c-0.1,0.1-0.1,0.3-0.2,0.4c-0.2,0.4-0.4,0.7-0.7,1
				c-0.1,0.1-0.2,0.2-0.3,0.3c-0.1,0.2-0.3,0.3-0.4,0.5l-0.1,0.1c-0.2,0.2-0.3,0.3-0.5,0.5c0,0-0.1,0-0.1,0.1
				c-0.2,0.2-0.4,0.3-0.6,0.4C175.4,320.9,175.3,321,175.3,321z"/>
			<path class="st1" d="M179.8,151.4l1,0.6c1,0.6,1.9,0.1,1.9-1.1l0.1-46.2c0-1.2-0.8-2.6-1.9-3.2l-1-0.6L179.8,151.4z"/>
			<path class="st4" d="M73,70.6l0.1-43.3v-9.6v-1.2c0-1.1,0-2.3,0-3.4c0-0.2,0-0.4,0-0.6c0-0.4,0.1-0.8,0.1-1.2
				c0.1-0.4,0.1-0.7,0.2-1.1c1.3-3.5,4.2-5.1,7.8-4.4c0.3,0.1,0.7,0.2,1,0.4c0.1,0,0.2,0.1,0.3,0.1c0.3,0.1,0.6,0.3,0.9,0.4
				c0.4,0.2,0.8,0.5,1.3,0.7c0.3,0.2,0.5,0.3,0.8,0.5c0.5,0.3,0.9,0.5,1.4,0.8l4.7,2.7l62.7,36.1l4.3,2.5l0,0l0.2,0.1l8.1,4.7
				c0,0,0.1,0,0.1,0.1c0.2,0.1,0.3,0.2,0.5,0.3l0,0c0,0,0,0,0.1,0c0.2,0.1,0.3,0.2,0.5,0.3c5,4,8.9,10.8,9.8,17.1c0,0,0,0,0,0.1l0,0
				c0,0.3,0,0.6,0,0.9c0,0.1,0,0.2,0,0.3v1.4v6.3v15.3l-0.1,43.1v6.7l-0.4,108l-0.2,42.1h-4.7L173,81.6l-55-31.8L77.8,26.4
				l-0.1,44.2l-0.1,21.6h-4.7C73,85,73,77.8,73,70.6z M163.5,64.6c1.3,0.7,2.3,0.1,2.3-1.3c0-1.4-1-3.2-2.3-3.9s-2.3-0.1-2.3,1.3
				S162.3,63.9,163.5,64.6z M99.8,27.2l51.5,29.7c1,0.6,1.8,0.1,1.8-1c0-0.3,0-0.5-0.1-0.9c-0.1-0.3-0.2-0.5-0.4-0.9
				s-0.5-0.7-1.2-1.3L99.5,23c-0.8-0.3-1.4,0.1-1.5,1.1C98,25.3,98.8,26.7,99.8,27.2z M91.5,22.2c0.9,0.5,1.6,0.1,1.6-0.9
				s-0.7-2.2-1.6-2.7s-1.6-0.1-1.6,0.9S90.7,21.8,91.5,22.2z"/>
			<path class="st4" d="M72.4,242.7v-3.5l0.1-10.8v-0.1l0.1-49.7l0.1-21.6c0.1-14.4,0.2-28.8,0.2-43.2c0-7.2,0.1-14.4,0.1-21.6h4.7
				l-0.3,149.4l0,0l16.1,9.3l79.2,45.7l0,0h4.7v12c0,1.2,0,2.4,0,3.7c0,0.1,0,0.1,0,0.2c0,0.4,0,0.7-0.1,1.1c0,0.1,0,0.2,0,0.3
				c0,0.1,0,0.1,0,0.2s0,0.2-0.1,0.3l0,0c-1.3,4.2-4.7,6-9,4.8l0,0c-0.2-0.1-0.5-0.2-0.7-0.3c-0.1,0-0.2-0.1-0.3-0.1
				s-0.1-0.1-0.2-0.1l0,0c-0.2-0.1-0.3-0.2-0.5-0.2c-0.5-0.2-1-0.5-1.5-0.9c-0.5-0.3-0.8-0.5-1.1-0.6l-4.5-2.6l-0.4-0.3l-0.2-0.1
				l-4.9-2.8l-1.3-0.7l-16.9-9.7L83.9,271c-6-4-10.8-12.2-11.5-19.4c0-0.5,0-1,0-1.5L72.4,242.7z M108.5,272.6c0,2,1.5,4.6,3.2,5.6
				l26.4,15.3c1.8,1,3.2,0.2,3.2-1.8v-1.6c0-2-1.5-4.6-3.2-5.6l-26.4-15.3c-1.8-1-3.2-0.2-3.2,1.8
				C108.5,271,108.5,272.6,108.5,272.6z"/>
			<path class="st5" d="M108.5,271v1.6c0,2,1.5,4.6,3.2,5.6l26.4,15.3c1.8,1,3.2,0.2,3.2-1.8v-1.6c0-2-1.5-4.6-3.2-5.6l-26.4-15.3
				C109.9,268.1,108.5,269,108.5,271z"/>
			<path class="st2" d="M161.3,60.7c0,1.4,1,3.2,2.3,3.9s2.3,0.1,2.3-1.3c0-1.4-1-3.2-2.3-3.9C162.3,58.7,161.3,59.3,161.3,60.7z"/>
			<path class="st2" d="M72.6,17.4l0.6,0.3v9.6L73,70.6c0,7.2,0,14.4-0.1,21.6c0,7.2-0.1,14.4-0.1,21.6c-0.1,14.4-0.2,28.8-0.2,43.2
				l-0.1,21.6l-0.1,49.7v0.1l-0.1,10.8v3.5l-0.2-0.1l-0.1-0.1L72.6,17.4z M177.9,146.6l-0.4,157.2l-0.1-0.1v-6.9l0.2-42.1
				L177.9,146.6z"/>
			<path class="st1" d="M70.7,99.2V79.8L71,13.4c0-9.2,6.5-12.9,14.5-8.3l80.2,46.3c8,4.6,14.4,15.8,14.4,24.9l-0.1,24.5l-0.1,50.5
				L179.6,254l-0.1,43.3v12.3v2.2c0,0.3,0,0.6,0,0.9c0,0.2,0,0.4,0,0.5c0,0.5-0.1,0.9-0.2,1.3c0,0.1,0,0.2-0.1,0.3
				c-0.1,0.3-0.1,0.6-0.2,0.9c-0.1,0.2-0.1,0.4-0.2,0.6c-0.1,0.4-0.3,0.8-0.5,1.2c0,0,0,0.1-0.1,0.1c-0.1,0.1-0.1,0.3-0.2,0.4
				c-0.2,0.4-0.4,0.7-0.7,1c-0.1,0.1-0.2,0.2-0.3,0.3c-0.1,0.2-0.3,0.3-0.4,0.5l-0.1,0.1c-0.2,0.2-0.3,0.3-0.5,0.5
				c0,0-0.1,0-0.1,0.1c-0.2,0.2-0.4,0.3-0.6,0.4c-2.6,1.6-6.3,1.5-10.4-0.9l-80.2-46.3c-7.9-4.6-14.4-15.8-14.4-24.9L70.7,99.2z
				 M72.2,135.1v21.7c0-11.6,0-23.1,0-34.7C72.2,126.5,72.2,130.8,72.2,135.1z M72.8,10.2c0,0.1,0,0.1,0,0.2c0-0.1,0-0.3,0.1-0.4
				C72.8,10,72.8,10.1,72.8,10.2z M77.8,4.7L77.8,4.7C77.7,4.7,77.8,4.7,77.8,4.7L77.8,4.7z M174.9,319.5
				C174.9,319.4,174.9,319.4,174.9,319.5c0,0-0.1,0-0.2,0.1C174.8,319.5,174.8,319.5,174.9,319.5z M72.1,249.9c0,0.2,0,0.5,0,0.7v-8
				l0.2,0.1v7.3c0,0.5,0,1,0,1.5c0.7,7.2,5.5,15.4,11.5,19.4l51.8,29.8l16.9,9.7l1.3,0.7l4.9,2.8l0.6,0.4l4.5,2.6
				c0.3,0.2,0.6,0.3,1.1,0.6c0.6,0.3,1.1,0.6,1.5,0.9c0.2,0.1,0.3,0.2,0.5,0.2l0,0c0.1,0,0.1,0,0.2,0.1c0.1,0,0.2,0.1,0.3,0.1
				c0.2,0.1,0.5,0.2,0.7,0.3l0,0c4.3,1.3,7.8-0.6,9-4.8l0,0c0-0.1,0-0.2,0.1-0.3c0-0.1,0-0.1,0-0.2s0-0.2,0-0.3
				c0-0.4,0.1-0.7,0.1-1.1c0-0.1,0-0.1,0-0.2c0-1.3,0-2.5,0-3.7v-5l0.1,0.1l0.4-157.2v-6.7l0.1-43.1V81.3V75v-1.4c0-0.1,0-0.2,0-0.3
				c0-0.3,0-0.6,0-0.9l0,0c0,0,0,0,0-0.1c-0.9-6.3-4.9-13.1-9.8-17.1c-0.2-0.1-0.3-0.2-0.5-0.3c0,0,0,0-0.1,0l0,0
				c-0.2-0.1-0.3-0.2-0.5-0.3c0,0-0.1,0-0.1-0.1l-8.1-4.7l-0.2-0.1l0,0l-4.3-2.5L91.7,11.3L87,8.6c-0.5-0.2-0.9-0.5-1.4-0.8
				c-0.3-0.2-0.5-0.3-0.8-0.5c-0.4-0.3-0.9-0.5-1.3-0.7c-0.3-0.2-0.6-0.3-0.9-0.4c-0.1,0-0.2-0.1-0.3-0.1c-0.4-0.1-0.7-0.3-1-0.4
				c-3.7-0.7-6.6,1-7.8,4.4c-0.1,0.4-0.2,0.7-0.2,1.1c-0.1,0.4-0.1,0.8-0.1,1.2c0,0.2,0,0.4,0,0.6c0,1.1,0,2.3,0,3.4v1.2l0,0
				l-0.8,225l-0.2-0.1L72.1,249.9z"/>
			<path class="st2" d="M98,24.2c0,1.1,0.8,2.5,1.7,3L151.3,57c1,0.6,1.8,0.1,1.8-1c0-0.3,0-0.5-0.1-0.9c-0.1-0.3-0.2-0.5-0.4-0.9
				s-0.5-0.7-1.2-1.3L99.5,23C98.7,22.7,98.1,23.1,98,24.2z"/>
			<path class="st2" d="M90,19.5c0,1,0.7,2.2,1.6,2.7s1.6,0.1,1.6-0.9s-0.7-2.2-1.6-2.7C90.7,18.2,90,18.5,90,19.5z"/>
			<path class="st0" d="M180,100.9l1,0.6c1,0.6,1.9,2,1.9,3.2l-0.1,46.2l1.9-0.9l0,0l2.4-1.4c0.3-0.2,0.5-0.6,0.5-1.2l0.1-45.3
				c0-1.2-0.8-2.6-1.9-3.2l-1-0.6L180,100.9z"/>
			<path class="st0" d="M75.2,4.2c2.6-1.5,6.3-1.3,10.3,1l80.2,46.3c7.9,4.6,14.4,15.8,14.4,24.9l-0.1,24.5l5.6-3.2l0.1-24.5
				c0-9.1-6.4-20.3-14.4-24.9L91,2c-4-2.3-7.6-2.5-10.3-1L75.2,4.2z"/>
			<polygon class="st2" points="72.4,242.7 72.2,242.6 72.4,242.7 177.3,303.6 177.5,303.7 177.9,146.6 177.9,139.9 178,81.5 
				178,78.6 73.1,17.7 73.1,17.7 			"/>
			<polygon class="st6" points="72.4,242.7 72.2,242.6 72.4,242.7 177.3,303.6 177.5,303.7 177.9,146.6 177.9,139.9 178,81.5 
				178,78.6 73.1,17.7 73.1,17.7 			"/>
			<path class="st2" d="M111.9,270.2c-1.2-0.7-2.2-0.1-2.2,1.3v2.2c0,1.4,1,3.1,2.2,3.8l26.2,15.1c1.2,0.7,2.2,0.1,2.2-1.3v-2.2
				c0-1.4-1-3.1-2.2-3.8L111.9,270.2z"/>
		</g>
		<g>
			<g>
				<defs>
					<polygon id="SVGID_1_" points="72.2,262.7 72,242.6 72.2,262.7 177.2,323.6 177.4,323.7 177.7,166.6 177.7,139.9 177.9,81.5 
						177.9,78.6 73,17.7 73,37.7 					"/>
				</defs>
				<clipPath id="SVGID_2_">
					<use xlink:href="#SVGID_1_"  style="overflow:visible;"/>
				</clipPath>
				<g class="st7">
					<g>
						<g class="st8">
							<g>
								<path class="st9" d="M156.2,185.5l-0.4-133.1c0,0.1-0.1,0.3-0.3,0.4l0.4,133.1C156.1,185.8,156.2,185.7,156.2,185.5z"/>
							</g>
							<g>
								<polygon class="st9" points="154.7,53.4 155.1,186.4 156,185.9 155.6,52.8 								"/>
							</g>
							<g>
								<polygon class="st10" points="155.2,54.6 155.6,187.7 155.9,187.6 155.5,54.5 								"/>
							</g>
							<g>
								<path class="st9" d="M166.1,191.3l-0.4-133.1c0,0.1-0.1,0.3-0.3,0.4l0.4,133.1C166.1,191.5,166.1,191.4,166.1,191.3z"/>
							</g>
							<g>
								<polygon class="st9" points="83.1,94.7 83.5,247.8 155.1,186.4 154.7,53.4 								"/>
							</g>
							<g>
								<polygon class="st10" points="84.9,95.2 85.3,248.2 155.6,187.7 155.2,54.6 								"/>
							</g>
							<g>
								<path class="st10" d="M83.1,94.7l0.4,153.1c0,0,0.7,0.1,1.8,0.5L84.9,95.2C83.8,94.9,83.1,94.7,83.1,94.7z"/>
							</g>
							<g>
								<path class="st10" d="M83.1,94.7c0,0,0.7,0.1,1.8,0.5l70.3-40.6l0.3-0.1c-0.6-0.7-0.8-1.1-0.8-1.2L83.1,94.7z"/>
							</g>
							<g>
								<path class="st9" d="M82.1,96l0.4,153.1c0-0.5,0.3-1,1-1.3L83.1,94.7C82.4,95.1,82.1,95.6,82.1,96z"/>
							</g>
							<g>
								<polygon class="st11" points="87.6,96.2 88,249.3 157.6,189.1 157.2,56 								"/>
							</g>
							<g>
								<path class="st10" d="M88,249.3L88,249.3c-0.1-45.8-0.3-107.2-0.4-153l0,0C87.7,137.4,87.9,208.1,88,249.3z"/>
							</g>
							<g>
								<path class="st11" d="M84.9,95.2c0.8,0.2,1.7,0.6,2.7,1.1L157.2,56c-0.8-0.5-1.3-1.1-1.7-1.5l-0.3,0.1L84.9,95.2z"/>
							</g>
							<g>
								<path class="st11" d="M84.9,95.2l0.4,153.1c0.8,0.2,1.7,0.6,2.7,1.1L87.6,96.2C86.6,95.8,85.7,95.4,84.9,95.2z"/>
							</g>
							<g>
								<path class="st10" d="M89,249.8c0.3,0.2,0.5,0.3,0.8,0.5l-0.4-153c-0.2-0.2-0.5-0.3-0.8-0.5s-0.7-0.4-1-0.6
									c0.1,45.8,0.3,107.3,0.4,153.1C88.3,249.5,88.7,249.6,89,249.8z"/>
							</g>
							<g>
								<path class="st10" d="M87.6,96.2c0.3,0.2,0.6,0.4,1,0.6c0.3,0.2,0.5,0.3,0.8,0.5L159.1,57c-0.7-0.3-1.3-0.7-1.8-1L87.6,96.2
									z"/>
							</g>
							<g>
								<polygon class="st10" points="89.4,97.3 89.8,250.3 159.5,190.1 159.1,57 								"/>
							</g>
							<g>
								<path class="st12" d="M82.1,96l0.4,153.1c0,0.5,0.3,0.9,0.9,1.3L83.1,97.3C82.4,97,82.1,96.5,82.1,96z"/>
							</g>
							<g>
								<path class="st13" d="M80.3,96l0.4,153.1c0,0.7,0.5,1.5,1.5,2.1L81.8,98.1C80.8,97.5,80.3,96.8,80.3,96z"/>
							</g>
							<g>
								<path class="st11" d="M89.4,97.3c0.5,0.3,1,0.7,1.4,1.2l70.4-40.6c-0.8-0.2-1.4-0.5-2-0.8L89.4,97.3z"/>
							</g>
							<g>
								<path class="st11" d="M89.4,97.3l0.4,153.1c0.5,0.3,1,0.7,1.4,1.2L90.7,98.4C90.3,98,89.9,97.6,89.4,97.3z"/>
							</g>
							<g>
								<polygon class="st11" points="90.7,98.4 91.1,251.5 161.5,190.8 161.1,57.8 								"/>
							</g>
							<g>
								<polygon class="st12" points="83.1,97.3 83.4,250.4 87.5,252.8 87.1,99.7 								"/>
							</g>
							<g>
								<path class="st10" d="M90.7,98.4l0.4,153.1c0.4,0.4,0.7,0.8,1,1.3L91.7,99.7C91.4,99.2,91.1,98.8,90.7,98.4z"/>
							</g>
							<g>
								<path class="st10" d="M90.7,98.4c0.4,0.4,0.7,0.8,1,1.3l71.6-41.4c-0.8-0.2-1.5-0.4-2.2-0.6L90.7,98.4z"/>
							</g>
							<g>
								<polygon class="st10" points="91.7,99.7 92.1,252.8 163.7,191.4 163.3,58.4 								"/>
							</g>
							<g>
								<path class="st12" d="M87.1,99.7l0.4,153.1c1.3,0.7,3.3,0.7,4.6,0L91.7,99.7C90.4,100.4,88.4,100.4,87.1,99.7z"/>
							</g>
							<g>
								<path class="st12" d="M83.1,94.7c-1.3,0.7-1.3,1.9,0,2.6l4.1,2.4c1.3,0.7,3.3,0.7,4.6,0c-0.2-0.5-0.6-0.9-1-1.3
									s-0.9-0.8-1.4-1.2c-0.2-0.2-0.5-0.3-0.8-0.5s-0.7-0.4-1-0.5c-1-0.5-1.9-0.8-2.7-1.1C83.8,94.9,83.1,94.7,83.1,94.7z"/>
							</g>
							<g>
								<polygon class="st13" points="81.8,98.1 82.1,251.1 86.2,253.5 85.8,100.5 								"/>
							</g>
							<g>
								<polygon class="st9" points="93,100.5 93.4,253.5 165.9,191.7 165.5,58.6 								"/>
							</g>
							<g>
								<path class="st9" d="M81.8,94c-2,1.1-2,3,0,4.1l4.1,2.4c2,1.1,5.2,1.1,7.2,0l72.5-41.9c0.4-0.2,0.4-0.5,0-0.8
									c-0.4-0.2-0.9-0.2-1.3,0l-0.9,0.5L91.7,99.7c-1.3,0.7-3.3,0.7-4.6,0L83,97.3c-1.3-0.7-1.2-1.9,0-2.6l71.6-41.4l0.9-0.5
									c0.4-0.2,0.4-0.5,0-0.8c-0.4-0.2-0.9-0.2-1.3,0L81.8,94z"/>
							</g>
							<g>
								<path class="st13" d="M85.8,100.5l0.4,153.1c2,1.1,5.2,1.1,7.2,0L93,100.5C91,101.6,87.8,101.6,85.8,100.5z"/>
							</g>
						</g>
					</g>
					<g>
						<g class="st8">
							<g>
								<path class="st14" d="M164.5,191.2l-0.4-124.4c0,0.1-0.1,0.3-0.3,0.4l0.4,124.4C164.4,191.4,164.5,191.3,164.5,191.2z"/>
							</g>
							<g>
								<polygon class="st14" points="162.4,68 162.8,192.4 164.3,191.5 163.9,67.2 								"/>
							</g>
							<g>
								<path class="st14" d="M179.5,199.9l-0.4-124.4c0,0.1-0.1,0.3-0.3,0.4l0.4,124.4C179.4,200.1,179.5,200,179.5,199.9z"/>
							</g>
							<g>
								<polygon class="st14" points="91.4,109 91.8,253.4 162.8,192.4 162.4,68 								"/>
							</g>
							<g>
								<path class="st11" d="M91.4,109c0.1,0,1,0.1,2.6,0.4l69.5-40.1c-0.7-0.8-1-1.3-1.1-1.3L91.4,109z"/>
							</g>
							<g>
								<polygon class="st11" points="94,109.5 94.3,253.9 163.9,193.7 163.5,69.3 								"/>
							</g>
							<g>
								<path class="st11" d="M91.4,109l0.4,144.4c0.1,0,1,0.1,2.6,0.4L94,109.5C92.4,109.1,91.4,109,91.4,109z"/>
							</g>
							<g>
								<path class="st14" d="M90.4,110.4l0.4,144.4c0-0.5,0.3-1,0.9-1.3L91.4,109C90.8,109.4,90.4,109.9,90.4,110.4z"/>
							</g>
							<g>
								<polygon class="st10" points="97.4,110.4 97.8,254.8 166,215.4 165.6,71 								"/>
							</g>
							<g>
								<path class="st10" d="M94,109.5c0.9,0.2,2.1,0.6,3.3,1l0.2-0.1L165.6,71c-0.8-0.6-1.5-1.2-2-1.7L94,109.5z"/>
							</g>
							<g>
								<path class="st10" d="M94,109.5l0.4,144.4c0.9,0.2,2.1,0.6,3.3,1l-0.4-144.4C96.1,110,94.9,109.7,94,109.5z"/>
							</g>
							<g>
								<polygon class="st10" points="97.3,110.5 97.6,254.9 97.8,254.8 97.4,110.4 								"/>
							</g>
							<g>
								<path class="st12" d="M90.4,110.4l0.4,144.4c0,0.5,0.3,0.9,0.9,1.3l-0.4-144.4C90.8,111.3,90.4,110.8,90.4,110.4z"/>
							</g>
							<g>
								<polygon class="st11" points="100.1,111.9 100.5,256.3 168.4,217.1 168.1,72.7 								"/>
							</g>
							<g>
								<path class="st11" d="M97.3,110.5l0.4,144.4c0.8,0.3,1.6,0.7,2.5,1.2c0.1,0.1,0.2,0.1,0.4,0.2l-0.4-144.4
									c-0.1-0.1-0.2-0.1-0.4-0.2C98.9,111.2,98.1,110.8,97.3,110.5z"/>
							</g>
							<g>
								<path class="st11" d="M97.4,110.4l-0.2,0.1c0.8,0.3,1.6,0.7,2.5,1.2c0.1,0.1,0.2,0.1,0.4,0.2l68-39.2
									c-0.9-0.6-1.7-1.1-2.4-1.7L97.4,110.4z"/>
							</g>
							<g>
								<path class="st15" d="M88.6,110.4L89,254.7c0,0.7,0.5,1.5,1.5,2.1l-0.4-144.4C89.1,111.9,88.6,111.1,88.6,110.4z"/>
							</g>
							<g>
								<path class="st10" d="M100.1,111.9l0.4,144.4c0.5,0.3,1,0.6,1.5,1L101.6,113C101.1,112.6,100.6,112.2,100.1,111.9z"/>
							</g>
							<g>
								<path class="st10" d="M100.1,111.9c0.5,0.3,1,0.6,1.5,1l68.1-39.3c-0.6-0.3-1.1-0.6-1.6-0.9L100.1,111.9z"/>
							</g>
							<g>
								<polygon class="st10" points="101.6,113 101.9,257.3 170.1,218 169.7,73.6 								"/>
							</g>
							<g>
								<path class="st11" d="M169.7,73.6L101.6,113c0.6,0.5,1.2,1,1.7,1.6l68.9-39.8C171.3,74.4,170.5,74,169.7,73.6z"/>
							</g>
							<g>
								<path class="st11" d="M101.6,113l0.4,144.4c0.6,0.5,1.2,1,1.7,1.6l-0.4-144.4C102.8,114,102.2,113.4,101.6,113z"/>
							</g>
							<g>
								<polygon class="st11" points="103.3,114.6 103.7,258.9 172.6,219.1 172.2,74.8 								"/>
							</g>
							<g>
								<polygon class="st10" points="104.3,115.8 104.7,260.2 174.6,219.8 174.2,75.4 								"/>
							</g>
							<g>
								<path class="st10" d="M103.3,114.6l0.4,144.4c0.4,0.4,0.7,0.8,1,1.2l-0.4-144.4C104,115.4,103.7,114.9,103.3,114.6z"/>
							</g>
							<g>
								<path class="st10" d="M103.3,114.6c0.4,0.4,0.7,0.8,1,1.2l69.9-40.4c-0.7-0.2-1.3-0.4-2-0.7L103.3,114.6z"/>
							</g>
							<g>
								<polygon class="st12" points="91.4,111.7 91.7,256 100.9,261.4 100.5,117 								"/>
							</g>
							<g>
								<polygon class="st11" points="105.1,117 105.4,261.4 176.5,220.3 176.1,76 								"/>
							</g>
							<g>
								<path class="st11" d="M104.3,115.8c0.3,0.4,0.5,0.8,0.7,1.2l71.1-41c-0.7-0.2-1.3-0.3-1.9-0.5L104.3,115.8z"/>
							</g>
							<g>
								<path class="st11" d="M104.3,115.8l0.4,144.4c0.3,0.4,0.5,0.8,0.7,1.2L105.1,117C104.8,116.6,104.6,116.2,104.3,115.8z"/>
							</g>
							<g>
								<path class="st12" d="M91.4,109c-1.3,0.7-1.3,1.9,0,2.6l9.1,5.3c1.2,0.7,3.3,0.7,4.6,0c-0.2-0.4-0.5-0.8-0.7-1.2
									c-0.3-0.4-0.7-0.9-1-1.2c-0.5-0.6-1.1-1.1-1.7-1.6c-0.5-0.4-1-0.7-1.5-1c-0.1-0.1-0.2-0.1-0.4-0.2c-0.8-0.5-1.7-0.9-2.5-1.2
									c-1.2-0.5-2.3-0.8-3.3-1C92.4,109.1,91.4,109,91.4,109z"/>
							</g>
							<g>
								<path class="st12" d="M100.5,117l0.4,144.4c1.2,0.7,3.3,0.7,4.6,0L105.1,117C103.8,117.7,101.8,117.7,100.5,117z"/>
							</g>
							<g>
								<polygon class="st15" points="90.1,112.4 90.4,256.8 99.6,262.1 99.2,117.7 								"/>
							</g>
							<g>
								<polygon class="st14" points="106.4,117.7 106.7,262.1 179.2,200.2 178.9,75.9 								"/>
							</g>
							<g>
								<path class="st14" d="M90.1,108.3c-2,1.1-2,3,0,4.1l9.1,5.3c2,1.1,5.2,1.1,7.2,0l72.5-41.9c0.4-0.2,0.4-0.5,0-0.8
									c-0.4-0.2-0.9-0.2-1.3,0l-1.5,0.8l-71.1,41c-1.3,0.7-3.3,0.7-4.6,0l-9.1-5.3c-1.3-0.7-1.2-1.9,0-2.6l71.1-41l1.5-0.8
									c0.4-0.2,0.4-0.5,0-0.8c-0.4-0.2-0.9-0.2-1.3,0L90.1,108.3z"/>
							</g>
							<g>
								<path class="st15" d="M99.2,117.7l0.4,144.4c2,1.1,5.2,1.1,7.2,0l-0.4-144.4C104.4,118.9,101.2,118.9,99.2,117.7z"/>
							</g>
						</g>
					</g>
					<g>
						<g class="st8">
							<g>
								<path class="st16" d="M163.4,229.4l-0.3-123.7c0,0.1-0.1,0.3-0.3,0.4l0.3,123.7C163.3,229.7,163.4,229.6,163.4,229.4z"/>
							</g>
							<g>
								<polygon class="st16" points="161,107.1 161.3,230.9 163.1,229.8 162.8,106.1 								"/>
							</g>
							<g>
								<path class="st16" d="M173.3,235.2L173,111.5c0,0.1-0.1,0.3-0.3,0.4l0.3,123.7C173.2,235.5,173.3,235.3,173.3,235.2z"/>
							</g>
							<g>
								<polygon class="st16" points="105,139.4 105.3,263.2 161.3,230.9 161,107.1 								"/>
							</g>
							<g>
								<path class="st11" d="M105,139.4c0.1,0,1,0.2,2.4,0.8l54.7-31.6c-0.8-0.8-1.1-1.5-1.2-1.5L105,139.4z"/>
							</g>
							<g>
								<polygon class="st11" points="107.4,140.2 107.7,263.9 162.4,232.3 162.1,108.6 								"/>
							</g>
							<g>
								<path class="st11" d="M105,139.4l0.3,123.7c0.1,0,1,0.2,2.4,0.8l-0.3-123.7C106,139.7,105.1,139.4,105,139.4z"/>
							</g>
							<g>
								<path class="st16" d="M104.5,140.3l0.3,123.7c0-0.3,0.2-0.6,0.5-0.8L105,139.4C104.7,139.6,104.5,139.9,104.5,140.3z"/>
							</g>
							<g>
								<polygon class="st10" points="109.2,141 109.5,264.7 163.7,233.4 163.4,109.7 								"/>
							</g>
							<g>
								<path class="st10" d="M107.4,140.2c0.6,0.2,1.2,0.5,1.8,0.8l54.2-31.3c-0.5-0.4-1-0.7-1.3-1.1L107.4,140.2z"/>
							</g>
							<g>
								<path class="st10" d="M107.4,140.2l0.3,123.7c0.6,0.2,1.2,0.5,1.8,0.8L109.2,141C108.6,140.7,108,140.4,107.4,140.2z"/>
							</g>
							<g>
								<path class="st12" d="M104.5,140.3l0.3,123.7c0,0.5,0.4,1,1.1,1.5l-0.3-123.7C104.9,141.3,104.5,140.8,104.5,140.3z"/>
							</g>
							<g>
								<path class="st11" d="M109.2,141l0.3,123.7c0.3,0.2,0.6,0.3,0.9,0.5c0.2,0.1,0.5,0.3,0.7,0.5L110.9,142
									c-0.2-0.2-0.5-0.3-0.7-0.5C109.8,141.3,109.5,141.2,109.2,141z"/>
							</g>
							<g>
								<path class="st11" d="M109.2,141c0.3,0.2,0.6,0.3,0.9,0.5c0.2,0.1,0.5,0.3,0.7,0.5l54.2-31.3c-0.6-0.3-1.2-0.7-1.7-1
									L109.2,141z"/>
							</g>
							<g>
								<polygon class="st11" points="110.9,142 111.2,265.7 165.4,234.4 165.1,110.7 								"/>
							</g>
							<g>
								<path class="st17" d="M102.7,140.3L103,264c0,0.8,0.6,1.6,1.7,2.2l-0.3-123.7C103.2,141.8,102.7,141,102.7,140.3z"/>
							</g>
							<g>
								<path class="st10" d="M110.9,142l0.3,123.7c0.5,0.3,0.9,0.6,1.4,1L112.3,143C111.8,142.6,111.4,142.3,110.9,142z"/>
							</g>
							<g>
								<path class="st10" d="M110.9,142c0.5,0.3,0.9,0.6,1.4,1l54.6-31.5c-0.7-0.2-1.3-0.5-1.8-0.8L110.9,142z"/>
							</g>
							<g>
								<polygon class="st10" points="112.3,143 112.6,266.7 167.2,235.2 166.9,111.5 								"/>
							</g>
							<g>
								<polygon class="st12" points="105.6,141.7 105.9,265.4 110,267.8 109.7,144.1 								"/>
							</g>
							<g>
								<path class="st11" d="M112.3,143l0.3,123.7c0.5,0.4,1,0.9,1.4,1.4l-0.3-123.7C113.2,143.9,112.8,143.4,112.3,143z"/>
							</g>
							<g>
								<path class="st11" d="M112.3,143c0.5,0.4,1,0.9,1.4,1.4l55.9-32.3c-1-0.2-1.9-0.4-2.7-0.7L112.3,143z"/>
							</g>
							<g>
								<polygon class="st11" points="113.7,144.4 114,268.2 169.9,235.9 169.6,112.1 								"/>
							</g>
							<g>
								<polygon class="st17" points="104.3,142.5 104.6,266.2 108.7,268.6 108.4,144.8 								"/>
							</g>
							<g>
								<path class="st12" d="M105,139.4c-0.9,0.5-0.6,1.6,0.6,2.3l4.1,2.4c1.2,0.7,3,0.9,4,0.3c-0.4-0.5-0.9-1-1.4-1.4
									c-0.4-0.4-0.9-0.7-1.4-1c-0.2-0.2-0.5-0.3-0.7-0.5c-0.3-0.2-0.6-0.4-0.9-0.5c-0.6-0.3-1.2-0.6-1.8-0.8
									C106,139.7,105.1,139.4,105,139.4z"/>
							</g>
							<g>
								<path class="st12" d="M109.7,144.1l0.3,123.7c1.2,0.7,3,0.9,4,0.3l-0.3-123.7C112.7,145,110.9,144.8,109.7,144.1z"/>
							</g>
							<g>
								<polygon class="st16" points="114.9,145.2 115.3,268.9 173,235.6 172.7,111.9 								"/>
							</g>
							<g>
								<path class="st17" d="M108.4,144.8l0.3,123.7c2,1.1,4.9,1.3,6.6,0.3L115,145.1C113.3,146.1,110.4,146,108.4,144.8z"/>
							</g>
							<g>
								<path class="st16" d="M103.7,138.7c-1.6,1-1.4,2.7,0.6,3.8l4.1,2.4c2,1.1,4.9,1.3,6.6,0.3l57.7-33.3c0.4-0.2,0.4-0.5,0-0.8
									c-0.4-0.2-0.9-0.2-1.3,0l-1.8,1l-55.9,32.3c-0.9,0.5-2.7,0.4-4-0.3l-4.1-2.4c-1.2-0.7-1.5-1.8-0.6-2.3l55.9-32.3l1.8-1
									c0.4-0.2,0.4-0.5,0-0.8c-0.4-0.2-0.9-0.2-1.3,0L103.7,138.7z"/>
							</g>
						</g>
					</g>
				</g>
			</g>
		</g>
		<g>
			<g>
				<g>
					<defs>
						<polygon id="SVGID_3_" points="0,273.5 0,302.3 98,362.5 177.1,314.4 177.3,303.6 177.5,303.7 177.9,146.6 177.9,139.9 
							178,81.5 178,78.6 73.2,17.7 73.2,17.7 72.1,228.5 						"/>
					</defs>
					<clipPath id="SVGID_4_">
						<use xlink:href="#SVGID_3_"  style="overflow:visible;"/>
					</clipPath>
					<g class="st18">
						<g>
							<g class="st8">
								<g>
									<path class="st2" d="M90.8,262.8l109.5-63.6c0.1-0.1,0.3-0.1,0.5,0L91.3,262.8C91.1,262.7,91,262.7,90.8,262.8z"/>
								</g>
								<g>
									<polygon class="st2" points="91.3,262.8 200.8,199.2 202.3,200 92.8,263.6 									"/>
								</g>
								<g>
									<path class="st2" d="M90.9,245.4l109.5-63.6c0.1-0.1,0.3-0.1,0.5,0L91.4,245.5C91.2,245.4,91,245.4,90.9,245.4z"/>
								</g>
								<g>
									<polygon class="st2" points="92.8,263.6 202.3,200 273.3,241 163.8,304.7 									"/>
								</g>
								<g>
									<path class="st11" d="M163.2,302.7c0.2,0.6,0.4,1.3,0.6,2l-71.1-41c0.2-0.4,0.4-0.9,0.5-1.3L163.2,302.7z"/>
								</g>
								<g>
									<polygon class="st11" points="93.3,262.3 202.8,198.7 272.7,239.1 163.2,302.7 									"/>
								</g>
								<g>
									<path class="st11" d="M163.2,302.7l109.5-63.6c0.2,0.6,0.4,1.3,0.6,2l-109.5,63.6C163.6,304,163.4,303.3,163.2,302.7z"/>
								</g>
								<g>
									<path class="st19" d="M162.6,300.5c0.2,0.7,0.3,1.4,0.6,2.2l-69.9-40.4c0.2-0.5,0.3-1.1,0.4-1.6L162.6,300.5z"/>
								</g>
								<g>
									<polygon class="st19" points="93.7,260.7 203.2,197.1 272.1,236.9 162.6,300.5 									"/>
								</g>
								<g>
									<path class="st19" d="M162.6,300.5l109.5-63.6c0.2,0.7,0.3,1.4,0.6,2.2l-109.5,63.6C163,301.9,162.8,301.2,162.6,300.5z"/>
								</g>
								<g>
									<path class="st2" d="M274.9,241.2l-109.5,63.6c-0.4,0.2-1,0.2-1.6-0.2L273.3,241C274,241.4,274.5,241.4,274.9,241.2z"/>
								</g>
								<g>
									<polygon class="st11" points="94,258.3 203.5,194.7 271.6,234 162.1,297.7 									"/>
								</g>
								<g>
									<path class="st11" d="M162.1,297.7L271.6,234c0.1,0.9,0.3,1.8,0.5,2.9l-109.5,63.6C162.4,299.5,162.2,298.5,162.1,297.7z"
										/>
								</g>
								<g>
									<path class="st11" d="M94,258.3l68.2,39.4c0.1,0.9,0.3,1.8,0.5,2.9l-68.9-39.8C93.8,259.9,93.9,259.1,94,258.3z"/>
								</g>
								<g>
									<path class="st20" d="M274.9,241.2l-109.5,63.6c0.4-0.2,0.7-0.7,0.7-1.5l109.5-63.6C275.6,240.5,275.4,241,274.9,241.2z"/>
								</g>
								<g>
									<polygon class="st19" points="94,256.4 203.5,192.8 271.5,232.1 162,295.7 									"/>
								</g>
								<g>
									<path class="st19" d="M162,295.7l109.5-63.6c0,0.6,0.1,1.3,0.1,2l-109.5,63.6C162,296.9,162,296.3,162,295.7z"/>
								</g>
								<g>
									<path class="st19" d="M162,295.7c0,0.6,0.1,1.3,0.1,2L94,258.3c0-0.7,0-1.3,0-1.9L162,295.7z"/>
								</g>
								<g>
									<path class="st21" d="M275.9,242.8l-109.5,63.6c0.6-0.4,1-1.2,1-2.3l109.5-63.6C276.9,241.6,276.5,242.4,275.9,242.8z"/>
								</g>
								<g>
									<polygon class="st11" points="93.8,253.2 203.3,189.6 271.5,229 162,292.6 									"/>
								</g>
								<g>
									<path class="st11" d="M162,292.6l0.2,0.2c-0.1,0.7-0.2,1.6-0.2,2.5c0,0.1,0,0.3,0,0.4l-68-39.2c0-1.1-0.1-2.2-0.2-3.2
										L162,292.6z"/>
								</g>
								<g>
									<polygon class="st11" points="162,292.6 271.5,229 271.7,229.1 162.2,292.8 									"/>
								</g>
								<g>
									<path class="st11" d="M162.2,292.8l109.5-63.6c-0.1,0.7-0.2,1.6-0.2,2.5c0,0.1,0,0.3,0,0.4L162,295.7c0-0.1,0-0.3,0-0.4
										C162,294.3,162.1,293.5,162.2,292.8z"/>
								</g>
								<g>
									<path class="st19" d="M163,290.3c-0.3,0.6-0.6,1.4-0.8,2.5l-0.2-0.2l-68.2-39.4c-0.1-1.2-0.3-2.3-0.5-3.2L163,290.3z"/>
								</g>
								<g>
									<path class="st19" d="M163,290.3l109.5-63.6c-0.3,0.6-0.6,1.4-0.8,2.5l-109.5,63.6C162.4,291.7,162.7,290.9,163,290.3z"/>
								</g>
								<g>
									<polygon class="st19" points="93.3,250.1 202.8,186.5 272.4,226.6 163,290.3 									"/>
								</g>
								<g>
									<polygon class="st20" points="166.2,292.8 275.6,229.2 275.6,239.7 166.1,303.4 									"/>
								</g>
								<g>
									<path class="st11" d="M163.9,288.8l109.5-63.6c0,0-0.5,0.4-0.9,1.4L163,290.3C163.4,289.3,163.8,288.9,163.9,288.8z"/>
								</g>
								<g>
									<path class="st11" d="M163.9,288.8c0,0-0.5,0.4-0.9,1.4l-69.5-40.1c-0.4-1.4-0.6-2.3-0.6-2.3L163.9,288.8z"/>
								</g>
								<g>
									<polygon class="st11" points="92.8,247.8 202.3,184.2 273.4,225.2 163.9,288.8 									"/>
								</g>
								<g>
									<path class="st20" d="M163.9,288.8l109.5-63.6c1.3,0.7,2.3,2.5,2.3,3.9l-109.5,63.6C166.2,291.3,165.1,289.6,163.9,288.8z"
										/>
								</g>
								<g>
									<path class="st20" d="M163.9,288.8c1.3,0.7,2.3,2.5,2.3,3.9v10.6c0,1.4-1,2-2.3,1.3c-0.2-0.7-0.5-1.4-0.6-2
										c-0.2-0.8-0.4-1.5-0.6-2.2c-0.2-1-0.4-2-0.5-2.9c-0.1-0.7-0.1-1.4-0.1-2c0-0.1,0-0.3,0-0.4c0-1,0.1-1.8,0.2-2.5
										c0.2-1.1,0.5-1.9,0.8-2.5C163.4,289.3,163.8,288.9,163.9,288.8z"/>
								</g>
								<g>
									<polygon class="st21" points="167.5,293.5 276.9,229.9 276.9,240.5 167.4,304.1 									"/>
								</g>
								<g>
									<polygon class="st2" points="91.4,245.5 200.8,181.9 273.4,223.7 163.9,287.3 									"/>
								</g>
								<g>
									<path class="st22" d="M163.9,287.3c2,1.1,3.6,3.9,3.6,6.2v10.6c0,2.3-1.6,3.2-3.6,2.1l-72.5-41.9c-0.4-0.2-0.7-0.7-0.6-1.1
										c0-0.4,0.3-0.6,0.7-0.4l1.5,0.8l71.1,41c1.3,0.7,2.3,0.1,2.3-1.3v-10.6c0-1.4-1-3.2-2.3-3.9l-71.1-41l-1.5-0.8
										c-0.4-0.2-0.7-0.7-0.6-1.1c0-0.4,0.3-0.6,0.7-0.4L163.9,287.3z"/>
								</g>
								<g>
									<path class="st21" d="M163.9,287.3l109.5-63.6c2,1.1,3.6,3.9,3.6,6.2l-109.5,63.6C167.5,291.3,165.9,288.5,163.9,287.3z"/>
								</g>
							</g>
						</g>
					</g>
				</g>
				<g>
					<defs>
						<polygon id="SVGID_5_" points="0,273.5 0,302.3 98,362.5 177.1,314.4 177.3,303.6 177.5,303.7 177.9,146.6 177.9,139.9 
							178,81.5 178,78.6 73.2,17.7 73.2,17.7 72.1,228.5 						"/>
					</defs>
					<clipPath id="SVGID_6_">
						<use xlink:href="#SVGID_5_"  style="overflow:visible;"/>
					</clipPath>
					<g class="st23">
						<g class="st8">
							<g>
								<polygon class="st24" points="102.2,241 192.3,188.7 263.2,229.6 173.1,282 								"/>
							</g>
							<g>
								<polygon class="st25" points="102.8,239.6 192.9,187.2 262.6,227.5 172.5,279.8 								"/>
							</g>
							<g>
								<path class="st24" d="M99.9,237.1l90.1-52.4c0,1.4,1,3.2,2.3,3.9L102.2,241C100.9,240.3,99.9,238.6,99.9,237.1z"/>
							</g>
							<g>
								<path class="st26" d="M102.8,239.6l90.1-52.4c-0.2,0.5-0.4,1-0.6,1.5L102.2,241C102.5,240.6,102.7,240.1,102.8,239.6z"/>
							</g>
							<g>
								<polygon class="st24" points="99.9,232.5 190,180.1 190,184.8 99.9,237.1 								"/>
							</g>
							<g>
								<polygon class="st11" points="103.1,237.8 193.2,185.5 262.3,225.4 172.2,277.7 								"/>
							</g>
							<g>
								<path class="st26" d="M103.1,237.8l90.1-52.4c0,0.6-0.1,1.2-0.3,1.7l-90.1,52.4C103,239,103.1,238.4,103.1,237.8z"/>
							</g>
							<g>
								<path class="st26" d="M193.2,183.5c0,0.4,0,0.8,0,1.1c-30,17.5-60.1,34.9-90.1,52.4c0-0.4,0-0.8,0-1.1
									c-0.1-1.1-0.3-2.1-0.4-2.8c30-17.5,60.1-34.9,90.1-52.4C193,181.4,193.1,182.4,193.2,183.5z"/>
							</g>
							<g>
								<path class="st25" d="M172.1,275.6l90.1-52.4c0,0.6,0,1.3,0.1,2.1l-90.1,52.4C172.1,276.9,172.1,276.3,172.1,275.6z"/>
							</g>
							<g>
								<path class="st25" d="M172.1,275.6c0,0.6,0,1.3,0.1,2.1l-69-39.9c0-0.3,0-0.6,0-0.9c0-0.4,0-0.8,0-1.1L172.1,275.6z"/>
							</g>
							<g>
								<path class="st11" d="M172.3,273.2l0.3,0.2c-0.2,0.6-0.4,1.3-0.4,2.3l-69-39.8c-0.1-1.1-0.3-2.1-0.5-2.9L172.3,273.2z"/>
							</g>
							<g>
								<path class="st26" d="M193.3,184.6c0,0.3,0,0.6,0,0.9l-86.1,50l-0.8-0.4C135.3,218.3,164.3,201.4,193.3,184.6z M104.1,236.4
									l0.8,0.4l0,0L104.1,236.4L104.1,236.4z"/>
							</g>
							<g>
								<path class="st24" d="M100.6,231l90.1-52.4c-0.4,0.2-0.7,0.7-0.7,1.5l-90.1,52.4C99.9,231.8,100.2,231.3,100.6,231z"/>
							</g>
							<g>
								<polygon class="st11" points="172.3,273.2 262.4,220.8 262.6,221 172.5,273.4 								"/>
							</g>
							<g>
								<path class="st25" d="M173.1,272.1l90.1-52.4c0,0-0.3,0.4-0.6,1.3l-90.1,52.4C172.8,272.5,173.1,272.2,173.1,272.1z"/>
							</g>
							<g>
								<path class="st26" d="M100.6,231l90.1-52.4c0.4-0.2,1-0.2,1.6,0.2l-90.1,52.4C101.6,230.8,101,230.8,100.6,231z"/>
							</g>
							<g>
								<path class="st11" d="M172.5,273.4l90.1-52.4c-0.2,0.6-0.4,1.3-0.4,2.3l-90.1,52.4C172.2,274.7,172.4,274,172.5,273.4z"/>
							</g>
							<g>
								<path class="st27" d="M174,271.2c0.4,0.2,0.6,0.7,0.6,1.1s-0.3,0.6-0.6,0.4l-0.9-0.5l-70.9-41c-1.2-0.7-2.3-0.1-2.3,1.3v4.7
									c0,1.4,1,3.2,2.3,3.9l70.9,41l0.9,0.5c0.4,0.2,0.6,0.7,0.6,1.1s-0.3,0.6-0.6,0.4l-71.8-41.5c-2-1.1-3.5-3.9-3.5-6.1v-4.7
									c0-2.3,1.6-3.2,3.6-2L174,271.2z"/>
							</g>
							<g>
								<path class="st27" d="M264.6,220.3l-90.1,52.4c0.1-0.1,0.2-0.2,0.2-0.4c0-0.4-0.3-0.9-0.6-1.1l90.1-52.4
									c0.4,0.2,0.6,0.7,0.6,1.1C264.7,220.1,264.7,220.3,264.6,220.3z"/>
							</g>
							<g>
								<path class="st26" d="M104,232.2c-0.4,0.3-0.9,0.5-1.3,0.8c-0.2-1.1-0.5-1.8-0.5-1.8L104,232.2z M103.5,230.4
									c26.9-15.6,62.2-36.1,88.8-51.6c0,0,0.2,0.7,0.5,1.8c-29.2,17-58.3,33.9-87.5,50.9L103.5,230.4z"/>
							</g>
							<g>
								<path class="st26" d="M102.2,231.2c0,0,0.2,0.7,0.5,1.8c0.2,0.8,0.4,1.8,0.4,2.8c0,0.4,0,0.8,0,1.1s0,0.6,0,0.9
									c0,0.6-0.1,1.2-0.3,1.7c-0.2,0.5-0.4,1-0.6,1.5c-1.2-0.7-2.3-2.5-2.3-3.9v-4.7C99.9,231,101,230.5,102.2,231.2z"/>
							</g>
							<g>
								<path class="st24" d="M99.7,229.5l90.1-52.4c0.6-0.4,1.5-0.3,2.5,0.2l-90.1,52.4C101.2,229.1,100.3,229.1,99.7,229.5z"/>
							</g>
							<g>
								<polygon class="st24" points="173.1,282 263.2,229.6 264.1,230.1 174,282.5 								"/>
							</g>
							<g>
								<path class="st25" d="M172.5,279.8c0.1,0.7,0.3,1.4,0.6,2.2l-70.9-41c0.3-0.4,0.5-0.9,0.6-1.5L172.5,279.8z"/>
							</g>
							<g>
								<path class="st25" d="M172.5,279.8l90.1-52.4c0.1,0.7,0.3,1.4,0.6,2.2L173.1,282C172.8,281.2,172.6,280.5,172.5,279.8z"/>
							</g>
							<g>
								<path class="st27" d="M264.5,231.7L174.4,284c0.1-0.1,0.2-0.2,0.2-0.4c0-0.4-0.3-0.9-0.6-1.1l90.1-52.4
									c0.4,0.2,0.6,0.7,0.6,1.1C264.7,231.5,264.6,231.6,264.5,231.7z"/>
							</g>
							<g>
								<path class="st11" d="M172.2,277.7l90.1-52.4c0.1,0.6,0.2,1.3,0.3,2.1l-90.1,52.4C172.3,279.1,172.2,278.3,172.2,277.7z"/>
							</g>
							<g>
								<path class="st11" d="M172.2,277.7c0.1,0.6,0.2,1.3,0.3,2.1l-69.7-40.2c0.2-0.6,0.3-1.1,0.3-1.7L172.2,277.7z"/>
							</g>
							<g>
								<path class="st25" d="M173.1,272.1c0,0-0.3,0.4-0.6,1.3l-0.3-0.2L102.7,233c-0.2-1.1-0.5-1.8-0.5-1.8L173.1,272.1z"/>
							</g>
							<g>
								<polygon class="st24" points="102.2,229.7 192.3,177.3 264.1,218.8 174,271.2 								"/>
							</g>
						</g>
					</g>
				</g>
			</g>
			<path class="st0" d="M150.5,313.2V299c0-2.8,2-6.3,4.5-7.8l4.9-2.8l-14.3-8.3l-4.9,2.8c-2.5,1.4-4.5,4.9-4.5,7.8V305v0.1l5.8-5.2
				L150.5,313.2L150.5,313.2z"/>
		</g>
		<g>
			<g>
				<defs>
					<rect id="SVGID_7_" x="65.7" y="92.2" width="112.4" height="247.8"/>
				</defs>
				<clipPath id="SVGID_8_">
					<use xlink:href="#SVGID_7_"  style="overflow:visible;"/>
				</clipPath>
				<g id="XMLID_34_" class="st28">
					<g>
						<path class="st29" d="M124.6,202.9l-0.1,0.1l8.9,5c-1.8-2.5-3.5-4.9-5.3-7.4l-0.2,0.1C126.8,201.4,125.7,202.2,124.6,202.9z"
							/>
						<path class="st25" d="M161.7,218.6L161.7,218.6c-0.1-0.3-0.1-0.6-0.2-0.9c-0.8,0.4-1.6,0.8-2.3,1.3l11.2,7.5l0.1-0.1
							c5.4,1,11.1,0.4,16.1-1.7h1c-0.2-0.4-0.4-0.8-0.7-1.2c0.2-2.3,0.1-4.6-0.2-6.9C178.4,217.2,170,217.9,161.7,218.6z"/>
						<path class="st11" d="M161.5,217.6c0.1,0.3,0.1,0.6,0.2,0.9l0,0c8.3-0.7,16.7-1.3,25-2c2-0.2,4-0.3,6.1-0.5
							c1.6-0.1,3.1-0.3,4.6-0.7c1.3-0.4,2.6-1.1,3.6-2.1l0,0c0.9-1,1.4-2.3,1.6-3.6c0.2-1.5,0-3.1-0.3-4.6
							c-1.5-9.4-3.9-18.7-7.2-27.6c-2-5.4-4.5-11-9-14.7l-0.1-0.1c-1.8-1.5-4.4-1.9-6.7-1.3c-2.8,0.8-5,3.1-6.1,5.8
							s-1.2,5.7-0.6,8.6c0.5,2.9,1.6,5.6,2.8,8.3c2.7,6.1,6,11.9,9.7,17.4l-0.2,0.1c-8.2,2.5-16.2,5.7-23.8,9.6
							c0,0.3-0.1,0.6-0.1,0.9C161,213.9,161.1,215.8,161.5,217.6z"/>
						<path class="st25" d="M168.5,154.6c-0.1-0.2-0.2-0.3-0.3-0.5c-2.1,3.1-4.3,6.2-7.1,8.7c-2.8,2.6-6.4,4.6-10.2,4.9
							c-1.2,0.1-2.6-0.1-3.2-1.2c-0.4-0.7-0.3-1.5-0.2-2.2c0.3-2.8,0.5-5.5,0.8-8.3c-0.9,0.1-1.8,0.1-2.6-0.1c-2,4.1-6.2,12-8.2,19
							c-1.5,5.5-1.7,10.4,1.6,12.5c1.1,0.7,1.9,1.4,2.6,2.2c0.7,0.7,1.4,1.3,2.3,2c0.5,3,0.8,6.1,0.8,9.1c-0.1,4-0.9,8-2.8,11.5
							l-0.2,0.4l1.6,0.9l0.3,2.7c5.2-2.9,11.3-4.4,17.3-4.3h0.1c0-0.3,0-0.6,0.1-0.9c7.6-3.9,15.6-7.1,23.8-9.6l0.2-0.1
							c-3.7-5.5-7-11.3-9.7-17.4c-1.2-2.7-2.3-5.4-2.8-8.3c-0.5-2.9-0.5-5.9,0.6-8.6c1.1-2.7,3.3-5,6.1-5.8c2.3-0.6,4.9-0.2,6.7,1.3
							c-3-2.4-6.6-3.9-10.2-5.3c-1.6-0.6-3.2-1.3-4.8-1.9c-0.8-0.3-1.5-0.6-2.3-0.9L168.5,154.6z"/>
						<path class="st25" d="M137.9,159.7c-1.4,4.2-0.2,10.8-0.4,15.2c1.9-7,6.1-15,8.2-19c-0.6-0.2-1.2-0.4-1.7-0.8
							c-0.4-0.3-0.7-0.6-1-1c-1.2,0.2-2.2,0.9-3,1.8C138.9,157,138.3,158.3,137.9,159.7z"/>
						<path class="st25" d="M128,200.4l0.2,0.2c1.8,2.5,3.5,4.9,5.3,7.4l0.7,0.4v-0.1c3.6-2.5,7.1-5.1,10.6-7.6
							c0.1-3-0.2-6.1-0.8-9.1c-1-0.7-1.6-1.3-2.3-2C137.1,193.2,132.5,196.8,128,200.4z"/>
						<path class="st0" d="M94.8,316.4c-1.4,0.9-2.8,2.4-2.7,4.1c0.1,1,0.7,2,1.5,2.7s1.7,1.1,2.7,1.6c2.5,1.2,5.2,2.4,7.9,2
							c1.8-0.2,3.5-1.2,5.1-2.1c2.5-1.4,5-2.9,7.5-4.3c1.4-0.8,2.8-1.7,3.4-3.2c0.3-0.9,0.3-1.9,0.2-2.9c0-0.3,0-0.6-0.1-1H120
							c-3.2,2.1-6.5,4-10,5.6c-1.3,0.6-2.7,1.2-4.2,1.1c-1.4-0.1-2.7-0.8-3.9-1.6c-1.7-1-3.5-2-5.2-3.1
							C96,315.7,95.4,316,94.8,316.4z"/>
						<path class="st0" d="M80.3,247c-0.7,2.5-0.1,5.2,1.6,7.2c1.6,1.9,4,2.9,6.5,3.3s5,0.1,7.4-0.1c0.2,0,0.4,0,0.6-0.1V257
							c-2.4-1.7-4-4.5-4.3-7.4s0.8-6,2.8-8.1c-3.2-0.6-6.7-1.2-9.7,0.1C82.9,242.4,81,244.5,80.3,247z"/>
						<path class="st17" d="M102.5,242l-0.2,0.8c4.4,0.8,8.8,1.7,13.1,2.5h0.8c0-0.3,0-0.7,0-1l0.9-0.7c4.7-1.3,9.4-2.6,14.1-3.9
							l0.7-1.3L110.6,227l-0.2,0.4c-3.1,0.1-5.7,2.6-6.9,5.5C102.3,235.7,102.3,238.9,102.5,242z"/>
						<path class="st0" d="M108.6,302.8c3.6,0.8,7.6,0,10.7-2.1c0.5-0.3,0.9-0.7,1.3-1.1l0,0c1.4-8.7,2.8-17.3,4.2-26
							c0.5-2.8,0.9-5.7,0.9-8.6c-0.1-2.7-0.6-5.4-1.8-7.7c-2.6-0.2-5.2-0.3-7.7-0.5v-0.5c0-0.3,0-0.6,0-1h-0.5
							c-3.8,0.4-7.7,0.8-11.5,1.1l0.1,0.7c2.4,15,3.7,30.1,4,45.3v0.2C108.3,302.7,108.5,302.8,108.6,302.8z"/>
						<path class="st0" d="M123.9,257.3c12,0.7,24,1,36,0.7c6.2-0.1,12.7-0.5,18.2-3.3c5.6-2.8,9.9-8.2,11.5-14.3
							c1.3-5.3,0.6-11.1-2-15.9h-1c-5.1,2.1-10.7,2.7-16.1,1.7l-0.1,0.1l5.2,3.5l-28.1,16.9l-15.5-8.3l-0.7,1.3
							c-4.7,1.3-9.4,2.6-14.1,3.9l-0.9,0.7c0,0.3,0,0.7,0,1c0,3.3-0.1,6.6-0.1,10c0,0.3,0,0.6,0,1v0.5
							C118.8,257,121.4,257.1,123.9,257.3z"/>
						<path class="st30" d="M145.2,227.9l2.4,18.8l28.1-16.9l-5.2-3.5l-11.2-7.5C154.4,221.6,149.7,224.6,145.2,227.9z"/>
						<polygon class="st31" points="145.2,227.9 143.7,216.2 143.4,213.6 141.8,212.7 134.1,208.4 133.4,208 124.5,203 93.4,185.6 
							98.6,220.6 110.6,227 132,238.4 147.5,246.7 						"/>
						<path class="st29" d="M162.1,144.4c-0.1-0.2-0.2-0.4-0.3-0.5c-0.6,1.3-1.2,2.6-1.9,3.8c-2,3.3-5,6-8.5,7.5
							c-1,0.4-2.1,0.8-3.2,0.9c-0.3,2.8-0.5,5.5-0.8,8.3c-0.1,0.8-0.1,1.6,0.2,2.2c0.6,1.1,2,1.2,3.2,1.2c3.8-0.3,7.4-2.3,10.2-4.9
							c2.8-2.5,4.9-5.6,7.1-8.7C166.2,150.9,164.1,147.7,162.1,144.4z"/>
						<path class="st32" d="M96.7,315.4c1.7,1,3.5,2,5.2,3.1c1.2,0.7,2.5,1.5,3.9,1.6c1.5,0.1,2.8-0.5,4.2-1.1
							c3.5-1.6,6.8-3.5,10-5.6h0.3c-0.3-4.2-0.6-8.4-0.9-12.6c-3.1,2.1-7,2.9-10.7,2.1c0.9,2.2,0.1,4.8-1.5,6.6
							c-1.5,1.8-3.7,3-5.9,3.9C99.7,314,98.2,314.6,96.7,315.4z"/>
						<path class="st32" d="M94.9,241.4c-2,2.1-3,5.2-2.8,8.1c0.3,2.9,1.9,5.7,4.3,7.4v0.3c2.6-0.3,5.2-0.5,7.7-0.8
							c3.9-0.4,7.7-0.8,11.5-1.1h0.5c0-3.3,0.1-6.6,0.1-10h-0.8c-4.4-0.8-8.8-1.7-13.1-2.5C99.9,242.4,97.4,241.9,94.9,241.4
							C95,241.4,95,241.4,94.9,241.4z"/>
						<path class="st32" d="M143.7,216.2l1.5,11.6c4.5-3.2,9.2-6.2,14-9c0.8-0.4,1.5-0.9,2.3-1.3c-0.4-1.9-0.5-3.8-0.4-5.7H161
							C155,211.8,149,213.3,143.7,216.2z"/>
						<path class="st32" d="M142.9,154.1c0.3,0.4,0.6,0.7,1,1c0.5,0.4,1.1,0.6,1.7,0.8c0.8,0.2,1.7,0.3,2.6,0.1
							c1.1-0.1,2.2-0.4,3.2-0.9c3.5-1.5,6.6-4.2,8.5-7.5c0.7-1.2,1.3-2.5,1.9-3.8l0,0c0.5-1.1,1-2.2,1.5-3.3
							c0.6-1.3,1.2-2.6,1.4-4.1c0.2-1.4-0.1-3-1-4c-0.9-1.1-2.7-1.5-3.9-0.7c-1,0.6-1.4,1.9-2.2,2.7c-1.2,1-2.9,1.1-4.4,0.9
							c-6.6-0.6-12.9-3.6-17.6-8.2l-0.3,0.2c0.2,3.1,0.7,6.3,1.3,9.4c1.1,5.1,2.7,10.1,4.9,14.8
							C141.8,152.4,142.3,153.4,142.9,154.1z"/>
						<path class="st9" d="M134.3,118.3c-2.6,2.5-3.9,6.2-3.5,9.7c0.4,3.6,2.5,6.9,5.5,8.8h0.2c-0.7-3.1-1.1-6.2-1.3-9.4l0.3-0.2
							c4.7,4.6,11,7.6,17.6,8.2c1.5,0.1,3.3,0.1,4.4-0.9c0.9-0.8,1.3-2,2.2-2.7c1.2-0.8,2.9-0.4,3.9,0.7c0.9,1.1,1.2,2.6,1,4
							s-0.8,2.8-1.4,4.1c-0.5,1.1-1,2.2-1.5,3.3l0,0c0.1,0.2,0.2,0.4,0.3,0.5c3.4-1.2,5.9-4.2,7.2-7.5c1.4-3.6,1.5-7.5,1-11.3
							c-0.3-2.6-0.9-5.2-2.2-7.6c-1.2-2.3-3.1-4.4-5.5-5.5c-2.7-1.2-5.8-1.2-8.8-0.8c-1.3,0.1-2.5,0.3-3.8,0.5
							c-2.5,0.4-4.9,1-7.4,1.7C139.7,114.9,136.6,116.1,134.3,118.3z"/>
						<path class="st13" d="M168.2,154.1c0.1,0.2,0.2,0.3,0.3,0.5l0.2-0.2c0.8,0.3,1.5,0.6,2.3,0.9l0.2-0.5c1.4,0.5,3.2,0,4.4-1
							c1.5-1.3,2.2-3.4,2.7-5.3c0.5-2,0.8-4,1.8-5.8c1-1.7,2.5-3.2,3.2-5c0.9-2.5-0.1-5.3-1.5-7.6c-1.3-2.3-3-4.5-3.6-7.1
							c-0.7-2.9,0-6-0.4-9c-0.6-4-3.3-7.6-7-9.4c-3.6-1.8-8-1.9-11.8-0.5s-7,4.3-9,7.8l0.1,0.4c1.3-0.2,2.5-0.4,3.8-0.5
							c3-0.3,6.1-0.4,8.8,0.8c2.4,1.1,4.3,3.1,5.5,5.5c1.2,2.3,1.8,4.9,2.2,7.6c0.5,3.8,0.4,7.7-1,11.3c-1.3,3.3-3.9,6.3-7.2,7.5
							C164.1,147.7,166.2,150.9,168.2,154.1z"/>
					</g>
				</g>
			</g>
		</g>
	</g>
	<g id="DESIGNED_BY_FREEPIK">
	</g>
</g>
</svg>
