<?xml version="1.0" encoding="utf-8"?>
<!-- Generator: Adobe Illustrator 23.0.1, SVG Export Plug-In . SVG Version: 6.00 Build 0)  -->
<svg version="1.1" id="Layer_1" xmlns="http://www.w3.org/2000/svg" xmlns:xlink="http://www.w3.org/1999/xlink" x="0px" y="0px"
	 viewBox="0 0 89.4 89.4" style="enable-background:new 0 0 89.4 89.4;" xml:space="preserve">
<style type="text/css">
	.st0{fill:#4F4F4F;}
</style>
<title>SquaregithubSquare</title>
<g>
	<g id="content">
		<path class="st0" d="M89.4,0H0v89.4h30.5l0,0c1.1,0.1,2.2-0.7,2.3-1.8c0,0,0-0.1,0-0.1c0.1-3.1,0-6.2,0-9.2
			c-2.2,0.2-4.4,0.3-6.6,0.3c-4.7-0.3-8.4-2.3-10.2-6.8c-1-2.7-2.9-5.1-5.4-6.6c-0.5-0.3-0.9-0.7-1.3-1.2c-0.5-0.6-0.4-1.2,0.4-1.3
			c0.8-0.2,1.6-0.2,2.4-0.1c2.8,0.6,5.3,2.4,6.7,4.9c3.2,4.9,8,6.4,13.5,4.2c0.3-0.1,0.6-0.4,0.8-0.7c0.4-2.2,1.4-4.3,3-5.9
			c-1.8-0.3-3.5-0.6-5.2-1c-4.8-1.1-9.2-3.1-12.3-7.1c-2.4-3.2-3.9-7-4.3-11c-0.9-6.3-0.1-12.2,4.3-17.2c0.2-0.3,0.3-0.7,0.2-1.1
			c-1.1-3.5-1-7.2,0.2-10.6c0.6-1.8,0.7-1.9,2.6-1.7c0.1,0,0.2,0,0.4,0.1c3.8,0.6,7,2.4,10.3,4.4c0.5,0.3,1,0.4,1.6,0.3
			c7.6-1.8,15.4-1.8,23,0c0.5,0.1,1,0,1.5-0.3c1.8-0.9,3.4-2,5.2-2.8c2-1.1,4.3-1.7,6.6-1.7c0.5,0.1,0.9,0.3,1.2,0.8
			c1.5,3.6,1.7,7.6,0.6,11.3c-0.1,0.5,0,1,0.3,1.4c1.1,2,2.7,3.9,3.3,6c2,6.3,1.5,13.1-1.6,19c-2.6,5.7-7.6,8.5-13.4,10
			c-2,0.5-4,0.8-6.1,1.2c2.8,2.9,3.2,6.4,3.2,10.1s0,7.6,0,11.4c0,1.8,0.8,2.9,2.2,2.9h30"/>
	</g>
</g>
</svg>
