<?xml version="1.0" encoding="utf-8"?>
<!-- Generator: Adobe Illustrator 23.0.1, SVG Export Plug-In . SVG Version: 6.00 Build 0)  -->
<svg version="1.1" id="OBJECTS" xmlns="http://www.w3.org/2000/svg" xmlns:xlink="http://www.w3.org/1999/xlink" x="0px" y="0px"
	 viewBox="0 0 375.7 412.6" style="enable-background:new 0 0 375.7 412.6;" xml:space="preserve">
<style type="text/css">
	.st0{fill:#1CB0A5;}
	.st1{fill:#FEFEFE;}
	.st2{fill:#FF0D40;}
	.st3{fill:#264F5F;}
	.st4{fill:#274F5F;}
	.st5{fill:#FFB073;}
	.st6{fill:#ED924C;}
	.st7{fill:#153845;}
	.st8{fill:#DB766B;}
</style>
<g>
	<ellipse class="st0" cx="56.2" cy="402.3" rx="56.2" ry="10.3"/>
	<path id="XMLID_4_" class="st1" d="M75.9,55.9c29.2-31.8,68.9-51.4,111.7-55.2l0.5,6C102.9,14.2,36.3,87.2,36.3,172.7
		c0,17,2.6,33.4,7.3,48.9l23-7.9c-4-13.2-6-27-6-40.9c0-43.8,19.6-84.2,53.9-111.5l-5.9-6.9c-36.3,29-57.1,72-57.1,118.4
		c0,10.7,1.1,21.4,3.3,31.8l-5.9,1.3c-2.3-10.8-3.5-21.9-3.5-33c0-49.3,22.5-94.8,61.7-125l2.3-1.7L123,62.1l-2.5,1.9
		c-34.3,26.1-54,65.7-54,108.7c0,50.6,27.6,96.4,72.1,120.3l4.3-8c-19.5-10.4-35.9-25.8-47.8-44.5c-12.8-20.3-19.6-43.7-19.6-67.8
		c0-70.2,57.1-127.4,127.4-127.4c29.5,0,58.2,10.3,81,29.1l2.3,1.9l-22.7,28.2l-2.3-1.9c-15.5-12.9-35-20.3-55.2-21v9.1
		c43.8,1.6,79,37.7,79,81.9c0,45.2-36.8,82-82,82s-82-36.8-82-82c0-38.1,26.6-71.4,63.6-79.9l-0.9-9.6
		c-41.8,8.7-71.9,45.8-71.9,89.5c0,50.2,40.9,91.1,91.1,91.1s91.1-40.9,91.1-91.1c0-22.3-8.1-43.7-22.9-60.4l-1.8-2.1l25.3-26
		l2.1,2.3c21.7,23.6,33.6,54.2,33.6,86.1c0,9.2-1,18.2-2.9,26.9l8.7,2.8c2.2-9.7,3.3-19.7,3.3-29.8c0-56.5-34-106.3-86.6-127.1
		l-2.9-1.1l8.5-19.4l2.7,1.1c29,11.5,53.7,31.3,71.6,57c18.3,26.4,27.9,57.3,27.9,89.5c0,19.3-3.5,38.3-10.4,56.2l-1,2.7l-14.3-5.1
		c-10.4,25.4-27.8,47.1-50.4,63c-24,16.8-52.2,25.7-81.5,25.7c-17.1,0-33.9-3-49.8-9l-3.1-1.1l9.1-19.1l2.6,0.9
		c13.2,4.8,27,7.2,41.2,7.2c66.9,0,121.4-54.4,121.4-121.4c0-29.4-10.6-57.6-29.9-79.7l-17,17.4c14.6,17.5,22.6,39.5,22.6,62.3
		c0,53.5-43.6,97.1-97.1,97.1s-97.1-43.6-97.1-97.1c0-22.8,8-45.1,22.6-62.7c14.7-17.7,35.1-29.5,57.5-33.4l3.2-0.5l2.7,30.6
		c3.6-0.6,7.3-0.9,11.1-0.9c36.9,0,66.9,30,66.9,66.9c0,22.6-11.3,43.5-30.3,55.9l-2.5,1.7l-16.5-25.5c-5.2,2.9-11.2,4.5-17.6,4.5
		c-20.2,0-36.6-16.4-36.6-36.6v-3h15.4c1.5-10.4,10.4-18.5,21.3-18.5c6.2,0,12.1,2.7,16.2,7.4l-4.5,3.9c-2.9-3.4-7.2-5.3-11.7-5.3
		c-8.5,0-15.5,7-15.5,15.5c0,8.5,7,15.5,15.5,15.5c8.5,0,15.5-7,15.5-15.5h6c0,11.9-9.6,21.5-21.5,21.5c-10.8,0-19.8-8.1-21.3-18.5
		h-9.2c1.5,15.5,14.6,27.6,30.5,27.6c16.9,0,30.6-13.7,30.6-30.6s-13.7-30.6-30.6-30.6c-12.3,0-23.3,7.3-28.2,18.6l-5.5-2.4
		c5.8-13.5,19-22.3,33.7-22.3c20.2,0,36.6,16.4,36.6,36.6c0,11.7-5.5,22.1-14.1,28.8l5,7.7c11.5-8.6,18.2-22.1,18.2-36.5
		c0-25.2-20.5-45.7-45.8-45.7s-45.8,20.5-45.8,45.7c0,25.2,20.5,45.7,45.8,45.7c3.6,0,8.4-0.8,11.7-1.6l2.3-0.5l10,18.9l-3.4,1.1
		c-6.6,2.1-13.5,3.2-20.6,3.2c-36.9,0-66.9-30-66.9-66.9c0-31,21.2-57.1,49.8-64.7l-0.8-9.2c-33.8,8.2-58.1,38.8-58.1,73.9
		c0,41.9,34.1,76,76,76c41.9,0,76-34.1,76-76c0-41.9-34.1-76-76-76h-3V75.6h3c21.6,0,42.6,7.3,59.6,20.5l15.2-18.9
		c-21.3-16.7-47.7-25.9-74.8-25.9c-66.9,0-121.4,54.4-121.4,121.4c0,45.1,24.5,85.8,64.2,107l4.3-8c-35.3-18.9-59.4-56.2-59.4-99
		c0-61.9,50.4-112.2,112.2-112.2c20.7,0,40.9,5.7,58.4,16.4l-3.1,5.1c-16.6-10.2-35.8-15.6-55.3-15.6
		c-58.6,0-106.2,47.7-106.2,106.2C96.7,231.3,144.4,279,203,279c58.6,0,106.2-47.7,106.2-106.2c0-22.1-6.7-43.2-19.5-61.2l4.9-3.5
		c13.5,19,20.6,41.4,20.6,64.7c0,61.9-50.4,112.2-112.2,112.2c-17,0-33-3.8-47.5-10.5l-14.4,26.7l-2.6-1.3
		c-23.1-11.8-42.6-29.6-56.3-51.6c-5.7-9.1-10.3-18.8-13.8-28.8l-8.7,3c21.2,61.1,78.3,102,143.3,102c57.3,0,109.2-31.9,135.2-83.1
		l5.3,2.7c-13,25.6-32.7,47.1-57.1,62.4c-25,15.7-53.9,24-83.5,24c-34,0-66.5-10.7-93.8-31c-25.4-18.8-44.8-45.4-55.2-75l-8.6,3
		c22.7,65.2,84.7,112.2,157.6,112.2c91.9,0,166.7-74.8,166.7-166.7C369.7,81.8,296.5,7.6,206,6v9.1c14.2,0.3,28.2,2.4,41.7,6.4
		l3.2,0.9l-8,19.7l-2.6-0.8c-12-3.6-23.5-5.2-37.2-5.2c-25.3,0-49.9,7-71.4,20.2l-2.4,1.5L117,40.6l2.7-1.7
		c24.1-15.1,51.8-23.2,80.3-23.8V0h3c95.2,0,172.7,77.5,172.7,172.7S298.2,345.5,203,345.5S30.3,268,30.3,172.7
		C30.3,129.4,46.5,87.9,75.9,55.9z M203,300.1c-13.9,0-27.6-2.2-40.7-6.7l-4,8.3c14.3,5,29.3,7.5,44.6,7.5
		c56,0,107.2-35.2,127.4-87.5l1.1-2.7l14.2,5c5.9-16.4,8.9-33.7,8.9-51.3c0-61.5-36.4-116.1-93-139.8l-3.7,8.4
		c25.1,10.5,46.5,27.9,62.2,50.4c16.6,23.9,25.4,52,25.4,81.1c0,11.6-1.4,23.2-4.2,34.4l-0.8,3.1l-14.4-4.7
		C311.6,259.9,261.9,300.1,203,300.1z M142.1,172.7c0,33.6,27.3,60.9,60.9,60.9c5.2,0,10.3-0.7,15.3-1.9l-4.4-8.5
		c-2.7,0.6-7,1.3-10.8,1.3c-28.5,0-51.8-23.2-51.8-51.7c0-28.5,23.2-51.7,51.8-51.7c28.5,0,51.8,23.2,51.8,51.7
		c0,16.5-7.8,31.8-20.9,41.5l5,7.7c15.8-11.5,25.1-29.7,25.1-49.2c0-33.6-27.3-60.9-60.9-60.9C169.4,111.9,142.1,139.2,142.1,172.7z
		 M130.9,49.9C152.7,37,177.6,30.2,203,30.2c13.4,0,24.7,1.4,36.3,4.7l3.5-8.5c-12.9-3.5-26.3-5.3-39.8-5.3
		c-27.3,0-54,7.3-77.4,21.3L130.9,49.9z"/>
	<g id="XMLID_10_">
		<g id="XMLID_11_">
			<path id="XMLID_12_" class="st2" d="M197.2,172.7c0,1.6,2.6,2.9,5.8,2.9c3.2,0,5.8-1.3,5.8-2.9c0-1.6-2.6-2.9-5.8-2.9
				C199.8,169.9,197.2,171.2,197.2,172.7z"/>
		</g>
		<g id="XMLID_13_">
			<polygon id="XMLID_14_" class="st2" points="203,140 185.9,147.8 203,153.6 			"/>
		</g>
		<g id="XMLID_15_">
			<path id="XMLID_16_" class="st3" d="M203,173.2c0.3,0,0.5-0.2,0.5-0.5v-33.6c0-0.3-0.2-0.5-0.5-0.5s-0.5,0.2-0.5,0.5v33.6
				C202.5,173,202.7,173.2,203,173.2z"/>
		</g>
	</g>
	<g>
		<g id="XMLID_18_">
			<path id="XMLID_21_" class="st3" d="M139.1,189.8c6.5,0,13.6,0.3,20.2-0.8c0.5-0.1,0.9-0.2,1.4-0.3c1.7-0.3,3.4-0.8,5.1-1.4
				c-1.9-0.5-3.8-0.7-5.7-0.7c-0.4,0-0.8,0-1.2,0c-1.3,0-2.7,0.1-4.1,0.2c-4.5,0.3-9.1,0.5-13.6,0.7c-0.1,0-0.2,0-0.3,0
				c-0.4,0-0.8,0-1.1,0.1c-0.3,0.1-0.6,0.2-0.8,0.4C138.4,188.6,138.4,189.7,139.1,189.8z"/>
			<path id="XMLID_22_" class="st4" d="M140.9,186c1.3-0.6,3.7-0.9,4.9-0.1c0,0,0.1,0,0.1,0.1c0.3,0.2,0.3,0.5,0.1,0.7
				c-0.5,0.6-1.5,0.1-2.1,0.2c-0.8,0-3.5,0.1-2.9,1.5c0.2,0.4-0.4,0.8-0.7,0.5C139.2,188,139.8,186.5,140.9,186z"/>
			<path id="XMLID_23_" class="st5" d="M158.8,186.6c0.2,0.7,0.4,1.4,0.5,2.1c0,0.1,0,0.2,0,0.3c0.5-0.1,0.9-0.2,1.4-0.3
				c-0.1-0.7-0.3-1.5-0.6-2.1C159.6,186.6,159.2,186.6,158.8,186.6z"/>
		</g>
		<path id="XMLID_26_" class="st5" d="M148.5,188.5c0.6-1.2,1.5-2.3,2.7-2.9c0.6-0.3,0.8-0.7,1.5-0.3c0.1,0.1,1,0.9,0.7,1.1
			c0.7-0.4,1.6-0.3,2.3,0.1c0.7,0.4,1,1.3,0.9,2.1c1.3,0.5,2.1,1.9,2,3.2c2.3,3.2,1.4,7.1-0.3,10.4c-0.1,0.2-0.2,0.4-0.4,0.4
			c-0.3,0.1-0.6-0.2-0.7-0.5c-0.1-0.3-0.1-0.6-0.3-0.9c-0.2-0.4-0.7-0.5-1.1-0.4c-0.6,0.2-1,0.9-1.7,1.1c-1,0.3-2,0.3-2.9-0.1
			c-3.8-1.4-6.3-5-6.9-8.9c-0.2-1.1-0.2-2.7,0.8-3.4c0.8-0.6,2-0.4,2.1,0.7c0.1,0.4,0,0.9-0.1,1.3
			C147.5,190.6,148,189.5,148.5,188.5z"/>
		<g id="XMLID_66_">
			<g>
				<g id="XMLID_88_">
					<path class="st6" d="M151.7,186.4c0.2-0.1-0.1-0.6-0.4-0.9c0.5-0.3,0.8-0.6,1.5-0.2c0.1,0.1,0.8,0.7,0.7,1
						C152.9,186.1,152.2,186.2,151.7,186.4z"/>
				</g>
				<g id="XMLID_87_">
					<path class="st6" d="M145.3,191.6c0.1-0.4,0.2-0.9,0.1-1.3c0-0.3-0.2-0.5-0.3-0.7c0.4-0.3,0.9-0.4,1.3-0.3
						C146,190.1,145.7,190.9,145.3,191.6z"/>
				</g>
				<g id="XMLID_86_">
					<path class="st6" d="M152.4,202c0.7-0.3,1.1-0.9,1.7-1.1c0.4-0.1,0.9,0,1.1,0.4c0,0,0,0,0,0c-0.3,0.3-0.6,0.5-1,0.7
						c-0.7,0.3-1.5,0.3-2.2,0.1C152,202.1,152.2,202.1,152.4,202z"/>
				</g>
				<g id="XMLID_85_">
					<path class="st6" d="M156.8,191.8c0.2-1.3-0.7-2.7-2-3.2c0.1-0.8-0.3-1.6-0.9-2.1c-0.1-0.1-0.2-0.1-0.4-0.2
						c0.7-0.3,1.5-0.2,2.1,0.2c0.7,0.4,1,1.3,0.9,2.1c1.3,0.5,2.1,1.9,2,3.2c2.3,3.2,1.4,7.1-0.3,10.4c-0.1,0.2-0.2,0.4-0.4,0.4
						c-0.3,0.1-0.6-0.2-0.7-0.5c-0.1-0.3-0.1-0.5-0.2-0.8C158.4,198.3,159,194.8,156.8,191.8z"/>
				</g>
			</g>
		</g>
		<path class="st7" d="M91.7,402.2c-8.8,0.2-17.5,0-26.3-0.5c-0.6,0,3-5.8,3.6-6.3c2.3-1.8,5.4-2.2,8.1-1.1c1.8,0.8,3.3,2.3,5,3.3
			C85.2,399.3,88.5,400.7,91.7,402.2z"/>
		<path class="st7" d="M45.4,400.5c-8.8,0.2-17.5,0-26.3-0.5c-0.6,0,3-5.8,3.6-6.3c2.3-1.8,5.4-2.2,8.1-1.1c1.8,0.8,3.3,2.3,5,3.3
			C38.9,397.5,42.2,398.9,45.4,400.5z"/>
		<path id="XMLID_31_" class="st5" d="M69,117.9c0.9-0.6,1.9-1.1,2.9-1.4c4.6-1.7,9.9-0.9,14.1,1.6c2,1.2,3.8,2.7,4.9,4.8
			c0.9,1.7,2.7,3.9,3.2,5.7c0.2,0.8,0,1.8-0.8,2.2c1.4,2,2.7,4,3.8,6.2c1.5,2.9-1.6,2.8-2.4,5c-0.9,2.4,0.4,5.5-0.5,8.1
			c-1.6,4.6-5,1.5-8.2,3.9c-1.6,1.2-2.6,2.9-3.9,4.4c-3,3.6-7.4,5.9-12,6.5c-4.6,0.6-9.5-0.7-13.2-3.5c-0.8-0.6-1.7-1.4-1.7-2.4
			c0-1.5,1.6-2.4,3.1-2.4c1.5,0,2.9,0.5,4.4,0.3c2.8-0.3,3.6-2.6,5-4.5c1.8-2.4,3-4.4,2.4-7.5c-0.5-2.8-2.2-5.2-4.3-7
			c-3.2-2.6-5.4-4.9-4.3-9.1C62.6,124.3,65.2,120.4,69,117.9z"/>
		<g id="XMLID_33_">
			<path id="XMLID_47_" class="st6" d="M60.1,156.8c-0.9,0.1-1.8-0.1-2.7-0.2c0.3-0.1,0.6-0.1,0.9-0.1c0.8,0,1.5,0.1,2.3,0.2
				C60.4,156.7,60.3,156.8,60.1,156.8z"/>
			<path id="XMLID_56_" class="st6" d="M67.5,164.7c4.6-0.6,9-2.9,12-6.5c1.3-1.5,2.3-3.2,3.9-4.4c3.2-2.4,6.5,0.7,8.2-3.9
				c0.9-2.6-0.4-5.7,0.5-8.1c0.8-2.2,3.9-2.1,2.4-5c-1.1-2.2-2.4-4.2-3.8-6.2c0.7-0.4,1-1.4,0.8-2.2c-0.5-1.8-2.3-4-3.2-5.7
				c-1-2.1-2.9-3.6-4.9-4.8c-2.3-1.4-4.9-2.2-7.6-2.4c3.5-0.3,7.2,0.6,10.2,2.4c2,1.2,3.8,2.7,4.9,4.8c0.9,1.7,2.7,3.9,3.2,5.7
				c0.2,0.8,0,1.8-0.8,2.2c1.4,2,2.7,4,3.8,6.2c1.5,2.9-1.6,2.8-2.4,5c-0.9,2.4,0.4,5.5-0.5,8.1c-1.6,4.6-5,1.5-8.2,3.9
				c-1.6,1.2-2.6,2.9-3.9,4.4c-3,3.6-7.4,5.9-12,6.5c-1.2,0.1-2.4,0.2-3.6,0.1C66.9,164.8,67.2,164.8,67.5,164.7z"/>
		</g>
		<path id="XMLID_34_" class="st3" d="M63.8,109.9c0.4-0.4,0.9-0.8,1.4-1.1c3.2-2.1,7.2-2.6,11-2.8c3.8-0.2,7.7-0.1,11.4-1.3
			c1.4-0.5,2.9-1.1,4.3-0.7c1.7,0.5,2.6,2.3,2.9,4.1c0.6,3.9-1.4,9-4.1,11.9c-2.2,2.4-5.9,2.9-8.1,5.3c-1.3,1.4-1.8,3.4-1.8,5.3
			c0,1.9,0.5,3.8,1,5.6c-0.3,0.1-0.7,0.3-1,0.4c0.2-0.1-2.7-4.3-4.5-4c-1.8,0.3-2.6,2.5-2.5,4.3c0.2,1.6,0.7,4.1,2.8,3.8
			c-0.7,0.1-1.6,11.6-7,7.4c-1.5-1.2-1-2.2-1.3-3.9c-0.3-2-1.4-4-2.6-5.6c-1.6-2.2-3.6-4-5.2-6.1c-1.7-2.1-3-4.6-3.2-7.3
			c-0.1-2.7,1.3-5.6,3.8-6.5C60.1,115.6,61.5,112.2,63.8,109.9z"/>
		<path id="XMLID_37_" class="st3" d="M107.9,309.5c3,6.1,6.1,12.5,5.8,19.3c-0.3,6.2-3.4,11.9-6.4,17.3
			c-9.5,16.9-18.9,33.7-28.4,50.6c0.1-0.2-9.7-0.7-10.6-0.6c3.6-11.7,9-22.3,14.4-33.3c5-10.2,9.8-22,6.5-33.5
			c-2.3-8.1-8.1-11.4-13.7-16.8c-5.8-5.6-11.8-11.2-16-18c-4.2-6.9-6.6-15.3-4.5-23.1c1.6-6,6.6-10.7,12.3-12.8
			c3.4-1.3,7.4-1.7,10.9-0.8c3.8,0.9,4.5,2.6,6.3,6C92.9,278.7,100.3,294.2,107.9,309.5z"/>
		<path id="XMLID_40_" class="st3" d="M67.1,309.2c0,1.2-0.1,2.5-0.1,3.7c-0.2,5.6,0.3,11.5-0.3,17c-0.6,5.7-3.6,10.9-6.3,15.8
			c-9.5,16.9-18.9,33.7-28.4,50.6c-3.5-0.5-7-1-10.5-1.5c1.8,0.3,12-28.8,13-31.8c2.4-6.8,4.3-13.7,6.1-20.6c1-3.8,2.6-7.6,3-11.5
			c0.4-4.3-0.9-9-1.6-13.3c-1.6-10-3.9-20-6.8-29.7c-1.9-6.3-4-12.9-2.1-19.2c2.2-7.1,9.9-11.9,17.2-10.8c9,1.4,12.2,9.3,14,17.1
			C67.1,286,67.3,297.8,67.1,309.2z"/>
		<path id="XMLID_43_" class="st7" d="M79.5,279c-5.1,3.8-11.9,4.3-18.2,3.8c-5.6-0.4-11.2-1.4-16.6-3c-3.7-1.1-7.7-2.8-9.4-6.3
			c-1.3-2.9-0.8-6.4,0.9-9.1c1.6-2.7,4.2-4.7,6.8-6.5c6.6-4.3,14.4-7.1,22.2-6.4C77.4,252.7,93.9,268.3,79.5,279z"/>
		<path id="XMLID_46_" class="st3" d="M75.1,160c-6.5-2-13.3-3.6-20.2-3.2c-6.8,0.4-13.8,2.8-18.5,7.8c-5,5.4-6.9,12.9-8.3,20.2
			c-3,15.7-4.8,31.7-3.5,47.7c0.6,7.3,1.8,14.6,3.8,21.6c1.6,5.5,3.5,13.9,7.1,18.5c7,9,26.9,4.5,35.9,2c3.5-1,7.2-2.2,9.5-5
			c4.5-5.3,2.5-13.5,3.5-19.9c1.3-7.8,4.3-15.7,7.6-22.8c4.3-9.2,9.8-17.8,12.7-27.5c2.3-7.8,3.7-20.5-2.5-27
			C96,165.7,83.3,162.5,75.1,160z"/>
		<path id="XMLID_49_" class="st8" d="M144.6,197.1c-0.7,3.9,2.1,5.7,5.5,6.2c1,0.2,2.3,0.2,3.1,1c0.7,0.7,1.1,2,1.6,2.9
			c0.5,0,1-0.4,1.2-0.9c0.2-0.5,0.3-1,0.6-1.5c0.3-0.5,0.7-0.9,1.1-1.4c2.6-3.3-4.9-7.2-7-8.4c-0.9-0.5-1.9-1.1-2.9-1
			C146.1,194,144.9,195.5,144.6,197.1z"/>
		<path class="st3" d="M9.7,197c-2.1,6.3-3.6,12.9-5,19.4c-0.7,3.2-1.2,6.6-0.4,9.8c1.4,5.3,6.3,8.9,11,11.7
			c5,3.1,10.2,5.9,15.4,8.5c3,1.5,11.9,4.1,10.7-2.4c-0.3-1.7-1.4-3.1-2.7-4.3c-3.9-3.6-9.3-4.5-13.6-7.6
			c-6.1-4.4-5.6-10.4-2.9-16.7c5.5-13,11.2-26.3,20.2-37.2c3-3.6,10.4-15.7,1.4-17.8c-2-0.5-4,0.3-5.9,1.2
			C22.6,168.9,14.7,182.1,9.7,197z"/>
		<path id="XMLID_53_" class="st3" d="M115.8,206.6c1.4,6,2.8,11.6,5.1,15.7c1.4,2.6,3.7,5.4,6.7,5.3c3.3-0.1,5.3-3.5,6.7-6.5
			c2-4.2,3.9-8.5,6-12.6c1.5-3,1.8-5.6,3-8.7c0.7-1.7,2.2-3.3,4.1-3.4c1.8-0.1,3.4,1.1,4.9,2.2c1.5,1.2,2.6,2.6,3.9,4
			c0.4,0.4,0.8,0.8,0.8,1.3c0.1,0.6-0.2,1.1-0.4,1.6c-2.6,4.9-5,9.8-7.3,14.9c-2.4,5.1-5.5,9.7-8,14.7c-3.9,6.3-10.1,14.1-18.4,13.4
			c-6.6-0.5-11.3-6.5-14.7-12.2c-5.6-9.4-8.8-19.4-13.4-29.1c-3.1-6.6-7.3-12.5-10-19.3c-1.9-4.7-5-16.1,0.7-19.5
			c1.3-0.8,2.8-1,4.3-0.9C108.6,167.7,111.8,189.1,115.8,206.6z"/>
		<path id="XMLID_54_" class="st3" d="M154.7,198.3c1,0,1,1.5,0,1.5C153.8,199.8,153.8,198.3,154.7,198.3z"/>
	</g>
</g>
</svg>
