<?xml version="1.0" encoding="utf-8"?>
<!-- Generator: Adobe Illustrator 23.0.1, SVG Export Plug-In . SVG Version: 6.00 Build 0)  -->
<svg version="1.1" xmlns="http://www.w3.org/2000/svg" xmlns:xlink="http://www.w3.org/1999/xlink" x="0px" y="0px"
	 viewBox="0 0 375.6 500" style="enable-background:new 0 0 375.6 500;" xml:space="preserve">
<style type="text/css">
	.st0{clip-path:url(#SVGID_2_);}
	.st1{fill:#192956;}
	.st2{fill:#F0BF88;}
	.st3{fill:#FFFFFF;}
	.st4{fill:#FC8A63;}
	.st5{fill:none;stroke:#33437C;stroke-width:3;stroke-miterlimit:10;}
	.st6{fill:#112144;}
	.st7{fill:#D69350;}
	.st8{fill:#030D19;}
	.st9{fill:#CC8246;}
	.st10{fill:#A5A5A5;}
	.st11{fill:#F90D3E;}
	.st12{fill:#0E1D3D;}
	.st13{fill:#33437C;}
	.st14{opacity:0.3;clip-path:url(#SVGID_2_);fill:#33437C;}
	.st15{clip-path:url(#SVGID_2_);fill:#0E1D3D;}
</style>
<g id="BACKGROUND">
</g>
<g id="OBJECTS">
	<g>
		<g>
			<defs>
				<rect id="SVGID_1_" x="-124.4" transform="matrix(-1 -1.224647e-16 1.224647e-16 -1 251.1875 500)" width="500" height="500"/>
			</defs>
			<clipPath id="SVGID_2_">
				<use xlink:href="#SVGID_1_"  style="overflow:visible;"/>
			</clipPath>
			<g class="st0">
				<path class="st1" d="M164.5,128.8c0,0-15.3-3.3-15.3-21.8c0-14.5,17-35,38.7-23.7c21.7,11.3,44,44,44,44l1.3,44.3l-6.3,5
					L164.5,128.8z"/>
				<path class="st2" d="M164.5,128.8c0,0,6,54,9,72.8c5.3,6,63.8-5.5,63.8-5.5s-11.5-38.5-13-49.5c-5-1.3-6.8-10.8-9.3-16.8
					C209.5,131.8,169.8,132,164.5,128.8z"/>
				<path class="st2" d="M229.3,173.7c0,0,1.7-10.7,8.3-11.7s12.7,7.3,11,14.7c-1.7,7.3-14,10-19,4.3S229.3,173.7,229.3,173.7z"/>
				<path class="st2" d="M173.6,184.3c0,0-7-7-11-3s-0.3,14,3.7,16.3c4,2.3,12-5.7,12-5.7L173.6,184.3z"/>
				<path class="st1" d="M237.8,198.5c0,0,29,28.5,81.5,58.5s148.5,108.5,169,153.5V500h-443c0,0,35-98,73-160.5
					S179.8,237,179.8,237L237.8,198.5z"/>
				<path class="st3" d="M179.8,237l58-38.5c0,0,18.8,18.5,53.5,41.3c-8.9,33.4-28,102-41,129.2c-29-16.8-67.7-72.3-86.6-104.8
					C174,246.8,179.8,237,179.8,237z"/>
				<path class="st1" d="M172.9,198c0,0-12,18.3-22,29.3c3.3,7.7,23,28,52,21.7s43.7-35.3,43.7-35.3s-7.3-14.7-9.7-21.3
					c-5.3-2.3-32.3-16-45-10C179.3,188.3,172.9,198,172.9,198z"/>
				<polygon class="st3" points="71.5,327.2 69.6,347.2 30.4,362.5 34.5,339.4 				"/>
				<path class="st1" d="M76.7,465.8c0.3-1.5-4.4-125.3-4.4-125.3S54,357.6,31,356c-12,24.3-20.9,144-20.9,144H76L76.7,465.8z"/>
				<path class="st2" d="M73.3,314.4c-0.3-1.2,9.1-12.5,5.1-25.1c-3.9-12.5,1.2-24.6,1.2-24.6l7-15.9l-10.3-8.4
					c0,0-8.5,4.7-12.9,9.2c-4.4,4.5-10.4,24.7-10.4,24.7s-16.7-8.9-21.9-11c-5.2-2.1-10.7,10.5-12.3,20.8c-5.8-0.5-7.3,4.6-7.7,10.1
					c-0.4,5.5,0.7,12.5,0.7,12.5l3.3,1.5c0,0-2.8,10.7-1.9,13.8c0.9,3.1,2.8,4.1,2.8,4.1s-1,10.7,0.7,14.3c1.7,3.6,13,3.5,16.9,3
					C40,347.1,80.4,339,73.3,314.4z"/>
				<path class="st4" d="M189.3,156.8c0,0,2,17,1.8,24.3s-0.3,11.3,2.5,11.5s4.5-9.8,3-17.3S189.3,156.8,189.3,156.8z"/>
				<path class="st5" d="M191.8,137.5c0,0,10-2.3,17,4.8"/>
				<path class="st5" d="M181.6,141.7c0,0-10.1,1.8-13.8,11"/>
				<ellipse class="st6" cx="182" cy="164.8" rx="1.8" ry="3.5"/>
				<ellipse class="st6" cx="200.3" cy="158.8" rx="1.8" ry="3.5"/>
				<g>
					<path class="st7" d="M53.1,274.4c0.6,0.1,1.1,0.5,1.7,0.8c0.5,0.3,1,0.7,1.6,1c1,0.7,2,1.5,3,2.2l0.1,0.1l0,0.2
						c0.4,2.6,0.7,5.2,0.9,7.9c0,0.7,0,1.3,0,2c0,0.7-0.3,1.5-0.6,2.1c-0.7,1.3-1.7,2.3-2.9,3.2l-0.2,0.1l-0.2,0
						c-3.3-0.2-6.5-0.7-9.7-1.2c-3.2-0.6-6.4-1.2-9.5-2.1c-3.1-0.8-6.3-1.7-9.3-2.9c-3.1-1.1-6.1-2.3-9-3.7c1.6,0.5,3.1,1,4.6,1.5
						c1.5,0.5,3.1,0.9,4.7,1.4c3.1,0.9,6.2,1.7,9.4,2.4c3.1,0.7,6.3,1.3,9.5,1.9c3.2,0.5,6.4,1,9.6,1.3l-0.4,0.1
						c1-0.6,1.9-1.5,2.4-2.6c0.3-0.5,0.5-1.1,0.5-1.6c0.1-0.6,0.1-1.3,0.1-1.9c0-2.6-0.2-5.2-0.4-7.8l0.1,0.2
						c-0.9-0.8-1.8-1.7-2.8-2.4c-0.5-0.4-1-0.8-1.4-1.2C54.1,275,53.7,274.6,53.1,274.4z"/>
				</g>
				<g>
					<path class="st7" d="M56.5,293.3c1,0.9,1.7,2,2.3,3.2c0.6,1.2,1,2.4,1.4,3.7c0.6,2.6,0.9,5.2,0.8,7.9c0,0.8-0.4,1.6-0.9,2.2
						c-0.6,0.5-1.2,0.9-1.9,1.1c-1.3,0.5-2.6,0.7-4,0.9c-2.7,0.3-5.3,0.3-7.9,0.2c-5.3-0.2-10.5-0.8-15.6-1.6
						c-5.2-0.7-10.3-1.7-15.5-2.6c5.2,0.4,10.4,0.9,15.6,1.5c5.2,0.5,10.4,1,15.5,1.3c2.6,0.1,5.2,0.1,7.7-0.1
						c1.3-0.1,2.5-0.3,3.7-0.7c0.6-0.2,1.1-0.5,1.5-0.8c0.4-0.4,0.6-0.8,0.6-1.3c0.2-2.6,0.1-5.1-0.3-7.7
						C58.9,297.9,58.1,295.4,56.5,293.3z"/>
				</g>
				<g>
					<path class="st7" d="M55.6,311.5c0.5,0.2,1.1,0.5,1.5,0.8c0.5,0.4,0.9,0.8,1.2,1.3c0.7,1,1,2.2,1.1,3.4c0.1,1.2,0,2.4-0.3,3.6
						c-0.3,1.2-1,2.3-1.9,3.1c-0.9,0.9-1.9,1.6-3,2c-1.1,0.5-2.3,0.9-3.4,1.1c-2.3,0.5-4.7,0.7-7,0.8c-4.6,0.1-9.3,0-13.9-0.2
						c-4.6-0.2-9.2-0.6-13.8-1.2c4.6,0,9.2,0,13.8,0c4.6,0,9.2,0.1,13.8-0.1c2.3-0.1,4.6-0.2,6.8-0.7c2.2-0.4,4.3-1.2,6-2.6
						c0.8-0.7,1.4-1.6,1.8-2.6c0.4-1,0.5-2.1,0.5-3.2c0-1.1-0.2-2.2-0.7-3.2C57.5,312.8,56.6,312,55.6,311.5z"/>
				</g>
				<g>
					<path class="st7" d="M53.9,325.6c1.3,0.8,2.5,1.8,3.3,3.2c0.7,1.5,1,3.1,0.8,4.7c-0.1,1.6-0.9,3.3-2.2,4.4
						c-1.2,1.2-2.8,1.8-4.3,2.3c-3,0.8-5.9,1.5-8.9,2c-3,0.6-6,1-9.1,1.3c2.9-0.9,5.9-1.7,8.8-2.4c2.9-0.8,5.9-1.5,8.8-2.3
						c1.4-0.4,2.7-1,3.8-1.9c1.1-0.9,1.7-2.1,2-3.5c0.3-1.4,0.1-2.9-0.3-4.2C56,327.8,55,326.7,53.9,325.6z"/>
				</g>
				<g>
					<path class="st8" d="M200,204.5c1.2,2.9,2.3,5.9,3.8,8.5c0.8,1.3,1.6,2.6,2.6,3.4c0.5,0.4,1,0.5,1.4,0.4c0.2,0,0.4-0.2,0.6-0.3
						c0.2-0.2,0.4-0.4,0.5-0.7c0.7-1.1,1-2.6,1.2-4.1c0.3-1.5,0.4-3,0.5-4.6c0.2-3.1,0.3-6.2,0.4-9.4c0.7,3.1,1.1,6.2,1.2,9.4
						c0.1,1.6,0,3.2-0.2,4.8c-0.2,1.6-0.5,3.2-1.4,4.9c-0.2,0.4-0.5,0.8-0.9,1.2c-0.4,0.3-0.9,0.6-1.5,0.7c-0.5,0.1-1.1,0.1-1.7-0.1
						c-0.5-0.2-0.9-0.4-1.3-0.7c-0.7-0.6-1.2-1.3-1.7-2c-0.5-0.7-0.8-1.4-1.1-2.2C201.1,210.7,200.4,207.6,200,204.5z"/>
				</g>
				<g>
					<path class="st9" d="M241.8,169c-1.1-0.1-2.3,0-3.3,0.4c-1,0.4-1.9,1-2.7,1.7c-0.7,0.8-1.3,1.7-1.7,2.7c-0.2,0.5-0.4,1-0.6,1.5
						c-0.1,0.5-0.3,1.1-0.4,1.6l-0.4-0.5c0.6,0,1.2,0.1,1.7,0.4c0.6,0.3,1,1,0.9,1.6c0,0.6-0.3,1.2-0.7,1.6
						c-0.3,0.4-0.8,0.8-1.2,1.1c0.3-0.4,0.7-0.8,0.9-1.3c0.2-0.5,0.4-1,0.4-1.4c-0.1-0.4-0.3-0.8-0.7-1c-0.4-0.2-0.9-0.2-1.4-0.2
						l-0.6,0l0.1-0.5c0.1-0.6,0.2-1.1,0.4-1.7c0.2-0.6,0.4-1.1,0.6-1.7c0.5-1.1,1.1-2.1,2-2.9c0.9-0.8,2-1.4,3.1-1.7
						C239.5,168.5,240.7,168.6,241.8,169z"/>
				</g>
				<g>
					<path class="st9" d="M238,169c0.6,0.4,1.1,0.8,1.6,1.2c0.5,0.5,0.9,0.9,1.3,1.5c0.8,1,1.3,2.3,1.6,3.5c-0.4-1.2-1.1-2.3-2-3.2
						c-0.4-0.5-0.9-0.9-1.4-1.2c-0.5-0.4-1-0.7-1.5-0.9L238,169z"/>
				</g>
				<g>
					<path class="st9" d="M171.6,185c0.6,2.1,0.9,4.3,1.2,6.4c0.2,2.2,0.3,4.3,0.2,6.6c-0.6-2.1-0.9-4.3-1.2-6.4
						C171.6,189.4,171.4,187.2,171.6,185z"/>
				</g>
				<g>
					<path class="st9" d="M163.8,187.2c0.6-0.6,1.6-0.9,2.5-0.9c0.9,0,1.8,0.3,2.6,0.7c0.4,0.2,0.7,0.5,1.1,0.8
						c0.3,0.3,0.7,0.6,0.9,0.9c0.3,0.3,0.5,0.7,0.8,1c0.2,0.4,0.4,0.7,0.6,1.1c-0.4-0.3-0.7-0.5-1-0.8l-1-0.8c-0.7-0.5-1.3-1-2-1.4
						C167,187,165.4,186.7,163.8,187.2z"/>
				</g>
				<g>
					<path class="st9" d="M167.1,187.1c-0.3,1-0.5,2.1-0.5,3.2c-0.1,1.1,0,2.2,0.4,3.2c-0.5-1-0.8-2.1-0.9-3.2
						c-0.1-1.1-0.1-2.2,0-3.4L167.1,187.1z"/>
				</g>
				<g>
					<path class="st10" d="M254.3,213c-0.5,3.9-1.1,7.7-1.6,11.6l-1.7,11.6l-3.6,23.2l-0.1,0.5l-0.5-0.2l-28.4-11.6l0.6-0.3
						l-12.8,29.3l-0.2,0.5l-0.4-0.3l-17-13.4l-16.9-13.5l17.2,13l17.2,13.1l-0.6,0.2l12.6-29.4l0.2-0.4l0.5,0.2l28.3,11.7l-0.6,0.3
						l3.9-23.1l2-11.6C253,220.7,253.7,216.9,254.3,213z"/>
				</g>
				<polygon class="st11" points="216.8,264.2 233.6,257 229.8,276.6 255.3,332.6 248,356.7 230.9,340.2 228.1,277.3 				"/>
				<g>
					<path class="st12" d="M141.8,427.5c-0.4,6.1-1.1,12.2-1.8,18.3c-0.4,3-0.8,6.1-1.3,9.1l-1.4,9.1l-1.6,9c-0.6,3-1.1,6-1.7,9
						c-1.2,6-2.5,12-4.2,17.9c0.4-6.1,1.1-12.2,1.8-18.3c0.4-3,0.8-6.1,1.3-9.1l1.4-9.1l1.6-9c0.6-3,1.1-6,1.7-9
						C138.8,439.4,140.1,433.4,141.8,427.5z"/>
				</g>
				<g>
					<path class="st12" d="M309.3,252.5c0.7,3.4,1.2,6.9,1.9,10.3l1.7,10.3c1.1,6.9,2.2,13.8,3.2,20.7l0.1,0.6l-0.6,0.2l-10.5,3.7
						c-3.5,1.2-7,2.5-10.5,3.6l-10.6,3.5c-3.5,1.1-7.1,2.3-10.6,3.4c3.4-1.4,6.9-2.7,10.4-4.1l10.4-4c3.5-1.3,7-2.6,10.5-3.9
						l10.5-3.8l-0.5,0.8c-1-6.9-2-13.8-2.8-20.8l-1.3-10.4C310,259.5,309.6,256,309.3,252.5z"/>
				</g>
				<g>
					<path class="st12" d="M293.3,302.5l6.2,15.2c2.1,5.1,4.1,10.1,6.2,15.2l0.1,0.3l-0.2,0.2c-6.2,6.7-12.4,13.4-18.7,20L268,373.3
						c-6.3,6.7-12.6,13.2-18.9,19.9c-6.3,6.6-12.6,13.2-19,19.8l-2.5,2.6l1.6-3.2l10.4-21.7c3.5-7.2,7-14.4,10.6-21.6
						c-3.3,7.3-6.6,14.6-9.9,21.9l-10.1,21.8l-0.9-0.6c6.2-6.7,12.5-13.3,18.8-20c6.3-6.6,12.5-13.3,18.9-19.9l18.9-19.8
						c6.3-6.6,12.7-13.2,19-19.7l-0.1,0.5c-2-5.1-3.9-10.2-5.8-15.3L293.3,302.5z"/>
				</g>
				<g>
					<path class="st12" d="M155.8,278.5c0.5,3.2,0.8,6.5,1.2,9.7l1.1,9.7c0.4,3.2,0.7,6.5,1,9.7l0.9,9.7l-0.8-0.7
						c6.3-0.1,12.5-0.1,18.8-0.1l9.4,0.1c3.1,0.1,6.3,0.1,9.4,0.2c-3.1,0.2-6.2,0.3-9.4,0.5l-9.4,0.3c-6.2,0.2-12.5,0.3-18.7,0.4
						l-0.7,0l-0.1-0.7l-0.8-9.8c-0.2-3.3-0.5-6.5-0.7-9.8l-0.7-9.8C156.1,285,155.9,281.8,155.8,278.5z"/>
				</g>
				<g>
					<path class="st12" d="M181.3,317.5c-0.2,2.4-0.3,4.8-0.5,7.1l-0.6,7.1l-1.3,14.3l-0.3-0.6l16.7,8.5c5.6,2.8,11.1,5.8,16.6,8.7
						c5.5,2.9,11,5.8,16.5,8.8c5.5,2.9,11,6,16.4,9c-5.6-2.7-11.3-5.4-16.8-8.2c-5.6-2.8-11.2-5.6-16.7-8.4
						c-5.5-2.9-11.1-5.6-16.6-8.6l-16.6-8.7l-0.4-0.2l0.1-0.4l1.7-14.2l0.9-7.1C180.6,322.2,180.9,319.9,181.3,317.5z"/>
				</g>
				<g>
					<path class="st12" d="M229.8,412.5c1.1,3.6,2.1,7.2,3.2,10.8l3,10.9c2,7.3,3.9,14.5,5.8,21.8c1.9,7.3,3.7,14.6,5.5,21.9l2.6,11
						c0.8,3.7,1.7,7.3,2.5,11c-1.1-3.6-2.1-7.2-3.2-10.8l-3-10.9c-2-7.3-3.9-14.5-5.8-21.8c-1.9-7.3-3.7-14.6-5.5-21.9l-2.6-11
						C231.4,419.9,230.5,416.2,229.8,412.5z"/>
				</g>
				<g>
					<path class="st12" d="M368.3,371c4.9,10.4,9.6,20.8,14,31.4c4.4,10.6,8.7,21.2,12.7,31.9c4,10.7,7.9,21.5,11.3,32.5
						c3.5,10.9,6.6,22,8.9,33.2c-0.8-2.7-1.6-5.5-2.4-8.2c-0.8-2.7-1.7-5.5-2.6-8.2c-0.8-2.7-1.8-5.4-2.7-8.2
						c-0.9-2.7-1.8-5.4-2.8-8.1l-2.8-8.1l-2.9-8.1c-2-5.4-3.9-10.7-6-16.1c-4-10.7-8.2-21.4-12.3-32.1L368.3,371z"/>
				</g>
				<circle class="st12" cx="248.8" cy="428" r="5.5"/>
				<path class="st13" d="M160.3,91c-5.6,3.1-8.3,11.6-6.7,17.6c0.8-2,1.2-5.8,3.3-6.5c0.1,1.4,0,2.9,0.1,4.3c0.8-1,1.7-2.6,2.9-3.5
					c0.1,1.5-0.1,2.9,0.5,4.2c1.4-1.3,3.3-2.9,5.2-3.2c0.1,1.2,0.5,2.2,1.3,2.9c1.5-2.8,3.2-1.4,5.4-1c-0.7-1.2-0.8-2.8-0.7-4.3
					c-0.4,0.5-1.5,1.3-2,2c-1.4-1.4-1.4-3.4-1.4-5.3c-1.4,0.6-2.5,2.4-3.5,3.6c-0.2-2.2,0-4.5-0.1-6.7c-1.3,0.8-2,2.3-2.9,3.3
					c-0.5-2.2,0.7-3.8,1.6-5.6c-1.3,0.7-2.2,2.2-3.3,3.2c-0.3-2.3,1.3-3.7,1.3-5.8C159.8,90.7,158.2,92.5,160.3,91z"/>
			</g>
			<path class="st14" d="M187.9,83.3c21.7,11.3,44,44,44,44l1.1,37.4c1.2-1.4,2.7-2.4,4.5-2.7c6.7-1,12.7,7.3,11,14.7
				c-1.3,5.8-9.2,8.6-15,6.9c1,3.3,1.8,6.2,2.4,8.4c0.3,0.1,0.6,0.3,0.9,0.4c0.8,2.3,2.2,5.6,3.7,8.9c0.2,0.2,0.4,0.3,0.5,0.5
				c0,0,0.1,0.1,0.1,0.1c1.4,1.3,3.3,2.9,5.6,4.9c0,0,0,0,0,0c6.9,5.9,17.7,14.6,32,24.7c0.1,0.1,0.2,0.1,0.3,0.2
				c0.9,0.6,1.8,1.3,2.7,1.9c0.1,0.1,0.2,0.1,0.2,0.2c2.9,2,6,4.1,9.2,6.2c8.4,5.5,17.7,11.3,28,17.2c52.5,30,148.5,108.5,169,153.5
				V500H379.9c-2.3-6.8-4.7-13.5-7.4-20.1c-17.6-43.3-38.7-85.3-59.6-127.1c-20.7-41.3-42-82.3-62.4-123.7c-0.7-1.5-1.8-2.7-3.1-3.7
				c-1.3-1.7-2.7-2.9-4.3-3.7c-4.7-9-9.6-17.9-14.5-26.9c-8.5-15.9-14.2-32.5-19.3-49.8c-3.8-12.8-7.7-25.7-14-37.6
				c-4.9-9.3-11.2-19.3-20.1-25.1c-1.2-0.8-2.4-1.4-3.6-1.9C176.5,79.5,182,80.3,187.9,83.3z"/>
			<circle class="st15" cx="263.3" cy="479.3" r="5.5"/>
		</g>
	</g>
</g>
<g id="DESIGNED_BY_FREEPIK">
</g>
</svg>
