<?xml version="1.0" encoding="utf-8"?>
<!-- Generator: Adobe Illustrator 23.0.1, SVG Export Plug-In . SVG Version: 6.00 Build 0)  -->
<svg version="1.1" id="Layer_1" xmlns="http://www.w3.org/2000/svg" xmlns:xlink="http://www.w3.org/1999/xlink" x="0px" y="0px"
	 viewBox="0 0 89.4 89.4" style="enable-background:new 0 0 89.4 89.4;" xml:space="preserve">
<style type="text/css">
	.st0{fill:#4F4F4F;}
</style>
<title>linkedinSquare</title>
<g>
	<g id="content">
		<path class="st0" d="M0,0v89.4h89.4V0H0z M27.5,73.8c0,1.1-0.9,2.1-2.1,2.1h-8.8c-1.1,0-2.1-0.9-2.1-2.1V36.3
			c0-1.1,0.9-2.1,2.1-2.1h8.8c1.1,0,2.1,0.9,2.1,2.1V73.8z M21,28.5c-4.1,0-7.5-3.4-7.4-7.5s3.4-7.5,7.5-7.4c4.1,0,7.5,3.4,7.4,7.5
			C28.5,25.2,25.2,28.5,21,28.5C21,28.5,21,28.5,21,28.5z M75.9,75c0,0.5-0.4,0.8-0.8,0.8H63.8c-0.5,0-0.8-0.4-0.8-0.8V51.8
			c0-4-3.3-7.2-7.2-7.2c0,0,0,0-0.1,0c-4,0.1-7.2,3.4-7.2,7.4v23c0,0.5-0.4,0.9-0.8,0.9H36.5c-0.5,0-0.8-0.4-0.8-0.8V35.1
			c0-0.5,0.4-0.9,0.8-0.9h11c0.5,0,0.9,0.4,0.8,0.9v4.6h0.1c0.2-0.4,0.4-0.8,0.7-1.1c2.4-3.4,6.2-5.4,10.4-5.4h2.3
			c7.8,0,14.2,6.4,14.2,14.2V75z"/>
	</g>
</g>
</svg>
