<?xml version="1.0" encoding="utf-8"?>
<!-- Generator: Adobe Illustrator 23.0.1, SVG Export Plug-In . SVG Version: 6.00 Build 0)  -->
<svg version="1.1" id="Layer_1" xmlns="http://www.w3.org/2000/svg" xmlns:xlink="http://www.w3.org/1999/xlink" x="0px" y="0px"
	 viewBox="0 0 89.4 89.4" style="enable-background:new 0 0 89.4 89.4;" xml:space="preserve">
<style type="text/css">
	.st0{fill:#4F4F4F;}
</style>
<title>SquarepinterestSquare</title>
<g>
	<g>
		<g id="content_8_">
			<g>
				<g>
					<path class="st0" d="M89.4,0v89.4H0V0H89.4z M75.6,56.7C82,40.2,74.3,21.6,58,14.5c-16.7-7.3-36.2,0.3-43.5,17
						c-7.3,16.7,0.3,36.2,17,43.5c0-0.5,0-0.8,0-1.2c0-1.8,0.2-3.6,0.4-5.5c1.3-6,2.7-12.1,4.2-18c0.1-0.5,0.1-1-0.1-1.5
						c-0.8-2.2-1-4.7-0.5-7c0.3-2.3,1.7-4.3,3.6-5.4c3-1.7,6.3-0.1,6.7,3.4c0.1,1.3,0,2.6-0.3,3.9c-0.7,2.9-1.7,5.8-2.4,8.8
						c0,0.1,0,0.1,0,0.2c-0.6,2.7,1.1,5.4,3.8,6c2,0.5,4,0.1,5.7-1.1c1.8-1.3,3.1-3,4-5c1.8-3.9,2.7-8.3,2.3-12.6
						c-0.2-5.3-3.9-9.7-9.1-10.8c-1.8-0.4-3.7-0.6-5.5-0.6c-6.8,0-12.8,4.5-14.7,11c-1,3.5-1.4,7.1,0.7,10.2
						c1.1,1.4,1.4,3.3,0.7,4.9l-0.1,0.3c-0.4,1.3-0.9,1.5-2.1,0.9c-2.3-1.1-4.1-3.1-5-5.4c-2.9-7.4-0.8-15.8,5.1-21.1
						c7.8-6.8,16.8-8.1,26.3-4.4C61.4,27,65.8,32.5,66.5,39c1,6.5-0.5,13-4.3,18.4c-2.2,3.2-5.5,5.5-9.3,6.4
						c-3.7,0.9-7.2,0.6-10.3-1.8c-0.6-0.5-1.2-1-1.7-1.5c-0.7,2.6-1.2,5.4-2.1,8c-0.9,2.7-2.1,5.2-3.1,7.8
						C52,81.3,69.4,72.7,75.6,56.7L75.6,56.7z"/>
				</g>
			</g>
		</g>
	</g>
	<g>
		<g id="content_7_">
			<g>
				<g>
					<path class="st0" d="M89.4,0v89.4H0V0H89.4z M75.6,56.7C82,40.2,74.3,21.6,58,14.5c-16.7-7.3-36.2,0.3-43.5,17
						c-7.3,16.7,0.3,36.2,17,43.5c0-0.5,0-0.8,0-1.2c0-1.8,0.2-3.6,0.4-5.5c1.3-6,2.7-12.1,4.2-18c0.1-0.5,0.1-1-0.1-1.5
						c-0.8-2.2-1-4.7-0.5-7c0.3-2.3,1.7-4.3,3.6-5.4c3-1.7,6.3-0.1,6.7,3.4c0.1,1.3,0,2.6-0.3,3.9c-0.7,2.9-1.7,5.8-2.4,8.8
						c0,0.1,0,0.1,0,0.2c-0.6,2.7,1.1,5.4,3.8,6c2,0.5,4,0.1,5.7-1.1c1.8-1.3,3.1-3,4-5c1.8-3.9,2.7-8.3,2.3-12.6
						c-0.2-5.3-3.9-9.7-9.1-10.8c-1.8-0.4-3.7-0.6-5.5-0.6c-6.8,0-12.8,4.5-14.7,11c-1,3.5-1.4,7.1,0.7,10.2
						c1.1,1.4,1.4,3.3,0.7,4.9l-0.1,0.3c-0.4,1.3-0.9,1.5-2.1,0.9c-2.3-1.1-4.1-3.1-5-5.4c-2.9-7.4-0.8-15.8,5.1-21.1
						c7.8-6.8,16.8-8.1,26.3-4.4C61.4,27,65.8,32.5,66.5,39c1,6.5-0.5,13-4.3,18.4c-2.2,3.2-5.5,5.5-9.3,6.4
						c-3.7,0.9-7.2,0.6-10.3-1.8c-0.6-0.5-1.2-1-1.7-1.5c-0.7,2.6-1.2,5.4-2.1,8c-0.9,2.7-2.1,5.2-3.1,7.8
						C52,81.3,69.4,72.7,75.6,56.7L75.6,56.7z"/>
				</g>
			</g>
		</g>
	</g>
</g>
</svg>
