<?xml version="1.0" encoding="utf-8"?>
<!-- Generator: Adobe Illustrator 23.0.1, SVG Export Plug-In . SVG Version: 6.00 Build 0)  -->
<svg version="1.1" id="Layer_1" xmlns="http://www.w3.org/2000/svg" xmlns:xlink="http://www.w3.org/1999/xlink" x="0px" y="0px"
	 viewBox="0 0 857.4 508.9" style="enable-background:new 0 0 857.4 508.9;" xml:space="preserve">
<style type="text/css">
	.st0{fill:#FED22C;}
	.st1{fill:#FFE9E3;}
	.st2{fill:#FFA784;}
	.st3{fill:#E62A7D;}
	.st4{fill:#03F4D1;}
	.st5{fill:#FFD0C0;}
	.st6{fill:#EA8865;}
	.st7{fill:#60BFFF;}
	.st8{fill:#C45F3F;}
	.st9{opacity:0.3;fill:#60BFFF;}
	.st10{fill:#752C1B;}
	.st11{opacity:0.3;fill:#C45F3F;}
	.st12{fill:#BD1159;}
	.st13{fill:#233560;}
	.st14{fill:#FFF4DC;}
	.st15{fill:#76391D;}
	.st16{fill:#FFFFFF;}
	.st17{fill:#997DEF;}
	.st18{fill:#7A50E2;}
	.st19{fill:none;stroke:#6A33D3;stroke-width:0.2327;stroke-miterlimit:10;}
	.st20{fill:#512514;}
	.st21{fill:#FFE9B3;}
	.st22{fill:#DEF5FF;}
	.st23{fill:#6A33D3;}
	.st24{fill:#FFA92E;}
	.st25{fill:#A6DFFF;}
	.st26{fill:#3D99DF;}
	.st27{opacity:0.4;fill:#FFA784;}
	.st28{fill:#1F84C1;}
	.st29{fill:none;stroke:#233560;stroke-width:0.2458;stroke-linecap:round;stroke-linejoin:round;stroke-miterlimit:10;}
	.st30{fill:#506DAD;}
	.st31{enable-background:new    ;}
	.st32{clip-path:url(#SVGID_2_);}
	.st33{fill:#00AB8E;}
	.st34{fill:#02E1C1;}
	.st35{clip-path:url(#SVGID_4_);}
	.st36{fill:#5513BC;}
	.st37{opacity:0.5;fill:#E62A7D;}
	.st38{fill:#2C4482;}
	.st39{fill:#8FC1FF;}
	.st40{fill:#DCEBFC;}
	.st41{fill:#182642;}
	.st42{fill:#C67B17;}
	.st43{opacity:0.8;fill:#FFE9E3;}
	.st44{fill:#A0432A;}
	.st45{fill:#38170D;}
	.st46{opacity:0.5;fill:#FED22C;}
	.st47{fill:#DD9385;}
	.st48{fill:#C67967;}
	.st49{fill:#AA5F48;}
	.st50{fill:#380D8C;}
	.st51{fill:#126D9B;}
	.st52{fill:#FFDD7A;}
	.st53{fill:#FF65A7;}
</style>
<g>
	<path class="st0" d="M474.1,214.9c0,0-44.7,13.4-42.1,42.5l432.4,251.5h125L474.1,214.9z"/>
	<g>
		<path class="st1" d="M449.9,279.6c0,0,66.2-37.4,73.2-40.7c6.9-3.3,14.5-3.5,17.1,1.1c0,0,6.3-4.6,13.2-1.1
			c6.9,3.5,7.6,7.6,7.6,7.6s6.1-2.2,10.2,2.4s3.9,11.3,3.9,11.3s10,2.7,7.8,16.9l-5.4-3.1c0,0-52.9,34.1-60.9,38.6
			c-8.1,4.6-15.2,5.5-17.6,3.3l-5.7,3.2C493.3,319.2,444,310.5,449.9,279.6z"/>
		<g>
			<g>
				<path class="st2" d="M527.4,247.4c1.9-1.5,4-2.8,6.2-4.1c2.1-1.2,4.3-2.4,6.6-3.3c-1.9,1.5-4,2.8-6.2,4.1
					C531.9,245.4,529.7,246.5,527.4,247.4z"/>
			</g>
			<g>
				<path class="st2" d="M541.3,256.3c3-2.2,6.2-4,9.4-5.7c1.6-0.8,3.3-1.6,5-2.3c1.7-0.7,3.5-1.3,5.3-1.7c-1.7,0.7-3.3,1.5-5,2.4
					l-4.9,2.5C547.9,253.1,544.6,254.8,541.3,256.3z"/>
			</g>
			<g>
				<path class="st2" d="M554.3,267.2c1.4-1.3,2.9-2.4,4.6-3.4c1.6-1,3.3-1.9,5.1-2.6c1.8-0.7,3.6-1.3,5.5-1.5
					c1.9-0.2,3.9-0.1,5.7,0.6c-1.9-0.3-3.7-0.2-5.5,0.1c-1.8,0.3-3.6,0.9-5.3,1.6c-1.7,0.7-3.4,1.5-5.1,2.4
					C557.6,265.3,555.9,266.2,554.3,267.2z"/>
			</g>
		</g>
		<path class="st3" d="M50,508.9l400-229.2c0,0,36.5,9.1,43.7,40.7L174.1,508.9H50z"/>
	</g>
	<g>
		<path class="st4" d="M0,45.1l410.3,243.5c0,0-53.3,16.2-44.2,48.4L0,113.7V45.1z"/>
		<path class="st5" d="M415.5,364.3l-50.7-28.2c0,0-12.4-23.2,3.2-36.2c15.6-13,42.3-11.4,42.3-11.4s61.4,36.3,65.9,39.6
			c4.6,3.3,4.3,7.4,3.7,15c-0.7,7.6-5.9,15-14.7,9.1c0,0-0.9,11.1-2,14.7c-1.1,3.7-6.9,10-14.3,4.3c0,0,1.3,10.6-6.9,10.4
			c-8.2-0.2-10.1-6.9-10.1-6.9s-2.7,6.3-10.7,3.7S415.5,364.3,415.5,364.3z"/>
		<g>
			<g>
				<path class="st6" d="M414.4,344.4c3.2,1.2,6.4,2.6,9.5,4c1.6,0.7,3.1,1.5,4.6,2.4c0.8,0.4,1.5,0.9,2.2,1.4
					c0.4,0.3,0.7,0.5,1.1,0.8c0.2,0.2,0.3,0.3,0.5,0.5c0.2,0.2,0.3,0.4,0.4,0.6c0.4,0.9,0.6,1.8,0.7,2.6c0.1,0.9,0.2,1.7,0.2,2.6
					c0,1.7,0,3.5-0.2,5.2c-0.3,3.4-0.8,6.8-1.5,10.2c0.2-1.7,0.3-3.4,0.5-5.1c0.1-1.7,0.3-3.4,0.3-5.1c0.1-1.7,0.1-3.4,0.1-5.1
					c-0.1-1.7-0.2-3.4-0.9-4.8c-0.1-0.4-0.4-0.6-0.7-0.9c-0.3-0.3-0.6-0.5-1-0.8c-0.7-0.5-1.4-0.9-2.1-1.4c-1.5-0.9-3-1.7-4.5-2.5
					C420.6,347.5,417.5,345.9,414.4,344.4z"/>
			</g>
			<g>
				<path class="st6" d="M433.2,336.9c3.4,1.2,6.8,2.6,10,4.4c1.6,0.9,3.2,1.9,4.6,3.1c0.7,0.6,1.4,1.3,1.8,2.2
					c0.4,1,0.5,1.9,0.6,2.8c0.3,3.7,0.1,7.3-0.1,11c-0.3,3.6-0.6,7.3-1.2,10.9l0.2-5.5c0.1-1.8,0.2-3.6,0.2-5.4
					c0.1-3.6,0.3-7.3-0.1-10.8c-0.1-0.4-0.1-0.9-0.2-1.3c-0.1-0.4-0.2-0.9-0.3-1.2c-0.3-0.7-1-1.4-1.6-2c-1.3-1.2-2.8-2.2-4.4-3.1
					c-1.5-0.9-3.1-1.8-4.8-2.6C436.5,338.4,434.8,337.7,433.2,336.9z"/>
			</g>
			<g>
				<path class="st6" d="M445.7,326.4c3.1,0.9,6.2,2,9.2,3.4c1.5,0.7,2.9,1.4,4.4,2.3c1.4,0.8,2.8,1.8,4,3c0.3,0.3,0.6,0.6,0.8,1
					c0.2,0.4,0.5,0.7,0.7,1.1c0.4,0.8,0.6,1.6,0.8,2.4c0.4,1.6,0.6,3.3,0.6,4.9c0,3.3-0.3,6.5-1,9.7c0.2-1.6,0.3-3.2,0.3-4.9
					c0.1-1.6,0.1-3.2,0-4.8c-0.1-1.6-0.3-3.2-0.7-4.7c-0.2-0.8-0.4-1.5-0.8-2.2c-0.1-0.4-0.4-0.6-0.6-1c-0.2-0.3-0.5-0.6-0.8-0.9
					c-1.1-1.1-2.4-2.1-3.8-2.9c-1.4-0.9-2.8-1.6-4.2-2.3c-1.4-0.7-2.9-1.4-4.4-2.1C448.7,327.6,447.2,327,445.7,326.4z"/>
			</g>
		</g>
	</g>
	<g>
		<path class="st7" d="M832.6,0H726.3L330.9,224c0,0,36.4,7.2,47.7,38.4l454-259.5V0z"/>
		<path class="st2" d="M277.2,285.8c0,0-4.6,4.3-9.8,1.5c-5.2-2.8-4.6-7.2-4.8-13.7c-0.2-6.5-0.8-9.1,5-13
			c5.9-3.9,64.2-37.1,64.2-37.1s20.8-2.1,34.7,7.8c13.9,10,12.1,31,12.1,31s-2.1,1.3-1.9,4.1c0.2,2.8-2.8,6.3-9.5,9.8
			c-6.7,3.5-40.6,20.6-40.3,22.3c0.2,1.7-0.4,10.1-1.3,11.7c-1.7,3-12.1,7.2-15.8-1.5c0,0,0,7.6-10,7.2c-10-0.4-6.9-10.8-6.9-10.8
			s-12.1,6.1-14.1-3.3C276.7,292.5,277.2,285.8,277.2,285.8z"/>
		<g>
			<g>
				<path class="st8" d="M296.2,260.4c-2.6,1.6-5.2,3.1-7.8,4.5c-2.6,1.5-5.2,2.9-7.8,4.5c-0.6,0.4-1.2,0.8-1.7,1.3
					c-0.5,0.5-0.8,1.1-1,1.8c-0.5,1.3-0.6,2.8-0.7,4.3c-0.1,1.5-0.1,3-0.1,4.5l0,4.5c-0.3-3-0.6-6-0.6-9c0-1.5,0.1-3,0.6-4.6
					c0.2-0.7,0.6-1.5,1.2-2.1c0.5-0.6,1.2-1.1,1.9-1.5c2.6-1.5,5.2-3,7.9-4.3C290.8,263,293.5,261.7,296.2,260.4z"/>
			</g>
			<g>
				<path class="st8" d="M292.8,305.1c-0.3-3.4-0.4-6.8-0.5-10.2c-0.1-3.4-0.1-6.8,0-10.2c0-0.4,0.1-0.9,0.1-1.3
					c0.1-0.4,0.2-0.9,0.3-1.3c0.3-0.8,0.8-1.6,1.4-2.3c1.1-1.4,2.5-2.5,3.9-3.4c1.4-0.9,2.9-1.8,4.5-2.5c1.5-0.7,3.1-1.4,4.7-2
					c-3,1.5-6,3.1-8.7,5.1c-1.3,1-2.6,2.1-3.7,3.4c-0.5,0.6-0.9,1.3-1.2,2.1c-0.1,0.4-0.2,0.7-0.3,1.1c0,0.4-0.1,0.8-0.1,1.2
					c-0.2,3.4-0.1,6.8-0.2,10.1C292.9,298.3,292.9,301.7,292.8,305.1z"/>
			</g>
			<g>
				<path class="st8" d="M309.7,308.8c-0.4-3.4-0.6-6.8-0.7-10.3c-0.1-1.7-0.1-3.4,0-5.2c0-0.9,0.1-1.7,0.2-2.6
					c0.1-0.5,0.1-0.8,0.3-1.4c0.2-0.5,0.5-0.9,0.7-1.2c1.2-1.4,2.6-2.4,4-3.3c1.4-1,2.9-1.9,4.4-2.7c3-1.6,6.1-3.1,9.3-4.4
					c-1.5,0.8-3,1.6-4.5,2.5c-1.5,0.8-3,1.7-4.4,2.6c-1.5,0.9-2.9,1.8-4.3,2.7c-1.4,1-2.8,2-3.8,3.2c-0.3,0.3-0.5,0.6-0.6,1
					c-0.1,0.3-0.2,0.8-0.2,1.1c-0.1,0.8-0.2,1.7-0.2,2.5c-0.1,1.7-0.1,3.4-0.1,5.1c0,1.7,0,3.4,0,5.1L309.7,308.8z"/>
			</g>
		</g>
		<path class="st9" d="M449.9,186c15.3,8.8,32.3,14.8,43.5,7.8c11.3-7-0.4-19.5-10.1-25.4c-7.6-4.5-22-11.8-34.2-11l-14.7,8.3
			C431.7,172.8,441.3,181,449.9,186z"/>
	</g>
	<g>
		<path class="st8" d="M474.1,214.9c0,0-67-37.7-74.8-41.6c-7.8-3.9-13.9-1.1-16,3c0,0-3.8-3.3-7.5-3.2c-4.1,0.1-12.8,3.3-13.8,9.3
			c0,0-8-1-13,5.2c-4.9,6.2-2.2,11.2-2.2,11.2s-10.6,3.4-6.3,20.8l8.5-4.7c0,0,56.4,31.9,62.3,34.7c5.9,2.8,9.5,2.6,11.7,1.1
			l9.1,6.7C429.4,228.4,474.1,214.9,474.1,214.9z"/>
		<g>
			<g>
				<path class="st10" d="M361.8,182.4c1.6,0.2,3.1,0.7,4.6,1.3c1.5,0.6,2.9,1.3,4.3,2c1.4,0.8,2.8,1.6,4.1,2.5
					c0.7,0.5,1.3,0.9,1.9,1.4c0.6,0.5,1.2,1,1.8,1.5c-1.4-0.8-2.8-1.5-4.1-2.3c-1.4-0.8-2.7-1.6-4.1-2.3c-1.4-0.8-2.8-1.5-4.2-2.2
					C364.7,183.6,363.3,182.9,361.8,182.4z"/>
			</g>
			<g>
				<path class="st10" d="M383.2,176.3c2.1,0.8,4.1,1.9,6,3.1c1.9,1.2,3.7,2.6,5.3,4.2c-2-1.1-3.9-2.2-5.8-3.4
					C386.8,179,385,177.8,383.2,176.3z"/>
			</g>
			<g>
				<path class="st10" d="M346.7,198.8c1.4-1.4,3.2-2.5,5.2-2.9c1-0.2,2.1-0.3,3.1-0.1c1,0.2,2,0.5,2.9,0.9c1.9,0.8,3.6,1.7,5.4,2.6
					c1.7,1,3.4,2.1,5,3.3l-5.3-2.6c-1.8-0.8-3.6-1.7-5.4-2.4c-0.9-0.4-1.8-0.7-2.7-0.9c-0.9-0.2-1.9-0.2-2.8,0
					C350.2,196.9,348.3,197.7,346.7,198.8z"/>
			</g>
			<g>
				<path class="st10" d="M344.8,213.1c1,0.1,2,0.4,2.8,0.8c0.9,0.4,1.7,0.9,2.4,1.6c-1-0.1-2-0.4-2.8-0.8
					C346.3,214.3,345.5,213.9,344.8,213.1z"/>
			</g>
		</g>
	</g>
	<g>
		<g>
			<path class="st11" d="M413.7,195.8c6.7-2,12.8-1.1,13.7,2.1c0.9,3.1-3.7,7.3-10.4,9.3c-6.7,2-12.8,1.1-13.7-2.1
				C402.4,202,407,197.8,413.7,195.8z"/>
			<g>
				<path class="st5" d="M431.1,140.1c0,0-1-2.1-0.4-2.4c0.6-0.3,1.4,1.3,1.4,1.3s2-2.8,3.3-1.8c1.3,1,0.7,2.7-1.9,4.7
					c0,0-3.5,6.6-4.4,8c-0.9,1.4-2.2,2.1-3.3,1.2l0-3.2C425.8,147.8,427.7,146.5,431.1,140.1z"/>
				<path class="st3" d="M424.8,151.5l0.9-4.1c0,0-6.7-8-7.1-8.2c-0.4-0.2-1.8,3.7-1.1,5.5C418.3,146.6,424.8,151.5,424.8,151.5z"/>
				<path class="st12" d="M425.7,146.7c-0.5-0.2-1.1,2.5-1.3,3.4c-0.2,0.9-0.1,2.2,0.8,2.2c0.9,0,0.5-2.2,0.7-2.9
					C426.1,148.7,426.6,147,425.7,146.7z"/>
			</g>
			<g>
				<path class="st3" d="M412.7,206.1c-2.1-1.1-4.7-2.8-4.7-2.8v2.1h-0.9c0,0,0-2.9,0-4.2c0-1.1,2.7-0.9,4.3,0.5
					C415.3,204.8,414.1,206.8,412.7,206.1z"/>
				<path class="st5" d="M407.8,201.8v-4.6h3.4l-0.3,4.3c0,0,2.8,2.5,2.4,2.9C412.9,204.8,407.8,201.8,407.8,201.8z"/>
				<path class="st13" d="M406.7,167l0.6,31.2c0,0,3,0.4,4.7-0.9l2.2-29.2L406.7,167z"/>
			</g>
			<g>
				<path class="st3" d="M422.3,200.6c-2.5-1.3-4.7-2.8-4.7-2.8v2.1h-0.9c0,0,0-3.1,0-4.2c0-1.1,2.6-0.9,4.3,0.4
					C423.7,198.2,424.8,201.8,422.3,200.6z"/>
				<path class="st5" d="M417.3,196.3v-4.6h3.4l-0.3,4.3c0,0,2.8,2.5,2.4,2.9C422.5,199.3,417.3,196.3,417.3,196.3z"/>
				<path class="st13" d="M415.3,165.9l1.6,26.7c0,0,3,0.4,4.7-0.9l1-27.1L415.3,165.9z"/>
			</g>
			<g>
				<path class="st3" d="M405.9,167.6c0,0,4.5,4,10.1,2.1c0,0,3,0.5,5.3-1.7c2.3-2.2,1.4-8.6-2.2-13.3c0,0,0.9-7.9,1.3-9.8
					c0.4-2-0.6-7.7-6.6-7.4c-6,0.4-8.1,2.6-8.2,4.3c-0.2,1.7,3.1,13,3.1,13S406,158,405.9,167.6z"/>
				<g>
					<path class="st12" d="M414.9,142.5l0.2,6.9c0.1,1.1,0.1,2.3,0.2,3.4c0,0.6,0.1,1.1,0.2,1.7c0,0.3,0.1,0.5,0.2,0.8
						c0.1,0.3,0.1,0.6,0.2,0.9c0.4,2.3,0.4,4.6,0.4,6.9c0,2.3-0.3,4.6-0.6,6.8c0.2-2.3,0.2-4.6,0.2-6.8c0-2.3-0.1-4.6-0.5-6.8
						c-0.1-0.3-0.1-0.6-0.2-0.8c-0.1-0.3-0.1-0.6-0.2-0.9c-0.1-0.6-0.1-1.2-0.1-1.7c-0.1-1.1-0.1-2.3-0.1-3.4
						C414.7,147.1,414.8,144.8,414.9,142.5z"/>
				</g>
				<path class="st0" d="M414.7,159.3c3.1-0.1,4.9-1.3,5.9-2.3c-0.4-0.8-0.9-1.6-1.5-2.3c0,0,0-0.1,0-0.2c-1.6,0.5-6.3,1.7-10.5-0.9
					l-0.2,0.4c0.1,0.5,0.2,0.8,0.2,0.8s-0.4,0.5-0.9,1.7C408.6,157.5,410.9,159.5,414.7,159.3z"/>
				<path class="st14" d="M415.9,155.8c-1.4,0.4-2.4,3.1,0.4,2.5C419.2,157.7,417.7,155.3,415.9,155.8z"/>
			</g>
			<g>
				<path class="st15" d="M412.8,124.6c0,0-2.5-2-4.7-1c-2.2,1.1-2.2,2.8-2.3,5.3c-0.2,2.5,0.1,4.9-0.9,4.7c0,0,1.3,4.6,7.9,3.7
					c6.7-0.8,7.6-2.9,7.6-2.9s-2.1-0.3-1.6-2.1c0.5-1.8,1-3.4-0.1-5.7C417.6,124.3,414.5,120.3,412.8,124.6z"/>
				<path class="st5" d="M410.7,134.5c0,0-1.9-0.2-2.4-1.2c-0.8-1.4,0.7-1.7,1.4-1.2c0,0-0.6-3.4,2.8-4.5c3.4-1.1,4.3,0.7,4.6,2.6
					c0.3,1.9,0.5,5.6-2,6.1C412.5,136.7,411.8,135.4,410.7,134.5z"/>
				<path class="st5" d="M410.7,134.5c0,0,0.1,3.1,0.4,3.7c0.3,0.6,3.7,4.3,3.7,4.3s-0.1-4.2,0-4.7c0.1-0.5-0.5-2.5-0.5-2.5
					L410.7,134.5z"/>
				<path class="st15" d="M407.3,132.4c0,0,4.5,0.7,7.2-4.2c0,0,2.3,1.7,3.3,1.5c1.1-0.2-2.2-4.1-5-3.2
					C410,127.3,407.3,132.4,407.3,132.4z"/>
				<path class="st16" d="M415.1,133.7c-0.6,0-1.4-0.8-1.8,0c-0.4,0.8,0.7,1.5,1.8,1.5C416.2,135.1,416.9,133.7,415.1,133.7z"/>
				<path class="st12" d="M414.9,142.5c0,0-1.7,3.1-1.7,2.8c-0.1-0.2-4.1-4.5-4.5-6.4c-0.3-1.9,2.1-3.1,2.1-3.1L414.9,142.5z"/>
				<path class="st12" d="M417.3,145.4l-2.5-2.9l-0.2-6.2c0,0,1.9,0.4,2.2,1.9C417.2,139.8,417.3,145.4,417.3,145.4z"/>
			</g>
			<g>
				<path class="st3" d="M406.7,153.9l2.6-3.4c0,0-1.5-11.3-2.3-10.9c-1,0.5-3.9,1.3-3.9,5C403.1,146.6,406.7,153.9,406.7,153.9z"/>
				<path class="st5" d="M417.3,146.2c0,0,0-2.3,0.7-2.3c0.7-0.1,0.7,1.7,0.7,1.7s3-1.7,3.8-0.2s-0.5,2.8-3.7,3.4c0,0-6,4.4-7.4,5.4
					c-1.4,0.9-2.9,1-3.5-0.3l1.4-2.9C409.3,150.9,411.5,150.6,417.3,146.2z"/>
				<path class="st12" d="M409.6,149.9c-0.4-0.4-2.1,1.8-2.7,2.5c-0.6,0.8-1.1,2-0.2,2.3c0.8,0.4,1.4-1.7,1.9-2.3
					C409.2,151.9,410.2,150.6,409.6,149.9z"/>
			</g>
		</g>
		<g>
			<g>
				<path class="st17" d="M469,124.1c0,0,8.3-7.2,10.8-7.8c2.5-0.7,4.1,2.6,1.3,4.8c-2.8,2.2-11.1,8.6-13.1,8.7
					C466.1,129.8,469,124.1,469,124.1z"/>
				<path class="st8" d="M466.4,129.7c0,0-3.3-0.6-2.7-3.7s3.4-8.8,2.7-9.6c-0.8-0.8-3.2-1.6-2.7-2.6c0.4-1,1.9-2.1,2.9-1.8
					c1,0.3,3.2,2.2,3.2,2.2s1.1-1.7,1.8-1.4s0,1.9-0.5,2.4c-0.5,0.5-1.3,1.7-1.9,4.2c-0.6,2.5-1,5-1,5L466.4,129.7z"/>
				<path class="st18" d="M466.7,130.2c-1.1-0.2-0.6-1.4,0-2.8c0.6-1.5,1.8-3.8,2.2-3.8c0.4,0.1,0.2,2.1,0.2,3.5
					C469,128.6,469.5,130.7,466.7,130.2z"/>
			</g>
			<g>
				<path class="st17" d="M477.4,141.9c0,0-0.2-18.2,0-20.6c0.2-2.4,0.3-4.1,2.4-5.1c2.1-1,6.6-1.2,9.9,0.7c3.3,2,3,2.8,3.4,7.8
					c0.4,5,0,23.9,0,23.9S483.4,148.7,477.4,141.9z"/>
				<line class="st19" x1="483.9" y1="119.6" x2="483.9" y2="146.6"/>
				<path class="st18" d="M483.6,114.9l0.4,4.7l-2.4,0.1l0.4-4.3C482,115.5,482.8,114.6,483.6,114.9z"/>
				<path class="st18" d="M489.6,116.9l-4.3,3.7l-1.4-1l3.2-4.8C487.1,114.8,488.6,114.8,489.6,116.9z"/>
			</g>
			<g>
				<path class="st8" d="M487.5,110.6c0,0-0.2,5.4,0,5.9c0.2,0.5-3.5,3.2-3.5,3.2l-0.7-6.7L487.5,110.6z"/>
				<path class="st8" d="M483.2,114.3c-2.3,0.1-3.9-1-4.1-5c-0.2-4,0.7-7.5,4.1-6.8c3.4,0.7,3.7,2.4,3.8,5.5
					C487.2,111.3,487,114.2,483.2,114.3z"/>
				<path class="st20" d="M489.4,103.3c-0.2-2.8-4.4-2-4.4-2s0.1-0.8,0-1.5c-0.1-0.8-2.6-1.1-4.9,0.4c-3.4,2.2-1.3,8.4-1.3,8.4
					c0.3,7.8,3.3,6.6,5.7,6.4c2.4-0.2,2.6-3.4,2.6-3.4s1.5,0.7,2.3,0.3C490.1,111.6,489.6,106.1,489.4,103.3z M482.2,112.5
					c-1.8,0.2-1.5-1.1-0.5-1.4C485,110,484.1,112.2,482.2,112.5z M484.5,109.4c-1.4,0.2-1.6-0.1-2.3,0.2c-1.9,0.8-3,0.8-2.9-0.9
					c0.2-1.8,0.2-3.9,1.9-4.2c1.7-0.3,4.1,0.1,4.2,1.4C485.6,107.2,485.8,109.2,484.5,109.4z"/>
				<path class="st8" d="M487.8,108.7c0.7,0.1,0.9,1.4,0.7,2.2c-0.3,0.9-1.3,1.6-1.8,0.5C486.1,110.3,486.5,108.4,487.8,108.7z"/>
			</g>
			<g>
				<polygon class="st21" points="445.9,176.2 444.5,175.1 444.5,153.4 445.9,153.4 				"/>
				<polygon class="st0" points="445.9,176.2 447.4,175.1 447.4,153.4 445.9,153.4 				"/>
				<polygon class="st21" points="475.9,194.4 474.5,193.3 474.5,163.9 475.9,163.9 				"/>
				<polygon class="st0" points="475.9,194.4 477.4,193.3 477.4,163.9 475.9,163.9 				"/>
				<polygon class="st21" points="492.4,186.7 491,185.6 491,156.2 492.4,156.2 				"/>
				<polygon class="st0" points="492.4,186.7 493.9,185.6 493.9,156.2 492.4,156.2 				"/>
				<path class="st0" d="M457.1,164.8c-10.7-4.3-23.3-13-12.6-21.8c10.7-8.8,30.9-2.2,40.3,1.8c9.4,4,21.5,13.8,12.3,21.5
					C487.9,174,471.9,170.7,457.1,164.8z"/>
				<path class="st21" d="M457.1,162.9c-10.7-4.3-23.3-13-12.6-21.8c10.7-8.8,30.9-2.2,40.3,1.8c9.4,4,21.5,13.8,12.3,21.5
					S471.9,168.9,457.1,162.9z"/>
			</g>
			<polygon class="st22" points="460.8,152.7 472.5,145.5 483.2,151.1 472,158.6 			"/>
			<polygon class="st16" points="460.8,151.8 472.5,144.6 483.2,150.1 472,157.7 			"/>
			<g>
				<path class="st8" d="M483.1,134.3l-7.2,10.3c0,0-3.9,0.4-3.8,1c0.1,0.6,2.6,0.3,2.6,0.3s-1.7,3.2-0.6,4.4s2.9-0.3,4.1-3.7
					c0,0,9.9-11.3,10-13.1C488.2,131.1,485.6,130.9,483.1,134.3z"/>
				<path class="st17" d="M482.9,134.6c0,0,3.3-5.2,4.6-8.9c1.3-3.7,1.4-6.5,2.4-7.3c1-0.8,4.3,0.2,3.3,5.7
					c-1,5.5-5.9,11.9-5.9,11.9L482.9,134.6z"/>
				<g>
					<path class="st23" d="M493.3,124.1c-0.4,2.2-1.3,4.3-2.3,6.3c-1,2-2.2,3.9-3.5,5.7l0,0.1l-0.1,0l-4.4-1.4l-0.1,0l0.1-0.1
						c0.9-1.4,1.7-2.9,2.5-4.3c0.8-1.5,1.6-3,2.2-4.5c-0.6,1.6-1.3,3.1-2.1,4.6c-0.8,1.5-1.6,2.9-2.5,4.4l-0.1-0.1l4.4,1.4l-0.1,0
						c1.3-1.8,2.5-3.7,3.6-5.6C491.9,128.3,492.8,126.3,493.3,124.1z"/>
				</g>
				<path class="st18" d="M482.3,134.3c0-0.5,2.4-0.5,4-0.1c1.6,0.3,2.7,0.5,1.7,1.8c-0.9,1.3-1.9,0.6-3.1-0.1
					C483.7,135.2,482.2,134.9,482.3,134.3z"/>
			</g>
			<g>
				<polygon class="st4" points="445.9,112 445.9,115.3 449.8,113.6 449.8,110.3 				"/>
				<polygon class="st3" points="436.6,117.6 441.9,115 441.9,119.9 436.6,122.7 				"/>
				<polygon class="st23" points="441.2,124 441.2,130.6 450.6,125.8 450.6,119.5 				"/>
				<polygon class="st24" points="432.8,129.7 437.1,127.5 437.1,131.5 432.8,133.6 				"/>
			</g>
			<g>
				<polygon class="st25" points="441.8,135.1 454.7,128.5 458.6,138.3 445.9,145.8 				"/>
				<polygon class="st13" points="443.2,135.4 454,129.9 457.2,138.1 446.6,144.4 				"/>
				<polygon class="st7" points="445.9,145.8 454.9,150.9 467.4,143.3 458.6,138.3 				"/>
				<polygon class="st26" points="455.3,149.4 465,143.4 458.4,139.7 448.5,145.5 				"/>
				<polygon class="st26" points="445.9,145.8 445.9,146.3 454.9,151.6 454.9,150.9 				"/>
				<polygon class="st26" points="467.4,143.3 454.9,150.9 454.9,151.6 467.4,143.8 				"/>
				<polygon class="st26" points="445.9,145.8 445.6,146 441.2,134.9 441.8,135.1 				"/>
				<polygon class="st26" points="454.7,128.5 441.8,135.1 441.2,134.9 454,128.5 				"/>
			</g>
		</g>
	</g>
	<g>
		
			<ellipse transform="matrix(0.9583 -0.2858 0.2858 0.9583 -57.54 106.8862)" class="st27" cx="337.4" cy="250.6" rx="12.6" ry="6.6"/>
		<g>
			
				<ellipse transform="matrix(0.9583 -0.2858 0.2858 0.9583 -59.2364 96.9373)" class="st27" cx="302.5" cy="251.4" rx="12.6" ry="5.9"/>
			<g>
				<path class="st15" d="M304.1,246.6c0,0-0.1,2.3-0.1,2.5c0,0.2,3.4,1.9,4.3,2.3c0.9,0.4,3.1-0.7,2.7-1.3c-0.4-0.6-2.6-3.2-3-4.1
					C307.6,245.1,304.1,246.6,304.1,246.6z"/>
				<path class="st15" d="M295.7,252c0,0,0,1.9,0,2.1c0,0.2,3.6,2,4.5,2.4c0.9,0.4,3.3-0.7,2.8-1.4c-0.4-0.7-2.8-3.4-3.2-4.3
					C299.5,249.9,295.7,252,295.7,252z"/>
				<path class="st28" d="M295.7,252c0,0,2.2,1.1,4.2-1.3l2.8-28.1l0.9-0.5l0.4,24.8c0,0,2.2,0.6,4-0.6c0,0,2-20.5,1.5-31.1
					l-13.9,2.8C295.7,218.1,295.3,246.6,295.7,252z"/>
			</g>
			<g>
				<path class="st2" d="M308.7,198.8c0,0,4.6,12.5,5,13.8c0.4,1.3-3.8,2.6-4.1,0.5c-0.3-2.2-4.1-12.8-4.1-12.8L308.7,198.8z"/>
				<path class="st3" d="M302.9,191c1.5-0.3,5.1,2.4,6.8,8.8c0,0-2.3,1.5-4.5,1.1L302.9,191z"/>
			</g>
			<path class="st3" d="M297.3,190.6c-2,0.2-5.5,2.2-6.3,3.1c-1.5,1.6,2.8,15.6,3.4,19.5c0.5,3.9-0.3,4.8,3.3,5.5
				c3.6,0.7,12,0,12-3.4c0-3.4-1.9-14.4-2.9-19.2C305.5,190.2,302.1,190,297.3,190.6z"/>
			<g>
				<polygon class="st26" points="303.7,214.6 311.5,210.2 310.6,216.9 				"/>
				<polygon class="st25" points="310.3,208 319.8,202.5 319.8,211.1 310.6,216.9 				"/>
				<path class="st2" d="M316.4,210.2c-1.4,0.6-1.4,1.4-1.3,2.6c0.1,1.2-0.5,2.4,0.7,2.1c1.2-0.2,2.3-1.4,2.3-2.7
					C317.9,211,318.3,209.4,316.4,210.2z"/>
			</g>
			<g>
				<path class="st2" d="M294.3,210.1l5-8.9c0,0-0.1-3.3,0.6-3.4c0.7-0.1,1.4,2.5,1.4,2.5s4.3-1.4,4.7,0.7c0.4,2.1-0.2,2.9-4.1,2.9
					c0,0-4.1,9.5-6.7,10.4c-2.5,0.9-5.4-0.3-5-9.4l3.3,0.5L294.3,210.1z"/>
				<path class="st3" d="M289.7,204.7c0.2,0.2,1.9,0.9,4.2,0.6c0,0,0.9-9.3-0.3-10.9c-1.2-1.5-3.3-1.5-3.9,1.2
					C289.2,197.9,289.7,204.7,289.7,204.7z"/>
			</g>
			<g>
				<path class="st2" d="M295.7,186.2c0,0-2.4,0.7-2.3-1.5c0.1-2.2,2.4-0.7,2.4-0.7s-0.3-4.1,0.3-4.3c0.7-0.2,4.7-0.1,5.5,1.7
					c0.8,1.8,1.6,6.8,0.9,7.4c-0.8,0.6-2.4,0.9-3.4,0.2l0.1,1.2c0,0,3,2.4,1.3,3.2c-1.7,0.8-4.2-0.8-5.1-2.4L295.7,186.2z"/>
				<path class="st6" d="M295.8,184.1c0,0-0.2-2.5,0-3.7c-1-0.3-3.1-0.9-3.7-1.9c0,0,0.4,3.1,1.5,5.4
					C294.2,183,295.8,184.1,295.8,184.1z"/>
				<path class="st20" d="M298.3,176c0,0,1.7-0.4,2.1-1.9c0,0-2.7,0.4-5,0.9c-2.3,0.5-5.3,2.8-2,5.1c3.4,2.3,11.1,3.2,11.5-0.5
					c0,0-2.5-0.1-3.7-1.1c0,0,2.9,0.2,4.2-1.2C305.5,177.3,302.9,175.4,298.3,176z"/>
				<g>
					<path class="st29" d="M300.5,184.6c0,0.6-0.6,1-1.2,1c-0.7,0-1.2-0.4-1.2-1c0-0.6,0.6-1,1.2-1C300,183.6,300.5,184,300.5,184.6
						z"/>
					<path class="st29" d="M303.7,184.3c0,0.6-0.6,1-1.2,1c-0.7,0-1.2-0.4-1.2-1s0.6-1,1.2-1C303.1,183.3,303.7,183.8,303.7,184.3z"
						/>
					<line class="st29" x1="295.7" y1="184.1" x2="298.1" y2="184.6"/>
					<line class="st29" x1="300.5" y1="184.6" x2="301.2" y2="184.6"/>
				</g>
				<path class="st16" d="M300.9,188.3c-1.4,0-2.2-1-1.6-1.5c0.6-0.6,1.7,0.6,2.3,0.6S302.3,188.3,300.9,188.3z"/>
			</g>
		</g>
		<g>
			<g>
				<path class="st13" d="M341.5,249.1c0,0-0.4,4.2,0.3,5.3c0.7,1,2.5-1.1,2.7-5.3c0,0,0.5,0.2,0.8,0.7l0.3-0.7c0,0-0.8-2.5-1.9-3.3
					C342.6,244.9,341.5,249.1,341.5,249.1z"/>
				<path class="st5" d="M336.2,218.2c0,0-0.1,10,1,16.4c1.1,6.4,4.3,11.8,4.3,12.8c0,1-0.2,4.1,0.5,3.9c0.7-0.2,1.8-4.2,1.7-4.9
					c-0.1-0.7-2.4-12.6-2-17.7s0.7-8.7,0.7-10.9C342.5,215.7,336.8,213.9,336.2,218.2z"/>
				<path class="st30" d="M341.8,228.8c0.4-5.1,0.7-8.7,0.7-10.9c0-2.2-5.7-4-6.3,0.3c0,0-0.1,10,1,16.4c1,5.9,3.8,10.9,4.2,12.5
					c0.6-0.3,1.5-0.9,2.1-1.8C343.1,242.2,341.5,233.1,341.8,228.8z"/>
			</g>
			<g>
				<path class="st13" d="M328.2,251.4c1,0.5,6.5-2.8,6.5-2.8v2.1l0.9-0.6c0,0,0.8-3.6-0.2-4.4c-1-0.8-2.4-0.1-4.1,1.2
					C329.5,248.2,327.3,250.9,328.2,251.4z"/>
				<path class="st5" d="M335.1,246.8c-0.2,1.4-5.1,3.3-5.5,2.9c-0.4-0.4,2.4-2.9,2.4-2.9s-2.3-23.2-2-27.9c0.3-4.7,5.9-2.3,5.5,1.6
					C335,224.5,335.2,246,335.1,246.8z"/>
				<path class="st30" d="M330.3,217.4c-0.1,0.2-0.2,0.5-0.3,0.8c0,0.2-0.1,0.5-0.1,0.7c-0.2,3.9,1.3,20.5,1.8,26.1
					c0.7,0.1,1.8-0.1,3.3-0.9c0-6.1,0-20.3,0.3-23.5C335.8,217.1,331.6,214.9,330.3,217.4z"/>
			</g>
			<path class="st24" d="M332.5,183.2c0,0-4-4.7-2.5-6.6c1.4-1.9,5-4.7,7-3.3c0,0,3.4-1.5,6.3,1.4c2.9,2.8,1,20.3,1,20.3h-12.1
				L332.5,183.2z"/>
			<g>
				<path class="st22" d="M344.6,218.4c0,0-4.5,4-10.1,2.1c0,0-4.5,0.4-6.9-1.6c-0.9-0.7,0.3-8.7,3.8-13.4c0,0-0.9-7.9-1.3-9.8
					s0.6-7.7,6.6-7.4c6,0.4,8.1,2.6,8.2,4.3c0.2,1.7-3.1,13-3.1,13S344.5,208.8,344.6,218.4z"/>
				<g>
					<path class="st25" d="M335.7,193.3c-0.2,2.3-0.3,4.5-0.4,6.8c-0.1,2.3-0.2,4.5-0.3,6.8c-0.1,2.3-0.2,4.5-0.2,6.8l-0.2,6.8
						c-0.1-2.3-0.2-4.5-0.2-6.8c0-2.3,0.1-4.5,0.1-6.8c0.1-2.3,0.2-4.5,0.4-6.8C335.1,197.8,335.3,195.6,335.7,193.3z"/>
				</g>
			</g>
			<g>
				<path class="st5" d="M339.8,185.3c0,0-0.1,3.1-0.4,3.7c-0.3,0.6-3.7,4.3-3.7,4.3s0.1-4.2,0-4.7c-0.1-0.5,0.5-2.5,0.5-2.5
					L339.8,185.3z"/>
				<path class="st25" d="M335.7,193.3c0,0,1.7,3.1,1.7,2.8c0.1-0.2,4.1-4.5,4.5-6.4c0.3-1.9-2.1-3.1-2.1-3.1L335.7,193.3z"/>
				<path class="st25" d="M333.2,196.2l2.5-2.9l0.2-6.2c0,0-1.9,0.4-2.2,1.9C333.3,190.6,333.2,196.2,333.2,196.2z"/>
				<path class="st5" d="M339.8,185.3c0,0,1.9-0.2,2.4-1.2c0.8-1.4-0.7-1.7-1.4-1.2c0,0,0.6-3.4-2.8-4.5s-4.3,0.7-4.6,2.6
					c-0.3,1.9-0.5,5.6,2,6.1C338.1,187.5,338.7,186.2,339.8,185.3z"/>
				<path class="st24" d="M343.2,183.2c0,0-4.5,0.7-7.2-4.2c0,0-2.3,1.7-3.3,1.5c-1.1-0.2,2.2-4.1,5-3.2
					C340.6,178.1,343.2,183.2,343.2,183.2z"/>
				<path class="st16" d="M335.5,184.5c0.6,0,1.4-0.8,1.8,0c0.4,0.8-0.7,1.5-1.8,1.5C334.3,185.9,333.6,184.5,335.5,184.5z"/>
			</g>
			<g>
				<path class="st5" d="M319.4,190.9c0,0,1-2.1,0.4-2.4c-0.6-0.3-1.4,1.3-1.4,1.3s-2-2.8-3.3-1.8c-1.3,1-0.7,2.7,1.9,4.7
					c0,0,3.5,6.6,4.4,8c0.9,1.4,2.2,2.1,3.3,1.2l0-3.2C324.7,198.6,322.8,197.3,319.4,190.9z"/>
				<path class="st22" d="M325.7,202.3l-0.9-4.1c0,0,6.7-8,7.1-8.2c0.4-0.2,1.8,3.7,1.1,5.5C332.2,197.4,325.7,202.3,325.7,202.3z"
					/>
				<path class="st25" d="M324.8,197.5c0.5-0.2,1.1,2.5,1.3,3.4s0.1,2.2-0.8,2.2c-0.9,0-0.5-2.2-0.7-2.9
					C324.4,199.5,324,197.8,324.8,197.5z"/>
			</g>
			<g>
				<path class="st22" d="M350.2,202.6l-4.2-0.7c0,0-4.9-5.8-4.1-10.2c0.6-3.4,2.5-1.4,4.6,1.7C347.6,195,350.2,202.6,350.2,202.6z"
					/>
				<path class="st5" d="M346.7,202.3c0,0-5.6,7.5-6.1,8.7c-0.5,1.2-0.8,5.1,0.7,4.6c1.5-0.6,1.1-3.6,1.1-3.6s7.6-7.8,7.7-8.8
					C350.3,202.2,346.7,202.3,346.7,202.3z"/>
				<path class="st25" d="M345.4,201.7c0-0.6,2.7-0.2,3.7,0c0.9,0.2,2.1,0.7,1.8,1.5c-0.3,0.8-2.2-0.3-3-0.4
					C347,202.8,345.3,202.6,345.4,201.7z"/>
			</g>
		</g>
		<g>
			<g class="st31">
				<defs>
					<polygon id="SVGID_1_" class="st31" points="325,173.4 325,154 343.6,143.3 343.7,162.7 					"/>
				</defs>
				<clipPath id="SVGID_2_">
					<use xlink:href="#SVGID_1_"  style="overflow:visible;"/>
				</clipPath>
				<g class="st32">
					<path class="st33" d="M332.5,164.6l-1.6,0.9l0,1.4l0.9-2L332.5,164.6 M341,145.3l0.3,0.2C341.2,145.4,341.1,145.4,341,145.3
						 M339.9,145.4l-13.3,7.7c-0.9,0.5-1.6,1.8-1.6,2.8l0,8.1c0,0.5,0.2,0.8,0.4,1l-0.1-0.1l1.7-0.5l0-6.7c0-1,0.7-2.3,1.6-2.8
						l11-6.4l-0.5,0.2l1.8-3.5C340.7,145.1,340.3,145.2,339.9,145.4"/>
					<path class="st33" d="M327.6,166.9L327.6,166.9L327.6,166.9C327.6,166.9,327.6,166.9,327.6,166.9 M325.3,164.9L325.3,164.9
						l2,1.7c-0.1-0.2-0.2-0.5-0.2-0.8l0-1.4L325.3,164.9"/>
					<path class="st33" d="M341,145.3L341,145.3l-1.8,3.5l0.5-0.2l2.3-1.3c0.5-0.3,0.9-0.3,1.2-0.1l-1.9-1.7L341,145.3L341,145.3"/>
					<polyline class="st33" points="332.9,164.4 332.5,164.6 331.8,165 330.9,167 333,168.8 332.9,164.4 					"/>
					<path class="st34" d="M334.7,158.9l2.7-5.7c0.1-0.2,0.2-0.3,0.3-0.4c0.1-0.1,0.2-0.1,0.3-0.1l0.3,0.1c0.2,0.1,0.2,0.4,0,0.7
						l-3.1,6.5c-0.1,0.2-0.2,0.3-0.3,0.4c0,0-0.1,0-0.1,0c0,0-0.1,0.1-0.2,0.1l-2-0.3c-0.2,0-0.3-0.3-0.1-0.6l0.2-0.4
						c0.1-0.2,0.2-0.4,0.4-0.5c0.1,0,0.1-0.1,0.2,0L334.7,158.9 M342,147.3l-2.3,1.3l-11,6.4c-0.9,0.5-1.6,1.8-1.6,2.8l0,6.7l0,1.4
						c0,0.3,0.1,0.6,0.2,0.8c0.1,0.1,0.2,0.2,0.3,0.2c0,0,0,0,0,0c0.3,0.2,0.7,0.1,1.1-0.1l2.1-1.2l1.6-0.9l0.4-0.2l0.1,4.4l4.8-7.3
						l4.2-2.4c0.9-0.5,1.6-1.8,1.6-2.8l0-8.1c0-0.5-0.2-0.8-0.4-1C342.9,147,342.5,147,342,147.3"/>
					<path class="st16" d="M337.7,152.8c-0.1,0.1-0.2,0.2-0.3,0.4l-2.7,5.7l-1.5-0.3c-0.1,0-0.1,0-0.2,0c-0.1,0.1-0.3,0.3-0.4,0.5
						l-0.2,0.4c-0.1,0.3-0.1,0.6,0.1,0.6l2,0.3c0.1,0,0.1,0,0.2-0.1c0,0,0.1,0,0.1,0c0.1-0.1,0.2-0.2,0.3-0.4l3.1-6.5
						c0.2-0.3,0.1-0.6,0-0.7l-0.3-0.1C337.9,152.8,337.8,152.8,337.7,152.8"/>
				</g>
			</g>
		</g>
		<g>
			<g class="st31">
				<defs>
					<polygon id="SVGID_3_" class="st31" points="283.7,176.7 283.6,157.3 302.2,146.6 302.3,166 					"/>
				</defs>
				<clipPath id="SVGID_4_">
					<use xlink:href="#SVGID_3_"  style="overflow:visible;"/>
				</clipPath>
				<g class="st35">
					<path class="st36" d="M291.1,167.9l-1.6,0.9l0,1.4l0.9-2L291.1,167.9 M299.7,148.6l0.3,0.2
						C299.9,148.7,299.8,148.6,299.7,148.6 M298.5,148.7l-13.3,7.7c-0.9,0.5-1.6,1.8-1.6,2.8l0,8.1c0,0.4,0.1,0.7,0.3,0.9l1.7-0.5
						l0-6.7c0-1,0.7-2.3,1.6-2.8l11-6.4l-0.5,0.2l1.8-3.5C299.4,148.4,299,148.4,298.5,148.7"/>
					<path class="st36" d="M286.2,170.2L286.2,170.2L286.2,170.2C286.2,170.2,286.2,170.2,286.2,170.2 M284,168.2l2,1.7
						c-0.1-0.2-0.2-0.5-0.2-0.8l0-1.4L284,168.2L284,168.2"/>
					<path class="st36" d="M299.7,148.6L299.7,148.6l-1.8,3.5l0.5-0.2l2.3-1.3c0.5-0.3,0.9-0.3,1.2-0.1l-1.9-1.7L299.7,148.6
						L299.7,148.6"/>
					<polyline class="st36" points="291.5,167.7 291.1,167.9 290.4,168.3 289.5,170.3 291.6,172.1 291.5,167.7 					"/>
					<path class="st23" d="M294,164.4c-1.9,1.1-3.4,0.2-3.4-1.9c0-2.1,1.5-4.8,3.4-5.8c1.9-1.1,3.4-0.2,3.4,1.9
						C297.4,160.7,295.8,163.4,294,164.4 M300.6,150.6l-2.3,1.3l-11,6.4c-0.9,0.5-1.6,1.8-1.6,2.8l0,6.7l0,1.4
						c0,0.3,0.1,0.6,0.2,0.8c0.1,0.1,0.2,0.2,0.3,0.2c0,0,0,0,0,0c0.3,0.2,0.7,0.1,1.1-0.1l2.1-1.2l1.6-0.9l0.4-0.2l0.1,4.4l4.8-7.3
						l4.2-2.4c0.9-0.5,1.6-1.8,1.6-2.8l0-8.1c0-0.5-0.2-0.8-0.4-1C301.5,150.3,301.1,150.3,300.6,150.6"/>
					<path class="st0" d="M294.1,161.7c0.5-0.3,1-0.8,1.3-1.3c0,0,0.1-0.1,0.1-0.1c0,0,0.1,0,0.1,0c0.1,0,0.1,0.2,0,0.3
						c-0.4,0.7-1,1.2-1.5,1.6c-0.6,0.3-1.1,0.4-1.5,0.2c-0.1,0-0.1-0.2,0-0.3c0-0.1,0.1-0.1,0.1-0.1c0,0,0.1,0,0.1,0
						C293.2,162,293.7,162,294.1,161.7 M292.2,160.9L292.2,160.9c-0.1-0.3,0.1-0.6,0.4-0.8c0.2-0.1,0.4,0,0.4,0.3l-0.1,0.1
						c-0.1,0-0.2,0-0.4,0.1C292.4,160.7,292.3,160.8,292.2,160.9 M295.4,159.1L295.4,159.1c-0.1-0.3,0.1-0.6,0.4-0.8
						c0.2-0.1,0.4,0,0.4,0.3l-0.1,0.1c-0.1,0-0.2,0-0.4,0.1C295.6,158.8,295.5,159,295.4,159.1 M294,156.7c-1.9,1.1-3.4,3.7-3.4,5.8
						c0,2.1,1.5,3,3.4,1.9c1.9-1.1,3.4-3.7,3.4-5.8C297.3,156.5,295.8,155.6,294,156.7"/>
					<path class="st13" d="M292.5,160.2c-0.2,0.1-0.4,0.5-0.4,0.8l0.1,0c0.1-0.1,0.2-0.3,0.4-0.3c0.1-0.1,0.3-0.1,0.4-0.1l0.1-0.1
						C293,160.1,292.8,160,292.5,160.2"/>
					<path class="st13" d="M295.7,158.3c-0.2,0.1-0.4,0.5-0.4,0.8l0.1,0c0.1-0.1,0.2-0.3,0.4-0.3c0.1-0.1,0.3-0.1,0.4-0.1l0.1-0.1
						C296.2,158.3,296,158.2,295.7,158.3"/>
					<path class="st13" d="M295.5,160.2c0,0-0.1,0.1-0.1,0.1c-0.4,0.6-0.8,1.1-1.3,1.3c-0.5,0.3-0.9,0.3-1.3,0.2c0,0-0.1,0-0.1,0
						c0,0-0.1,0.1-0.1,0.1c-0.1,0.1-0.1,0.2,0,0.3c0.4,0.2,0.9,0.1,1.5-0.2c0.6-0.3,1.1-0.9,1.5-1.6c0.1-0.1,0.1-0.2,0-0.3
						C295.6,160.2,295.6,160.2,295.5,160.2"/>
				</g>
			</g>
		</g>
	</g>
	<g>
		<path class="st37" d="M284.5,380c7.8-2.3,15-1.2,16.1,2.4c1.1,3.7-4.3,8.5-12.2,10.9c-7.8,2.3-15,1.2-16.1-2.4
			C271.2,387.2,276.6,382.3,284.5,380z"/>
		<g>
			
				<ellipse transform="matrix(0.4839 -0.8751 0.8751 0.4839 -121.2109 505.7794)" class="st37" cx="368.2" cy="355.7" rx="9.1" ry="29.2"/>
			<polygon class="st30" points="346.6,346.8 355.5,341.3 357.6,342.5 348.4,348.1 			"/>
			<polygon class="st30" points="346.6,346.8 346.6,349 348.4,350.2 348.4,348.1 			"/>
			<polygon class="st30" points="378,366.2 387,360.7 389.1,361.9 379.9,367.5 			"/>
			<polygon class="st30" points="378,366.2 378,368.4 379.8,369.6 379.8,367.5 			"/>
			<polygon class="st38" points="389.1,361.9 379.8,367.5 379.8,369.6 389.1,363.9 			"/>
			<polygon class="st38" points="354.7,343.7 352.1,345.2 352.1,332.8 354.7,331.3 			"/>
			<polygon class="st30" points="350.8,344.4 352.1,345.2 352.1,332.8 350.8,332.1 			"/>
			<polygon class="st38" points="357.6,342.5 348.4,348.1 348.4,350.2 357.6,344.5 			"/>
			<polygon class="st30" points="382.3,363.8 383.6,364.6 383.6,300.2 382.3,299.4 			"/>
			<polygon class="st38" points="386.2,363.1 383.6,364.6 383.6,300.2 386.2,298.7 			"/>
			<polygon class="st39" points="340.9,329.4 350.8,270.3 390.2,291.8 378.5,349.2 			"/>
			<polygon class="st16" points="344.4,326.7 352.9,275.8 385.2,293.9 375.1,343.4 			"/>
			<g>
				<polyline class="st40" points="361.2,285.6 354.4,281.4 354.2,282.2 361,286.4 361.2,285.6 				"/>
				<polyline class="st40" points="381.6,298.2 374.8,294 374.7,294.8 381.5,299 381.6,298.2 				"/>
				<polyline class="st40" points="363.3,286.9 361.6,285.8 361.5,286.7 363.2,287.7 363.3,286.9 				"/>
				<polyline class="st40" points="367.2,289.3 363.7,287.2 363.6,288 367,290.1 367.2,289.3 				"/>
				<polyline class="st40" points="374.4,293.7 367.6,289.5 367.5,290.4 374.2,294.5 374.4,293.7 				"/>
				<polyline class="st40" points="356.5,284.6 354.1,283.1 354,283.9 356.4,285.4 356.5,284.6 				"/>
				<polyline class="st40" points="372.6,294.5 365.8,290.3 365.7,291.1 372.5,295.3 372.6,294.5 				"/>
				<polyline class="st40" points="379.9,298.9 373.1,294.8 373,295.6 379.7,299.7 379.9,298.9 				"/>
				<polyline class="st40" points="357.7,285.3 357,284.8 356.8,285.6 357.6,286.1 357.7,285.3 				"/>
				<polyline class="st40" points="361.5,287.6 358.1,285.5 358,286.3 361.4,288.4 361.5,287.6 				"/>
				<polyline class="st40" points="365.4,290 361.9,287.9 361.8,288.7 365.2,290.8 365.4,290 				"/>
				<polyline class="st40" points="360.7,288.7 353.9,284.6 353.8,285.4 360.5,289.6 360.7,288.7 				"/>
				<polyline class="st40" points="362.8,290.1 361.1,289 361,289.8 362.7,290.9 362.8,290.1 				"/>
				<polyline class="st40" points="366.7,292.4 363.3,290.3 363.1,291.1 366.5,293.3 366.7,292.4 				"/>
				<polyline class="st40" points="354.9,287 353.6,286.2 353.5,287.1 354.7,287.8 354.9,287 				"/>
				<polyline class="st40" points="371.3,297.1 364.5,292.9 364.4,293.8 371.2,297.9 371.3,297.1 				"/>
				<polyline class="st40" points="379,301.9 371.7,297.4 371.6,298.2 378.9,302.7 379,301.9 				"/>
				<polyline class="st40" points="356.3,287.9 355.3,287.3 355.2,288.1 356.2,288.7 356.3,287.9 				"/>
				<polyline class="st40" points="360.2,290.3 356.8,288.2 356.6,289 360.1,291.1 360.2,290.3 				"/>
				<polyline class="st40" points="364,292.6 360.6,290.5 360.5,291.4 363.9,293.5 364,292.6 				"/>
				<polyline class="st40" points="360.1,292.3 353.3,288.1 353.2,288.9 360,293.1 360.1,292.3 				"/>
				<polyline class="st40" points="375.5,301.8 368.8,297.6 368.6,298.4 375.4,302.6 375.5,301.8 				"/>
				<polyline class="st40" points="362.3,293.6 360.5,292.6 360.4,293.4 362.2,294.5 362.3,293.6 				"/>
				<polyline class="st40" points="366.1,296 362.7,293.9 362.6,294.7 366,296.8 366.1,296 				"/>
				<polyline class="st40" points="368.3,297.3 366.5,296.3 366.4,297.1 368.2,298.1 368.3,297.3 				"/>
				<polyline class="st40" points="355.5,291.3 353.1,289.8 353,290.6 355.4,292.1 355.5,291.3 				"/>
				<polyline class="st40" points="367.5,298.7 365.8,297.6 365.7,298.5 367.4,299.5 367.5,298.7 				"/>
				<polyline class="st40" points="374.8,303.2 368,299 367.9,299.8 374.7,304 374.8,303.2 				"/>
				<polyline class="st40" points="357.6,292.6 355.9,291.5 355.8,292.4 357.5,293.4 357.6,292.6 				"/>
				<polyline class="st40" points="361.5,295 358.1,292.9 357.9,293.7 361.4,295.8 361.5,295 				"/>
				<polyline class="st40" points="365.3,297.3 361.9,295.2 361.8,296.1 365.2,298.2 365.3,297.3 				"/>
				<polyline class="st40" points="358,294.4 352.8,291.3 352.7,292.1 357.8,295.3 358,294.4 				"/>
				<polyline class="st40" points="360.1,295.8 358.4,294.7 358.2,295.5 360,296.6 360.1,295.8 				"/>
				<polyline class="st40" points="364,298.1 360.5,296 360.4,296.8 363.8,298.9 364,298.1 				"/>
				<polyline class="st40" points="354,293.8 352.6,293 352.5,293.8 353.9,294.7 354,293.8 				"/>
				<polyline class="st40" points="364.2,300.1 362.5,299 362.3,299.9 364.1,300.9 364.2,300.1 				"/>
				<polyline class="st40" points="368.1,302.5 364.7,300.4 364.5,301.2 367.9,303.3 368.1,302.5 				"/>
				<polyline class="st40" points="356,295.1 354.4,294.1 354.3,294.9 355.9,295.9 356,295.1 				"/>
				<polyline class="st40" points="359.8,297.4 356.4,295.3 356.3,296.1 359.7,298.2 359.8,297.4 				"/>
				<polyline class="st40" points="362,298.7 360.2,297.7 360.1,298.5 361.9,299.6 362,298.7 				"/>
				<polyline class="st40" points="359.1,299 352.3,294.9 352.2,295.7 359,299.9 359.1,299 				"/>
				<polyline class="st40" points="374.5,308.5 367.7,304.3 367.6,305.2 374.4,309.3 374.5,308.5 				"/>
				<polyline class="st40" points="361.2,300.4 359.5,299.3 359.4,300.1 361.1,301.2 361.2,300.4 				"/>
				<polyline class="st40" points="365.1,302.7 361.7,300.6 361.5,301.4 365,303.5 365.1,302.7 				"/>
				<polyline class="st40" points="367.2,304.1 365.5,303 365.4,303.8 367.1,304.9 367.2,304.1 				"/>
				<polyline class="st40" points="354.8,298.2 352,296.5 351.9,297.4 354.7,299 354.8,298.2 				"/>
				<polyline class="st40" points="368.5,306.7 366.8,305.6 366.7,306.4 368.4,307.5 368.5,306.7 				"/>
				<polyline class="st40" points="375.8,311.1 369,307 368.9,307.8 375.6,312 375.8,311.1 				"/>
				<polyline class="st40" points="358.6,300.6 355.2,298.5 355.1,299.3 358.5,301.4 358.6,300.6 				"/>
				<polyline class="st40" points="362.5,303 359,300.8 358.9,301.7 362.3,303.8 362.5,303 				"/>
				<polyline class="st40" points="366.3,305.3 362.9,303.2 362.8,304 366.2,306.1 366.3,305.3 				"/>
				<polyline class="st40" points="355.2,300.1 351.8,298 351.7,298.8 355.1,300.9 355.2,300.1 				"/>
				<polyline class="st40" points="363.4,305.2 360,303.1 359.9,303.9 363.3,306 363.4,305.2 				"/>
				<polyline class="st40" points="357.4,301.4 355.7,300.4 355.5,301.2 357.3,302.3 357.4,301.4 				"/>
				<polyline class="st40" points="359.5,302.8 357.8,301.7 357.7,302.5 359.4,303.6 359.5,302.8 				"/>
				<polyline class="st40" points="368.2,308.1 363.9,305.4 363.7,306.3 368,308.9 368.2,308.1 				"/>
				<polyline class="st40" points="358.3,303.9 351.5,299.7 351.4,300.5 358.2,304.7 358.3,303.9 				"/>
				<polyline class="st40" points="370.4,311.3 368.6,310.2 368.5,311 370.3,312.1 370.4,311.3 				"/>
				<polyline class="st40" points="374.3,313.7 370.9,311.6 370.7,312.4 374.1,314.5 374.3,313.7 				"/>
				<polyline class="st40" points="362.2,306.2 358.8,304.1 358.6,305 362.1,307.1 362.2,306.2 				"/>
				<polyline class="st40" points="366,308.6 362.6,306.5 362.5,307.3 365.9,309.4 366,308.6 				"/>
				<polyline class="st40" points="368.2,309.9 366.4,308.9 366.3,309.7 368,310.7 368.2,309.9 				"/>
				<polyline class="st40" points="358.1,305.7 351.3,301.5 351.1,302.4 357.9,306.5 358.1,305.7 				"/>
				<polyline class="st40" points="373.5,315.2 366.7,311 366.6,311.8 373.3,316 373.5,315.2 				"/>
				<polyline class="st40" points="360.2,307 358.5,306 358.3,306.8 360.1,307.9 360.2,307 				"/>
				<polyline class="st40" points="364,309.4 360.6,307.3 360.5,308.1 363.9,310.2 364,309.4 				"/>
				<polyline class="st40" points="366.2,310.7 364.5,309.7 364.3,310.5 366.1,311.6 366.2,310.7 				"/>
				<polyline class="st40" points="354.9,305.6 351,303.2 350.9,304 354.8,306.4 354.9,305.6 				"/>
				<polyline class="st40" points="367,313 365.2,312 365.1,312.8 366.9,313.9 367,313 				"/>
				<polyline class="st40" points="374.2,317.5 367.4,313.3 367.3,314.2 374.1,318.3 374.2,317.5 				"/>
				<polyline class="st40" points="357.1,307 355.4,305.9 355.2,306.7 357,307.8 357.1,307 				"/>
				<polyline class="st40" points="360.9,309.3 357.5,307.2 357.4,308 360.8,310.1 360.9,309.3 				"/>
				<polyline class="st40" points="364.8,311.7 361.3,309.6 361.2,310.4 364.6,312.5 364.8,311.7 				"/>
				<polyline class="st40" points="354.2,306.8 350.8,304.7 350.6,305.5 354.1,307.6 354.2,306.8 				"/>
				<polyline class="st40" points="365.8,313.9 364,312.9 363.9,313.7 365.6,314.7 365.8,313.9 				"/>
				<polyline class="st40" points="359.7,310.2 354.6,307.1 354.5,307.9 359.6,311 359.7,310.2 				"/>
				<polyline class="st40" points="363.6,312.6 360.1,310.5 360,311.3 363.4,313.4 363.6,312.6 				"/>
				<polyline class="st40" points="375.6,320 366.2,314.2 366.1,315 375.4,320.8 375.6,320 				"/>
				<polyline class="st40" points="353.3,308.1 350.5,306.4 350.4,307.2 353.1,308.9 353.3,308.1 				"/>
				<polyline class="st40" points="361.6,313.2 359.9,312.1 359.7,313 361.5,314 361.6,313.2 				"/>
				<polyline class="st40" points="365.5,315.6 362.1,313.5 362,314.3 365.4,316.4 365.5,315.6 				"/>
				<polyline class="st40" points="354.6,308.9 353.7,308.3 353.6,309.1 354.5,309.7 354.6,308.9 				"/>
				<polyline class="st40" points="357.7,310.8 355,309.1 354.9,310 357.6,311.6 357.7,310.8 				"/>
				<polyline class="st40" points="359.4,311.8 358.2,311.1 358,311.9 359.3,312.7 359.4,311.8 				"/>
			</g>
			<polygon class="st38" points="378.5,349.2 382.3,348.5 394.1,291.2 390.2,291.8 			"/>
			<polygon class="st30" points="350.8,270.3 390.2,291.8 394.1,291.2 355.7,270.3 			"/>
			<g>
				<g>
					<path class="st39" d="M364.1,320.2l-9.7-6.3l0,0.1l9.6,6.3C364,320.3,364,320.2,364.1,320.2 M365.7,321.3l-1.3-0.8
						c0,0,0,0.1,0,0.1L365.7,321.3C365.7,321.3,365.7,321.3,365.7,321.3"/>
					<path class="st39" d="M363.7,321l-9.4-6.1l0,0.1L363.7,321L363.7,321 M366,322.4l-2.1-1.4l-0.1,0.1l2.2,1.4L366,322.4"/>
					<path class="st39" d="M363.2,321.6l-9-5.8l0,0.1L363.2,321.6L363.2,321.6 M365.9,323.3l-2.6-1.7l-0.1,0.1l2.6,1.7L365.9,323.3"
						/>
					<path class="st39" d="M362.7,322.2l-8.6-5.6l0,0.1L362.7,322.2L362.7,322.2 M365.8,324.2l-3-1.9l-0.1,0.1l3,2L365.8,324.2"/>
					<path class="st39" d="M360.2,321.5l-6.1-4l0,0.1l6.1,4L360.2,321.5C360.2,321.5,360.2,321.5,360.2,321.5 M365.7,325.1l-3.2-2.1
						c0,0-0.1,0-0.1,0c-0.1,0-0.1-0.1-0.1-0.2l-1.8-1.1c0,0-0.1,0-0.1,0c0,0,0,0,0,0l0,0.1l5.4,3.5L365.7,325.1"/>
					<path class="st39" d="M359.8,322.3l-5.9-3.8l0,0.1l5.8,3.8L359.8,322.3 M365.6,326l-5.7-3.7l-0.1,0.1l5.7,3.7L365.6,326"/>
					<path class="st39" d="M359.4,323l-5.6-3.6l0,0.1l5.5,3.6L359.4,323 M365.5,326.9l-6-3.9l-0.1,0.1l6,3.9L365.5,326.9"/>
					<path class="st39" d="M357.5,322.7l-3.7-2.4l0,0.1l3.7,2.4C357.4,322.7,357.5,322.7,357.5,322.7 M359.1,323.7l-1.2-0.8
						c0,0,0,0.1,0,0.1L359.1,323.7L359.1,323.7 M365.4,327.8l-6.3-4.1l-0.1,0.1l6.3,4.1L365.4,327.8"/>
					<path class="st39" d="M357.1,323.4l-3.4-2.2l0,0.1L357.1,323.4L357.1,323.4 M365.3,328.7l-8.1-5.3l-0.1,0.1l8.2,5.3
						L365.3,328.7"/>
					<path class="st39" d="M355.1,323l-1.5-1l0,0.1L355.1,323L355.1,323 M365.3,329.6l-10.1-6.5l-0.1,0.1l10.1,6.6L365.3,329.6"/>
					<path class="st39" d="M354.6,323.7l-1.1-0.7l0,0.1L354.6,323.7L354.6,323.7 M365.2,330.5l-10.5-6.8l-0.1,0.1l10.5,6.8
						L365.2,330.5"/>
					<path class="st39" d="M354.1,324.3l-0.7-0.4l0,0.1L354.1,324.3L354.1,324.3 M365.1,331.4l-10.9-7.1l-0.1,0.1l10.9,7.1
						L365.1,331.4"/>
					<path class="st39" d="M353.6,324.9l-0.3-0.2l0,0.1L353.6,324.9L353.6,324.9 M365,332.3l-11.3-7.3l-0.1,0.1l11.3,7.4L365,332.3"
						/>
					<polyline class="st39" points="364.9,333.2 353.2,325.7 353.2,325.8 364.9,333.4 364.9,333.2 					"/>
				</g>
				<path class="st0" d="M355.1,323L355.1,323l-0.1,0.1l-0.4,0.5l-0.1,0.1l-0.4,0.5l-0.1,0.1l-0.4,0.5l-0.1,0.1l-0.3,0.4l-0.2,0.3
					l0,0.1l0.1,0l0.1-0.1l0.4-0.5l0.1-0.1l0.4-0.5l0.1-0.1l0.4-0.5l0.1-0.1l0.4-0.5l0.1-0.1l0,0C355.2,323.1,355.2,323,355.1,323
					 M356.6,323.6l-1-0.7c0,0,0,0.1,0,0.1c0,0,0,0,0,0.1l1,0.7C356.5,323.7,356.5,323.7,356.6,323.6
					C356.5,323.6,356.5,323.6,356.6,323.6 M357.5,323l-0.4,0.4l-0.1,0.1l-0.1,0.2c0,0,0.1,0.1,0.1,0.1l0.2-0.2l0.1-0.1l0.3-0.3
					C357.5,323.1,357.5,323,357.5,323 M357.9,323.1c0,0,0,0.1,0,0.1l0.8,0.8c0,0,0-0.1,0-0.1L357.9,323.1 M360.2,321.6L360.2,321.6
					l-0.4,0.7l-0.1,0.1l-0.3,0.6l-0.1,0.1l-0.3,0.6l-0.1,0.1l-0.1,0.2c0,0,0.1,0.1,0.1,0.1l0.1-0.2l0.1-0.1l0.3-0.6l0.1-0.1l0.3-0.6
					l0.1-0.1l0.3-0.6l0-0.1C360.2,321.6,360.2,321.6,360.2,321.6 M362.2,322.6l-1.6-1c0,0,0,0,0,0c0,0,0,0.1,0,0.1l1.7,1.1
					C362.2,322.7,362.2,322.6,362.2,322.6C362.2,322.6,362.2,322.6,362.2,322.6 M364.1,320.5l-0.3,0.4l-0.1,0.1l-0.4,0.5l-0.1,0.1
					l-0.4,0.5l-0.1,0.1l-0.2,0.2c0,0,0.1,0.1,0.1,0.1l0.2-0.2l0.1-0.1l0.4-0.5l0.1-0.1l0.4-0.5l0.1-0.1l0.3-0.4
					C364.1,320.6,364.1,320.6,364.1,320.5 M365.7,321.4l-1.3-0.8c0,0,0,0,0,0.1c0,0,0,0,0,0.1l1.3,0.8
					C365.7,321.5,365.7,321.4,365.7,321.4C365.7,321.4,365.7,321.4,365.7,321.4"/>
				<g>
					<path class="st24" d="M355.3,322.6c-0.1-0.1-0.2,0-0.2,0.1c0,0.1,0,0.2,0,0.2c0,0,0,0.1,0.1,0.1c0,0,0,0,0.1,0.1
						c0.1,0.1,0.2,0,0.2-0.1c0,0,0,0,0-0.1c0,0,0-0.1,0-0.1C355.5,322.8,355.4,322.6,355.3,322.6"/>
					<path class="st24" d="M356.8,323.5c-0.1-0.1-0.2,0-0.2,0.1c0,0,0,0,0,0.1c0,0,0,0,0,0.1c0,0.1,0.1,0.3,0.2,0.4
						c0.1,0.1,0.2,0,0.3-0.1c0-0.1,0-0.1,0-0.2C356.9,323.7,356.9,323.7,356.8,323.5C356.8,323.6,356.8,323.5,356.8,323.5"/>
					<path class="st24" d="M357.7,322.6c-0.1-0.1-0.2,0-0.2,0c0,0,0,0.1,0,0.1c0,0.1,0,0.2,0,0.2c0,0,0,0.1,0.1,0.1
						c0,0,0,0.1,0.1,0.1c0.1,0.1,0.2,0,0.2,0c0,0,0-0.1,0-0.1c0,0,0,0,0,0c0,0,0-0.1,0-0.1C357.8,322.8,357.8,322.7,357.7,322.6"/>
					<path class="st24" d="M358.8,323.9c-0.1,0-0.1,0-0.2,0c0,0,0,0.1,0,0.1c0,0,0,0,0,0c0,0.2,0.1,0.3,0.2,0.4
						c0.1,0.1,0.2,0,0.2-0.1c0-0.1,0-0.2,0-0.2C359,324,358.9,324,358.8,323.9C358.9,323.9,358.9,323.9,358.8,323.9"/>
					<path class="st24" d="M360.4,321.1c-0.1-0.1-0.2,0-0.2,0.1c0,0.1,0,0.2,0.1,0.3c0,0,0,0,0,0c0,0,0.1,0.1,0.1,0.1c0,0,0,0,0,0
						c0.1,0,0.1,0,0.1,0c0,0,0,0,0.1-0.1c0,0,0-0.1,0-0.1c0,0,0,0,0,0C360.6,321.4,360.5,321.2,360.4,321.1"/>
					<path class="st24" d="M362.4,322.4c-0.1-0.1-0.2,0-0.2,0.1c0,0,0,0,0,0c0,0,0,0.1,0,0.1c0,0,0,0.1,0,0.1c0,0.1,0.1,0.1,0.1,0.2
						c0.1,0,0.1,0,0.1,0c0.1,0,0.1-0.1,0.1-0.2c0-0.1,0-0.2,0-0.2C362.5,322.6,362.5,322.5,362.4,322.4
						C362.4,322.5,362.4,322.5,362.4,322.4"/>
					<path class="st24" d="M364.3,320.2c-0.1-0.1-0.2,0-0.2,0c0,0,0,0.1,0,0.1c0,0.1,0,0.2,0,0.2c0,0,0,0.1,0.1,0.1c0,0,0,0,0.1,0.1
						c0.1,0.1,0.2,0,0.2-0.1c0,0,0,0,0-0.1c0,0,0,0,0-0.1c0,0,0-0.1,0-0.1C364.4,320.3,364.3,320.2,364.3,320.2"/>
					<path class="st24" d="M365.9,321.3c-0.1-0.1-0.2,0-0.2,0c0,0,0,0,0,0.1c0,0,0,0,0,0.1c0,0,0,0,0,0.1c0,0.1,0.1,0.3,0.2,0.4
						c0.1,0.1,0.2,0,0.2-0.1C366.2,321.5,366.1,321.4,365.9,321.3"/>
				</g>
				<polyline class="st30" points="354.4,313 354.2,313.1 352.9,326.6 353,326.8 364.8,334.5 364.9,334.4 364.8,334.2 353.1,326.6 
					353.2,325.8 353.2,325.7 353.2,325.6 353.1,325.8 353.1,325.8 353.1,325.6 353.3,325.4 353.3,324.9 353.3,324.8 353.4,324 
					353.4,323.9 353.5,323.1 353.5,323 353.6,322.2 353.6,322.1 353.7,321.3 353.7,321.2 353.8,320.4 353.8,320.3 353.9,319.5 
					353.9,319.3 353.9,318.6 354,318.4 354,317.7 354,317.5 354.1,316.8 354.1,316.6 354.2,315.9 354.2,315.7 354.3,315 
					354.3,314.8 354.4,314.1 354.4,313.9 354.5,313.3 354.4,313 				"/>
			</g>
		</g>
		<g>
			<g>
				<path class="st38" d="M333.9,305.8c0,0,3.1,8.5,7.1,12c0.9,0.8-0.2,4.9-1,5c-4,0.3-8.8-9-9.1-11.1
					C330.5,309.6,332.6,304.8,333.9,305.8z"/>
				<path class="st5" d="M341.9,316.9c0,0,9.6-5.3,12.1-6.6c2.5-1.2,6.8-0.5,7.4,0.4c0.5,1-2.9,4-4.2,3.4c-1.4-0.6-2-0.6-2-0.6
					s-11.7,9.5-14.2,8.4C338.4,320.9,341.9,316.9,341.9,316.9z"/>
				<polygon class="st23" points="351.5,316.9 352.7,316.9 370.5,301.6 				"/>
				<path class="st5" d="M357.6,311.7c-1.5,1-1,3.5,0.6,3.5c1.6,0.1,4-2.5,3.1-4.1C360.5,309.6,358.8,311,357.6,311.7z"/>
				<path class="st22" d="M341.6,316.7c-0.3,0-0.7,0.1-0.9,0.4c-1,1.3-3.7,5-3.2,5.3c0.5,0.3,4.2,1.6,4.5,0.1c0.2-1,0.5-3.4,0.7-4.7
					c0.1-0.5-0.3-1-0.8-1.1L341.6,316.7z"/>
			</g>
			
				<ellipse transform="matrix(0.9583 -0.2858 0.2858 0.9583 -91.2038 110.0382)" class="st37" cx="331.4" cy="367.5" rx="12.6" ry="5.9"/>
			<g>
				<path class="st38" d="M325,369.1v1.7h-0.8c0,0-0.9-3.8-0.5-4.1c0.4-0.3,3-1,4.8,0.4c1.7,1.4,4.1,4,3,4.3S329.4,371.9,325,369.1z
					"/>
				<path class="st5" d="M323,345.2c0,0,1,21.4,1.1,22s4.5,2.8,5,2.3c0.5-0.4-1.6-2.7-1.6-2.7l1.1-21.7H323z"/>
			</g>
			<g>
				<path class="st38" d="M332.8,365.9v1.7H332c0,0-0.9-3.8-0.5-4.1c0.4-0.3,3-1,4.8,0.4c1.7,1.4,4.1,4,3,4.3
					C338.1,368.5,337.1,368.7,332.8,365.9z"/>
				<path class="st5" d="M330.8,341.9c0,0,1,21.4,1.1,22c0.1,0.7,4.5,2.8,5,2.3c0.5-0.4-1.6-2.7-1.6-2.7l1.1-21.7H330.8z"/>
			</g>
			<path class="st30" d="M322.1,346.4c0,0,7.6,5.1,15.8-2.5c0,0,0.4-14.8-0.3-17.6c-0.7-2.8-4.8-4.6-7.6-3c-2.7,1.5-7,4.7-7.4,7.3
				C322.2,333.1,322.1,346.4,322.1,346.4z"/>
			<g>
				<path class="st38" d="M332.9,323.5c0,0-4.1,7.9-10.3,7c0,0-0.4-5.2,3.3-8.1c0,0-4.2-9.6-5.1-11.8c-0.9-2.2,2.3-4.6,3.8-5.6
					c1.5-1.1,8.4-1.8,9.8,0c1.4,1.8,4.1,6.2,3.8,7.4c-0.3,1.2-2.1,2-2.1,2s0.1,5.6,0.3,6.3c0.2,0.7,1.6,4,1.4,6.6
					C337.8,327.4,333.9,326.4,332.9,323.5z"/>
				<g>
					<path class="st13" d="M334.4,305.1c1.2,1.5,2.2,3.1,3.1,4.7c0.2,0.4,0.4,0.8,0.6,1.3c0.1,0.4,0.4,0.9,0.2,1.5
						c-0.4,1-1.3,1.6-2.1,2l0.1-0.2l0.1,3.3l0.1,1.6c0,0.5,0,1.1,0.2,1.6c0.3,1,0.7,2.1,0.9,3.2c0.2,1.1,0.4,2.2,0.2,3.3
						c0-2.2-0.7-4.3-1.5-6.3c-0.2-0.6-0.2-1.1-0.2-1.7l-0.1-1.6c0-1.1-0.1-2.2-0.1-3.3l0-0.1l0.1-0.1c0.8-0.4,1.6-1,1.9-1.8
						c0.1-0.3,0-0.8-0.2-1.2c-0.2-0.4-0.3-0.9-0.5-1.3C336.4,308.3,335.5,306.7,334.4,305.1z"/>
				</g>
				<g>
					<path class="st41" d="M325.7,316.6c0.9,0.2,1.7,0.4,2.5,0.4c0.4,0,0.8,0,1.2-0.1c0.4-0.1,0.8-0.2,1.2-0.3
						c-0.3,0.3-0.7,0.5-1.1,0.7c-0.4,0.1-0.9,0.2-1.3,0.2C327.3,317.4,326.4,317.2,325.7,316.6z"/>
				</g>
				<g>
					<path class="st41" d="M332.9,311.1c0.3,2.1,0.3,4.1,0.4,6.2c0,2.1-0.1,4.1-0.4,6.2c0-1,0-2.1-0.1-3.1l0-3.1
						C332.8,315.3,332.8,313.2,332.9,311.1z"/>
				</g>
			</g>
			<g>
				<path class="st38" d="M314.3,317.3c0,0,1.8,2.5,3.4,3.5c0,0,4.9-7.5,6.4-9.9c1.5-2.4,0-5.8-2.9-2.6
					C318.2,311.6,314.3,317.3,314.3,317.3z"/>
				<path class="st5" d="M302.7,312.2c0,0-5.9,2-5.4,3.7c0.5,1.7,4.5,1.6,6.9-0.3c0,0,7.9,10.1,11.8,7.6l-2.6-4.5
					c0,0-4.4-2.9-7.1-5.9c-2.7-3-4.1-4.7-4.6-3.9C301.3,309.7,302.7,312.2,302.7,312.2z"/>
				<path class="st22" d="M313.6,317.8c-0.2,0.3-0.3,0.6-0.2,1c0.5,1.6,2,5.9,2.4,5.7c0.6-0.2,3.7-2.5,2.7-3.6
					c-0.7-0.7-2.4-2.3-3.4-3.3C314.7,317.2,314,317.3,313.6,317.8L313.6,317.8z"/>
			</g>
			<g>
				<path class="st22" d="M332.9,311.1c0,0-3-2.1-5.3-3.1c-2.3-1-5.3-2-3.3-3.4c2-1.4,4-0.9,4-0.9S332.6,308.1,332.9,311.1z"/>
				<path class="st22" d="M329.4,303.6c0,0,2.4-0.8,3.8,0c1.4,0.8,2.5,1.7,2,3.1c-0.6,1.4-2,3.5-2.2,4.4L329.4,303.6z"/>
				<path class="st12" d="M322.8,293.9c0,0-0.6,4-0.9,6.6c-0.3,2.7,2.1,3.5,5.8,1.3c0,0,5.7,1.3,10.8-2.5
					C338.4,299.4,327.2,290.1,322.8,293.9z"/>
				<path class="st5" d="M329.2,300.5c0,0,1.9-0.2,2.4-1.2c0.8-1.4-0.7-1.7-1.4-1.2c0,0,0.3-4.5-3.2-5.6c-3.4-1.1-4,1.9-4.3,3.7
					c-0.3,1.9-0.5,5.6,2,6.1C327.5,302.7,328.1,301.4,329.2,300.5z"/>
				<path class="st12" d="M326.5,293.1c0,0-3.4,2.4-5.3,0.8c-1.9-1.6,0.1-3.1,2.1-4.1c2-0.9,6.5-2.8,9.6-0.7
					c3.1,2.1,2.1,8.3,5.5,10.2C338.4,299.4,329.2,301.6,326.5,293.1z"/>
				<path class="st16" d="M324.9,299.7c0.6,0,1.4-0.8,1.8,0c0.4,0.8-0.7,1.5-1.8,1.5C323.7,301.1,323,299.7,324.9,299.7z"/>
				<path class="st5" d="M326.3,302.3c0,0-0.2,2.9,0,3.2c0.2,0.3,5.4,2.2,6.3,3.9c0,0-0.5-4.5-1.7-5.8l-0.4-4.3L326.3,302.3z"/>
			</g>
		</g>
		<g>
			<g>
				<path class="st5" d="M274.6,326.6c0,0-0.2,7.7-0.4,9.8c-0.2,2,1.4,4.2,4.5,2.4v-11.6L274.6,326.6z"/>
				<path class="st24" d="M274.2,327.4c0,0,1.9,3.1,4.1,1.8c2.2-1.3,1.4-11.4,1.4-11.4S274.6,318.4,274.2,327.4z"/>
				<path class="st5" d="M290.5,323.2c0,0,1-2.6,1.8-3.3c0.8-0.6,0.9,1.6,0.9,1.6s2.7-0.8,3.4,0.6c0.8,1.3-3.8,4.5-3.8,4.5
					L290.5,323.2z"/>
			</g>
			<g>
				<path class="st20" d="M278.8,382.1c0,0,0,4,0.3,4.4c0.3,0.4,2.9-0.3,4.6-1.2c1.7-0.9,5.3-3.4,3.1-3.5c-2.2-0.1-4.6-0.5-4.6-0.5
					L278.8,382.1z"/>
				<path class="st20" d="M287.2,385.5c0,0,0.3,3.6,0.3,4.5c0,0.9,1.3,1.1,3.7,0c2.4-1.1,6.3-4.2,4.1-4.5s-4.8-0.7-4.8-0.7
					L287.2,385.5z"/>
				<path class="st38" d="M277.5,345.7c0,0,0.7,36,1.1,37c0.4,1,3.8,0.8,5.2-0.9l-0.9-29c0,0,1.7,0.1,2.8,0.2c0,0,1.6,32.2,1.7,33.1
					c0.1,1,3.8,1.3,5.2-1l-0.7-37.5C291.7,347.6,281.4,343.9,277.5,345.7z"/>
			</g>
			<g>
				<path class="st34" d="M297.2,327.1c0,0,0,3.7,0,4.6c0,0.9,0.7,2,2.7,2c2,0,2.7-0.4,2.7-1.6c0-1.2,0-3,0-3.7
					c0-0.7-1.2-1.6-2.7-1.9C298.4,326.1,297.2,326.5,297.2,327.1z"/>
				<path class="st15" d="M299.3,328.6c-1.1-0.3-1.9-1-1.2-1.6c0.6-0.6,4,0.4,3.9,1.2S300.7,329,299.3,328.6z"/>
			</g>
			<path class="st5" d="M282.4,318.2c0,0,1-5,1-6.1s0.5-5.5,3.4-6.4c2.9-1,5.7-0.2,5.7,3.1c0,3.3,1.3,7.2,0.3,7.4
				c-1,0.2-3.3-0.2-3.3-0.2l-0.7,5L282.4,318.2z"/>
			<path class="st15" d="M289.5,314c0,0-2.9,0.7-2.7-1.6c0.1-2.3,2.3-1.8,2.3-1.8s0.4-3.9,3.4-2.7c0,0,5.8-3,3.7-3.6
				c-2.1-0.5-5.6-0.8-5.6-0.8s4.9-1.8,2.1-2c-2.8-0.2-4.4,1.1-7.5,0.8c-3.1-0.3-5.4,1.6-5.1,4.7c0.3,3.1,0.8,6.2,0,6.9
				c-0.9,0.7-2.2,1.8-0.5,1.8c1.7,0.1,2.9-0.5,2.9-0.5s0,0.6-1.1,0.8C280.3,316.4,282.4,319,289.5,314z"/>
			<path class="st24" d="M277.2,345.2c0,0,3.3,8.5,14.5,2.9c0,0,0.2-20.6,0-23.2c-0.2-2.6-0.2-3.4-3.5-5.4c-3.3-2-6.2-2.5-8.5-1.5
				c-2.4,1-3.2,4.1-2.9,10.2C277,334.3,277.2,345.2,277.2,345.2z"/>
			<g>
				<path class="st42" d="M276.8,324.5c0.5,3.4,0.6,6.9,0.7,10.3c0.1,3.4,0.1,6.9-0.3,10.4c-0.5-3.4-0.6-6.9-0.7-10.3
					C276.4,331.4,276.5,328,276.8,324.5z"/>
			</g>
			<path class="st5" d="M291.8,332.2c0,0,4.8,9.2,5.4,10.3c0.6,1.1,4.5-2.4,6.1-4.5c1.6-2,3.4-4.6,1.9-7.4c-1.5-2.8-4.1-1.3-3.3,0.7
				c0.9,2,0.6,2.7-0.2,3.6c-0.8,0.9-2.6,2.6-2.6,2.6l-4-7.5L291.8,332.2z"/>
			<path class="st24" d="M289.9,322.1c-1.3,0.5-2.5,4.1,1.9,10.9c0,0,2.3-0.2,4.2-3C296,330,292.7,321,289.9,322.1z"/>
		</g>
	</g>
	<g>
		<path class="st43" d="M520.6,257.9c7.8,2.3,13.2,7.2,12.1,10.8c-1.1,3.7-8.3,4.7-16.1,2.4c-7.8-2.3-13.2-7.2-12.1-10.8
			C505.6,256.6,512.8,255.5,520.6,257.9z"/>
		<g>
			<path class="st16" d="M508,220c0,0,2.6,0.9,4.5,0.9c0,0,2.1-10.4,0.5-11.2c-1.6-0.8-2.9,0.3-3.8,4C508.2,217.4,508,220,508,220z"
				/>
			<g>
				<path class="st8" d="M500.6,218.3c0,0-1.2-2.4-2.9-0.8c-1.7,1.6-0.7,4.8,1,4.4c0,0,8.2,3.7,11.5,4s2.3-2.9,1.8-4.5l-3.9-1
					C508,220.4,506.6,221.6,500.6,218.3z"/>
				<g>
					<path class="st44" d="M500.7,220.4c-0.3,0.1-0.6,0.1-1,0.1c-0.2,0-0.4-0.1-0.5-0.2c-0.2-0.1-0.3-0.5-0.2-0.6
						c0-0.4,0.3-0.8,0.7-0.9c0.4-0.1,0.7-0.1,1-0.1l-0.2,0.1c0,0,0-0.2-0.1-0.3c0-0.1-0.1-0.3-0.2-0.4l-0.4-0.8
						c0.2,0.2,0.4,0.4,0.6,0.6c0.1,0.1,0.2,0.2,0.2,0.4c0,0.1,0.1,0.1,0.1,0.2c0,0.1,0.1,0.1,0,0.3l0,0.1l-0.1,0
						c-0.3,0-0.6,0.1-0.9,0.2c-0.3,0.1-0.4,0.2-0.5,0.5c0,0.2,0,0.2,0,0.3c0.1,0.1,0.2,0.1,0.3,0.2
						C500,220.3,500.3,220.4,500.7,220.4z"/>
				</g>
			</g>
			<path class="st22" d="M508,221.1l3.7,0.8c0.5,0.1,0.9-0.2,1.1-0.6l0,0c0.2-0.5-0.1-1-0.6-1.2l-3.6-1.1c-0.5-0.2-1,0.1-1.2,0.6
				l-0.1,0.4C507.2,220.5,507.5,221,508,221.1z"/>
		</g>
		<g>
			<path class="st13" d="M508,264.3c-1.1-0.1,0.1-2.8,3.3-6.7l3.4-0.3c0,0,0.5,3.3-0.1,3.8c-0.6,0.6-1-1-1-1S509.7,264.5,508,264.3z
				"/>
			<path class="st8" d="M512.4,246.6c0,0-0.9,10.6-1.1,11.1c-0.2,0.5-2.6,3.7-1.2,3.5c1.4-0.2,4.5-2.9,4.5-2.9l1.4-10.8L512.4,246.6
				z"/>
		</g>
		<g>
			<path class="st13" d="M530.6,269.5c1.1-0.1-0.1-2.8-3.3-6.7l-3.4-0.3c0,0-0.5,3.3,0.1,3.8c0.6,0.6,1-1,1-1
				S528.9,269.6,530.6,269.5z"/>
			<path class="st8" d="M526.3,245.2c0,0,0.7,17.1,0.9,17.6c0.2,0.5,2.6,3.7,1.2,3.5c-1.4-0.2-4.5-2.9-4.5-2.9l-1.2-17.3
				L526.3,245.2z"/>
		</g>
		<g>
			<path class="st30" d="M511.9,246.6c0,0.4,8.4,5.6,16,0c0,0-0.3-13.4-1.6-16.9c-1.3-3.5-2.3-4.6-2.3-4.6l-10.3,2.4
				C513.7,227.5,511.3,233.9,511.9,246.6z"/>
			<path class="st16" d="M513.7,227.5c0,0,6,0.5,10.3-2.4c0,0,0.3-11.4,0-13c-0.3-1.6-4.6-2.9-7.6-3c-3-0.2-4.6,1.3-5,3
				c-0.4,1.8-1.5,6.6-0.5,8c1,1.5,2.8,5,3,5.7C514,226.5,513.7,227.5,513.7,227.5z"/>
			<g>
				<path class="st25" d="M516.3,209c-0.9,0-1.9,0.1-2.8,0.5c-0.8,0.4-1.5,1-1.9,1.9c-0.2,0.4-0.2,0.9-0.4,1.3l-0.3,1.4
					c-0.2,0.9-0.3,1.9-0.4,2.8c-0.1,0.9-0.1,1.9,0.2,2.7c0.4,0.8,1,1.6,1.4,2.4c0.4,0.8,0.9,1.7,1.3,2.6c0.2,0.4,0.4,0.9,0.4,1.4
					c0,0.5-0.1,1-0.3,1.4c0.1-0.5,0.2-0.9,0.1-1.4c0-0.5-0.3-0.9-0.5-1.3c-0.4-0.8-0.9-1.7-1.4-2.5l-0.7-1.2l-0.4-0.6
					c-0.1-0.2-0.3-0.4-0.4-0.7c-0.3-1-0.3-2-0.2-2.9c0.1-1,0.2-1.9,0.4-2.8l0.3-1.4c0.1-0.5,0.2-0.9,0.4-1.4c0.4-0.9,1.2-1.6,2.1-2
					C514.4,209,515.4,208.9,516.3,209z"/>
			</g>
			<path class="st22" d="M517.2,216.7l-3.6-3.3l2.7-4.3c0,0,3.3,0.7,3.4,1.5C519.9,211.4,517.2,216.7,517.2,216.7z"/>
			<path class="st22" d="M510.5,216.3l3.1-2.9V209C513.7,209,508.5,209.5,510.5,216.3z"/>
			<g>
				<path class="st25" d="M513.7,213.4c-0.2,1.3-0.4,2.5-0.5,3.7c-0.1,0.6-0.1,1.2-0.1,1.9c0,0.3,0,0.6,0,0.9c0,0.3,0.1,0.5,0.3,0.8
					c0.6,1.1,1.5,2,2.1,3.1c0.3,0.6,0.6,1.1,0.8,1.8c0.2,0.6,0.2,1.3,0.1,1.9c0-1.3-0.5-2.4-1.2-3.5c-0.7-1-1.5-2-2.2-3.1
					c-0.2-0.3-0.3-0.6-0.3-1c0-0.3,0-0.7,0-1c0-0.6,0.1-1.3,0.2-1.9C513,215.8,513.3,214.6,513.7,213.4z"/>
			</g>
			<path class="st38" d="M524.6,226c0,0-3.7,3.8-11.3,3c0,0-1.5-1.8,0.6-3.1c0,0,2.1,2.3,10.1-1.3C524,224.5,524.5,224.5,524.6,226z
				"/>
		</g>
		<g>
			<path class="st8" d="M513.7,213.4c0,0,2.7-1.3,2.7-2.8c0-1.5,0-3.6,0-3.6l-3.8,0.4C512.5,207.3,512.4,211.2,513.7,213.4z"/>
			<path class="st45" d="M510.3,198.7c0,0-1.2-1.4-3.6,0c-2.4,1.4-0.7,8.1,3,6.5L510.3,198.7z"/>
			<path class="st20" d="M513,207.4c-0.2-0.2-3.7,0.1-4.6-3.1c-1-3.2,0-8.5,6.4-8c0,0,1.9-2,4.1-0.6c2.3,1.4,1,6.9,1,6.9L513,207.4z
				"/>
			<path class="st8" d="M511.8,204.6c-1.1,1,0.2,4.6,2.6,3.7c0,0,2.1,1.2,4.4,0.7c2.3-0.6,2.2-2,2-4.3c-0.2-2.3-0.9-4.8-4.7-5
				c0,0,0.4,4-2.2,5.1C513.9,204.7,512.7,203.8,511.8,204.6z"/>
		</g>
		<g>
			<path class="st16" d="M510.3,211.6v-4.1c0,0,9.4-0.3,11.6,1c2.2,1.3,2.1,4.1,1.9,5c-0.2,1-4.6-0.8-6.7-1.2
				C515,211.8,510.3,211.6,510.3,211.6z"/>
			<g>
				<path class="st25" d="M520.9,213.3l-2.6-0.7c-0.9-0.2-1.7-0.4-2.6-0.4c-1.8-0.2-3.6-0.3-5.3-0.4l-0.2,0l0-0.2c0-1.4,0-2.8,0-4.1
					l0-0.2l0.2,0c2,0,3.9,0,5.9,0.1c1,0.1,2,0.1,2.9,0.3c1,0.2,2,0.3,2.8,0.8c-0.9-0.4-1.9-0.5-2.8-0.6c-1-0.1-1.9-0.1-2.9-0.2
					c-2,0-3.9,0-5.9,0l0.2-0.2c0,1.4,0,2.8,0,4.1l-0.2-0.2c1.8,0.1,3.6,0.2,5.3,0.5c0.9,0.1,1.8,0.3,2.6,0.6L520.9,213.3z"/>
			</g>
			<path class="st8" d="M509.2,207.8c0,0-9.1-0.3-11.7-0.3c-2.6,0-5.4,1.2-6.9,2.3c-1.5,1.1-0.8,2.5,2.4,2.3
				c3.2-0.2,4.1-1.1,4.1-1.1l12.2-0.2V207.8z"/>
			<path class="st22" d="M508.6,208l0.4,3.7c0,0.5,0.5,0.8,0.9,0.8l0,0c0.5,0,0.9-0.4,0.9-0.9v-3.8c0-0.5-0.4-0.9-1-0.9l-0.4,0
				C508.9,206.9,508.5,207.4,508.6,208z"/>
		</g>
	</g>
	<g>
		
			<ellipse transform="matrix(0.3679 -0.9299 0.9299 0.3679 84.9208 759.0381)" class="st46" cx="600.8" cy="317.1" rx="23.2" ry="51.6"/>
		<g>
			<g>
				<path class="st45" d="M567.9,306.8c0,0,4.3,3.5,4.2,4.1c-0.1,0.7-1.2,2-3,1.8c-1.8-0.2-4.4-2.2-4.3-3s0.1-2.3,0.1-2.3
					L567.9,306.8z"/>
				<path class="st45" d="M576.8,302c0,0,4.3,3.5,4.2,4.1c-0.1,0.7-1.2,2-3,1.8c-1.8-0.2-4.4-2.2-4.3-3c0-0.7,0.1-2.3,0.1-2.3
					L576.8,302z"/>
				<path class="st13" d="M565.9,274.6c0,0-0.1,23.9-1.8,33.6c0,0,2.7,0.5,5.1-0.8c0,0,3.6-15.3,3.8-28.5c0,0,1,0,1.4-0.2
					c0,0-0.5,18.9-1.4,25c0,0,3.3-0.2,4.5-1.7c0,0,2.8-15.9,3.1-27.4C580.5,274.6,570.8,271.4,565.9,274.6z"/>
			</g>
			<path class="st38" d="M575.1,247.1c0,0,3.3-0.3,5.4,5.6c2.2,5.9,3.7,15.3,3.7,15.3l-5.3,1.5L575.1,247.1z"/>
			<g>
				<path class="st38" d="M565.4,274.4c0,0,8.1,3,15.2,0.2c0,0-1.2-16.8-1.4-20.2c-0.2-3.4-2.7-7.1-4-7.3c-1.4-0.2-4.2-0.2-6,0.2
					c-1.8,0.4-5.3,0.7-5.1,3.4C564.3,253.3,566.1,267.2,565.4,274.4z"/>
				<g>
					<path class="st13" d="M565.4,274.4c2.5,0.8,5,1.2,7.6,1.2c1.3,0,2.6-0.1,3.8-0.3c1.3-0.2,2.5-0.6,3.7-1l-0.1,0.2
						c-0.3-3.4-0.5-6.7-0.7-10.1c-0.2-3.4-0.4-6.7-0.5-10.1c0.3,3.4,0.6,6.7,0.9,10.1c0.2,3.4,0.5,6.7,0.7,10.1l0,0.2l-0.1,0.1
						c-1.2,0.4-2.5,0.8-3.8,1c-1.3,0.2-2.6,0.3-3.9,0.2C570.4,275.9,567.8,275.3,565.4,274.4z"/>
				</g>
				<g>
					<path class="st13" d="M572.1,250.9c0.6,2,1,4.1,1.3,6.2c0.3,2.1,0.4,4.2,0.6,6.3c0.1,2.1,0.1,4.2,0.1,6.3l-0.1,3.1l-0.2,3.1
						l0-6.3c0-2.1-0.1-4.2-0.2-6.3c-0.1-2.1-0.2-4.2-0.5-6.2c-0.1-1-0.2-2.1-0.4-3.1C572.5,252.9,572.3,251.9,572.1,250.9z"/>
				</g>
			</g>
			<g>
				<polygon class="st7" points="575.4,270.1 583.2,265.7 582.3,272.4 				"/>
				<polygon class="st25" points="581.9,263.5 591.5,258.1 591.5,266.6 582.3,272.4 				"/>
				<path class="st2" d="M588,265.7c-1.4,0.6-1.4,1.4-1.3,2.6c0.1,1.2-0.5,2.4,0.7,2.1c1.2-0.2,2.3-1.4,2.3-2.7
					C589.6,266.5,589.9,264.9,588,265.7z"/>
			</g>
			<g>
				<path class="st16" d="M572.1,250.9l-1,3c0,0-4-4.3-4.2-5.9c-0.2-1.6,1.1-2.3,2-2.1C569.8,246.1,572.1,250.9,572.1,250.9z"/>
				<path class="st16" d="M574.1,252.6l-2-1.8c0,0-1.7-4.5-1-5c0.7-0.5,1.7,0.1,2.5,1.4C574.3,248.5,574.1,252.6,574.1,252.6z"/>
				<path class="st2" d="M572.1,250.9c0,0-4.1-3.6-4-4.1c0.1-0.5,0-3.8,0-3.8s0.4-6.5,1.3-7c1-0.5,6.7-0.9,6.7,1.6s0.3,7.6-0.5,8
					c-0.8,0.3-3,0.2-3.7-0.2l0.4,1.8C572.2,247.2,572.5,249.9,572.1,250.9z"/>
				<path class="st20" d="M568.7,240.7c0,0,1.2-2.1,1.3-3.7c0,0,6.4,2.8,8.9-2.4c0,0-1.6,0.2-2.8-0.9c-1.2-1.1-6.3-4.5-8.8-0.3
					c0,0-1.7-0.2-1.8,1.9c-0.1,2.1-0.1,5.2,1,6.2L568.7,240.7z"/>
				<path class="st16" d="M572.7,244c-1.7-0.4-1.5-1.7-0.9-2.3c0.7-0.7,1.3,1,2.2,1.2C575,243,575,244.5,572.7,244z"/>
				<path class="st2" d="M568,242.9c0,0-2.3-1-1.9-2.5c0.4-1.6,1.6-1.2,2.3-0.2C569.2,241.3,568,242.9,568,242.9z"/>
			</g>
			<g>
				<path class="st38" d="M565.9,248.7c-0.9-0.6-3.4,1.3-4.9,13.7c-0.2,2.1-1.1,2.8-1.7,2c-1-1.6-2.1-5.2-2.1-5.2s-2.5,2-3,3.7
					c0,0,2.9,5.8,4.6,7.6c1.8,2,4.9,0,5.8-2.2C567.5,261.2,566.8,249.3,565.9,248.7z"/>
				<g>
					<path class="st13" d="M561,262.4c-0.1,0.7-0.2,1.5-0.7,2.1c-0.1,0.1-0.3,0.3-0.5,0.2c-0.2,0-0.4-0.2-0.5-0.3
						c-0.2-0.3-0.4-0.6-0.6-1c-0.7-1.4-1.2-2.8-1.6-4.2l0.3,0.1c-0.6,0.5-1.2,1.1-1.7,1.7c-0.5,0.6-1,1.2-1.2,2l0-0.1
						c1.1,2,2.2,4.1,3.4,6c0.6,0.9,1.3,2,2.3,2.2c1,0.2,2.2-0.3,3-1c0.4-0.4,0.8-0.8,1-1.3c0.3-0.5,0.5-1,0.6-1.6
						c0.4-1.1,0.7-2.2,0.9-3.3c0.5-2.3,0.7-4.6,0.9-6.9c0,2.3-0.2,4.6-0.6,6.9c-0.2,1.1-0.5,2.3-0.8,3.4c-0.2,0.6-0.4,1.1-0.6,1.6
						c-0.3,0.5-0.7,1-1.1,1.4c-0.9,0.8-2.1,1.4-3.3,1.2c-0.6-0.1-1.2-0.5-1.6-1c-0.4-0.4-0.7-0.9-1.1-1.4c-1.3-2-2.4-4-3.4-6.1
						l0-0.1l0-0.1c0.3-0.8,0.8-1.5,1.3-2.1c0.5-0.6,1.1-1.2,1.8-1.7l0.2-0.2l0.1,0.2c0.4,1.4,0.9,2.8,1.5,4.2c0.1,0.3,0.3,0.7,0.5,1
						c0.1,0.1,0.2,0.3,0.4,0.3c0.2,0,0.3-0.1,0.5-0.2C560.8,263.9,560.9,263.1,561,262.4z"/>
				</g>
				<path class="st2" d="M553.9,256c-0.1,0.1-4.9-1.1-5.1,1.3c-0.3,2.4,2.8,2.9,4.2,2.5l1.4,2.6l2.5-3.6l-1.3-2.5
					c0,0-0.3-2.7-0.9-2.4C554,254.2,554.3,255,553.9,256z"/>
				<path class="st16" d="M557.1,258.5c0,0-3.8,3.8-3.4,4.4c0.4,0.6,0.7,2,1.3,1.4c0.6-0.6,3.2-4,3-4.5
					C557.8,259.4,557.6,258,557.1,258.5z"/>
			</g>
		</g>
		<g>
			<g>
				<polygon class="st47" points="586.2,283.5 604.6,273.8 635.4,291.4 615.8,302 				"/>
				<polygon class="st48" points="586.2,283.5 586.2,286.9 614.3,305.6 614.3,327.6 615.8,328.9 615.8,302 				"/>
				<polygon class="st49" points="615.8,328.9 615.8,302 635.4,291.4 635.4,318.6 632.7,320.5 632.7,297 618.1,305.6 618.1,327.6 
									"/>
				<polygon class="st48" points="630.8,319.6 632.7,320.5 632.7,297 630.8,298.1 				"/>
			</g>
			<polygon class="st13" points="625.2,289.7 626.3,288.4 626.3,273.2 625.2,273.7 			"/>
			<g>
				<polygon class="st30" points="597.2,287.4 604,282.9 618,291.4 610.4,296.7 				"/>
				<polygon class="st13" points="618,293.6 618,291.4 610.4,296.7 				"/>
			</g>
			<g>
				<path class="st30" d="M612.1,287.5c-2.5-1.6-2.4-2.7-1.6-3.3c0.9-0.6,2.5-0.3,4.3,0.8c1.8,1.1,4.1,3.5,3.1,4.1
					C616.9,289.7,614.4,289,612.1,287.5z"/>
				<path class="st38" d="M613.1,282.3c0,0,0,2,0,2.8s2,2.5,2,0.8s0-3.3,0-3.3L613.1,282.3z"/>
				<polygon class="st30" points="605,278.3 605,261.7 625.2,273.7 625.2,289.7 				"/>
				<polygon class="st50" points="606.2,277.5 606.2,263.9 623.9,274.4 623.9,287.5 				"/>
				<polygon class="st38" points="605,261.7 625.2,273.7 626.3,273.2 606.9,261.5 				"/>
			</g>
			<g>
				<polygon class="st3" points="609.5,247.1 609.5,251.3 615.1,254.4 615.1,250 				"/>
				<polygon class="st36" points="605.9,241.5 605.9,243.8 609.5,246 609.5,243.4 				"/>
				<polygon class="st0" points="602.4,255.8 602.4,249 611.4,254.1 611.4,261.2 				"/>
				<polygon class="st4" points="613.3,256.9 613.3,260.6 618.3,263.7 618.3,259.5 				"/>
				<polygon class="st7" points="617.3,252.4 617.3,256.1 622.4,259.2 622.4,255 				"/>
			</g>
		</g>
		<g>
			<g>
				<path class="st20" d="M595.3,318c0,0-0.6,1.7,0.4,2.2c1,0.5,3.6-0.2,5.4-1.2c1.8-1,2.3-1.8,0.4-1.8c-2-0.1-3.4,0-3.4,0
					L595.3,318z"/>
				<path class="st30" d="M599.4,301.3l0.1,16.1c0,0-1.3,1.8-4.2,1.2l0.3-11.8l-2.2-2L599.4,301.3z"/>
			</g>
			<g>
				<path class="st20" d="M600.4,320.5c0,0-0.6,1.7,0.4,2.2c1,0.5,3.6-0.2,5.4-1.2c1.8-1,2.3-1.8,0.4-1.8c-2-0.1-3.4,0-3.4,0
					L600.4,320.5z"/>
				<path class="st38" d="M604.7,303.6l-0.1,16.5c0,0-1.3,1.8-4.2,1.2l0.3-11.8l-2.2-2L604.7,303.6z"/>
			</g>
			<g>
				<path class="st51" d="M582.7,320.4c0,1-0.8,1.7-1.7,1.7c-1,0-1.7-0.8-1.7-1.7c0-1,0.8-1.7,1.7-1.7
					C581.9,318.6,582.7,319.4,582.7,320.4z"/>
				<path class="st51" d="M583.4,327.6c0,1-0.8,1.7-1.7,1.7c-1,0-1.7-0.8-1.7-1.7c0-1,0.8-1.7,1.7-1.7
					C582.6,325.9,583.4,326.6,583.4,327.6z"/>
				<path class="st51" d="M595.8,327.6c0,1-0.8,1.7-1.7,1.7c-1,0-1.7-0.8-1.7-1.7c0-1,0.8-1.7,1.7-1.7
					C595,325.9,595.8,326.6,595.8,327.6z"/>
				<path class="st51" d="M596.9,320.5c0,1-0.8,1.7-1.7,1.7c-1,0-1.7-0.8-1.7-1.7c0-1,0.8-1.7,1.7-1.7
					C596.1,318.8,596.9,319.6,596.9,320.5z"/>
				<path class="st25" d="M586.2,314.6c0,0,0,6.5,0,7.6s1.1,1.8,1.9,2c0.8,0.1,1.8-0.7,1.8-2.1s0-6.8,0-6.8L586.2,314.6z"/>
				<path class="st25" d="M586.7,321.5c0,0-5.5,3.3-6.1,3.8c-0.6,0.6,1,2.9,3.1,1.7c2.1-1.2,4.4-3.4,4.4-3.4L586.7,321.5z"/>
				<path class="st25" d="M587.3,320.6c0,0-3.6-2.8-5-2.9c-1.4-0.1-2.8,1.6-1.3,2.3c1.5,0.7,5.4,3,5.4,3L587.3,320.6z"/>
				<path class="st25" d="M588.5,320.4c0,0,3.8-2.1,5-2.4c1.2-0.3,4,0.4,1.6,2c-2.4,1.5-6.1,3.4-6.1,3.4L588.5,320.4z"/>
				<path class="st25" d="M588.5,324.2c0,0,4,2.9,5.8,2.9c1.7-0.1,2.8-1.2,1.1-2.2c-1.6-1-5.2-2.8-5.2-2.8L588.5,324.2z"/>
				<path class="st22" d="M590.4,317c-1.8,0.1-10-4.2-11.9-5.2c-1.8-0.9-0.8-5-0.8-5l22.9,2.2c0,0,0.1,2.1,0,2.9
					S594.3,316.7,590.4,317z"/>
				<path class="st26" d="M577.8,306.8c1.2-1,8-3.9,9.2-4.3c1.2-0.4,9.9,3.4,12.3,5c2.4,1.6,1.7,1.7-0.7,2.9s-5.9,4.3-9.2,3
					C586.1,311.9,576.5,307.8,577.8,306.8z"/>
			</g>
			<g>
				<path class="st30" d="M589.9,303.6c0,0,6.8-4.2,7.8-4.2c1,0,1.9,0.2,1.7,3l-7.7,4.4L589.9,303.6z"/>
				<path class="st2" d="M600.1,291.4c0,0,1.6-1.1,2.6-1.1c1,0,2.3,0.5,2.3,0c0-0.5-1.4-0.6-1.6-1.1c-0.2-0.4,1.5-0.6,2.3-0.6
					c0.8,0.1,1.1-0.9-1-1.7c-2-0.8-6.2,1.6-6.2,1.6L600.1,291.4z"/>
				<polygon class="st2" points="589.1,281.1 589.1,276.7 593.1,278.6 593.1,281.5 				"/>
				<path class="st2" d="M589.4,274.4c0,0,0.2,1.3,1.1,3.1c0,0,1.9,3.1,4.6,2.4c2.7-0.8,2.9-2.2,2.2-4.8c-0.7-2.6-1.3-5.9-3.1-5.9
					C592.4,269.2,588.9,270.3,589.4,274.4z"/>
				<path class="st13" d="M589.4,274.4c0,0,1.7-1.4,1.7-3.6c0,0,3,0.8,5.9-0.7c0,0-0.5-0.8-1.2-0.9c0,0,2,0,3.4-0.5
					c0,0-1.8-1.3-4.4-0.9c0,0,2.5-1.5,3-3.9c0,0-3.7,2.5-5.2,2.5c-1.5,0-5.3-0.8-6.2,0.5c0,0-1.3,0.4-0.9,4.1
					c0.4,3.7,2.5,6.5,2.5,6.5l0.8-0.3L589.4,274.4z"/>
				<path class="st2" d="M590.5,277.5c0,0-1.3,0.5-2.3-1.1c-1-1.6-0.1-3,1.2-1.9C590.7,275.4,590.5,277.5,590.5,277.5z"/>
				<path class="st16" d="M595,276.2c-1-0.5-2.1-0.1-1.8,0.9c0.2,1,1.7,1.7,2.9,1.2c1.2-0.5,1.1-2.1,0.5-2
					C596,276.5,595.6,276.5,595,276.2z"/>
				<path class="st21" d="M582.4,302.9c0,1.1,2.7,3.9,7.9,3.9c5.2-0.1,6.6-1.8,6.8-2.9c0.1-1.1,0-12,0-14.6c0-2.7-0.5-5.6-2.4-7.5
					c-1.8-1.9-5.7-3.2-8.1-1.3c-3,2.4-4.5,7.3-4.5,13.7C582.2,300.4,582.4,301.8,582.4,302.9z"/>
				<path class="st21" d="M592.3,287.9c2.2,3.8,7.3,11.8,8.4,11.5c1.1-0.3,3.8-2.3,3.8-2.3s-0.5-2.7-1.3-3.2l-0.8,0.2
					c0,0-4.6-7.3-6.1-9.9C594.8,281.7,590.1,284.1,592.3,287.9z"/>
				<g>
					<path class="st52" d="M595.8,293.6c1.2,1.6,2.4,3.3,3.7,4.8c0.3,0.3,0.7,0.8,1.1,0.9c0,0,0.2,0,0.3-0.1c0.1,0,0.2-0.1,0.3-0.1
						c0.2-0.1,0.4-0.2,0.7-0.4c0.9-0.5,1.7-1.1,2.5-1.7l-0.1,0.2c-0.1-0.6-0.3-1.1-0.4-1.7c-0.1-0.3-0.2-0.5-0.3-0.8
						c-0.1-0.2-0.3-0.5-0.4-0.6l0.2,0l-0.8,0.2l-0.1,0l-0.1-0.1c-1-1.7-2-3.3-3-5c-1-1.7-2-3.3-2.9-5c1.1,1.6,2.2,3.2,3.2,4.9
						c1.1,1.6,2.1,3.3,3.1,4.9l-0.2-0.1l0.8-0.2l0.1,0l0.1,0c0.3,0.2,0.5,0.5,0.6,0.8c0.1,0.3,0.3,0.6,0.3,0.8
						c0.2,0.6,0.3,1.1,0.4,1.7l0,0.1l-0.1,0.1c-0.8,0.6-1.7,1.2-2.6,1.7c-0.2,0.1-0.5,0.3-0.7,0.4c-0.1,0.1-0.2,0.1-0.4,0.2
						c-0.1,0-0.2,0.1-0.5,0.1c-0.6-0.2-0.9-0.7-1.3-1C598,297,596.9,295.3,595.8,293.6z"/>
				</g>
				<path class="st38" d="M582.7,303.6c0,0-0.5,4.1,2.2,5.8c2.8,1.7,7.8,1.6,11.7-0.4c3.9-2,7.5-4.1,7.9-5c0.4-0.9,0-2.7-1.9-3
					c-1.9-0.3-7.1,3.5-8.2,3.9C593.3,305.3,582.7,303.6,582.7,303.6z"/>
				<path class="st2" d="M603.3,294c0,0,3.2-1.2,3.9-2c0.7-0.8,1.1-2.1,1.4-1.8c0.4,0.3-0.4,1.5-0.2,1.9c0.2,0.4,1.4-0.7,1.9-1.4
					c0.5-0.7,1.4-0.2,0.7,1.8c-0.7,2.1-6.5,4.5-6.5,4.5L603.3,294z"/>
				<polygon class="st52" points="602.7,293.5 604.6,297.8 605.6,297.3 604.2,292.4 				"/>
			</g>
			<g>
				<path class="st7" d="M579,287c-0.9-0.4-3.7,1.3-3.7,2.4l12.9,17.1c0,0,3.2-1.3,3.7-2c0.5-0.7,1.1-7.9,0-9.8
					C590.8,292.9,582.7,288.5,579,287z"/>
				<path class="st22" d="M575.4,289.4c0,1.1,0.5,9.3,0.8,10.4c0.2,1.1,10.1,6,11.4,6.6c1.3,0.6,1.5-1.6,1.5-4.8
					c-0.1-3.2,1-5.3-2.3-7.2S575.3,288.3,575.4,289.4z"/>
				<path class="st25" d="M581.7,316.1c-1-0.6-1-2.1-1.1-5c-0.1-2.9-0.4-14.1-0.4-15.4s2.6-0.8,2.8,1c0.2,1.8,0.4,16.1,0.4,17.6
					C583.3,315.7,582.3,316.5,581.7,316.1z"/>
			</g>
		</g>
		<g>
			<g>
				<path class="st5" d="M633.5,268.3l-0.3-3.1c0,0-2.8,1.2-2.7,0.3s0.3-8.3,1-8.9c0.7-0.7,5.2-1.5,5.9,2c0.7,3.5,0.3,8.1,0.3,8.1
					L633.5,268.3z"/>
				<path class="st16" d="M631.3,262.8c-0.2,0.1-0.5,0.2-0.8,0.3c0,0.5-0.1,1-0.1,1.4C632.4,263.9,632,262.4,631.3,262.8z"/>
			</g>
			<g>
				<path class="st13" d="M627.2,328.9c-2.8-1.4-3.4-2-2.4-2.4c0.9-0.5,4.5-1.1,4.5-1.1s3.4,0.5,3.4,1.7c0,1.1,0.7,3.3-0.9,3.1
					C630.1,329.9,628.9,329.7,627.2,328.9z"/>
				<path class="st13" d="M638.3,321.8c0,0-4-0.2-3.7,0.5c0.2,0.7,2.4,2.6,4.3,3.4c1.9,0.8,2.9,0.8,3,0c0.1-0.8,0-2.7,0-2.7
					L638.3,321.8z"/>
				<path class="st28" d="M627.9,325.6c0,0,2.3,2.3,4.8,1.4l0.8-26.8c0,0,2-0.1,3.5-1.2c0,0,0.5,19.6,0.8,23.2c0,0,2,1.7,4.2,1.1
					c0,0-1.2-12.5-0.9-18.1c0.3-5.6,0.5-12.9,0.5-12.9l-12.7,3C628.8,295.4,627.6,318.3,627.9,325.6z"/>
			</g>
			<path class="st3" d="M628.8,295.4c0,0,8.4,3.3,13-2.7c0,0,2.3-15.9,2.7-19.6c0.4-3.6-2-7-5.4-7.3c-3.5-0.2-8.1,3.2-8.9,6.1
				C629.4,275,628.5,288,628.8,295.4z"/>
			<path class="st23" d="M634.5,263.9c0,0,1.1-1,0.5-2.5c-0.6-1.5-1.8-0.9-2.1,0.1l-0.2-3.7c0,0-1.5,2.4-2.3,2.2
				c-0.8-0.2,0.1-1.7,0.1-1.7s-2.3,0.3-0.5-1.2c0,0-3-0.1-0.8-1.4c2.2-1.4,3.3-1.2,3.3-1.2s-0.8-1.5,0.2-1.7c1-0.2,2.7,1,2.7,1
				s6.2-1.1,4.2,0.7c0,0,4.7,1.1,2,2.1c0,0,4.8,2.7,0.8,2.9c0,0,0.7,4.2-1.1,2.3c0,0,0.8,4.9-0.8,2.7c0,0,0,3.4-1.4,1.2
				c0,0-0.4,3.3-1.5,1.1c0,0-2.2,1.1-1.4-1.7C636.2,264.9,633.2,266,634.5,263.9z"/>
			<g>
				<path class="st5" d="M616.4,276c0,0,0.1-3-0.7-2.8c-0.7,0.2-0.7,1.8-0.7,1.8s-1.8-0.3-2,0.7c-0.3,1,0.1,3.2,1.2,2.8
					c0,0,6.5,7.2,8.1,8.1c1.6,0.9,2.8-1.8,2.8-1.8l-2.4-3.3c0,0-1.3,0.3-3.7-2.2C616.7,276.7,616.4,276,616.4,276z"/>
				<path class="st3" d="M622.8,281.4c0,0-0.1,3.5,1.2,5.5c0,0,7-6,8.8-8.5c1.8-2.5,1.1-6.8,0-7.8c-1.1-1-1.6-1-4.6,3.1
					C625.2,277.9,622.8,281.4,622.8,281.4z"/>
				<g>
					<path class="st12" d="M628.1,273.8c-0.9,1.3-1.7,2.6-2.6,3.9c-0.9,1.3-1.7,2.6-2.6,3.9l0-0.1c0,0.9,0.1,1.9,0.3,2.8
						c0.2,0.9,0.4,1.8,0.9,2.6l-0.3-0.1c1.5-1.3,3.1-2.7,4.6-4c0.8-0.7,1.5-1.4,2.2-2.1c0.7-0.7,1.5-1.4,2.1-2.2
						c-1.2,1.7-2.6,3.1-4.1,4.5c-1.5,1.4-3,2.8-4.5,4.1l-0.2,0.2l-0.1-0.2c-0.5-0.9-0.8-1.8-0.9-2.8c-0.2-1-0.2-1.9-0.2-2.9l0-0.1
						l0,0c0.9-1.3,1.8-2.5,2.7-3.8C626.2,276.3,627.2,275,628.1,273.8z"/>
				</g>
				<path class="st53" d="M623.2,280.8l-1.4,0.3c0,0-0.3,4.5,0.7,6.8c0,0,1.9,0.4,2.3-1.9L623.2,280.8z"/>
			</g>
		</g>
	</g>
</g>
</svg>
