<?xml version="1.0" encoding="utf-8"?>
<!-- Generator: Adobe Illustrator 23.0.1, SVG Export Plug-In . SVG Version: 6.00 Build 0)  -->
<svg version="1.1" id="Layer_1" xmlns="http://www.w3.org/2000/svg" xmlns:xlink="http://www.w3.org/1999/xlink" x="0px" y="0px"
	 viewBox="0 0 400.2 324.6" style="enable-background:new 0 0 400.2 324.6;" xml:space="preserve">
<style type="text/css">
	.st0{opacity:0.15;fill:#050D2D;enable-background:new    ;}
	.st1{fill:#6F3D1B;}
	.st2{opacity:0.7;fill:#300E05;enable-background:new    ;}
	.st3{fill:#002845;}
	.st4{opacity:0.41;fill:#300E05;enable-background:new    ;}
	.st5{fill:#FDBC80;}
	.st6{opacity:0.14;fill:#711B09;enable-background:new    ;}
	.st7{fill:#6D3E1A;}
	.st8{opacity:0.51;fill:#300E05;enable-background:new    ;}
	.st9{fill:#E09615;}
	.st10{opacity:0.21;fill:#711B09;enable-background:new    ;}
	.st11{fill:#FDD802;}
	.st12{fill:none;stroke:#021826;stroke-width:0.5;stroke-linecap:round;stroke-linejoin:round;stroke-miterlimit:10;}
	.st13{opacity:0.25;fill:#87DDE3;enable-background:new    ;}
	.st14{opacity:0.77;}
	.st15{fill:#FFFFFF;}
	.st16{fill:#E39E67;}
	.st17{fill:#2D2D2D;}
	.st18{fill:#595959;}
	.st19{fill:#4C4C4C;}
	.st20{fill:#5D7AB5;}
	.st21{opacity:0.41;fill:#050D2D;enable-background:new    ;}
	.st22{fill:#323850;}
	.st23{fill:#367DD0;}
	.st24{fill:none;stroke:#1C1C1B;stroke-width:0.7114;stroke-miterlimit:10;}
	.st25{fill:none;stroke:#021826;stroke-width:0.4692;stroke-linecap:round;stroke-linejoin:round;stroke-miterlimit:10;}
	.st26{opacity:0.26;fill:#FFFFFF;enable-background:new    ;}
	.st27{fill:#C7C5C6;}
	.st28{opacity:0.34;fill:#303030;enable-background:new    ;}
	.st29{fill:#22303F;}
	.st30{fill:#284179;}
	.st31{fill:none;stroke:#FFFFFF;stroke-width:0.75;stroke-miterlimit:10;}
	.st32{fill:#F3FFFF;}
	.st33{fill:#99CFD9;}
	.st34{fill:none;stroke:#FFFFFF;stroke-width:1.5;stroke-miterlimit:10;}
	.st35{fill:none;stroke:#FFFFFF;stroke-width:1.5;stroke-linecap:round;stroke-linejoin:round;stroke-miterlimit:10;}
	.st36{fill:none;stroke:#99CFD9;stroke-miterlimit:10;}
	.st37{opacity:0.14;fill:#FFFFFF;enable-background:new    ;}
	.st38{opacity:0.19;fill:#300E05;enable-background:new    ;}
	.st39{fill:none;stroke:#99CFD9;stroke-width:2;stroke-linecap:round;stroke-linejoin:round;stroke-miterlimit:10;}
	.st40{fill:#711B09;}
	.st41{opacity:0.3;fill:#050D2D;enable-background:new    ;}
	.st42{fill:#095D9D;}
</style>
<g id="OBJECTS">
	<g>
		<path id="XMLID_157_" class="st0" d="M206.6,80.6c0,0-1.7,1.7,2.3,4.2s7.5,5.2,7.6,7s12.6,17.7,14,18.6c1.5,0.9,6.3,1,11.2,0.4
			s23.8-11,27.6-15.7c3.9-4.7-8.8-15-18.9-15.3c-10.1-0.3-24,4.9-24,4.9s-1.7-2.5-5.8-3.1S212,77.2,206.6,80.6z"/>
		<path id="XMLID_46_" class="st1" d="M212.6,86c3.6,2.4,3.3,2.7,5.7,5.7l4.7-3.3c0,0-0.7-0.6,0-2.3c0.7-1.7-0.2-3.3-3.9-2.9
			c-3.6,0.3-5-1.4-7-2.5c-1.5-0.8-3.7-1.3-4.9-0.7l0,0c-0.3,0.2-0.6,0.4-0.7,0.7C206,82.1,209,83.6,212.6,86z"/>
		<path id="XMLID_43_" class="st2" d="M207.3,79.9c2.1-0.7,4.1,1.1,5.4,2.2c1.3,1.1,4.1,4,6.1,3.6c2-0.5,2.1,1.3,1.5,2.3
			s-1.9,3.7-1.9,3.7l4.7-3.3c0,0-0.7-0.6,0-2.3c0.7-1.7-0.2-3.3-3.9-2.9c-3.6,0.3-5-1.4-7-2.5C210.6,79.7,208.4,79.3,207.3,79.9z"/>
		<path id="XMLID_337_" class="st3" d="M237.4,83L237.4,83c3.8,5.9,5.4,15.6,5.8,16.3c3.8,9,20.6,9.6,18.2-0.6
			c-2.4-10.2-9.4-18-9.4-18c-0.6-0.7-12.9,1.9-14.4,2.3C237.4,83,237.4,83,237.4,83z"/>
		<path id="XMLID_37_" class="st4" d="M237.4,83c3.8,5.8,5.4,15.5,5.7,16.3c3.8,9,20.6,9.6,18.2-0.6c-2.4-10.2-9.4-18-9.4-18
			c-0.6-0.7-12.9,1.9-14.4,2.3c0.3,0.2,0.6,0.4,1,0.6c0,0,5.7,1.6,9.8,1.2s9.1,17.2,4.4,17.8s-6.7-1.1-8.3-5.7
			C243.2,93.3,241.4,84.8,237.4,83z"/>
		<path id="XMLID_60_" class="st5" d="M248,53.2c1,3.2,2.9,6.9,2.9,6.9c3.3,9.1,13.2,15.2,14,16.5c0.8,1.4,0.4,2.3,0.9,3
			c0.3,0.4,0.3,1.4,0.6,1.8l0,0c0.2,0.3,0.4,0.3,0.8-0.3c1.1-1.4,0.8-3.2,0.8-3.2c0.6,0.9,1.8,1.6,2.4,2c0.5,0.4,0.3,2.5,0.7,4
			c0.1,0.3,0.2,0.6,0.4,0.8c0.9,1.4,1.8,1.8,1.8,0v-4.8c0-1.2-0.8-2.7-5.2-5.9c-4.4-3.2-5-5-10.3-12.9c-2.8-4.2-4.2-7.1-5-8.9
			c-0.7-1.6-0.8-2.4-0.8-2.4C246.9,46.4,246.8,49.5,248,53.2z"/>
		<path id="XMLID_33_" class="st6" d="M248,53.2c1,3.2,2.9,6.9,2.9,6.9c3.3,9.1,13.2,15.2,14,16.5c0.8,1.4,0.4,2.3,0.9,3
			c0.3,0.4,0.3,1.4,0.6,1.8c0.1-1.1,0.1-3.6-0.6-5c-1-1.8-8.3-6.3-11-10.5s-2.8-7.6-2.5-9.2c0,0,0.7-1.4,1.7,1
			c1,2.5,7.2,12.8,10,15.1c2.9,2.3,9.5,4.5,7.1,11c0.1,0.3,0.2,0.6,0.4,0.8c0.9,1.4,1.8,1.8,1.8,0v-4.8c0-1.2-0.8-2.7-5.2-5.9
			c-4.4-3.2-5-5-10.3-12.9c-2.8-4.2-4.2-7.1-5-8.9C250.9,52.6,249.2,52.9,248,53.2z"/>
		<path id="XMLID_56_" class="st7" d="M230,35.2c0.1,0.1,0.1,0.3,0.2,0.4c0.2,0.5,0.4,1,0.7,1.5c0.7,1.3,1.7,2.5,2.9,3.6
			c0.3,0.3,0.7,0.6,1,0.8c2.2,1.6,4.9,3,7.8,4c0.1,0,0.1,0,0.2,0.1c4.4,1.6,9.4,2.5,13.9,2.7c2.7,0.1,5.2-0.1,7.3-0.6
			c0,0-8.2-7.1-2.7-22c5.5-14.9,1.7-19.3-2.9-22.8c-1.5-1.2-3.1-2-4.7-2.4c-3.4-1-7-0.5-10.4,1.2c-5.2,2.6-7.4,6.5-9.3,12
			C232.2,18.8,227.2,27.3,230,35.2z"/>
		<path id="XMLID_22_" class="st8" d="M230.2,35.7c0.2,0.5,0.4,1,0.7,1.5c0.7,1.3,1.7,2.5,2.9,3.6c0.5,0.2,1,0.4,1.5,0.8
			c4.7-2.3,14.2-7.2,14.2-7.2v-18l-3.4,4.2l-7.5-5.3c0,0-3,2.2-0.1,5.1c0,0-1.1,2.1,0,5.4c0,0-0.4,2.6-1.1,4c0,0-1-0.7-2,2.4
			C235.4,32.2,232,32.2,230.2,35.7z"/>
		<path id="XMLID_48_" class="st4" d="M241.3,32.6c0,0,1.3,9.5,1.5,13.1c7.1,2.5,15.6,3.4,21.1,2.1c0,0-8.2-7.1-2.7-22
			c5.5-14.9,1.7-19.3-2.9-22.8c-1.5-1.2-3.1-2-4.7-2.4c2.6,1.6,9.3,6.9,4.3,17.7l2.3,2L241.3,32.6z"/>
		<path id="XMLID_29_" class="st2" d="M238.5,31c0,0,2,7.3,4.1,14.6c0.1,0,0.1,0,0.2,0.1c4.4,1.6,8.6,2.5,13,2.7
			c-1.2-12.6-7.9-11.6-7.9-11.6l-1.3-2.4c1.1,0,2.2,0.5,7.1-2.7c4.9-3.3,6.8-11.8,6.8-11.8L238.5,31z"/>
		<path id="XMLID_61_" class="st9" d="M244.4,52.4c0.4,1.3,0.9,2.5,1.4,3.5c0,0,1.1,0.4,3.1,0.3c1.8-0.1,4.2-0.8,6.9-2.6
			c0,0-1.9-14.4-7.2-15.6c-0.2,0-0.3,0-0.5-0.1l0,0c-0.1,0-0.2,0-0.3,0c-0.2,0-0.4,0-0.6,0c-2.7,0.5-3.8,3-4,6
			C243,46.6,243.6,49.8,244.4,52.4z"/>
		<path id="XMLID_47_" class="st10" d="M244.4,52.4c1.4,1.2,3,2.5,4.4,3.7c1.8-0.1,4.2-0.8,6.9-2.6c0,0-1.9-14.4-7.2-15.6
			c2.9,2.7,4,8.9,4.7,12c0.9,3.7-1.7,3.5-1.7,3.5c-1.4-13.4-3.4-15.4-3.6-15.5l0,0c0,0-2.6,3.3-4.9,6.1
			C243,46.6,243.6,49.8,244.4,52.4z"/>
		<path id="XMLID_334_" class="st3" d="M221,96.7c0.2,0.3,0.5,0.6,0.8,1l0.1,0.1c2.9,3.6,8.4,10.3,10.9,11.6c2.9,1.5,6.7,1.5,7.8,0
			s3.3-2.3,2.5-10.9c-0.7-8.6-5-15.7-5-15.7c-5.7,0.3-11.6-5-11.6-5c-3.4,3.9-0.9,10.6,0.3,13.2c-2.5-4.9-3.4-2.9-7.1-0.5
			C215.8,93.1,218.5,93.6,221,96.7z"/>
		<path id="XMLID_36_" class="st4" d="M221.9,97.9c2.9,3.6,8.4,10.3,10.9,11.6c2.9,1.5,6.7,1.5,7.8,0s3.3-2.3,2.5-10.9
			c-0.7-8.6-5-15.7-5-15.7c-5.7,0.3-11.6-5-11.6-5s1.2,2.7,6.6,6.6c5.4,3.9,6.6,21.7,3.8,23.1C234.1,108.8,228.3,105.4,221.9,97.9z"
			/>
		<path id="XMLID_306_" class="st11" d="M226.5,77.8c0.3,0.7,0.9,1.3,1.7,1.8c4.1,2.7,8,3.8,12.6,3.3s9.1-2.1,11.1-2.3
			c2-0.2-0.2-2.3,0-4.3c0.1-2,1-12.7-0.9-23.1c-1.9-10.3-1.7-15.8-6.7-19.4c0,0-3-1.8-6.4-1.3c-0.4,0.1-0.9,0.2-1.3,0.3
			c0,0-2.2-0.5-5,2.2c-2.7,2.7-1.8,21.8-3.3,29.7C227,71.2,225.1,75.1,226.5,77.8z"/>
		<path id="XMLID_255_" class="st10" d="M226.5,77.8c0.3,0.7,0.9,1.3,1.7,1.8c4.1,2.7,8,3.8,12.6,3.3s9.1-2.1,11.1-2.3
			c2-0.2-0.2-2.3,0-4.3c0.1-2,1-12.7-0.9-23.1c-1.9-10.3-1.7-15.8-6.7-19.4c0,0-3-1.8-6.4-1.3c-1.4,0.8-2.4,1.4-2.4,1.4
			s0.3,3.5,6.3,5.2c5.9,1.7,4.9,37.2,1.4,39.5C239.7,81.1,232.6,83.8,226.5,77.8z"/>
		<path id="XMLID_63_" class="st5" d="M225.4,56.2c0.1,0.4,0.1,0.8,0.2,1.2c2.7,17.7,13.3,25.7,15.2,27.2c1.9,1.6,4.7,5.6,6.4,6.5
			c1.6,0.9,4.4,1.7,3.4,0c-0.1-0.1-0.1-0.2-0.2-0.3c-1.6-2.1-0.6-1.1-2.3-2.4c-1.7-1.4-1.6-3.5-1.6-3.5c1.6,0.6,3.1,0.4,3.6-1.2
			c0.5-1.7-0.9-0.2-2.3-0.7c-1.4-0.5-3.5-0.7-5.8-2.1c-2.2-1.4-2.9-4.2-7-11.1c-4.1-6.8-4.1-12.6-4.1-12.6L225.4,56.2z"/>
		<path id="XMLID_10_" class="st4" d="M227.3,92.2c0,0,0.2,3.2,3.9,6.6c0,0-5.3-2.5-4.8-8.5L227.3,92.2z"/>
		<path id="XMLID_9_" class="st4" d="M242.5,91.5c0,0,0.9,3.1,5.3,5.5c0,0-5.7-1.2-6.7-7.2L242.5,91.5z"/>
		<line id="XMLID_50_" class="st12" x1="260.2" y1="26" x2="259.1" y2="23.4"/>
		<path id="XMLID_293_" class="st5" d="M239.5,19.9c-0.3,0.7-0.9,2.5-0.5,4.6v0.1c0.2,1.1,0.6,2.4,1.5,3.6c2.6,3.6,6.7,7.4,12.6,2.3
			c6.8-5.9,7.3-10.6,7.3-10.6c0.4-7.2-2.2-10.5-5.4-11.6c-2-0.7-4.2-0.6-6,0c-2.4,0.7-4.3,2.1-4.5,3.4c-0.5,3.2-2,4.1-2.5,4.3
			c-0.1,0.1-0.2,0.1-0.2,0.1c-1.1-3-2.9-2.4-4.1,0C236.4,18.5,239.5,19.9,239.5,19.9z"/>
		<path id="XMLID_51_" class="st10" d="M239,24.5L239,24.5c0.2,1.2,0.7,2.5,1.6,3.7c2.6,3.6,6.7,7.4,12.6,2.3
			c6.8-5.9,7.3-10.6,7.3-10.6c0.4-7.2-2.2-10.5-5.4-11.6h-6c-2.4,0.7-4.3,2.1-4.5,3.4c-0.5,3.2-2,4.1-2.5,4.3
			c0.4-0.2,1.4-0.6,2.4-1.6c0,0,5.5,2,6.4,2.7c0,0,1.1-1.6,1.4-2.7c0,0,0.4,1.3,0,3.1c0,0,2.8,0.8,3.5,1.3c0.7,0.6-4,10.9-9,11.3
			C241.5,30.5,239,24.5,239,24.5z"/>
		<path id="XMLID_292_" class="st13" d="M254,27.1c0.1,0.1,0.2,0.2,0.3,0.3c0.2,0.2,0.5,0.3,0.8,0.5c0,0,0.1,0,0.1,0.1
			c0.4,0.2,0.7,0.3,1,0.4c2.5,0.7,3.5-1.2,4-2.3l-4-1.9l-1-0.5l-0.8-0.4l-0.2-0.2l0,0C254.2,23.1,252.3,25.3,254,27.1z"/>
		<path id="XMLID_291_" class="st13" d="M244.3,22.8c0.1,0.1,0.2,0.2,0.4,0.3c0.2,0.2,0.5,0.4,0.9,0.5c0.1,0.1,0.3,0.1,0.5,0.2
			s0.4,0.1,0.5,0.2c3.1,1,4-1,4.5-2.2l-4.5-2l-1-0.5l-0.7-0.3l-0.3-0.1l-0.5-0.2C244,18.7,242.5,21,244.3,22.8z"/>
		<g id="XMLID_21_" class="st14">
			<path id="XMLID_281_" class="st15" d="M255.3,23.6v4.3c0.4,0.2,0.7,0.3,1,0.4v-4.2L255.3,23.6z"/>
			<polygon id="XMLID_276_" class="st15" points="254,27.1 254.2,23.1 254.5,23.3 254.4,27.4 			"/>
		</g>
		<g id="XMLID_28_" class="st14">
			<polygon id="XMLID_35_" class="st15" points="245.5,23.6 245.5,19.3 246.5,19.8 246.5,24 			"/>
			<polygon id="XMLID_27_" class="st15" points="244.3,22.8 244.5,18.9 244.8,19 244.7,23.1 			"/>
		</g>
		<path id="XMLID_249_" class="st1" d="M244.6,14c2,0.5,6,2.2,6,2.2c1.5-2.6,2-6.7,2-6.7c0.6,3.2,0,7.4,0,7.4
			c0.6,0.3,3.8,1.2,3.8,1.2c2.4-3,1.4-7,1.4-7c2.6,3.6,0.1,7.1,0.1,7.1l2.1,1.3l1.2,0.7c1.9-4.6,0.3-8.5-1.6-11
			c-0.5-0.6-1-1.2-1.5-1.6c-1.7-1.5-3.8-2.4-6-2.6C244.9,4.7,244.6,14,244.6,14z"/>
		<path id="XMLID_26_" class="st12" d="M260.2,26l-6-2.9c0,0-2.6,2.9,0.9,4.7C258.5,29.6,259.7,27.2,260.2,26z"/>
		<path id="XMLID_25_" class="st12" d="M251,21.8l-7-3.2c0,0-2.3,3.4,2,5.1C249.5,25.2,250.6,23,251,21.8z"/>
		<line id="XMLID_24_" class="st12" x1="244" y1="18.7" x2="241.3" y2="15"/>
		<line id="XMLID_23_" class="st12" x1="254.2" y1="23.1" x2="251" y2="21.8"/>
		<path id="XMLID_290_" class="st16" d="M236.9,35L236.9,35c0.2,0.3,0.4,0.5,0.7,0.6c1.9,1.1,4.6,2,6.4-0.3c0,0,0.1-1.7,1.1-2.9
			c0,0-3.9-2.3-6-7.2c0,0,0,0.2,0,0.6c0,1.1-0.3,3.9-2.2,6.3C236.3,33,236.3,34.1,236.9,35z"/>
		<path id="XMLID_201_" class="st10" d="M236.9,35c0.2,0.2,0.4,0.5,0.7,0.6c1.9,1.1,4.6,2,6.4-0.3c0,0,0.1-1.7,1.1-2.9
			c0,0-3.9-2.3-6-7.2c0,0,0,0.2,0,0.6c0.5,1.7,1.2,3.9,2.1,5.2C242.9,33.1,240.1,37.4,236.9,35C237,35,236.9,35,236.9,35z"/>
		<path id="XMLID_52_" class="st4" d="M276.5,4.3h-0.1C276.7,4.3,276.8,4.3,276.5,4.3z"/>
		<path id="XMLID_204_" class="st4" d="M260,19.6l1.2,0.7c1.9-4.6,0.3-8.5-1.6-11C259.5,9.3,261.5,15.4,260,19.6z"/>
		<path id="XMLID_12_" class="st9" d="M244,35.3c0,0-6.3,2-7-3.3l0.7-1.1c0,0-1.7-0.6-2.3,2c-0.6,2.6,2.2,4.6,5.8,4.8
			c4.6,0.3,4.4-3.1,3-3.8L244,35.3z"/>
		<path id="XMLID_49_" class="st6" d="M225.4,56.2c0.1,0.4,0.1,0.8,0.2,1.2c0,0,2,1.5,3.3,1.7s0.3,3.7,2.8,8.2s4.9,9.7,6.4,12.4
			c1.5,2.7,5.3,3.7,6.4,4.8c1,1,0.7,4.5,6.1,6.8c-0.1-0.1-0.1-0.2-0.2-0.3c-1.6-2.1-0.6-1.1-2.3-2.4c-1.7-1.4-1.6-3.5-1.6-3.5
			c1.6,0.6,3.1,0.4,3.6-1.2c0.5-1.7-0.9-0.2-2.3-0.7c-1.4-0.5-3.5-0.7-5.8-2.1c-2.2-1.4-2.9-4.2-7-11.1c-4.1-6.8-4.1-12.6-4.1-12.6
			L225.4,56.2z"/>
		<path id="XMLID_323_" class="st9" d="M223.1,55.2c0,0,0.2,0.2,0.7,0.5c1.4,0.9,5,2.4,10.8,1.2c0,0,4.7-18.7-2.6-20.1
			c-1.2-0.2-2.2-0.1-3.2,0.4l0,0C224.1,39.7,222.6,50.1,223.1,55.2z"/>
		<path id="XMLID_53_" class="st10" d="M223.8,55.7c1.4,0.9,5,2.4,10.8,1.2c0,0,4.7-18.7-2.6-20.1c-1.2-0.2-2.2-0.1-3.2,0.4
			c0.3-0.1,2.5-0.3,3,5.9C232.4,49.7,230.1,58.4,223.8,55.7z"/>
	</g>
	<g>
		<g id="XMLID_577_">
			<polygon id="XMLID_671_" class="st17" points="267,280.4 266.4,280.4 265.5,280.7 264.1,281.7 263.4,281.2 262.7,281.2 
				262.3,282.3 261.1,282.3 260.4,281.2 259.4,281.2 258.4,282.3 257,281.7 256.8,280.7 256.2,280.7 255.4,281.2 254.2,280.7 
				254.2,279.6 253.8,279.2 253,280 252.9,275.8 253.2,275.7 253.1,274.2 253.6,273.5 254.5,273.7 254.8,272.3 258,278.2 
				266.1,275.9 267,277.2 			"/>
			<path id="XMLID_663_" class="st18" d="M253,276.8l-0.1-1.1l1.1-0.1l0.1-0.8l-1-0.7l0.5-0.8l1,0.3l0.4-0.4l-0.2-1l0.7-0.6l0.7,0.6
				l0.5-0.3l0.2-0.8l1.1-0.3l0.5,0.9h0.7l0.4-1.1h1l0.5,1.1h0.8l0.6-1.1h0.7l0.3,1.1h0.8l0.6-0.7l1.1,0.3v1.2l1.1-0.5l0.7,0.7
				l-0.5,1l1.1,0.1v0.9l-1.5,0.4v0.6l0.6,0.5l-0.7,1.1l-1-0.3l-0.5,0.2v1.3l-1.4,0.4l-0.9-1l-0.6,0.2l-0.3,1.4h-1.2l-0.8-1.1H259
				l-0.8,1l-1.3-0.2l-0.3-0.9l-0.8-0.3l-0.8,0.6l-1-0.4l0.6-1l-0.5-0.3H253V276.8z M258.2,276.1c0.7,0.4,1.7,0.7,2.8,0.7
				c1.3,0,2.5-0.4,3.1-1c0,0-0.1-1.5-3.1-1.5C257.9,274.4,258.2,276.1,258.2,276.1z"/>
			<path id="XMLID_660_" class="st17" d="M261,273.1c-2,0-3.6,0.8-3.6,1.9c0,0.4,0.3,0.9,0.8,1.2c0,0-0.3-1.8,2.8-1.8
				c3.1,0,3.1,1.5,3.1,1.5c0.3-0.3,0.4-0.6,0.4-0.9C264.5,273.9,262.9,273.1,261,273.1z"/>
			<g id="XMLID_634_">
				<g id="XMLID_638_">
					<polygon id="XMLID_653_" class="st19" points="267.7,276.1 267.7,279.7 267,280.4 267,277.2 					"/>
					<polygon id="XMLID_652_" class="st19" points="265.5,278.3 265.5,281.2 264.1,281.7 264.1,278.7 					"/>
					<rect id="XMLID_651_" x="261.1" y="279.2" class="st19" width="1.2" height="3"/>
					<polygon id="XMLID_648_" class="st19" points="258.4,279.2 258.4,282.3 257,281.7 257.1,279.1 					"/>
					<polygon id="XMLID_644_" class="st19" points="255.1,278.4 255.3,281.1 254.1,280.6 254.1,278 					"/>
					<polygon id="XMLID_639_" class="st19" points="253,276.9 253,279.9 252.8,278.8 252.9,275.9 					"/>
				</g>
			</g>
			<polygon id="XMLID_578_" class="st17" points="268.6,274.7 268.3,278.3 267.7,278.9 267.7,276.1 267.1,275.6 267.1,275.1 			"/>
		</g>
		<g id="XMLID_511_">
			<polygon id="XMLID_541_" class="st17" points="290.2,275.2 289.7,275.2 288.9,275.5 287.6,276.4 287.1,276 286.4,276 
				286.1,276.9 285.1,276.9 284.4,276 283.5,276 282.7,276.9 281.5,276.4 281.3,275.6 280.7,275.5 280,276 279,275.6 279,274.6 
				278.7,274.2 277.9,274.9 277.9,271.2 278.1,271.2 278,269.8 278.4,269.2 279.3,269.4 279.5,268.2 282.4,273.4 289.4,271.3 
				290.2,272.4 			"/>
			<path id="XMLID_533_" class="st18" d="M277.9,272.1l-0.1-0.9l1-0.1l0.1-0.7l-0.9-0.6l0.4-0.7l0.9,0.2l0.4-0.4l-0.2-0.9l0.6-0.5
				l0.6,0.5l0.4-0.3l0.1-0.7l1-0.3l0.5,0.8h0.6l0.4-1h0.8l0.4,1h0.7l0.5-1h0.8l0.3,1h0.7l0.5-0.6l1,0.3v1l1-0.5l0.6,0.6l-0.4,0.9
				l1,0.1v0.8l-1.3,0.4v0.5l0.6,0.4l-0.6,0.9l-0.9-0.3l-0.5,0.2v1.1l-1.3,0.3l-0.8-0.9l-0.5,0.2l-0.2,1.2H285l-0.7-0.9h-0.9
				l-0.7,0.9l-1.1-0.2l-0.3-0.8l-0.7-0.3l-0.7,0.5L279,273l0.5-0.8l-0.4-0.2L277.9,272.1L277.9,272.1z M282.5,271.5
				c0.6,0.4,1.4,0.6,2.4,0.6c1.2,0,2.2-0.3,2.7-0.9c0,0,0-1.3-2.7-1.3C282.2,269.9,282.5,271.5,282.5,271.5z"/>
			<path id="XMLID_530_" class="st17" d="M284.9,268.8c-1.7,0-3.1,0.7-3.1,1.7c0,0.4,0.3,0.8,0.7,1c0,0-0.2-1.6,2.4-1.6
				c2.6,0,2.7,1.3,2.7,1.3c0.2-0.2,0.4-0.5,0.4-0.8C288,269.6,286.6,268.8,284.9,268.8z"/>
			<g id="XMLID_515_">
				<g id="XMLID_517_">
					<polygon id="XMLID_523_" class="st19" points="290.8,271.5 290.8,274.7 290.2,275.2 290.2,272.4 					"/>
					<polygon id="XMLID_522_" class="st19" points="288.9,273.4 288.9,276 287.6,276.4 287.6,273.7 					"/>
					<rect id="XMLID_521_" x="285" y="274.2" class="st19" width="1.1" height="2.7"/>
					<polygon id="XMLID_520_" class="st19" points="282.7,274.2 282.7,276.9 281.5,276.4 281.5,274.1 					"/>
					<polygon id="XMLID_519_" class="st19" points="279.8,273.5 279.9,275.9 278.9,275.5 278.9,273.2 					"/>
					<polygon id="XMLID_518_" class="st19" points="277.9,272.2 277.9,274.8 277.7,273.8 277.9,271.3 					"/>
				</g>
			</g>
			<polygon id="XMLID_512_" class="st17" points="291.6,270.2 291.4,273.4 290.8,274 290.8,271.5 290.3,271.1 290.3,270.6 			"/>
		</g>
	</g>
	<g>
		<g id="XMLID_817_">
			<g id="XMLID_821_">
				<polygon id="XMLID_835_" class="st15" points="34.4,182.6 59.4,194.4 75.4,190.1 87.3,186.9 62.2,175.4 58.5,176.4 				"/>
				<g id="XMLID_822_">
					<g id="XMLID_824_">
						<g id="XMLID_827_">
							<path id="XMLID_828_" class="st20" d="M55,180.8c0.4,2,7.5-1,8.5,0.4c1,1.3-5.7,4.6-3.7,7.9c1.3,2.1,9.6,1.6,15.5,1l11.9-3.2
								l-25.1-11.5l-3.8,1C56.7,177.8,54.8,179.7,55,180.8z"/>
						</g>
						<g id="XMLID_825_">
							<path id="XMLID_826_" class="st20" d="M50.4,183.3c-1.3,0.1-2.3,0.9-2.2,1.8c0.1,0.9,1.2,1.5,2.5,1.4s2.3-0.9,2.2-1.8
								C52.8,183.8,51.7,183.2,50.4,183.3z"/>
						</g>
					</g>
				</g>
			</g>
			<polygon id="XMLID_820_" class="st15" points="85.8,187.2 60.8,175.7 62.2,175.4 87.3,186.9 			"/>
			<polygon id="XMLID_819_" class="st15" points="62.2,175.4 34.4,182.6 35.7,183.3 63.4,175.9 			"/>
			<polygon id="XMLID_818_" class="st15" points="87.3,186.9 59.4,194.4 58,193.8 86,186.2 			"/>
		</g>
		<polygon id="XMLID_814_" class="st0" points="94.6,160.2 96.8,159.6 96.8,159.6 98.1,159.3 99.2,159.8 99.2,159.8 120.3,169.5 
			120.3,169.5 121.6,170 95.5,177.1 72.1,166.1 		"/>
		<path id="XMLID_811_" class="st0" d="M91.5,155.9c0,0,11.2-0.1,20.3-0.5c9.2-0.4,16.5,5.2,23.7,7.3c7.2,2,23.3-4.5,34.2-5.8
			c10.8-1.3,14.6-6.6,22.4-10.1c7.8-3.5,16.6-11.8,9.2-14.6c-7.4-2.8-5.9-3.5-11.2-4.2c-5.4-0.6-12.9,3.8-24,5.8s-19.8,3.7-25.5,6.5
			s-21.9,7.8-27.9,7.3C106.9,147.1,91.8,151.8,91.5,155.9z"/>
		<path id="XMLID_810_" class="st16" d="M114.2,121c0,0-2.2,21.9-4.4,27.9c-2.3,6-4.7,3.1-4.2,6.4c0.5,3.2,4.4-1.6,4.9-2.1
			s3.9,0.5,2.5-1.9s6.6-11.8,5.4-30.9L114.2,121z"/>
		<path id="XMLID_809_" class="st5" d="M91.5,155.9c2-0.2,6.2-3.1,8.7-3.9c2.5-0.8,16.4-4.7,25.8-21.8l-5.9-1c0,0-0.2,0.5-0.6,1.3
			c-1,1.9-3.5,5.8-8.1,9.4c-6.6,5.1-8.3,7.6-11,8.1s-4.9-0.1-6.4-0.2c-1.5,0-2.3-2-2.5-0.2s1.2,2.5,3,2.5c0,0-0.7,2.1-2.9,2.8
			c-2.1,0.7-0.7,0.1-3.1,1.5c-0.1,0.1-0.2,0.1-0.3,0.2C86.5,155.9,89.6,156.1,91.5,155.9z"/>
		<path id="XMLID_806_" class="st10" d="M91.5,155.9c2-0.2,6.2-3.1,8.7-3.9c2.5-0.8,16.4-4.7,25.8-21.8l-5.9-1c0,0-0.2,0.5-0.6,1.3
			l0,0c0,0,1.3,0.9,2.5,1.7c1.1,0.8-7.9,11.5-15.1,14.9s-9.3,4-12,6.1c-2,1.5-4.2,0.1-6.6,1.4C86.5,155.9,89.6,156.1,91.5,155.9z"/>
		<path id="XMLID_803_" class="st3" d="M145.6,152.1c0.6,1.4,1.4,2.1,2.4,2.3l0,0c3.9,1,9.8-6.7,11.3-7l-2.5-8.9
			c0,0-1.9,0.9-3.4,2.8c0.8-1.3,2.6-4.9,1.6-10.7l-10.9-1.5C144,129,142.2,144.9,145.6,152.1z"/>
		<path id="XMLID_800_" class="st21" d="M147.9,154.4c3.9,1,9.8-6.7,11.3-7l-2.5-8.9c0,0-1.9,0.9-3.4,2.8c0.8-1.3,2.6-4.9,1.6-10.7
			l-10.9-1.5c0,0,2.9,2,5.9,4.1s0.1,5.4,0,9.4c-0.1,4.1,4-1.1,5.2,1.2C156.2,146.1,153.8,154.3,147.9,154.4z"/>
		<path id="XMLID_797_" class="st22" d="M111.5,124.3L111.5,124.3c0.2,0.8,1,1.3,3.3,2c5.4,1.4,8.2,0.5,9.2-0.1
			c0.9-0.6-1-2.7-0.4-7.1c0.5-4.4-1.6-6.6-4.4-7c-2.3-0.4-3.9,0.5-4.9,1.8c-1.3,1.7-1.8,4.1-1.9,6.2
			C112.2,122,111.3,123.3,111.5,124.3z"/>
		<path id="XMLID_794_" class="st21" d="M111.5,124.3c0.1,0.7,1,1.3,3.3,1.9c5.4,1.4,8.2,0.5,9.2-0.1c0.9-0.6-1-2.7-0.4-7.1
			c0.5-4.4-1.6-6.6-4.4-7c-2.3-0.4-3.9,0.5-4.9,1.8c0,0,0.8,2.3,2.3,5C118,121.5,114.3,127.8,111.5,124.3z"/>
		<path id="XMLID_791_" class="st1" d="M182,143.5l2.2,5.1c3.4-1.3,3.3-1.6,7.5-1.8c0.2,0,0.3,0,0.5,0c4-0.1,7,0,7.2-1.4
			c0.3-1.5-2.4-2.7-4.6-2.8c-2.2-0.1-4.2,0.7-7-1.4c-1.8-1.3-3.1-1.5-3.8-1c-0.4,0.3-0.7,0.8-0.8,1.5
			C182.9,143.3,182,143.5,182,143.5z"/>
		<path id="XMLID_788_" class="st1" d="M165.1,135.6c0,0,0.8-0.1,1.1-1.8s1.7-2.4,4.3-0.5c2.6,2,4.5,1.3,6.5,1.3
			c2,0.1,4.5,1.2,4.3,2.6c-0.2,1.4-3.3,1.2-7.1,1.3c-3.9,0.1-3.8,0.5-6.9,1.7L165.1,135.6z"/>
		<path id="XMLID_785_" class="st4" d="M167.1,132.5c0.5,0.3,1.3,1,2.1,2.3c1.4,2.3,4.5,0.7,5.8,1.9c0.9,0.9,1.2,1.5-0.3,2
			c3.6-0.1,6.4,0,6.6-1.3c0.2-1.4-2.2-2.5-4.2-2.6s-3.8,0.6-6.4-1.4C168.9,132.1,167.8,132,167.1,132.5z"/>
		<path id="XMLID_782_" class="st3" d="M154.7,130.4C154.7,130.5,154.7,130.5,154.7,130.4c0,0.3,0,0.6,0.1,0.9
			c0.6,4.5,4.2,17.5,6.1,21.3c2,4,5.1,3.2,9.7,1.4c0.9-0.4,2.1-0.8,3.4-1.3c4.8-1.8,10.9-4.1,10.9-4.1c-0.9-2.7-2.1-5.9-2.1-5.9
			c-1.5-0.2-6.1-0.6-9.9,0.7c-3.5,1.2-4.5,2.7-4.6,3.2c0-0.6,0.1-2.7,0-8c-0.1-6.8-1.1-15.9-1.1-15.9c-2.8,5.8-11,7.4-12.2,7.6
			C154.7,130.4,154.7,130.4,154.7,130.4z"/>
		<path id="XMLID_779_" class="st21" d="M154.1,131c0,0,0.2,0.1,0.6,0.3c0.9,0.3,2.7,0.8,5.6,0.5c4.3-0.5,1.6,13.6,3.2,16.8
			c1.6,3.2,5.8-1.8,9.6-1.3c3.6,0.5,3.4,2.4,0.7,5.4c4.8-1.8,10.9-4.1,10.9-4.1c-0.9-2.7-2.1-5.9-2.1-5.9c-1.5-0.2-6.1-0.6-9.9,0.7
			c-3.5,1.2-4.5,2.7-4.6,3.2c0-0.6,0.1-2.7,0-8c-0.1-6.8-1.1-15.9-1.1-15.9c-2.8,5.8-11,7.4-12.2,7.6l-0.1,0.1L154.1,131z"/>
		<path id="XMLID_776_" class="st23" d="M114.4,112.2L114.4,112.2c0,0.2,0,0.3,0.1,0.4c0.5,2.5,2.7,5.2,7.2,7.4
			c4.8,2.4,23.9,11,31.6,10.9c7.7-0.1,16.4-5,13.1-11.4c-3.2-6.4-13.3-7.2-18.2-8.1c-4.9-0.8-18.1-1.5-23.2-3.9s-5.3-2.3-5.3-2.3
			C115.4,106.9,114.4,112.2,114.4,112.2z"/>
		<path id="XMLID_768_" class="st21" d="M114.4,112.2c0,0,1-5.3,5.2-6.8c0,0,0.3-0.1,5.3,2.3c5.1,2.4,18.4,3.1,23.2,3.9
			c4.9,0.8,15,1.7,18.2,8.1c3.3,6.4-5.4,11.3-13.1,11.4c-7.7,0.1-26.8-8.5-31.6-10.9c-4.5-2.3-6.7-4.9-7.2-7.4
			c-0.1-0.2-0.2-0.5-0.3-0.7C114.2,112,114.3,112.1,114.4,112.2z M120.6,118.8c2.3,1.7,18.1,7.5,21.6,8.7s10.1,2.8,13.4,0
			c3.3-2.8-2-9.2-11.8-11c-9.8-1.9-19.5-6.6-22.1-7.5c-2.6-0.8-3.3-0.3-5.1,1.3c-1.3,1.1-1.8,1.8-1.9,2.2
			C116.3,114.8,119.1,117.7,120.6,118.8z"/>
		<path id="XMLID_767_" class="st24" d="M184.1,147.3"/>
		<path id="XMLID_764_" class="st22" d="M115.5,127.6c0.1,0.2,0.3,0.3,0.5,0.5c1.3,1.1,4.3,2.7,10.2,2.9c6.9,0.2,4.1-2.1,5.2-6.5
			c1.1-4.4,1.2-10.8-5.2-11.7c-0.2,0-0.4-0.1-0.7-0.1c-3.3-0.2-6.1,1.7-7,6.7C117.6,124.7,114.6,126.5,115.5,127.6z"/>
		<line id="XMLID_763_" class="st12" x1="96.1" y1="102.1" x2="97.6" y2="101.4"/>
		<path id="XMLID_760_" class="st7" d="M101.5,97.3c7.7,0,11.4-3.2,11.4-3.2c-0.4,2.1,1.3,11.3,0.1,12.2c-1.1,0.9-3.4,3.1-4.3,3.2
			c-0.1,0-0.1,0-0.2,0c-0.7-0.2,0.2-1.5-1.7-1.5c-1.9,0-5.1-0.2-7,0.6c-1.9,0.8-1.2,0.9-1.2,0.9c0.4,3.8,2.3,6.3,6.3,6.8l0,0
			c0.6,0.1,1.2,0.1,1.9,0.1c5.3-0.1,7.8-4,9.1-7.4c1.3-3.3,5.2-2.1,5.6-10c0.4-7.8-1.3-9.4-7.3-13.2c-3.1-1.9-6.9-2.1-10.2-1.3
			c-3.3,0.8-6,2.6-6.9,4.9c-1.9,4.5-4,2.6-4.9,4.6c-0.8,1.9,1.3,3.1,8.2,3.2C100.8,97.3,101.2,97.3,101.5,97.3z"/>
		<path id="XMLID_757_" class="st4" d="M109,110.2c0.8,5.8-3.2,6.1-3.8,6.1c0.6,0.1,1.2,0.1,1.8,0.1c5.3-0.1,7.8-4,9.1-7.3
			c1.3-3.3,5.2-2.1,5.6-10c0.4-7.8-1.3-9.4-7.3-13.2c-3-1.9-6.9-2.1-10.2-1.3c3.8,0.2,5.5,3,5.7,7.5c0.1,3.9-7.3,5-9.2,5.2
			c-0.3,0-0.5,0-0.5,0s7.4,6.1,8.7,12.2C108.9,109.7,108.9,110,109,110.2z"/>
		<path id="XMLID_756_" class="st5" d="M99.2,109c0,0,0.5-0.1,1.3-0.2l0,0c2-0.3,5.6-0.7,6.4,0.2c1.1,1.2,1.7,2.2,5,0
			s2.4-5.7,2.5-8.3s-1-5.6-0.6-7.2c0,0-7.1,4.3-15.8,3.8C98,97.2,96.5,102.6,99.2,109z"/>
		<path id="XMLID_753_" class="st10" d="M100.5,108.7c2-0.3,5.6-0.7,6.4,0.2c1.1,1.2,1.7,2.2,5,0s2.4-5.7,2.5-8.3s-1-5.6-0.6-7.2
			c0,0-7.1,4.3-15.8,3.8c0,0,3.8,1.3,8.9,1.5s3,11.7,1.3,10.4C106.5,107.9,102.3,107.9,100.5,108.7z"/>
		<path id="XMLID_752_" class="st13" d="M104,101.9c0,1.5,1,2.8,2.3,3.1c0.2,0,0.4,0.1,0.6,0.1l0,0c0.3,0,0.6-0.1,0.9-0.2
			c0.2-0.1,0.5-0.2,0.7-0.4l0,0c0.7-0.6,1.2-1.5,1.2-2.6c0-1.7-1.3-3.2-2.9-3.2c-0.5,0-1,0.2-1.4,0.4c-0.3,0.2-0.5,0.4-0.7,0.7
			c-0.2,0.2-0.3,0.4-0.4,0.7c-0.1,0.2-0.1,0.4-0.2,0.6C104.1,101.3,104,101.6,104,101.9z"/>
		<path id="XMLID_751_" class="st13" d="M96.2,102.8c0.2,1.5,1.2,2.7,2.4,2.8c0.2,0,0.3,0,0.5,0l0,0c0.3,0,0.5-0.1,0.7-0.3
			c0.2-0.1,0.4-0.3,0.6-0.5c0.6-0.6,0.9-1.6,0.8-2.7c-0.2-1.7-1.5-3-2.9-2.8c-0.5,0.1-0.9,0.3-1.2,0.6c-0.2,0.2-0.4,0.5-0.6,0.7
			c-0.1,0.2-0.2,0.5-0.3,0.7l-0.1,0.6C96.1,102.2,96.1,102.5,96.2,102.8z"/>
		<g id="XMLID_748_">
			<path id="XMLID_750_" class="st15" d="M96.2,101.7l1.9,3.9c0.2,0,0.3,0.1,0.5,0.1l0,0l-2.3-4.5L96.2,101.7z"/>
			<path id="XMLID_749_" class="st15" d="M99.4,105.5l-2.7-5c0.2-0.3,0.4-0.5,0.6-0.7l2.7,5.3L99.4,105.5z"/>
		</g>
		<g id="XMLID_745_">
			<path id="XMLID_747_" class="st15" d="M104.3,100.5l2.6,4.5l0,0c-0.2,0-0.4,0-0.6-0.1l-2.2-3.9L104.3,100.5z"/>
			<path id="XMLID_746_" class="st15" d="M104.7,99.8l3.1,5l0.7-0.4l0,0l-3-5.3C105.2,99.3,104.9,99.5,104.7,99.8z"/>
		</g>
		<path id="XMLID_744_" class="st5" d="M118,104c1-0.9,1.2-3.4,0.6-4.5c-0.1-0.3-0.4-0.6-0.6-0.6c-0.1,0-0.2,0-0.3,0l0,0
			c-1.1,0-1.7,1.5-1.7,1.5C115.6,105.6,116.8,105.2,118,104z"/>
		<path id="XMLID_743_" class="st12" d="M104,101.9c0,1.7,1.3,3.2,2.8,3.2c1.6,0,2.8-1.4,2.8-3.2c0-1.7-1.3-3.2-2.8-3.2
			C105.3,98.7,104,100.1,104,101.9z"/>
		<path id="XMLID_742_" class="st25" d="M96.2,102.8c0.2,1.7,1.5,3,2.9,2.8s2.3-1.7,2.1-3.4c-0.2-1.7-1.5-3-2.9-2.8
			C96.9,99.5,95.9,101.1,96.2,102.8z"/>
		<line id="XMLID_741_" class="st12" x1="104" y1="101.9" x2="101.2" y2="102"/>
		<line id="XMLID_740_" class="st12" x1="116.1" y1="98.4" x2="109.7" y2="101.4"/>
		<g id="XMLID_707_">
			<polygon id="XMLID_737_" class="st17" points="127.6,164.2 126.5,164.2 125.1,164.7 122.8,166.4 121.7,165.6 120.5,165.6 
				119.9,167.3 118,167.3 116.8,165.6 115.1,165.6 113.5,167.3 111.2,166.4 110.8,164.8 109.8,164.7 108.5,165.6 106.6,164.8 
				106.6,163 106,162.3 104.7,163.6 104.5,156.7 105,156.7 104.8,154.2 105.6,152.9 107.2,153.3 107.5,151 112.9,160.7 126.1,156.8 
				127.6,159 			"/>
			<path id="XMLID_729_" class="st18" d="M104.7,158.4l-0.1-1.7l1.8-0.2l0.2-1.2l-1.7-1.1l0.8-1.2l1.6,0.4l0.7-0.7l-0.4-1.6l1.1-0.9
				l1.1,0.9l0.8-0.5l0.2-1.3l1.8-0.5l0.8,1.4h1.1l0.7-1.8h1.6l0.8,1.8h1.3l0.9-1.8h1.4l0.6,1.8h1.4l1-1.1l1.8,0.5v1.9l1.8-0.9
				l1.2,1.1l-0.8,1.6l1.8,0.2v1.4l-2.4,0.7l-0.1,0.9l1.1,0.8l-1.1,1.7l-1.6-0.6l-0.8,0.3v2.1l-2.3,0.6l-1.5-1.6l-0.9,0.3l-0.4,2.3
				h-2l-1.3-1.8l-1.8,0.1l-1.3,1.7l-2.1-0.3l-0.5-1.5l-1.3-0.5l-1.3,1l-1.6-0.6l1-1.6l-0.8-0.4L104.7,158.4L104.7,158.4z
				 M113.1,157.3c1.1,0.7,2.7,1.2,4.5,1.2c2.2,0,4.1-0.6,5.1-1.6c0,0-0.1-2.5-5.1-2.5S113.1,157.3,113.1,157.3z"/>
			<path id="XMLID_726_" class="st17" d="M117.7,152.3c-3.2,0-5.8,1.4-5.8,3.1c0,0.7,0.5,1.4,1.3,1.9c0,0-0.5-2.9,4.5-2.9
				s5.1,2.5,5.1,2.5c0.5-0.4,0.7-0.9,0.7-1.5C123.5,153.6,120.9,152.3,117.7,152.3z"/>
			<g id="XMLID_711_">
				<g id="XMLID_713_">
					<polygon id="XMLID_719_" class="st19" points="128.7,157.3 128.7,163.2 127.6,164.2 127.6,159 					"/>
					<polygon id="XMLID_718_" class="st19" points="125.1,160.8 125.1,165.6 122.8,166.4 122.8,161.4 					"/>
					<rect id="XMLID_717_" x="117.9" y="162.3" class="st19" width="2" height="5"/>
					<polygon id="XMLID_716_" class="st19" points="113.5,162.3 113.5,167.3 111.2,166.4 111.4,162.1 					"/>
					<polygon id="XMLID_715_" class="st19" points="108.1,161 108.4,165.4 106.5,164.6 106.5,160.4 					"/>
					<polygon id="XMLID_714_" class="st19" points="104.7,158.5 104.7,163.5 104.3,161.6 104.5,156.8 					"/>
				</g>
			</g>
			<polygon id="XMLID_708_" class="st17" points="130.1,154.9 129.7,160.8 128.7,161.8 128.7,157.3 127.7,156.5 127.7,155.6 			"/>
		</g>
		<g id="XMLID_674_">
			<polygon id="XMLID_704_" class="st17" points="99.9,171.7 99.2,171.7 98.4,172 96.9,173.1 96.3,172.6 95.6,172.6 95.2,173.6 
				94,173.6 93.3,172.6 92.2,172.6 91.3,173.6 89.9,173.1 89.6,172.1 89,172 88.2,172.6 87,172.1 87,171 86.7,170.6 85.9,171.3 
				85.8,167.1 86.1,167.1 85.9,165.6 86.4,164.8 87.4,165.1 87.6,163.6 90.9,169.6 99,167.2 99.9,168.5 			"/>
			<path id="XMLID_696_" class="st18" d="M85.9,168.2l-0.1-1.1l1.1-0.1l0.1-0.8l-1-0.7l0.5-0.8l1,0.3l0.4-0.4l-0.2-1l0.7-0.6
				l0.7,0.6l0.5-0.3l0.2-0.8l1.1-0.3l0.5,0.9h0.7l0.4-1.1h1l0.5,1.1h0.8l0.6-1.1h0.9l0.3,1.1h0.6l0.6-0.7l1.1,0.3v1.2l1.1-0.5
				l0.7,0.7l-0.5,1l1.1,0.1v0.9l-1.5,0.4v0.6l0.6,0.5l-0.7,1.1l-1-0.3l-0.5,0.2v1.3l-1.4,0.4l-0.9-1l-0.6,0.2l-0.3,1.4h-1.2
				l-0.8-1.1h-1.1l-0.8,1l-1.3-0.2l-0.3-0.9l-0.8-0.3l-0.8,0.6l-1-0.4l0.6-1l-0.5-0.3L85.9,168.2L85.9,168.2z M91,167.5
				c0.7,0.4,1.7,0.7,2.8,0.7c1.3,0,2.5-0.4,3.1-1c0,0-0.1-1.5-3.1-1.5S91,167.5,91,167.5z"/>
			<path id="XMLID_693_" class="st17" d="M93.8,164.4c-2,0-3.6,0.8-3.6,1.9c0,0.4,0.3,0.9,0.8,1.2c0,0-0.3-1.8,2.8-1.8
				s3.1,1.5,3.1,1.5c0.3-0.3,0.4-0.6,0.4-0.9C97.4,165.2,95.8,164.4,93.8,164.4z"/>
			<g id="XMLID_678_">
				<g id="XMLID_680_">
					<polygon id="XMLID_686_" class="st19" points="100.6,167.5 100.6,171.1 99.9,171.7 99.9,168.5 					"/>
					<polygon id="XMLID_685_" class="st19" points="98.4,169.6 98.4,172.6 96.9,173.1 96.9,170 					"/>
					<rect id="XMLID_684_" x="94" y="170.6" class="st19" width="1.2" height="3"/>
					<polygon id="XMLID_683_" class="st19" points="91.3,170.6 91.3,173.6 89.9,173.1 90,170.4 					"/>
					<polygon id="XMLID_682_" class="st19" points="87.9,169.8 88.1,172.4 87,172 87,169.4 					"/>
					<polygon id="XMLID_681_" class="st19" points="85.9,168.2 85.9,171.3 85.6,170.1 85.8,167.2 					"/>
				</g>
			</g>
			<polygon id="XMLID_675_" class="st17" points="101.4,166 101.2,169.6 100.6,170.3 100.6,167.5 99.9,167 100,166.4 			"/>
		</g>
		<g id="XMLID_544_">
			<polygon id="XMLID_574_" class="st17" points="115,179.6 114.5,179.6 113.7,179.9 112.5,180.8 111.9,180.4 111.2,180.4 
				110.9,181.3 109.9,181.3 109.2,180.4 108.3,180.4 107.5,181.3 106.3,180.8 106.1,180 105.5,179.9 104.8,180.4 103.8,180 
				103.8,179 103.5,178.6 102.7,179.3 102.7,175.6 102.9,175.6 102.8,174.2 103.2,173.6 104.1,173.8 104.3,172.6 107.2,177.8 
				114.3,175.7 115,176.9 			"/>
			<path id="XMLID_566_" class="st18" d="M102.7,176.5l-0.1-0.9l1-0.1l0.1-0.7l-0.9-0.6l0.4-0.7l0.9,0.2l0.4-0.4l-0.2-0.9l0.6-0.5
				l0.6,0.5l0.4-0.3l0.1-0.7l1-0.3l0.5,0.8h0.6l0.4-1h0.8l0.4,1h0.7l0.5-1h0.8l0.3,1h0.7l0.5-0.6l1,0.3v1l1-0.5l0.6,0.6l-0.4,0.9
				l1,0.1v0.8l-1.3,0.4v0.5l0.6,0.4l-0.6,0.9l-0.9-0.3l-0.5,0.2v1.1l-1.3,0.3l-0.8-0.9l-0.5,0.2l-0.2,1.2h-1.1l-0.7-0.9h-0.9
				l-0.7,0.9l-1.1-0.2l-0.3-0.8l-0.7-0.3l-0.7,0.5l-0.9-0.3l0.5-0.8l-0.4-0.2h-1.2V176.5z M107.3,175.9c0.6,0.4,1.4,0.6,2.4,0.6
				c1.2,0,2.2-0.3,2.7-0.9c0,0,0-1.3-2.7-1.3C107,174.4,107.3,175.9,107.3,175.9z"/>
			<path id="XMLID_563_" class="st17" d="M109.7,173.2c-1.7,0-3.1,0.7-3.1,1.7c0,0.4,0.3,0.8,0.7,1c0,0-0.2-1.6,2.4-1.6
				c2.7,0,2.7,1.3,2.7,1.3c0.2-0.2,0.4-0.5,0.4-0.8C112.8,174,111.4,173.2,109.7,173.2z"/>
			<g id="XMLID_548_">
				<g id="XMLID_550_">
					<polygon id="XMLID_556_" class="st19" points="115.7,175.9 115.7,179.1 115,179.6 115,176.9 					"/>
					<polygon id="XMLID_555_" class="st19" points="113.7,177.8 113.7,180.4 112.5,180.8 112.5,178.1 					"/>
					<rect id="XMLID_554_" x="109.8" y="178.6" class="st19" width="1.1" height="2.7"/>
					<polygon id="XMLID_553_" class="st19" points="107.5,178.6 107.5,181.3 106.3,180.8 106.3,178.5 					"/>
					<polygon id="XMLID_552_" class="st19" points="104.6,177.9 104.7,180.3 103.7,179.9 103.7,177.6 					"/>
					<polygon id="XMLID_551_" class="st19" points="102.7,176.6 102.7,179.2 102.6,178.2 102.7,175.7 					"/>
				</g>
			</g>
			<polygon id="XMLID_545_" class="st17" points="116.4,174.6 116.2,177.8 115.7,178.4 115.7,175.9 115.1,175.5 115.1,175 			"/>
		</g>
		<path id="XMLID_508_" class="st21" d="M116,128.1c1.3,1.1,4.3,2.7,10.2,2.9c6.9,0.2,4.1-2.1,5.2-6.5c1.1-4.4,1.2-10.8-5.2-11.7
			c-0.2,0-0.4-0.1-0.7-0.1c0.3,0.2,4.3,3.5,2.5,9.2C126.2,127.7,126.8,131.9,116,128.1z"/>
		<path id="XMLID_505_" class="st4" d="M183.9,140.1c0.5,0.3,1.4,1,2.3,2.5c1.5,2.5,5,0.7,6.3,2.1c1,1,1.4,1.6-0.4,2.1
			c4-0.1,7,0,7.2-1.4c0.3-1.5-2.4-2.7-4.6-2.8c-2.2-0.1-4.2,0.7-7-1.4C186,139.7,184.7,139.6,183.9,140.1z"/>
		<g id="XMLID_486_">
			<g id="XMLID_490_">
				<polygon id="XMLID_504_" class="st15" points="44.8,148.6 69.8,160.4 85.7,156 97.6,152.8 72.6,141.3 68.8,142.3 				"/>
				<g id="XMLID_491_">
					<g id="XMLID_493_">
						<g id="XMLID_496_">
							<path id="XMLID_497_" class="st20" d="M65.4,146.7c0.4,2,7.5-1,8.5,0.4s-5.7,4.6-3.7,7.9c1.3,2.1,9.6,1.6,15.5,1l11.9-3.2
								l-25-11.5l-3.8,1C67.1,143.8,65.2,145.6,65.4,146.7z"/>
						</g>
						<g id="XMLID_494_">
							<path id="XMLID_495_" class="st20" d="M60.7,149.2c-1.3,0.1-2.3,0.9-2.2,1.8c0.1,0.9,1.2,1.5,2.5,1.4s2.3-0.9,2.2-1.8
								C63.1,149.8,62,149.1,60.7,149.2z"/>
						</g>
					</g>
				</g>
			</g>
			<polygon id="XMLID_489_" class="st15" points="96.2,153.2 71.2,141.7 72.6,141.3 97.6,152.8 			"/>
			<polygon id="XMLID_488_" class="st15" points="72.6,141.3 44.8,148.6 46.1,149.2 73.7,141.9 			"/>
			<polygon id="XMLID_487_" class="st15" points="97.6,152.8 69.8,160.4 68.4,159.7 96.3,152.2 			"/>
		</g>
		<g id="XMLID_467_">
			<g id="XMLID_471_">
				<polygon id="XMLID_485_" class="st15" points="0,177 25,188.8 41,184.5 52.9,181.3 27.8,169.8 24,170.8 				"/>
				<g id="XMLID_472_">
					<g id="XMLID_474_">
						<g id="XMLID_477_">
							<path id="XMLID_478_" class="st20" d="M20.6,175.2c0.4,2,7.5-1,8.5,0.4c1,1.3-5.7,4.6-3.7,7.9c1.3,2.1,9.6,1.6,15.5,1
								l11.9-3.2l-25-11.5l-3.8,1C22.3,172.2,20.4,174.1,20.6,175.2z"/>
						</g>
						<g id="XMLID_475_">
							<path id="XMLID_476_" class="st20" d="M15.9,177.7c-1.3,0.1-2.3,0.9-2.2,1.8s1.2,1.5,2.5,1.4s2.3-0.9,2.2-1.8
								C18.4,178.2,17.2,177.6,15.9,177.7z"/>
						</g>
					</g>
				</g>
			</g>
			<polygon id="XMLID_470_" class="st15" points="51.4,181.7 26.4,170.1 27.8,169.8 52.9,181.3 			"/>
			<polygon id="XMLID_469_" class="st15" points="27.8,169.8 0,177 1.3,177.7 29,170.3 			"/>
			<polygon id="XMLID_468_" class="st15" points="52.9,181.3 25,188.8 23.6,188.2 51.5,180.7 			"/>
		</g>
		<g id="XMLID_448_">
			<g id="XMLID_452_">
				<polygon id="XMLID_466_" class="st15" points="32.4,167.3 52.7,176.9 65.7,173.4 75.3,170.8 55,161.4 51.9,162.2 				"/>
				<g id="XMLID_453_">
					<g id="XMLID_455_">
						<g id="XMLID_458_">
							<path id="XMLID_459_" class="st20" d="M49.1,165.8c0.3,1.6,6.1-0.8,6.9,0.3s-4.7,3.7-3,6.4c1,1.7,7.8,1.3,12.6,0.8l9.7-2.6
								l-20.4-9.3l-3.1,0.8C50.5,163.4,49,164.9,49.1,165.8z"/>
						</g>
						<g id="XMLID_456_">
							<path id="XMLID_457_" class="st20" d="M45.3,167.8c-1.1,0.1-1.9,0.7-1.8,1.5c0.1,0.7,1,1.2,2,1.2c1.1-0.1,1.9-0.7,1.8-1.5
								C47.3,168.3,46.4,167.8,45.3,167.8z"/>
						</g>
					</g>
				</g>
			</g>
			<polygon id="XMLID_451_" class="st15" points="74.2,171.1 53.9,161.7 55,161.4 75.3,170.8 			"/>
			<polygon id="XMLID_450_" class="st15" points="55,161.4 32.4,167.3 33.5,167.8 55.9,161.9 			"/>
			<polygon id="XMLID_449_" class="st15" points="75.3,170.8 52.7,176.9 51.6,176.4 74.3,170.3 			"/>
		</g>
	</g>
	<path id="XMLID_141_" class="st26" d="M218.8,21.5L218.8,21.5L218.8,21.5z"/>
	<g>
		<polygon id="XMLID_15_" class="st0" points="323.9,287.4 316,282.2 232.2,292.8 238.9,298 		"/>
		<path id="XMLID_41_" class="st0" d="M290.2,289.6l29.3,30.6l-94.3,4.4L290.2,289.6z M288.5,302.2l-28.6,12.3l39-1.6L288.5,302.2z"
			/>
		<polygon id="XMLID_81_" class="st3" points="319.9,285.4 312.1,280.2 228.2,290.9 234.9,296 		"/>
		<path id="XMLID_128_" class="st23" d="M283.8,287.8l29.3,30.6l-94.3,4.4L283.8,287.8z M282.1,300.4l-28.6,12.3l39-1.6L282.1,300.4
			z"/>
	</g>
	<g>
		<g>
			<path id="XMLID_155_" class="st0" d="M88.1,231.7c0,0,71.9,63.4,98.3,72.1c0,0,14.8,5.2,27.7-2.7c5.5-3.3,152.4-96.6,181.8-127.6
				c4.2-4.4,4.8-9.5,4-10.6c-6.5-8.4-51.5-26.9-52.2-26.7C346.9,136.5,88.1,231.7,88.1,231.7z"/>
			<path id="XMLID_69_" class="st27" d="M87.9,224.3c-0.6,4.2,0.6,8.7,3.9,12c15.8,16,46.4,40.8,81.6,62.2c4,2.4,8.5,3.5,12.9,3.4
				c0.5,0,1,0,1.5-0.1c3.3-0.4,6.6-1.4,9.5-3.3c31.9-19.7,135.7-87.1,187.9-129.3c1.4-1.1,2.3-2.5,2.9-4l0,0
				c0.4-0.9,0.5-1.9,0.6-2.9c0.9-4.9,1.9-14.7-1.8-21.4c0,0-5.6,3-6.6,8.7c-1.4-0.9-2.9-1.8-4.5-2.8c-18.4-11.2-50.4-27.6-87.9-41.3
				c-7.4-2.7-15.5-1.8-22.2,2.4c-36.9,23.2-106.4,65.1-157,97.2c-5.1,3.3-10,6.4-14.7,9.4c-0.1,0-0.1,0.1-0.2,0.1
				c-0.9-2.4-2.5-5-5.3-7.8C88.7,206.7,86.6,212.5,87.9,224.3z"/>
			<path id="XMLID_62_" class="st28" d="M187.9,286.4v15.3c3.3-0.4,6.6-1.4,9.5-3.3c31.8-19.6,135.6-87,187.8-129.2
				c1.4-1.1,2.3-2.5,2.9-4l0,0c0.4-0.9,0.5-1.9,0.6-2.9c0.9-4.9,1.9-14.7-1.8-21.4c0,0-5.6,3-6.6,8.7c-1.4-0.9-2.9-1.8-4.5-2.8
				L187.9,286.4z"/>
			<path id="XMLID_146_" class="st29" d="M91.8,221.8c15.8,16,49.9,39.8,85.1,61.2c3.4,2.1,7.1,3.2,11,3.4c4.5,0.2,9-0.9,13-3.3
				c3.6-2.2,4.7-2.6,9.5-5.6c0.4-0.3,0.8-0.5,1.3-0.8l-14.1-10.2l-97-70.5c-2.1,1.4-4.2,2.7-6.3,4C86.7,204.9,85.5,215.5,91.8,221.8
				z"/>
			<path id="XMLID_136_" class="st30" d="M100.5,196l96.5,71.6l13.4,9.9l0.3,0.2c1.4-0.9,2.8-1.8,4.3-2.8c9-5.9,19.8-13,31.6-20.9
				l0,0c43.3-28.9,97.5-66.4,132.2-94l-71.3-38.2l-17.3-9.2l-14.6-7.8l-14.9-8C220.5,121.8,149.3,164.8,100.5,196z"/>
			<path id="XMLID_162_" class="st29" d="M260.7,96.7l14.9,8l14.6,7.8l17.3,9.2l71.3,38.2c2.2-1.8,4.4-3.5,6.5-5.2
				c5.6-4.5,4.3-13.6-1.7-17.6c-12.4-8.4-36.8-21.9-67.2-34.9c-5.8-2.5-11.9-4.9-18.1-7.4c-3.4-1.3-6.8-2.6-10.3-3.9
				c-1.7-0.6-3.5-1.1-5.3-1.3c-5.8-0.8-11.8,0.5-16.9,3.7C264.2,94.5,262.5,95.6,260.7,96.7z"/>
			<path id="XMLID_65_" class="st31" d="M129.2,237.5c-1.7,4,1.1,9,6.3,11.2c5.2,2.2,10.7,0.8,12.4-3.2s-1.1-9-6.3-11.2
				S130.9,233.5,129.2,237.5z"/>
			<path id="XMLID_73_" class="st15" d="M342.6,130.5c0,2,1.6,3.6,3.6,3.6s3.6-1.6,3.6-3.6s-1.6-3.6-3.6-3.6
				C344.2,126.8,342.6,128.5,342.6,130.5z"/>
			<g id="XMLID_76_">
				<path id="XMLID_77_" class="st15" d="M335.1,125.6c0.7,0,1.4-0.4,1.8-1.1c0.5-1,0.1-2.2-0.9-2.7L296.5,102
					c-1-0.5-2.2-0.1-2.7,0.9s-0.1,2.2,0.9,2.7l39.5,19.8C334.5,125.6,334.8,125.6,335.1,125.6z"/>
			</g>
			<polygon id="XMLID_230_" class="st23" points="237.6,125 249.9,132.2 259.9,124.9 248.1,118.1 			"/>
			<polygon id="XMLID_229_" class="st32" points="249.9,132.2 328.5,177.7 339.5,170.3 259.9,124.9 			"/>
			<polygon id="XMLID_78_" class="st32" points="308.9,185.8 286.8,201.6 205.9,150.9 227,138.2 			"/>
			<polygon id="XMLID_104_" class="st33" points="284.1,176.1 268.9,186.8 286,197.8 301.3,185.9 			"/>
			<polygon id="XMLID_86_" class="st33" points="190.9,154.9 165,170.9 189.9,187.9 216.8,171.5 			"/>
			<polygon id="XMLID_80_" class="st33" points="220.4,173.7 194.1,190.6 221,208.2 246.4,190.5 			"/>
			<polygon id="XMLID_132_" class="st33" points="251,193.2 224.9,211 253.7,230.3 279.9,211.9 			"/>
			<polygon id="XMLID_87_" class="st33" points="202.6,208.3 167.4,232.5 208.1,262 245,236.4 			"/>
			<polygon id="XMLID_88_" class="st33" points="156,176.7 121.9,199.4 163.7,229.6 199.2,205.5 			"/>
			<g id="XMLID_82_">
				<g>
					<path id="XMLID_18_" class="st33" d="M273.2,174c0.5,0,1-0.3,1.3-0.7c0.4-0.7,0.2-1.6-0.5-2.1L226,143
						c-0.7-0.4-1.6-0.2-2.1,0.5c-0.4,0.7-0.2,1.6,0.5,2.1l48,28.2C272.7,173.9,273,174,273.2,174z"/>
				</g>
			</g>
			<g id="XMLID_83_">
				<g>
					<path id="XMLID_17_" class="st33" d="M266.5,178.2c0.5,0,1-0.3,1.3-0.7c0.4-0.7,0.2-1.6-0.5-2.1l-48-28.2
						c-0.7-0.4-1.6-0.2-2.1,0.5c-0.4,0.7-0.2,1.6,0.5,2.1l48,28.2C266,178.2,266.2,178.2,266.5,178.2z"/>
				</g>
			</g>
			<g id="XMLID_34_">
				<ellipse id="XMLID_103_" class="st34" cx="250.5" cy="125.3" rx="3.1" ry="2.6"/>
				<line id="XMLID_106_" class="st35" x1="246.8" y1="125.3" x2="241.7" y2="125.3"/>
			</g>
			<line id="XMLID_5_" class="st36" x1="378.8" y1="160" x2="257.5" y2="94.9"/>
		</g>
		<path id="XMLID_143_" class="st37" d="M91.8,221.8c15.8,16,49.9,39.8,85.1,61.2c3.4,2.1,7.1,3.2,11,3.4l0,0l9.1-18.8l0.5-1.1
			l78-161.7l7.2-14.9c-5.8-0.8-11.8,0.5-16.9,3.7c-1.7,1-3.4,2.1-5.2,3.3C220.4,122,149.2,165,100.4,196.2c-2.1,1.4-4.2,2.7-6.3,4
			C86.7,204.9,85.5,215.5,91.8,221.8z"/>
		<path id="XMLID_59_" class="st37" d="M246.5,254L246.5,254l60.9-132.2l9-19.5c-5.8-2.5-11.9-4.9-18.1-7.4l-8.1,17.6L215,274.8
			C224,269,234.7,261.8,246.5,254z"/>
	</g>
	<polygon id="XMLID_234_" class="st38" points="279.8,141.4 246.7,111.9 276.7,110.3 307.1,137.8 	"/>
	<polygon id="XMLID_207_" class="st32" points="280.1,141.7 246.7,86.2 270.8,82.6 306.7,137.9 	"/>
	<line id="XMLID_206_" class="st39" x1="300" y1="135.7" x2="269.4" y2="85.6"/>
	<line id="XMLID_205_" class="st39" x1="285" y1="123.7" x2="269" y2="97.5"/>
	<path id="XMLID_202_" class="st40" d="M116.1,100.3"/>
	<path id="XMLID_187_" class="st10" d="M116.1,100.3c0,0,0.6-1.5,1.7-1.5l0,0c0.1,0,0.2,0,0.3,0c0.3,0.1,0.5,0.3,0.6,0.6
		c0.6,1.2,0.4,3.6-0.6,4.5C116.8,105.2,115.6,105.6,116.1,100.3z M116.5,103.2c0,1.1,1.5,0.8,1.3-1.4c-0.2-2.2-0.9-1.5-0.9-1.5v-0.1
		c-0.3,0.2-0.4,0.3-0.5,0.5C116.4,102,116.5,102.1,116.5,103.2z"/>
	<path id="XMLID_186_" class="st33" d="M281.5,132.8c0,1.5,1.4,2.7,3.2,2.7c1.8,0,3.2-1.1,3.2-2.6s-1.4-2.7-3.2-2.7
		C282.9,130.2,281.5,131.3,281.5,132.8z"/>
	<path id="XMLID_185_" class="st33" d="M257.5,91.6c0,1.5,1.4,2.7,3.2,2.7s3.2-1.1,3.2-2.6s-1.4-2.7-3.2-2.7
		C259,89,257.5,90.2,257.5,91.6z"/>
	<g>
		<path id="XMLID_100_" class="st0" d="M307.3,265.9l30.9,19.5c0,0,10.7,3.4,13,5.8c2.2,2.4,11.4,1.3,8.3-3.2
			c-3.1-4.5-8.6-8.9-3.1-6.4s5.7,3.5,8.9,2.3c3.2-1.2,10.5,6.1,13.5,7.2s13.1-4.7,7.7-11.1c-5.4-6.4-12.3-13.8-21.2-15.8
			s8.3-3.1,6.7-14.7c-1.7-11.6-36.6-14.6-36.6-14.6L307.3,265.9z"/>
		<path id="XMLID_620_" class="st1" d="M339.1,283.6C339.1,283.7,339.2,283.7,339.1,283.6c0.2,0.1,0.3,0.1,0.4,0.1
			c3.2,1.3,3.5,1,6.8,3.8c1.3,1.1,2.4,2,3.3,2.6c1.5,1,2.5,1.4,3.3,0.7c1.3-1,0.5-2.9-1.1-4.5s-3.7-2.4-4.4-6.1
			c-0.7-3.6-2.5-4.1-4-2.9s-2.3,0.7-2.3,0.7l-1.9,5.3L339.1,283.6z"/>
		<path id="XMLID_628_" class="st1" d="M364.8,281.5c3.6,1.5,3.7,1.1,7.1,3.9c1.1,1,2.1,1.8,3,2.4c1.6,1.2,2.8,1.6,3.6,1
			c1.3-1,0.5-2.9-1.1-4.5c-1.6-1.6-3.7-2.5-4.4-6.1c-0.7-3.6-2.5-4.1-4-2.9c-1.4,1.2-2.3,0.7-2.3,0.7L364.8,281.5z"/>
		<path id="XMLID_626_" class="st4" d="M364.8,281.5c0,0,2.5-1.9,3.4-3.6s2.7-0.8,2.6,1.2c-0.1,1.9,7.6,6.8,4.1,8.7
			c1.6,1.2,2.8,1.6,3.6,1c1.3-1,0.5-2.9-1.1-4.5c-1.6-1.6-3.7-2.5-4.4-6.1c-0.7-3.6-2.5-4.1-4-2.9c-1.4,1.2-2.3,0.7-2.3,0.7
			L364.8,281.5z"/>
		<path id="XMLID_354_" class="st4" d="M339.2,283.5c0,0.1,0,0.1,0,0.2c0,0.2,0,0.4,0,0.4s0.1-0.1,0.3-0.3c0.7-0.6,2.4-2,3-3.3
			c0.9-1.7,2.7-0.8,2.6,1.2c-0.1,1.9,7.2,6.6,4.4,8.6c1.5,1,2.5,1.4,3.3,0.7c1.3-1,0.5-2.9-1.1-4.5s-3.7-2.4-4.4-6.1
			c-0.7-3.6-2.5-4.1-4-2.9s-2.3,0.7-2.3,0.7L339.2,283.5z"/>
		<path id="XMLID_621_" class="st3" d="M336.9,271.3c1,0.9,2.7,1.9,4.8,2.9c5.6,2.7,13.9,5.4,16.1,5.8c3.1,0.5,6.3,2.3,6.3,2.3
			c3.3-3.5,4-8.4,4-8.4s-5.3-1.3-11.4-5.1c-6.2-3.8-9.1-3.5-9.1-3.5c3.7-13,2.4-20.8,2.4-20.8c5.5-9.8,1.8-15.3,1.8-15.3l-7,2.3
			l-0.4,0.1c1.7,7.8-1.5,12.7-4.3,15.4c-1.9,1.8-3.7,2.6-3.7,2.6c-0.1,4-0.7,8-1.1,11.6C334.9,265.7,334.9,269.4,336.9,271.3z"/>
		<path id="XMLID_219_" class="st21" d="M341.7,274.2c5.6,2.7,13.9,5.4,16.1,5.8c3.1,0.5,6.3,2.3,6.3,2.3c3.3-3.5,4-8.4,4-8.4
			s-5.3-1.3-11.4-5.1c-6.2-3.8-9.1-3.5-9.1-3.5c3.7-13,2.4-20.8,2.4-20.8c5.5-9.8,1.8-15.3,1.8-15.3l-7,2.3c0.3,0.3,0.7,0.6,1.2,0.9
			c0,0-2.6,2.5-1,2c1.6-0.5-0.2,5-0.8,10.1c-0.1,0.6,2.8,6.5-0.1,13.1c-2.9,6.6-2.1,9.6-0.1,11.2s3,0.1,6.1,1.1
			c3.1,1,5.7,3.2,3.3,5.6C351.2,277.9,346.8,275.7,341.7,274.2z"/>
		<path id="XMLID_359_" class="st41" d="M335.3,261.2c2.6-3.5,5.3-8.6,5.4-16.1c-2.2,2.1-4.2,3-4.2,3
			C336.4,252.6,335.7,257.2,335.3,261.2z"/>
		<path id="XMLID_592_" class="st3" d="M307.3,265.9c0.5,1.4,2.5,3.2,5.3,5.1c0,0,0,0,0.1,0c0.1,0.1,0.3,0.2,0.6,0.4
			c8.4,5.5,22.9,11.9,25,14c0,0,3.5-3.2,4.6-8.6c0,0-4.8-2.8-8.9-5.7c-4.1-2.8-7.2-7.1-14.6-9.8c0,0,4.5-1.9,7.6-5.1
			c3.1-3.2,5.3-5.9,7-6.2c1.8-0.3,10.2-1.4,11.9-9.8c1.7-8.3-0.7-8.8-0.7-8.8l-16.8-1.7c0,0-0.7,1.8-5.8,9.1
			C317.4,246.3,305.5,260.3,307.3,265.9z"/>
		<path id="XMLID_257_" class="st21" d="M313.2,271.4c8.4,5.5,22.9,11.9,25,14c0,0,3.5-3.2,4.6-8.6c0,0-4.8-2.8-8.9-5.7
			c-4.1-2.8-7.2-7.1-14.6-9.8c0,0,4.5-1.9,7.6-5.1c3.1-3.2,5.3-5.9,7-6.2c1.8-0.3,10.2-1.4,11.9-9.8c1.7-8.3-0.7-8.8-0.7-8.8
			l-16.8-1.7c0,0,2.3,1.4,5.1,3.3c2.9,1.9,1.3,8.5-3.2,10.3s-5.9,8.5-11.9,11.4c-6,2.9-3.6,6.1,0,8.1s13.8,8.8,11.5,12.6
			C327.7,279.2,316.3,273.3,313.2,271.4z"/>
		<path id="XMLID_609_" class="st5" d="M267.3,195.8c1.7,1.3,6.9,2.4,9.4,3.7c2.4,1.3,15.6,8.9,35.4,3.3l-3.6-5.2
			c0,0-2.8,1.2-7.4,1.6c-2,0.1-4.4,0.1-7.1-0.2c-8.7-1.2-11.8-0.6-14.2-2.2c-2.4-1.6-3.5-3.8-4.6-4.9c-1.1-1.2-0.2-3.2-1.6-2
			c-0.5,0.4-0.8,0.8-0.9,1.3c-0.2,0.9,0.3,1.9,1.2,2.9c0,0-2.1,1-4.2-0.1c-0.4-0.2-0.6-0.3-0.8-0.4c-0.9-0.5-0.3-0.2-2.6-0.8
			c-0.2-0.1-0.4-0.1-0.6-0.1C263.7,192.2,265.8,194.6,267.3,195.8z"/>
		<path id="XMLID_222_" class="st10" d="M267.3,195.8c1.7,1.3,6.9,2.4,9.4,3.7c2.4,1.3,15.6,8.9,35.4,3.3l-3.6-5.2
			c0,0-2.8,1.2-7.4,1.6c0,0.2-0.1,2,0.2,3.1c0.3,1.2-13.1,1.4-18.5-1.5c-5.5-2.9-9.1-4.5-12.3-4.7c-3.2-0.2-5.4-3-4.8-3.6
			C263.7,192.2,265.8,194.6,267.3,195.8z"/>
		<path id="XMLID_597_" class="st16" d="M287.8,175.2c2.7,1.1,1.2,0.7,3.5,1c2.3,0.4,3.5,2.4,3.5,2.4c-1.8,0.3-3.2,1.3-2.7,3.2
			s0.9-0.4,2.5-0.7c1.6-0.3,3.7-1.4,6.6-1.3c2.9,0.1,5.1,2.4,12.8,6.5c7.7,4.1,10.9,9.6,10.9,9.6l1.8-0.6l4.1-1.4
			c-12.6-16.2-27.7-17.8-30.4-18.2c-2.7-0.4-7.6-2.6-9.7-2.5c-1.2,0.1-2.8,0.4-3.5,0.8C286.6,174.3,286.6,174.8,287.8,175.2z"/>
		<path id="XMLID_581_" class="st10" d="M287.1,174c0.9-0.1,3.6-0.1,6.1,1.4c2.9,1.7,20.7,2.1,33.6,19.9l4.1-1.4
			c-12.7-16.2-27.8-17.8-30.5-18.2c-2.7-0.4-7.6-2.6-9.7-2.5C289.4,173.3,287.8,173.6,287.1,174z"/>
		<path id="XMLID_598_" class="st23" d="M317,199.6c1,2.1,1.4,3.1,6.5,10c3.3,4.5,4.4,10.2,4.7,13.6c0.1,1.9,0.1,3.1,0.1,3.1
			c14.8,5.3,22.8-1,22.8-1c-0.5-1,0.1-4.6-4.5-14.4c-4.6-9.8-11.7-19.1-16.2-22.6s-7.2-3.9-10.2-3.6l-5.5,2.8
			c-0.3,0.4-0.5,0.7-0.6,1.1C312.6,192.4,316.1,197.7,317,199.6z"/>
		<path id="XMLID_580_" class="st21" d="M314.2,188.5c1.3,0.1,4.3,0.1,7.2-1.3c4-1.9,18.8,23.2,17.7,32.4c-1.1,9.2-9.1,4.7-10.9,3.6
			c0.1,1.9,0.1,3.1,0.1,3.1c14.8,5.3,22.8-1,22.8-1c-0.5-1,0.1-4.6-4.5-14.4c-4.6-9.8-11.7-19.1-16.2-22.6s-7.2-3.9-10.2-3.6
			l-5.5,2.8C314.6,187.8,314.4,188.1,314.2,188.5z"/>
		<path id="XMLID_588_" class="st7" d="M298,165c0.1,2.4,3.1,3.2,5.6,3.3s2.3,1.3,1.1,4.2c-1.3,2.9-1.2,5.3-0.9,6
			c0.3,0.8,1.8,0.5,1.8,0.5c-1-2.6,3.1-5.9,4.6-1.9s-1.4,5.5-1.4,5.5c0.9,1.4,1.9,2.9,3.2,3.9c2.4,1.9,5.6,2.2,9.5-2.2
			c5.9-6.7,3.2-14.3,3.2-14.3s3.7,1.3,4.1,0c0.4-1.3-3.8-2.3-3.8-2.3s2.4-2.8,1.2-3.6c-1.3-0.8-3.3,3.5-3.3,3.5s-0.6-2.1-5-5
			c-3.6-2.4-8.2-1.7-11.1-0.4c-0.7,0.3-1.2,0.6-1.7,0.9c-2.6,1.7-3.7,1.4-4.6,0.6C299.4,163.1,297.9,162.6,298,165z"/>
		<path id="XMLID_585_" class="st4" d="M306.7,162.3L306.7,162.3c0,0,4-1.1,7.3,4.8c2.4,4.4,4.1,14.8-1.9,19.5
			c2.4,1.9,5.6,2.2,9.5-2.2c5.9-6.7,3.2-14.3,3.2-14.3s3.7,1.3,4.1,0c0.4-1.3-3.8-2.3-3.8-2.3s2.4-2.8,1.2-3.6
			c-1.3-0.8-3.3,3.5-3.3,3.5s-0.6-2.1-5-5C314.2,160.3,309.6,161,306.7,162.3z"/>
		<path id="XMLID_594_" class="st5" d="M300.7,187.9c1.5,1,6.7,3.8,14.6,0c0,0-5.6-3.3-5-4.8s2.6-6.7-1.5-8.6c-2.8-1.4-3.7,0.7-4,2
			c-0.1,0.6-0.1,1.1-0.1,1.1s0-0.7,0-1.7c0.2-2,0.8-5.2,2.9-6.4c3-1.7-4.6-4.2-6.6-2.1l0,0c-0.1,0.1-0.2,0.3-0.3,0.5
			c0,0-2.4,3.8-2.7,10.1C297.7,184.3,299.2,186.9,300.7,187.9z"/>
		<path id="XMLID_605_" class="st42" d="M306.8,205.7c2.3,1.4,1.9,2,8-3.3s5.1-9.8,3-12c-1.3-1.4-2.9-1.7-4.7-1.5
			c-5.2,0.7-11.5,6.6-12.4,7.6C299.5,198,304.5,204.3,306.8,205.7z"/>
		<path id="XMLID_584_" class="st10" d="M300.7,187.9c1.5,1,6.7,3.8,14.6,0c0,0-5.6-3.3-5-4.8s2.6-6.7-1.5-8.6c-2.8-1.4-3.7,0.7-4,2
			c0.1-0.3,0.8-2.7,2.7-1.1c2,1.7,2.4,2,1.6,4.9c-0.7,2.9-0.5,3.4,0.8,5.5C311.2,188,308,189.6,300.7,187.9z"/>
		<path id="XMLID_590_" class="st10" d="M301,167.4c0.3-0.1,3.5-0.8,4.5,1s-2.3,0.7-0.8,7.5c0.2-2,0.8-5.2,2.9-6.4
			C310.7,167.8,303.1,165.3,301,167.4z"/>
		<path id="XMLID_224_" class="st21" d="M306.8,205.7c2.3,1.4,1.9,2,8-3.3s5.1-9.8,3-12c-1.3-1.4-2.9-1.7-4.7-1.5
			c0.9,0.4,4.6,2.5-0.6,8.9c-5.7,7-10.7,2.8-11.9-1.2C299.5,198,304.5,204.3,306.8,205.7z"/>
		<path id="XMLID_258_" class="st10" d="M268.9,193.3c1.5,1.8,7.5,2.4,5.9,0.7s-2-3.1-2-3.1l0,0c-0.2,0.9,0.3,1.9,1.2,2.9
			c0,0-2.1,1-4.2-0.1C269.3,193.5,269,193.4,268.9,193.3z"/>
		<path id="XMLID_362_" class="st42" d="M328.4,229.9c0.2,0.1,0.4,0.1,0.6,0.1c20.4,4.6,23.7-1.6,23.7-1.6c-0.6-4.3-1.7-3.9-1.7-3.9
			c-8.3,4.9-16.9,2.9-20.7,1.7c-1-0.4-1.7-0.6-1.9-0.7h-0.1C325.9,225.3,328.4,229.9,328.4,229.9z"/>
		<path id="XMLID_220_" class="st21" d="M329,230c20.4,4.6,23.7-1.6,23.7-1.6c-0.6-4.3-1.7-3.9-1.7-3.9c-8.3,4.9-16.9,2.9-20.7,1.7
			c0.5,0.7,1.3,1.2,2.4,1.5C337.5,228.7,336.2,231.5,329,230z"/>
	</g>
</g>
</svg>
