<svg version="1.1" id="Layer_1" xmlns="http://www.w3.org/2000/svg" x="0" y="0" viewBox="0 0 89.4 89.4" xml:space="preserve"><path d="M0 0v89.4h89.4V0H0zm30.3 18.1c-2.2 2.6-3.3 6.1-3.1 9.5v7.6c-.9 1.1-1.4 2.4-1.4 3.8v5.8c0 1.8.8 3.5 2.2 4.6 1 3.7 2.7 7.3 5 10.4v4.7c0 1.3-.7 2.5-1.9 3.2l-12.9 7c-.4.2-.8.5-1.2.8C0 60.2-1.4 34 13.8 17s41.5-18.5 58.5-3.2 18.5 41.5 3.2 58.5c-1.1 1.2-2.2 2.3-3.4 3.4-.5-.3-.9-.6-1.4-.9L57 67.9c-1.2-.6-2-1.9-2-3.2v-4.8c.3-.4.7-.8 1-1.3 1.8-2.6 3.2-5.4 4.3-8.3 2.1-1 3.4-3.1 3.4-5.3v-5.8c0-1.4-.5-2.8-1.4-3.8v-7.6c.3-3.5-.8-6.9-3.1-9.5-3-3.4-7.9-5.2-14.4-5.2s-11.5 1.6-14.5 5z" fill="#4f4f4f" id="content"/></svg>