<svg version="1.1" id="Ñëîé_1" xmlns="http://www.w3.org/2000/svg" x="0" y="0" viewBox="0 0 77.1 102.4" xml:space="preserve"><style>.st2{fill:#6b2f29}.st3{fill:#fcb87e}.st4{fill:#0c96a8}.st5{fill:#f90d3e}.st8{fill:#fff}.st10{fill:#e0e0e0}.st11{fill:#a0a0a0}.st12{fill:#f0f0f0}</style><path d="M70.5 99.8c0 1.4-13.4 2.5-29.9 2.5s-29.9-1.1-29.9-2.5 13.4-2.5 29.9-2.5 29.9 1.1 29.9 2.5z" opacity=".2" fill="#5d5d5d"/><path d="M76 23C71 7.8 50.1 2.5 29.5 11.2 8.8 19.9-3.9 39.3 1.1 54.6c3.3 10 13.3 15.6 25.7 16 2.7 1.6 5.6 3 8.8 4 16.6 5.4 32.6 0 35.7-12.3 1.1-4.2.5-8.7-1.4-13 6.3-8.4 8.8-18 6.1-26.3z" opacity=".4" fill="#b3b3ff"/><path class="st2" d="M51.7 60.6c.1-.1 1.3 1.4 2.3 3.4 1 2.1 1.3 3.9 1.2 3.9-.1 0-.6-1.7-1.6-3.7s-2-3.6-1.9-3.6z"/><path class="st3" d="M58.4 74.5s1.9 1 3.8-1.9c2.3-3.7-6.8-14.8-6.8-14.8l-4.1 1.8 7.1 14.9z"/><path class="st2" d="M58.4 74.5s.3.1.8.1 1.3-.3 1.9-.9c.3-.3.6-.8.9-1.2.2-.5.3-1 .2-1.6-.1-1.2-.6-2.5-1.3-3.9-1.3-2.6-2.8-4.8-3.9-6.4-1.1-1.6-1.8-2.6-1.8-2.6.1 0 .9.8 2 2.4 1.2 1.6 2.7 3.7 4.1 6.4.6 1.3 1.2 2.7 1.3 4 0 .7 0 1.3-.3 1.9-.3.5-.6.9-1 1.3-.7.7-1.6.9-2.2.9-.4-.2-.7-.4-.7-.4z"/><path class="st2" d="M56.4 75.2c0-.1.4.1 1 .1.6.1 1.4 0 2.1-.6.7-.6 1.1-1.3 1.3-1.9.2-.6.4-.9.5-.9.1 0 0 .4-.1 1-.2.6-.5 1.5-1.3 2.1-.8.7-1.8.7-2.5.6-.7-.1-1-.3-1-.4z"/><path class="st2" d="M55.1 67.5s-.3.2-.9.5c-.5.3-1.2.9-1.5 2-.1.5-.2 1.1-.2 1.8-.1.6.6 1.1 1.2 1 .3 0 .5-.2.6-.6 0-.2.1-.3.1-.5s0-.4.1-.7c.1-.2.2-.5.4-.6.1-.1.2-.1.3-.2.1 0 .1 0 .2-.1.1 0 .2 0 .3-.1.4.3.4.5.5.7.1.2.1.5.1.7 0 .5 0 1.1-.2 1.6-.1.3-.2.5-.4.7-.2.2-.5.4-.8.4h-.7c-.2.1-.3.2-.4.3-.2.3-.1.7.2.8.8.4 1.8.4 2.5.1.7-.3 1.2-.9 1.5-1.4.6-1 .7-1.7.8-1.7 0 0 0 .2-.1.5s-.2.8-.5 1.3-.7 1.2-1.5 1.6c-.8.4-1.9.4-2.9 0-.3-.1-.5-.3-.6-.6-.1-.3 0-.6.1-.8.1-.2.4-.4.6-.5.1-.1.3-.1.4-.1h.3c.3 0 .6-.4.7-.8.1-.4.2-.9.2-1.4 0-.2-.1-.4-.1-.6 0-.2-.2-.4-.2-.3h-.1c-.1 0-.1.1-.2.1.2.3.1.4.1.5-.1.2-.1.3-.1.5s0 .4-.1.7c-.1.4-.6.8-1 .9-.5.1-.9-.1-1.2-.4-.3-.3-.5-.7-.5-1.1 0-.7.1-1.3.3-1.9.3-1.2 1.2-1.8 1.8-2.1.6-.2.9-.2.9-.2z"/><path class="st4" d="M45.6 54.3l5.2 8.6 6.9-4.1s-4.1-7.5-9.1-12.3l-5.1 5.2 2.1 2.6z"/><path class="st2" d="M45.6 54.3s.2.2.4.6c.3.4.6 1 1.1 1.7.9 1.5 2.2 3.5 3.7 5.9 1.7-1 3.6-2.1 5.5-3.3l.7-.4.2-.1s0 .1-.1-.1c-.3-.5-.6-1-.8-1.4-.6-.9-1.1-1.8-1.7-2.6-1.1-1.7-2.1-3.1-3.1-4.3-.9-1.2-1.7-2.1-2.3-2.8-.6-.6-.9-1-.9-1s.4.3 1 .9c.6.6 1.5 1.5 2.4 2.7 1 1.2 2.1 2.6 3.2 4.3.6.8 1.1 1.7 1.7 2.6.3.5.6.9.8 1.4l.1.3.1.2v.1h.3l-.5.3-.7.4c-2.1 1.2-4.1 2.4-5.9 3.5-.8-1.3-1.5-2.6-2.2-3.7-.6-1.1-1.2-2-1.6-2.7-.4-.8-.8-1.4-1-1.8-.3-.4-.5-.6-.4-.7z"/><path class="st4" d="M41.1 94.2s-2.1 4.8-.9 5.7c1.2.9 15 .8 15 .8s-4-7.2-8.1-7l-6 .5z"/><path class="st2" d="M47.1 93.7h.8c.5.1 1.3.3 2.2.9.9.5 1.8 1.4 2.7 2.4.5.5.9 1.1 1.3 1.7.2.3.4.6.7 1l.3.5.2.4.3.5h-5.3c-2.2 0-4.4-.1-6.3-.2-1-.1-1.9-.2-2.7-.3-.4-.1-.9-.1-1.3-.5-.3-.4-.3-.8-.3-1.2.1-1.5.6-2.6.9-3.4.3-.8.5-1.2.6-1.1 0 0-.1.4-.4 1.2-.2.8-.7 1.9-.7 3.3 0 .3.1.7.3.9.2.2.6.3 1 .3.8.1 1.7.2 2.7.3 1.9.1 4 .2 6.3.2h4.5l-.1-.1-.3-.5-.6-.9c-.4-.6-.9-1.2-1.3-1.7-.9-1-1.7-1.8-2.5-2.4-.8-.6-1.5-.8-2.1-1l-.9-.3z"/><path class="st5" d="M42.8 88.5s-2.4.4-1.3 2.2l-.4 3.5s4.1 2 6.4-.2v-3c1.6-2-1.2-2.2-1.2-2.2l-3.5-.3z"/><path class="st3" d="M43.7 78.9l-1 10.9s1.8 1 3.3.3l.8-11-3.1-.2z"/><path class="st2" d="M46.3 88.9s.3-.1.8.1c.2.1.6.2.8.5.3.3.2.9 0 1.3-.1.1-.1.2-.2.3 0 .1-.1.1-.1.1v3l-.2.1-.4.3c-.3.2-.6.3-.9.4-.7.2-1.4.3-2.1.2-.7 0-1.4-.2-2-.4l-.9-.3-.3-.1h-.1v-.3c0-.2 0-.3.1-.5.1-.6.1-1.2.2-1.7 0-.3.1-.5.1-.8v-.5l-.1-.1c-.2-.4-.2-1 0-1.3.2-.3.5-.5.8-.6.5-.2.8-.2.8-.2s-.3.1-.7.3c-.2.1-.5.3-.6.6-.2.3-.2.6.1 1l.1.2c.1.1 0 .2 0 .3v.4c0 .2 0 .5-.1.8 0 .5-.1 1.1-.2 1.7v.4h.1l.9.3c.6.2 1.2.3 1.9.4.7 0 1.3 0 1.9-.2.3-.1.6-.2.8-.4l.3-.3V91c0-.1 0-.1.1-.1l.1-.1c.1-.1.1-.2.2-.3.2-.4.3-.7.1-1-.2-.3-.5-.4-.7-.5-.3-.1-.6-.1-.6-.1z"/><path class="st2" d="M42.7 90c-.1 0 0-.8.1-2s.2-2.9.4-4.8c.3-3.7.5-6.8.6-6.8.1 0 .2 3.1-.1 6.8-.3 3.8-.8 6.8-1 6.8zm3.4 0c-.1 0 0-.8.1-2s.2-2.9.4-4.8c.3-3.7.5-6.8.6-6.8.1 0 .2 3.1-.1 6.8-.3 3.8-.9 6.8-1 6.8z"/><path class="st2" d="M46.8 89.9s-.2.3-.6.4c-.4.2-1.1.3-1.8.2-1.4 0-2.4-.6-2.4-.7 0-.1 1.1.2 2.4.3 1.4.1 2.4-.3 2.4-.2z"/><path class="st4" d="M30.2 94s-2.2 4.9-.9 5.9c1.3 1 15.6.8 15.6.8s-4.2-7.4-8.5-7.3l-6.2.6z"/><path class="st2" d="M36.4 93.5h.9c.6.1 1.4.3 2.3.9.9.6 1.8 1.4 2.8 2.5.5.5 1 1.1 1.4 1.7.2.3.5.6.7 1 .1.2.2.3.3.5l.2.4.3.5h-5.5c-2.3 0-4.5-.1-6.5-.2-1-.1-2-.2-2.9-.3-.4-.1-.9-.1-1.3-.5-.3-.4-.4-.9-.3-1.3.1-1.6.6-2.7.9-3.5.3-.8.5-1.2.6-1.2 0 0-.1.5-.4 1.3-.2.8-.7 2-.7 3.5 0 .4.1.8.3 1 .2.2.7.3 1.1.3.9.1 1.8.2 2.8.3 2 .1 4.2.2 6.5.2h4.7l-.1-.2-.3-.5c-.2-.3-.4-.7-.7-1-.4-.6-.9-1.2-1.4-1.7-.9-1.1-1.8-1.9-2.7-2.5-.8-.6-1.6-.8-2.1-1-.6-.2-.9-.2-.9-.2z"/><path class="st5" d="M31.9 88.1s-2.5.5-1.4 2.2l-.3 3.7s4.2 2 6.6-.2v-3.1c1.7-2.1-1.2-2.3-1.2-2.3l-3.7-.3z"/><path class="st3" d="M33.1 78.6l-1 10.9s1.8 1 3.3.3l.8-11-3.1-.2z"/><path class="st2" d="M35.6 88.5s.3-.1.8.1c.3.1.6.2.9.5.3.4.2.9 0 1.3-.1.1-.1.2-.2.3v3.1l-.2.1-.4.3c-.3.2-.6.3-.9.4-.7.2-1.4.3-2.1.2-.7-.1-1.4-.2-2.1-.4l-.9-.3-.5.1s-.1 0-.1-.1v-.3c0-.2 0-.3.1-.5.1-.6.1-1.2.2-1.7 0-.3.1-.5.1-.8v-.5l-.1-.1c-.2-.4-.2-1 0-1.3.2-.3.6-.5.8-.6.5-.2.8-.2.8-.2s-.3.1-.7.3c-.2.1-.5.3-.7.6-.2.3-.2.7.1 1l.1.2c.1.1 0 .2 0 .3v.4c0 .3 0 .5-.1.8-.1.5-.1 1.1-.2 1.7v.5s-.1 0 .1.1l.9.3c.6.2 1.3.3 2 .4.7 0 1.3 0 1.9-.2.3-.1.6-.2.8-.4l.4-.3v-2.9c0-.1 0-.1.1-.1l.1-.1c.1-.1.1-.2.2-.3.2-.4.3-.8.1-1-.2-.3-.5-.4-.7-.5-.3-.3-.6-.4-.6-.4z"/><path class="st2" d="M32 90c-.1 0 0-.8.1-2s.2-2.9.4-4.8c.3-3.7.5-6.8.6-6.8.1 0 .2 3.1-.1 6.8-.3 3.8-.8 6.8-1 6.8zm3.4 0c-.1 0 0-.8.1-2s.2-2.9.4-4.8c.3-3.7.5-6.8.6-6.8.1 0 .2 3.1-.1 6.8-.3 3.8-.9 6.8-1 6.8z"/><path class="st2" d="M36.1 89.6s-.2.3-.7.4c-.5.2-1.1.3-1.8.2-1.5-.1-2.5-.6-2.5-.8 0-.1 1.1.2 2.5.3 1.4.2 2.5-.2 2.5-.1zm13.6-21.3c.1 0 0 1.2-.2 3.1-.1.9-.2 2.1-.3 3.3-.1 1.3-.2 2.8-.4 4.3h-.6c-2.1.1-4 .2-5.7.2v-2.5c0-.7 0-1.2.1-1.7 0-1 .1-1.5.1-1.5s.1.5.1 1.5c0 .9.1 2.2.1 3.7 1.5-.1 3.3-.2 5.2-.3h.2c.2-1.4.3-2.7.4-3.9.2-1.3.3-2.4.4-3.3.4-1.8.5-2.9.6-2.9z"/><path fill="#5d5d5d" d="M30.7 67.7l1.1 11.1 6.2.1 1.5-5.3 6.9-1z"/><path class="st2" d="M46.4 72.6s-.7.2-1.9.4-2.8.5-4.8.8c-.5 1.6-1 3.4-1.5 5.4-.8 0-1.7 0-2.6-.1-1.4 0-2.7-.1-4-.1-.2-1.7-.3-3.2-.4-4.6-.1-1.3-.2-2.5-.3-3.5-.1-1-.1-1.8-.2-2.3v-.8s.1.3.2.8.2 1.3.3 2.3c.1 1 .3 2.2.4 3.5.1 1.3.3 2.7.5 4.2 1.1 0 2.3 0 3.5.1.8 0 1.5 0 2.2.1.6-1.9 1.1-3.7 1.6-5.2 1.1-.1 2.1-.3 2.9-.4.8-.1 1.6-.2 2.2-.3 1.2-.3 1.9-.3 1.9-.3z"/><path class="st4" d="M48.4 52.7l3.3 16.6-23.1.9 2.8-18.8z"/><path class="st2" d="M31.4 51.4v.4c0 .2-.1.6-.1 1-.1.9-.3 2.2-.5 3.9-.5 3.3-1.1 7.9-1.9 13.3 3.2-.1 6.6-.3 10.2-.4 4.4-.2 8.6-.3 12.3-.5-.9-4.8-1.7-8.9-2.3-11.7-.3-1.5-.5-2.6-.6-3.4-.1-.8-.2-1.2-.2-1.2l.3 1.2c.2.8.4 1.9.8 3.4.6 3 1.5 7.2 2.6 12.2-3.9.2-8.3.3-12.9.5-3.8.1-7.4.3-10.8.4.9-5.6 1.6-10.4 2.1-13.8.3-1.7.5-3 .6-3.9.1-.4.1-.8.2-1 .2-.3.2-.4.2-.4z"/><path class="st2" d="M31 46.9s-.3.4-.9 1c-.6.6-1.4 1.5-2.4 2.7-1 1.2-2.1 2.6-3.2 4.2-.6.8-1.2 1.7-1.8 2.6-.3.5-.6.9-.9 1.4-.3 0 .5.4 1 .6 2 1.2 3.8 2.3 5.5 3.3 1.5-2.4 2.8-4.5 3.7-5.9.5-.7.9-1.3 1.1-1.7.3-.4.4-.6.4-.6s-.1.2-.3.7c-.2.4-.6 1-1 1.8s-1 1.7-1.6 2.7c-.7 1.1-1.4 2.3-2.2 3.7-1.8-1.1-3.8-2.2-5.9-3.5l-.7-.4-.4-.5-.2-.1s.1-.1.1-.2l.2-.3c.3-.5.6-.9.9-1.4.6-.9 1.2-1.8 1.8-2.6 1.2-1.6 2.3-3 3.3-4.1 1-1.1 1.9-2 2.5-2.6.6-.5 1-.8 1-.8z"/><path fill="#a00b36" d="M50.1 8.6l.8 14.6L48 23 42.8 9.8z"/><path class="st2" d="M50.1 8.6s-.2.1-.5.1c-.3.1-.8.2-1.4.3-1.2.2-2.9.6-5 1 1.2 3 2.8 6.9 4.5 11.1.2.6.5 1.2.7 1.7.9.1 1.7.1 2.4.2-.2-4.1-.4-7.7-.5-10.2 0-1.3-.1-2.4-.1-3.1-.1-.7-.1-1.1-.1-1.1s.1.4.1 1.1c.1.7.1 1.8.2 3.1s.2 2.9.3 4.6c.1 1.9.2 3.9.4 6.1-1.1-.1-2.1-.2-3.3-.2-.2-.6-.5-1.3-.8-2-1.7-4.4-3.3-8.4-4.5-11.6 2.3-.4 4.2-.7 5.5-.9.6-.1 1.1-.2 1.5-.2.4 0 .6-.1.6 0z"/><path class="st3" d="M48.4 22.3c7.3-6.8 8.5 5.2.4 2.9l-.4-2.9z"/><path class="st2" d="M48.8 25.2c0-.1.9.2 2.2.1.7-.1 1.5-.2 2.1-.8.7-.5 1.1-1.5 1-2.4-.1-.5-.3-.9-.6-1.2-.3-.3-.7-.4-1.1-.5-.8 0-1.6.4-2.2.7-1.2.7-1.8 1.3-1.9 1.2 0 0 .5-.7 1.7-1.5.6-.4 1.4-.8 2.4-.8.5 0 1.1.2 1.5.6.4.4.7.9.7 1.5.1 1.1-.4 2.2-1.2 2.8-.8.6-1.7.8-2.4.8s-1.3-.1-1.6-.2l-.6-.3z"/><path class="st3" d="M48.5 46.6c4.5-15.8 2-41.8-12.1-37.7-11 3.2-2.6 23.8-5.1 38.1l11.8 8.1 5.4-8.5z"/><path class="st8" d="M41 50.5l5-.1-2 3.3z"/><path class="st2" d="M48.5 46.6s0 .1-.1.2-.1.2-.3.4c-.2.4-.6 1-1 1.7-.9 1.5-2.3 3.7-4 6.4-2.1-1.4-4.6-3.1-7.3-5-1.4-.9-2.8-1.9-4.3-2.9l-.3-.2s-.1 0-.1-.1v-.4l.1-.7c.1-.4.1-.9.2-1.4.1-.9.1-1.9.2-2.8.1-3.9-.3-8-.7-12.4-.2-2.2-.4-4.4-.5-6.7-.1-2.3-.1-4.6.3-7 .3-1.9 1-3.8 2.4-5.2.7-.7 1.5-1.2 2.4-1.6.4-.2.9-.3 1.3-.4.5-.1.9-.2 1.4-.2 1.8-.2 3.8.1 5.3 1.1s2.7 2.3 3.5 3.8c1.7 2.9 2.5 6.1 3 9 .5 2.9.7 5.7.7 8.2 0 5.1-.6 9.1-1.1 11.9-.3 1.4-.5 2.4-.7 3.2-.1.4-.2.6-.2.8-.1.2-.1.3-.2.3v-.3c0-.2.1-.5.2-.8.2-.7.4-1.8.7-3.2.5-2.8 1-6.8.9-11.9 0-2.5-.2-5.3-.7-8.2-.5-2.9-1.3-6-3-8.8-.8-1.4-1.9-2.7-3.4-3.6-1.4-.9-3.2-1.2-5-1-.4 0-.9.1-1.3.2s-.9.3-1.3.4c-.8.4-1.6.8-2.2 1.5-1.3 1.3-1.9 3.1-2.3 5-.4 2.3-.4 4.6-.3 6.9.1 2.3.3 4.5.5 6.7.4 4.4.7 8.5.6 12.4 0 1-.1 1.9-.2 2.9-.1.5-.1.9-.2 1.4l-.1.7v.1l.2.2c1.5 1 2.9 2 4.2 2.9 2.6 1.8 5 3.5 7 4.9 1.7-2.6 3.1-4.7 4-6.1.5-.7.8-1.3 1.1-1.6.1-.2.2-.3.3-.4l.3-.3z"/><path d="M30.7 23.7c-13.8-6.3-1.3-13.6-1.3-13.6s2.8-9.3 4-8.3c1.1 1 .7 4.3.7 4.3S44.7-.3 46 .2c.8.4-2 4.5-2 5 0 .6 10.3-2.9 10.8-2.2.6 1-4.8 5.8-4.8 5.8s9.4 1.8 10.1 3.1c.7 1.3-25.8 2.4-25.8 2.4-1.1 0-2.1 8.5-2.1 8.5l-1.5.9z" fill="#8c0928"/><path class="st2" d="M32.2 22.8v-.6c0-.4.1-1 .2-1.7.1-.8.2-1.7.5-2.8.1-.5.2-1.1.4-1.7l.3-.9c.1-.2.1-.3.2-.5.1-.1.2-.4.5-.4 3.1-.2 6.9-.4 11.3-.7 2.2-.2 4.5-.3 7-.5 1.2-.1 2.5-.2 3.8-.4.6-.1 1.3-.2 1.9-.3.3-.1.6-.1 1-.2.2 0 .3-.1.4-.1h.1l-.1-.1-.2-.2c-.2-.1-.4-.2-.5-.3-.4-.2-.8-.3-1.2-.4-.8-.3-1.6-.5-2.5-.7-.8-.2-1.7-.4-2.6-.6-.4-.1-.9-.2-1.3-.3-.6-.1-1.2-.2-1.8-.4l.9-1 .7-.6c.5-.4.9-.9 1.3-1.3.4-.5.9-.9 1.3-1.4.2-.2.4-.5.5-.8.1-.1.1-.3.2-.4.1-.1 0-.3 0-.2h-.3c-.2 0-.4 0-.6.1-.4.1-.8.2-1.2.2-.8.2-1.6.4-2.3.6-1 .3-2 .5-2.9.8-.5.1-1 .3-1.5.4l-.7.1-.4.1c-.2 0-.2 0-.5.1-.2 0-.4-.1-.4-.3 0-.1 0-.2.1-.3l.1-.2c.1-.2.2-.5.3-.7.2-.4.5-.9.7-1.3.2-.4.4-.9.6-1.3.1-.2.2-.4.2-.6.1-.2 0-.4 0-.4-.1 0-.4 0-.7.1-.3.1-.5.2-.8.3-.5.2-1 .4-1.6.7l-3 1.5c-1 .5-1.9 1.1-2.9 1.6-.2.2-.7.5-1.2.7-.6.3-1.2.7-1.7 1 0-.3.1-.6.1-.9V4.2c0-.6-.1-1.2-.3-1.7 0-.1-.1-.2-.2-.4l-.2-.1h-.1c-.1 0-.3.3-.5.5-.3.5-.6 1-.8 1.5-.4 1-.8 2.1-1.2 3.1-.2.5-.4 1-.5 1.5-.2.5-.3 1.1-.5 1.6l-.3.2-.3.1-.4.3c-.3.2-.6.4-.8.6-.5.4-1 .9-1.5 1.3-.9.9-1.6 2-1.9 3.1-.3 1.1-.1 2.2.3 3 .4.9 1.1 1.5 1.7 2.1 1.2 1.1 2.3 1.7 3.1 2.1.4.2.7.3.9.4.2.1.3.2.3.2s-.1 0-.3-.1c-.2-.1-.5-.2-.9-.4-.8-.4-1.9-1-3.2-2-.6-.5-1.3-1.2-1.7-2.1-.5-.9-.7-2.1-.4-3.2.6-2.3 2.7-4.3 5.1-5.8.2-.5.3-1 .5-1.4.2-.5.3-1 .5-1.5.4-1 .8-2.1 1.3-3.2.2-.5.5-1.1.9-1.6.1-.1.2-.3.3-.4.1-.1.3-.3.5-.3.1 0 .3.1.3.1l.2.2c0 .1.1.3.2.4.3.6.3 1.3.4 1.9v1.5c.8-.5 1.6-.9 2.4-1.4.9-.5 1.9-1.1 2.9-1.6s2-1.1 3-1.6c.5-.3 1-.5 1.6-.7.3-.1.6-.2.8-.3.3-.1.6-.2 1-.1.2.1.3.4.3.5 0 .2 0 .3-.1.4-.1.3-.2.5-.3.7-.2.5-.4.9-.6 1.3-.2.4-.5.9-.7 1.3l-.3.6-.1.1h.2l.4.1.7-.2c.5-.1 1-.2 1.4-.4 1-.2 2-.5 3-.7l2.4-.6c.4-.1.8-.2 1.2-.2.2 0 .4-.1.6-.1h.3c.1 0 .3 0 .5.2.2.3.1.5 0 .7-.1.2-.1.3-.2.5-.2.3-.4.6-.6.8-.4.5-.8 1-1.3 1.4-.4.5-.9.9-1.4 1.3-.3.3-.7.6-1 .9.8.2 1.5.4 2.2.5.9.2 1.7.4 2.6.6.9.2 1.7.5 2.5.7.4.1.8.3 1.2.5l.6.3c.2.1.3.2.6.5.2.3-.2.6-.4.6-.2.1-.3.1-.5.2-.3.1-.7.1-1 .2-.7.1-1.3.2-2 .3-1.3.2-2.6.3-3.8.4-2.5.2-4.8.4-7 .5-4.4.3-8.2.4-11.3.6-.2 0-.4.4-.5.7l-.3.9c-.2.6-.3 1.2-.4 1.7-.2 1.1-.4 2-.5 2.7-.1.8-.2 1.3-.3 1.7v.6z"/><path class="st3" d="M32.2 23.6c-8-6.1-7.9 6-.2 2.9l.2-2.9z"/><path class="st2" d="M32 26.5s-.2.1-.5.3c-.4.1-.9.3-1.6.4-.7.1-1.6 0-2.4-.6-.8-.5-1.5-1.6-1.5-2.7 0-.6.2-1.1.6-1.6.4-.4.9-.7 1.4-.7 1-.1 1.8.3 2.4.6 1.2.7 1.8 1.3 1.8 1.3-.1.1-.7-.5-2-1-.6-.3-1.4-.6-2.2-.5-.4 0-.8.2-1.1.6-.3.3-.4.8-.4 1.3 0 1 .5 1.9 1.2 2.3.7.5 1.5.6 2.2.6 1.3 0 2.1-.4 2.1-.3zM42.4 39s-.3.3-1 .3-1.7-.3-2.3-1.1c-.7-.8-.7-1.9-.5-2.5.2-.6.5-1 .5-.9.1 0-.1.4-.2 1s0 1.4.6 2.1c.5.7 1.4 1 1.9 1.1.6.1 1-.1 1 0zM46 50.4c0 .1-1.9.4-4.2.6-2.3.2-4.2.2-4.3.1 0-.1 1.9-.4 4.2-.6 2.4-.2 4.3-.2 4.3-.1z"/><path class="st8" d="M45.6 20.4c-2 0-3.5 1.6-3.5 3.5 0 2 1.6 3.5 3.5 3.5 2 0 3.5-1.6 3.5-3.5s-1.6-3.5-3.5-3.5z"/><path class="st2" d="M45.6 20.4s.3-.1.9 0c.6.1 1.4.4 2.1 1.3.7.8 1.1 2.2.6 3.5-.4 1.3-1.9 2.5-3.5 2.5-1.7 0-3.1-1.2-3.5-2.5-.5-1.4-.1-2.7.6-3.5.7-.8 1.5-1.2 2.1-1.3h.7s-.3 0-.8.2-1.3.5-1.8 1.3c-.6.8-.9 2-.4 3.2.4 1.2 1.7 2.2 3.1 2.2 1.5 0 2.7-1 3.1-2.2.4-1.2.1-2.4-.4-3.2-.6-.8-1.3-1.1-1.8-1.3-.7-.1-1-.1-1-.2z"/><path class="st8" d="M39.7 20.4c-2 0-3.7 1.6-3.7 3.7s1.6 3.7 3.7 3.7c2 0 3.7-1.6 3.7-3.7s-1.7-3.7-3.7-3.7z"/><path class="st2" d="M39.7 20.4s.3-.1.9 0c.6.1 1.5.5 2.1 1.3.7.8 1.1 2.3.6 3.7-.5 1.4-1.9 2.6-3.7 2.6-1.7 0-3.2-1.2-3.7-2.6-.5-1.4-.1-2.8.6-3.7.7-.9 1.6-1.2 2.1-1.3h1.1s-.3 0-.9.2c-.5.2-1.3.5-1.9 1.4-.6.8-.9 2.1-.5 3.3.4 1.2 1.7 2.3 3.2 2.3 1.5 0 2.8-1 3.2-2.3.5-1.2.1-2.5-.5-3.3-.6-.8-1.4-1.2-1.9-1.4-.4-.1-.7-.1-.7-.2z"/><path class="st2" d="M40.6 24.7c0 .4-.3.8-.7.8s-.7-.3-.7-.8.3-.8.7-.8.7.3.7.8zm5.1 0c0 .4-.3.8-.7.8s-.7-.3-.7-.8.3-.8.7-.8.7.3.7.8zm-4.3-6.6c.1.1-1 .7-2.4 1.2s-2.6.9-2.6.7c-.1-.1 1-.7 2.4-1.2s2.5-.8 2.6-.7zm2.1-.2c.1-.1 1.1.3 2.3.8 1.2.6 2.2 1.2 2.1 1.3-.1.1-1.1-.3-2.3-.8-1.2-.6-2.1-1.2-2.1-1.3z"/><path class="st10" d="M49.3 88.4L19 56.1l15-14 31.1 33.1L68.8 94z"/><path class="st11" d="M49.3 88.4L19 56.1l7.1-5.9 31.1 33.2L68.8 94z"/><path class="st2" d="M49.3 88.4s.1 0 .3.1c.2.1.6.1 1 .3.9.2 2.2.6 3.9 1.1 3.3.9 8.1 2.3 14 3.9-1.1-5.3-2.3-11.5-3.7-18.4-7.2-7.7-15.5-16.5-24.2-25.8-2.3-2.4-4.5-4.8-6.7-7.1-5.2 4.8-10.1 9.4-14.7 13.7 8.8 9.5 16.3 17.5 21.6 23.2 2.7 2.9 4.7 5.1 6.2 6.7.7.8 1.3 1.4 1.6 1.8.2.2.3.4.4.5h.3s-.1 0-.2-.1l-.4-.4c-.4-.4-.9-1-1.7-1.7-1.5-1.5-3.6-3.8-6.3-6.6-5.4-5.7-13.1-13.8-22.1-23.4 4.8-4.5 9.9-9.3 15.3-14.4 2.3 2.4 4.6 4.9 7 7.5 8.8 9.4 17.1 18.2 24.3 25.9 1.4 7.2 2.7 13.6 3.7 19.1-6-1.9-11-3.3-14.4-4.3-1.7-.5-3-.9-3.9-1.1-.4-.1-.8-.2-1-.3-.2-.1-.3-.2-.3-.2z"/><path class="st12" d="M13.2 49.6c-8-.1 10.9 20.1 16.1 23.3 5.2 3.2-3.6 9.6-3.5 4.6.2-5-16.6-20.5-17.4-21.7-.8-1.3-4.9-8.1 3.4-9.5l1.4 3.3z"/><path class="st2" d="M11.7 46.3s-.3.1-.8.2c-.3.1-.6.1-1 .3-.2.1-.4.2-.6.2-.2.1-.4.2-.6.4-.9.6-1.9 1.6-1.9 3.1-.1 1.5.5 3.1 1.5 4.8.2.4.5.7.9 1.1.3.4.7.7 1.1 1.1l2.3 2.3c1.6 1.6 3.2 3.3 5 5.2 1.7 1.9 3.5 3.8 5.2 6 .8 1.1 1.7 2.2 2.4 3.5.3.6.7 1.3.9 2 .1.4.2.7.2 1.1 0 .3 0 .7.1 1 .2.6.9.8 1.5.6.6-.2 1.2-.6 1.7-1 1-.9 1.6-2.3 1.1-3.5-.2-.6-.7-1-1.3-1.4-.6-.4-1.1-.8-1.6-1.2-1-.8-2-1.7-2.9-2.6-3.6-3.5-6.7-6.9-9-9.9s-4-5.7-4.4-7.8c-.1-.3 0-.5 0-.8.1-.2.1-.5.3-.6.2-.4.6-.5.9-.6.6-.1.9-.1.9-.1s-.3 0-.8.1c-.3.1-.6.2-.8.5-.2.3-.3.8-.2 1.3.4 2.1 2.2 4.7 4.5 7.7 2.4 3 5.4 6.4 9 9.8.9.9 1.9 1.7 2.9 2.5.5.4 1 .8 1.6 1.2.6.4 1.1.9 1.4 1.6.3.7.3 1.5 0 2.2-.3.7-.7 1.3-1.2 1.8s-1.2.9-1.9 1.2c-.4.1-.8.2-1.2 0-.4-.1-.8-.5-.9-.9-.2-.4-.2-.8-.2-1.2 0-.3-.1-.7-.2-1-.2-.7-.5-1.3-.9-1.9-.7-1.2-1.5-2.3-2.3-3.4-1.7-2.2-3.4-4.1-5.1-6-1.7-1.9-3.4-3.6-4.9-5.2-.8-.8-1.5-1.6-2.3-2.3L9 56.6c-.3-.3-.7-.8-.9-1.2-1-1.7-1.6-3.4-1.4-5 .1-1.6 1.1-2.7 2.1-3.2 0 0 .2-.2.4-.3.2-.1.4-.2.6-.2.4-.2.7-.2 1-.3.6-.1.9-.1.9-.1z"/><path class="st5" d="M73.5 98.8c-.5.5-1.2.5-1.7 0l-2.5-2.5c-.5-.5-.5-1.2 0-1.7s1.2-.5 1.7 0l2.5 2.5c.5.4.5 1.2 0 1.7z"/><path class="st2" d="M73.5 98.8s.1-.2.2-.5 0-.9-.5-1.2c-.5-.5-1.1-1-1.7-1.6L71 95c-.2-.2-.3-.3-.5-.4-.2-.1-.4-.1-.6-.1-.1 0-.2 0-.3.1 0 0-.1 0-.1.1h-.1l-.2-.2.2.2v.1l-.1.1c0 .1-.1.2-.1.3 0 .2 0 .4.1.6.1.2.2.3.4.5l.5.5c.6.6 1.2 1.2 1.6 1.7.4.5.9.6 1.2.5.3-.1.5-.3.5-.2 0 0-.1.2-.5.4-.2.1-.4.1-.7.1-.3 0-.6-.3-.8-.5-.5-.5-1.1-1-1.7-1.6l-.5-.5c-.1-.2-.4-.3-.5-.6-.1-.3-.2-.6-.1-.9 0-.1.1-.3.1-.4 0-.1.1-.1.1-.2 0 0 0-.1.1-.1l.2.2-.2-.2s.1 0 .1-.1c.1 0 .1-.1.2-.1.1-.1.3-.1.4-.1.3 0 .6 0 .9.1.3.1.5.4.6.5l.5.5c.6.6 1.2 1.2 1.6 1.7.2.2.5.5.5.8.1.3 0 .5-.1.7 0 .2-.2.3-.2.3z"/><path class="st12" d="M49.3 88.4l21.2 9 1.8-1.5-7.2-20.7z"/><path class="st10" d="M56.3 82.3l15 14.8-1 .2-21-8.9z"/><path class="st2" d="M49.3 88.4l.3-.3c.2-.2.5-.4.8-.8.7-.6 1.8-1.6 3.2-2.8 2.8-2.4 6.8-5.8 11.6-9.8 1.4 4 2.9 8.3 4.6 12.9 1 2.9 2 5.7 2.9 8.2-.8.6-1.4 1.2-2.1 1.7-6.2-2.7-11.6-5-15.3-6.6-1.9-.8-3.4-1.5-4.4-1.9-.5-.2-.9-.4-1.2-.5-.3 0-.4 0-.4-.1 0 0 .1 0 .4.1.3.1.7.3 1.2.5 1 .4 2.5 1 4.4 1.8 3.7 1.6 9 3.8 15.1 6.3.5-.4 1-.8 1.6-1.3-.9-2.4-1.8-5.1-2.8-7.9-1.5-4.4-3-8.5-4.3-12.3-4.6 3.8-8.4 7-11.2 9.2-1.4 1.1-2.5 2.1-3.3 2.7-.4.3-.7.5-.9.7-.1.2-.2.2-.2.2z"/><path class="st4" d="M18.5 52.1L1.7 34.9c-1-1.1-1-2.8.1-3.9l7.9-7.4c1.1-1 2.8-1 3.9.1L30.3 41 18.5 52.1z"/><path class="st2" d="M18.5 52.1l.2-.2.6-.6 2.3-2.3c2-1.9 4.9-4.7 8.4-8-2.4-2.5-5.2-5.3-8.1-8.3-1.5-1.5-3.1-3.1-4.7-4.8-.8-.8-1.6-1.7-2.4-2.5-.4-.4-.8-.8-1.2-1.3-.4-.4-.8-.8-1.4-.9-.6-.2-1.3-.1-1.9.3-.3.2-.5.4-.8.7l-.8.7c-1 1-2 1.9-3 2.8-1 .9-2 1.8-2.9 2.7-.5.5-1 .9-1.3 1.4-.3.5-.4 1.1-.3 1.7.1.6.4 1 .9 1.5.4.4.8.9 1.3 1.3.8.9 1.6 1.7 2.4 2.5 1.5 1.6 3 3.1 4.3 4.5 2.6 2.7 4.7 4.9 6.2 6.5.7.8 1.3 1.4 1.7 1.8.3.2.5.5.5.5l-.6-.6-1.7-1.7c-1.5-1.5-3.6-3.7-6.3-6.4C8.5 42.1 7 40.6 5.5 39c-.8-.8-1.6-1.6-2.4-2.5-.4-.4-.8-.9-1.3-1.3-.4-.4-.9-1-1-1.7-.1-.7 0-1.4.3-2 .2-.3.4-.6.6-.8l.7-.7c1-.9 1.9-1.8 2.9-2.7 1-.9 2-1.9 3-2.8l.8-.7c.3-.2.5-.5.9-.7.7-.4 1.5-.5 2.3-.3.6.1 1.2.6 1.6 1 .4.4.8.9 1.2 1.3.8.8 1.6 1.7 2.4 2.5 1.6 1.7 3.2 3.3 4.7 4.8 3 3.2 5.9 6.1 8.4 8.6-3.7 3.4-6.7 6.2-8.8 8.2-1 .9-1.9 1.7-2.4 2.2-.3.2-.5.4-.6.6-.2 0-.3.1-.3.1z"/><path transform="rotate(-43.189 19.996 42.503)" class="st10" d="M10.1 36.8h19.7v11.4H10.1z"/><path class="st11" d="M8.9 45.1l7.8 8.3 6.5-6.2-7.8-8.3z"/><path class="st2" d="M8.9 45.1s.1-.1.2-.3l.8-.8c.7-.7 1.7-1.6 2.9-2.8 2.6-2.4 6.2-5.9 10.5-9.9 2.5 2.7 5.3 5.6 8.2 8.7-5.6 5.2-10.7 10-14.7 13.8-2.4-2.6-4.4-4.8-5.8-6.3-.7-.7-1.2-1.3-1.5-1.7-.4-.5-.6-.7-.6-.7s.2.2.6.5l1.6 1.6c1.3 1.4 3.3 3.4 5.6 5.9 3.8-3.6 8.7-8.2 14-13.2-2.6-2.8-5.2-5.5-7.5-8-4.2 3.9-7.7 7.2-10.2 9.5-1.3 1.2-2.3 2.1-3 2.7-.4.3-.6.6-.8.7l-.3.3z"/><path transform="rotate(-43.189 24.667 47.056)" class="st5" d="M13.3 44H36v6.1H13.3z"/><path transform="rotate(-43.189 19.645 51.764)" fill="#c60c39" d="M15.2 48.7h9v6.1h-9z"/><path class="st2" d="M14.3 52.6l.3-.3.9-.9c.8-.8 2-1.9 3.4-3.3 3-2.8 7.2-6.8 12-11.3 1.4 1.5 3 3.1 4.5 4.8-3.4 3.2-6.7 6.3-9.6 9-2.9 2.7-5.4 5-7.4 6.8-1.3-1.5-2.4-2.6-3.1-3.4-.3-.4-.6-.7-.8-.9-.1-.4-.2-.5-.2-.5l.3.3.8.8c.7.7 1.7 1.8 3 3.1 1.9-1.8 4.3-4.1 7-6.7 2.8-2.6 5.9-5.5 9.2-8.7-1.3-1.4-2.6-2.8-3.8-4.1-4.7 4.4-8.8 8.2-11.7 10.9-1.5 1.4-2.7 2.5-3.5 3.2-.4.4-.7.7-1 .8-.2.3-.3.4-.3.4zm20.8 14.2c.1-.1 4.3 3.9 9.3 9 5 5 9 9.2 9 9.3-.1.1-4.3-3.9-9.3-9-5.1-5.1-9.1-9.2-9-9.3z"/><path class="st3" d="M58.5 69c1.4-1.4 3.1-2.1 4-.5.9 1.5-2.3 3.1-2.7 3.3-.7.4-3.7-.2-1.3-2.8z"/><path class="st2" d="M58.5 69s-.1.2-.3.5c-.2.3-.5.8-.5 1.3 0 .6.8.9 1.6.9h.3c.1 0 .1-.1.3-.1l.6-.3c.4-.2.8-.5 1.1-.8.4-.3.7-.7.8-1 .1-.4 0-.7-.2-1-.5-.6-1.3-.6-1.8-.4-1.3.3-1.8 1-1.9.9 0 0 .1-.2.3-.5.3-.3.7-.6 1.3-.9.3-.1.7-.3 1.1-.2.4 0 .9.3 1.2.6.3.3.6.9.4 1.5-.2.5-.5.9-.9 1.3l-1.2.9-.6.3c-.1 0-.2.1-.4.2-.1 0-.3.1-.4.1-.5 0-.9-.1-1.3-.3-.4-.2-.6-.6-.6-1 0-.8.5-1.2.7-1.5.3-.4.4-.6.4-.5z"/><path class="st3" d="M60.2 71.8c1.3-1.4 2.9-1.9 3.7-.4.8 1.5-2.1 2.9-2.5 3.1-.6.4-3.5-.3-1.2-2.7z"/><path class="st2" d="M60.2 71.8s-.1.2-.3.5c-.2.3-.5.7-.4 1.2 0 .5.7.9 1.5.8h.3c.1 0 .1 0 .2-.1l.6-.3c.4-.2.7-.5 1.1-.8.3-.3.6-.6.7-1 .1-.3 0-.7-.2-1-.4-.6-1.2-.6-1.7-.4-1.2.5-1.7 1.2-1.8 1.1 0 0 .1-.2.3-.4.2-.2.6-.6 1.2-.9.3-.1.7-.2 1.1-.2.4 0 .8.3 1.1.6.3.3.5.9.4 1.4-.2.5-.5.9-.9 1.2-.4.3-.8.6-1.1.8l-.6.3c-.1 0-.2.1-.3.1H61c-.5 0-.9-.1-1.2-.3-.4-.2-.6-.6-.6-1 0-.7.4-1.1.6-1.4l.4-.2z"/><path class="st3" d="M56.3 66.9c1.3-1.4 2.9-1.9 3.7-.4.8 1.5-2.1 2.9-2.5 3.1-.6.4-3.5-.2-1.2-2.7z"/><path class="st2" d="M56.3 66.9s-.1.2-.3.5c-.2.3-.5.7-.4 1.2 0 .5.7.9 1.5.8h.3c.1 0 .1 0 .2-.1l.6-.3c.4-.2.7-.5 1.1-.8.3-.3.6-.6.7-1 .1-.3 0-.7-.2-1-.4-.6-1.2-.6-1.7-.4-1.2.5-1.7 1.2-1.8 1.1 0 0 .1-.2.3-.4.2-.2.6-.6 1.2-.9.3-.1.7-.2 1.1-.2.4 0 .8.3 1.1.6.3.3.5.9.4 1.4-.2.5-.5.9-.9 1.2-.4.3-.8.6-1.1.8l-.6.3c-.1 0-.2.1-.3.1h-.4c-.5 0-.9-.1-1.2-.3-.4-.2-.6-.6-.6-1 0-.7.4-1.1.6-1.4l.4-.2z"/><path class="st3" d="M25.2 69.3s-3.9 7.8-8.5 3.5c-2.1-2 .5-5.6 2.7-8 .3-.3.5-2.6 1-3.9.5-1.3-.9-2.2.1-2.7 2.1-1.2 3.1 3.1 3.1 3.1l1.6 8z"/><path class="st2" d="M23.4 61.2s-.2-.4-.5-1.2c-.2-.4-.4-.8-.7-1.3-.3-.4-.9-.9-1.5-.6-.3.1-.6.3-.5.6.1.3.3.7.4 1.2.1.5-.1 1-.2 1.4-.1.4-.2.9-.3 1.4l-.3 1.5c-.1.3-.1.5-.3.8-.2.2-.3.4-.5.6-.7.8-1.3 1.6-1.9 2.6-.6.9-1 1.9-1 2.9 0 .5.2.9.5 1.3l.2.3.3.2c.2.1.4.3.6.4.8.5 1.7.7 2.5.5.8-.1 1.5-.5 2.1-1 1.1-.9 1.8-1.8 2.3-2.5.5-.7.7-1.1.7-1 0 0-.1.4-.6 1.1-.4.7-1.1 1.7-2.3 2.7-.6.5-1.3.9-2.2 1.1-.9.2-1.9-.1-2.8-.6-.2-.2-.4-.3-.6-.5l-.3-.2-.3-.3c-.3-.4-.6-1-.6-1.6 0-1.1.5-2.2 1-3.2.6-1 1.3-1.8 2-2.6.2-.2.4-.4.5-.6.1-.1.2-.4.2-.6.1-.5.2-1 .3-1.4.1-.5.2-.9.3-1.4.2-.5.3-.8.2-1.2 0-.4-.2-.7-.3-1.2-.1-.2 0-.5.2-.7.2-.2.4-.2.6-.3.4-.1.8-.1 1.1.1.3.2.5.4.7.7.3.5.5 1 .7 1.4.3.7.4 1.1.3 1.2z"/><path class="st3" d="M22.3 71.9l1.8-2.4c4.1-1 5.3-3.4 5.6-4.4.3-1-.8-1.7-.8-1.7l-11.1 5.2 4.5 3.3z"/><path d="M22.3 71.9c-.1 0 .3-.6.9-1.6.2-.2.3-.5.5-.8l.1-.1s.1-.1.1-.2l.3-.1c.2-.1.3-.1.5-.2.7-.2 1.4-.6 2.1-1 1.4-.9 2.3-2.2 2.6-3.2.1-.5-.2-.9-.4-1.1-.2-.2-.3-.4-.3-.4s.2 0 .4.2.6.6.6 1.3c-.2 1.2-1.1 2.6-2.7 3.6-.8.5-1.5.8-2.3 1-.2 0-.4.1-.5.1-.1 0-.2.1-.2 0l-.1.1c-.2.3-.4.5-.6.7-.5 1.2-1 1.8-1 1.7z" fill="none"/><path class="st3" d="M23.4 64.7c1.6-1.3 3.6-2.5 4-3.3.3-.7 3.3-.4.4 3.9-.2.3-1.2 1.2-2.9 2.1l-1.5-2.7z"/><path class="st2" d="M24.8 67.3c0-.1.7-.4 1.7-1.2.3-.2.5-.4.8-.7.3-.2.4-.6.7-1 .4-.7.9-1.6.7-2.5-.1-.4-.4-.6-.8-.6-.1 0-.2 0-.2.1 0 0-.1 0-.1.1l-.1.1c-.1.2-.3.4-.5.6-.7.6-1.3 1-1.9 1.4-1.1.7-1.8 1.2-1.8 1.1 0-.1.6-.6 1.6-1.4.5-.4 1.2-.9 1.8-1.4.1-.1.3-.3.4-.5 0 0 .1-.1.1-.2l.2-.2c.1-.1.3-.1.4-.1.3 0 .6 0 .9.2.2.2.4.5.5.7.2 1.2-.4 2.1-.8 2.8-.1.2-.2.4-.4.5-.1.2-.3.4-.4.5-.3.3-.6.5-.9.7-1.1.8-1.9 1.1-1.9 1z"/><path class="st3" d="M23.4 64.7c.5-.2 1.9-1.2 2.5-1.6 3.4-2.6.9-3.6.2-3.2-.4.2-3.5 1.2-4.5 2.6l1.8 2.2z"/><path class="st2" d="M21.7 62.4c-.1 0 .3-.7 1.4-1.4.5-.3 1.2-.7 1.9-1 .4-.2.8-.3 1.2-.5.6-.2 1.1 0 1.5.4.2.2.3.5.3.8 0 .3-.1.5-.2.7-.2.4-.5.7-.8 1-.6.6-1.2 1-1.7 1.3-1 .7-1.7 1-1.7.9 0 0 .6-.4 1.5-1.2.5-.4 1-.8 1.6-1.3.3-.3.5-.6.7-.9.2-.3.2-.7 0-1-.2-.2-.7-.4-1-.3-.4.2-.8.3-1.2.4-.7.3-1.4.6-1.9.8-1.1.8-1.6 1.4-1.6 1.3z"/><path class="st5" d="M33 46.7c.2.2.7.6 1.1 1 .5.5.7.8.8 1.2.1.4.1.8-.3 1.2-.3.3-.7.4-1.3.1.3.5.2 1.1-.2 1.5-.3.3-.7.4-1.1.3-.4-.1-1-.4-1.7-1.2-.4-.4-.7-.8-.8-1l3.5-3.1zm-1.9 3.6c.1.1.1.2.2.3.3.3.7.5 1 .2.3-.3.2-.7-.2-1l-.2-.2-.8.7zm1.4-1.4l.2.2c.4.4.7.5.9.2.2-.2.2-.5-.1-.8-.1-.2-.2-.2-.3-.3l-.7.7zm.8 5l1.4-1.3 1-3.1 1 1.1-.5 1c-.2.3-.3.6-.4.8.3-.1.5-.2.9-.4l1.1-.5 1 1.1-3.1.8-1.4 1.4-1-.9zm5.5.4l-.8-.9.8-.7 2.6 2.7-.8.7-.9-.9-2.7 2.6-.9-.9 2.7-2.6zm2.8 5.6l-1.2-1.3-.6.6 1.3 1.4-.8.7-2.2-2.3 3.5-3.3 2.2 2.3-.8.7-1.3-1.3-.6.5 1.2 1.3-.7.7zm.1 1c.1.3.3.8.6 1.1.3.3.6.4.7.2.2-.2.1-.4-.1-.9-.3-.8-.4-1.5.1-2 .6-.6 1.6-.5 2.4.4.4.4.6.8.7 1.1l-.9.5c-.1-.2-.2-.6-.6-.9-.3-.3-.5-.3-.7-.2-.2.2-.1.4.2 1 .4.8.3 1.5-.2 1.9-.6.6-1.6.6-2.5-.4-.4-.4-.7-.9-.8-1.2l1.1-.6zm5.1 4.4L45.6 64l-.6.6 1.3 1.4-.8.7-2.2-2.3 3.5-3.3 2.2 2.3-.8.7-1.3-1.3-.6.5 1.2 1.3-.7.7zm2.5-1.4c.3.2.7.6 1.1 1.1.5.5.8 1 .9 1.4 0 .4-.1.7-.4 1.1-.4.4-1.1.4-1.4.2.1.3 0 .7-.2 1-.3.4-.7 1-.7 1.2l-.9-1c.1-.1.2-.5.6-1 .3-.5.3-.7 0-1H48l-1.3 1.2-.9-.9 3.5-3.3zm-.6 2.3l.2.2c.3.4.7.4 1 .1.3-.2.2-.6 0-.9l-.3-.3-.9.9zm3.5.7l.9.9-1.5 1.4c.2-.1.4-.1.6-.1l1.7-.4 1.1 1.2-2.5.3-.9 3.1-1-1.1.7-2.1-.6.1-1.1 1-.9-.9 3.5-3.4zm3.1 7.4L54.1 73l-.6.6 1.3 1.4-.8.8-2.2-2.3 3.5-3.3 2.2 2.3-.8.7-1.3-1.3-.6.5 1.2 1.3-.7.6zm2.5-1.4c.3.2.7.6 1.1 1.1.5.5.8 1 .9 1.4 0 .4-.1.7-.4 1.1-.4.4-1.1.4-1.4.2.1.3 0 .7-.2 1-.3.4-.7 1-.7 1.2l-.9-1c.1-.2.2-.5.6-1 .3-.5.3-.7 0-1l-.1-.2-1.3 1.2-.9-.9 3.3-3.1zm-.6 2.3l.2.2c.3.4.7.4 1 .1.3-.2.2-.6 0-.9l-.3-.3-.9.9z"/><path class="st5" d="M33 46.7c.2.2.7.6 1.1 1 .5.5.7.8.8 1.2.1.4.1.8-.3 1.2-.3.3-.7.4-1.3.1.3.5.2 1.1-.2 1.5-.3.3-.7.4-1.1.3-.4-.1-1-.4-1.7-1.2-.4-.4-.7-.8-.8-1l3.5-3.1zm-1.9 3.6c.1.1.1.2.2.3.3.3.7.5 1 .2.3-.3.2-.7-.2-1l-.2-.2-.8.7zm1.4-1.4l.2.2c.4.4.7.5.9.2.2-.2.2-.5-.1-.8-.1-.2-.2-.2-.3-.3l-.7.7zm.8 5l1.4-1.3 1-3.1 1 1.1-.5 1c-.2.3-.3.6-.4.8.3-.1.5-.2.9-.4l1.1-.5 1 1.1-3.1.8-1.4 1.4-1-.9zm5.5.4l-.8-.9.8-.7 2.6 2.7-.8.7-.9-.9-2.7 2.6-.9-.9 2.7-2.6zm2.8 5.6l-1.2-1.3-.6.6 1.3 1.4-.8.7-2.2-2.3 3.5-3.3 2.2 2.3-.8.7-1.3-1.3-.6.5 1.2 1.3-.7.7zm.1 1c.1.3.3.8.6 1.1.3.3.6.4.7.2.2-.2.1-.4-.1-.9-.3-.8-.4-1.5.1-2 .6-.6 1.6-.5 2.4.4.4.4.6.8.7 1.1l-.9.5c-.1-.2-.2-.6-.6-.9-.3-.3-.5-.3-.7-.2-.2.2-.1.4.2 1 .4.8.3 1.5-.2 1.9-.6.6-1.6.6-2.5-.4-.4-.4-.7-.9-.8-1.2l1.1-.6zm5.1 4.4L45.6 64l-.6.6 1.3 1.4-.8.7-2.2-2.3 3.5-3.3 2.2 2.3-.8.7-1.3-1.3-.6.5 1.2 1.3-.7.7zm2.5-1.4c.3.2.7.6 1.1 1.1.5.5.8 1 .9 1.4 0 .4-.1.7-.4 1.1-.4.4-1.1.4-1.4.2.1.3 0 .7-.2 1-.3.4-.7 1-.7 1.2l-.9-1c.1-.1.2-.5.6-1 .3-.5.3-.7 0-1H48l-1.3 1.2-.9-.9 3.5-3.3zm-.6 2.3l.2.2c.3.4.7.4 1 .1.3-.2.2-.6 0-.9l-.3-.3-.9.9zm3.5.7l.9.9-1.5 1.4c.2-.1.4-.1.6-.1l1.7-.4 1.1 1.2-2.5.3-.9 3.1-1-1.1.7-2.1-.6.1-1.1 1-.9-.9 3.5-3.4zm3.1 7.4L54.1 73l-.6.6 1.3 1.4-.8.8-2.2-2.3 3.5-3.3 2.2 2.3-.8.7-1.3-1.3-.6.5 1.2 1.3-.7.6zm2.5-1.4c.3.2.7.6 1.1 1.1.5.5.8 1 .9 1.4 0 .4-.1.7-.4 1.1-.4.4-1.1.4-1.4.2.1.3 0 .7-.2 1-.3.4-.7 1-.7 1.2l-.9-1c.1-.2.2-.5.6-1 .3-.5.3-.7 0-1l-.1-.2-1.3 1.2-.9-.9 3.3-3.1zm-.6 2.3l.2.2c.3.4.7.4 1 .1.3-.2.2-.6 0-.9l-.3-.3-.9.9z"/></svg>