<svg id="Layer_1" data-name="Layer 1" xmlns="http://www.w3.org/2000/svg" viewBox="0 0 70 59.5"><defs><style>.cls-1{fill:#fdc305}.cls-2{fill:#f06351}.cls-4{fill:#111}</style></defs><path class="cls-1" d="M59.8 24a25.62 25.62 0 10-27.4 35.2c-.6-2.1-1.2-4.4-1.7-6.9a36.69 36.69 0 004.8 2.6s.1 2.2.3 4.6a23.25 23.25 0 005.3-.5v-.8c.3-1.9 1.1-5.2 1.2-7.4a17.57 17.57 0 002.9-3.7.6.6 0 01-.1.4c-.6 4.3-1.7 8.8-2.4 10.1a5 5 0 01-.8 1.2 32.38 32.38 0 004.1-1.3A25.66 25.66 0 0059.8 24zm-1.5 3.8c-.4.4-1.3.7-1.5-.6a16 16 0 01-.2-2.2s-1.9-3.4-2.7-3.5-5.8 3.5-7.2 5c-1.2 1.3-1.4 1.2-1.4 3.5 0 1.7.2 8.2.1 13.1l-8.1 2.2a67.45 67.45 0 01-7.8 1.8l-1-5.8L25.8 28s-3.8-1.4-5.2-1.8-2.3-.7-4 .6a5 5 0 00-1.7 3.9s.4 1 .5 1.4-1.2.4-2 .4-.9-1.4-.3-3.1a21.34 21.34 0 011.9-3.7 10.9 10.9 0 012.1-2.9s.1-.3 1.3-.2 7.3.4 7.3.4l.1-2.3A137 137 0 0146 19.4a10.87 10.87 0 01-.1 1.8 23.64 23.64 0 018.1-2 1.24 1.24 0 01.8.4c.3.4 2.4 3 2.7 3.4a32.52 32.52 0 011.8 3c-.1 0-.6 1.3-1 1.8z"/><path class="cls-2" d="M56.4 21.7a11.46 11.46 0 011 1.3 32.52 32.52 0 011.8 3 5.71 5.71 0 01-.9 1.8c-.5.5-1.3.7-1.5-.6a16 16 0 01-.2-2.2s-1.9-3.4-2.7-3.5-5.8 3.5-7.2 5c-1.2 1.3-1.4 1.2-1.4 3.5 0 1.5.2 6.6.1 11.2 1.8.2 4.5.7 5.3 1.9 0 0-.3-7.2 7.8-3.4 0 0 .3-9.8 11.5-7.3a41.36 41.36 0 00-13.6-10.7zm-10.6-2.3a95.5 95.5 0 00-1.4-16.5s-.1-1.3-.9-.2a15.64 15.64 0 00-1.2 4 62.23 62.23 0 00-12.8.2c-.8-2.7-2.2-4-2.9-3.7s-.7 3.3-.7 3.3l-.3 14.2a137 137 0 0120.2-1.3z"/><path d="M45.3 47.1c.1-1.1.2-2.5.2-4.1l-8.1 2.2a67.45 67.45 0 01-7.8 1.8l1.1 5a.37.37 0 00.1.3 36.69 36.69 0 004.8 2.6 47.7 47.7 0 006.9-4.1v.1a22 22 0 002.8-3.8z" fill="#e55645"/><path d="M31.9 16.2c0-.1 1 .7 1.4.9s.6.4.6.6-.3.3-.6.3-.9-.1-1-.3h1.2a9.24 9.24 0 01-1.6-1.5zm7.5.1l-1.1 1.3c0 .1-.2.3.2.3a3 3 0 001.2-.3c.1-.1.1-.2-.1-.2a3.75 3.75 0 00-1 .1l.8-1.2c.1 0 .1-.1 0 0zm-3.1 6.1a2.79 2.79 0 001.1-1c.3-.7 0-.9-.4-1a2.59 2.59 0 00-1.7.3.68.68 0 00-.1 1 1.9 1.9 0 001.1.7z"/><path class="cls-2" d="M35.8 23.7a1.79 1.79 0 01-.5.6 1.53 1.53 0 01-1 .4 3.31 3.31 0 01-1.5-.4 2.18 2.18 0 01-.5-.4 1.73 1.73 0 00-.4-.3s.8 4.1 2.6 4.8 2.2-.8 2.2-1.1a6 6 0 00-.8-3.2c.1-.5 0-.3-.1-.4z"/><path d="M34.2 24.8c-1.3 0-2.3-1.4-2.4-1.4v-.2h.2s1 1.3 2.1 1.3a1.94 1.94 0 001.6-1l.1-.2.1.2s.4.8 1 .8 1.1-.4 1.6-1.3c0-.1.1-.1.2 0s.1.1 0 .2c-.6 1-1.3 1.5-1.9 1.4a1.37 1.37 0 01-1.1-.8 1.58 1.58 0 01-1.5 1z"/><circle class="cls-1" cx="36.2" cy="34.5" r="3.8"/><path class="cls-4" d="M41.1 31.5L38 32.8l1.1-5.6-7.5 9.8 3.1-1.3-1.1 5.6zm-7.4 3.8l4.1-5.4-.8 4 2-.8-4.1 5.4.8-4z"/><circle class="cls-4" cx="32.3" cy="32.7" r="1.1"/><circle class="cls-4" cx="38.9" cy="37.1" r=".8"/><circle class="cls-4" cx="39.8" cy="35.4" r=".3"/><path class="cls-2" d="M45.8 21.2a60.88 60.88 0 00-5.1 5.2 34 34 0 01-5.3 4.9c-.2-.5-1.6-1.5-1.6-1.5s-3.1-2.1-5.2-3.8a30.22 30.22 0 01-3.1-3c-.3 0-1.1-.1-2-.1a22.38 22.38 0 0012 8.8c.9-.1 3.3-1.9 5.1-3.3a56.1 56.1 0 006-5.9 5.75 5.75 0 001.1-2 8.16 8.16 0 00-1.9.7z"/><path class="cls-1" d="M65.1 3.5l-8.4 9.4-1.3-2L63.6 0zm-2.6 13.8l5.6-4.2-.8-3.7-5.4 4.8zm-2.7 32.1l6.2 3.2 3-2.4-6.7-2.7zM1.9 6l3-3.4 9.3 9-1.2 2.3zm5.4 10.3l-4.7-3.1L.2 17l5.1 2.4zm6.5 36.3l-4.5 3.3 2.8 3.6 4-4z"/><path class="cls-2" d="M25.8 28s-3.8-1.4-5.2-1.8-2.3-.7-4 .6a5 5 0 00-1.7 3.9s.4 1 .5 1.4-1.2.4-2 .4-.9-1.4-.3-3.1a21.34 21.34 0 011.9-3.7c-5.4 2.8-15 9.4-15 9.4a46.36 46.36 0 018.2.2c5.3.5 5 4.7 5 4.7a32.83 32.83 0 015.6-1.1 2.24 2.24 0 012.3 2.1l.5 3.9a24.45 24.45 0 012.7-2.4 5.89 5.89 0 014.4-1.3z"/></svg>