<svg xmlns="http://www.w3.org/2000/svg" viewBox="0 0 3523.9 5456.2"><style>.st0{fill:#fff}.st2{fill:#e0e0e0}.st3{fill:#ededed}.st5{fill:#9e9e9e}.st7{fill:#777}.st8{fill:#bfbfbf}.st11{fill:#fefcfe}.st12{fill:#d30d3c}.st13{fill:#f90d3e}.st14{fill:#1b1f21}.st15{fill:#475059}.st16{fill:#f9f9f7}.st20{fill:#2d3538}.st22{opacity:.15;fill:#231f20}.st26{fill:#3a4349}.st27{fill:#8e6040}.st28{fill:#323b3f}.st32{fill:#eaeaea}.st34{fill:#848484}.st36{opacity:.26;fill:#020202}.st37{fill:#edbe85}.st38{fill:#fff2e6}.st39{fill:#e2e2e2}.st40{fill:#31373a}</style><g id="Layer_2"><path transform="rotate(21.69 2771.187 4264.514)" class="st0" d="M2764.5 4180.7h14v168.7h-14z"/><path transform="rotate(-158.315 2741.77 4339.826)" fill="#cecece" d="M2734.8 4335.3h14v9h-14z"/><path class="st0" d="M2760.2 4347.5l-36.8-14.7c-1-.4-2.1.1-2.5 1.1l-17.4 43.8c-.4 1 .1 2.1 1.1 2.5l36.8 14.7c1 .4 2.1-.1 2.5-1.1l17.4-43.8c.4-1-.1-2.1-1.1-2.5z"/><path class="st0" d="M2750.3 4392.7l-50.3-20c-5.4-2.1-11.5.5-13.7 5.9l-35 88.1c-2.1 5.4.5 11.5 5.9 13.7l50.3 20c5.4 2.1 11.5-.5 13.7-5.9l35-88.1c2.1-5.4-.5-11.5-5.9-13.7z"/><path class="st2" d="M2758.9 4402.5c0 1.5-.3 3.1-.9 4.6l-35 88.1c-1.2 3.1-3.6 5.5-6.7 6.9s-6.5 1.4-9.6.1l-50.3-20c-3.1-1.2-5.5-3.6-6.9-6.7-1.3-3.1-1.4-6.5-.1-9.6l35-88.1c2.5-6.4 9.8-9.6 16.2-7l50.3 20c5 2 8 6.7 8 11.7zm-106.3 68.1c0 1.1.2 2.3.7 3.4.9 2.1 2.6 3.7 4.7 4.5l50.3 20c2.1.8 4.4.8 6.5-.1 2.1-.9 3.7-2.6 4.5-4.7l35-88.1c1.7-4.4-.4-9.3-4.8-11.1l-50.3-20c-4.4-1.7-9.3.4-11.1 4.8l-35 88.1c-.3 1.1-.5 2.1-.5 3.2z"/><path class="st3" d="M2227.6 5150.5l331.9 132c24.3 9.7 51.9-2.2 61.6-26.5l259.8-653.1c9.7-24.3-2.2-51.9-26.5-61.6l-331.9-132c-24.3-9.7-51.9 2.2-61.6 26.5l-259.8 653.1c-9.7 24.3 2.2 51.9 26.5 61.6z"/><path transform="rotate(-158.315 2541.238 4844.628)" fill="#939393" d="M2328.2 4534.1h426.2v621h-426.2z"/><path class="st5" d="M2613.7 4501l110.4 43.9c3.4 1.4 7.3-.3 8.7-3.7 1.4-3.4-.3-7.3-3.7-8.7l-110.4-43.9c-3.4-1.4-7.3.3-8.7 3.7-1.4 3.4.3 7.3 3.7 8.7z"/><path d="M2460.7 4435.6L2201 5088.7c-9.7 24.3 2.4 51.9 26.7 61.6l45.2 18 445.3-681.3-195.7-77.8c-24.4-9.6-52.1 2.1-61.8 26.4z" opacity=".08" fill="#020202"/><path transform="rotate(-158.315 2705.88 4429.628)" class="st2" d="M2698.9 4404h14.1v51.2h-14.1z"/><path class="st0" d="M3117.3 4906c-27.5-15.6-49.4-39-69-62-10.6-12.4-21.3-25.7-30.7-40-17.6-1-35.9-4.9-54.4-11.7-30.8-11.4-59-29.7-82.5-46.1-21.4-14.9-45.4-33-58.6-58.6-13-25.2-15.2-57.6-6.2-91.2 4.9-18.1 13.3-36.2 21.5-53.7 5.2-11 10-21.4 14.1-31.8 17.5-45.1 35.5-91.7 42.7-140 5.5-37.4 6.4-91.9-21-139.3-14.1-24.4-33.8-44.1-55.4-63.6l-12.4 30.7-13-5.2 14.3-35.4c-1.3-1.2-2.7-2.4-4.1-3.6-21.1-18.7-43-38-60.4-60.8-8.9-11.6-20.6-29.5-20.4-50.3.3-22.9 16.1-44.5 38.5-52.5 20.9-7.5 46-2.7 63.8 12.2 16.6 13.9 26.7 35.8 27.1 58.8.3 22.6-8.3 44-16 62.8l-11.9 29.4c23.2 20.8 46.1 42.9 62 70.4 29.4 50.9 28.6 108.8 22.7 148.3-7.4 49.9-25.7 97.2-43.5 143-4.2 10.8-9.4 21.9-14.4 32.7-7.9 16.9-16.1 34.4-20.7 51.4-8.1 30.2-6.3 59 5.1 81.2 11.8 22.7 33.2 38.9 54.2 53.5 23.9 16.7 50.1 33.6 79.3 44.4 13.8 5.1 27.4 8.4 40.6 10-2-3.7-4-7.5-5.7-11.4-9-19.4-18.3-49.2-11.4-80.9 6.4-29.4 27.1-54.1 52.8-62.8 23.4-8 50.7-2.8 69.6 13.2 25.1 21.4 33.3 60.5 19.4 93.1-12.3 28.8-40.9 51.8-74.8 60-7.8 1.9-15.8 3.1-24.1 3.5 7.7 10.9 16.1 21.2 24.4 31 18.7 22 39.6 44.4 65.2 58.9 27.5 15.6 57.2 19.4 81.4 10.5 3.8-1.4 7.5-3.1 11.5-4.9 6.1-2.8 12.5-5.7 19.4-7.5 11.7-3 27.6-2.2 37.2 9l-10.6 9.1c-5.4-6.3-15.8-6.4-23.1-4.5-5.7 1.5-11.2 4-17 6.7-4 1.8-8.2 3.8-12.5 5.4-23 8.4-49.8 7.2-75.9-3.2-5.6-2.2-11.4-5-17.1-8.2zm-68.3-258.7c-21.1 7.2-38.2 27.9-43.6 52.6-6.1 27.9 2.3 54.5 10.4 72 2.9 6.3 6.2 12.4 9.8 18.3 10.3 0 20.3-1.1 29.8-3.4 29.7-7.2 54.6-27.1 65.2-51.9 11.4-26.7 4.6-59.8-15.6-77-4.7-4-10-7.1-15.7-9.4-12.7-5.1-27.3-5.7-40.3-1.2zm-283.8-643.2c-16.7 6-29 22.6-29.2 39.5-.1 12.5 5.4 25.7 17.5 41.6 16.6 21.8 37.9 40.6 58.5 58.8l.3.3 10-24.8c7.1-17.6 15.2-37.6 15-57.4-.3-18.9-8.5-37-22-48.2-4.4-3.7-9.4-6.6-14.6-8.7-11.4-4.6-24.3-5.2-35.5-1.1z"/><path class="st0" d="M3440.6 4797.7c-9.2 42.9-23.4 73.4-44.5 95.9-26.3 28-64.6 40.6-96.6 32 2.3 3 4.5 6 6.6 9 40.9 57 71 123.2 87.1 191.4l-13.6 3.2c-15.7-66.5-45-131-84.9-186.5-13.2-18.4-28.9-38.1-47.7-38.1l-.7-14c15.5-1.7 25.5 4.7 35.2 10.9 5.5 3.5 11.2 7.2 18.2 9.5 32.1 10.5 66.4-6 86.2-27.1 19.4-20.6 32.4-49 41.1-89.3l13.6 3.1z"/><ellipse transform="rotate(-21.696 3353.183 5237.321)" class="st7" cx="3353.1" cy="5237.3" rx="12.8" ry="61.4"/><path class="st0" d="M3366.9 5286.6c4 12.8 26.5 20.4 35.4 7.3 12.1-17.8 21.1-37 22.9-41.2l9.4 23.7c2.6 6.5 10.3 9.4 17.1 6.7l1.3-.5c6.8-2.7 10.3-10 7.7-16.5l-66.5-167.1-26.1 10.4 27.6 69.3c-5.3-1.6-33.3-10.1-40.6-12.6-9.9-3.4-17.5 1.1-17.5 1.1-2.8 1.6-4.9 3.6-6.4 5.6-4 5.2-5.9 12.5-2.5 17.8 10.9 16.8 33.7 81.9 38.2 96z"/><path class="st8" d="M3347.8 5041.4l14.6-5.8c3.2-1.3 6.9.3 8.2 3.5l31.1 78.1-26.4 10.5-31.1-78.1c-1.2-3.3.3-6.9 3.6-8.2z"/><ellipse transform="rotate(-68.304 3415.183 4648.015)" class="st7" cx="3415.4" cy="4648.3" rx="61.4" ry="12.8"/><path class="st0" d="M3429.2 4599c4-12.8 26.5-20.4 35.4-7.3 12.1 17.8 21.1 37 22.9 41.2l9.4-23.7c2.6-6.5 10.3-9.4 17.1-6.7l1.3.5c6.8 2.7 10.3 10 7.7 16.5l-66.5 167.1-26.1-10.4 27.6-69.3c-5.3 1.6-33.3 10.1-40.6 12.6-9.9 3.4-17.5-1.1-17.5-1.1-2.8-1.6-4.9-3.6-6.4-5.6-4-5.2-5.9-12.5-2.5-17.8 10.9-16.8 33.7-81.9 38.2-96z"/><path class="st8" d="M3410.1 4844.2l14.6 5.8c3.2 1.3 6.9-.3 8.2-3.5l31.1-78.1-26.4-10.5-31.1 78.1c-1.2 3.2.4 6.9 3.6 8.2z"/><path d="M2966.7 3030.8c19.2 0 38.1 1.4 56.5 4.1 188.1 27.4 332.4 189.3 332.4 384.8 0 5.7-.1 11.2-.4 16.8-8.8 207-179.4 372.2-388.5 372.2-214.8 0-388.9-174.2-388.9-389-.1-214.7 174-388.9 388.9-388.9z" fill="#e6e7e9"/><path class="st0" d="M2566.6 3419.7c0 220.6 179.4 400.1 400.1 400.1 215.1 0 390.6-168.1 399.7-382.9.1-4.2.3-8.3.3-12.5l-11.4 11.4-11.8 11.7c-14.2 197.2-177.6 350-376.7 350-208.3 0-377.8-169.5-377.8-377.8s169.5-377.8 377.8-377.8c15.1 0 30.4.9 45.4 2.8l10-10 9.7-9.7c-2.3-.4-4.6-.7-7-1.1-19.3-2.8-38.8-4.2-58.1-4.2-220.8 0-400.2 179.4-400.2 400z"/><path class="st5" d="M3031.8 3025c191.4 31.3 335 199.8 335 394.7 0 1.6 0 3.2-.1 4.8l-11.4 11.4-11.8 11.7c.3-3.8.5-7.7.7-11.5.2-5.4.4-10.9.4-16.4 0-186.4-138.8-347-322.9-373.8-3.1-.4-6.3-.9-9.4-1.2l10-10 9.5-9.7z"/><path d="M3012.1 3044.7c3.1.3 6.3.7 9.4 1.2 184.1 26.8 322.9 187.5 322.9 373.8 0 5.5-.1 10.9-.4 16.4-.1 3.9-.4 7.7-.7 11.5l-345.6 342.3-177.6-552.8 192-192.4z" fill="#b8b9bb"/><path class="st11" d="M2997.8 3777.6v-135c0-.2-.2-.4-.4-.4h-54.9c-2.9 0-5.3 2.4-5.3 5.3v129.4c0 16.9 13.8 30.6 30.6 30.6 16.6 0 30-13.5 30-29.9z"/><circle transform="rotate(-45.001 2966.638 3419.805)" class="st11" cx="2966.7" cy="3419.8" r="233"/><path class="st12" d="M2966.7 3227.5c106.2 0 192.3 86.1 192.3 192.2 0 60.3-27.7 114-71.1 149.3-33 27-75.2 43-121.2 43-106.2 0-192.3-86.1-192.3-192.3 0-74.8 42.7-139.6 105.2-171.3 26.1-13.4 55.7-20.9 87.1-20.9z"/><path class="st13" d="M2966.7 3227.5c106.2 0 192.3 86.1 192.3 192.2 0 60.3-27.7 114-71.1 149.3-26.2 13.4-55.8 20.9-87.1 20.9-106.2 0-192.3-86.1-192.3-192.2 0-60.3 27.7-114 71.1-149.3 26.1-13.4 55.7-20.9 87.1-20.9z"/><path class="st11" d="M907 2631.2l414.5 476.8-798.4 693.9-414.5-476.8c-24.9-28.7-21.9-72.1 6.8-97l43.1-37.5 1.8-1.5 40.8-35.5 1.8-1.5 39-33.9 1.8-1.5 39-33.9 1.8-1.5 39-33.9 1.8-1.5 484.8-421.4c3.5-3 7.2-5.7 11.1-7.9l2.1-1.2c27.6-14.5 62.4-8.8 83.7 15.8z"/><path class="st14" d="M521.5 3723.9c7.4-6.5 17.6-6.9 22.7-1 5.1 5.9 3.2 15.9-4.2 22.3-7.4 6.5-17.6 6.9-22.7 1-5.1-5.8-3.2-15.8 4.2-22.3zm83.8-72.8c7.4-6.5 17.6-6.9 22.7-1s3.2 15.9-4.2 22.3c-7.4 6.5-17.6 6.9-22.7 1-5.1-5.9-3.3-15.9 4.2-22.3zm81.5-68.5c7.4-6.5 17.6-6.9 22.7-1 5.1 5.9 3.2 15.9-4.2 22.3-7.4 6.5-17.6 6.9-22.7 1-5.1-5.9-3.2-15.9 4.2-22.3zm81.1-76c7.4-6.5 17.6-6.9 22.7-1 5.1 5.9 3.2 15.9-4.2 22.3-7.4 6.5-17.6 6.9-22.7 1-5.1-5.8-3.3-15.8 4.2-22.3zm80.3-69.8c7.4-6.5 17.6-6.9 22.7-1 5.1 5.9 3.2 15.9-4.2 22.3-7.4 6.5-17.6 6.9-22.7 1-5.1-5.8-3.2-15.8 4.2-22.3zm80.4-69.8c7.4-6.5 17.6-6.9 22.7-1 5.1 5.9 3.2 15.9-4.2 22.3-7.4 6.5-17.6 6.9-22.7 1-5.1-5.9-3.2-15.9 4.2-22.3zm80.3-69.9c7.4-6.5 17.6-6.9 22.7-1 5.1 5.9 3.2 15.9-4.2 22.3-7.4 6.5-17.6 6.9-22.7 1-5.1-5.8-3.2-15.8 4.2-22.3z"/><ellipse transform="rotate(-40.994 1105.717 3231.812)" class="st14" cx="1105.6" cy="3231.8" rx="17.8" ry="14.1"/><path class="st14" d="M1178.5 3149.7c7.4-6.5 17.6-6.9 22.7-1s3.2 15.9-4.2 22.3c-7.4 6.5-17.6 6.9-22.7 1-5.1-5.8-3.2-15.8 4.2-22.3z"/><path class="st15" d="M521.4 3731l63.6 73.2c1.2 1.4 1.1 3.5-.3 4.8-1.4 1.2-3.5 1.1-4.8-.3l-63.6-73.2c-1.2-1.4-1.1-3.5.3-4.8 1.4-1.3 3.6-1.1 4.8.3zm13.9-10.9l63.6 73.2c1.2 1.4 1.1 3.5-.3 4.8-1.4 1.2-3.5 1.1-4.8-.3l-63.6-73.2c-1.2-1.4-1.1-3.5.3-4.8 1.4-1.3 3.6-1.1 4.8.3zm69.7-61.5l63.6 73.2c1.2 1.4 1.1 3.5-.3 4.8-1.4 1.2-3.5 1.1-4.8-.3l-63.6-73.2c-1.2-1.4-1.1-3.5.3-4.8 1.4-1.2 3.6-1.1 4.8.3zm12.9-11.2l63.6 73.2c1.2 1.4 1.1 3.5-.3 4.8-1.4 1.2-3.5 1.1-4.8-.3l-63.6-73.2c-1.2-1.4-1.1-3.5.3-4.8 1.4-1.2 3.6-1.1 4.8.3zm68.7-57.3l63.6 73.2c1.2 1.4 1.1 3.5-.3 4.8-1.4 1.2-3.5 1.1-4.8-.3l-63.6-73.2c-1.2-1.4-1.1-3.5.3-4.8 1.5-1.2 3.6-1.1 4.8.3zm12.9-11.1l63.6 73.2c1.2 1.4 1.1 3.5-.3 4.8-1.4 1.2-3.5 1.1-4.8-.3l-63.6-73.2c-1.2-1.4-1.1-3.5.3-4.8 1.4-1.3 3.6-1.1 4.8.3zm68.1-64.7l63.6 73.2c1.2 1.4 1.1 3.5-.3 4.8-1.4 1.2-3.5 1.1-4.8-.3l-63.6-73.2c-1.2-1.4-1.1-3.5.3-4.8 1.5-1.3 3.6-1.2 4.8.3zm12.9-11.2l63.6 73.2c1.2 1.4 1.1 3.5-.3 4.8-1.4 1.2-3.5 1.1-4.8-.3l-63.6-73.2c-1.2-1.4-1.1-3.5.3-4.8 1.4-1.3 3.6-1.1 4.8.3zm67.5-58.7l63.6 73.2c1.2 1.4 1.1 3.5-.3 4.8-1.4 1.2-3.5 1.1-4.8-.3l-63.6-73.2c-1.2-1.4-1.1-3.5.3-4.8 1.4-1.3 3.6-1.1 4.8.3zm12.8-11.2l63.6 73.2c1.2 1.4 1.1 3.5-.3 4.8-1.4 1.2-3.5 1.1-4.8-.3l-63.6-73.2c-1.2-1.4-1.1-3.5.3-4.8 1.5-1.3 3.6-1.1 4.8.3zm67.6-58.8l63.6 73.2c1.2 1.4 1.1 3.5-.3 4.8-1.4 1.2-3.5 1.1-4.8-.3l-63.6-73.2c-1.2-1.4-1.1-3.5.3-4.8 1.4-1.2 3.5-1.1 4.8.3zm12.8-11.2l63.6 73.2c1.2 1.4 1.1 3.5-.3 4.8-1.4 1.2-3.5 1.1-4.8-.3l-63.6-73.2c-1.2-1.4-1.1-3.5.3-4.8 1.5-1.2 3.6-1.1 4.8.3zm67.5-58.5l63.6 73.2c1.2 1.4 1.1 3.5-.3 4.8-1.4 1.2-3.5 1.1-4.8-.3l-63.6-73.2c-1.2-1.4-1.1-3.5.3-4.8 1.4-1.3 3.6-1.1 4.8.3zm12.8-11.2l63.6 73.2c1.2 1.4 1.1 3.5-.3 4.8-1.4 1.2-3.5 1.1-4.8-.3l-63.6-73.2c-1.2-1.4-1.1-3.5.3-4.8 1.5-1.3 3.6-1.1 4.8.3zm74.6-64.8l63.6 73.2c1.2 1.4 1.1 3.5-.3 4.8-1.4 1.2-3.5 1.1-4.8-.3l-63.6-73.2c-1.2-1.4-1.1-3.5.3-4.8 1.5-1.3 3.6-1.1 4.8.3zm12.9-11.2l63.6 73.2c1.2 1.4 1.1 3.5-.3 4.8-1.4 1.2-3.5 1.1-4.8-.3l-63.6-73.2c-1.2-1.4-1.1-3.5.3-4.8 1.4-1.3 3.6-1.1 4.8.3zm69.3-60.1l63.6 73.2c1.2 1.4 1.1 3.5-.3 4.8-1.4 1.2-3.5 1.1-4.8-.3l-63.6-73.2c-1.2-1.4-1.1-3.5.3-4.8 1.5-1.3 3.6-1.1 4.8.3zm12.9-11.2l63.6 73.2c1.2 1.4 1.1 3.5-.3 4.8-1.4 1.2-3.5 1.1-4.8-.3l-63.6-73.2c-1.2-1.4-1.1-3.5.3-4.8 1.4-1.2 3.6-1.1 4.8.3z"/><path transform="rotate(-40.998 431.521 3417.059)" class="st14" d="M430.4 3067.1h2.3v699.8h-2.3z"/><path transform="rotate(-40.994 389.042 3454.066)" class="st14" d="M387.8 3104.1h2.3v699.8h-2.3z"/><path transform="rotate(-40.994 351.793 3486.47)" class="st14" d="M350.5 3136.5h2.4v699.8h-2.4z"/><path transform="rotate(-40.994 472.43 3381.587)" class="st14" d="M471.2 3031.6h2.3v699.8h-2.3z"/><path transform="rotate(-40.994 513.233 3346.116)" class="st14" d="M512 2996.1h2.3v699.8H512z"/><path transform="rotate(-40.994 554.041 3310.647)" class="st14" d="M552.8 2960.7h2.4v699.8h-2.4z"/><path transform="rotate(-40.994 594.63 3274.933)" class="st14" d="M593.4 2924.6h2.4v700.5h-2.4z"/><path transform="rotate(-40.994 635.436 3239.463)" class="st14" d="M634.2 2889.1h2.4v700.5h-2.4z"/><path transform="rotate(-40.994 674.469 3205.536)" class="st14" d="M673.2 2855.2h2.4v700.5h-2.4z"/><path transform="rotate(-40.994 717.05 3168.525)" class="st14" d="M715.8 2818.2h2.4v700.5h-2.4z"/><path transform="rotate(-40.994 756.082 3134.598)" class="st14" d="M754.8 2784.3h2.4v700.5h-2.4z"/><path transform="rotate(-40.994 795.114 3100.67)" class="st14" d="M793.9 2750.4h2.4v700.5h-2.4z"/><path transform="rotate(-40.994 837.695 3063.658)" class="st14" d="M836.4 2713.3h2.4v700.5h-2.4z"/><path transform="rotate(-40.994 882.05 3025.104)" class="st14" d="M880.8 2674.8h2.4v700.5h-2.4z"/><path transform="rotate(-40.994 924.63 2988.093)" class="st14" d="M923.4 2637.8h2.4v700.5h-2.4z"/><path transform="rotate(-40.994 965.437 2952.623)" class="st14" d="M964.2 2602.3h2.4v700.5h-2.4z"/><path transform="rotate(-40.994 1008.018 2915.612)" class="st14" d="M1006.8 2565.3h2.4v700.5h-2.4z"/><path class="st14" d="M823.3 2615.3l457.9 526.8-1.8 1.5-458.2-527.2c.7-.3 1.4-.7 2.1-1.1z"/><path transform="rotate(132.439 498.878 4855.4)" class="st16" d="M177.8 4473.1h642.1v764.7H177.8z"/><path transform="rotate(-23.059 1477.923 1531.033)" class="st16" d="M1156.8 1148.7h642.1v764.7h-642.1z"/><path d="M105.7 4491.9l437.9 76.9c2.7.5 5.5-2.7 6.2-7l7.4-41.9c.8-4.3-.8-8.2-3.5-8.7l-437.9-76.9c-.4-.1-.7-.1-1.1 0l-10.1 57.2c.4.2.7.4 1.1.4z" fill="#f4ba2e"/><path d="M554.2 4536.9l3-17c.8-4.3-.8-8.2-3.5-8.7l-437.9-76.9c-.4-.1-.7-.1-1.1 0l-3 17c.3-.1.6-.1.9-.1h.3l437.9 76.9c2.6.6 4.1 4.5 3.4 8.8z" fill="#ffdb92"/><path d="M109.3 4471.6l437.9 76.9c2.7.5 5.1-.4 5.4-1.9l2.6-14.8c.3-1.5-1.7-3.1-4.4-3.6l-437.9-76.9h-.3c-.3 0-.6-.1-.8-.1l-3.5 20.2c.2.1.6.2 1 .2z" fill="#ffcc5a"/><path class="st3" d="M114.7 4434.3s-99 8.8-99.7 12c-.7 3.3 89.7 45.3 89.7 45.3l10-57.3z"/><path class="st20" d="M49.2 4440.8s-35 3.6-35 5.3c0 2.2 31 17 31 17l4-22.3z"/><path d="M1624.4 2721.2c-14.1 28.9-2 64.2 26.9 78.3l362.3 177.1c28.9 14.1 64.2 2 78.3-26.9l245.7-502.8c14.1-28.9 2-64.2-26.9-78.3l-362.3-177.1c-28.9-14.1-64.2-2-78.3 26.9l-245.7 502.8z" fill="#cecfd1"/><path class="st22" d="M2179 2771.6l-150.3 210.7c-5.5-.4-15.4-5.8-20.8-8.5l-170-84.9s-216.9-157.7-217.7-158.3l103.7-201.6 210.9-315.3 10.2 4.1 259.4 500.9-25.4 52.9z"/><path d="M1618.1 2633.4c-19.3 25.8-14 62.7 11.8 82l322.8 241.7c25.8 19.3 62.7 14 82-11.8l335.4-447.9c19.3-25.8 14-62.7-11.8-82l-322.8-241.7c-25.8-19.3-62.7-14-82 11.8l-335.4 447.9z" fill="#f6f4f4"/><path d="M2293.4 2376.3l-69.8 107.8s-12 12.6 2.1 24.2c14 11.5 99.5 50.3 99.5 50.3l-31.8-182.3z" opacity=".2" fill="#231f20"/><path d="M2297.6 2370.5l-69.4 95.7s-12 12.6 2.1 24.2c14 11.5 94.6 68.7 94.6 68.7l-27.3-188.6z" fill="#dedede"/><path class="st22" d="M2138.4 2643.5c-2.7 3.6-7.8 4.3-11.4 1.6l-248.1-185.6c-3.6-2.7-4.3-7.8-1.6-11.4 2.7-3.6 7.8-4.3 11.4-1.6l248.1 185.6c3.6 2.8 4.3 7.9 1.6 11.4zm-92.2-27.6c-2.7 3.6-7.8 4.3-11.4 1.6l-174.9-131.7c-3.6-2.7-4.3-7.8-1.6-11.4 2.7-3.6 7.8-4.3 11.4-1.6l174.9 131.7c3.5 2.7 4.3 7.8 1.6 11.4zm52.1 82.8c-2.7 3.6-7.8 4.3-11.4 1.6l-248.1-185.6c-3.6-2.7-4.3-7.8-1.6-11.4 2.7-3.6 7.8-4.3 11.4-1.6l248.1 185.6c3.5 2.8 4.3 7.9 1.6 11.4zm-119.6-40.8c-2.7 3.6-7.8 4.3-11.4 1.6l-151.1-113.8c-3.6-2.7-4.3-7.8-1.6-11.4 2.7-3.6 7.8-4.3 11.4-1.6l151.1 113.8c3.6 2.8 4.3 7.8 1.6 11.4zm7.5 50.6c-2.7 3.6-7.8 4.3-11.4 1.6l-179.7-135.3c-3.6-2.7-4.3-7.8-1.6-11.4 2.7-3.6 7.8-4.3 11.4-1.6l179.7 135.3c3.6 2.7 4.3 7.8 1.6 11.4zm45.7 81.6c-2.7 3.6-7.8 4.3-11.4 1.6l-248.1-185.6c-3.6-2.7-4.3-7.8-1.6-11.4 2.7-3.6 7.8-4.3 11.4-1.6l248.1 185.6c3.6 2.7 4.3 7.8 1.6 11.4zm-20.7 28.4c-2.7 3.6-7.8 4.3-11.4 1.6l-248.1-185.6c-3.6-2.7-4.3-7.8-1.6-11.4 2.7-3.6 7.8-4.3 11.4-1.6l248.1 185.6c3.6 2.7 4.3 7.8 1.6 11.4z"/><path class="st20" d="M2127.9 2075.4l435.2 90.7c2.7.6 5.6-2.5 6.5-6.8l8.7-41.7c.9-4.3-.5-8.3-3.2-8.8l-435.2-90.7c-.4-.1-.7-.1-1.1 0l-11.9 56.9c.3.2.6.3 1 .4z"/><path class="st15" d="M2574.7 2134.5l3.5-16.9c.9-4.3-.5-8.3-3.2-8.8l-435.2-90.7c-.4-.1-.7-.1-1.1 0l-3.5 16.9c.3 0 .6-.1.9 0h.3l435.2 90.7c2.6.5 4 4.5 3.1 8.8z"/><path class="st26" d="M2132.1 2055.2l435.2 90.7c2.7.6 5.1-.2 5.4-1.7l3.1-14.7c.3-1.5-1.6-3.2-4.3-3.8l-435.2-90.7h-.3c-.3-.1-.6-.1-.8-.1l-4.2 20.1c.4 0 .7.1 1.1.2z"/><path class="st27" d="M2138.7 2018s-99.3 5.6-100.1 8.9c-.8 3.2 88.2 48.1 88.2 48.1l11.9-57z"/><path class="st28" d="M2073.1 2022.5s-35.1 2.5-35.2 4.2c-.1 2.2 30.4 18 30.4 18l4.8-22.2z"/><path d="M2071.4 2330.9l363.3-256.2c2.2-1.6 2-5.8-.6-9.4l-24.5-34.8c-2.5-3.6-6.4-5.3-8.6-3.7L2037.7 2283c-.3.2-.6.5-.8.8l33.5 47.5c.4 0 .7-.1 1-.4z" fill="#252b2d"/><path d="M2419.6 2044.7l-10-14.1c-2.5-3.6-6.4-5.3-8.6-3.7l-363.3 256.2c-.3.2-.6.5-.8.8l10 14.1c.2-.2.4-.5.6-.6l.2-.2L2411 2041c2.2-1.6 6 .1 8.6 3.7z" fill="#414a51"/><path class="st28" d="M2059.5 2314.1l363.3-256.2c2.2-1.6 3.3-3.9 2.4-5.1l-8.6-12.3c-.9-1.3-3.4-1-5.7.6l-363.3 256.2c-.1.1-.2.1-.2.2-.2.2-.4.3-.6.5l11.8 16.7.9-.6z"/><path class="st27" d="M2036.9 2283.9s-63.6 76.4-61.8 79.2c1.8 2.8 95.3-31.6 95.3-31.6l-33.5-47.6z"/><path class="st28" d="M1995.3 2334.9s-22.1 27.4-20.9 28.6c1.5 1.5 33.9-10 33.9-10l-13-18.6z"/><path class="st26" d="M907.7 1315.5c24.8 7.8 300 296.9 534.9 572.4 243.5 285.6 632.9 1003 632.9 1003 198.1 495.3 292.7 1297.7 292.7 1297.7l-10.8 508.7-862.5-9.8 30.8-1319.7c-139.9-214.9-285.1-770.9-344.4-922.3-9.7-24.7-15.1-38.7-15.1-38.7-64.1-74.8-67.9-171.1-97.3-223.8-39.9-71.7-68.4-141.4-123.7-202.1-52.6-57.7-81.9-145.5-121-208.2-57.7-92.7-115.9-156.1-132.6-192.5-5.5-12.1-8.4-18.8-8.4-18.8 7-256.5 224.5-245.9 224.5-245.9z"/><path class="st14" d="M691.6 1580.2c258.6 257.5 1053.9 1181.5 1053.9 1181.5l-343.3 10.2c-9.7-24.7-251-383.3-251-383.3-51-96.9-130.9-242.2-162-295.9-60.3-104.1-158.1-276.9-202-351-43.9-74.1-95.6-161.5-95.6-161.5z"/><path class="st15" d="M1950.4 950.8l-49.6 285.1s-172.9 713.5-204.1 991.5c0 0-84.7 673.5-104.8 907 0 0-59.4 1294.4-73.6 1483.1l-535.7 110.6-251.3-503.5s96.6-561.1 207.6-1135.8c88.3-456.9 185.7-922.5 250.9-1121.5l172.7-519.8c18.6-56 107.8-299 145.7-361.5 24.4-40.3 20.2-89 96-141 0 0 58.4-102.9 166.8-169 0 0-13.9-55.6 23.9-58 37.7-2.2 155.5 98.4 155.5 232.8z"/><path class="st14" d="M385.2 653.4c216.6 0 309.5 223.1 343 338.2 14.8 50.7 36.2 99.3 64.1 144.2l88.2 142s-207 10.6-228.2 238.8l-329-393.3-72.4-86.6c-55.5-63.3-108-167.3-81.8-247.4 12.3-37.6 34.5-73.8 73.3-99.4 33.6-22.3 79.8-36.5 142.8-36.5z"/><path d="M2412.6 4908.7s51.6-268.4-10.5-280.3c-698-133.7-1712.7-14.4-1712.7-14.4l26.8 349.1 1696.4-54.4z" fill="#ea0f43"/><path class="st20" d="M1604.2 945.1c-327.3 615.9-579.5 2167.1-579.5 2167.1l-85.8-23.2c88.3-456.9 185.7-922.5 250.9-1121.5l172.7-519.8c18.6-56 96.4-293.7 129.4-359 29.6-58.6 82.9-129.7 112.3-143.6z"/><path class="st32" d="M2246.9 4487H852.3c-40.8 0-73.9-33.1-73.9-73.9v-930c0-40.8 33.1-73.9 73.9-73.9h1394.6c40.8 0 73.9 33.1 73.9 73.9v930c-.1 40.8-33.1 73.9-73.9 73.9z"/><path d="M2193.4 4029.1H899c-15.4 0-27.9-12.5-27.9-27.9v-497c0-15.4 12.5-27.9 27.9-27.9h1294.4c15.4 0 27.9 12.5 27.9 27.9v497c0 15.4-12.5 27.9-27.9 27.9z" fill="#b2b2b2"/><path class="st8" d="M1783.4 4441.2h-464.6c-10.6 0-19.2-8.6-19.2-19.2v-326.9c0-10.6 8.6-19.2 19.2-19.2h464.6c10.6 0 19.2 8.6 19.2 19.2V4422c-.1 10.6-8.6 19.2-19.2 19.2z"/><path class="st0" d="M966.3 3555h-55.7c-7.8 0-14.1-6.3-14.1-14.1v-23.1c0-7.8 6.3-14.1 14.1-14.1h55.7c7.8 0 14.1 6.3 14.1 14.1v23.1c0 7.9-6.3 14.1-14.1 14.1zm93.9 0h-55.7c-7.8 0-14.1-6.3-14.1-14.1v-23.1c0-7.8 6.3-14.1 14.1-14.1h55.7c7.8 0 14.1 6.3 14.1 14.1v23.1c-.1 7.9-6.3 14.1-14.1 14.1zm93.9 0h-55.7c-7.8 0-14.1-6.3-14.1-14.1v-23.1c0-7.8 6.3-14.1 14.1-14.1h55.7c7.8 0 14.1 6.3 14.1 14.1v23.1c-.1 7.9-6.4 14.1-14.1 14.1zm93.8 0h-55.7c-7.8 0-14.1-6.3-14.1-14.1v-23.1c0-7.8 6.3-14.1 14.1-14.1h55.7c7.8 0 14.1 6.3 14.1 14.1v23.1c0 7.9-6.3 14.1-14.1 14.1zm93.9 0h-55.7c-7.8 0-14.1-6.3-14.1-14.1v-23.1c0-7.8 6.3-14.1 14.1-14.1h55.7c7.8 0 14.1 6.3 14.1 14.1v23.1c-.1 7.9-6.4 14.1-14.1 14.1zm93.8 0H1380c-7.8 0-14.1-6.3-14.1-14.1v-23.1c0-7.8 6.3-14.1 14.1-14.1h55.7c7.8 0 14.1 6.3 14.1 14.1v23.1c-.1 7.9-6.4 14.1-14.2 14.1zm93.9 0h-55.7c-7.8 0-14.1-6.3-14.1-14.1v-23.1c0-7.8 6.3-14.1 14.1-14.1h55.7c7.8 0 14.1 6.3 14.1 14.1v23.1c-.1 7.9-6.4 14.1-14.1 14.1zm93.8 0h-55.7c-7.8 0-14.1-6.3-14.1-14.1v-23.1c0-7.8 6.3-14.1 14.1-14.1h55.7c7.8 0 14.1 6.3 14.1 14.1v23.1c0 7.9-6.3 14.1-14.1 14.1zm93.9 0h-55.7c-7.8 0-14.1-6.3-14.1-14.1v-23.1c0-7.8 6.3-14.1 14.1-14.1h55.7c7.8 0 14.1 6.3 14.1 14.1v23.1c0 7.9-6.3 14.1-14.1 14.1zm93.9 0h-55.7c-7.8 0-14.1-6.3-14.1-14.1v-23.1c0-7.8 6.3-14.1 14.1-14.1h55.7c7.8 0 14.1 6.3 14.1 14.1v23.1c-.1 7.9-6.4 14.1-14.1 14.1zm93.8 0h-55.7c-7.8 0-14.1-6.3-14.1-14.1v-23.1c0-7.8 6.3-14.1 14.1-14.1h55.7c7.8 0 14.1 6.3 14.1 14.1v23.1c0 7.9-6.3 14.1-14.1 14.1zm93.9 0h-55.7c-7.8 0-14.1-6.3-14.1-14.1v-23.1c0-7.8 6.3-14.1 14.1-14.1h55.7c7.8 0 14.1 6.3 14.1 14.1v23.1c-.1 7.9-6.4 14.1-14.1 14.1zm93.8 0H2037c-7.8 0-14.1-6.3-14.1-14.1v-23.1c0-7.8 6.3-14.1 14.1-14.1h55.7c7.8 0 14.1 6.3 14.1 14.1v23.1c-.1 7.9-6.4 14.1-14.2 14.1zm93.9 0h-55.7c-7.8 0-14.1-6.3-14.1-14.1v-23.1c0-7.8 6.3-14.1 14.1-14.1h55.7c7.8 0 14.1 6.3 14.1 14.1v23.1c-.1 7.9-6.3 14.1-14.1 14.1zm-1214.1 83.7h-69.7c-1.7 0-3.1-1.4-3.1-3.1v-69.7c0-1.7 1.4-3.1 3.1-3.1h69.7c1.7 0 3.1 1.4 3.1 3.1v69.7c0 1.7-1.4 3.1-3.1 3.1zm137.7 87.9h-69.7c-1.7 0-3.1-1.4-3.1-3.1v-69.7c0-1.7 1.4-3.1 3.1-3.1h69.7c1.7 0 3.1 1.4 3.1 3.1v69.7c.1 1.7-1.3 3.1-3.1 3.1zm20.3 88h-69.7c-1.7 0-3.1-1.4-3.1-3.1v-69.7c0-1.7 1.4-3.1 3.1-3.1h69.7c1.7 0 3.1 1.4 3.1 3.1v69.7c.1 1.7-1.3 3.1-3.1 3.1zm47.3 87.9H1108c-1.7 0-3.1-1.4-3.1-3.1v-69.7c0-1.7 1.4-3.1 3.1-3.1h69.7c1.7 0 3.1 1.4 3.1 3.1v69.7c.1 1.7-1.4 3.1-3.1 3.1zm-205.5 97.6h-69.3c-1.8 0-3.3-1.5-3.3-3.3v-79c0-1.8 1.5-3.3 3.3-3.3h69.3c1.8 0 3.3 1.5 3.3 3.3v79c0 1.8-1.4 3.3-3.3 3.3zm92.5 0h-69.3c-1.8 0-3.3-1.5-3.3-3.3v-79c0-1.8 1.5-3.3 3.3-3.3h69.3c1.8 0 3.3 1.5 3.3 3.3v79c.1 1.8-1.4 3.3-3.3 3.3zm89.7 0h-69.3c-1.8 0-3.3-1.5-3.3-3.3v-79c0-1.8 1.5-3.3 3.3-3.3h69.3c1.8 0 3.3 1.5 3.3 3.3v79c.1 1.8-1.4 3.3-3.3 3.3zm113.1 0h-91.4c-2.1 0-3.8-1.7-3.8-3.8v-78c0-2.1 1.7-3.8 3.8-3.8h91.4c2.1 0 3.8 1.7 3.8 3.8v78c0 2.1-1.7 3.8-3.8 3.8zm562.3 0h-91.4c-2.1 0-3.8-1.7-3.8-3.8v-78c0-2.1 1.7-3.8 3.8-3.8h91.4c2.1 0 3.8 1.7 3.8 3.8v78c0 2.1-1.7 3.8-3.8 3.8zm92.6 0h-68.3c-1.8 0-3.3-1.5-3.3-3.3v-79c0-1.8 1.5-3.3 3.3-3.3h68.3c1.8 0 3.3 1.5 3.3 3.3v79c0 1.8-1.5 3.3-3.3 3.3zm-206.8 0h-421.8c-4.4 0-8-3.6-8-8v-69.6c0-4.4 3.6-8 8-8h421.8c4.4 0 8 3.6 8 8v69.6c0 4.4-3.6 8-8 8zm-447.4-97.6h-69.7c-1.7 0-3.1-1.4-3.1-3.1v-69.7c0-1.7 1.4-3.1 3.1-3.1h69.7c1.7 0 3.1 1.4 3.1 3.1v69.7c0 1.7-1.4 3.1-3.1 3.1zm90.4 0H1289c-1.7 0-3.1-1.4-3.1-3.1v-69.7c0-1.7 1.4-3.1 3.1-3.1h69.7c1.7 0 3.1 1.4 3.1 3.1v69.7c0 1.7-1.4 3.1-3.2 3.1zm90.5 0h-69.7c-1.7 0-3.1-1.4-3.1-3.1v-69.7c0-1.7 1.4-3.1 3.1-3.1h69.7c1.7 0 3.1 1.4 3.1 3.1v69.7c0 1.7-1.4 3.1-3.1 3.1zm90.5 0h-69.7c-1.7 0-3.1-1.4-3.1-3.1v-69.7c0-1.7 1.4-3.1 3.1-3.1h69.7c1.7 0 3.1 1.4 3.1 3.1v69.7c0 1.7-1.4 3.1-3.1 3.1zm90.4 0h-69.7c-1.7 0-3.1-1.4-3.1-3.1v-69.7c0-1.7 1.4-3.1 3.1-3.1h69.7c1.7 0 3.1 1.4 3.1 3.1v69.7c.1 1.7-1.3 3.1-3.1 3.1zm90.5 0h-69.7c-1.7 0-3.1-1.4-3.1-3.1v-69.7c0-1.7 1.4-3.1 3.1-3.1h69.7c1.7 0 3.1 1.4 3.1 3.1v69.7c0 1.7-1.4 3.1-3.1 3.1zm90.4 0h-69.7c-1.7 0-3.1-1.4-3.1-3.1v-69.7c0-1.7 1.4-3.1 3.1-3.1h69.7c1.7 0 3.1 1.4 3.1 3.1v69.7c.1 1.7-1.3 3.1-3.1 3.1zm90.5 0h-69.7c-1.7 0-3.1-1.4-3.1-3.1v-69.7c0-1.7 1.4-3.1 3.1-3.1h69.7c1.7 0 3.1 1.4 3.1 3.1v69.7c0 1.7-1.4 3.1-3.1 3.1zm102.6 98.9h-53c-6.7 0-12.2-5.5-12.2-12.2v-19.7c0-6.7 5.5-12.2 12.2-12.2h53c6.7 0 12.2 5.5 12.2 12.2v19.7c0 6.7-5.4 12.2-12.2 12.2zm90.8 0h-53c-6.7 0-12.2-5.5-12.2-12.2v-19.7c0-6.7 5.5-12.2 12.2-12.2h53c6.7 0 12.2 5.5 12.2 12.2v19.7c0 6.7-5.5 12.2-12.2 12.2zm0-49.5h-53c-6.7 0-12.2-5.5-12.2-12.2V3920c0-6.7 5.5-12.2 12.2-12.2h53c6.7 0 12.2 5.5 12.2 12.2v19.7c0 6.8-5.5 12.2-12.2 12.2zm90.7 49.5h-53c-6.7 0-12.2-5.5-12.2-12.2v-19.7c0-6.7 5.5-12.2 12.2-12.2h53c6.7 0 12.2 5.5 12.2 12.2v19.7c0 6.7-5.5 12.2-12.2 12.2zm-963.8-186.8H1152c-1.7 0-3.1-1.4-3.1-3.1v-69.7c0-1.7 1.4-3.1 3.1-3.1h69.7c1.7 0 3.1 1.4 3.1 3.1v69.7c.1 1.7-1.3 3.1-3.1 3.1zm91.3 0h-69.7c-1.7 0-3.1-1.4-3.1-3.1v-69.7c0-1.7 1.4-3.1 3.1-3.1h69.7c1.7 0 3.1 1.4 3.1 3.1v69.7c.1 1.7-1.3 3.1-3.1 3.1zm91.3 0h-69.7c-1.7 0-3.1-1.4-3.1-3.1v-69.7c0-1.7 1.4-3.1 3.1-3.1h69.7c1.7 0 3.1 1.4 3.1 3.1v69.7c.1 1.7-1.3 3.1-3.1 3.1zm90.8 0h-69.7c-1.7 0-3.1-1.4-3.1-3.1v-69.7c0-1.7 1.4-3.1 3.1-3.1h69.7c1.7 0 3.1 1.4 3.1 3.1v69.7c0 1.7-1.4 3.1-3.1 3.1zm91.3 0h-69.7c-1.7 0-3.1-1.4-3.1-3.1v-69.7c0-1.7 1.4-3.1 3.1-3.1h69.7c1.7 0 3.1 1.4 3.1 3.1v69.7c0 1.7-1.4 3.1-3.1 3.1zm87.4 0h-69.7c-1.7 0-3.1-1.4-3.1-3.1v-69.7c0-1.7 1.4-3.1 3.1-3.1h69.7c1.7 0 3.1 1.4 3.1 3.1v69.7c0 1.7-1.4 3.1-3.1 3.1zm90.4 0h-69.7c-1.7 0-3.1-1.4-3.1-3.1v-69.7c0-1.7 1.4-3.1 3.1-3.1h69.7c1.7 0 3.1 1.4 3.1 3.1v69.7c.1 1.7-1.3 3.1-3.1 3.1zm90.5 0H1785c-1.7 0-3.1-1.4-3.1-3.1v-69.7c0-1.7 1.4-3.1 3.1-3.1h69.7c1.7 0 3.1 1.4 3.1 3.1v69.7c0 1.7-1.4 3.1-3.1 3.1zm89.9 0h-69.7c-1.7 0-3.1-1.4-3.1-3.1v-69.7c0-1.7 1.4-3.1 3.1-3.1h69.7c1.7 0 3.1 1.4 3.1 3.1v69.7c0 1.7-1.4 3.1-3.1 3.1zm89.9 0h-69.7c-1.7 0-3.1-1.4-3.1-3.1v-69.7c0-1.7 1.4-3.1 3.1-3.1h69.7c1.7 0 3.1 1.4 3.1 3.1v69.7c0 1.7-1.4 3.1-3.1 3.1zm-43.5 87.9h-69.7c-1.7 0-3.1-1.4-3.1-3.1v-69.7c0-1.7 1.4-3.1 3.1-3.1h69.7c1.7 0 3.1 1.4 3.1 3.1v69.7c0 1.7-1.4 3.1-3.1 3.1zm202.8-87.9h-134.5c-2.4 0-4.3-1.9-4.3-4.3V3743c0-2.4 1.9-4.3 4.3-4.3h134.5c2.4 0 4.3 1.9 4.3 4.3v67.3c0 2.3-2 4.3-4.3 4.3zm-.7 87.9h-180.4c-2.7 0-5-2.2-5-5v-66c0-2.7 2.2-5 5-5h180.4c2.7 0 5 2.2 5 5v66c0 2.8-2.2 5-5 5zm-1153.2-87.9h-136c-2.4 0-4.3-1.9-4.3-4.3V3743c0-2.4 1.9-4.3 4.3-4.3h136c2.4 0 4.3 1.9 4.3 4.3v67.3c0 2.3-1.9 4.3-4.3 4.3zm46.2 87.9h-183c-2.8 0-5-2.2-5-5v-65.9c0-2.8 2.2-5 5-5h183c2.8 0 5 2.2 5 5v65.9c0 2.8-2.2 5-5 5zm114.9-175.9h-69.7c-1.7 0-3.1-1.4-3.1-3.1v-69.7c0-1.7 1.4-3.1 3.1-3.1h69.7c1.7 0 3.1 1.4 3.1 3.1v69.7c0 1.7-1.4 3.1-3.1 3.1zm90.3 0h-69.7c-1.7 0-3.1-1.4-3.1-3.1v-69.7c0-1.7 1.4-3.1 3.1-3.1h69.7c1.7 0 3.1 1.4 3.1 3.1v69.7c0 1.7-1.4 3.1-3.1 3.1zm90.8 0h-69.7c-1.7 0-3.1-1.4-3.1-3.1v-69.7c0-1.7 1.4-3.1 3.1-3.1h69.7c1.7 0 3.1 1.4 3.1 3.1v69.7c0 1.7-1.4 3.1-3.1 3.1zm90.8 0h-69.7c-1.7 0-3.1-1.4-3.1-3.1v-69.7c0-1.7 1.4-3.1 3.1-3.1h69.7c1.7 0 3.1 1.4 3.1 3.1v69.7c.1 1.7-1.3 3.1-3.1 3.1zm90.3 0h-69.7c-1.7 0-3.1-1.4-3.1-3.1v-69.7c0-1.7 1.4-3.1 3.1-3.1h69.7c1.7 0 3.1 1.4 3.1 3.1v69.7c0 1.7-1.4 3.1-3.1 3.1zm88.2 0h-69.7c-1.7 0-3.1-1.4-3.1-3.1v-69.7c0-1.7 1.4-3.1 3.1-3.1h69.7c1.7 0 3.1 1.4 3.1 3.1v69.7c.1 1.7-1.3 3.1-3.1 3.1zm91.6 0h-69.7c-1.7 0-3.1-1.4-3.1-3.1v-69.7c0-1.7 1.4-3.1 3.1-3.1h69.7c1.7 0 3.1 1.4 3.1 3.1v69.7c0 1.7-1.4 3.1-3.1 3.1zm90.5 0h-69.7c-1.7 0-3.1-1.4-3.1-3.1v-69.7c0-1.7 1.4-3.1 3.1-3.1h69.7c1.7 0 3.1 1.4 3.1 3.1v69.7c0 1.7-1.4 3.1-3.1 3.1zm88.9 0h-69.7c-1.7 0-3.1-1.4-3.1-3.1v-69.7c0-1.7 1.4-3.1 3.1-3.1h69.7c1.7 0 3.1 1.4 3.1 3.1v69.7c.1 1.7-1.3 3.1-3.1 3.1zm92.7 0h-69.7c-1.7 0-3.1-1.4-3.1-3.1v-69.7c0-1.7 1.4-3.1 3.1-3.1h69.7c1.7 0 3.1 1.4 3.1 3.1v69.7c.1 1.7-1.3 3.1-3.1 3.1zm88.6 0H2034c-1.7 0-3.1-1.4-3.1-3.1v-69.7c0-1.7 1.4-3.1 3.1-3.1h69.7c1.7 0 3.1 1.4 3.1 3.1v69.7c.1 1.7-1.3 3.1-3.1 3.1zm91.2 0h-69.7c-1.7 0-3.1-1.4-3.1-3.1v-69.7c0-1.7 1.4-3.1 3.1-3.1h69.7c1.7 0 3.1 1.4 3.1 3.1v69.7c.1 1.7-1.3 3.1-3.1 3.1zm-1130.4-87.9h-69.7c-1.7 0-3.1-1.4-3.1-3.1v-69.7c0-1.7 1.4-3.1 3.1-3.1h69.7c1.7 0 3.1 1.4 3.1 3.1v69.7c.1 1.7-1.3 3.1-3.1 3.1zm89.4 0h-69.7c-1.7 0-3.1-1.4-3.1-3.1v-69.7c0-1.7 1.4-3.1 3.1-3.1h69.7c1.7 0 3.1 1.4 3.1 3.1v69.7c0 1.7-1.4 3.1-3.1 3.1zm91.6 0h-69.7c-1.7 0-3.1-1.4-3.1-3.1v-69.7c0-1.7 1.4-3.1 3.1-3.1h69.7c1.7 0 3.1 1.4 3.1 3.1v69.7c0 1.7-1.4 3.1-3.1 3.1zm89.3 0h-69.7c-1.7 0-3.1-1.4-3.1-3.1v-69.7c0-1.7 1.4-3.1 3.1-3.1h69.7c1.7 0 3.1 1.4 3.1 3.1v69.7c0 1.7-1.4 3.1-3.1 3.1zm92.1 0h-69.7c-1.7 0-3.1-1.4-3.1-3.1v-69.7c0-1.7 1.4-3.1 3.1-3.1h69.7c1.7 0 3.1 1.4 3.1 3.1v69.7c0 1.7-1.4 3.1-3.1 3.1zm88.5 0h-69.7c-1.7 0-3.1-1.4-3.1-3.1v-69.7c0-1.7 1.4-3.1 3.1-3.1h69.7c1.7 0 3.1 1.4 3.1 3.1v69.7c0 1.7-1.4 3.1-3.1 3.1zm91.9 0h-69.7c-1.7 0-3.1-1.4-3.1-3.1v-69.7c0-1.7 1.4-3.1 3.1-3.1h69.7c1.7 0 3.1 1.4 3.1 3.1v69.7c.1 1.7-1.4 3.1-3.1 3.1zm89.4 0H1627c-1.7 0-3.1-1.4-3.1-3.1v-69.7c0-1.7 1.4-3.1 3.1-3.1h69.7c1.7 0 3.1 1.4 3.1 3.1v69.7c0 1.7-1.4 3.1-3.1 3.1zm91.7 0h-69.7c-1.7 0-3.1-1.4-3.1-3.1v-69.7c0-1.7 1.4-3.1 3.1-3.1h69.7c1.7 0 3.1 1.4 3.1 3.1v69.7c.1 1.7-1.3 3.1-3.1 3.1zm91.6 0h-69.7c-1.7 0-3.1-1.4-3.1-3.1v-69.7c0-1.7 1.4-3.1 3.1-3.1h69.7c1.7 0 3.1 1.4 3.1 3.1v69.7c0 1.7-1.4 3.1-3.1 3.1zm90.6 0H1901c-1.7 0-3.1-1.4-3.1-3.1v-69.7c0-1.7 1.4-3.1 3.1-3.1h69.7c1.7 0 3.1 1.4 3.1 3.1v69.7c0 1.7-1.4 3.1-3.2 3.1zm87.2 0h-69.7c-1.7 0-3.1-1.4-3.1-3.1v-69.7c0-1.7 1.4-3.1 3.1-3.1h69.7c1.7 0 3.1 1.4 3.1 3.1v69.7c0 1.7-1.4 3.1-3.1 3.1zm130.5 0h-104.2c-4.8 0-8.7-3.9-8.7-8.7v-58.5c0-4.8 3.9-8.7 8.7-8.7h104.2c4.8 0 8.7 3.9 8.7 8.7v58.5c.1 4.8-3.9 8.7-8.7 8.7zm-1175.8 87.9H908.3c-4.8 0-8.7-3.9-8.7-8.7v-58.5c0-4.8 3.9-8.7 8.7-8.7h104.2c4.8 0 8.7 3.9 8.7 8.7v58.5c0 4.8-3.9 8.7-8.7 8.7z"/><path class="st34" d="M2150.4 3431.8H944.2c-4.1 0-7.5-3.3-7.5-7.5v-17.5c0-4.1 3.3-7.5 7.5-7.5h1206.1c4.1 0 7.5 3.3 7.5 7.5v17.5c0 4.1-3.3 7.5-7.4 7.5z"/><path class="st32" d="M2278 3399.3H816.7c-13.4 0-26-8.3-30.6-20.3l-229.6-595.2c-2.4-6.1 1.5-12 7.9-12h1962.8c7.3 0 11.8 6.8 9.1 13.9l-225.9 592.2c-5 12.6-18.3 21.4-32.4 21.4z"/><path class="st34" d="M2540.1 2771l-1985.5.8s10.6-13.6 17.4-19.8c6.8-6.2 24-15.8 24-15.8h1897.9s19.3 12.2 23.9 15.8c4.5 3.6 22.3 19 22.3 19z"/><path fill="#3f4d50" d="M2275.2 3334.7H824.6l-189.8-528h1829.1z"/><path class="st8" d="M2150.4 3431.8H944.1c-4.1 0-7.4-3.3-7.4-7.4v-4.6h1221.1v4.6c0 4-3.3 7.4-7.4 7.4z"/><path class="st13" d="M2646.7 5456.1H389.9l36-241.9L551.4 4899c3.7 0 105.4-62.8 292.8-118.4 171.1-50.7 413.6-95.3 718.2-80.5 0 0 316.8-20.7 894.5 160.1l189.8 595.9z"/><path class="st36" d="M2148.1 4578.2l-5.1-19.8s-55.3 1.7-78.2-21.5c0 0-195.1-187.5-224.6-221.2 0 0-14.8-64.5 52.5-55.6 0 0 12.2-2.9 29.6 11.2l78.2 70.2-94.6-319.6c-3.1-10.3-3.5-21.3-.8-31.7 3.4-13.7 12.6-29.3 35.5-35.2 0 0 12.4-3.6 28.2 5 13.6 7.4 18.1 20.3 22.5 35.1l85.3 250-78.9-285.3c-4.6-15.8-10.4-45.1-1.2-58.8 7.9-11.7 25.5-21.5 43.9-21.5 0 0 32 2.4 47 40.8l85.1 273-56.9-225.7c-5-18.2-14.6-61.9 3.6-75.1 4.9-3.5 12.1-5.6 19.1-6.9 0 0 24-11.3 45.2 21.4 3.7 5.7 10.1 22.8 12 29.2l80.5 245.3-43.6-168.2c-5.1-17.5-5.1-38.5 9.4-49.6 4.8-3.7 10.5-6.5 17.2-7.4 0 0 36.6-8.9 51.3 36.6L2389 4293l14.2 68.7c3.8 18.3 4.9 37 3.1 55.5-1.3 13-4.1 27.2-9.8 40.4 0 0-10.3 26.5-17.2 28.9l8.1 25.5-239.3 66.2z"/><path class="st37" d="M2158.3 4576.6l-5.1-19.8s-55.3 1.7-78.2-21.5c0 0-195.1-187.5-224.6-221.2 0 0-14.8-64.5 52.5-55.6 0 0 12.2-2.9 29.6 11.2l78.2 70.2-94.6-319.6c-3.1-10.3-3.5-21.3-.8-31.7 3.4-13.7 12.6-29.3 35.5-35.2 0 0 12.4-3.6 28.2 5 13.6 7.4 18.1 20.3 22.5 35.1l85.3 250-78.9-285.3c-4.6-15.8-10.4-45.1-1.2-58.8 7.9-11.7 25.5-21.5 43.9-21.5 0 0 32 2.4 47 40.8l85.1 273-56.9-225.7c-5-18.2-14.6-61.9 3.6-75.1 4.9-3.5 12.1-5.6 19.1-6.9 0 0 24-11.3 45.2 21.4 3.7 5.7 10.1 22.8 12 29.2l80.5 245.3-43.6-168.2c-5.1-17.5-5.1-38.5 9.4-49.6 4.8-3.7 10.5-6.5 17.2-7.4 0 0 36.6-8.9 51.3 36.6l78.7 300.1 14.2 68.7c3.8 18.3 4.9 37 3.1 55.5-1.3 13-4.1 27.2-9.8 40.4 0 0-10.3 26.5-17.2 28.9l8.1 25.5-239.3 66.2z"/><path transform="rotate(-106.973 2276.608 4544.085)" class="st0" d="M2258.9 4384.2h35.1v319.3h-35.1z"/><path class="st13" d="M2434.9 4507.5l10.9 43.4s103.7 367.4 180.4 674.1c24.9 99.6 44.5 184.5 53.3 231.2l-406.9-.1c-6.7-153.1-110.3-644.7-110.3-644.7l-51.9-203.8 70.4-22 254.1-78.1z"/><path class="st0" d="M2428.8 4634.6c5.8-4.8 14.4-4.1 19.2 1.7s4.1 14.4-1.7 19.2-14.4 4.1-19.2-1.7c-4.9-5.8-4.1-14.4 1.7-19.2zm12.4 42.4c5.8-4.8 14.4-4.1 19.2 1.7s4.1 14.4-1.7 19.2c-5.8 4.8-14.4 4.1-19.2-1.7-4.8-5.7-4-14.3 1.7-19.2z"/><circle transform="rotate(-32.495 2461.838 4730.934)" class="st0" cx="2461.6" cy="4730.6" r="13.6"/><path class="st38" d="M1943.6 4040.4l51.2-15.1c4.4-1.3 6.8-5.9 5.5-10.3l-8.9-27.8s-8.4-21.7-37.4-16.9c0 0-24.2 4.9-28.7 28.7 0 0-1.1 9.7 5.6 26.9l2.6 9c1.2 4.3 5.8 6.8 10.1 5.5zm90.3-75.4l49-14.5c4.2-1.2 6.5-5.7 5.2-9.8l-8.5-26.7s-8-20.7-35.8-16.2c0 0-23.2 4.7-27.4 27.5 0 0-1 9.2 5.3 25.7l2.5 8.6c1.2 4.2 5.6 6.6 9.7 5.4zm109.9-9l42.7-10.6c3.6-.9 5.8-4.6 4.9-8.3l-6.3-23.3s-6.1-18.2-30.2-15.3c0 0-20.1 3.1-24.7 22.6 0 0-1.3 7.9 3.6 22.4l1.8 7.5c.9 3.7 4.6 5.9 8.2 5zm121.6 69.4l41.8-10.3c3.6-.9 5.7-4.5 4.8-8.1l-6.1-22.7s-5.9-17.8-29.5-15c0 0-19.7 3.1-24.1 22.1 0 0-1.2 7.7 3.5 21.9l1.8 7.3c.7 3.5 4.3 5.6 7.8 4.8zm-378 308.1l21.8-24.2c1.9-2.1 1.1-5.6-1.6-7.8l-17.6-14.2s-14.6-10.6-28.7.8c0 0-11.3 10.1-3 25.8 0 0 3.8 6.1 15.4 14.6l5.6 4.7c2.6 2.1 6.2 2.3 8.1.3z"/><path class="st36" d="M921.2 4425.9l4.9-18.7s52.4 1.6 74.1-20.4c0 0 184.8-177.6 212.7-209.5 0 0 14-61.1-49.7-52.7 0 0-11.5-2.8-28.1 10.6l-74.1 66.5 89.6-302.7c2.9-9.8 3.3-20.2.8-30.1-3.3-13-11.9-27.7-33.6-33.3 0 0-11.8-3.4-26.7 4.8-12.9 7-17.1 19.2-21.4 33.3l-80.8 236.8 74.8-270.2c4.4-15 9.9-42.7 1.2-55.7-7.4-11.1-24.2-20.4-41.6-20.3 0 0-30.3 2.3-44.5 38.6l-80.6 258.5 53.9-213.8c4.7-17.2 13.9-58.6-3.4-71.2-4.6-3.4-11.5-5.3-18.1-6.6 0 0-22.8-10.7-42.8 20.3-3.5 5.4-9.5 21.5-11.4 27.7l-76.2 232.4 41.3-159.3c4.8-16.6 4.8-36.5-8.9-47-4.5-3.5-9.9-6.1-16.3-7 0 0-34.7-8.5-48.6 34.6l-74.5 284.2-13.4 65.1c-3.6 17.3-4.7 35-2.9 52.6 1.2 12.3 3.9 25.8 9.3 38.2 0 0 9.7 25.1 16.3 27.4l-7.6 24.1 226.3 62.8z"/><path class="st37" d="M916.5 4417.5l4.9-18.7s52.4 1.6 74.1-20.4c0 0 184.8-177.6 212.7-209.5 0 0 14-61.1-49.7-52.7 0 0-11.5-2.8-28.1 10.6l-74.1 66.5 89.6-302.7c2.9-9.8 3.3-20.2.8-30.1-3.3-13-11.9-27.7-33.6-33.3 0 0-11.8-3.4-26.7 4.8-12.9 7-17.1 19.2-21.4 33.3l-80.8 236.8 74.8-270.2c4.4-15 9.9-42.7 1.2-55.7-7.4-11.1-24.2-20.4-41.6-20.3 0 0-30.3 2.3-44.5 38.6L893.4 4053l53.9-213.8c4.7-17.2 13.9-58.6-3.4-71.2-4.6-3.4-11.5-5.3-18.1-6.6 0 0-22.8-10.7-42.8 20.3-3.5 5.4-9.5 21.5-11.4 27.7l-76.2 232.4 41.3-159.3c4.8-16.6 4.8-36.5-8.9-47-4.5-3.5-9.9-6.1-16.3-7 0 0-34.7-8.5-48.6 34.6l-74.5 284.2-13.4 65.1c-3.6 17.3-4.7 35-2.9 52.6 1.2 12.3 3.9 25.8 9.3 38.2 0 0 9.7 25.1 16.3 27.4l-7.6 24.1 226.4 62.8z"/><path transform="rotate(-74.383 807.68 4394.69)" class="st0" d="M790.1 4235.1h35.1v319.3h-35.1z"/><path class="st13" d="M960.1 4457.3l-18.2 71.6-62.1 244.8h-.6c-2.8 12.3-5.6 24.8-8.5 37.6-49.1 219.5-103.6 491.6-110.3 644.7l-423.7.1c8.9-46.7 27.1-134.1 53.2-233.4 48.3-184.4 126.6-413.2 176.3-587l70.5-278 323.4 99.6z"/><path class="st0" d="M679.4 4469.6c-5.8-4.8-14.4-4.1-19.2 1.7-4.8 5.8-4.1 14.4 1.7 19.2 5.8 4.8 14.4 4.1 19.2-1.7 4.9-5.7 4.1-14.3-1.7-19.2zm-12.5 42.4c-5.8-4.8-14.4-4.1-19.2 1.7-4.8 5.8-4.1 14.4 1.7 19.2 5.8 4.8 14.4 4.1 19.2-1.7 4.9-5.7 4.1-14.3-1.7-19.2zm-11.6 43.2c-5.8-4.8-14.4-4.1-19.2 1.7-4.8 5.8-4.1 14.4 1.7 19.2 5.8 4.8 14.4 4.1 19.2-1.7 4.8-5.8 4.1-14.4-1.7-19.2z"/><path class="st38" d="M1119.8 3909.6l-48.5-14.3c-4.1-1.2-6.5-5.6-5.2-9.7l8.4-26.4s7.9-20.5 35.5-16c0 0 22.9 4.7 27.2 27.2 0 0 1 9.1-5.3 25.5l-2.5 8.5c-1.2 4.1-5.5 6.5-9.6 5.2zm-85.5-71.4l-46.4-13.7c-4-1.2-6.2-5.4-4.9-9.3l8-25.2s7.6-19.6 33.9-15.3c0 0 21.9 4.5 26 26 0 0 1 8.8-5 24.4l-2.4 8.2c-1.2 3.8-5.3 6-9.2 4.9zm-104.1-8.5l-40.5-10c-3.5-.9-5.5-4.4-4.6-7.8l5.9-22s5.7-17.2 28.6-14.5c0 0 19 3 23.4 21.4 0 0 1.2 7.5-3.4 21.2l-1.7 7.1c-.8 3.3-4.3 5.4-7.7 4.6zM815 3895.4l-39.6-9.8c-3.4-.8-5.4-4.3-4.5-7.6l5.8-21.5s5.6-16.8 28-14.2c0 0 18.6 2.9 22.9 20.9 0 0 1.2 7.3-3.3 20.7l-1.7 6.9c-.9 3.4-4.3 5.4-7.6 4.6zm358.1 291.8l-20.6-22.9c-1.8-2-1.1-5.3 1.5-7.4l16.7-13.5s13.8-10.1 27.1.8c0 0 10.7 9.5 2.8 24.4 0 0-3.6 5.8-14.6 13.8l-5.3 4.4c-2.4 2.2-5.9 2.3-7.6.4z"/><path class="st12" d="M960.1 4457.3c-5.2 14.8-11.3 39.5-18.2 71.6l-62.1 244.8h-.6c-2.8 12.3-5.6 24.8-8.5 37.6-49.1 219.5-103.6 491.6-110.3 644.7h-139L803 4721.1s20.4-72 34.4-164.1c13.9-91.7-64.1-157.2-64.1-157.2l186.8 57.5zM2256.2 4562s-29.2 41-36.3 99.5c-7.1 58.5 8.7 128 8.7 128l155.6 666.6h-111.5c-6.7-153.1-110.3-644.7-110.3-644.7l-51.9-203.8 145.7-45.6z"/><path class="st39" d="M691.6 1580.2l-51.6-52.9c-20.7-21.2-25.7-53.1-12.4-79.6 27.8-55.3 84.9-146.3 176.9-192.6 32.6-16.4 72.4-6 92.8 24.3l35 51.9s-148.8 38.5-240.7 248.9z"/><path class="st14" d="M1685.1.4c26.6 1.8 51.3 9.6 73.6 20.7.7.3 1.3.6 2 1 75.1 38.1 111.5 148.8 117 232.8l3.1 34.8.8 8.9 51.6 579.5c-176.4-146.3-330.2-7.5-330.2-7.5l-38.1-162.8c-12-51.5-31.2-100.9-56.6-147.3-57.7-105-149.8-328.5 3.4-481.6 3.7-3.7 7.4-7.2 11-10.6 31.6-29.2 62.1-47.6 91.2-57.8 24.9-8.9 48.7-11.6 71.2-10.1z"/><path class="st39" d="M1950.4 950.8l-.9-73.9c-.4-29.6-19.4-55.7-47.5-65-58.7-19.5-163.4-43.4-261.2-11.1-34.7 11.5-55.4 47-48.5 82.8l10.1 62.4s131.9-76.1 348 4.8zM594 927.8s-46.9 33.8-91.3 74.2c-30.9 28.1-82.5 83.8-82.5 83.8-5.8 5.3-13.6 6.3-17.2 2.2l-3.4-3.7c-3.7-4.1-1.2-11 3.8-16.9 0 0 31.1-36.8 82.6-83.7 55.2-50.2 91.2-74.3 91.2-74.3 8.1-5.3 13.6-6.3 17.2-2.2l3.4 3.7c3.7 4 2 11.6-3.8 16.9zm-41.5-47.2s-46.9 33.8-91.3 74.2c-30.9 28.1-82.5 83.8-82.5 83.8-5.8 5.3-13.6 6.3-17.2 2.2l-3.4-3.7c-3.7-4.1-1.2-11 3.8-16.9 0 0 31.1-36.8 82.6-83.7 55.2-50.2 91.2-74.3 91.2-74.3 8.1-5.3 13.6-6.3 17.2-2.2l3.4 3.7c3.7 4 2 11.6-3.8 16.9zm-39.4-48.9s-46.9 33.8-91.3 74.2c-30.9 28.1-82.5 83.8-82.5 83.8-5.8 5.3-13.6 6.3-17.2 2.2l-3.4-3.7c-3.7-4.1-1.2-11 3.8-16.9 0 0 31.1-36.8 82.6-83.7 55.2-50.2 91.2-74.3 91.2-74.3 8.1-5.3 13.6-6.3 17.2-2.2l3.4 3.7c3.7 4 2 11.6-3.8 16.9zm1290.5-458.9s-57.8.3-117.4 7.4c-41.5 4.9-115.8 20.3-115.8 20.3-7.8.9-14.7-2.8-15.3-8.2l-.6-4.9c-.6-5.4 5.4-9.6 13-11.6 0 0 46.7-12 115.9-20.2 74.1-8.8 117.4-7.5 117.4-7.5 9.7.4 14.7 2.8 15.3 8.2l.6 4.9c.5 5.5-5.3 10.7-13.1 11.6zm-6.4-62.6s-57.8.3-117.4 7.4c-41.5 5-115.8 20.4-115.8 20.4-7.8.9-14.7-2.8-15.3-8.2l-.6-4.9c-.6-5.4 5.4-9.6 13-11.6 0 0 46.7-12 115.9-20.2 74.1-8.8 117.4-7.5 117.4-7.5 9.7.4 14.7 2.8 15.3 8.2l.6 4.9c.5 5.4-5.3 10.6-13.1 11.5zm-3.7-62.7s-57.8.3-117.4 7.4c-41.5 4.9-115.8 20.3-115.8 20.3-7.8.9-14.7-2.8-15.3-8.2l-.6-4.9c-.6-5.4 5.4-9.6 13-11.6 0 0 46.7-12 115.9-20.2 74.1-8.8 117.4-7.5 117.4-7.5 9.7.4 14.7 2.8 15.3 8.2l.6 4.9c.5 5.5-5.4 10.7-13.1 11.6z"/><path class="st40" d="M242.3 689.8c-64.8 137.2 81 433.4 81 433.4l-72.4-86.6c-55.5-63.3-108-167.3-81.8-247.4 12.2-37.5 34.4-73.8 73.2-99.4zm1639.2-391.3l-.8-8.9c.4 3 .7 5.9.8 8.9z"/><path class="st40" d="M1685.1.4c33.8 2.5 58.4 13.4 73.6 20.7.7.3 1.3.6 2 1 75.1 38.1 111.5 148.8 117 232.8l3.1 34.8c-21.8-189.9-351.1-218.5-358-221.4 31.6-29.2 62.1-47.6 91.2-57.8 24.8-8.9 48.6-11.6 71.1-10.1z"/></g></svg>