<svg version="1.1" id="Layer_1" xmlns="http://www.w3.org/2000/svg" xmlns:xlink="http://www.w3.org/1999/xlink" x="0" y="0" viewBox="0 0 187.7 362.5" xml:space="preserve"><style>.st0{fill:#00baea}.st1{fill:#00afd8}.st2{fill:#4c4b89}.st4{fill:#22225a}.st8{enable-background:new}.st9{fill:#f90d3e}.st10{fill:#caf0f1}.st11{fill:#fff}.st12{fill:#c1e0e0}.st13{fill:#e80f42}.st14{fill:#4c4b8b}.st15{fill:#35357f}.st16{fill:#00bbeb}.st17{fill:#00a1ce}.st19{fill:#a0e4e4}.st20{fill:#bfdede}.st21{fill:#34346f}.st24{fill:#ff1049}.st25{fill:#a1e5e5}.st26{fill:#c0dfdf}.st27{fill:#db0e3f}.st29{fill:#ffae65}</style><path class="st0" d="M68.5 79s.1 0 0 0zm0 0c.1 0 .2-.1.2-.1.3-.1.7 0 1.1.2l1 .6 9.9-5.8-1-.6c-.5-.3-1-.3-1.3-.1L68.5 79z"/><path class="st1" d="M67.8 95.3c0 1.2.8 2.6 1.9 3.2l1 .6V79.7l-1-.6c-.4-.2-.7-.3-1.1-.2h-.2c-.4.2-.6.6-.6 1.2v15.2z"/><path class="st2" d="M92.6 257.5v1.6l-4.7-2.7c-1.6-.9-2.9-.2-3 1.7 0 1.9 1.3 4.2 2.9 5.1l7.1 4.1c.4.2.6 0 .6-.4s-.3-.9-.6-1.1l-7.1-4.1c-.9-.5-1.7-1.8-1.7-2.9s.8-1.5 1.7-1l4.7 2.7v1.6l3.5-.3-3.4-4.3z"/><path d="M111.7 269.2c-1.8-1-3.2-.2-3.2 1.8v1.6c0 2 1.4 4.6 3.2 5.6l26.4 15.3c1.8 1 3.2.2 3.2-1.8v-1.6c0-2-1.4-4.6-3.2-5.6l-26.4-15.3zm-2.1 4.4v-2.2c0-1.4 1-2 2.2-1.3l26.2 15.1c1.2.7 2.2 2.4 2.2 3.8v2.2c0 1.4-1 2-2.2 1.3l-26.2-15.1c-1.2-.7-2.2-2.4-2.2-3.8" fill="#474950"/><path class="st2" d="M178 73.8v-.3.3z"/><path class="st0" d="M175.3 321l5.5-3.2c2.6-1.5 4.2-4.7 4.2-9.3l.4-160.3-5.5 3.2-.3 102.6-.1 43.3v15.9c0 .5-.1.9-.2 1.3 0 .1 0 .2-.1.3-.1.3-.1.6-.2.9-.1.2-.1.4-.2.6-.1.4-.3.8-.5 1.2 0 0 0 .1-.1.1-.1.1-.1.3-.2.4-.2.4-.4.7-.7 1l-.3.3c-.1.2-.3.3-.4.5l-.1.1-.5.5s-.1 0-.1.1c-.2.2-.4.3-.6.4.1 0 0 .1 0 .1z"/><path class="st1" d="M179.8 151.4l1 .6c1 .6 1.9.1 1.9-1.1l.1-46.2c0-1.2-.8-2.6-1.9-3.2l-1-.6-.1 50.5z"/><path class="st4" d="M73 70.6l.1-43.3V12.5c0-.4.1-.8.1-1.2.1-.4.1-.7.2-1.1 1.3-3.5 4.2-5.1 7.8-4.4.3.1.7.2 1 .4.1 0 .2.1.3.1.3.1.6.3.9.4.4.2.8.5 1.3.7.3.2.5.3.8.5.5.3.9.5 1.4.8l4.7 2.7 62.7 36.1 4.3 2.5.2.1 8.1 4.7s.1 0 .1.1c.2.1.3.2.5.3h.1c.2.1.3.2.5.3 5 4 8.9 10.8 9.8 17.1v24.3l-.1 43.1v6.7l-.4 108-.2 42.1h-4.7l.5-215.2-55-31.8-40.2-23.4-.1 44.2-.1 21.6h-4.7c.1-7.2.1-14.4.1-21.6zm90.5-6c1.3.7 2.3.1 2.3-1.3 0-1.4-1-3.2-2.3-3.9s-2.3-.1-2.3 1.3 1.1 3.2 2.3 3.9zM99.8 27.2l51.5 29.7c1 .6 1.8.1 1.8-1 0-.3 0-.5-.1-.9-.1-.3-.2-.5-.4-.9s-.5-.7-1.2-1.3L99.5 23c-.8-.3-1.4.1-1.5 1.1 0 1.2.8 2.6 1.8 3.1zm-8.3-5c.9.5 1.6.1 1.6-.9s-.7-2.2-1.6-2.7-1.6-.1-1.6.9.8 2.3 1.6 2.7z"/><path class="st4" d="M72.4 242.7v-3.5l.1-10.8v-.1l.1-49.7.1-21.6c.1-14.4.2-28.8.2-43.2 0-7.2.1-14.4.1-21.6h4.7l-.3 149.4 16.1 9.3 79.2 45.7h4.7v15.9c0 .4 0 .7-.1 1.1v.5c0 .1 0 .2-.1.3-1.3 4.2-4.7 6-9 4.8-.2-.1-.5-.2-.7-.3-.1 0-.2-.1-.3-.1s-.1-.1-.2-.1c-.2-.1-.3-.2-.5-.2-.5-.2-1-.5-1.5-.9-.5-.3-.8-.5-1.1-.6l-4.5-2.6-.4-.3-.2-.1-4.9-2.8-1.3-.7-16.9-9.7L83.9 271c-6-4-10.8-12.2-11.5-19.4v-8.9zm36.1 29.9c0 2 1.5 4.6 3.2 5.6l26.4 15.3c1.8 1 3.2.2 3.2-1.8v-1.6c0-2-1.5-4.6-3.2-5.6l-26.4-15.3c-1.8-1-3.2-.2-3.2 1.8v1.6z"/><path d="M108.5 271v1.6c0 2 1.5 4.6 3.2 5.6l26.4 15.3c1.8 1 3.2.2 3.2-1.8v-1.6c0-2-1.5-4.6-3.2-5.6l-26.4-15.3c-1.8-1.1-3.2-.2-3.2 1.8z" fill="#252832"/><path class="st2" d="M161.3 60.7c0 1.4 1 3.2 2.3 3.9s2.3.1 2.3-1.3c0-1.4-1-3.2-2.3-3.9-1.3-.7-2.3-.1-2.3 1.3zM72.6 17.4l.6.3v9.6L73 70.6c0 7.2 0 14.4-.1 21.6 0 7.2-.1 14.4-.1 21.6-.1 14.4-.2 28.8-.2 43.2l-.1 21.6-.1 49.7v.1l-.1 10.8v3.5l-.2-.1-.1-.1.6-225.1zm105.3 129.2l-.4 157.2-.1-.1v-6.9l.2-42.1.3-108.1z"/><path class="st1" d="M70.7 99.2V79.8l.3-66.4C71 4.2 77.5.5 85.5 5.1l80.2 46.3c8 4.6 14.4 15.8 14.4 24.9l-.1 24.5-.1 50.5-.3 102.7-.1 43.3v15.9c0 .5-.1.9-.2 1.3 0 .1 0 .2-.1.3-.1.3-.1.6-.2.9-.1.2-.1.4-.2.6-.1.4-.3.8-.5 1.2 0 0 0 .1-.1.1-.1.1-.1.3-.2.4-.2.4-.4.7-.7 1l-.3.3c-.1.2-.3.3-.4.5l-.1.1-.5.5s-.1 0-.1.1c-.2.2-.4.3-.6.4-2.6 1.6-6.3 1.5-10.4-.9l-80.2-46.3c-7.9-4.6-14.4-15.8-14.4-24.9l.4-149.6zm1.5 35.9v-13 13zm.6-124.9v.2c0-.1 0-.3.1-.4-.1 0-.1.1-.1.2zm5-5.5c-.1 0 0 0 0 0zm97.1 314.8c0-.1 0-.1 0 0 0 0-.1 0-.2.1.1-.1.1-.1.2-.1zM72.1 249.9v.7-8l.2.1v8.8c.7 7.2 5.5 15.4 11.5 19.4l51.8 29.8 16.9 9.7 1.3.7 4.9 2.8.6.4 4.5 2.6c.3.2.6.3 1.1.6.6.3 1.1.6 1.5.9.2.1.3.2.5.2.1 0 .1 0 .2.1.1 0 .2.1.3.1.2.1.5.2.7.3 4.3 1.3 7.8-.6 9-4.8 0-.1 0-.2.1-.3v-.5c0-.4.1-.7.1-1.1v-8.9l.1.1.4-157.2v-6.7l.1-43.1V72.3c-.9-6.3-4.9-13.1-9.8-17.1-.2-.1-.3-.2-.5-.3h-.1c-.2-.1-.3-.2-.5-.3 0 0-.1 0-.1-.1l-8.1-4.7-.2-.1-4.3-2.5-62.6-35.9L87 8.6c-.5-.2-.9-.5-1.4-.8-.3-.2-.5-.3-.8-.5-.4-.3-.9-.5-1.3-.7-.3-.2-.6-.3-.9-.4-.1 0-.2-.1-.3-.1-.4-.1-.7-.3-1-.4-3.7-.7-6.6 1-7.8 4.4-.1.4-.2.7-.2 1.1-.1.4-.1.8-.1 1.2v5.2l-.8 225-.2-.1-.1 7.4z"/><path class="st2" d="M98 24.2c0 1.1.8 2.5 1.7 3L151.3 57c1 .6 1.8.1 1.8-1 0-.3 0-.5-.1-.9-.1-.3-.2-.5-.4-.9s-.5-.7-1.2-1.3L99.5 23c-.8-.3-1.4.1-1.5 1.2zm-8-4.7c0 1 .7 2.2 1.6 2.7s1.6.1 1.6-.9-.7-2.2-1.6-2.7c-.9-.4-1.6-.1-1.6.9z"/><path class="st0" d="M180 100.9l1 .6c1 .6 1.9 2 1.9 3.2l-.1 46.2 1.9-.9 2.4-1.4c.3-.2.5-.6.5-1.2l.1-45.3c0-1.2-.8-2.6-1.9-3.2l-1-.6-4.8 2.6zM75.2 4.2c2.6-1.5 6.3-1.3 10.3 1l80.2 46.3c7.9 4.6 14.4 15.8 14.4 24.9l-.1 24.5 5.6-3.2.1-24.5c0-9.1-6.4-20.3-14.4-24.9L91 2C87-.3 83.4-.5 80.7 1l-5.5 3.2z"/><path class="st2" d="M72.4 242.7l-.2-.1.2.1 104.9 60.9.2.1.4-157.1v-6.7l.1-58.4v-2.9L73.1 17.7z"/><path fill="#26264c" d="M72.4 242.7l-.2-.1.2.1 104.9 60.9.2.1.4-157.1v-6.7l.1-58.4v-2.9L73.1 17.7z"/><path class="st2" d="M111.9 270.2c-1.2-.7-2.2-.1-2.2 1.3v2.2c0 1.4 1 3.1 2.2 3.8l26.2 15.1c1.2.7 2.2.1 2.2-1.3v-2.2c0-1.4-1-3.1-2.2-3.8l-26.2-15.1z"/><defs><path id="SVGID_1_" d="M72.2 262.7l-.2-20.1.2 20.1 105 60.9.2.1.3-157.1v-26.7l.2-58.4v-2.9L73 17.7v20z"/></defs><clipPath id="SVGID_2_"><use xlink:href="#SVGID_1_" overflow="visible"/></clipPath><g clip-path="url(#SVGID_2_)"><g class="st8"><path class="st9" d="M156.2 185.5l-.4-133.1c0 .1-.1.3-.3.4l.4 133.1c.2-.1.3-.2.3-.4z"/><path class="st9" d="M154.7 53.4l.4 133 .9-.5-.4-133.1z"/><path class="st10" d="M155.2 54.6l.4 133.1.3-.1-.4-133.1z"/><path class="st9" d="M166.1 191.3l-.4-133.1c0 .1-.1.3-.3.4l.4 133.1c.3-.2.3-.3.3-.4zm-83-96.6l.4 153.1 71.6-61.4-.4-133z"/><path class="st10" d="M84.9 95.2l.4 153 70.3-60.5-.4-133.1zm-1.8-.5l.4 153.1s.7.1 1.8.5l-.4-153.1c-1.1-.3-1.8-.5-1.8-.5z"/><path class="st10" d="M83.1 94.7s.7.1 1.8.5l70.3-40.6.3-.1c-.6-.7-.8-1.1-.8-1.2L83.1 94.7z"/><path class="st9" d="M82.1 96l.4 153.1c0-.5.3-1 1-1.3l-.4-153.1c-.7.4-1 .9-1 1.3z"/><path class="st11" d="M87.6 96.2l.4 153.1 69.6-60.2-.4-133.1z"/><path class="st10" d="M88 249.3c-.1-45.8-.3-107.2-.4-153 .1 41.1.3 111.8.4 153z"/><path class="st11" d="M84.9 95.2c.8.2 1.7.6 2.7 1.1L157.2 56c-.8-.5-1.3-1.1-1.7-1.5l-.3.1-70.3 40.6z"/><path class="st11" d="M84.9 95.2l.4 153.1c.8.2 1.7.6 2.7 1.1l-.4-153.2c-1-.4-1.9-.8-2.7-1z"/><path class="st10" d="M89 249.8c.3.2.5.3.8.5l-.4-153c-.2-.2-.5-.3-.8-.5s-.7-.4-1-.6c.1 45.8.3 107.3.4 153.1.3.2.7.3 1 .5z"/><path class="st10" d="M87.6 96.2c.3.2.6.4 1 .6.3.2.5.3.8.5L159.1 57c-.7-.3-1.3-.7-1.8-1L87.6 96.2zm1.8 1.1l.4 153 69.7-60.2-.4-133.1z"/><path class="st12" d="M82.1 96l.4 153.1c0 .5.3.9.9 1.3l-.3-153.1c-.7-.3-1-.8-1-1.3z"/><path class="st13" d="M80.3 96l.4 153.1c0 .7.5 1.5 1.5 2.1l-.4-153.1c-1-.6-1.5-1.3-1.5-2.1z"/><path class="st11" d="M89.4 97.3c.5.3 1 .7 1.4 1.2l70.4-40.6c-.8-.2-1.4-.5-2-.8L89.4 97.3z"/><path class="st11" d="M89.4 97.3l.4 153.1c.5.3 1 .7 1.4 1.2l-.5-153.2c-.4-.4-.8-.8-1.3-1.1z"/><path class="st11" d="M90.7 98.4l.4 153.1 70.4-60.7-.4-133z"/><path class="st12" d="M83.1 97.3l.3 153.1 4.1 2.4-.4-153.1z"/><path class="st10" d="M90.7 98.4l.4 153.1c.4.4.7.8 1 1.3l-.4-153.1c-.3-.5-.6-.9-1-1.3z"/><path class="st10" d="M90.7 98.4c.4.4.7.8 1 1.3l71.6-41.4c-.8-.2-1.5-.4-2.2-.6L90.7 98.4zm1 1.3l.4 153.1 71.6-61.4-.4-133z"/><path class="st12" d="M87.1 99.7l.4 153.1c1.3.7 3.3.7 4.6 0l-.4-153.1c-1.3.7-3.3.7-4.6 0z"/><path class="st12" d="M83.1 94.7c-1.3.7-1.3 1.9 0 2.6l4.1 2.4c1.3.7 3.3.7 4.6 0-.2-.5-.6-.9-1-1.3s-.9-.8-1.4-1.2c-.2-.2-.5-.3-.8-.5s-.7-.4-1-.5c-1-.5-1.9-.8-2.7-1.1-1.1-.2-1.8-.4-1.8-.4z"/><path class="st13" d="M81.8 98.1l.3 153 4.1 2.4-.4-153z"/><path class="st9" d="M93 100.5l.4 153 72.5-61.8-.4-133.1z"/><path class="st9" d="M81.8 94c-2 1.1-2 3 0 4.1l4.1 2.4c2 1.1 5.2 1.1 7.2 0l72.5-41.9c.4-.2.4-.5 0-.8-.4-.2-.9-.2-1.3 0l-.9.5-71.7 41.4c-1.3.7-3.3.7-4.6 0L83 97.3c-1.3-.7-1.2-1.9 0-2.6l71.6-41.4.9-.5c.4-.2.4-.5 0-.8-.4-.2-.9-.2-1.3 0L81.8 94z"/><path class="st13" d="M85.8 100.5l.4 153.1c2 1.1 5.2 1.1 7.2 0L93 100.5c-2 1.1-5.2 1.1-7.2 0z"/></g><g class="st8"><path class="st14" d="M164.5 191.2l-.4-124.4c0 .1-.1.3-.3.4l.4 124.4c.2-.2.3-.3.3-.4z"/><path class="st14" d="M162.4 68l.4 124.4 1.5-.9-.4-124.3zm17.1 131.9l-.4-124.4c0 .1-.1.3-.3.4l.4 124.4c.2-.2.3-.3.3-.4z"/><path class="st14" d="M91.4 109l.4 144.4 71-61-.4-124.4z"/><path class="st11" d="M91.4 109c.1 0 1 .1 2.6.4l69.5-40.1c-.7-.8-1-1.3-1.1-1.3l-71 41z"/><path class="st11" d="M94 109.5l.3 144.4 69.6-60.2-.4-124.4z"/><path class="st11" d="M91.4 109l.4 144.4c.1 0 1 .1 2.6.4L94 109.5c-1.6-.4-2.6-.5-2.6-.5z"/><path class="st14" d="M90.4 110.4l.4 144.4c0-.5.3-1 .9-1.3L91.4 109c-.6.4-1 .9-1 1.4z"/><path class="st10" d="M97.4 110.4l.4 144.4 68.2-39.4-.4-144.4z"/><path class="st10" d="M94 109.5c.9.2 2.1.6 3.3 1l.2-.1L165.6 71c-.8-.6-1.5-1.2-2-1.7L94 109.5z"/><path class="st10" d="M94 109.5l.4 144.4c.9.2 2.1.6 3.3 1l-.4-144.4c-1.2-.5-2.4-.8-3.3-1z"/><path class="st10" d="M97.3 110.5l.3 144.4.2-.1-.4-144.4z"/><path class="st12" d="M90.4 110.4l.4 144.4c0 .5.3.9.9 1.3l-.4-144.4c-.5-.4-.9-.9-.9-1.3z"/><path class="st11" d="M100.1 111.9l.4 144.4 67.9-39.2-.3-144.4z"/><path class="st11" d="M97.3 110.5l.4 144.4c.8.3 1.6.7 2.5 1.2.1.1.2.1.4.2l-.4-144.4c-.1-.1-.2-.1-.4-.2-.9-.5-1.7-.9-2.5-1.2z"/><path class="st11" d="M97.4 110.4l-.2.1c.8.3 1.6.7 2.5 1.2.1.1.2.1.4.2l68-39.2c-.9-.6-1.7-1.1-2.4-1.7l-68.3 39.4z"/><path class="st15" d="M88.6 110.4l.4 144.3c0 .7.5 1.5 1.5 2.1l-.4-144.4c-1-.5-1.5-1.3-1.5-2z"/><path class="st10" d="M100.1 111.9l.4 144.4c.5.3 1 .6 1.5 1l-.4-144.3c-.5-.4-1-.8-1.5-1.1z"/><path class="st10" d="M100.1 111.9c.5.3 1 .6 1.5 1l68.1-39.3c-.6-.3-1.1-.6-1.6-.9l-68 39.2z"/><path class="st10" d="M101.6 113l.3 144.3 68.2-39.3-.4-144.4z"/><path class="st11" d="M169.7 73.6L101.6 113c.6.5 1.2 1 1.7 1.6l68.9-39.8c-.9-.4-1.7-.8-2.5-1.2z"/><path class="st11" d="M101.6 113l.4 144.4c.6.5 1.2 1 1.7 1.6l-.4-144.4c-.5-.6-1.1-1.2-1.7-1.6zm1.7 1.6l.4 144.3 68.9-39.8-.4-144.3z"/><path class="st10" d="M104.3 115.8l.4 144.4 69.9-40.4-.4-144.4z"/><path class="st10" d="M103.3 114.6l.4 144.4c.4.4.7.8 1 1.2l-.4-144.4c-.3-.4-.6-.9-1-1.2z"/><path class="st10" d="M103.3 114.6c.4.4.7.8 1 1.2l69.9-40.4c-.7-.2-1.3-.4-2-.7l-68.9 39.9z"/><path class="st12" d="M91.4 111.7l.3 144.3 9.2 5.4-.4-144.4z"/><path class="st11" d="M105.1 117l.3 144.4 71.1-41.1-.4-144.3z"/><path class="st11" d="M104.3 115.8c.3.4.5.8.7 1.2l71.1-41c-.7-.2-1.3-.3-1.9-.5l-69.9 40.3z"/><path class="st11" d="M104.3 115.8l.4 144.4c.3.4.5.8.7 1.2l-.3-144.4c-.3-.4-.5-.8-.8-1.2z"/><path class="st12" d="M91.4 109c-1.3.7-1.3 1.9 0 2.6l9.1 5.3c1.2.7 3.3.7 4.6 0-.2-.4-.5-.8-.7-1.2-.3-.4-.7-.9-1-1.2-.5-.6-1.1-1.1-1.7-1.6-.5-.4-1-.7-1.5-1-.1-.1-.2-.1-.4-.2-.8-.5-1.7-.9-2.5-1.2-1.2-.5-2.3-.8-3.3-1-1.6-.4-2.6-.5-2.6-.5z"/><path class="st12" d="M100.5 117l.4 144.4c1.2.7 3.3.7 4.6 0l-.4-144.4c-1.3.7-3.3.7-4.6 0z"/><path class="st15" d="M90.1 112.4l.3 144.4 9.2 5.3-.4-144.4z"/><path class="st14" d="M106.4 117.7l.3 144.4 72.5-61.9-.3-124.3zm-16.3-9.4c-2 1.1-2 3 0 4.1l9.1 5.3c2 1.1 5.2 1.1 7.2 0l72.5-41.9c.4-.2.4-.5 0-.8-.4-.2-.9-.2-1.3 0l-1.5.8-71.1 41c-1.3.7-3.3.7-4.6 0l-9.1-5.3c-1.3-.7-1.2-1.9 0-2.6l71.1-41 1.5-.8c.4-.2.4-.5 0-.8-.4-.2-.9-.2-1.3 0l-72.5 42z"/><path class="st15" d="M99.2 117.7l.4 144.4c2 1.1 5.2 1.1 7.2 0l-.4-144.4c-2 1.2-5.2 1.2-7.2 0z"/></g><g class="st8"><path class="st16" d="M163.4 229.4l-.3-123.7c0 .1-.1.3-.3.4l.3 123.7c.2-.1.3-.2.3-.4z"/><path class="st16" d="M161 107.1l.3 123.8 1.8-1.1-.3-123.7zm12.3 128.1l-.3-123.7c0 .1-.1.3-.3.4l.3 123.7c.2-.1.3-.3.3-.4z"/><path class="st16" d="M105 139.4l.3 123.8 56-32.3-.3-123.8z"/><path class="st11" d="M105 139.4c.1 0 1 .2 2.4.8l54.7-31.6c-.8-.8-1.1-1.5-1.2-1.5L105 139.4z"/><path class="st11" d="M107.4 140.2l.3 123.7 54.7-31.6-.3-123.7zm-2.4-.8l.3 123.7c.1 0 1 .2 2.4.8l-.3-123.7c-1.4-.5-2.3-.8-2.4-.8z"/><path class="st16" d="M104.5 140.3l.3 123.7c0-.3.2-.6.5-.8l-.3-123.8c-.3.2-.5.5-.5.9z"/><path class="st10" d="M109.2 141l.3 123.7 54.2-31.3-.3-123.7z"/><path class="st10" d="M107.4 140.2c.6.2 1.2.5 1.8.8l54.2-31.3c-.5-.4-1-.7-1.3-1.1l-54.7 31.6z"/><path class="st10" d="M107.4 140.2l.3 123.7c.6.2 1.2.5 1.8.8l-.3-123.7c-.6-.3-1.2-.6-1.8-.8z"/><path class="st12" d="M104.5 140.3l.3 123.7c0 .5.4 1 1.1 1.5l-.3-123.7c-.7-.5-1.1-1-1.1-1.5z"/><path class="st11" d="M109.2 141l.3 123.7c.3.2.6.3.9.5.2.1.5.3.7.5l-.2-123.7c-.2-.2-.5-.3-.7-.5-.4-.2-.7-.3-1-.5z"/><path class="st11" d="M109.2 141c.3.2.6.3.9.5.2.1.5.3.7.5l54.2-31.3c-.6-.3-1.2-.7-1.7-1L109.2 141zm1.7 1l.3 123.7 54.2-31.3-.3-123.7z"/><path class="st17" d="M102.7 140.3L103 264c0 .8.6 1.6 1.7 2.2l-.3-123.7c-1.2-.7-1.7-1.5-1.7-2.2z"/><path class="st10" d="M110.9 142l.3 123.7c.5.3.9.6 1.4 1l-.3-123.7c-.5-.4-.9-.7-1.4-1z"/><path class="st10" d="M110.9 142c.5.3.9.6 1.4 1l54.6-31.5c-.7-.2-1.3-.5-1.8-.8L110.9 142z"/><path class="st10" d="M112.3 143l.3 123.7 54.6-31.5-.3-123.7z"/><path class="st12" d="M105.6 141.7l.3 123.7 4.1 2.4-.3-123.7z"/><path class="st11" d="M112.3 143l.3 123.7c.5.4 1 .9 1.4 1.4l-.3-123.7c-.5-.5-.9-1-1.4-1.4z"/><path class="st11" d="M112.3 143c.5.4 1 .9 1.4 1.4l55.9-32.3c-1-.2-1.9-.4-2.7-.7L112.3 143z"/><path class="st11" d="M113.7 144.4l.3 123.8 55.9-32.3-.3-123.8z"/><path class="st17" d="M104.3 142.5l.3 123.7 4.1 2.4-.3-123.8z"/><path class="st12" d="M105 139.4c-.9.5-.6 1.6.6 2.3l4.1 2.4c1.2.7 3 .9 4 .3-.4-.5-.9-1-1.4-1.4-.4-.4-.9-.7-1.4-1-.2-.2-.5-.3-.7-.5-.3-.2-.6-.4-.9-.5-.6-.3-1.2-.6-1.8-.8-1.5-.5-2.4-.8-2.5-.8z"/><path class="st12" d="M109.7 144.1l.3 123.7c1.2.7 3 .9 4 .3l-.3-123.7c-1 .6-2.8.4-4-.3z"/><path class="st16" d="M114.9 145.2l.4 123.7 57.7-33.3-.3-123.7z"/><path class="st17" d="M108.4 144.8l.3 123.7c2 1.1 4.9 1.3 6.6.3l-.3-123.7c-1.7 1-4.6.9-6.6-.3z"/><path class="st16" d="M103.7 138.7c-1.6 1-1.4 2.7.6 3.8l4.1 2.4c2 1.1 4.9 1.3 6.6.3l57.7-33.3c.4-.2.4-.5 0-.8-.4-.2-.9-.2-1.3 0l-1.8 1-55.9 32.3c-.9.5-2.7.4-4-.3l-4.1-2.4c-1.2-.7-1.5-1.8-.6-2.3l55.9-32.3 1.8-1c.4-.2.4-.5 0-.8-.4-.2-.9-.2-1.3 0l-57.7 33.4z"/></g></g><defs><path id="SVGID_3_" d="M0 273.5v28.8l98 60.2 79.1-48.1.2-10.8.2.1.4-157.1v-6.7l.1-58.4v-2.9L73.2 17.7l-1.1 210.8z"/></defs><clipPath id="SVGID_4_"><use xlink:href="#SVGID_3_" overflow="visible"/></clipPath><g class="st8" clip-path="url(#SVGID_4_)"><path class="st2" d="M90.8 262.8l109.5-63.6c.1-.1.3-.1.5 0L91.3 262.8c-.2-.1-.3-.1-.5 0z"/><path class="st2" d="M91.3 262.8l109.5-63.6 1.5.8-109.5 63.6zm-.4-17.4l109.5-63.6c.1-.1.3-.1.5 0L91.4 245.5c-.2-.1-.4-.1-.5-.1z"/><path class="st2" d="M92.8 263.6L202.3 200l71 41-109.5 63.7z"/><path class="st11" d="M163.2 302.7c.2.6.4 1.3.6 2l-71.1-41c.2-.4.4-.9.5-1.3l70 40.3z"/><path class="st11" d="M93.3 262.3l109.5-63.6 69.9 40.4-109.5 63.6z"/><path class="st11" d="M163.2 302.7l109.5-63.6c.2.6.4 1.3.6 2l-109.5 63.6c-.2-.7-.4-1.4-.6-2z"/><path class="st19" d="M162.6 300.5c.2.7.3 1.4.6 2.2l-69.9-40.4c.2-.5.3-1.1.4-1.6l68.9 39.8zm-68.9-39.8l109.5-63.6 68.9 39.8-109.5 63.6z"/><path class="st19" d="M162.6 300.5l109.5-63.6c.2.7.3 1.4.6 2.2l-109.5 63.6c-.2-.8-.4-1.5-.6-2.2z"/><path class="st2" d="M274.9 241.2l-109.5 63.6c-.4.2-1 .2-1.6-.2L273.3 241c.7.4 1.2.4 1.6.2z"/><path class="st11" d="M94 258.3l109.5-63.6 68.1 39.3-109.5 63.7z"/><path class="st11" d="M162.1 297.7L271.6 234c.1.9.3 1.8.5 2.9l-109.5 63.6c-.2-1-.4-2-.5-2.8z"/><path class="st11" d="M94 258.3l68.2 39.4c.1.9.3 1.8.5 2.9l-68.9-39.8c0-.9.1-1.7.2-2.5z"/><path class="st20" d="M274.9 241.2l-109.5 63.6c.4-.2.7-.7.7-1.5l109.5-63.6c0 .8-.2 1.3-.7 1.5z"/><path class="st19" d="M94 256.4l109.5-63.6 68 39.3L162 295.7zm68 39.3l109.5-63.6c0 .6.1 1.3.1 2l-109.5 63.6c-.1-.8-.1-1.4-.1-2z"/><path class="st19" d="M162 295.7c0 .6.1 1.3.1 2L94 258.3v-1.9l68 39.3z"/><path class="st21" d="M275.9 242.8l-109.5 63.6c.6-.4 1-1.2 1-2.3l109.5-63.6c0 1.1-.4 1.9-1 2.3z"/><path class="st11" d="M93.8 253.2l109.5-63.6 68.2 39.4L162 292.6zm68.2 39.4l.2.2c-.1.7-.2 1.6-.2 2.5v.4l-68-39.2c0-1.1-.1-2.2-.2-3.2l68.2 39.3z"/><path class="st11" d="M162 292.6L271.5 229l.2.1-109.5 63.7zm.2.2l109.5-63.6c-.1.7-.2 1.6-.2 2.5v.4L162 295.7v-.4c0-1 .1-1.8.2-2.5z"/><path class="st19" d="M163 290.3c-.3.6-.6 1.4-.8 2.5l-.2-.2-68.2-39.4c-.1-1.2-.3-2.3-.5-3.2l69.7 40.3z"/><path class="st19" d="M163 290.3l109.5-63.6c-.3.6-.6 1.4-.8 2.5l-109.5 63.6c.2-1.1.5-1.9.8-2.5zm-69.7-40.2l109.5-63.6 69.6 40.1L163 290.3z"/><path class="st20" d="M166.2 292.8l109.4-63.6v10.5l-109.5 63.7z"/><path class="st11" d="M163.9 288.8l109.5-63.6s-.5.4-.9 1.4L163 290.3c.4-1 .8-1.4.9-1.5z"/><path class="st11" d="M163.9 288.8s-.5.4-.9 1.4l-69.5-40.1c-.4-1.4-.6-2.3-.6-2.3l71 41z"/><path class="st11" d="M92.8 247.8l109.5-63.6 71.1 41-109.5 63.6z"/><path class="st20" d="M163.9 288.8l109.5-63.6c1.3.7 2.3 2.5 2.3 3.9l-109.5 63.6c0-1.4-1.1-3.1-2.3-3.9z"/><path class="st20" d="M163.9 288.8c1.3.7 2.3 2.5 2.3 3.9v10.6c0 1.4-1 2-2.3 1.3-.2-.7-.5-1.4-.6-2-.2-.8-.4-1.5-.6-2.2-.2-1-.4-2-.5-2.9-.1-.7-.1-1.4-.1-2v-.4c0-1 .1-1.8.2-2.5.2-1.1.5-1.9.8-2.5.3-.8.7-1.2.8-1.3z"/><path class="st21" d="M167.5 293.5l109.4-63.6v10.6l-109.5 63.6z"/><path class="st2" d="M91.4 245.5l109.4-63.6 72.6 41.8-109.5 63.6z"/><path d="M163.9 287.3c2 1.1 3.6 3.9 3.6 6.2v10.6c0 2.3-1.6 3.2-3.6 2.1l-72.5-41.9c-.4-.2-.7-.7-.6-1.1 0-.4.3-.6.7-.4l1.5.8 71.1 41c1.3.7 2.3.1 2.3-1.3v-10.6c0-1.4-1-3.2-2.3-3.9l-71.1-41-1.5-.8c-.4-.2-.7-.7-.6-1.1 0-.4.3-.6.7-.4l72.3 41.8z" fill="#6868ae"/><path class="st21" d="M163.9 287.3l109.5-63.6c2 1.1 3.6 3.9 3.6 6.2l-109.5 63.6c0-2.2-1.6-5-3.6-6.2z"/></g><defs><path id="SVGID_5_" d="M0 273.5v28.8l98 60.2 79.1-48.1.2-10.8.2.1.4-157.1v-6.7l.1-58.4v-2.9L73.2 17.7l-1.1 210.8z"/></defs><clipPath id="SVGID_6_"><use xlink:href="#SVGID_5_" overflow="visible"/></clipPath><g class="st8" clip-path="url(#SVGID_6_)"><path class="st24" d="M102.2 241l90.1-52.3 70.9 40.9-90.1 52.4z"/><path class="st25" d="M102.8 239.6l90.1-52.4 69.7 40.3-90.1 52.3z"/><path class="st24" d="M99.9 237.1l90.1-52.4c0 1.4 1 3.2 2.3 3.9L102.2 241c-1.3-.7-2.3-2.4-2.3-3.9z"/><path class="st26" d="M102.8 239.6l90.1-52.4-.6 1.5-90.1 52.3c.3-.4.5-.9.6-1.4z"/><path class="st24" d="M99.9 232.5l90.1-52.4v4.7l-90.1 52.3z"/><path class="st11" d="M103.1 237.8l90.1-52.3 69.1 39.9-90.1 52.3z"/><path class="st26" d="M103.1 237.8l90.1-52.4c0 .6-.1 1.2-.3 1.7l-90.1 52.4c.2-.5.3-1.1.3-1.7zm90.1-54.3v1.1c-30 17.5-60.1 34.9-90.1 52.4v-1.1c-.1-1.1-.3-2.1-.4-2.8 30-17.5 60.1-34.9 90.1-52.4.2.7.3 1.7.4 2.8z"/><path class="st25" d="M172.1 275.6l90.1-52.4c0 .6 0 1.3.1 2.1l-90.1 52.4c-.1-.8-.1-1.4-.1-2.1z"/><path class="st25" d="M172.1 275.6c0 .6 0 1.3.1 2.1l-69-39.9v-2l68.9 39.8z"/><path class="st11" d="M172.3 273.2l.3.2c-.2.6-.4 1.3-.4 2.3l-69-39.8c-.1-1.1-.3-2.1-.5-2.9l69.6 40.2z"/><path class="st26" d="M193.3 184.6v.9l-86.1 50-.8-.4c28.9-16.8 57.9-33.7 86.9-50.5zm-89.2 51.8l.8.4-.8-.4z"/><path class="st24" d="M100.6 231l90.1-52.4c-.4.2-.7.7-.7 1.5l-90.1 52.4c0-.7.3-1.2.7-1.5z"/><path class="st11" d="M172.3 273.2l90.1-52.4.2.2-90.1 52.4z"/><path class="st25" d="M173.1 272.1l90.1-52.4s-.3.4-.6 1.3l-90.1 52.4c.3-.9.6-1.2.6-1.3z"/><path class="st26" d="M100.6 231l90.1-52.4c.4-.2 1-.2 1.6.2l-90.1 52.4c-.6-.4-1.2-.4-1.6-.2z"/><path class="st11" d="M172.5 273.4l90.1-52.4c-.2.6-.4 1.3-.4 2.3l-90.1 52.4c.1-1 .3-1.7.4-2.3z"/><path class="st27" d="M174 271.2c.4.2.6.7.6 1.1s-.3.6-.6.4l-.9-.5-70.9-41c-1.2-.7-2.3-.1-2.3 1.3v4.7c0 1.4 1 3.2 2.3 3.9l70.9 41 .9.5c.4.2.6.7.6 1.1s-.3.6-.6.4l-71.8-41.5c-2-1.1-3.5-3.9-3.5-6.1v-4.7c0-2.3 1.6-3.2 3.6-2l71.7 41.4z"/><path class="st27" d="M264.6 220.3l-90.1 52.4c.1-.1.2-.2.2-.4 0-.4-.3-.9-.6-1.1l90.1-52.4c.4.2.6.7.6 1.1-.1.2-.1.4-.2.4z"/><path class="st26" d="M104 232.2c-.4.3-.9.5-1.3.8-.2-1.1-.5-1.8-.5-1.8l1.8 1zm-.5-1.8c26.9-15.6 62.2-36.1 88.8-51.6 0 0 .2.7.5 1.8-29.2 17-58.3 33.9-87.5 50.9l-1.8-1.1zm-1.3.8s.2.7.5 1.8c.2.8.4 1.8.4 2.8v2c0 .6-.1 1.2-.3 1.7l-.6 1.5c-1.2-.7-2.3-2.5-2.3-3.9v-4.7c0-1.4 1.1-1.9 2.3-1.2z"/><path class="st24" d="M99.7 229.5l90.1-52.4c.6-.4 1.5-.3 2.5.2l-90.1 52.4c-1-.6-1.9-.6-2.5-.2zm73.4 52.5l90.1-52.4.9.5-90.1 52.4z"/><path class="st25" d="M172.5 279.8c.1.7.3 1.4.6 2.2l-70.9-41c.3-.4.5-.9.6-1.5l69.7 40.3z"/><path class="st25" d="M172.5 279.8l90.1-52.4c.1.7.3 1.4.6 2.2L173.1 282c-.3-.8-.5-1.5-.6-2.2z"/><path class="st27" d="M264.5 231.7L174.4 284c.1-.1.2-.2.2-.4 0-.4-.3-.9-.6-1.1l90.1-52.4c.4.2.6.7.6 1.1 0 .3-.1.4-.2.5z"/><path class="st11" d="M172.2 277.7l90.1-52.4c.1.6.2 1.3.3 2.1l-90.1 52.4c-.2-.7-.3-1.5-.3-2.1z"/><path class="st11" d="M172.2 277.7c.1.6.2 1.3.3 2.1l-69.7-40.2c.2-.6.3-1.1.3-1.7l69.1 39.8z"/><path class="st25" d="M173.1 272.1s-.3.4-.6 1.3l-.3-.2-69.5-40.2c-.2-1.1-.5-1.8-.5-1.8l70.9 40.9z"/><path class="st24" d="M102.2 229.7l90.1-52.4 71.8 41.5-90.1 52.4z"/></g><path class="st0" d="M150.5 313.2V299c0-2.8 2-6.3 4.5-7.8l4.9-2.8-14.3-8.3-4.9 2.8c-2.5 1.4-4.5 4.9-4.5 7.8v14.4l5.8-5.2 8.5 13.3z"/><defs><path id="SVGID_7_" d="M65.7 92.2h112.4V340H65.7z"/></defs><clipPath id="SVGID_8_"><use xlink:href="#SVGID_7_" overflow="visible"/></clipPath><g id="XMLID_34_" clip-path="url(#SVGID_8_)"><path class="st29" d="M124.6 202.9l-.1.1 8.9 5c-1.8-2.5-3.5-4.9-5.3-7.4l-.2.1c-1.1.7-2.2 1.5-3.3 2.2z"/><path class="st25" d="M161.7 218.6c-.1-.3-.1-.6-.2-.9-.8.4-1.6.8-2.3 1.3l11.2 7.5.1-.1c5.4 1 11.1.4 16.1-1.7h1c-.2-.4-.4-.8-.7-1.2.2-2.3.1-4.6-.2-6.9-8.3.6-16.7 1.3-25 2z"/><path class="st11" d="M161.5 217.6c.1.3.1.6.2.9 8.3-.7 16.7-1.3 25-2 2-.2 4-.3 6.1-.5 1.6-.1 3.1-.3 4.6-.7 1.3-.4 2.6-1.1 3.6-2.1.9-1 1.4-2.3 1.6-3.6.2-1.5 0-3.1-.3-4.6-1.5-9.4-3.9-18.7-7.2-27.6-2-5.4-4.5-11-9-14.7l-.1-.1c-1.8-1.5-4.4-1.9-6.7-1.3-2.8.8-5 3.1-6.1 5.8s-1.2 5.7-.6 8.6c.5 2.9 1.6 5.6 2.8 8.3 2.7 6.1 6 11.9 9.7 17.4l-.2.1c-8.2 2.5-16.2 5.7-23.8 9.6 0 .3-.1.6-.1.9 0 1.9.1 3.8.5 5.6z"/><path class="st25" d="M168.5 154.6c-.1-.2-.2-.3-.3-.5-2.1 3.1-4.3 6.2-7.1 8.7-2.8 2.6-6.4 4.6-10.2 4.9-1.2.1-2.6-.1-3.2-1.2-.4-.7-.3-1.5-.2-2.2.3-2.8.5-5.5.8-8.3-.9.1-1.8.1-2.6-.1-2 4.1-6.2 12-8.2 19-1.5 5.5-1.7 10.4 1.6 12.5 1.1.7 1.9 1.4 2.6 2.2.7.7 1.4 1.3 2.3 2 .5 3 .8 6.1.8 9.1-.1 4-.9 8-2.8 11.5l-.2.4 1.6.9.3 2.7c5.2-2.9 11.3-4.4 17.3-4.3h.1c0-.3 0-.6.1-.9 7.6-3.9 15.6-7.1 23.8-9.6l.2-.1c-3.7-5.5-7-11.3-9.7-17.4-1.2-2.7-2.3-5.4-2.8-8.3-.5-2.9-.5-5.9.6-8.6 1.1-2.7 3.3-5 6.1-5.8 2.3-.6 4.9-.2 6.7 1.3-3-2.4-6.6-3.9-10.2-5.3-1.6-.6-3.2-1.3-4.8-1.9-.8-.3-1.5-.6-2.3-.9l-.3.2z"/><path class="st25" d="M137.9 159.7c-1.4 4.2-.2 10.8-.4 15.2 1.9-7 6.1-15 8.2-19-.6-.2-1.2-.4-1.7-.8-.4-.3-.7-.6-1-1-1.2.2-2.2.9-3 1.8-1.1 1.1-1.7 2.4-2.1 3.8zm-9.9 40.7l.2.2c1.8 2.5 3.5 4.9 5.3 7.4l.7.4v-.1c3.6-2.5 7.1-5.1 10.6-7.6.1-3-.2-6.1-.8-9.1-1-.7-1.6-1.3-2.3-2-4.6 3.6-9.2 7.2-13.7 10.8z"/><path class="st0" d="M94.8 316.4c-1.4.9-2.8 2.4-2.7 4.1.1 1 .7 2 1.5 2.7s1.7 1.1 2.7 1.6c2.5 1.2 5.2 2.4 7.9 2 1.8-.2 3.5-1.2 5.1-2.1 2.5-1.4 5-2.9 7.5-4.3 1.4-.8 2.8-1.7 3.4-3.2.3-.9.3-1.9.2-2.9 0-.3 0-.6-.1-1h-.3c-3.2 2.1-6.5 4-10 5.6-1.3.6-2.7 1.2-4.2 1.1-1.4-.1-2.7-.8-3.9-1.6-1.7-1-3.5-2-5.2-3.1-.7.4-1.3.7-1.9 1.1zM80.3 247c-.7 2.5-.1 5.2 1.6 7.2 1.6 1.9 4 2.9 6.5 3.3s5 .1 7.4-.1c.2 0 .4 0 .6-.1v-.3c-2.4-1.7-4-4.5-4.3-7.4s.8-6 2.8-8.1c-3.2-.6-6.7-1.2-9.7.1-2.3.8-4.2 2.9-4.9 5.4z"/><path class="st17" d="M102.5 242l-.2.8c4.4.8 8.8 1.7 13.1 2.5h.8v-1l.9-.7 14.1-3.9.7-1.3-21.3-11.4-.2.4c-3.1.1-5.7 2.6-6.9 5.5-1.2 2.8-1.2 6-1 9.1z"/><path class="st0" d="M108.6 302.8c3.6.8 7.6 0 10.7-2.1.5-.3.9-.7 1.3-1.1 1.4-8.7 2.8-17.3 4.2-26 .5-2.8.9-5.7.9-8.6-.1-2.7-.6-5.4-1.8-7.7-2.6-.2-5.2-.3-7.7-.5v-1.5h-.5c-3.8.4-7.7.8-11.5 1.1l.1.7c2.4 15 3.7 30.1 4 45.3v.2c0 .1.2.2.3.2z"/><path class="st0" d="M123.9 257.3c12 .7 24 1 36 .7 6.2-.1 12.7-.5 18.2-3.3 5.6-2.8 9.9-8.2 11.5-14.3 1.3-5.3.6-11.1-2-15.9h-1c-5.1 2.1-10.7 2.7-16.1 1.7l-.1.1 5.2 3.5-28.1 16.9-15.5-8.3-.7 1.3-14.1 3.9-.9.7v1c0 3.3-.1 6.6-.1 10v1.5c2.6.2 5.2.3 7.7.5z"/><path d="M145.2 227.9l2.4 18.8 28.1-16.9-5.2-3.5-11.2-7.5c-4.9 2.8-9.6 5.8-14.1 9.1z" fill="#b9b9ba"/><path fill="#ccc" d="M145.2 227.9l-1.5-11.7-.3-2.6-1.6-.9-7.7-4.3-.7-.4-8.9-5-31.1-17.4 5.2 35 12 6.4 21.4 11.4 15.5 8.3z"/><path class="st29" d="M162.1 144.4c-.1-.2-.2-.4-.3-.5-.6 1.3-1.2 2.6-1.9 3.8-2 3.3-5 6-8.5 7.5-1 .4-2.1.8-3.2.9-.3 2.8-.5 5.5-.8 8.3-.1.8-.1 1.6.2 2.2.6 1.1 2 1.2 3.2 1.2 3.8-.3 7.4-2.3 10.2-4.9 2.8-2.5 4.9-5.6 7.1-8.7-1.9-3.3-4-6.5-6-9.8z"/><path d="M96.7 315.4c1.7 1 3.5 2 5.2 3.1 1.2.7 2.5 1.5 3.9 1.6 1.5.1 2.8-.5 4.2-1.1 3.5-1.6 6.8-3.5 10-5.6h.3l-.9-12.6c-3.1 2.1-7 2.9-10.7 2.1.9 2.2.1 4.8-1.5 6.6-1.5 1.8-3.7 3-5.9 3.9-1.6.6-3.1 1.2-4.6 2zm-1.8-74c-2 2.1-3 5.2-2.8 8.1.3 2.9 1.9 5.7 4.3 7.4v.3c2.6-.3 5.2-.5 7.7-.8 3.9-.4 7.7-.8 11.5-1.1h.5c0-3.3.1-6.6.1-10h-.8c-4.4-.8-8.8-1.7-13.1-2.5-2.4-.4-4.9-.9-7.4-1.4.1 0 .1 0 0 0zm48.8-25.2l1.5 11.6c4.5-3.2 9.2-6.2 14-9 .8-.4 1.5-.9 2.3-1.3-.4-1.9-.5-3.8-.4-5.7h-.1c-6 0-12 1.5-17.3 4.4zm-.8-62.1c.3.4.6.7 1 1 .5.4 1.1.6 1.7.8.8.2 1.7.3 2.6.1 1.1-.1 2.2-.4 3.2-.9 3.5-1.5 6.6-4.2 8.5-7.5.7-1.2 1.3-2.5 1.9-3.8l1.5-3.3c.6-1.3 1.2-2.6 1.4-4.1.2-1.4-.1-3-1-4-.9-1.1-2.7-1.5-3.9-.7-1 .6-1.4 1.9-2.2 2.7-1.2 1-2.9 1.1-4.4.9-6.6-.6-12.9-3.6-17.6-8.2l-.3.2c.2 3.1.7 6.3 1.3 9.4 1.1 5.1 2.7 10.1 4.9 14.8.3.9.8 1.9 1.4 2.6z" fill="#ffcd8f"/><path class="st9" d="M134.3 118.3c-2.6 2.5-3.9 6.2-3.5 9.7.4 3.6 2.5 6.9 5.5 8.8h.2c-.7-3.1-1.1-6.2-1.3-9.4l.3-.2c4.7 4.6 11 7.6 17.6 8.2 1.5.1 3.3.1 4.4-.9.9-.8 1.3-2 2.2-2.7 1.2-.8 2.9-.4 3.9.7.9 1.1 1.2 2.6 1 4s-.8 2.8-1.4 4.1l-1.5 3.3c.1.2.2.4.3.5 3.4-1.2 5.9-4.2 7.2-7.5 1.4-3.6 1.5-7.5 1-11.3-.3-2.6-.9-5.2-2.2-7.6-1.2-2.3-3.1-4.4-5.5-5.5-2.7-1.2-5.8-1.2-8.8-.8-1.3.1-2.5.3-3.8.5-2.5.4-4.9 1-7.4 1.7-2.8 1-5.9 2.2-8.2 4.4z"/><path class="st13" d="M168.2 154.1c.1.2.2.3.3.5l.2-.2c.8.3 1.5.6 2.3.9l.2-.5c1.4.5 3.2 0 4.4-1 1.5-1.3 2.2-3.4 2.7-5.3.5-2 .8-4 1.8-5.8 1-1.7 2.5-3.2 3.2-5 .9-2.5-.1-5.3-1.5-7.6-1.3-2.3-3-4.5-3.6-7.1-.7-2.9 0-6-.4-9-.6-4-3.3-7.6-7-9.4-3.6-1.8-8-1.9-11.8-.5s-7 4.3-9 7.8l.1.4c1.3-.2 2.5-.4 3.8-.5 3-.3 6.1-.4 8.8.8 2.4 1.1 4.3 3.1 5.5 5.5 1.2 2.3 1.8 4.9 2.2 7.6.5 3.8.4 7.7-1 11.3-1.3 3.3-3.9 6.3-7.2 7.5 1.9 3.2 4 6.4 6 9.6z"/></g></svg>