<svg xmlns="http://www.w3.org/2000/svg" viewBox="0 0 89.4 89.4"><path d="M89.4 0H0v89.4h30.5c1.1.1 2.2-.7 2.3-1.8v-.1c.1-3.1 0-6.2 0-9.2-2.2.2-4.4.3-6.6.3-4.7-.3-8.4-2.3-10.2-6.8-1-2.7-2.9-5.1-5.4-6.6-.5-.3-.9-.7-1.3-1.2-.5-.6-.4-1.2.4-1.3.8-.2 1.6-.2 2.4-.1 2.8.6 5.3 2.4 6.7 4.9 3.2 4.9 8 6.4 13.5 4.2.3-.1.6-.4.8-.7.4-2.2 1.4-4.3 3-5.9-1.8-.3-3.5-.6-5.2-1C26.1 63 21.7 61 18.6 57c-2.4-3.2-3.9-7-4.3-11-.9-6.3-.1-12.2 4.3-17.2.2-.3.3-.7.2-1.1-1.1-3.5-1-7.2.2-10.6.6-1.8.7-1.9 2.6-1.7.1 0 .2 0 .4.1 3.8.6 7 2.4 10.3 4.4.5.3 1 .4 1.6.3 7.6-1.8 15.4-1.8 23 0 .5.1 1 0 1.5-.3 1.8-.9 3.4-2 5.2-2.8 2-1.1 4.3-1.7 6.6-1.7.5.1.9.3 1.2.8 1.5 3.6 1.7 7.6.6 11.3-.1.5 0 1 .3 1.4 1.1 2 2.7 3.9 3.3 6 2 6.3 1.5 13.1-1.6 19-2.6 5.7-7.6 8.5-13.4 10-2 .5-4 .8-6.1 1.2 2.8 2.9 3.2 6.4 3.2 10.1v11.4c0 1.8.8 2.9 2.2 2.9h30" fill="#4f4f4f"/></svg>