<svg xmlns="http://www.w3.org/2000/svg" xmlns:xlink="http://www.w3.org/1999/xlink" viewBox="0 0 375.6 500"><style>.st1{fill:#192956}.st2{fill:#f0bf88}.st3{fill:#fff}.st6{fill:#112144}.st7{fill:#d69350}.st9{fill:#cc8246}.st12{fill:#0e1d3d}</style><g id="OBJECTS"><defs><path id="SVGID_1_" transform="rotate(-180 125.594 250)" d="M-124.4 0h500v500h-500z"/></defs><clipPath id="SVGID_2_"><use xlink:href="#SVGID_1_" overflow="visible"/></clipPath><g clip-path="url(#SVGID_2_)"><path class="st1" d="M164.5 128.8s-15.3-3.3-15.3-21.8c0-14.5 17-35 38.7-23.7 21.7 11.3 44 44 44 44l1.3 44.3-6.3 5-62.4-47.8z"/><path class="st2" d="M164.5 128.8s6 54 9 72.8c5.3 6 63.8-5.5 63.8-5.5s-11.5-38.5-13-49.5c-5-1.3-6.8-10.8-9.3-16.8-5.5 2-45.2 2.2-50.5-1z"/><path class="st2" d="M229.3 173.7s1.7-10.7 8.3-11.7 12.7 7.3 11 14.7c-1.7 7.3-14 10-19 4.3s-.3-7.3-.3-7.3zm-55.7 10.6s-7-7-11-3-.3 14 3.7 16.3c4 2.3 12-5.7 12-5.7l-4.7-7.6z"/><path class="st1" d="M237.8 198.5s29 28.5 81.5 58.5 148.5 108.5 169 153.5V500h-443s35-98 73-160.5S179.8 237 179.8 237l58-38.5z"/><path class="st3" d="M179.8 237l58-38.5s18.8 18.5 53.5 41.3c-8.9 33.4-28 102-41 129.2-29-16.8-67.7-72.3-86.6-104.8l16.1-27.2z"/><path class="st1" d="M172.9 198s-12 18.3-22 29.3c3.3 7.7 23 28 52 21.7s43.7-35.3 43.7-35.3-7.3-14.7-9.7-21.3c-5.3-2.3-32.3-16-45-10-12.6 5.9-19 15.6-19 15.6z"/><path class="st3" d="M71.5 327.2l-1.9 20-39.2 15.3 4.1-23.1z"/><path class="st1" d="M76.7 465.8c.3-1.5-4.4-125.3-4.4-125.3S54 357.6 31 356c-12 24.3-20.9 144-20.9 144H76l.7-34.2z"/><path class="st2" d="M73.3 314.4c-.3-1.2 9.1-12.5 5.1-25.1-3.9-12.5 1.2-24.6 1.2-24.6l7-15.9-10.3-8.4s-8.5 4.7-12.9 9.2C59 254.1 53 274.3 53 274.3s-16.7-8.9-21.9-11c-5.2-2.1-10.7 10.5-12.3 20.8-5.8-.5-7.3 4.6-7.7 10.1-.4 5.5.7 12.5.7 12.5l3.3 1.5s-2.8 10.7-1.9 13.8c.9 3.1 2.8 4.1 2.8 4.1s-1 10.7.7 14.3c1.7 3.6 13 3.5 16.9 3 6.4 3.7 46.8-4.4 39.7-29z"/><path d="M189.3 156.8s2 17 1.8 24.3-.3 11.3 2.5 11.5 4.5-9.8 3-17.3-7.3-18.5-7.3-18.5z" fill="#fc8a63"/><path d="M191.8 137.5s10-2.3 17 4.8m-27.2-.6s-10.1 1.8-13.8 11" fill="none" stroke="#33437c" stroke-width="3" stroke-miterlimit="10"/><ellipse class="st6" cx="182" cy="164.8" rx="1.8" ry="3.5"/><ellipse class="st6" cx="200.3" cy="158.8" rx="1.8" ry="3.5"/><path class="st7" d="M53.1 274.4c.6.1 1.1.5 1.7.8.5.3 1 .7 1.6 1 1 .7 2 1.5 3 2.2l.1.1v.2c.4 2.6.7 5.2.9 7.9v2c0 .7-.3 1.5-.6 2.1-.7 1.3-1.7 2.3-2.9 3.2l-.2.1h-.2c-3.3-.2-6.5-.7-9.7-1.2-3.2-.6-6.4-1.2-9.5-2.1-3.1-.8-6.3-1.7-9.3-2.9-3.1-1.1-6.1-2.3-9-3.7 1.6.5 3.1 1 4.6 1.5 1.5.5 3.1.9 4.7 1.4 3.1.9 6.2 1.7 9.4 2.4 3.1.7 6.3 1.3 9.5 1.9 3.2.5 6.4 1 9.6 1.3l-.4.1c1-.6 1.9-1.5 2.4-2.6.3-.5.5-1.1.5-1.6.1-.6.1-1.3.1-1.9 0-2.6-.2-5.2-.4-7.8l.1.2c-.9-.8-1.8-1.7-2.8-2.4-.5-.4-1-.8-1.4-1.2-.8-.4-1.2-.8-1.8-1z"/><path class="st7" d="M56.5 293.3c1 .9 1.7 2 2.3 3.2.6 1.2 1 2.4 1.4 3.7.6 2.6.9 5.2.8 7.9 0 .8-.4 1.6-.9 2.2-.6.5-1.2.9-1.9 1.1-1.3.5-2.6.7-4 .9-2.7.3-5.3.3-7.9.2-5.3-.2-10.5-.8-15.6-1.6-5.2-.7-10.3-1.7-15.5-2.6 5.2.4 10.4.9 15.6 1.5 5.2.5 10.4 1 15.5 1.3 2.6.1 5.2.1 7.7-.1 1.3-.1 2.5-.3 3.7-.7.6-.2 1.1-.5 1.5-.8.4-.4.6-.8.6-1.3.2-2.6.1-5.1-.3-7.7-.6-2.6-1.4-5.1-3-7.2z"/><path class="st7" d="M55.6 311.5c.5.2 1.1.5 1.5.8.5.4.9.8 1.2 1.3.7 1 1 2.2 1.1 3.4.1 1.2 0 2.4-.3 3.6-.3 1.2-1 2.3-1.9 3.1-.9.9-1.9 1.6-3 2-1.1.5-2.3.9-3.4 1.1-2.3.5-4.7.7-7 .8-4.6.1-9.3 0-13.9-.2s-9.2-.6-13.8-1.2h13.8c4.6 0 9.2.1 13.8-.1 2.3-.1 4.6-.2 6.8-.7 2.2-.4 4.3-1.2 6-2.6.8-.7 1.4-1.6 1.8-2.6.4-1 .5-2.1.5-3.2s-.2-2.2-.7-3.2c-.6-1-1.5-1.8-2.5-2.3z"/><path class="st7" d="M53.9 325.6c1.3.8 2.5 1.8 3.3 3.2.7 1.5 1 3.1.8 4.7-.1 1.6-.9 3.3-2.2 4.4-1.2 1.2-2.8 1.8-4.3 2.3-3 .8-5.9 1.5-8.9 2-3 .6-6 1-9.1 1.3 2.9-.9 5.9-1.7 8.8-2.4 2.9-.8 5.9-1.5 8.8-2.3 1.4-.4 2.7-1 3.8-1.9 1.1-.9 1.7-2.1 2-3.5.3-1.4.1-2.9-.3-4.2-.6-1.4-1.6-2.5-2.7-3.6z"/><path d="M200 204.5c1.2 2.9 2.3 5.9 3.8 8.5.8 1.3 1.6 2.6 2.6 3.4.5.4 1 .5 1.4.4.2 0 .4-.2.6-.3.2-.2.4-.4.5-.7.7-1.1 1-2.6 1.2-4.1.3-1.5.4-3 .5-4.6.2-3.1.3-6.2.4-9.4.7 3.1 1.1 6.2 1.2 9.4.1 1.6 0 3.2-.2 4.8-.2 1.6-.5 3.2-1.4 4.9-.2.4-.5.8-.9 1.2-.4.3-.9.6-1.5.7-.5.1-1.1.1-1.7-.1-.5-.2-.9-.4-1.3-.7-.7-.6-1.2-1.3-1.7-2s-.8-1.4-1.1-2.2c-1.3-3-2-6.1-2.4-9.2z" fill="#030d19"/><path class="st9" d="M241.8 169c-1.1-.1-2.3 0-3.3.4s-1.9 1-2.7 1.7c-.7.8-1.3 1.7-1.7 2.7l-.6 1.5c-.1.5-.3 1.1-.4 1.6l-.4-.5c.6 0 1.2.1 1.7.4.6.3 1 1 .9 1.6 0 .6-.3 1.2-.7 1.6-.3.4-.8.8-1.2 1.1.3-.4.7-.8.9-1.3.2-.5.4-1 .4-1.4-.1-.4-.3-.8-.7-1-.4-.2-.9-.2-1.4-.2h-.6l.1-.5c.1-.6.2-1.1.4-1.7.2-.6.4-1.1.6-1.7.5-1.1 1.1-2.1 2-2.9.9-.8 2-1.4 3.1-1.7 1.3-.2 2.5-.1 3.6.3z"/><path class="st9" d="M238 169c.6.4 1.1.8 1.6 1.2.5.5.9.9 1.3 1.5.8 1 1.3 2.3 1.6 3.5-.4-1.2-1.1-2.3-2-3.2-.4-.5-.9-.9-1.4-1.2-.5-.4-1-.7-1.5-.9l.4-.9zm-66.4 16c.6 2.1.9 4.3 1.2 6.4.2 2.2.3 4.3.2 6.6-.6-2.1-.9-4.3-1.2-6.4-.2-2.2-.4-4.4-.2-6.6z"/><path class="st9" d="M163.8 187.2c.6-.6 1.6-.9 2.5-.9.9 0 1.8.3 2.6.7.4.2.7.5 1.1.8.3.3.7.6.9.9.3.3.5.7.8 1 .2.4.4.7.6 1.1-.4-.3-.7-.5-1-.8l-1-.8c-.7-.5-1.3-1-2-1.4-1.3-.8-2.9-1.1-4.5-.6z"/><path class="st9" d="M167.1 187.1c-.3 1-.5 2.1-.5 3.2-.1 1.1 0 2.2.4 3.2-.5-1-.8-2.1-.9-3.2-.1-1.1-.1-2.2 0-3.4l1 .2z"/><path d="M254.3 213c-.5 3.9-1.1 7.7-1.6 11.6l-1.7 11.6-3.6 23.2-.1.5-.5-.2-28.4-11.6.6-.3-12.8 29.3-.2.5-.4-.3-17-13.4-16.9-13.5 17.2 13 17.2 13.1-.6.2 12.6-29.4.2-.4.5.2 28.3 11.7-.6.3 3.9-23.1 2-11.6c.6-3.7 1.3-7.5 1.9-11.4z" fill="#a5a5a5"/><path fill="#f90d3e" d="M216.8 264.2l16.8-7.2-3.8 19.6 25.5 56-7.3 24.1-17.1-16.5-2.8-62.9z"/><path class="st12" d="M141.8 427.5c-.4 6.1-1.1 12.2-1.8 18.3-.4 3-.8 6.1-1.3 9.1l-1.4 9.1-1.6 9c-.6 3-1.1 6-1.7 9-1.2 6-2.5 12-4.2 17.9.4-6.1 1.1-12.2 1.8-18.3.4-3 .8-6.1 1.3-9.1l1.4-9.1 1.6-9c.6-3 1.1-6 1.7-9 1.2-6 2.5-12 4.2-17.9zm167.5-175c.7 3.4 1.2 6.9 1.9 10.3l1.7 10.3c1.1 6.9 2.2 13.8 3.2 20.7l.1.6-.6.2-10.5 3.7c-3.5 1.2-7 2.5-10.5 3.6l-10.6 3.5c-3.5 1.1-7.1 2.3-10.6 3.4 3.4-1.4 6.9-2.7 10.4-4.1l10.4-4 10.5-3.9 10.5-3.8-.5.8c-1-6.9-2-13.8-2.8-20.8l-1.3-10.4c-.6-3.1-1-6.6-1.3-10.1zm-16 50l6.2 15.2c2.1 5.1 4.1 10.1 6.2 15.2l.1.3-.2.2c-6.2 6.7-12.4 13.4-18.7 20L268 373.3c-6.3 6.7-12.6 13.2-18.9 19.9-6.3 6.6-12.6 13.2-19 19.8l-2.5 2.6 1.6-3.2 10.4-21.7c3.5-7.2 7-14.4 10.6-21.6l-9.9 21.9-10.1 21.8-.9-.6c6.2-6.7 12.5-13.3 18.8-20 6.3-6.6 12.5-13.3 18.9-19.9l18.9-19.8c6.3-6.6 12.7-13.2 19-19.7l-.1.5c-2-5.1-3.9-10.2-5.8-15.3l-5.7-15.5zm-137.5-24c.5 3.2.8 6.5 1.2 9.7l1.1 9.7c.4 3.2.7 6.5 1 9.7l.9 9.7-.8-.7c6.3-.1 12.5-.1 18.8-.1l9.4.1c3.1.1 6.3.1 9.4.2-3.1.2-6.2.3-9.4.5l-9.4.3c-6.2.2-12.5.3-18.7.4h-.7l-.1-.7-.8-9.8c-.2-3.3-.5-6.5-.7-9.8l-.7-9.8c-.2-2.9-.4-6.1-.5-9.4z"/><path class="st12" d="M181.3 317.5c-.2 2.4-.3 4.8-.5 7.1l-.6 7.1-1.3 14.3-.3-.6 16.7 8.5c5.6 2.8 11.1 5.8 16.6 8.7 5.5 2.9 11 5.8 16.5 8.8 5.5 2.9 11 6 16.4 9-5.6-2.7-11.3-5.4-16.8-8.2-5.6-2.8-11.2-5.6-16.7-8.4-5.5-2.9-11.1-5.6-16.6-8.6l-16.6-8.7-.4-.2.1-.4 1.7-14.2.9-7.1c.2-2.4.5-4.7.9-7.1zm48.5 95c1.1 3.6 2.1 7.2 3.2 10.8l3 10.9c2 7.3 3.9 14.5 5.8 21.8 1.9 7.3 3.7 14.6 5.5 21.9l2.6 11c.8 3.7 1.7 7.3 2.5 11-1.1-3.6-2.1-7.2-3.2-10.8l-3-10.9c-2-7.3-3.9-14.5-5.8-21.8-1.9-7.3-3.7-14.6-5.5-21.9l-2.6-11c-.9-3.6-1.8-7.3-2.5-11zM368.3 371c4.9 10.4 9.6 20.8 14 31.4 4.4 10.6 8.7 21.2 12.7 31.9s7.9 21.5 11.3 32.5c3.5 10.9 6.6 22 8.9 33.2-.8-2.7-1.6-5.5-2.4-8.2-.8-2.7-1.7-5.5-2.6-8.2-.8-2.7-1.8-5.4-2.7-8.2-.9-2.7-1.8-5.4-2.8-8.1l-2.8-8.1-2.9-8.1c-2-5.4-3.9-10.7-6-16.1-4-10.7-8.2-21.4-12.3-32.1L368.3 371z"/><circle class="st12" cx="248.8" cy="428" r="5.5"/><path d="M160.3 91c-5.6 3.1-8.3 11.6-6.7 17.6.8-2 1.2-5.8 3.3-6.5.1 1.4 0 2.9.1 4.3.8-1 1.7-2.6 2.9-3.5.1 1.5-.1 2.9.5 4.2 1.4-1.3 3.3-2.9 5.2-3.2.1 1.2.5 2.2 1.3 2.9 1.5-2.8 3.2-1.4 5.4-1-.7-1.2-.8-2.8-.7-4.3-.4.5-1.5 1.3-2 2-1.4-1.4-1.4-3.4-1.4-5.3-1.4.6-2.5 2.4-3.5 3.6-.2-2.2 0-4.5-.1-6.7-1.3.8-2 2.3-2.9 3.3-.5-2.2.7-3.8 1.6-5.6-1.3.7-2.2 2.2-3.3 3.2-.3-2.3 1.3-3.7 1.3-5.8-1.5.5-3.1 2.3-1 .8z" fill="#33437c"/></g><path d="M187.9 83.3c21.7 11.3 44 44 44 44l1.1 37.4c1.2-1.4 2.7-2.4 4.5-2.7 6.7-1 12.7 7.3 11 14.7-1.3 5.8-9.2 8.6-15 6.9 1 3.3 1.8 6.2 2.4 8.4.3.1.6.3.9.4.8 2.3 2.2 5.6 3.7 8.9.2.2.4.3.5.5l.1.1c1.4 1.3 3.3 2.9 5.6 4.9 6.9 5.9 17.7 14.6 32 24.7.1.1.2.1.3.2.9.6 1.8 1.3 2.7 1.9.1.1.2.1.2.2 2.9 2 6 4.1 9.2 6.2 8.4 5.5 17.7 11.3 28 17.2 52.5 30 148.5 108.5 169 153.5V500H379.9c-2.3-6.8-4.7-13.5-7.4-20.1-17.6-43.3-38.7-85.3-59.6-127.1-20.7-41.3-42-82.3-62.4-123.7-.7-1.5-1.8-2.7-3.1-3.7-1.3-1.7-2.7-2.9-4.3-3.7-4.7-9-9.6-17.9-14.5-26.9-8.5-15.9-14.2-32.5-19.3-49.8-3.8-12.8-7.7-25.7-14-37.6-4.9-9.3-11.2-19.3-20.1-25.1-1.2-.8-2.4-1.4-3.6-1.9 4.9-.9 10.4-.1 16.3 2.9z" opacity=".3" clip-path="url(#SVGID_2_)" fill="#33437c"/><circle cx="263.3" cy="479.3" r="5.5" clip-path="url(#SVGID_2_)" fill="#0e1d3d"/></g></svg>