<svg version="1.1" id="Layer_1" xmlns="http://www.w3.org/2000/svg" x="0" y="0" viewBox="0 0 89.4 89.4" xml:space="preserve"><path d="M0 0v89.4h89.4V0H0zm27.5 73.8c0 1.1-.9 2.1-2.1 2.1h-8.8c-1.1 0-2.1-.9-2.1-2.1V36.3c0-1.1.9-2.1 2.1-2.1h8.8c1.1 0 2.1.9 2.1 2.1v37.5zM21 28.5c-4.1 0-7.5-3.4-7.4-7.5s3.4-7.5 7.5-7.4c4.1 0 7.5 3.4 7.4 7.5 0 4.1-3.3 7.4-7.5 7.4zM75.9 75c0 .5-.4.8-.8.8H63.8c-.5 0-.8-.4-.8-.8V51.8c0-4-3.3-7.2-7.2-7.2h-.1c-4 .1-7.2 3.4-7.2 7.4v23c0 .5-.4.9-.8.9H36.5c-.5 0-.8-.4-.8-.8v-40c0-.5.4-.9.8-.9h11c.5 0 .9.4.8.9v4.6h.1c.2-.4.4-.8.7-1.1 2.4-3.4 6.2-5.4 10.4-5.4h2.3c7.8 0 14.2 6.4 14.2 14.2V75z" fill="#4f4f4f" id="content"/></svg>