<svg version="1.1" id="Layer_1" xmlns="http://www.w3.org/2000/svg" x="0" y="0" viewBox="0 0 89.4 89.4" xml:space="preserve"><style>.st0{fill:#4f4f4f}</style><path class="st0" d="M89.4 0v89.4H0V0h89.4zM75.6 56.7C82 40.2 74.3 21.6 58 14.5c-16.7-7.3-36.2.3-43.5 17-7.3 16.7.3 36.2 17 43.5v-1.2c0-1.8.2-3.6.4-5.5 1.3-6 2.7-12.1 4.2-18 .1-.5.1-1-.1-1.5-.8-2.2-1-4.7-.5-7 .3-2.3 1.7-4.3 3.6-5.4 3-1.7 6.3-.1 6.7 3.4.1 1.3 0 2.6-.3 3.9-.7 2.9-1.7 5.8-2.4 8.8v.2c-.6 2.7 1.1 5.4 3.8 6 2 .5 4 .1 5.7-1.1 1.8-1.3 3.1-3 4-5 1.8-3.9 2.7-8.3 2.3-12.6-.2-5.3-3.9-9.7-9.1-10.8-1.8-.4-3.7-.6-5.5-.6-6.8 0-12.8 4.5-14.7 11-1 3.5-1.4 7.1.7 10.2 1.1 1.4 1.4 3.3.7 4.9l-.1.3c-.4 1.3-.9 1.5-2.1.9-2.3-1.1-4.1-3.1-5-5.4-2.9-7.4-.8-15.8 5.1-21.1 7.8-6.8 16.8-8.1 26.3-4.4 6.2 2 10.6 7.5 11.3 14 1 6.5-.5 13-4.3 18.4-2.2 3.2-5.5 5.5-9.3 6.4-3.7.9-7.2.6-10.3-1.8-.6-.5-1.2-1-1.7-1.5-.7 2.6-1.2 5.4-2.1 8-.9 2.7-2.1 5.2-3.1 7.8 16.3 5 33.7-3.6 39.9-19.6z" id="content_8_"/><path class="st0" d="M89.4 0v89.4H0V0h89.4zM75.6 56.7C82 40.2 74.3 21.6 58 14.5c-16.7-7.3-36.2.3-43.5 17-7.3 16.7.3 36.2 17 43.5v-1.2c0-1.8.2-3.6.4-5.5 1.3-6 2.7-12.1 4.2-18 .1-.5.1-1-.1-1.5-.8-2.2-1-4.7-.5-7 .3-2.3 1.7-4.3 3.6-5.4 3-1.7 6.3-.1 6.7 3.4.1 1.3 0 2.6-.3 3.9-.7 2.9-1.7 5.8-2.4 8.8v.2c-.6 2.7 1.1 5.4 3.8 6 2 .5 4 .1 5.7-1.1 1.8-1.3 3.1-3 4-5 1.8-3.9 2.7-8.3 2.3-12.6-.2-5.3-3.9-9.7-9.1-10.8-1.8-.4-3.7-.6-5.5-.6-6.8 0-12.8 4.5-14.7 11-1 3.5-1.4 7.1.7 10.2 1.1 1.4 1.4 3.3.7 4.9l-.1.3c-.4 1.3-.9 1.5-2.1.9-2.3-1.1-4.1-3.1-5-5.4-2.9-7.4-.8-15.8 5.1-21.1 7.8-6.8 16.8-8.1 26.3-4.4 6.2 2 10.6 7.5 11.3 14 1 6.5-.5 13-4.3 18.4-2.2 3.2-5.5 5.5-9.3 6.4-3.7.9-7.2.6-10.3-1.8-.6-.5-1.2-1-1.7-1.5-.7 2.6-1.2 5.4-2.1 8-.9 2.7-2.1 5.2-3.1 7.8 16.3 5 33.7-3.6 39.9-19.6z" id="content_7_"/></svg>