<svg version="1.1" id="Layer_1" xmlns="http://www.w3.org/2000/svg" xmlns:xlink="http://www.w3.org/1999/xlink" x="0" y="0" viewBox="0 0 857.4 508.9" xml:space="preserve"><style>.st0{fill:#fed22c}.st2{fill:#ffa784}.st3{fill:#e62a7d}.st4{fill:#03f4d1}.st5{fill:#ffd0c0}.st6{fill:#ea8865}.st7{fill:#60bfff}.st8{fill:#c45f3f}.st12{fill:#bd1159}.st13{fill:#233560}.st15{fill:#76391d}.st16{fill:#fff}.st17{fill:#997def}.st18{fill:#7a50e2}.st20{fill:#512514}.st21{fill:#ffe9b3}.st22{fill:#def5ff}.st23{fill:#6a33d3}.st24{fill:#ffa92e}.st25{fill:#a6dfff}.st26{fill:#3d99df}.st27{opacity:.4;fill:#ffa784}.st28{fill:#1f84c1}.st30{fill:#506dad}.st31{enable-background:new}.st33{fill:#00ab8e}.st34{fill:#02e1c1}.st36{fill:#5513bc}.st37{opacity:.5;fill:#e62a7d}.st38{fill:#2c4482}.st39{fill:#8fc1ff}.st45{fill:#38170d}.st48{fill:#c67967}.st52{fill:#ffdd7a}</style><path class="st0" d="M474.1 214.9s-44.7 13.4-42.1 42.5l432.4 251.5h125l-515.3-294z"/><path d="M449.9 279.6s66.2-37.4 73.2-40.7c6.9-3.3 14.5-3.5 17.1 1.1 0 0 6.3-4.6 13.2-1.1 6.9 3.5 7.6 7.6 7.6 7.6s6.1-2.2 10.2 2.4 3.9 11.3 3.9 11.3 10 2.7 7.8 16.9l-5.4-3.1s-52.9 34.1-60.9 38.6c-8.1 4.6-15.2 5.5-17.6 3.3l-5.7 3.2c0 .1-49.3-8.6-43.4-39.5z" fill="#ffe9e3"/><path class="st2" d="M527.4 247.4c1.9-1.5 4-2.8 6.2-4.1 2.1-1.2 4.3-2.4 6.6-3.3-1.9 1.5-4 2.8-6.2 4.1-2.1 1.3-4.3 2.4-6.6 3.3zm13.9 8.9c3-2.2 6.2-4 9.4-5.7 1.6-.8 3.3-1.6 5-2.3 1.7-.7 3.5-1.3 5.3-1.7-1.7.7-3.3 1.5-5 2.4l-4.9 2.5c-3.2 1.6-6.5 3.3-9.8 4.8zm13 10.9c1.4-1.3 2.9-2.4 4.6-3.4 1.6-1 3.3-1.9 5.1-2.6 1.8-.7 3.6-1.3 5.5-1.5 1.9-.2 3.9-.1 5.7.6-1.9-.3-3.7-.2-5.5.1-1.8.3-3.6.9-5.3 1.6-1.7.7-3.4 1.5-5.1 2.4-1.7.9-3.4 1.8-5 2.8z"/><path class="st3" d="M50 508.9l400-229.2s36.5 9.1 43.7 40.7L174.1 508.9H50z"/><path class="st4" d="M0 45.1l410.3 243.5S357 304.8 366.1 337L0 113.7V45.1z"/><path class="st5" d="M415.5 364.3l-50.7-28.2s-12.4-23.2 3.2-36.2c15.6-13 42.3-11.4 42.3-11.4s61.4 36.3 65.9 39.6c4.6 3.3 4.3 7.4 3.7 15-.7 7.6-5.9 15-14.7 9.1 0 0-.9 11.1-2 14.7-1.1 3.7-6.9 10-14.3 4.3 0 0 1.3 10.6-6.9 10.4-8.2-.2-10.1-6.9-10.1-6.9s-2.7 6.3-10.7 3.7-5.7-14.1-5.7-14.1z"/><path class="st6" d="M414.4 344.4c3.2 1.2 6.4 2.6 9.5 4 1.6.7 3.1 1.5 4.6 2.4.8.4 1.5.9 2.2 1.4.4.3.7.5 1.1.8l.5.5c.2.2.3.4.4.6.4.9.6 1.8.7 2.6.1.9.2 1.7.2 2.6 0 1.7 0 3.5-.2 5.2-.3 3.4-.8 6.8-1.5 10.2.2-1.7.3-3.4.5-5.1.1-1.7.3-3.4.3-5.1.1-1.7.1-3.4.1-5.1-.1-1.7-.2-3.4-.9-4.8-.1-.4-.4-.6-.7-.9-.3-.3-.6-.5-1-.8-.7-.5-1.4-.9-2.1-1.4-1.5-.9-3-1.7-4.5-2.5-3-1.5-6.1-3.1-9.2-4.6zm18.8-7.5c3.4 1.2 6.8 2.6 10 4.4 1.6.9 3.2 1.9 4.6 3.1.7.6 1.4 1.3 1.8 2.2.4 1 .5 1.9.6 2.8.3 3.7.1 7.3-.1 11-.3 3.6-.6 7.3-1.2 10.9l.2-5.5c.1-1.8.2-3.6.2-5.4.1-3.6.3-7.3-.1-10.8-.1-.4-.1-.9-.2-1.3s-.2-.9-.3-1.2c-.3-.7-1-1.4-1.6-2-1.3-1.2-2.8-2.2-4.4-3.1-1.5-.9-3.1-1.8-4.8-2.6-1.4-1-3.1-1.7-4.7-2.5zm12.5-10.5c3.1.9 6.2 2 9.2 3.4 1.5.7 2.9 1.4 4.4 2.3 1.4.8 2.8 1.8 4 3 .3.3.6.6.8 1 .2.4.5.7.7 1.1.4.8.6 1.6.8 2.4.4 1.6.6 3.3.6 4.9 0 3.3-.3 6.5-1 9.7.2-1.6.3-3.2.3-4.9.1-1.6.1-3.2 0-4.8-.1-1.6-.3-3.2-.7-4.7-.2-.8-.4-1.5-.8-2.2-.1-.4-.4-.6-.6-1-.2-.3-.5-.6-.8-.9-1.1-1.1-2.4-2.1-3.8-2.9-1.4-.9-2.8-1.6-4.2-2.3-1.4-.7-2.9-1.4-4.4-2.1-1.5-.8-3-1.4-4.5-2z"/><path class="st7" d="M832.6 0H726.3L330.9 224s36.4 7.2 47.7 38.4l454-259.5V0z"/><path class="st2" d="M277.2 285.8s-4.6 4.3-9.8 1.5c-5.2-2.8-4.6-7.2-4.8-13.7-.2-6.5-.8-9.1 5-13 5.9-3.9 64.2-37.1 64.2-37.1s20.8-2.1 34.7 7.8c13.9 10 12.1 31 12.1 31s-2.1 1.3-1.9 4.1c.2 2.8-2.8 6.3-9.5 9.8-6.7 3.5-40.6 20.6-40.3 22.3.2 1.7-.4 10.1-1.3 11.7-1.7 3-12.1 7.2-15.8-1.5 0 0 0 7.6-10 7.2-10-.4-6.9-10.8-6.9-10.8s-12.1 6.1-14.1-3.3c-2.1-9.3-1.6-16-1.6-16z"/><path class="st8" d="M296.2 260.4c-2.6 1.6-5.2 3.1-7.8 4.5-2.6 1.5-5.2 2.9-7.8 4.5-.6.4-1.2.8-1.7 1.3s-.8 1.1-1 1.8c-.5 1.3-.6 2.8-.7 4.3-.1 1.5-.1 3-.1 4.5v4.5c-.3-3-.6-6-.6-9 0-1.5.1-3 .6-4.6.2-.7.6-1.5 1.2-2.1.5-.6 1.2-1.1 1.9-1.5 2.6-1.5 5.2-3 7.9-4.3l8.1-3.9zm-3.4 44.7c-.3-3.4-.4-6.8-.5-10.2-.1-3.4-.1-6.8 0-10.2 0-.4.1-.9.1-1.3.1-.4.2-.9.3-1.3.3-.8.8-1.6 1.4-2.3 1.1-1.4 2.5-2.5 3.9-3.4 1.4-.9 2.9-1.8 4.5-2.5 1.5-.7 3.1-1.4 4.7-2-3 1.5-6 3.1-8.7 5.1-1.3 1-2.6 2.1-3.7 3.4-.5.6-.9 1.3-1.2 2.1-.1.4-.2.7-.3 1.1 0 .4-.1.8-.1 1.2-.2 3.4-.1 6.8-.2 10.1-.1 3.4-.1 6.8-.2 10.2zm16.9 3.7c-.4-3.4-.6-6.8-.7-10.3-.1-1.7-.1-3.4 0-5.2 0-.9.1-1.7.2-2.6.1-.5.1-.8.3-1.4.2-.5.5-.9.7-1.2 1.2-1.4 2.6-2.4 4-3.3 1.4-1 2.9-1.9 4.4-2.7 3-1.6 6.1-3.1 9.3-4.4-1.5.8-3 1.6-4.5 2.5-1.5.8-3 1.7-4.4 2.6-1.5.9-2.9 1.8-4.3 2.7-1.4 1-2.8 2-3.8 3.2-.3.3-.5.6-.6 1-.1.3-.2.8-.2 1.1-.1.8-.2 1.7-.2 2.5-.1 1.7-.1 3.4-.1 5.1v5.1l-.1 5.3z"/><path d="M449.9 186c15.3 8.8 32.3 14.8 43.5 7.8 11.3-7-.4-19.5-10.1-25.4-7.6-4.5-22-11.8-34.2-11l-14.7 8.3c-2.7 7.1 6.9 15.3 15.5 20.3z" opacity=".3" fill="#60bfff"/><path class="st8" d="M474.1 214.9s-67-37.7-74.8-41.6c-7.8-3.9-13.9-1.1-16 3 0 0-3.8-3.3-7.5-3.2-4.1.1-12.8 3.3-13.8 9.3 0 0-8-1-13 5.2-4.9 6.2-2.2 11.2-2.2 11.2s-10.6 3.4-6.3 20.8l8.5-4.7s56.4 31.9 62.3 34.7c5.9 2.8 9.5 2.6 11.7 1.1l9.1 6.7c-2.7-29 42-42.5 42-42.5z"/><path d="M361.8 182.4c1.6.2 3.1.7 4.6 1.3 1.5.6 2.9 1.3 4.3 2 1.4.8 2.8 1.6 4.1 2.5.7.5 1.3.9 1.9 1.4l1.8 1.5c-1.4-.8-2.8-1.5-4.1-2.3-1.4-.8-2.7-1.6-4.1-2.3-1.4-.8-2.8-1.5-4.2-2.2-1.4-.7-2.8-1.4-4.3-1.9zm21.4-6.1c2.1.8 4.1 1.9 6 3.1 1.9 1.2 3.7 2.6 5.3 4.2-2-1.1-3.9-2.2-5.8-3.4-1.9-1.2-3.7-2.4-5.5-3.9zm-36.5 22.5c1.4-1.4 3.2-2.5 5.2-2.9 1-.2 2.1-.3 3.1-.1 1 .2 2 .5 2.9.9 1.9.8 3.6 1.7 5.4 2.6 1.7 1 3.4 2.1 5 3.3L363 200c-1.8-.8-3.6-1.7-5.4-2.4-.9-.4-1.8-.7-2.7-.9-.9-.2-1.9-.2-2.8 0-1.9.2-3.8 1-5.4 2.1zm-1.9 14.3c1 .1 2 .4 2.8.8.9.4 1.7.9 2.4 1.6-1-.1-2-.4-2.8-.8-.9-.4-1.7-.8-2.4-1.6z" fill="#752c1b"/><path d="M413.7 195.8c6.7-2 12.8-1.1 13.7 2.1.9 3.1-3.7 7.3-10.4 9.3-6.7 2-12.8 1.1-13.7-2.1-.9-3.1 3.7-7.3 10.4-9.3z" opacity=".3" fill="#c45f3f"/><path class="st5" d="M431.1 140.1s-1-2.1-.4-2.4c.6-.3 1.4 1.3 1.4 1.3s2-2.8 3.3-1.8c1.3 1 .7 2.7-1.9 4.7 0 0-3.5 6.6-4.4 8-.9 1.4-2.2 2.1-3.3 1.2v-3.2c0-.1 1.9-1.4 5.3-7.8z"/><path class="st3" d="M424.8 151.5l.9-4.1s-6.7-8-7.1-8.2c-.4-.2-1.8 3.7-1.1 5.5.8 1.9 7.3 6.8 7.3 6.8z"/><path class="st12" d="M425.7 146.7c-.5-.2-1.1 2.5-1.3 3.4-.2.9-.1 2.2.8 2.2s.5-2.2.7-2.9c.2-.7.7-2.4-.2-2.7z"/><path class="st3" d="M412.7 206.1c-2.1-1.1-4.7-2.8-4.7-2.8v2.1h-.9v-4.2c0-1.1 2.7-.9 4.3.5 3.9 3.1 2.7 5.1 1.3 4.4z"/><path class="st5" d="M407.8 201.8v-4.6h3.4l-.3 4.3s2.8 2.5 2.4 2.9c-.4.4-5.5-2.6-5.5-2.6z"/><path class="st13" d="M406.7 167l.6 31.2s3 .4 4.7-.9l2.2-29.2-7.5-1.1z"/><path class="st3" d="M422.3 200.6c-2.5-1.3-4.7-2.8-4.7-2.8v2.1h-.9v-4.2c0-1.1 2.6-.9 4.3.4 2.7 2.1 3.8 5.7 1.3 4.5z"/><path class="st5" d="M417.3 196.3v-4.6h3.4l-.3 4.3s2.8 2.5 2.4 2.9c-.3.4-5.5-2.6-5.5-2.6z"/><path class="st13" d="M415.3 165.9l1.6 26.7s3 .4 4.7-.9l1-27.1-7.3 1.3z"/><path class="st3" d="M405.9 167.6s4.5 4 10.1 2.1c0 0 3 .5 5.3-1.7s1.4-8.6-2.2-13.3c0 0 .9-7.9 1.3-9.8.4-2-.6-7.7-6.6-7.4-6 .4-8.1 2.6-8.2 4.3-.2 1.7 3.1 13 3.1 13s-2.7 3.2-2.8 12.8z"/><path class="st12" d="M414.9 142.5l.2 6.9c.1 1.1.1 2.3.2 3.4 0 .6.1 1.1.2 1.7 0 .3.1.5.2.8.1.3.1.6.2.9.4 2.3.4 4.6.4 6.9 0 2.3-.3 4.6-.6 6.8.2-2.3.2-4.6.2-6.8 0-2.3-.1-4.6-.5-6.8-.1-.3-.1-.6-.2-.8-.1-.3-.1-.6-.2-.9-.1-.6-.1-1.2-.1-1.7-.1-1.1-.1-2.3-.1-3.4-.1-2.4 0-4.7.1-7z"/><path class="st0" d="M414.7 159.3c3.1-.1 4.9-1.3 5.9-2.3-.4-.8-.9-1.6-1.5-2.3v-.2c-1.6.5-6.3 1.7-10.5-.9l-.2.4c.1.5.2.8.2.8s-.4.5-.9 1.7c.9 1 3.2 3 7 2.8z"/><path d="M415.9 155.8c-1.4.4-2.4 3.1.4 2.5 2.9-.6 1.4-3-.4-2.5z" fill="#fff4dc"/><path class="st15" d="M412.8 124.6s-2.5-2-4.7-1c-2.2 1.1-2.2 2.8-2.3 5.3-.2 2.5.1 4.9-.9 4.7 0 0 1.3 4.6 7.9 3.7 6.7-.8 7.6-2.9 7.6-2.9s-2.1-.3-1.6-2.1 1-3.4-.1-5.7c-1.1-2.3-4.2-6.3-5.9-2z"/><path class="st5" d="M410.7 134.5s-1.9-.2-2.4-1.2c-.8-1.4.7-1.7 1.4-1.2 0 0-.6-3.4 2.8-4.5s4.3.7 4.6 2.6c.3 1.9.5 5.6-2 6.1-2.6.4-3.3-.9-4.4-1.8z"/><path class="st5" d="M410.7 134.5s.1 3.1.4 3.7c.3.6 3.7 4.3 3.7 4.3s-.1-4.2 0-4.7-.5-2.5-.5-2.5l-3.6-.8z"/><path class="st15" d="M407.3 132.4s4.5.7 7.2-4.2c0 0 2.3 1.7 3.3 1.5 1.1-.2-2.2-4.1-5-3.2-2.8.8-5.5 5.9-5.5 5.9z"/><path class="st16" d="M415.1 133.7c-.6 0-1.4-.8-1.8 0-.4.8.7 1.5 1.8 1.5 1.1-.1 1.8-1.5 0-1.5z"/><path class="st12" d="M414.9 142.5s-1.7 3.1-1.7 2.8c-.1-.2-4.1-4.5-4.5-6.4-.3-1.9 2.1-3.1 2.1-3.1l4.1 6.7z"/><path class="st12" d="M417.3 145.4l-2.5-2.9-.2-6.2s1.9.4 2.2 1.9c.4 1.6.5 7.2.5 7.2z"/><path class="st3" d="M406.7 153.9l2.6-3.4s-1.5-11.3-2.3-10.9c-1 .5-3.9 1.3-3.9 5 0 2 3.6 9.3 3.6 9.3z"/><path class="st5" d="M417.3 146.2s0-2.3.7-2.3c.7-.1.7 1.7.7 1.7s3-1.7 3.8-.2-.5 2.8-3.7 3.4c0 0-6 4.4-7.4 5.4-1.4.9-2.9 1-3.5-.3l1.4-2.9c0-.1 2.2-.4 8-4.8z"/><path class="st12" d="M409.6 149.9c-.4-.4-2.1 1.8-2.7 2.5-.6.8-1.1 2-.2 2.3.8.4 1.4-1.7 1.9-2.3.6-.5 1.6-1.8 1-2.5z"/><path class="st17" d="M469 124.1s8.3-7.2 10.8-7.8c2.5-.7 4.1 2.6 1.3 4.8-2.8 2.2-11.1 8.6-13.1 8.7-1.9 0 1-5.7 1-5.7z"/><path class="st8" d="M466.4 129.7s-3.3-.6-2.7-3.7 3.4-8.8 2.7-9.6c-.8-.8-3.2-1.6-2.7-2.6.4-1 1.9-2.1 2.9-1.8 1 .3 3.2 2.2 3.2 2.2s1.1-1.7 1.8-1.4 0 1.9-.5 2.4-1.3 1.7-1.9 4.2c-.6 2.5-1 5-1 5l-1.8 5.3z"/><path class="st18" d="M466.7 130.2c-1.1-.2-.6-1.4 0-2.8.6-1.5 1.8-3.8 2.2-3.8.4.1.2 2.1.2 3.5-.1 1.5.4 3.6-2.4 3.1z"/><path class="st17" d="M477.4 141.9s-.2-18.2 0-20.6c.2-2.4.3-4.1 2.4-5.1s6.6-1.2 9.9.7c3.3 2 3 2.8 3.4 7.8.4 5 0 23.9 0 23.9s-9.7.1-15.7-6.7z"/><path fill="none" stroke="#6a33d3" stroke-width=".233" stroke-miterlimit="10" d="M483.9 119.6v27"/><path class="st18" d="M483.6 114.9l.4 4.7-2.4.1.4-4.3c0 .1.8-.8 1.6-.5z"/><path class="st18" d="M489.6 116.9l-4.3 3.7-1.4-1 3.2-4.8s1.5 0 2.5 2.1z"/><path class="st8" d="M487.5 110.6s-.2 5.4 0 5.9-3.5 3.2-3.5 3.2l-.7-6.7 4.2-2.4z"/><path class="st8" d="M483.2 114.3c-2.3.1-3.9-1-4.1-5-.2-4 .7-7.5 4.1-6.8 3.4.7 3.7 2.4 3.8 5.5.2 3.3 0 6.2-3.8 6.3z"/><path class="st20" d="M489.4 103.3c-.2-2.8-4.4-2-4.4-2s.1-.8 0-1.5c-.1-.8-2.6-1.1-4.9.4-3.4 2.2-1.3 8.4-1.3 8.4.3 7.8 3.3 6.6 5.7 6.4 2.4-.2 2.6-3.4 2.6-3.4s1.5.7 2.3.3c.7-.3.2-5.8 0-8.6zm-7.2 9.2c-1.8.2-1.5-1.1-.5-1.4 3.3-1.1 2.4 1.1.5 1.4zm2.3-3.1c-1.4.2-1.6-.1-2.3.2-1.9.8-3 .8-2.9-.9.2-1.8.2-3.9 1.9-4.2 1.7-.3 4.1.1 4.2 1.4.2 1.3.4 3.3-.9 3.5z"/><path class="st8" d="M487.8 108.7c.7.1.9 1.4.7 2.2-.3.9-1.3 1.6-1.8.5-.6-1.1-.2-3 1.1-2.7z"/><path class="st21" d="M445.9 176.2l-1.4-1.1v-21.7h1.4z"/><path class="st0" d="M445.9 176.2l1.5-1.1v-21.7h-1.5z"/><path class="st21" d="M475.9 194.4l-1.4-1.1v-29.4h1.4z"/><path class="st0" d="M475.9 194.4l1.5-1.1v-29.4h-1.5z"/><path class="st21" d="M492.4 186.7l-1.4-1.1v-29.4h1.4z"/><path class="st0" d="M492.4 186.7l1.5-1.1v-29.4h-1.5z"/><path class="st0" d="M457.1 164.8c-10.7-4.3-23.3-13-12.6-21.8 10.7-8.8 30.9-2.2 40.3 1.8 9.4 4 21.5 13.8 12.3 21.5-9.2 7.7-25.2 4.4-40-1.5z"/><path class="st21" d="M457.1 162.9c-10.7-4.3-23.3-13-12.6-21.8 10.7-8.8 30.9-2.2 40.3 1.8 9.4 4 21.5 13.8 12.3 21.5s-25.2 4.5-40-1.5z"/><path class="st22" d="M460.8 152.7l11.7-7.2 10.7 5.6-11.2 7.5z"/><path class="st16" d="M460.8 151.8l11.7-7.2 10.7 5.5-11.2 7.6z"/><path class="st8" d="M483.1 134.3l-7.2 10.3s-3.9.4-3.8 1c.1.6 2.6.3 2.6.3s-1.7 3.2-.6 4.4 2.9-.3 4.1-3.7c0 0 9.9-11.3 10-13.1 0-2.4-2.6-2.6-5.1.8z"/><path class="st17" d="M482.9 134.6s3.3-5.2 4.6-8.9c1.3-3.7 1.4-6.5 2.4-7.3 1-.8 4.3.2 3.3 5.7s-5.9 11.9-5.9 11.9l-4.4-1.4z"/><path class="st23" d="M493.3 124.1c-.4 2.2-1.3 4.3-2.3 6.3-1 2-2.2 3.9-3.5 5.7v.1h-.1l-4.4-1.4h-.1l.1-.1c.9-1.4 1.7-2.9 2.5-4.3.8-1.5 1.6-3 2.2-4.5-.6 1.6-1.3 3.1-2.1 4.6-.8 1.5-1.6 2.9-2.5 4.4l-.1-.1 4.4 1.4h-.1c1.3-1.8 2.5-3.7 3.6-5.6 1-2.3 1.9-4.3 2.4-6.5z"/><path class="st18" d="M482.3 134.3c0-.5 2.4-.5 4-.1 1.6.3 2.7.5 1.7 1.8-.9 1.3-1.9.6-3.1-.1-1.2-.7-2.7-1-2.6-1.6z"/><path class="st4" d="M445.9 112v3.3l3.9-1.7v-3.3z"/><path class="st3" d="M436.6 117.6l5.3-2.6v4.9l-5.3 2.8z"/><path class="st23" d="M441.2 124v6.6l9.4-4.8v-6.3z"/><path class="st24" d="M432.8 129.7l4.3-2.2v4l-4.3 2.1z"/><path class="st25" d="M441.8 135.1l12.9-6.6 3.9 9.8-12.7 7.5z"/><path class="st13" d="M443.2 135.4l10.8-5.5 3.2 8.2-10.6 6.3z"/><path class="st7" d="M445.9 145.8l9 5.1 12.5-7.6-8.8-5z"/><path class="st26" d="M455.3 149.4l9.7-6-6.6-3.7-9.9 5.8zm-9.4-3.6v.5l9 5.3v-.7z"/><path class="st26" d="M467.4 143.3l-12.5 7.6v.7l12.5-7.8zm-21.5 2.5l-.3.2-4.4-11.1.6.2z"/><path class="st26" d="M454.7 128.5l-12.9 6.6-.6-.2 12.8-6.4z"/><ellipse transform="rotate(-16.605 337.43 250.563)" class="st27" cx="337.4" cy="250.6" rx="12.6" ry="6.6"/><ellipse transform="rotate(-16.605 302.498 251.402)" class="st27" cx="302.5" cy="251.4" rx="12.6" ry="5.9"/><path class="st15" d="M304.1 246.6s-.1 2.3-.1 2.5c0 .2 3.4 1.9 4.3 2.3.9.4 3.1-.7 2.7-1.3-.4-.6-2.6-3.2-3-4.1-.4-.9-3.9.6-3.9.6zm-8.4 5.4v2.1c0 .2 3.6 2 4.5 2.4.9.4 3.3-.7 2.8-1.4-.4-.7-2.8-3.4-3.2-4.3-.3-.9-4.1 1.2-4.1 1.2z"/><path class="st28" d="M295.7 252s2.2 1.1 4.2-1.3l2.8-28.1.9-.5.4 24.8s2.2.6 4-.6c0 0 2-20.5 1.5-31.1l-13.9 2.8c.1.1-.3 28.6.1 34z"/><path class="st2" d="M308.7 198.8s4.6 12.5 5 13.8c.4 1.3-3.8 2.6-4.1.5-.3-2.2-4.1-12.8-4.1-12.8l3.2-1.5z"/><path class="st3" d="M302.9 191c1.5-.3 5.1 2.4 6.8 8.8 0 0-2.3 1.5-4.5 1.1l-2.3-9.9z"/><path class="st3" d="M297.3 190.6c-2 .2-5.5 2.2-6.3 3.1-1.5 1.6 2.8 15.6 3.4 19.5.5 3.9-.3 4.8 3.3 5.5 3.6.7 12 0 12-3.4s-1.9-14.4-2.9-19.2c-1.3-5.9-4.7-6.1-9.5-5.5z"/><path class="st26" d="M303.7 214.6l7.8-4.4-.9 6.7z"/><path class="st25" d="M310.3 208l9.5-5.5v8.6l-9.2 5.8z"/><path class="st2" d="M316.4 210.2c-1.4.6-1.4 1.4-1.3 2.6.1 1.2-.5 2.4.7 2.1 1.2-.2 2.3-1.4 2.3-2.7-.2-1.2.2-2.8-1.7-2zm-22.1-.1l5-8.9s-.1-3.3.6-3.4c.7-.1 1.4 2.5 1.4 2.5s4.3-1.4 4.7.7c.4 2.1-.2 2.9-4.1 2.9 0 0-4.1 9.5-6.7 10.4-2.5.9-5.4-.3-5-9.4l3.3.5.8 4.7z"/><path class="st3" d="M289.7 204.7c.2.2 1.9.9 4.2.6 0 0 .9-9.3-.3-10.9-1.2-1.5-3.3-1.5-3.9 1.2-.5 2.3 0 9.1 0 9.1z"/><path class="st2" d="M295.7 186.2s-2.4.7-2.3-1.5c.1-2.2 2.4-.7 2.4-.7s-.3-4.1.3-4.3c.7-.2 4.7-.1 5.5 1.7.8 1.8 1.6 6.8.9 7.4-.8.6-2.4.9-3.4.2l.1 1.2s3 2.4 1.3 3.2c-1.7.8-4.2-.8-5.1-2.4l.3-4.8z"/><path class="st6" d="M295.8 184.1s-.2-2.5 0-3.7c-1-.3-3.1-.9-3.7-1.9 0 0 .4 3.1 1.5 5.4.6-.9 2.2.2 2.2.2z"/><path class="st20" d="M298.3 176s1.7-.4 2.1-1.9c0 0-2.7.4-5 .9s-5.3 2.8-2 5.1c3.4 2.3 11.1 3.2 11.5-.5 0 0-2.5-.1-3.7-1.1 0 0 2.9.2 4.2-1.2.1 0-2.5-1.9-7.1-1.3z"/><path d="M300.5 184.6c0 .6-.6 1-1.2 1-.7 0-1.2-.4-1.2-1s.6-1 1.2-1c.7 0 1.2.4 1.2 1zm3.2-.3c0 .6-.6 1-1.2 1-.7 0-1.2-.4-1.2-1s.6-1 1.2-1 1.2.5 1.2 1zm-8-.2l2.4.5m2.4 0h.7" fill="none" stroke="#233560" stroke-width=".246" stroke-linecap="round" stroke-linejoin="round" stroke-miterlimit="10"/><path class="st16" d="M300.9 188.3c-1.4 0-2.2-1-1.6-1.5.6-.6 1.7.6 2.3.6s.7.9-.7.9z"/><path class="st13" d="M341.5 249.1s-.4 4.2.3 5.3c.7 1 2.5-1.1 2.7-5.3 0 0 .5.2.8.7l.3-.7s-.8-2.5-1.9-3.3c-1.1-.9-2.2 3.3-2.2 3.3z"/><path class="st5" d="M336.2 218.2s-.1 10 1 16.4c1.1 6.4 4.3 11.8 4.3 12.8s-.2 4.1.5 3.9c.7-.2 1.8-4.2 1.7-4.9-.1-.7-2.4-12.6-2-17.7s.7-8.7.7-10.9c.1-2.1-5.6-3.9-6.2.4z"/><path class="st30" d="M341.8 228.8c.4-5.1.7-8.7.7-10.9 0-2.2-5.7-4-6.3.3 0 0-.1 10 1 16.4 1 5.9 3.8 10.9 4.2 12.5.6-.3 1.5-.9 2.1-1.8-.4-3.1-2-12.2-1.7-16.5z"/><path class="st13" d="M328.2 251.4c1 .5 6.5-2.8 6.5-2.8v2.1l.9-.6s.8-3.6-.2-4.4c-1-.8-2.4-.1-4.1 1.2-1.8 1.3-4 4-3.1 4.5z"/><path class="st5" d="M335.1 246.8c-.2 1.4-5.1 3.3-5.5 2.9-.4-.4 2.4-2.9 2.4-2.9s-2.3-23.2-2-27.9c.3-4.7 5.9-2.3 5.5 1.6-.5 4-.3 25.5-.4 26.3z"/><path class="st30" d="M330.3 217.4c-.1.2-.2.5-.3.8 0 .2-.1.5-.1.7-.2 3.9 1.3 20.5 1.8 26.1.7.1 1.8-.1 3.3-.9 0-6.1 0-20.3.3-23.5.5-3.5-3.7-5.7-5-3.2z"/><path class="st24" d="M332.5 183.2s-4-4.7-2.5-6.6c1.4-1.9 5-4.7 7-3.3 0 0 3.4-1.5 6.3 1.4 2.9 2.8 1 20.3 1 20.3h-12.1l.3-11.8z"/><path class="st22" d="M344.6 218.4s-4.5 4-10.1 2.1c0 0-4.5.4-6.9-1.6-.9-.7.3-8.7 3.8-13.4 0 0-.9-7.9-1.3-9.8s.6-7.7 6.6-7.4c6 .4 8.1 2.6 8.2 4.3.2 1.7-3.1 13-3.1 13s2.7 3.2 2.8 12.8z"/><path class="st25" d="M335.7 193.3c-.2 2.3-.3 4.5-.4 6.8-.1 2.3-.2 4.5-.3 6.8-.1 2.3-.2 4.5-.2 6.8l-.2 6.8c-.1-2.3-.2-4.5-.2-6.8s.1-4.5.1-6.8c.1-2.3.2-4.5.4-6.8s.4-4.5.8-6.8z"/><path class="st5" d="M339.8 185.3s-.1 3.1-.4 3.7c-.3.6-3.7 4.3-3.7 4.3s.1-4.2 0-4.7.5-2.5.5-2.5l3.6-.8z"/><path class="st25" d="M335.7 193.3s1.7 3.1 1.7 2.8c.1-.2 4.1-4.5 4.5-6.4.3-1.9-2.1-3.1-2.1-3.1l-4.1 6.7z"/><path class="st25" d="M333.2 196.2l2.5-2.9.2-6.2s-1.9.4-2.2 1.9c-.4 1.6-.5 7.2-.5 7.2z"/><path class="st5" d="M339.8 185.3s1.9-.2 2.4-1.2c.8-1.4-.7-1.7-1.4-1.2 0 0 .6-3.4-2.8-4.5s-4.3.7-4.6 2.6c-.3 1.9-.5 5.6 2 6.1 2.7.4 3.3-.9 4.4-1.8z"/><path class="st24" d="M343.2 183.2s-4.5.7-7.2-4.2c0 0-2.3 1.7-3.3 1.5-1.1-.2 2.2-4.1 5-3.2 2.9.8 5.5 5.9 5.5 5.9z"/><path class="st16" d="M335.5 184.5c.6 0 1.4-.8 1.8 0 .4.8-.7 1.5-1.8 1.5-1.2-.1-1.9-1.5 0-1.5z"/><path class="st5" d="M319.4 190.9s1-2.1.4-2.4c-.6-.3-1.4 1.3-1.4 1.3s-2-2.8-3.3-1.8c-1.3 1-.7 2.7 1.9 4.7 0 0 3.5 6.6 4.4 8 .9 1.4 2.2 2.1 3.3 1.2v-3.2c0-.1-1.9-1.4-5.3-7.8z"/><path class="st22" d="M325.7 202.3l-.9-4.1s6.7-8 7.1-8.2c.4-.2 1.8 3.7 1.1 5.5-.8 1.9-7.3 6.8-7.3 6.8z"/><path class="st25" d="M324.8 197.5c.5-.2 1.1 2.5 1.3 3.4s.1 2.2-.8 2.2-.5-2.2-.7-2.9c-.2-.7-.6-2.4.2-2.7z"/><path class="st22" d="M350.2 202.6l-4.2-.7s-4.9-5.8-4.1-10.2c.6-3.4 2.5-1.4 4.6 1.7 1.1 1.6 3.7 9.2 3.7 9.2z"/><path class="st5" d="M346.7 202.3s-5.6 7.5-6.1 8.7c-.5 1.2-.8 5.1.7 4.6 1.5-.6 1.1-3.6 1.1-3.6s7.6-7.8 7.7-8.8c.2-1-3.4-.9-3.4-.9z"/><path class="st25" d="M345.4 201.7c0-.6 2.7-.2 3.7 0 .9.2 2.1.7 1.8 1.5-.3.8-2.2-.3-3-.4-.9 0-2.6-.2-2.5-1.1z"/><g class="st31"><defs><path id="SVGID_1_" class="st31" d="M325 173.4V154l18.6-10.7.1 19.4z"/></defs><clipPath id="SVGID_2_"><use xlink:href="#SVGID_1_" overflow="visible"/></clipPath><g clip-path="url(#SVGID_2_)"><path class="st33" d="M332.5 164.6l-1.6.9v1.4l.9-2 .7-.3m8.5-19.3l.3.2c-.1-.1-.2-.1-.3-.2m-1.1.1l-13.3 7.7c-.9.5-1.6 1.8-1.6 2.8v8.1c0 .5.2.8.4 1l-.1-.1 1.7-.5v-6.7c0-1 .7-2.3 1.6-2.8l11-6.4-.5.2 1.8-3.5c-.2-.1-.6 0-1 .2"/><path class="st33" d="M325.3 164.9l2 1.7c-.1-.2-.2-.5-.2-.8v-1.4l-1.8.5m15.7-19.6l-1.8 3.5.5-.2 2.3-1.3c.5-.3.9-.3 1.2-.1l-1.9-1.7-.3-.2m-8.1 19.1l-.4.2-.7.4-.9 2 2.1 1.8-.1-4.4"/><path class="st34" d="M334.7 158.9l2.7-5.7c.1-.2.2-.3.3-.4.1-.1.2-.1.3-.1l.3.1c.2.1.2.4 0 .7l-3.1 6.5c-.1.2-.2.3-.3.4h-.1s-.1.1-.2.1l-2-.3c-.2 0-.3-.3-.1-.6l.2-.4c.1-.2.2-.4.4-.5.1 0 .1-.1.2 0l1.4.2m7.3-11.6l-2.3 1.3-11 6.4c-.9.5-1.6 1.8-1.6 2.8v8.1c0 .3.1.6.2.8.1.1.2.2.3.2.3.2.7.1 1.1-.1l2.1-1.2 1.6-.9.4-.2.1 4.4 4.8-7.3 4.2-2.4c.9-.5 1.6-1.8 1.6-2.8v-8.1c0-.5-.2-.8-.4-1-.2-.3-.6-.3-1.1 0"/><path class="st16" d="M337.7 152.8c-.1.1-.2.2-.3.4l-2.7 5.7-1.5-.3h-.2c-.1.1-.3.3-.4.5l-.2.4c-.1.3-.1.6.1.6l2 .3c.1 0 .1 0 .2-.1h.1c.1-.1.2-.2.3-.4l3.1-6.5c.2-.3.1-.6 0-.7l-.3-.1c0 .2-.1.2-.2.2"/></g></g><g class="st31"><defs><path id="SVGID_3_" class="st31" d="M283.7 176.7l-.1-19.4 18.6-10.7.1 19.4z"/></defs><clipPath id="SVGID_4_"><use xlink:href="#SVGID_3_" overflow="visible"/></clipPath><g clip-path="url(#SVGID_4_)"><path class="st36" d="M291.1 167.9l-1.6.9v1.4l.9-2 .7-.3m8.6-19.3l.3.2c-.1-.1-.2-.2-.3-.2m-1.2.1l-13.3 7.7c-.9.5-1.6 1.8-1.6 2.8v8.1c0 .4.1.7.3.9l1.7-.5V161c0-1 .7-2.3 1.6-2.8l11-6.4-.5.2 1.8-3.5c-.1-.1-.5-.1-1 .2M284 168.2l2 1.7c-.1-.2-.2-.5-.2-.8v-1.4l-1.8.5"/><path class="st36" d="M299.7 148.6l-1.8 3.5.5-.2 2.3-1.3c.5-.3.9-.3 1.2-.1l-1.9-1.7-.3-.2m-8.2 19.1l-.4.2-.7.4-.9 2 2.1 1.8-.1-4.4"/><path class="st23" d="M294 164.4c-1.9 1.1-3.4.2-3.4-1.9s1.5-4.8 3.4-5.8c1.9-1.1 3.4-.2 3.4 1.9s-1.6 4.8-3.4 5.8m6.6-13.8l-2.3 1.3-11 6.4c-.9.5-1.6 1.8-1.6 2.8v8.1c0 .3.1.6.2.8.1.1.2.2.3.2.3.2.7.1 1.1-.1l2.1-1.2 1.6-.9.4-.2.1 4.4 4.8-7.3 4.2-2.4c.9-.5 1.6-1.8 1.6-2.8v-8.1c0-.5-.2-.8-.4-1-.2-.3-.6-.3-1.1 0"/><path class="st0" d="M294.1 161.7c.5-.3 1-.8 1.3-1.3l.1-.1h.1c.1 0 .1.2 0 .3-.4.7-1 1.2-1.5 1.6-.6.3-1.1.4-1.5.2-.1 0-.1-.2 0-.3 0-.1.1-.1.1-.1h.1c.4 0 .9 0 1.3-.3m-1.9-.8c-.1-.3.1-.6.4-.8.2-.1.4 0 .4.3l-.1.1c-.1 0-.2 0-.4.1l-.3.3m3.2-1.8c-.1-.3.1-.6.4-.8.2-.1.4 0 .4.3l-.1.1c-.1 0-.2 0-.4.1-.1 0-.2.2-.3.3m-1.4-2.4c-1.9 1.1-3.4 3.7-3.4 5.8 0 2.1 1.5 3 3.4 1.9s3.4-3.7 3.4-5.8c-.1-2.1-1.6-3-3.4-1.9"/><path class="st13" d="M292.5 160.2c-.2.1-.4.5-.4.8h.1c.1-.1.2-.3.4-.3.1-.1.3-.1.4-.1l.1-.1c-.1-.4-.3-.5-.6-.3m3.2-1.9c-.2.1-.4.5-.4.8h.1c.1-.1.2-.3.4-.3.1-.1.3-.1.4-.1l.1-.1c-.1-.3-.3-.4-.6-.3m-.2 1.9l-.1.1c-.4.6-.8 1.1-1.3 1.3-.5.3-.9.3-1.3.2h-.1l-.1.1c-.1.1-.1.2 0 .3.4.2.9.1 1.5-.2.6-.3 1.1-.9 1.5-1.6.1-.1.1-.2 0-.3 0 .1 0 .1-.1.1"/></g></g><path class="st37" d="M284.5 380c7.8-2.3 15-1.2 16.1 2.4 1.1 3.7-4.3 8.5-12.2 10.9-7.8 2.3-15 1.2-16.1-2.4-1.1-3.7 4.3-8.6 12.2-10.9z"/><ellipse transform="rotate(-61.06 368.21 355.666)" class="st37" cx="368.2" cy="355.7" rx="9.1" ry="29.2"/><path class="st30" d="M346.6 346.8l8.9-5.5 2.1 1.2-9.2 5.6z"/><path class="st30" d="M346.6 346.8v2.2l1.8 1.2v-2.1zm31.4 19.4l9-5.5 2.1 1.2-9.2 5.6zm0 0v2.2l1.8 1.2v-2.1z"/><path class="st38" d="M389.1 361.9l-9.3 5.6v2.1l9.3-5.7zm-34.4-18.2l-2.6 1.5v-12.4l2.6-1.5z"/><path class="st30" d="M350.8 344.4l1.3.8v-12.4l-1.3-.7z"/><path class="st38" d="M357.6 342.5l-9.2 5.6v2.1l9.2-5.7z"/><path class="st30" d="M382.3 363.8l1.3.8v-64.4l-1.3-.8z"/><path class="st38" d="M386.2 363.1l-2.6 1.5v-64.4l2.6-1.5z"/><path class="st39" d="M340.9 329.4l9.9-59.1 39.4 21.5-11.7 57.4z"/><path class="st16" d="M344.4 326.7l8.5-50.9 32.3 18.1-10.1 49.5z"/><path d="M361.2 285.6l-6.8-4.2-.2.8 6.8 4.2.2-.8m20.4 12.6l-6.8-4.2-.1.8 6.8 4.2.1-.8m-18.3-11.3l-1.7-1.1-.1.9 1.7 1 .1-.8m3.9 2.4l-3.5-2.1-.1.8 3.4 2.1.2-.8m7.2 4.4l-6.8-4.2-.1.9 6.7 4.1.2-.8m-17.9-9.1l-2.4-1.5-.1.8 2.4 1.5.1-.8m16.1 9.9l-6.8-4.2-.1.8 6.8 4.2.1-.8m7.3 4.4l-6.8-4.1-.1.8 6.7 4.1.2-.8m-22.2-13.6l-.7-.5-.2.8.8.5.1-.8m3.8 2.3l-3.4-2.1-.1.8 3.4 2.1.1-.8m3.9 2.4l-3.5-2.1-.1.8 3.4 2.1.2-.8m-4.7-1.3l-6.8-4.1-.1.8 6.7 4.2.2-.9m2.1 1.4l-1.7-1.1-.1.8 1.7 1.1.1-.8m3.9 2.3l-3.4-2.1-.2.8 3.4 2.2.2-.9m-11.8-5.4l-1.3-.8-.1.9 1.2.7.2-.8m16.4 10.1l-6.8-4.2-.1.9 6.8 4.1.1-.8m7.7 4.8l-7.3-4.5-.1.8 7.3 4.5.1-.8m-22.7-14l-1-.6-.1.8 1 .6.1-.8m3.9 2.4l-3.4-2.1-.2.8 3.5 2.1.1-.8m3.8 2.3l-3.4-2.1-.1.9 3.4 2.1.1-.9m-3.9-.3l-6.8-4.2-.1.8 6.8 4.2.1-.8m15.4 9.5l-6.7-4.2-.2.8 6.8 4.2.1-.8m-13.2-8.2l-1.8-1-.1.8 1.8 1.1.1-.9m3.8 2.4l-3.4-2.1-.1.8 3.4 2.1.1-.8m2.2 1.3l-1.8-1-.1.8 1.8 1 .1-.8m-12.8-6l-2.4-1.5-.1.8 2.4 1.5.1-.8m12 7.4l-1.7-1.1-.1.9 1.7 1 .1-.8m7.3 4.5L368 299l-.1.8 6.8 4.2.1-.8m-17.2-10.6l-1.7-1.1-.1.9 1.7 1 .1-.8m3.9 2.4l-3.4-2.1-.2.8 3.5 2.1.1-.8m3.8 2.3l-3.4-2.1-.1.9 3.4 2.1.1-.9m-7.3-2.9l-5.2-3.1-.1.8 5.1 3.2.2-.9m2.1 1.4l-1.7-1.1-.2.8 1.8 1.1.1-.8m3.9 2.3l-3.5-2.1-.1.8 3.4 2.1.2-.8m-10-4.3l-1.4-.8-.1.8 1.4.9.1-.9m10.2 6.3l-1.7-1.1-.2.9 1.8 1 .1-.8m3.9 2.4l-3.4-2.1-.2.8 3.4 2.1.2-.8m-12.1-7.4l-1.6-1-.1.8 1.6 1 .1-.8m3.8 2.3l-3.4-2.1-.1.8 3.4 2.1.1-.8m2.2 1.3l-1.8-1-.1.8 1.8 1.1.1-.9m-2.9.3l-6.8-4.1-.1.8 6.8 4.2.1-.9m15.4 9.5l-6.8-4.2-.1.9 6.8 4.1.1-.8m-13.3-8.1l-1.7-1.1-.1.8 1.7 1.1.1-.8m3.9 2.3l-3.4-2.1-.2.8 3.5 2.1.1-.8m2.1 1.4l-1.7-1.1-.1.8 1.7 1.1.1-.8m-12.4-5.9l-2.8-1.7-.1.9 2.8 1.6.1-.8m13.7 8.5l-1.7-1.1-.1.8 1.7 1.1.1-.8m7.3 4.4L369 307l-.1.8 6.7 4.2.2-.9m-17.2-10.5l-3.4-2.1-.1.8 3.4 2.1.1-.8m3.9 2.4l-3.5-2.2-.1.9 3.4 2.1.2-.8m3.8 2.3l-3.4-2.1-.1.8 3.4 2.1.1-.8m-11.1-5.2l-3.4-2.1-.1.8 3.4 2.1.1-.8m8.2 5.1l-3.4-2.1-.1.8 3.4 2.1.1-.8m-6-3.8l-1.7-1-.2.8 1.8 1.1.1-.9m2.1 1.4l-1.7-1.1-.1.8 1.7 1.1.1-.8m8.7 5.3l-4.3-2.7-.2.9 4.3 2.6.2-.8m-9.9-4.2l-6.8-4.2-.1.8 6.8 4.2.1-.8m12.1 7.4l-1.8-1.1-.1.8 1.8 1.1.1-.8m3.9 2.4l-3.4-2.1-.2.8 3.4 2.1.2-.8m-12.1-7.5l-3.4-2.1-.2.9 3.5 2.1.1-.9m3.8 2.4l-3.4-2.1-.1.8 3.4 2.1.1-.8m2.2 1.3l-1.8-1-.1.8 1.7 1 .2-.8m-10.1-4.2l-6.8-4.2-.2.9 6.8 4.1.2-.8m15.4 9.5l-6.8-4.2-.1.8 6.7 4.2.2-.8m-13.3-8.2l-1.7-1-.2.8 1.8 1.1.1-.9m3.8 2.4l-3.4-2.1-.1.8 3.4 2.1.1-.8m2.2 1.3l-1.7-1-.2.8 1.8 1.1.1-.9m-11.3-5.1l-3.9-2.4-.1.8 3.9 2.4.1-.8M367 313l-1.8-1-.1.8 1.8 1.1.1-.9m7.2 4.5l-6.8-4.2-.1.9 6.8 4.1.1-.8M357.1 307l-1.7-1.1-.2.8 1.8 1.1.1-.8m3.8 2.3l-3.4-2.1-.1.8 3.4 2.1.1-.8m3.9 2.4l-3.5-2.1-.1.8 3.4 2.1.2-.8m-10.6-4.9l-3.4-2.1-.2.8 3.5 2.1.1-.8m11.6 7.1l-1.8-1-.1.8 1.7 1 .2-.8m-6.1-3.7l-5.1-3.1-.1.8 5.1 3.1.1-.8m3.9 2.4l-3.5-2.1-.1.8 3.4 2.1.2-.8m12 7.4l-9.4-5.8-.1.8 9.3 5.8.2-.8m-22.3-11.9l-2.8-1.7-.1.8 2.7 1.7.2-.8m8.3 5.1l-1.7-1.1-.2.9 1.8 1 .1-.8m3.9 2.4l-3.4-2.1-.1.8 3.4 2.1.1-.8m-10.9-6.7l-.9-.6-.1.8.9.6.1-.8m3.1 1.9l-2.7-1.7-.1.9 2.7 1.6.1-.8m1.7 1l-1.2-.7-.2.8 1.3.8.1-.9" fill="#dcebfc"/><path class="st38" d="M378.5 349.2l3.8-.7 11.8-57.3-3.9.6z"/><path class="st30" d="M350.8 270.3l39.4 21.5 3.9-.6-38.4-20.9z"/><path class="st39" d="M364.1 320.2l-9.7-6.3v.1l9.6 6.3s0-.1.1-.1m1.6 1.1l-1.3-.8v.1l1.3.7m-2-.3l-9.4-6.1v.1l9.4 6m2.3 1.4l-2.1-1.4-.1.1 2.2 1.4v-.1m-2.8-.8l-9-5.8v.1l9 5.7m2.7 1.7l-2.6-1.7-.1.1 2.6 1.7.1-.1m-3.2-1.1l-8.6-5.6v.1l8.6 5.5m3.1 2l-3-1.9-.1.1 3 2 .1-.2m-5.6-2.7l-6.1-4v.1l6.1 4v-.1m5.5 3.6l-3.2-2.1h-.1c-.1 0-.1-.1-.1-.2l-1.8-1.1h-.1v.1l5.4 3.5-.1-.2m-5.9-2.8l-5.9-3.8v.1l5.8 3.8.1-.1m5.8 3.7l-5.7-3.7-.1.1 5.7 3.7.1-.1m-6.2-3l-5.6-3.6v.1l5.5 3.6.1-.1m6.1 3.9l-6-3.9-.1.1 6 3.9.1-.1m-8-4.2l-3.7-2.4v.1l3.7 2.4c-.1-.1 0-.1 0-.1m1.6 1l-1.2-.8v.1l1.2.7m6.3 4.1l-6.3-4.1-.1.1 6.3 4.1.1-.1m-8.3-4.4l-3.4-2.2v.1l3.4 2.1m8.2 5.3l-8.1-5.3-.1.1 8.2 5.3v-.1m-10.2-5.7l-1.5-1v.1l1.5.9m10.2 6.6l-10.1-6.5-.1.1 10.1 6.6.1-.2m-10.7-5.9l-1.1-.7v.1l1.1.6m10.6 6.8l-10.5-6.8-.1.1 10.5 6.8.1-.1m-11.1-6.2l-.7-.4v.1l.7.3m11 7.1l-10.9-7.1-.1.1 10.9 7.1.1-.1m-11.5-6.5l-.3-.2v.1l.3.1m11.4 7.4l-11.3-7.3-.1.1 11.3 7.4.1-.2m-.1.9l-11.7-7.5v.1l11.7 7.6v-.2"/><path class="st0" d="M355.1 323l-.1.1-.4.5-.1.1-.4.5-.1.1-.4.5-.1.1-.3.4-.2.3v.1h.1l.1-.1.4-.5.1-.1.4-.5.1-.1.4-.5.1-.1.4-.5.1-.1c0-.1 0-.2-.1-.2m1.5.6l-1-.7v.2l1 .7c-.1-.1-.1-.1 0-.2-.1 0-.1 0 0 0m.9-.6l-.4.4-.1.1-.1.2.1.1.2-.2.1-.1.3-.3c-.1-.1-.1-.2-.1-.2m.4.1v.1l.8.8v-.1l-.8-.8m2.3-1.5l-.4.7-.1.1-.3.6-.1.1-.3.6-.1.1-.1.2.1.1.1-.2.1-.1.3-.6.1-.1.3-.6.1-.1.3-.6v-.2m2 1l-1.6-1v.1l1.7 1.1c-.1-.1-.1-.2-.1-.2m1.9-2.1l-.3.4-.1.1-.4.5-.1.1-.4.5-.1.1-.2.2.1.1.2-.2.1-.1.4-.5.1-.1.4-.5.1-.1.3-.4c-.1 0-.1 0-.1-.1m1.6.9l-1.3-.8v.2l1.3.8v-.2"/><path class="st24" d="M355.3 322.6c-.1-.1-.2 0-.2.1v.2s0 .1.1.1l.1.1c.1.1.2 0 .2-.1v-.2s-.1-.2-.2-.2m1.5.9c-.1-.1-.2 0-.2.1v.2c0 .1.1.3.2.4.1.1.2 0 .3-.1v-.2c-.2-.2-.2-.2-.3-.4 0 .1 0 0 0 0m.9-.9c-.1-.1-.2 0-.2 0v.3s0 .1.1.1c0 0 0 .1.1.1.1.1.2 0 .2 0v-.2c-.1-.1-.1-.2-.2-.3m1.1 1.3h-.2v.1c0 .2.1.3.2.4.1.1.2 0 .2-.1v-.2c0-.1-.1-.1-.2-.2.1 0 .1 0 0 0m1.6-2.8c-.1-.1-.2 0-.2.1s0 .2.1.3l.1.1h.1l.1-.1v-.1s-.1-.2-.2-.3m2 1.3c-.1-.1-.2 0-.2.1v.2c0 .1.1.1.1.2h.1c.1 0 .1-.1.1-.2v-.2c0 .1 0 0-.1-.1 0 .1 0 .1 0 0m1.9-2.2c-.1-.1-.2 0-.2 0v.3s0 .1.1.1l.1.1c.1.1.2 0 .2-.1v-.3c-.1 0-.2-.1-.2-.1m1.6 1.1c-.1-.1-.2 0-.2 0v.3c0 .1.1.3.2.4.1.1.2 0 .2-.1.1-.4 0-.5-.2-.6"/><path class="st30" d="M354.4 313l-.2.1-1.3 13.5.1.2 11.8 7.7.1-.1-.1-.2-11.7-7.6.1-.8v-.2l-.1.2v-.2l.2-.2v-.6l.1-.8v-.1l.1-.8v-.1l.1-.8v-.1l.1-.8v-.1l.1-.8v-.1l.1-.8v-.9l.1-.2v-.9l.1-.7v-.2l.1-.7v-.2l.1-.7v-.2l.1-.7v-.2l.1-.6-.1-.3"/><path class="st38" d="M333.9 305.8s3.1 8.5 7.1 12c.9.8-.2 4.9-1 5-4 .3-8.8-9-9.1-11.1-.4-2.1 1.7-6.9 3-5.9z"/><path class="st5" d="M341.9 316.9s9.6-5.3 12.1-6.6c2.5-1.2 6.8-.5 7.4.4.5 1-2.9 4-4.2 3.4-1.4-.6-2-.6-2-.6s-11.7 9.5-14.2 8.4c-2.6-1 .9-5 .9-5z"/><path class="st23" d="M351.5 316.9h1.2l17.8-15.3z"/><path class="st5" d="M357.6 311.7c-1.5 1-1 3.5.6 3.5 1.6.1 4-2.5 3.1-4.1-.8-1.5-2.5-.1-3.7.6z"/><path class="st22" d="M341.6 316.7c-.3 0-.7.1-.9.4-1 1.3-3.7 5-3.2 5.3.5.3 4.2 1.6 4.5.1.2-1 .5-3.4.7-4.7.1-.5-.3-1-.8-1.1h-.3z"/><ellipse transform="rotate(-16.605 331.402 367.471)" class="st37" cx="331.4" cy="367.5" rx="12.6" ry="5.9"/><path class="st38" d="M325 369.1v1.7h-.8s-.9-3.8-.5-4.1c.4-.3 3-1 4.8.4 1.7 1.4 4.1 4 3 4.3s-2.1.5-6.5-2.3z"/><path class="st5" d="M323 345.2s1 21.4 1.1 22 4.5 2.8 5 2.3c.5-.4-1.6-2.7-1.6-2.7l1.1-21.7H323z"/><path class="st38" d="M332.8 365.9v1.7h-.8s-.9-3.8-.5-4.1c.4-.3 3-1 4.8.4 1.7 1.4 4.1 4 3 4.3-1.2.3-2.2.5-6.5-2.3z"/><path class="st5" d="M330.8 341.9s1 21.4 1.1 22c.1.7 4.5 2.8 5 2.3.5-.4-1.6-2.7-1.6-2.7l1.1-21.7h-5.6z"/><path class="st30" d="M322.1 346.4s7.6 5.1 15.8-2.5c0 0 .4-14.8-.3-17.6-.7-2.8-4.8-4.6-7.6-3-2.7 1.5-7 4.7-7.4 7.3-.4 2.5-.5 15.8-.5 15.8z"/><path class="st38" d="M332.9 323.5s-4.1 7.9-10.3 7c0 0-.4-5.2 3.3-8.1 0 0-4.2-9.6-5.1-11.8-.9-2.2 2.3-4.6 3.8-5.6 1.5-1.1 8.4-1.8 9.8 0 1.4 1.8 4.1 6.2 3.8 7.4-.3 1.2-2.1 2-2.1 2s.1 5.6.3 6.3c.2.7 1.6 4 1.4 6.6 0 .1-3.9-.9-4.9-3.8z"/><path class="st13" d="M334.4 305.1c1.2 1.5 2.2 3.1 3.1 4.7.2.4.4.8.6 1.3.1.4.4.9.2 1.5-.4 1-1.3 1.6-2.1 2l.1-.2.1 3.3.1 1.6c0 .5 0 1.1.2 1.6.3 1 .7 2.1.9 3.2.2 1.1.4 2.2.2 3.3 0-2.2-.7-4.3-1.5-6.3-.2-.6-.2-1.1-.2-1.7l-.1-1.6c0-1.1-.1-2.2-.1-3.3v-.1l.1-.1c.8-.4 1.6-1 1.9-1.8.1-.3 0-.8-.2-1.2-.2-.4-.3-.9-.5-1.3-.8-1.7-1.7-3.3-2.8-4.9z"/><path d="M325.7 316.6c.9.2 1.7.4 2.5.4.4 0 .8 0 1.2-.1l1.2-.3c-.3.3-.7.5-1.1.7-.4.1-.9.2-1.3.2-.9-.1-1.8-.3-2.5-.9zm7.2-5.5c.3 2.1.3 4.1.4 6.2 0 2.1-.1 4.1-.4 6.2 0-1 0-2.1-.1-3.1v-3.1c0-2 0-4.1.1-6.2z" fill="#182642"/><path class="st38" d="M314.3 317.3s1.8 2.5 3.4 3.5c0 0 4.9-7.5 6.4-9.9 1.5-2.4 0-5.8-2.9-2.6-3 3.3-6.9 9-6.9 9z"/><path class="st5" d="M302.7 312.2s-5.9 2-5.4 3.7c.5 1.7 4.5 1.6 6.9-.3 0 0 7.9 10.1 11.8 7.6l-2.6-4.5s-4.4-2.9-7.1-5.9c-2.7-3-4.1-4.7-4.6-3.9-.4.8 1 3.3 1 3.3z"/><path class="st22" d="M313.6 317.8c-.2.3-.3.6-.2 1 .5 1.6 2 5.9 2.4 5.7.6-.2 3.7-2.5 2.7-3.6-.7-.7-2.4-2.3-3.4-3.3-.4-.4-1.1-.3-1.5.2zm19.3-6.7s-3-2.1-5.3-3.1-5.3-2-3.3-3.4 4-.9 4-.9 4.3 4.4 4.6 7.4z"/><path class="st22" d="M329.4 303.6s2.4-.8 3.8 0 2.5 1.7 2 3.1c-.6 1.4-2 3.5-2.2 4.4l-3.6-7.5z"/><path class="st12" d="M322.8 293.9s-.6 4-.9 6.6c-.3 2.7 2.1 3.5 5.8 1.3 0 0 5.7 1.3 10.8-2.5-.1.1-11.3-9.2-15.7-5.4z"/><path class="st5" d="M329.2 300.5s1.9-.2 2.4-1.2c.8-1.4-.7-1.7-1.4-1.2 0 0 .3-4.5-3.2-5.6-3.4-1.1-4 1.9-4.3 3.7-.3 1.9-.5 5.6 2 6.1 2.8.4 3.4-.9 4.5-1.8z"/><path class="st12" d="M326.5 293.1s-3.4 2.4-5.3.8c-1.9-1.6.1-3.1 2.1-4.1 2-.9 6.5-2.8 9.6-.7 3.1 2.1 2.1 8.3 5.5 10.2 0 .1-9.2 2.3-11.9-6.2z"/><path class="st16" d="M324.9 299.7c.6 0 1.4-.8 1.8 0 .4.8-.7 1.5-1.8 1.5-1.2-.1-1.9-1.5 0-1.5z"/><path class="st5" d="M326.3 302.3s-.2 2.9 0 3.2c.2.3 5.4 2.2 6.3 3.9 0 0-.5-4.5-1.7-5.8l-.4-4.3-4.2 3zm-51.7 24.3s-.2 7.7-.4 9.8c-.2 2 1.4 4.2 4.5 2.4v-11.6l-4.1-.6z"/><path class="st24" d="M274.2 327.4s1.9 3.1 4.1 1.8c2.2-1.3 1.4-11.4 1.4-11.4s-5.1.6-5.5 9.6z"/><path class="st5" d="M290.5 323.2s1-2.6 1.8-3.3c.8-.6.9 1.6.9 1.6s2.7-.8 3.4.6c.8 1.3-3.8 4.5-3.8 4.5l-2.3-3.4z"/><path class="st20" d="M278.8 382.1s0 4 .3 4.4c.3.4 2.9-.3 4.6-1.2 1.7-.9 5.3-3.4 3.1-3.5-2.2-.1-4.6-.5-4.6-.5l-3.4.8zm8.4 3.4s.3 3.6.3 4.5c0 .9 1.3 1.1 3.7 0 2.4-1.1 6.3-4.2 4.1-4.5s-4.8-.7-4.8-.7l-3.3.7z"/><path class="st38" d="M277.5 345.7s.7 36 1.1 37c.4 1 3.8.8 5.2-.9l-.9-29s1.7.1 2.8.2c0 0 1.6 32.2 1.7 33.1.1 1 3.8 1.3 5.2-1l-.7-37.5c-.2 0-10.5-3.7-14.4-1.9z"/><path class="st34" d="M297.2 327.1v4.6c0 .9.7 2 2.7 2s2.7-.4 2.7-1.6v-3.7c0-.7-1.2-1.6-2.7-1.9-1.5-.4-2.7 0-2.7.6z"/><path class="st15" d="M299.3 328.6c-1.1-.3-1.9-1-1.2-1.6.6-.6 4 .4 3.9 1.2s-1.3.8-2.7.4z"/><path class="st5" d="M282.4 318.2s1-5 1-6.1.5-5.5 3.4-6.4c2.9-1 5.7-.2 5.7 3.1 0 3.3 1.3 7.2.3 7.4-1 .2-3.3-.2-3.3-.2l-.7 5-6.4-2.8z"/><path class="st15" d="M289.5 314s-2.9.7-2.7-1.6c.1-2.3 2.3-1.8 2.3-1.8s.4-3.9 3.4-2.7c0 0 5.8-3 3.7-3.6-2.1-.5-5.6-.8-5.6-.8s4.9-1.8 2.1-2c-2.8-.2-4.4 1.1-7.5.8-3.1-.3-5.4 1.6-5.1 4.7.3 3.1.8 6.2 0 6.9-.9.7-2.2 1.8-.5 1.8 1.7.1 2.9-.5 2.9-.5s0 .6-1.1.8c-1.1.4 1 3 8.1-2z"/><path class="st24" d="M277.2 345.2s3.3 8.5 14.5 2.9c0 0 .2-20.6 0-23.2-.2-2.6-.2-3.4-3.5-5.4-3.3-2-6.2-2.5-8.5-1.5-2.4 1-3.2 4.1-2.9 10.2.2 6.1.4 17 .4 17z"/><path d="M276.8 324.5c.5 3.4.6 6.9.7 10.3.1 3.4.1 6.9-.3 10.4-.5-3.4-.6-6.9-.7-10.3-.1-3.5 0-6.9.3-10.4z" fill="#c67b17"/><path class="st5" d="M291.8 332.2s4.8 9.2 5.4 10.3c.6 1.1 4.5-2.4 6.1-4.5 1.6-2 3.4-4.6 1.9-7.4-1.5-2.8-4.1-1.3-3.3.7.9 2 .6 2.7-.2 3.6-.8.9-2.6 2.6-2.6 2.6l-4-7.5-3.3 2.2z"/><path class="st24" d="M289.9 322.1c-1.3.5-2.5 4.1 1.9 10.9 0 0 2.3-.2 4.2-3 0 0-3.3-9-6.1-7.9z"/><path d="M520.6 257.9c7.8 2.3 13.2 7.2 12.1 10.8-1.1 3.7-8.3 4.7-16.1 2.4-7.8-2.3-13.2-7.2-12.1-10.8 1.1-3.7 8.3-4.8 16.1-2.4z" opacity=".8" fill="#ffe9e3"/><path class="st16" d="M508 220s2.6.9 4.5.9c0 0 2.1-10.4.5-11.2-1.6-.8-2.9.3-3.8 4-1 3.7-1.2 6.3-1.2 6.3z"/><path class="st8" d="M500.6 218.3s-1.2-2.4-2.9-.8c-1.7 1.6-.7 4.8 1 4.4 0 0 8.2 3.7 11.5 4s2.3-2.9 1.8-4.5l-3.9-1c-.1 0-1.5 1.2-7.5-2.1z"/><path d="M500.7 220.4c-.3.1-.6.1-1 .1-.2 0-.4-.1-.5-.2-.2-.1-.3-.5-.2-.6 0-.4.3-.8.7-.9.4-.1.7-.1 1-.1l-.2.1s0-.2-.1-.3c0-.1-.1-.3-.2-.4l-.4-.8.6.6c.1.1.2.2.2.4 0 .1.1.1.1.2s.1.1 0 .3v.1h-.1c-.3 0-.6.1-.9.2-.3.1-.4.2-.5.5v.3c.1.1.2.1.3.2.5.2.8.3 1.2.3z" fill="#a0432a"/><path class="st22" d="M508 221.1l3.7.8c.5.1.9-.2 1.1-.6.2-.5-.1-1-.6-1.2l-3.6-1.1c-.5-.2-1 .1-1.2.6l-.1.4c-.1.5.2 1 .7 1.1z"/><path class="st13" d="M508 264.3c-1.1-.1.1-2.8 3.3-6.7l3.4-.3s.5 3.3-.1 3.8c-.6.6-1-1-1-1s-3.9 4.4-5.6 4.2z"/><path class="st8" d="M512.4 246.6s-.9 10.6-1.1 11.1c-.2.5-2.6 3.7-1.2 3.5 1.4-.2 4.5-2.9 4.5-2.9l1.4-10.8-3.6-.9z"/><path class="st13" d="M530.6 269.5c1.1-.1-.1-2.8-3.3-6.7l-3.4-.3s-.5 3.3.1 3.8c.6.6 1-1 1-1s3.9 4.3 5.6 4.2z"/><path class="st8" d="M526.3 245.2s.7 17.1.9 17.6c.2.5 2.6 3.7 1.2 3.5-1.4-.2-4.5-2.9-4.5-2.9l-1.2-17.3 3.6-.9z"/><path class="st30" d="M511.9 246.6c0 .4 8.4 5.6 16 0 0 0-.3-13.4-1.6-16.9-1.3-3.5-2.3-4.6-2.3-4.6l-10.3 2.4s-2.4 6.4-1.8 19.1z"/><path class="st16" d="M513.7 227.5s6 .5 10.3-2.4c0 0 .3-11.4 0-13-.3-1.6-4.6-2.9-7.6-3-3-.2-4.6 1.3-5 3-.4 1.8-1.5 6.6-.5 8 1 1.5 2.8 5 3 5.7.1.7-.2 1.7-.2 1.7z"/><path class="st25" d="M516.3 209c-.9 0-1.9.1-2.8.5-.8.4-1.5 1-1.9 1.9-.2.4-.2.9-.4 1.3l-.3 1.4c-.2.9-.3 1.9-.4 2.8-.1.9-.1 1.9.2 2.7.4.8 1 1.6 1.4 2.4.4.8.9 1.7 1.3 2.6.2.4.4.9.4 1.4 0 .5-.1 1-.3 1.4.1-.5.2-.9.1-1.4 0-.5-.3-.9-.5-1.3-.4-.8-.9-1.7-1.4-2.5l-.7-1.2-.4-.6c-.1-.2-.3-.4-.4-.7-.3-1-.3-2-.2-2.9.1-1 .2-1.9.4-2.8l.3-1.4c.1-.5.2-.9.4-1.4.4-.9 1.2-1.6 2.1-2 1.2-.2 2.2-.3 3.1-.2z"/><path class="st22" d="M517.2 216.7l-3.6-3.3 2.7-4.3s3.3.7 3.4 1.5c.2.8-2.5 6.1-2.5 6.1z"/><path class="st22" d="M510.5 216.3l3.1-2.9V209c.1 0-5.1.5-3.1 7.3z"/><path class="st25" d="M513.7 213.4c-.2 1.3-.4 2.5-.5 3.7-.1.6-.1 1.2-.1 1.9v.9c0 .3.1.5.3.8.6 1.1 1.5 2 2.1 3.1.3.6.6 1.1.8 1.8.2.6.2 1.3.1 1.9 0-1.3-.5-2.4-1.2-3.5-.7-1-1.5-2-2.2-3.1-.2-.3-.3-.6-.3-1v-1c0-.6.1-1.3.2-1.9.1-1.2.4-2.4.8-3.6z"/><path class="st38" d="M524.6 226s-3.7 3.8-11.3 3c0 0-1.5-1.8.6-3.1 0 0 2.1 2.3 10.1-1.3 0-.1.5-.1.6 1.4z"/><path class="st8" d="M513.7 213.4s2.7-1.3 2.7-2.8V207l-3.8.4c-.1-.1-.2 3.8 1.1 6z"/><path class="st45" d="M510.3 198.7s-1.2-1.4-3.6 0c-2.4 1.4-.7 8.1 3 6.5l.6-6.5z"/><path class="st20" d="M513 207.4c-.2-.2-3.7.1-4.6-3.1-1-3.2 0-8.5 6.4-8 0 0 1.9-2 4.1-.6 2.3 1.4 1 6.9 1 6.9l-6.9 4.8z"/><path class="st8" d="M511.8 204.6c-1.1 1 .2 4.6 2.6 3.7 0 0 2.1 1.2 4.4.7 2.3-.6 2.2-2 2-4.3-.2-2.3-.9-4.8-4.7-5 0 0 .4 4-2.2 5.1 0-.1-1.2-1-2.1-.2z"/><path class="st16" d="M510.3 211.6v-4.1s9.4-.3 11.6 1c2.2 1.3 2.1 4.1 1.9 5-.2 1-4.6-.8-6.7-1.2-2.1-.5-6.8-.7-6.8-.7z"/><path class="st25" d="M520.9 213.3l-2.6-.7c-.9-.2-1.7-.4-2.6-.4-1.8-.2-3.6-.3-5.3-.4h-.2v-4.5h.2c2 0 3.9 0 5.9.1 1 .1 2 .1 2.9.3 1 .2 2 .3 2.8.8-.9-.4-1.9-.5-2.8-.6-1-.1-1.9-.1-2.9-.2h-5.9l.2-.2v4.1l-.2-.2c1.8.1 3.6.2 5.3.5.9.1 1.8.3 2.6.6l2.6.8z"/><path class="st8" d="M509.2 207.8s-9.1-.3-11.7-.3c-2.6 0-5.4 1.2-6.9 2.3-1.5 1.1-.8 2.5 2.4 2.3 3.2-.2 4.1-1.1 4.1-1.1l12.2-.2v-3z"/><path class="st22" d="M508.6 208l.4 3.7c0 .5.5.8.9.8.5 0 .9-.4.9-.9v-3.8c0-.5-.4-.9-1-.9h-.4c-.5 0-.9.5-.8 1.1z"/><ellipse transform="rotate(-68.415 600.734 317.047)" cx="600.8" cy="317.1" rx="23.2" ry="51.6" opacity=".5" fill="#fed22c"/><path class="st45" d="M567.9 306.8s4.3 3.5 4.2 4.1c-.1.7-1.2 2-3 1.8-1.8-.2-4.4-2.2-4.3-3s.1-2.3.1-2.3l3-.6zm8.9-4.8s4.3 3.5 4.2 4.1c-.1.7-1.2 2-3 1.8-1.8-.2-4.4-2.2-4.3-3 0-.7.1-2.3.1-2.3l3-.6z"/><path class="st13" d="M565.9 274.6s-.1 23.9-1.8 33.6c0 0 2.7.5 5.1-.8 0 0 3.6-15.3 3.8-28.5 0 0 1 0 1.4-.2 0 0-.5 18.9-1.4 25 0 0 3.3-.2 4.5-1.7 0 0 2.8-15.9 3.1-27.4-.1 0-9.8-3.2-14.7 0z"/><path class="st38" d="M575.1 247.1s3.3-.3 5.4 5.6c2.2 5.9 3.7 15.3 3.7 15.3l-5.3 1.5-3.8-22.4z"/><path class="st38" d="M565.4 274.4s8.1 3 15.2.2c0 0-1.2-16.8-1.4-20.2-.2-3.4-2.7-7.1-4-7.3-1.4-.2-4.2-.2-6 .2-1.8.4-5.3.7-5.1 3.4.2 2.6 2 16.5 1.3 23.7z"/><path class="st13" d="M565.4 274.4c2.5.8 5 1.2 7.6 1.2 1.3 0 2.6-.1 3.8-.3 1.3-.2 2.5-.6 3.7-1l-.1.2c-.3-3.4-.5-6.7-.7-10.1-.2-3.4-.4-6.7-.5-10.1.3 3.4.6 6.7.9 10.1.2 3.4.5 6.7.7 10.1v.2l-.1.1c-1.2.4-2.5.8-3.8 1-1.3.2-2.6.3-3.9.2-2.6-.1-5.2-.7-7.6-1.6z"/><path class="st13" d="M572.1 250.9c.6 2 1 4.1 1.3 6.2.3 2.1.4 4.2.6 6.3.1 2.1.1 4.2.1 6.3l-.1 3.1-.2 3.1v-6.3c0-2.1-.1-4.2-.2-6.3-.1-2.1-.2-4.2-.5-6.2-.1-1-.2-2.1-.4-3.1-.2-1.1-.4-2.1-.6-3.1z"/><path class="st7" d="M575.4 270.1l7.8-4.4-.9 6.7z"/><path class="st25" d="M581.9 263.5l9.6-5.4v8.5l-9.2 5.8z"/><path class="st2" d="M588 265.7c-1.4.6-1.4 1.4-1.3 2.6.1 1.2-.5 2.4.7 2.1 1.2-.2 2.3-1.4 2.3-2.7-.1-1.2.2-2.8-1.7-2z"/><path class="st16" d="M572.1 250.9l-1 3s-4-4.3-4.2-5.9c-.2-1.6 1.1-2.3 2-2.1.9.2 3.2 5 3.2 5zm2 1.7l-2-1.8s-1.7-4.5-1-5 1.7.1 2.5 1.4c.7 1.3.5 5.4.5 5.4z"/><path class="st2" d="M572.1 250.9s-4.1-3.6-4-4.1c.1-.5 0-3.8 0-3.8s.4-6.5 1.3-7c1-.5 6.7-.9 6.7 1.6s.3 7.6-.5 8c-.8.3-3 .2-3.7-.2l.4 1.8c-.1 0 .2 2.7-.2 3.7z"/><path class="st20" d="M568.7 240.7s1.2-2.1 1.3-3.7c0 0 6.4 2.8 8.9-2.4 0 0-1.6.2-2.8-.9-1.2-1.1-6.3-4.5-8.8-.3 0 0-1.7-.2-1.8 1.9-.1 2.1-.1 5.2 1 6.2l2.2-.8z"/><path class="st16" d="M572.7 244c-1.7-.4-1.5-1.7-.9-2.3.7-.7 1.3 1 2.2 1.2 1 .1 1 1.6-1.3 1.1z"/><path class="st2" d="M568 242.9s-2.3-1-1.9-2.5c.4-1.6 1.6-1.2 2.3-.2.8 1.1-.4 2.7-.4 2.7z"/><path class="st38" d="M565.9 248.7c-.9-.6-3.4 1.3-4.9 13.7-.2 2.1-1.1 2.8-1.7 2-1-1.6-2.1-5.2-2.1-5.2s-2.5 2-3 3.7c0 0 2.9 5.8 4.6 7.6 1.8 2 4.9 0 5.8-2.2 2.9-7.1 2.2-19 1.3-19.6z"/><path class="st13" d="M561 262.4c-.1.7-.2 1.5-.7 2.1-.1.1-.3.3-.5.2-.2 0-.4-.2-.5-.3-.2-.3-.4-.6-.6-1-.7-1.4-1.2-2.8-1.6-4.2l.3.1c-.6.5-1.2 1.1-1.7 1.7-.5.6-1 1.2-1.2 2v-.1c1.1 2 2.2 4.1 3.4 6 .6.9 1.3 2 2.3 2.2 1 .2 2.2-.3 3-1 .4-.4.8-.8 1-1.3.3-.5.5-1 .6-1.6.4-1.1.7-2.2.9-3.3.5-2.3.7-4.6.9-6.9 0 2.3-.2 4.6-.6 6.9-.2 1.1-.5 2.3-.8 3.4-.2.6-.4 1.1-.6 1.6-.3.5-.7 1-1.1 1.4-.9.8-2.1 1.4-3.3 1.2-.6-.1-1.2-.5-1.6-1-.4-.4-.7-.9-1.1-1.4-1.3-2-2.4-4-3.4-6.1v-.2c.3-.8.8-1.5 1.3-2.1.5-.6 1.1-1.2 1.8-1.7l.2-.2.1.2c.4 1.4.9 2.8 1.5 4.2.1.3.3.7.5 1 .1.1.2.3.4.3s.3-.1.5-.2c.4-.4.5-1.2.6-1.9z"/><path class="st2" d="M553.9 256c-.1.1-4.9-1.1-5.1 1.3-.3 2.4 2.8 2.9 4.2 2.5l1.4 2.6 2.5-3.6-1.3-2.5s-.3-2.7-.9-2.4c-.7.3-.4 1.1-.8 2.1z"/><path class="st16" d="M557.1 258.5s-3.8 3.8-3.4 4.4c.4.6.7 2 1.3 1.4.6-.6 3.2-4 3-4.5-.2-.4-.4-1.8-.9-1.3z"/><path fill="#dd9385" d="M586.2 283.5l18.4-9.7 30.8 17.6-19.6 10.6z"/><path class="st48" d="M586.2 283.5v3.4l28.1 18.7v22l1.5 1.3V302z"/><path fill="#aa5f48" d="M615.8 328.9V302l19.6-10.6v27.2l-2.7 1.9V297l-14.6 8.6v22z"/><path class="st48" d="M630.8 319.6l1.9.9V297l-1.9 1.1z"/><path class="st13" d="M625.2 289.7l1.1-1.3v-15.2l-1.1.5z"/><path class="st30" d="M597.2 287.4l6.8-4.5 14 8.5-7.6 5.3z"/><path class="st13" d="M618 293.6v-2.2l-7.6 5.3z"/><path class="st30" d="M612.1 287.5c-2.5-1.6-2.4-2.7-1.6-3.3.9-.6 2.5-.3 4.3.8 1.8 1.1 4.1 3.5 3.1 4.1-1 .6-3.5-.1-5.8-1.6z"/><path class="st38" d="M613.1 282.3v2.8c0 .8 2 2.5 2 .8v-3.3l-2-.3z"/><path class="st30" d="M605 278.3v-16.6l20.2 12v16z"/><path fill="#380d8c" d="M606.2 277.5v-13.6l17.7 10.5v13.1z"/><path class="st38" d="M605 261.7l20.2 12 1.1-.5-19.4-11.7z"/><path class="st3" d="M609.5 247.1v4.2l5.6 3.1V250z"/><path class="st36" d="M605.9 241.5v2.3l3.6 2.2v-2.6z"/><path class="st0" d="M602.4 255.8V249l9 5.1v7.1z"/><path class="st4" d="M613.3 256.9v3.7l5 3.1v-4.2z"/><path class="st7" d="M617.3 252.4v3.7l5.1 3.1V255z"/><path class="st20" d="M595.3 318s-.6 1.7.4 2.2c1 .5 3.6-.2 5.4-1.2 1.8-1 2.3-1.8.4-1.8-2-.1-3.4 0-3.4 0l-2.8.8z"/><path class="st30" d="M599.4 301.3l.1 16.1s-1.3 1.8-4.2 1.2l.3-11.8-2.2-2 6-3.5z"/><path class="st20" d="M600.4 320.5s-.6 1.7.4 2.2c1 .5 3.6-.2 5.4-1.2 1.8-1 2.3-1.8.4-1.8-2-.1-3.4 0-3.4 0l-2.8.8z"/><path class="st38" d="M604.7 303.6l-.1 16.5s-1.3 1.8-4.2 1.2l.3-11.8-2.2-2 6.2-3.9z"/><path d="M582.7 320.4c0 1-.8 1.7-1.7 1.7-1 0-1.7-.8-1.7-1.7 0-1 .8-1.7 1.7-1.7.9-.1 1.7.7 1.7 1.7zm.7 7.2c0 1-.8 1.7-1.7 1.7-1 0-1.7-.8-1.7-1.7 0-1 .8-1.7 1.7-1.7.9 0 1.7.7 1.7 1.7zm12.4 0c0 1-.8 1.7-1.7 1.7-1 0-1.7-.8-1.7-1.7 0-1 .8-1.7 1.7-1.7.9 0 1.7.7 1.7 1.7zm1.1-7.1c0 1-.8 1.7-1.7 1.7-1 0-1.7-.8-1.7-1.7 0-1 .8-1.7 1.7-1.7.9 0 1.7.8 1.7 1.7z" fill="#126d9b"/><path class="st25" d="M586.2 314.6v7.6c0 1.1 1.1 1.8 1.9 2 .8.1 1.8-.7 1.8-2.1v-6.8l-3.7-.7z"/><path class="st25" d="M586.7 321.5s-5.5 3.3-6.1 3.8c-.6.6 1 2.9 3.1 1.7s4.4-3.4 4.4-3.4l-1.4-2.1z"/><path class="st25" d="M587.3 320.6s-3.6-2.8-5-2.9c-1.4-.1-2.8 1.6-1.3 2.3 1.5.7 5.4 3 5.4 3l.9-2.4zm1.2-.2s3.8-2.1 5-2.4c1.2-.3 4 .4 1.6 2-2.4 1.5-6.1 3.4-6.1 3.4l-.5-3z"/><path class="st25" d="M588.5 324.2s4 2.9 5.8 2.9c1.7-.1 2.8-1.2 1.1-2.2-1.6-1-5.2-2.8-5.2-2.8l-1.7 2.1z"/><path class="st22" d="M590.4 317c-1.8.1-10-4.2-11.9-5.2-1.8-.9-.8-5-.8-5l22.9 2.2s.1 2.1 0 2.9-6.3 4.8-10.2 5.1z"/><path class="st26" d="M577.8 306.8c1.2-1 8-3.9 9.2-4.3 1.2-.4 9.9 3.4 12.3 5 2.4 1.6 1.7 1.7-.7 2.9s-5.9 4.3-9.2 3c-3.3-1.5-12.9-5.6-11.6-6.6z"/><path class="st30" d="M589.9 303.6s6.8-4.2 7.8-4.2 1.9.2 1.7 3l-7.7 4.4-1.8-3.2z"/><path class="st2" d="M600.1 291.4s1.6-1.1 2.6-1.1 2.3.5 2.3 0-1.4-.6-1.6-1.1c-.2-.4 1.5-.6 2.3-.6.8.1 1.1-.9-1-1.7-2-.8-6.2 1.6-6.2 1.6l1.6 2.9zm-11-10.3v-4.4l4 1.9v2.9z"/><path class="st2" d="M589.4 274.4s.2 1.3 1.1 3.1c0 0 1.9 3.1 4.6 2.4 2.7-.8 2.9-2.2 2.2-4.8-.7-2.6-1.3-5.9-3.1-5.9s-5.3 1.1-4.8 5.2z"/><path class="st13" d="M589.4 274.4s1.7-1.4 1.7-3.6c0 0 3 .8 5.9-.7 0 0-.5-.8-1.2-.9 0 0 2 0 3.4-.5 0 0-1.8-1.3-4.4-.9 0 0 2.5-1.5 3-3.9 0 0-3.7 2.5-5.2 2.5s-5.3-.8-6.2.5c0 0-1.3.4-.9 4.1.4 3.7 2.5 6.5 2.5 6.5l.8-.3.6-2.8z"/><path class="st2" d="M590.5 277.5s-1.3.5-2.3-1.1c-1-1.6-.1-3 1.2-1.9 1.3.9 1.1 3 1.1 3z"/><path class="st16" d="M595 276.2c-1-.5-2.1-.1-1.8.9.2 1 1.7 1.7 2.9 1.2s1.1-2.1.5-2c-.6.2-1 .2-1.6-.1z"/><path class="st21" d="M582.4 302.9c0 1.1 2.7 3.9 7.9 3.9 5.2-.1 6.6-1.8 6.8-2.9.1-1.1 0-12 0-14.6 0-2.7-.5-5.6-2.4-7.5-1.8-1.9-5.7-3.2-8.1-1.3-3 2.4-4.5 7.3-4.5 13.7.1 6.2.3 7.6.3 8.7z"/><path class="st21" d="M592.3 287.9c2.2 3.8 7.3 11.8 8.4 11.5 1.1-.3 3.8-2.3 3.8-2.3s-.5-2.7-1.3-3.2l-.8.2s-4.6-7.3-6.1-9.9c-1.5-2.5-6.2-.1-4 3.7z"/><path class="st52" d="M595.8 293.6c1.2 1.6 2.4 3.3 3.7 4.8.3.3.7.8 1.1.9 0 0 .2 0 .3-.1.1 0 .2-.1.3-.1.2-.1.4-.2.7-.4.9-.5 1.7-1.1 2.5-1.7l-.1.2c-.1-.6-.3-1.1-.4-1.7-.1-.3-.2-.5-.3-.8-.1-.2-.3-.5-.4-.6h.2l-.8.2h-.1l-.1-.1c-1-1.7-2-3.3-3-5-1-1.7-2-3.3-2.9-5 1.1 1.6 2.2 3.2 3.2 4.9 1.1 1.6 2.1 3.3 3.1 4.9l-.2-.1.8-.2h.2c.3.2.5.5.6.8.1.3.3.6.3.8.2.6.3 1.1.4 1.7v.1l-.1.1c-.8.6-1.7 1.2-2.6 1.7-.2.1-.5.3-.7.4-.1.1-.2.1-.4.2-.1 0-.2.1-.5.1-.6-.2-.9-.7-1.3-1-1.3-1.6-2.4-3.3-3.5-5z"/><path class="st38" d="M582.7 303.6s-.5 4.1 2.2 5.8c2.8 1.7 7.8 1.6 11.7-.4 3.9-2 7.5-4.1 7.9-5 .4-.9 0-2.7-1.9-3-1.9-.3-7.1 3.5-8.2 3.9-1.1.4-11.7-1.3-11.7-1.3z"/><path class="st2" d="M603.3 294s3.2-1.2 3.9-2c.7-.8 1.1-2.1 1.4-1.8.4.3-.4 1.5-.2 1.9.2.4 1.4-.7 1.9-1.4s1.4-.2.7 1.8c-.7 2.1-6.5 4.5-6.5 4.5l-1.2-3z"/><path class="st52" d="M602.7 293.5l1.9 4.3 1-.5-1.4-4.9z"/><path class="st7" d="M579 287c-.9-.4-3.7 1.3-3.7 2.4l12.9 17.1s3.2-1.3 3.7-2 1.1-7.9 0-9.8c-1.1-1.8-9.2-6.2-12.9-7.7z"/><path class="st22" d="M575.4 289.4c0 1.1.5 9.3.8 10.4.2 1.1 10.1 6 11.4 6.6 1.3.6 1.5-1.6 1.5-4.8-.1-3.2 1-5.3-2.3-7.2s-11.5-6.1-11.4-5z"/><path class="st25" d="M581.7 316.1c-1-.6-1-2.1-1.1-5-.1-2.9-.4-14.1-.4-15.4s2.6-.8 2.8 1c.2 1.8.4 16.1.4 17.6-.1 1.4-1.1 2.2-1.7 1.8z"/><path class="st5" d="M633.5 268.3l-.3-3.1s-2.8 1.2-2.7.3.3-8.3 1-8.9c.7-.7 5.2-1.5 5.9 2 .7 3.5.3 8.1.3 8.1l-4.2 1.6z"/><path class="st16" d="M631.3 262.8c-.2.1-.5.2-.8.3 0 .5-.1 1-.1 1.4 2-.6 1.6-2.1.9-1.7z"/><path class="st13" d="M627.2 328.9c-2.8-1.4-3.4-2-2.4-2.4.9-.5 4.5-1.1 4.5-1.1s3.4.5 3.4 1.7c0 1.1.7 3.3-.9 3.1-1.7-.3-2.9-.5-4.6-1.3zm11.1-7.1s-4-.2-3.7.5c.2.7 2.4 2.6 4.3 3.4 1.9.8 2.9.8 3 0 .1-.8 0-2.7 0-2.7l-3.6-1.2z"/><path class="st28" d="M627.9 325.6s2.3 2.3 4.8 1.4l.8-26.8s2-.1 3.5-1.2c0 0 .5 19.6.8 23.2 0 0 2 1.7 4.2 1.1 0 0-1.2-12.5-.9-18.1.3-5.6.5-12.9.5-12.9l-12.7 3c-.1.1-1.3 23-1 30.3z"/><path class="st3" d="M628.8 295.4s8.4 3.3 13-2.7c0 0 2.3-15.9 2.7-19.6.4-3.6-2-7-5.4-7.3-3.5-.2-8.1 3.2-8.9 6.1-.8 3.1-1.7 16.1-1.4 23.5z"/><path class="st23" d="M634.5 263.9s1.1-1 .5-2.5c-.6-1.5-1.8-.9-2.1.1l-.2-3.7s-1.5 2.4-2.3 2.2c-.8-.2.1-1.7.1-1.7s-2.3.3-.5-1.2c0 0-3-.1-.8-1.4 2.2-1.4 3.3-1.2 3.3-1.2s-.8-1.5.2-1.7c1-.2 2.7 1 2.7 1s6.2-1.1 4.2.7c0 0 4.7 1.1 2 2.1 0 0 4.8 2.7.8 2.9 0 0 .7 4.2-1.1 2.3 0 0 .8 4.9-.8 2.7 0 0 0 3.4-1.4 1.2 0 0-.4 3.3-1.5 1.1 0 0-2.2 1.1-1.4-1.7 0-.2-3 .9-1.7-1.2z"/><path class="st5" d="M616.4 276s.1-3-.7-2.8c-.7.2-.7 1.8-.7 1.8s-1.8-.3-2 .7c-.3 1 .1 3.2 1.2 2.8 0 0 6.5 7.2 8.1 8.1 1.6.9 2.8-1.8 2.8-1.8l-2.4-3.3s-1.3.3-3.7-2.2c-2.3-2.6-2.6-3.3-2.6-3.3z"/><path class="st3" d="M622.8 281.4s-.1 3.5 1.2 5.5c0 0 7-6 8.8-8.5 1.8-2.5 1.1-6.8 0-7.8s-1.6-1-4.6 3.1c-3 4.2-5.4 7.7-5.4 7.7z"/><path class="st12" d="M628.1 273.8c-.9 1.3-1.7 2.6-2.6 3.9-.9 1.3-1.7 2.6-2.6 3.9v-.1c0 .9.1 1.9.3 2.8.2.9.4 1.8.9 2.6l-.3-.1c1.5-1.3 3.1-2.7 4.6-4 .8-.7 1.5-1.4 2.2-2.1.7-.7 1.5-1.4 2.1-2.2-1.2 1.7-2.6 3.1-4.1 4.5-1.5 1.4-3 2.8-4.5 4.1l-.2.2-.1-.2c-.5-.9-.8-1.8-.9-2.8-.2-1-.2-1.9-.2-2.9v-.1c.9-1.3 1.8-2.5 2.7-3.8.8-1.2 1.8-2.5 2.7-3.7z"/><path d="M623.2 280.8l-1.4.3s-.3 4.5.7 6.8c0 0 1.9.4 2.3-1.9l-1.6-5.2z" fill="#ff65a7"/></svg>