<svg xmlns="http://www.w3.org/2000/svg" viewBox="0 0 307.9 372.4"><style>.st0{fill:#e1faff}.st1{fill:#41378c}.st2{fill:#fce3c3}.st3{fill:#edcdab}.st4{fill:#fff}.st6{fill:#263364}.st7{fill:#afe6ff}.st8{fill:#5d4658}.st9{fill:#ff9e7f}.st11{fill:#b4b6bb}.st12{fill:#a5a5b5}.st13{fill:#fcccab}.st14{fill:#e87d09}.st15{fill:#fa870a}.st18{fill:#05cdff}.st19{fill:#a0ebff}.st21{fill:#6e64c3}.st22{fill:#c8e6eb}.st23{fill:#dafffb}.st24{fill:#97f4ec}.st25{fill:#ffd23c}.st26{fill:#ffe65a}.st27{fill:#2896ff}.st29{fill:#6ee1ff}.st30{fill:#3c82af}.st31{fill:#b6fff6}.st32{fill:#32285f}.st33{fill:#ff640a}.st34{fill:#827ddc}.st38{fill:#9e693e}.st39{fill:#1c9585}.st41{fill:#39ae96}.st42{fill:#fa503c}.st44{fill:#fa735f}.st45{fill:#ffc305}.st48{fill:#ffdc8c}.st49{fill:#46738c}.st51{fill:#41b4e6}.st52{fill:#4d4677}</style><g id="OBJECTS"><path class="st0" d="M254.6 294.4c18.2-10.5 18.1-36.8-.1-47.2l-5.4-3.1c-23.3-13.4-52-13.3-75.3.2l-94.9 55c-18.2 10.5-18.1 36.8.1 47.2l5.3 3.1c23.3 13.4 52 13.3 75.3-.2l95-55z"/><path class="st0" d="M274.9 199.7c.8-17.8 12.1-26.8 21.9-41.7 24.7-37.4 4.9-89.7-28.3-94.7-33.8-5-14.3-54.5-70-61.9C117.8-9.2 69.7 40.2 57.3 95.3c-8.6 38-2.4 45.5-28.1 65.3-55.4 42.6-16.4 128.8 31.8 137.9 60.4 11.5 29.4 7.5 88.1-7.9 38.8-10.2 74.3 8.8 103.3-16.7 28.9-25.4 21.7-56.4 22.5-74.2z"/><path class="st1" d="M226.5 90.2c-1.4 13.7-6.7 50.5-5.5 56.5 1.4 6.9 19.2 39.9 46.2 39.6 12.9-.1 21.2-10.3 21.2-21.5 0-8.7.5-28.4.7-38.9.2-10.6.4-36.4-8.6-43.3-13-10-24.6-11.9-29.9-12.4-7.9-.7-22.1.8-24.1 20z"/><path class="st2" d="M234.2 77c-7.6 4.3-15.1 16.3-17.3 34.5l-16.8 21 8.9 4.5s16.5-15.9 18.9-19.7c2.6-4 6.3-40.3 6.3-40.3z"/><path class="st3" d="M225 113.9c1.4-.2 2.4 1.4 3.6 2.1 2.4-7.5 5.7-39 5.7-39-7.2 4.1-14.4 15.2-16.9 32 .7 1.8 5.8 5.2 7.6 4.9z"/><path class="st4" d="M229.7 110.8c2.2-11.5 4.5-33.8 4.5-33.8-6.7 3.9-14.8 12.8-18.1 27.6 3.9 5.7 8.8 5.9 13.6 6.2z"/><path d="M244.8 77.1l24 13.4c3.2 1.8 5.1 5.1 5.2 8.8.2 21.4-1 18.9-2.4 53.6-.1 2.3-1.4 4.3-3.4 5.3-3.9 1.9-11 4.4-19.1 3.7-7.7-.7-21.8-8.4-30-16-1.5-1.4-2.3-3.4-2.2-5.4.6-10 8.5-18.5 7.9-44.9-.2-4.2 5.1-25.8 20-18.5z" fill="#ff3c3c"/><ellipse class="st4" cx="249.3" cy="87.5" rx="9.4" ry="5.7"/><path class="st3" d="M244.5 89.4c3.5 2.1 6.8 1.6 10.1-.4 1-.6 1.6-1.7 1.6-2.9V69.8l-13.7 2.9v13c0 1.5.8 2.9 2 3.7z"/><path class="st2" d="M243.8 87c3.3-.4 7.7-3.5 11.1-6.4.7-.6 6-6.8 6-10.1 0-8.1-6.6-13-13.4-13-4.3 0-8.7.6-11 4.2-.9 1.4-1 5.4-.9 7.6.1 1.3.8 18.6 8.2 17.7z"/><path class="st6" d="M263.9 55.6c-4.3-8.8-15.1-9.5-23-5.5-6.2 3.1-18.6 8.7-5.4 18.7 6 4.6 18.3-3.8 18.3-3.8-1.5 1.4-1.2 5.7 1.5 8.2l3.5-2.7-.9 4.2c-2.9 3.1-1.7 8.5-1.7 8.5 0-2.4 5.7-7.8 7.1-11.1 1.5-3.2 3.7-10.1.6-16.5z"/><path class="st3" d="M255.3 73.2c0 2.3.4 4.2 1.9 4.2 1.4 0 3.2-3.1 3.2-5.4s-.4-3.2-1.9-3.2c-1.5.1-3.2 2.1-3.2 4.4z"/><path class="st2" d="M254.9 72.2c0 2.3.4 4.2 1.9 4.2 1.4 0 3.6-2.8 3.6-5.1s-.8-3.5-2.3-3.5-3.2 2.1-3.2 4.4z"/><path class="st7" d="M132.9 295.5c2.3-1.3 2.7-3.9 1.2-5l-21-11.1-5.7 1.6c-1.8 1.1-.8 3.9.5 4.9 3.7 3 12.5 8.2 12.5 8.2 6.3 3.7 9.8 3 12.5 1.4z"/><path class="st4" d="M133.4 294c.8-.6 1.6-2.9.1-4l-20-12-6.2 3.1c-.8 1-.5 3.6.9 4.4 0 0 7 5.2 14.6 8.8 4.8 2.2 7.9 1.8 10.6-.3z"/><path class="st8" d="M133.8 290.3c-.7-3.1-3.4-4.6-8-8-4.1-3.1-6.4-6.3-7.7-8.8-3.3.5-6.5 1.1-9.7 2v.3c0 .5-1 1-1.1 1.4-.2 2.9-.3 4.5.4 5.9 1.6 3.1 15.6 10.2 18.6 11.2 3.1 1.2 8.2-.9 7.5-4z"/><path class="st9" d="M110.6 279.3c1.3.6 2.3 1.1 2.3 0 0-.2-.2-1.4-.1-1.7.2-1.1.7-1.5 1.7-1.7 1.9-.4 2.8-.4 4.6-.6-2.4-3.7-2.6-6.6-2.6-6.6l-9-3.7c.6 4.1.7 9 .4 12.5 0 .1 1.6 1.2 2.7 1.8z"/><path class="st7" d="M109.4 310.8c1.5-1.1 2.2-3.4.6-4.4l-20.3-10.9c-.2-.1-.4-.1-.6 0l-5.5 1c-1.9.9-1.5 4.3.1 5.7 2.9 2.5 6.5 5.8 14.2 9.2 3.9 1.6 8 2 11.5-.6z"/><path class="st4" d="M109.4 310c1.6-.9 1.9-3.1.3-4.1l-20-12.1c-.2-.1-.4-.1-.6 0l-5.2 2.5c-1.9.9-1.8 3.7-.2 5.1 2.9 2.5 6.6 5.6 14.3 9 3.9 1.5 7.3 1.9 11.4-.4z"/><path class="st8" d="M109.9 306.7c-.2-.7-1.4-2.8-3.8-4.8-1.4-1.1-2.9-2.3-4.6-3.5-3.6-2.5-6-5.7-7.7-8.8-2.2.4-4.5.4-6.7.8-1 .2-2 .3-3 .5v.3c0 .4-1 1-1 1.4-.2 3.1-.3 5.2.4 6.7 1.6 3.1 13.6 10.1 16.7 10.9 4.8 1.3 10.4-.4 9.7-3.5z"/><path class="st9" d="M83.6 293.2c1.5.9 2.6 1.9 4.4 2.3 0-1.3-.7-1.6.1-2.8 1.1-1.8 5.3-2.7 6.4-1.9-3.5-5.8-4.2-11.4-4.2-11.4l-7.1 1.8c.6 3.9.7 8.5.4 12z"/><path fill="#2979ff" d="M104.1 188.8l19.9-39.9-36.2 6.3z"/><path class="st11" d="M104.3 149.7c-2.8 8.9.4 67.6 1.5 77.8 1 10.2 13.1-5.8 16.5-10.4 3.4-4.5 6.7-46.8 4.5-64.3-2.2-16.7-17.6-18.6-22.5-3.1z"/><path class="st12" d="M119.7 165.7s-.3-18.4-.6-25.7c-5.3-2.4-11.9.7-14.7 9.8-1.9 6.1-1 40 .4 61.3.7-8 1.2-11 2.6-13.1 3-4.2 4.9-9.1 6-14.1 0-.1 1.3-15.6 6.3-18.2z"/><path class="st11" d="M126.2 192.3s-8 58-7.9 76c-3.4 2.6-9.6 2.9-11.4 1.1-.6-5.4-2.8-35.8-1.5-43.7 1.8-10.3 5.5-21.1 5.5-21.1l15.3-12.3zm-28.5 19.9c-4 61.1-5.9 57.8-4.2 70.4-2.2 4.6-10.8 3.2-12.8 1-.5-.5-4.3-39.8-2.5-47.2 1.8-7.8 8.1-17.8 8.1-17.8l11.4-6.4z"/><path class="st11" d="M81.8 155.9c-3.3 8.7-4.5 71.9-4.2 82.1.3 10.2 17.1 2.2 17.9-3.3 5.1-36.2 14.6-55.8 11.7-72.3-2.9-16.6-19.6-21.7-25.4-6.5z"/><path class="st11" d="M105.6 187.1l3.9-2.7c1.6-1.1 2.8-2.8 3.2-4.7l.9-4.2c.7-3.2-.7-6.4-3.3-8.2l-3.5-2.4-1.2 22.2z"/><path class="st13" d="M142.6 111.4l-19.3-39.7c-6.5-9.8-17 6.1-9.7 15 6.9 11.9 13.8 22.3 24.3 34 2.3-4.5 1.7-5.2 4.7-9.3z"/><path class="st13" d="M169.9 94.9L139 108.1c-1 4.9-1.1 7-1.4 11.9.3.1.6.3 1 .4 9.9-3.4 22.5-11.9 35.5-21l-4.2-4.5z"/><path class="st12" d="M80.3 149.6c.2 5.1.3 10.6.6 16.8 0 0 9.2 6.7 20.8 5.5 7.8-.8 17.6-3.8 25.7-13.2 0 0-2.7-3.2-3-8.8l-44.1-.3z"/><path class="st14" d="M111.7 84.9l6.4 9.1c1.3-1.1 2.6-2.1 3.9-3l9-5.7c.2-.2.3-.4.5-.6l-9.2-14.8c-.8-1.4-1.2.3-2.1 1.6-2.9 4.4-5.6 9-8.5 13.4z"/><path class="st4" d="M117.1 94.4l1.8 2.7c.3.3.7.4 1.2.1 2.3-1.1 9.3-4.8 13.5-11.1.2-.4.2-.8 0-1.1l-1.6-2.7c-.4-.4-1.1-.4-1.6.1-2.1 2.1-7.6 7.6-12.9 10.4-.6.5-.8 1.2-.4 1.6z"/><path class="st15" d="M107.1 64.5c-15.8 4.3-24.5 15-27.9 20.3-1.2 1.8-1.8 3.8-2.1 5.9-2.9 28.6 1.3 51.3 1.7 69.1.1 2.3 1.4 4.3 3.5 5.3 3.9 1.9 11 4.5 19.2 3.7 3.8-.3 8.1-1.2 12.4-2.8 1-.4 4.1-1.8 4.6-2.1 2.8-1.5 5.6-3.4 8.3-5.9 1.5-1.4.1-3.5 0-5.5-.6-10-1-39.1-.4-65.6 0-4.1-.6-27.4-19.3-22.4z"/><path class="st13" d="M168.7 96.2s6-6 8.5-6.9c1.8-.6 6.6-2.7 8.2-.7 1.5 1.9 1.9 9.7-.8 11.8-2.2 1.8-12.2-.1-12.2-.1l-3.7-4.1z"/><path class="st12" d="M94.2 169.9s-2.3 11.4-12.7 15.4l1.9-1.7c2.6-2.3 4.1-5.7 4-9.2l-.1-5.7 6.9 1.2z"/><path d="M93.6 282c-3.6 2.8-9.5 2.7-12.9 1.2-.6-.3-1.3.1-1.3.8-.4 4.9.6 9.1.8 9.3 2.6 2.8 12.4 2.9 15.2-2.9-.4-3-.6-5.5-.7-8-.1-.5-.7-.7-1.1-.4z" fill="#efefef"/><path class="st11" d="M118.3 261.7c-3.4 2.8-9 2.7-12.2 1.2-.6-.3-1.2.1-1.3.8-.4 4.9.6 9.1.7 9.3 2.5 2.8 11.8 2.9 14.4-2.9-.4-3-.6-5.5-.7-8 .1-.4-.5-.7-.9-.4z"/><path class="st3" d="M107.5 75.4c-3.6 2.1-7.1 1.7-10.4-.4-1-.6-1.7-1.7-1.7-3V55l14.2 3v13.5c0 1.7-.8 3.1-2.1 3.9z"/><path class="st2" d="M111.3 69.4c-3.4.1-8.4-3.4-12-6.4-.8-.7-.3-6.2-1.1-6.8-3.2-2.5-7.7-.2-7.7-3.7 0-8.4 6.8-13.4 13.9-13.4 4.4 0 9 .7 11.3 4.4.9 1.4 1.9 4.8 1.8 7.1.1 1.3-1.2 18.8-6.2 18.8z"/><path d="M102.5 47.5s2.3 3.5 6.4 3.5c12 0 15.4-9.6 12.3-14.2-3.4-5-6.5-1-10.4-2.9-5.1-2.5-17.7-4.6-22.1 4.6-3.2 6.6-2.2 12.5-.8 15.7 1.5 3.4 7.4 9 7.4 11.5l1.5-5 .2-4.9 2.6-.7c1.6-.3 2.7-1.7 2.7-3.3l.2-4.3z" fill="#965028"/><path class="st3" d="M101.1 55.2c0 2.4-.5 4.4-2 4.4-1.6 0-3.4-3.2-3.4-5.6 0-2.4.5-3.3 2-3.3s3.4 2.1 3.4 4.5z"/><path class="st2" d="M101.5 54.2c0 2.4-.5 4.4-2 4.4-1.6 0-3.8-2.9-3.8-5.3s.9-3.6 2.5-3.6c1.5 0 3.3 2 3.3 4.5z"/><path class="st18" d="M176 163.7l-4.9-2.6v94.5l4.9 2.6z"/><path class="st19" d="M176 163.7l4.8-2.6v94.4l-4.8 2.7z"/><path class="st18" d="M241.3 201.1l-5-2.7v94.5l5 2.7z"/><path class="st19" d="M241.3 201.1l4.7-2.7v94.5l-4.7 2.7z"/><path class="st18" d="M66.8 226.1l-4.8-2.7v94.5l4.8 2.7z"/><path class="st19" d="M66.8 226.1l4.9-2.7v94.4l-4.9 2.8z"/><path class="st18" d="M132.1 263.4l-5-2.7v94.5l5 2.7z"/><path class="st19" d="M132.1 263.4l4.8-2.7v94.5l-4.8 2.7z"/><path class="st19" d="M254.4 197.1c18.2-10.5 18.1-36.8-.1-47.2l-5.4-3.1c-23.3-13.4-52-13.3-75.3.2l-114 64c-18.2 10.5-18.1 36.8.1 47.2l5.3 3.1c23.3 13.4 52 13.3 75.3-.2l114.1-64z"/><path class="st4" d="M254.4 191.3c18.2-10.5 18.1-36.8-.1-47.2l-5.4-3.1c-23.3-13.4-52-13.3-75.3.2L67.3 202.6c-18.2 10.5-25.7 39.4-7.5 49.8l5.3 3.1c23.3 13.4 52 13.3 75.3-.2l114-64z"/><path class="st21" d="M291.8 146.4c3-1.6 6.9-2.9 5-5.8-1.8-2.7-6.4-3.9-10.8-3.3-5.2.7-24.7 14.3-26.7 16.9-2.1 2.5-1.5 5.9.7 7.3s4.6 1.2 7.4 0c2.7-1.2 20.4-13 24.4-15.1z"/><path class="st1" d="M291.8 144.4c3-1.6 6.9-2.9 5-5.8-1.8-2.7-6.4-3.9-10.8-3.3-5.2.7-24.7 14.3-26.7 16.9-2.1 2.5-1.5 5.9.7 7.3 2.2 1.3 4.6 1.2 7.4 0 2.7-1.2 20.4-13 24.4-15.1z"/><path class="st2" d="M202.6 129.5l-12.5 10.7 1.5 5.2s21.3-10.2 25.7-16.6l-14.7.7z"/><path class="st19" d="M234.6 176.1L193.4 153l64.2 7.3v1.9z"/><path class="st18" d="M234.6 174.2l-41.2-23.1 23.1-13.9 41.1 23.1z"/><path class="st2" d="M263.2 121.2c.5 7.9 1.9 16.5 3.6 19.6l12 2.3c.6-7.9-.4-17.3-.9-23.4l-14.7 1.5z"/><path class="st3" d="M278.4 125.8c-.2-2.2-.4-4.3-.5-6l-14.7 1.5c.1 1.5.2 3 .4 4.6 5.4 1.8 10.5 2.3 14.8-.1z"/><path class="st2" d="M236.6 148.5s-6.9-3-7.9-3-1.8.7-1.8.7-.3.2.1.4 2.8 1.3 2.8 1.3c-.3 1.5-6 .2-6 .2s1.5 6.2 2 6.8c.5.6 4.8 1 5.8.7 3.3-.8 4.7-1 4.7-1l.3-6.1z"/><path class="st2" d="M270.9 135.2s-30.5 13.1-36.3 13.7c-1.5 2.1-1.1 3.4.2 5.6 0 0 27.1 1.8 43.9-11.4l-7.8-7.9z"/><path class="st19" d="M235.7 174.7l-1.1 1.4-51-53.3 1.1-1.5 41.2 23.1z"/><path class="st6" d="M234.6 176.1L193.4 153l-9.8-30.3 41.1 23z"/><path class="st2" d="M186.5 135.1s4.2.7 5.6 2.9l.6 1.2c1 2.7.3 5.8-1.6 7.9l-.9 1s-2.5-1.8-3.3-3.8c-.7-1.9-2.1-9.5-.4-9.2z"/><path class="st4" d="M262.4 121.9c5.6 3 11.2 2.9 16.6 0-.7-9.2-2.3-16.8-4.4-24-1.2-4.3-5.4-5.3-9.5-3.3-2.4 1.2-3.7 3.8-3.3 6.5 0-.1-.1 10.4.6 20.8zm.1-.6c9.4 5.1 15 .9 16.6 0"/><path class="st22" d="M173.1 164.6l-7.3-4-8.3 3.9s6.1 3.6 6.7 3.9c2.4 1.1 6.1 1.3 9.5-.5.6-.3 1.1-.8 1.1-1.3-.1-.7-.7-1.4-1.7-2z"/><path class="st23" d="M170.6 143.9h-17l2.6 19.1c.2 1.5 2.7 2.7 5.8 2.7 3.1 0 5.6-1.2 5.9-2.7l2.7-19.1z"/><ellipse class="st4" cx="162" cy="143.9" rx="8.5" ry="4.2"/><ellipse class="st24" cx="162" cy="143.9" rx="7.1" ry="3"/><path class="st25" d="M156 153.8l1.1 8.1c0 1.3 2.2 2.4 5 2.4 2.7 0 5-1.1 5-2.4l1.1-8.1H156z"/><path class="st26" d="M168.1 153.8c0 1.7-2.7 3-6.1 3-3.4 0-6.1-1.3-6.1-3s2.7-3 6.1-3c3.4 0 6.1 1.4 6.1 3z"/><ellipse class="st4" cx="139.4" cy="226.7" rx="7.5" ry="3.7"/><path class="st4" d="M145.7 226.6v.1c0 1-2.5 2.5-6.3 2.5-3.9 0-6.3-1.5-6.3-2.5v-.1H132v.1c0 2 3.3 3.7 7.5 3.7 4.1 0 7.5-1.6 7.5-3.7v-.1h-1.3z"/><path class="st27" d="M125.5 167.2l-21.9 12.5v1.3c0 .4.2.8.6 1l30.5 17.9c.4.2.8.2 1.2 0l21.5-13.1c.3-.2.5-.6.5-.9v-1.5l-31.2-17.2c-.4-.2-.9-.2-1.2 0z"/><path class="st6" d="M125.5 165.8l-21.4 12.9c-.7.4-.7 1.5 0 2l30.5 17.9c.4.2.8.2 1.2 0l21.5-13.1c.7-.5.7-1.5 0-2l-30.6-17.7c-.4-.2-.9-.2-1.2 0z"/><path class="st4" d="M126.5 169.1l-17 10.3c-.6.4-.6 1.2 0 1.6l24.2 14.2c.3.2.6.2.9 0l17.1-10.4c.6-.4.6-1.2 0-1.6l-24.4-14.1c-.1-.1-.5-.1-.8 0z"/><path fill="#5acbe5" d="M128.2 172l-4.2 12.1-9.3-4.1z"/><path class="st29" d="M128.2 172l12.3 10.5-25.8-2.5z"/><path class="st26" d="M133.4 184.6c-2.2 0-4 1.2-4 2.7 0 1.5 1.8 2.7 4 2.7s4-1.2 4-2.7c0-1.5-1.8-2.7-4-2.7z"/><circle class="st6" cx="38.2" cy="193.6" r="2"/><circle class="st6" cx="38.2" cy="188.2" r="4.5"/><circle class="st6" cx="38.2" cy="180.7" r="5.8"/><path class="st6" d="M47.5 172.8c0 3.1-2.5 5.6-5.6 5.6-3.1 0-5.6-2.5-5.6-5.6s2.5-5.6 5.6-5.6c3.1 0 5.6 2.5 5.6 5.6z"/><path class="st6" d="M53.2 169.3c0 2.1-1.7 3.9-3.9 3.9-2.1 0-3.9-1.7-3.9-3.9 0-2.1 1.7-3.9 3.9-3.9 2.1 0 3.9 1.7 3.9 3.9zm7.6 4.6c0 1.7 1.4 3.1 3.1 3.1 1.7 0 3.1-1.4 3.1-3.1 0-1.7-1.4-3.1-3.1-3.1-1.7-.1-3.1 1.3-3.1 3.1z"/><path class="st6" d="M61.8 177.2c0 1.7 1.4 3.1 3.1 3.1 1.7 0 3.1-1.4 3.1-3.1s-1.4-3.1-3.1-3.1c-1.7 0-3.1 1.4-3.1 3.1z"/><circle class="st6" cx="60.6" cy="171.6" r="2.9"/><circle class="st6" cx="65.8" cy="180.6" r="2.9"/><path class="st6" d="M50.8 170.7c0 2.6 2.1 4.7 4.7 4.7s4.7-2.1 4.7-4.7-2.1-4.7-4.7-4.7-4.7 2.1-4.7 4.7z"/><circle class="st6" cx="46.6" cy="168.1" r="2.5"/><path class="st6" d="M56 167.6c0 1.5-1.2 2.7-2.7 2.7-1.5 0-2.7-1.2-2.7-2.7 0-1.5 1.2-2.7 2.7-2.7 1.5 0 2.7 1.2 2.7 2.7zm-17.1 7.7c0 1.2-1 2.1-2.1 2.1s-2.1-1-2.1-2.1c0-1.2 1-2.1 2.1-2.1s2.1.9 2.1 2.1z"/><path class="st19" d="M81.7 213.9l41.3 24.2-29.1 17-41.3-24.3z"/><path class="st30" d="M121.2 236.3v1.5L93.4 254l-39.8-23.5v-1.4z"/><path class="st18" d="M93.4 252.5v1.5l-39.8-23.5v-1.4z"/><path class="st29" d="M81.4 212.8l39.8 23.5-27.8 16.2-39.8-23.4z"/><path class="st18" d="M80.9 214.9l36.7 21.7-14.7 8.6-36.7-21.7zm-3.5 16.5l13.7 8.1-8.9 5.2-13.7-8.1z"/><path class="st29" d="M81.6 237.2h.1l-6.1 3.6-.2-.1z"/><path class="st31" d="M81.4 179.5l1.2-.4v-6.6l-1.2.7z"/><path class="st31" d="M82.6 172.5v39.6l39.7 23.4v-39.7z"/><path class="st30" d="M121.2 196.5v39.7l1.1-.7v-39.7z"/><path class="st32" d="M81.4 173.2v39.6l39.8 23.4v-39.7z"/><path class="st4" d="M82.5 212.5l36.8 21.4c.5.3 1-.1 1-.6v-34c0-.2-.1-.5-.3-.6l-36.8-21.5c-.5-.3-1 .1-1 .6v34c0 .4.1.6.3.7z"/><path class="st33" d="M111.6 196.6l5.5 3.2c.2.1.3.3.3.5v1.9c0 .4-.5.7-.9.5l-5.4-3.2c-.2-.1-.3-.3-.3-.4V197c.1-.3.5-.6.8-.4zm-1.5-.6v2.1c0 .4-.4.6-.8.4l-5.9-3.4c-.2-.1-.3-.3-.3-.4v-2.1c0-.4.4-.6.8-.4l5.9 3.5c.2 0 .3.2.3.3zm-7.9-4.5v2.2c0 .4-.4.6-.7.4l-7.8-4.6c-.2-.1-.3-.3-.3-.5v-2.2c0-.4.4-.6.7-.4l7.8 4.6c.2.1.3.3.3.5z"/><path class="st34" d="M85.3 189.1l31.3 18.2c.4.2.9-.1.9-.5v-1.9c0-.2-.1-.4-.3-.5l-31.3-18.3c-.4-.2-.9.1-.9.5v2c0 .2.1.4.3.5z"/><path d="M85.3 193.6l31.3 18.2c.4.2.9-.1.9-.5v-1.9c0-.2-.1-.4-.3-.5l-31.3-18.3c-.4-.2-.9.1-.9.5v2c0 .2.1.4.3.5z" fill="#13e275"/><path class="st25" d="M109.7 209l7.5 4.4c.2.1.3.3.3.5v1.9c0 .4-.5.7-.9.5l-7.3-4.2c-.3-.2-.4-.4-.4-.7v-1.8c-.1-.5.4-.8.8-.6zm-23.8-13.9l21.8 12.7c.3.2.4.4.4.7v1.9c0 .4-.4.7-.8.5l-22-12.8c-.2-.1-.3-.3-.3-.5v-2c0-.4.5-.7.9-.5z"/><path class="st29" d="M85.3 202.6l31.3 18.2c.4.2.9-.1.9-.5v-1.9c0-.2-.1-.4-.3-.5l-31.3-18.3c-.4-.2-.9.1-.9.5v2c0 .2.1.4.3.5z"/><path class="st34" d="M92.7 208.5c0-.2.2-.3.4-.2l24 14.1c.2.1.3.3.3.5v1.9c0 .4-.5.7-.9.5l-23.4-13.7c-.3-.2-.4-.4-.4-.8v-2.3zm-6.8-4.4l5.7 3.3c.3.2.4.5.4.8v2.1c0 .3-.3.5-.6.4l-6.1-3.5c-.2-.1-.3-.3-.3-.5v-2c0-.5.5-.8.9-.6z"/><path class="st29" d="M85.3 211.7l31.3 18.2c.4.2.9-.1.9-.5v-1.9c0-.2-.1-.4-.3-.5l-31.3-18.3c-.4-.2-.9.1-.9.5v2c0 .2.1.3.3.5z"/><path d="M101.3 185.8c-.1-.1-.2 0-.2.3 0 .2.1.5.2.6.1.1.2 0 .2-.3.1-.3 0-.5-.2-.6z" fill="#4b6ebc"/><path d="M102.7 242.2l-1.3.7c-.2.1-.2.4 0 .5l1.3.8c.2.1.3.1.5 0l1.2-.7c.2-.1.2-.4 0-.5l-1.3-.8c-.1-.1-.2-.1-.4 0zm-2.8-1.6l-1.3.7c-.2.1-.2.4 0 .5l1.3.8c.2.1.3.1.5 0l1.2-.7c.2-.1.2-.4 0-.5l-1.3-.8c0-.1-.2-.1-.4 0zm-2.7-1.7l-1.3.7c-.2.1-.2.4 0 .5l1.3.8c.2.1.3.1.5 0l1.2-.7c.2-.1.2-.4 0-.5l-1.3-.8h-.4zm-19.4-11.4l-1.3.7c-.2.1-.2.4 0 .5l1.3.8c.2.1.3.1.5 0l1.2-.7c.2-.1.2-.4 0-.5l-1.3-.8c-.1-.1-.3-.1-.4 0zm-2.8-1.6l-1.3.7c-.2.1-.2.4 0 .5l1.3.8c.2.1.3.1.5 0l1.2-.7c.2-.1.2-.4 0-.5l-1.3-.8c-.1-.1-.3-.1-.4 0zm-2.8-1.6l-1.2.7c-.2.1-.2.4 0 .5l1.3.8c.2.1.3.1.5 0l1.2-.7c.2-.1.2-.4 0-.5l-1.3-.8c-.2-.1-.3-.1-.5 0zm-2.8-1.7l-1.3.7c-.2.1-.2.4 0 .5l1.3.8c.2.1.3.1.5 0l1.2-.7c.2-.1.2-.4 0-.5l-1.3-.8c0-.1-.2-.1-.4 0zm10.7 6.5l-1.3.7c-.2.1-.2.4 0 .5l15.6 9c.2.1.3.1.5 0l1.2-.7c.2-.1.2-.4 0-.5l-15.6-9c-.1 0-.3-.1-.4 0zm25.4 11.4l-1.3.7c-.2.1-.2.4 0 .5l1.3.8c.2.1.3.1.5 0l1.2-.7c.2-.1.2-.4 0-.5l-1.3-.8c-.1-.1-.3-.1-.4 0zm-2.8-1.6l-1.3.7c-.2.1-.2.4 0 .5l1.3.8c.2.1.3.1.5 0l1.2-.7c.2-.1.2-.4 0-.5l-1.3-.8c-.1-.1-.2-.1-.4 0zm-2.8-1.7l-1.3.7c-.2.1-.2.4 0 .5l1.3.8c.2.1.3.1.5 0l1.2-.7c.2-.1.2-.4 0-.5l-1.3-.8h-.4zm-2.7-1.6l-1.3.7c-.2.1-.2.4 0 .5l1.3.8c.2.1.3.1.5 0l1.2-.7c.2-.1.2-.4 0-.5l-1.3-.8c-.1-.1-.3-.1-.4 0zm-2.8-1.6l-1.3.7c-.2.1-.2.4 0 .5l1.3.8c.2.1.3.1.5 0l1.2-.7c.2-.1.2-.4 0-.5l-1.3-.8c-.1-.1-.3-.1-.4 0zm-2.8-1.7l-1.3.7c-.2.1-.2.4 0 .5l1.3.8c.2.1.3.1.5 0l1.2-.7c.2-.1.2-.4 0-.5l-1.3-.8h-.4zm-2.8-1.6l-1.3.7c-.2.1-.2.4 0 .5l1.3.8c.2.1.3.1.5 0l1.2-.7c.2-.1.2-.4 0-.5l-1.3-.8c0-.1-.2-.1-.4 0zm-2.7-1.6l-1.3.7c-.2.1-.2.4 0 .5l1.3.8c.2.1.3.1.5 0l1.2-.7c.2-.1.2-.4 0-.5l-1.3-.8c-.1-.1-.3-.1-.4 0zm-2.8-1.7l-1.3.7c-.2.1-.2.4 0 .5l1.3.8c.2.1.3.1.5 0l1.2-.7c.2-.1.2-.4 0-.5l-1.3-.8h-.4zm-2.8-1.6l-1.3.7c-.2.1-.2.4 0 .5l1.3.8c.2.1.3.1.5 0l1.2-.7c.2-.1.2-.4 0-.5l-1.3-.8c0-.1-.2-.1-.4 0zm-2.7-1.6l-1.3.7c-.2.1-.2.4 0 .5l1.3.8c.2.1.3.1.5 0l1.2-.7c.2-.1.2-.4 0-.5l-1.3-.8c-.1-.1-.3-.1-.4 0zm-2.8-1.6l-1.3.7c-.2.1-.2.4 0 .5l1.3.8c.2.1.3.1.5 0l1.2-.7c.2-.1.2-.4 0-.5l-1.3-.8c-.1-.1-.3-.1-.4 0zm-2.8-1.7l-1.3.7c-.2.1-.2.4 0 .5l1.3.8c.2.1.3.1.5 0l1.2-.7c.2-.1.2-.4 0-.5l-1.3-.8c-.1-.1-.2-.1-.4 0zm36.1 17.9l-1.3.7c-.2.1-.2.4 0 .5l1.3.8c.2.1.3.1.5 0l1.2-.7c.2-.1.2-.4 0-.5l-1.3-.8c-.1-.1-.3-.1-.4 0zm-2.8-1.6l-1.3.7c-.2.1-.2.4 0 .5l1.3.8c.2.1.3.1.5 0l1.2-.7c.2-.1.2-.4 0-.5l-1.3-.8c-.1-.1-.3-.1-.4 0zm-2.8-1.7l-1.3.7c-.2.1-.2.4 0 .5l1.3.8c.2.1.3.1.5 0l1.2-.7c.2-.1.2-.4 0-.5l-1.3-.8c-.1 0-.2-.1-.4 0zm-2.8-1.6l-1.3.7c-.2.1-.2.4 0 .5l1.3.8c.2.1.3.1.5 0l1.2-.7c.2-.1.2-.4 0-.5l-1.3-.8c0-.1-.2-.1-.4 0zm-2.7-1.6l-1.3.7c-.2.1-.2.4 0 .5l1.3.8c.2.1.3.1.5 0l1.2-.7c.2-.1.2-.4 0-.5l-1.3-.8c-.1-.1-.3-.1-.4 0zm-2.8-1.7l-1.3.7c-.2.1-.2.4 0 .5l1.3.8c.2.1.3.1.5 0l1.2-.7c.2-.1.2-.4 0-.5l-1.3-.8h-.4zm-2.8-1.6l-1.3.7c-.2.1-.2.4 0 .5l1.3.8c.2.1.3.1.5 0l1.2-.7c.2-.1.2-.4 0-.5L92 229c0-.1-.2-.1-.4 0zm-2.8-1.6l-1.3.7c-.2.1-.2.4 0 .5l1.3.8c.2.1.3.1.5 0l1.2-.7c.2-.1.2-.4 0-.5l-1.3-.8c0-.1-.2-.1-.4 0zm-2.7-1.7l-1.3.7c-.2.1-.2.4 0 .5l1.3.8c.2.1.3.1.5 0l1.2-.7c.2-.1.2-.4 0-.5l-1.3-.8h-.4zm-2.8-1.6l-1.3.7c-.2.1-.2.4 0 .5l1.3.8c.2.1.3.1.5 0l1.2-.7c.2-.1.2-.4 0-.5l-1.3-.8c-.1-.1-.2-.1-.4 0zm-2.8-1.6l-1.3.7c-.2.1-.2.4 0 .5l1.3.8c.2.1.3.1.5 0l1.2-.7c.2-.1.2-.4 0-.5l-1.3-.8c0-.1-.2-.1-.4 0zm-2.7-1.7l-1.3.7c-.2.1-.2.4 0 .5l1.3.8c.2.1.3.1.5 0l1.2-.7c.2-.1.2-.4 0-.5l-1.3-.8h-.4zm-2.8-1.6l-1.3.7c-.2.1-.2.4 0 .5l1.3.8c.2.1.3.1.5 0l1.2-.7c.2-.1.2-.4 0-.5l-1.3-.8c-.1-.1-.3-.1-.4 0zm36 17.9l-1.3.7c-.2.1-.2.4 0 .5l1.3.8c.2.1.3.1.5 0l1.2-.7c.2-.1.2-.4 0-.5l-1.3-.8c0-.1-.2-.1-.4 0zm-2.7-1.6l-1.3.7c-.2.1-.2.4 0 .5l1.3.8c.2.1.3.1.5 0l1.2-.7c.2-.1.2-.4 0-.5l-1.3-.8c-.1-.1-.3-.1-.4 0zm-2.8-1.7l-1.3.7c-.2.1-.2.4 0 .5l1.3.8c.2.1.3.1.5 0l1.2-.7c.2-.1.2-.4 0-.5l-1.3-.8c-.1-.1-.3-.1-.4 0zm-2.8-1.6l-1.3.7c-.2.1-.2.4 0 .5l1.3.8c.2.1.3.1.5 0l1.2-.7c.2-.1.2-.4 0-.5l-1.3-.8c-.1-.1-.2-.1-.4 0zm-2.8-1.6l-1.3.7c-.2.1-.2.4 0 .5l1.3.8c.2.1.3.1.5 0l1.2-.7c.2-.1.2-.4 0-.5l-1.3-.8c0-.1-.2-.1-.4 0zm-2.7-1.7l-1.3.7c-.2.1-.2.4 0 .5l1.3.8c.2.1.3.1.5 0l1.2-.7c.2-.1.2-.4 0-.5l-1.3-.8c-.1 0-.3-.1-.4 0zm-2.8-1.6l-1.3.7c-.2.1-.2.4 0 .5l1.3.8c.2.1.3.1.5 0l1.2-.7c.2-.1.2-.4 0-.5l-1.3-.8c-.1-.1-.3-.1-.4 0zm-2.8-1.6l-1.3.7c-.2.1-.2.4 0 .5l1.3.8c.2.1.3.1.5 0l1.2-.7c.2-.1.2-.4 0-.5l-1.3-.8c0-.1-.2-.1-.4 0zm-2.8-1.7l-1.3.7c-.2.1-.2.4 0 .5l1.3.8c.2.1.3.1.5 0l1.2-.7c.2-.1.2-.4 0-.5l-1.3-.8h-.4zm-2.7-1.6l-1.3.7c-.2.1-.2.4 0 .5l1.3.8c.2.1.3.1.5 0l1.2-.7c.2-.1.2-.4 0-.5l-1.3-.8c-.1-.1-.3-.1-.4 0zm-2.8-1.6l-1.3.7c-.2.1-.2.4 0 .5l1.3.8c.2.1.3.1.5 0l1.2-.7c.2-.1.2-.4 0-.5l-1.3-.8c-.1-.1-.2-.1-.4 0zm-2.8-1.7l-1.3.7c-.2.1-.2.4 0 .5l1.3.8c.2.1.3.1.5 0l1.2-.7c.2-.1.2-.4 0-.5l-1.3-.8h-.4zm-2.7-1.6l-1.3.7c-.2.1-.2.4 0 .5l1.3.8c.2.1.3.1.5 0l1.2-.7c.2-.1.2-.4 0-.5l-1.3-.8c-.1-.1-.3-.1-.4 0zm36 18l-1.3.7c-.2.1-.2.4 0 .5l1.3.8c.2.1.3.1.5 0l1.2-.7c.2-.1.2-.4 0-.5l-1.3-.8c-.1 0-.3-.1-.4 0zm-2.8-1.6l-1.3.7c-.2.1-.2.4 0 .5l1.3.8c.2.1.3.1.5 0l1.2-.7c.2-.1.2-.4 0-.5l-1.3-.8c0-.1-.2-.1-.4 0zm-2.7-1.6l-1.3.7c-.2.1-.2.4 0 .5l1.3.8c.2.1.3.1.5 0l1.2-.7c.2-.1.2-.4 0-.5l-1.3-.8c-.1-.1-.3-.1-.4 0zm-2.8-1.7l-1.3.7c-.2.1-.2.4 0 .5l1.3.8c.2.1.3.1.5 0l1.2-.7c.2-.1.2-.4 0-.5l-1.3-.8h-.4zm-2.8-1.6l-1.3.7c-.2.1-.2.4 0 .5l1.3.8c.2.1.3.1.5 0l1.2-.7c.2-.1.2-.4 0-.5l-1.3-.8c-.1-.1-.2-.1-.4 0zm-2.8-1.6l-1.3.7c-.2.1-.2.4 0 .5l1.3.8c.2.1.3.1.5 0l1.2-.7c.2-.1.2-.4 0-.5l-1.3-.8c0-.1-.2-.1-.4 0zm-2.7-1.7l-1.3.7c-.2.1-.2.4 0 .5l1.3.8c.2.1.3.1.5 0l1.3-.7c.2-.1.2-.4 0-.5l-1.3-.8h-.5zm-2.8-1.6l-1.3.7c-.2.1-.2.4 0 .5l1.3.8c.2.1.3.1.5 0l1.2-.7c.2-.1.2-.4 0-.5l-1.3-.8c-.1-.1-.3-.1-.4 0zm-2.8-1.6l-1.3.7c-.2.1-.2.4 0 .5l1.3.8c.2.1.3.1.5 0l1.2-.7c.2-.1.2-.4 0-.5l-1.3-.8c0-.1-.2-.1-.4 0zm-2.8-1.7l-1.3.7c-.2.1-.2.4 0 .5l1.3.8c.2.1.3.1.5 0l1.2-.7c.2-.1.2-.4 0-.5l-1.3-.8h-.4zm-2.7-1.6l-1.3.7c-.2.1-.2.4 0 .5l1.3.8c.2.1.3.1.5 0l1.2-.7c.2-.1.2-.4 0-.5l-1.3-.8c-.1-.1-.3-.1-.4 0zm-2.8-1.6l-1.3.7c-.2.1-.2.4 0 .5l1.3.8c.2.1.3.1.5 0l1.2-.7c.2-.1.2-.4 0-.5l-1.3-.8c-.1-.1-.2-.1-.4 0zm-2.8-1.6l-1.3.7c-.2.1-.2.4 0 .5l1.3.8c.2.1.3.1.5 0l1.2-.7c.2-.1.2-.4 0-.5L81 216c-.1-.1-.3-.1-.5 0z" fill="#3c5064"/><path class="st38" d="M49.8 222.8s23.9-12 28.9-14.1c.5-4 1.4-8.9 2.8-10.1l.3 6.9c.1 1.1.3 1.7 1.5 1.8 1 .1 1.4-.8 3.1-1 .5 1.7-4.2 5.6-4.2 5.6S70 225.3 51.6 233l-1.8-10.2z"/><path class="st39" d="M52.7 217.9c7.4-3 16.3-7.3 23.1-8.7.6-.1 1.1 0 1.6.2 1.9 1.1 3.4 2.7 4 4.4.3.9.1 2-.6 2.7-2.3 2.4-8.9 8.7-17.4 13.4-6.8 3.8-14.9-3.3-11.8-10.5.3-.8.7-1.3 1.1-1.5z"/><ellipse class="st0" cx="49.8" cy="354.5" rx="32.9" ry="17.9"/><path class="st6" d="M63.9 338.1c2-1.1 3.5-.3 3.5 2 0 2.2-1.6 4.9-3.5 6-2 1.1-3.5.3-3.5-2 0-2.1 1.6-4.8 3.5-6z"/><path class="st6" d="M64.5 348.1c-2.1-.2-3.1-1.1-3.5-2l5-8.4c1.1.3 3.1 1.2 3.7 2.5l-5.2 7.9z"/><path class="st6" d="M66.4 339.6c2-1.1 3.5-.3 3.5 2 0 2.2-1.6 4.9-3.5 6-2 1.1-3.5.3-3.5-2 0-2.2 1.6-4.9 3.5-6z"/><path class="st4" d="M66.4 340.6c1.5-.8 2.6-.2 2.6 1.5 0 1.6-1.2 3.7-2.6 4.5-1.5.8-2.6.2-2.6-1.5 0-1.6 1.2-3.6 2.6-4.5z"/><path class="st6" d="M26.3 337.6c-2-1.1-3.5-.3-3.5 2 0 2.2 1.6 4.9 3.5 6 2 1.1 3.5.3 3.5-2 0-2.2-1.6-4.9-3.5-6z"/><path class="st6" d="M25.7 347.5c2.1-.2 3.1-1.1 3.5-2l-5-8.4c-1.1.3-3.1 1.2-3.7 2.5l5.2 7.9z"/><path class="st6" d="M23.8 339c-2-1.1-3.5-.3-3.5 2 0 2.2 1.6 4.9 3.5 6 2 1.1 3.5.3 3.5-2 0-2.1-1.6-4.8-3.5-6z"/><path class="st4" d="M23.8 340.3c-1.4-.8-2.5-.2-2.5 1.4 0 1.5 1.1 3.4 2.5 4.2 1.4.8 2.5.2 2.5-1.4-.1-1.6-1.2-3.5-2.5-4.2z"/><path class="st6" d="M70.7 362.1c-2-1.1-3.5-.3-3.5 2 0 2.2 1.6 4.9 3.5 6 2 1.1 3.5.3 3.5-2 0-2.1-1.6-4.8-3.5-6z"/><path class="st6" d="M70 372.1c2.1-.2 3.1-1.1 3.5-2l-5-8.4c-1.1.3-3.1 1.2-3.7 2.5l5.2 7.9z"/><path class="st6" d="M68.1 363.6c-2-1.1-3.5-.3-3.5 2 0 2.2 1.6 4.9 3.5 6 2 1.1 3.5.3 3.5-2 .1-2.2-1.5-4.9-3.5-6z"/><path class="st4" d="M68.1 364.8c-1.3-.8-2.4-.2-2.4 1.3s1.1 3.4 2.4 4.2c1.3.8 2.4.2 2.4-1.3.1-1.5-1-3.4-2.4-4.2z"/><path class="st6" d="M22.4 359.3c2-1.1 3.5-.3 3.5 2 0 2.2-1.6 4.9-3.5 6-2 1.1-3.5.3-3.5-2 0-2.2 1.6-4.9 3.5-6z"/><path class="st6" d="M23 369.2c-2.1-.2-3.1-1.1-3.5-2l5-8.4c1.1.3 3.1 1.2 3.7 2.5l-5.2 7.9z"/><path class="st6" d="M24.9 360.7c2-1.1 3.5-.3 3.5 2 0 2.2-1.6 4.9-3.5 6-2 1.1-3.5.3-3.5-2 0-2.1 1.6-4.8 3.5-6z"/><path class="st4" d="M24.9 361.8c1.4-.8 2.6-.2 2.6 1.4 0 1.6-1.2 3.6-2.6 4.4-1.4.8-2.6.2-2.6-1.4.1-1.6 1.2-3.6 2.6-4.4z"/><path class="st38" d="M39.7 212.4c3.3 3.1 7.1 3.3 11 1.7 1.2-.5 2.2-1.6 2.4-2.9l3.6-18.6-15.5.4-2.9 14.8c-.3 1.7.2 3.4 1.4 4.6z"/><path class="st38" d="M65.4 193.5c-1.8 9.2-4.8 15.5-10.3 14.6-5.4-.8-.7-11.2-3.9-15.2-.7-.9-6.8-1.1-7.6-2-2.9-3.4 2.7-18.9 10.5-17.4 4.8.9 9.7 2.7 11.5 7.2.7 1.8 0 11.6-.2 12.8z"/><path class="st6" d="M63.1 187c-2.4.6-3.1 6.6-3.3 8.4 0 0-1.2.5-1.6-1.7-.4-2.2-2.8-5.6-3.7-2.6-.9 3-3.2 9.4-4.6 11.3-.9 1.2-4.2 2.4-8.5.6-2.8-1.2-4.4-4.3-3.6-7.3 1.5-6.1-3.2-12.3 3.5-22.9 2.6-4.1 12.8-6 19.7.3 1.6 1.1 12.5 11.1 2.1 13.9z"/><path d="M57.3 194.6c-.7 2.6-1.8 4.6-3.5 4.2-1.7-.4-2.8-4.4-2.1-7 .7-2.6 1.5-3.4 3.1-3 1.8.4 3.2 3.2 2.5 5.8z" fill="#845430"/><path class="st38" d="M58.1 193.6c-.7 2.6-1.8 4.6-3.5 4.2-1.7-.4-3.3-4.2-2.6-6.8.7-2.6 2-3.7 3.7-3.2 1.6.4 3 3.2 2.4 5.8z"/><path class="st7" d="M93.9 357.1c-1.3-.7-1.5-2.4-.2-3.3l15.8-9.6c.1-.1.3-.1.5 0l4.1 2c1.5.7 1.4 2.9.2 4-1.5 1.2-4.1 4-11.3 7.1-3.2 1.3-5.9 1.6-9.1-.2z"/><path class="st6" d="M93.2 353.9c0-.6-.3-6 1.6-7.6 1.1-.9 3.3-1.1 5-1.2 3.4-.2 11-5 13.7-2 1.5 1.6.9 4.4.6 4.9-1.3 2.5-10.8 8-13.2 8.6-3.8 1.1-7.7.9-7.7-2.7z"/><path class="st7" d="M69.7 339.6c-1.3-.8-1.5-2.5-.2-3.3l16.2-9.8c.1-.1.3-.1.5 0l4.2 2c1.5.7 1.5 3 .2 4.1-1.5 1.3-4.2 4.1-11.6 7.3-3.2 1.3-5.9 1.6-9.3-.3z"/><path class="st6" d="M69.1 336.3c.1-.6-.3-6.2 1.6-7.8 1.1-.9 3.4-1.1 5.1-1.2 3.5-.2 11.3-5.1 14.1-2 1.5 1.7.9 4.5.6 5-1.3 2.5-11 8.1-13.5 8.8-3.9 1.1-8.5-.3-7.9-2.8z"/><path class="st27" d="M103.3 348.8c.8-5.9 6.2-53.5 4.6-62.6-1.7-9.7-8.9-12.6-14-12.3-5.2.3-4 24-4 24l4.5 3.6s-2.3 5.7-2.9 13.1c-.5 7.4 2.3 15.9 1.3 35 3.8 4 10.4-.3 10.5-.8zm-19.6-62c-.6 17.9-3 43.6-3 43.6-1.3 3-9.8 4-12.1 1.4 1.5-13.3.5-14.6.5-25.1C69 296.4 71 287 71 287l12.7-.2z"/><path class="st27" d="M95 274.1s-2.6-.9-9.7 1.7c-7.2 2.6-47.8 18.9-47.8 18.9l-18-9.5c-4.2 32.6 11 33.1 18.9 35.9 3.7 1.3 30.3-6.7 36.9-9.3 6.6-2.6 19.8-11.5 19.8-11.5 7.2-8.1 6.4-16.9-.1-26.2z"/><path class="st41" d="M40.5 205.1c20.2 5.4 25.7 17.2 25.7 17.2 2.3 30.9 1.7 48.8 1.3 66.1-.1 2.1-5.8 6.2-7.8 7.2-3.7 1.8-6.2 5.3-13.9 4.4-12.7-1.5-21.4-7.9-23.9-10.2-1.4-1.3-4.6-4.7-4.7-9.6-.3-10.6-1-33.4 2.1-58.2-.1-3.9 3.5-21.7 21.2-16.9z"/><path class="st39" d="M57.4 218.9c3.1-.9 8.4 1.6 10.2 4.3 1.3 1.6 2.6 3.2.1 2.5v35c-5.9-7.4-11.2-20.6-16-29.6-2.5-4.6.6-10.7 5.7-12.2z"/><path class="st38" d="M87.4 256.8s26.2-11.7 30.2-15.5l2.9 4.5s-11.8 15.6-31.4 21.4l-1.7-10.4z"/><path class="st41" d="M84.3 247.1c1.2 4.7 3.3 5.9 6.1 4.8 7.7-3.1 20.6-8.1 23.7-9.4 2.3 1.1 4.3 3.4 5 5.4.3.9 0 2-.7 2.7-3.5 3.6-16.7 16-31.4 18.5l-2.7-22z"/><path class="st41" d="M86.6 252.9c-2.6-8.6-10.4-19.4-19-29.7-1.8-2.7-7.1-5.2-10.2-4.3-5.1 1.6-8.2 7.6-5.7 12.3 6.8 12.7 18.5 31.5 38.4 38.9 0 0-2.3-15-3.5-17.2z"/><path class="st38" d="M116.3 242.5s-.9-4.5-.3-5.9c.2-.4.5-1.3 2.3-.2.4.2.5-.9 4.4-2.8.5-.3 2.4.1 2.5 1.2s2.2 1.5 2.3 2.5c.1.9.8 1 1.4 1.7.4.5-.2 1.3 0 1.8.2.4.1 1.3-.1 1.7-.7 1.2-5.5 3.5-8.7 3.4-3.2.1-3.8-3.4-3.8-3.4z"/><path class="st6" d="M19.2 358.4l13.5-10.2c1.7-1.3 1.6-3.8-.2-4.9L21 336.1s.2-1.5 2.6-1.6c2.2-.2 16.8 5.6 19 6.5 1-.3 2.2-.5 3.4-.5.5 0 1 0 1.5.1v-.1s15.4-6.2 18-5.5c2.6.7 3 2.8 3 2.8l-10.2 5.1c-2 1-2.2 3.7-.5 5l14.9 11.2c.9 1.2.5 2.9-.8 3.7-1 .5-2.1.4-2.9-.4l-17-7.9c-4.5-2.1-9.7-2.1-14.2.1l-14.9 7c-.8.7-2 .9-2.9.4-1.3-.7-1.7-2.4-.8-3.6z"/><path class="st21" d="M43.4 343.5c0 .8 1.2 1.4 2.6 1.4 1.4 0 2.6-.6 2.6-1.4 0-.8-1.2-1.4-2.6-1.4-1.4 0-2.6.7-2.6 1.4z"/><path transform="rotate(-180 46.022 333.926)" class="st21" d="M43.4 324.3h5.2v19.2h-5.2z"/><path class="st1" d="M51.4 318.1l36-12.8s-11.1 13.9-22.2 18.3c-11.1 4.3-19.6 4-26.3 2.5-9.7-2.2-16.8-8.2-16.8-8.2l29.3.2z"/><path class="st1" d="M.3 256.1c1.3 13.8 3.8 40.5 5 46.6 1.4 6.9 13.7 15.5 24.3 19.9 5.9 2.4 17.6 2.3 25.4-5.8 0 0-9.2.6-9.2-10.6 0-8.7-.4-26.2.5-36.7.8-10.6.4-19-8.6-25.9-13-10-25.1-14.7-29.9-12.4-6.5 3.2-8.7 11.8-7.5 24.9z"/><path class="st21" d="M72.3 315.2l5.7-2.3c4.3-1.8 7.2-6 7.2-10.7v-30.6h-3.7v30.6c0 3.2-1.9 6.1-4.9 7.3l-2.3.9c-1.9.8-2.8 3-2 4.8z"/><path class="st21" d="M87 279.5c3.4-1.8 7.8-3.3 5.6-6.6-2.1-3.1-7.3-4.4-12.2-3.7-5.9.8-37 21.6-39.3 24.5-2.3 2.9-1.6 6.7.8 8.2 2.5 1.5 5.2 1.4 8.4 0 3.1-1.3 32.1-20.1 36.7-22.4z"/><path class="st1" d="M87 277.2c3.4-1.8 7.8-3.3 5.6-6.6-2.1-3.1-7.3-4.4-12.2-3.7-5.9.8-37 21.6-39.3 24.5-2.3 2.9-1.6 6.7.8 8.2 2.5 1.5 5.2 1.4 8.4 0 3.1-1.3 32.1-20 36.7-22.4z"/><path class="st14" d="M121.5 161.5c-5-5.1-13.7-15-17.7-20.4-1.1-7.6-3.6-19.2-6.5-29.2.3-.1.5-.2.8-.4.4-.2.6-.7.5-1.1l-.5-3.7c-.1-.6-.6-.9-1.1-.9l-3.9-16.1c-.7-3.3-2.8-7.3-6.2-7.6-5.7-.5-10.8 6.1-9.6 11.6.5 2.6 2 10.2 2.9 14.6-.3.2-.5.6-.5 1l.7 3.9c.1.5.4.8.9.9.1 0 .3 0 .4.1 3.1 13.8 7.5 23.7 9 27h.1c7.1 12.6 18.6 20.3 25 24 2-1 4.6-2 5.7-3.7z"/><path class="st2" d="M143.2 170.3c0-.6-2.9-3.6-4.3-5.9 1.4.5 2.8.9 2.6.3-.4-1.5-4.7-3.7-6-4.4l-.6-.3c-1-.4-4 1-7.2.2-4.1-3.3-15.8-14.8-21.2-21.4-4.5-.9-13.1.8-13.1.8 10.5 16.5 28.9 24 31.1 25 1.9 1.3 7.1 6.2 8.1 6.7 1.4.7 4.2-.2 4.9-.2.7.2 5.6.3 5.7-.8z"/><path class="st2" d="M107 141.5c-1.9-11.4-9.4-37.1-15.1-46.8-1.6-2.7-3.4-4.7-6.6-4.4-3.8.5-6.4 4.3-5.8 8.1 3.6 21.2 11.5 36.9 13.8 41.2.1.2 10 5.2 13.7 1.9z"/><path class="st15" d="M98.8 107.3l-5.7-19c-.8-3.3-3.2-7.1-6.6-7.3-5.7-.2-10.5 6.6-9 12.1 1 3.7 4.5 17.6 4.5 17.6 6 .1 11.6-.8 16.8-3.4z"/><path class="st4" d="M80.7 108.5l.9 3.8c.1.5.5.8.9.8 2.4.2 10.2.5 16.7-3.4.4-.2.6-.7.5-1.1l-.7-3.7c-.1-.6-.8-1-1.4-.8-2.8 1-10 3.3-15.9 3.1-.6 0-1.1.6-1 1.3z"/><path class="st2" d="M211.5 201.9s-25.3-12.7-30.4-14.8l-3.1 4.3s13.3 13.1 31.7 20.8l1.8-10.3z"/><path class="st42" d="M214.6 192.3c-1.2 4.7-3.3 5.9-6.1 4.8-7.4-3-16.3-7.3-23.2-8.7-.5-.1-1.1 0-1.6.3-1.9 1.1-3.4 2.7-4 4.5-.3.9 0 2 .7 2.7 3.5 3.6 16.7 16 31.4 18.5l2.8-22.1z"/><ellipse class="st0" cx="211.5" cy="333.6" rx="32.9" ry="17.9"/><path class="st6" d="M197.3 317.3c-2-1.1-3.5-.3-3.5 2 0 2.2 1.6 4.9 3.5 6 2 1.1 3.5.3 3.5-2 .1-2.2-1.5-4.9-3.5-6z"/><path class="st6" d="M196.7 327.2c2.1-.2 3.1-1.1 3.5-2l-5-8.4c-1.1.3-3.1 1.2-3.7 2.5l5.2 7.9z"/><path class="st6" d="M194.8 318.8c-2-1.1-3.5-.3-3.5 2 0 2.2 1.6 4.9 3.5 6 2 1.1 3.5.3 3.5-2 .1-2.2-1.5-4.9-3.5-6z"/><ellipse transform="rotate(-31.141 194.827 322.779)" class="st4" cx="194.8" cy="322.8" rx="2.1" ry="3.7"/><ellipse transform="rotate(-58.862 234.98 320.748)" class="st6" cx="235" cy="320.7" rx="5" ry="2.9"/><path class="st6" d="M235.6 326.7c-2.1-.2-3.1-1.1-3.5-2l5-8.4c1.1.3 3.1 1.2 3.7 2.5l-5.2 7.9z"/><path class="st6" d="M237.5 318.2c2-1.1 3.5-.3 3.5 2 0 2.2-1.6 4.9-3.5 6-2 1.1-3.5.3-3.5-2 0-2.2 1.5-4.9 3.5-6z"/><path class="st4" d="M237.5 319.4c1.4-.8 2.5-.2 2.5 1.4s-1.1 3.4-2.5 4.2c-1.4.8-2.5.2-2.5-1.4s1.1-3.4 2.5-4.2z"/><path class="st6" d="M190.6 341.3c2-1.1 3.5-.3 3.5 2 0 2.2-1.6 4.9-3.5 6-2 1.1-3.5.3-3.5-2 0-2.2 1.6-4.9 3.5-6z"/><path class="st6" d="M191.2 351.2c-2.1-.2-3.1-1.1-3.5-2l5-8.4c1.1.3 3.1 1.2 3.7 2.5l-5.2 7.9z"/><path class="st6" d="M193.1 342.8c2-1.1 3.5-.3 3.5 2 0 2.2-1.6 4.9-3.5 6-2 1.1-3.5.3-3.5-2 0-2.2 1.6-4.9 3.5-6z"/><path class="st4" d="M193.1 344c1.3-.8 2.4-.2 2.4 1.3s-1.1 3.4-2.4 4.2c-1.3.8-2.4.2-2.4-1.3 0-1.6 1.1-3.4 2.4-4.2z"/><path class="st6" d="M238.9 338.4c-2-1.1-3.5-.3-3.5 2 0 2.2 1.6 4.9 3.5 6 2 1.1 3.5.3 3.5-2 0-2.1-1.6-4.8-3.5-6z"/><path class="st6" d="M238.2 348.4c2.1-.2 3.1-1.1 3.5-2l-5-8.4c-1.1.3-3.1 1.2-3.7 2.5l5.2 7.9z"/><path class="st6" d="M236.3 339.9c-2-1.1-3.5-.3-3.5 2 0 2.2 1.6 4.9 3.5 6 2 1.1 3.5.3 3.5-2 .1-2.2-1.5-4.9-3.5-6z"/><path class="st4" d="M236.3 341c-1.4-.8-2.6-.2-2.6 1.4 0 1.6 1.2 3.6 2.6 4.4 1.4.8 2.6.2 2.6-1.4 0-1.6-1.1-3.6-2.6-4.4z"/><path class="st3" d="M221.5 191.5c-3.3 3.1-7.1 3.3-11 1.7-1.2-.5-2.2-1.6-2.4-2.9l-3.6-18.6 15.6.4 2.9 14.8c.2 1.7-.3 3.5-1.5 4.6z"/><path class="st2" d="M195.9 172.7c1.8 9.2 4.8 15.5 10.3 14.6 5.4-.8.7-11.2 3.9-15.2.7-.9 6.8-1.1 7.6-2 2.9-3.4-2.7-18.9-10.5-17.4-4.8.9-9.7 2.7-11.5 7.2-.8 1.8-.1 11.5.2 12.8z"/><path class="st3" d="M204 173.7c.7 2.6 1.8 4.6 3.5 4.2 1.7-.4 2.8-4.4 2.1-7s-1.5-3.4-3.1-3c-1.8.4-3.2 3.2-2.5 5.8z"/><path class="st2" d="M203.2 172.7c.7 2.6 1.8 4.6 3.5 4.2 1.7-.4 3.3-4.2 2.6-6.8-.7-2.6-2-3.7-3.7-3.2-1.7.5-3.1 3.2-2.4 5.8z"/><path class="st7" d="M167.4 336.2c1.3-.7 1.5-2.4.2-3.3l-15.8-9.6c-.1-.1-.3-.1-.5 0l-4.1 2c-1.5.7-1.4 2.9-.2 4 1.5 1.2 4.1 4 11.3 7.1 3.1 1.4 5.8 1.7 9.1-.2zm24.1-17.4c1.3-.8 1.5-2.5.2-3.3l-16.2-9.8c-.1-.1-.3-.1-.5 0l-4.2 2c-1.5.7-1.5 3-.2 4.1 1.5 1.3 4.2 4.1 11.6 7.3 3.2 1.2 6 1.6 9.3-.3z"/><path d="M192.2 315.5c-.1-.6.4-4.5-1.6-6.1-1.1-.9-3.4-2.8-5.1-2.9-3.5-.2-11.3-5.1-14.1-2-1.5 1.7-.9 4.5-.6 5 1.3 2.5 11 8.1 13.5 8.8 3.9 1.1 8.4-.3 7.9-2.8zm-24.1 17.3c-.1-.6.4-4.5-1.6-6.1-1.1-.9-3.4-2.8-5.1-2.9-3.5-.2-11.3-5.1-14.1-2-1.5 1.7-.9 4.5-.6 5 1.3 2.5 11 8.1 13.5 8.8 3.9 1.1 8.5-.3 7.9-2.8z" fill="#d25a50"/><path class="st2" d="M161.6 331.1c-1.5-.9-2.5-2.5-2.7-4.2-1.3-9.3-6.9-52.9-5.4-61.6 1.7-9.7 8.9-12.6 14-12.3 5.2.3 4 24 4 24l-4.5 3.6s2.3 5.7 2.9 13.1c.5 7.4-4.2 16.1-3.2 35.2 0 2.3-2.4 3.7-5.1 2.2zm15.9-65.1c.6 17.9 7 43.5 7 43.5 1.7 5.8 5.7 3.9 5.9 1.5 1.4-13.9 1.7-14.6 1.8-25.1.1-10.4-1.9-19.8-1.9-19.8l-12.8-.1z"/><path class="st41" d="M168.9 252.4l7.2 2.6c7.2 2.6 47.8 18.9 47.8 18.9l18-9.5c4.2 32.6-11 33.1-18.9 35.9-3.7 1.3-30.3-6.7-36.9-9.3-6.6-2.6-16.7-8.9-16.7-8.9-7.4-8.2-7.1-20.4-.5-29.7z"/><path class="st44" d="M220.8 184.2c-20.2 5.4-25.7 17.2-25.7 17.2-2.3 30.9-1.5 46.2-1.1 63.6.1 2.1 4.4 4 6.3 4.9 3.7 1.8 7.5 10.1 15.2 9.1 12.7-1.5 21.4-7.9 23.9-10.2 1.4-1.3 4.6-4.7 4.7-9.6.3-10.6 1-33.4-2.1-58.2 0-3.7-3.5-21.5-21.2-16.8z"/><path class="st42" d="M203.9 198.1c-3.1-.9-8.4 1.6-10.2 4.3-1.3 1.6-2.6 3.2-.1 2.5v35c5.9-7.4 11.2-20.6 16-29.6 2.5-4.7-.6-10.7-5.7-12.2z"/><path class="st2" d="M173.8 235.9s-26.2-11.7-30.2-15.5l-2.9 4.5s11.8 15.6 31.4 21.4l1.7-10.4z"/><path class="st44" d="M177 226.3c-1.2 4.7-3.3 5.9-6.1 4.8-7.7-3.1-19.9-6.2-24-8.9-2.3 1.1-4.1 2.9-4.7 4.9-.3.9 0 2 .7 2.7 3.5 3.6 16.7 16 31.4 18.5l2.7-22z"/><path class="st44" d="M174.6 232.1c2.6-8.6 10.4-19.4 19-29.7 1.8-2.7 7.1-5.2 10.2-4.3 5.1 1.6 8.2 7.6 5.7 12.3-6.8 12.7-18.5 31.5-38.4 38.9.1 0 2.4-15 3.5-17.2z"/><path class="st2" d="M144.9 221.7s.9-4.5.3-5.9c-.2-.4-.5-1.3-2.3-.2-.4.2-.5-.9-4.4-2.8-.5-.3-2.4.1-2.5 1.2-.1 1.2-2.2 1.5-2.3 2.5-.1.9-.8 1-1.4 1.7-.4.5.2 1.3 0 1.8-.2.4-.1 1.3.1 1.7.7 1.2 5.5 3.5 8.7 3.4 3.3 0 3.8-3.4 3.8-3.4z"/><path class="st6" d="M242.1 337.5l-13.5-10.2c-1.7-1.3-1.6-3.8.2-4.9l11.5-7.2s-.2-1.5-2.6-1.6c-2.2-.2-16.8 5.6-19 6.5-1-.3-2.2-.5-3.4-.5-.5 0-1 0-1.5.1v-.1s-15.4-6.2-18-5.5c-2.6.7-3 2.8-3 2.8L203 322c2 1 2.2 3.7.5 5l-14.9 11.2c-.9 1.2-.5 2.9.8 3.7 1 .5 2.1.4 2.9-.4l17-7.9c4.5-2.1 9.7-2.1 14.2.1l14.9 7c.8.7 2 .9 2.9.4 1.3-.6 1.7-2.3.8-3.6z"/><ellipse class="st21" cx="215.2" cy="322.7" rx="2.6" ry="1.4"/><path class="st21" d="M212.6 303.5h5.2v19.2h-5.2z"/><path class="st1" d="M209.9 297.2l-36-12.8s11.1 13.9 22.2 18.3c11.1 4.3 19.6 4 26.3 2.5 9.7-2.2 16.8-8.2 16.8-8.2l-29.3.2z"/><path class="st1" d="M253.6 210.4c-4.8-2.4-17 2.4-29.9 12.4-9.1 7-9.5 15.4-8.6 25.9.8 10.6.5 28.1.5 36.7 0 11.2-9.2 10.6-9.2 10.6 7.8 8.1 19.5 8.2 25.4 5.8 10.6-4.4 21.7-11.7 25.5-26 1.6-6 2.6-26.8 3.8-40.5 1-13.1-1.2-21.8-7.5-24.9z"/><path class="st21" d="M189 294.4l-5.7-2.3c-4.3-1.8-7.2-6-7.2-10.7v-30.6h3.7v30.6c0 3.2 1.9 6.1 4.9 7.3l2.3.9c1.8.8 2.7 2.9 2 4.8z"/><path class="st21" d="M174.3 258.6c-3.4-1.8-7.8-3.3-5.6-6.6 2.1-3.1 7.3-4.4 12.2-3.7 5.9.8 37 21.6 39.3 24.5 2.3 2.9 1.6 6.7-.8 8.2-2.5 1.5-5.2 1.4-8.4 0-3.2-1.3-32.2-20-36.7-22.4z"/><path class="st1" d="M174.3 256.4c-3.4-1.8-7.8-3.3-5.6-6.6 2.1-3.1 7.3-4.4 12.2-3.7 5.9.8 37 21.6 39.3 24.5 2.3 2.9 1.6 6.7-.8 8.2-2.5 1.5-5.2 1.4-8.4 0-3.2-1.3-32.2-20.1-36.7-22.4z"/><path class="st45" d="M242.1 190.3c-1.6-8.5-9.6-13.3-13.1-16.1-3.4-2.8-4.8-12.4-4.8-12.4l-.1.1c-.8-3.4-2-6.8-4-9.9-2.6-4.1-12.8-6-19.7.3-6.9 4-12.9-6.2-12.9 1.3 0 12 8.7 12 11.1 12.7 2.4.7 2.8 6.6 2.9 8.4 0 0 1.2.5 1.6-1.7.4-2.2 3.4-5.1 4.7-4.4 1.1.5 3.2 2.5.1 7.4.4 2 .8 4.4 1.2 6.6-.8 5.7-4.7 15.6-4.3 21.2.5 6.6 12.2 14.4 22.5 11.5 10.4-3 16.4-16.6 14.8-25z"/><path class="st22" d="M184.9 202.3l-7.3-4-8.3 3.9s6.1 3.6 6.7 3.9c2.4 1.1 6.1 1.3 9.5-.5.6-.3 1.1-.8 1.1-1.3 0-.7-.7-1.4-1.7-2z"/><path class="st23" d="M182.4 181.6h-17l2.6 19.1c.2 1.5 2.7 2.7 5.8 2.7s5.6-1.2 5.8-2.7l2.8-19.1z"/><ellipse class="st4" cx="173.9" cy="181.6" rx="8.5" ry="4.2"/><ellipse class="st24" cx="173.9" cy="181.6" rx="7.1" ry="3"/><path d="M167.8 191.5l1.1 8.1c0 1.3 2.2 2.4 5 2.4 2.7 0 5-1.1 5-2.4l1.1-8.1h-12.2z" fill="#fab9af"/><path d="M180 191.5c0 1.7-2.7 3-6.1 3-3.4 0-6.1-1.3-6.1-3s2.7-3 6.1-3c3.4 0 6.1 1.3 6.1 3z" fill="#fa968c"/><path class="st22" d="M149.1 244.9l-6.4-3.5-7.3 3.4s5.4 3.2 5.9 3.4c2.1 1 5.4 1.1 8.3-.4.5-.3.9-.7.9-1.2 0-.6-.5-1.2-1.4-1.7z"/><path class="st23" d="M146.9 226.7H132l2.3 16.7c.2 1.3 2.4 2.4 5.1 2.4 2.7 0 5-1 5.1-2.4l2.4-16.7z"/><ellipse class="st24" cx="139.4" cy="226.7" rx="6.2" ry="2.6"/><path class="st24" d="M143.4 242.8c0 1.1-1.8 2-4 2s-4-.9-4-2 1.8-2 4-2 4 .9 4 2z"/><path class="st33" d="M141.2 242.9c-.6.9-1.4 1-2.4.8l-6.8-21.3 2.4-.8 6.8 21.3z"/><path class="st48" d="M134.5 221.6l-2.7-3.8.3 4.6c.9.1 1.8-.2 2.4-.8z"/><path class="st49" d="M132.7 219.1l-.9-1.3.1 1.5c.2.1.5.1.8-.2z"/><path d="M138.3 243.5c-.9.4-1.7.1-2.5-.6l5.2-21.8 2.5.6-5.2 21.8z" fill="#1e87dc"/><path class="st48" d="M143.5 221.8l-.4-4.7-2.1 4.1c.9.6 1.7.8 2.5.6z"/><path class="st49" d="M143.3 218.7l-.1-1.6-.7 1.3c.2.3.4.4.8.3z"/><path class="st45" d="M138.2 243.5c-1 .3-1.7-.2-2.3-1l9-20.5 2.3 1-9 20.5z"/><path class="st48" d="M147.2 223l.5-4.7-2.8 3.6c.6.8 1.4 1.2 2.3 1.1z"/><path class="st49" d="M147.5 219.9l.2-1.6-.9 1.2c.1.3.3.5.7.4z"/><path class="st2" d="M166.1 187.1c.7.1 1.4.8 1.6 2.2.2 1.4-.8 2.2-.8 2.2s1.2.5 1.2 2c0 .8-.9 1.8-.9 1.8s.9.9.9 1.5c.1.5-.5 1.3-.9 1.5-.8.4-3 .7-2.7-2.5.1-1.1-1.2-2-.9-3.4.2-1.2.8-1.3.8-2.1 0-.9-.5-1.1-.4-2.1.3-.8 1.6-1.2 2.1-1.1z"/><path class="st51" d="M182.9 107.3l.9-.5-.9-1.2z"/><path class="st4" d="M173.3 82l1.4-.8-.3-1.5-1.1.6z"/><path class="st51" d="M174 100.5c0 .5.2.9.6 1.1l8.6 5.1c.4.2.9-.1.9-.5V85.9c0-.5-.2-.9-.6-1.1l-8.6-5c-.4-.2-.9.1-.9.5v20.2z"/><path class="st4" d="M182.4 85.2l-.5-.3-7.9-2.6v-2c0-.5.5-.8.9-.5l8.6 5c.2.1.2.4 0 .5h-.1c-.3.1-.7.1-1-.1z"/><path class="st32" d="M173 101.1c0 .5.2.9.6 1.1l8.6 5.1c.4.2.9-.1.9-.5V86.4c0-.5-.2-.9-.6-1.1l-8.6-5.1c-.4-.2-.9.1-.9.5v20.4z"/><path class="st52" d="M173.8 100.6l8.6 5c.1 0 .2 0 .2-.1V87.3c0-.1-.1-.3-.2-.3l-8.6-5c-.1-.1-.2 0-.2.1v18.1c.1.2.1.3.2.4z"/><path class="st6" d="M183.3 93.7l.8-.4V93l-.8.4zm0 .6l.8-.4v-.3l-.8.4zm0 .6l.8-.4v-.3l-.8.4zm0 .6l.8-.4v-.3l-.8.5zm0 .6l.8-.4v-.2l-.8.4z"/><path class="st52" d="M183.6 92.2l.3-.2v-1.9c0-.1-.1-.1-.1-.1l-.3.2v1.9c0 .1 0 .2.1.1z"/><path class="st52" d="M183.5 92.2l.1.1v-.2l-.1-.1zm.4-1.9l.1.1v-.2l-.1-.1z"/><path d="M183.7 92.3l.3-.2v-1.9c0-.1-.1-.1-.1-.1l-.3.2v1.9c0 .1.1.1.1.1z" fill="#c5ffff"/><path class="st13" d="M169.2 96.3s.7-3.9 2.8-5.8c1.3-1.2 3.3-.8 4.6-1.2.6-.2 1.1.4.9.9l-4.6 5.4-3.7.7z"/></g></svg>