<svg version="1.1" id="Layer_1" xmlns="http://www.w3.org/2000/svg" x="0" y="0" viewBox="0 0 400.2 324.6" xml:space="preserve"><style>.st0{opacity:.15;fill:#050d2d;enable-background:new}.st1{fill:#6f3d1b}.st2{opacity:.7;fill:#300e05;enable-background:new}.st3{fill:#002845}.st4{opacity:.41;fill:#300e05;enable-background:new}.st5{fill:#fdbc80}.st6{opacity:.14;fill:#711b09;enable-background:new}.st7{fill:#6d3e1a}.st9{fill:#e09615}.st10{opacity:.21;fill:#711b09;enable-background:new}.st12{fill:none;stroke:#021826;stroke-width:.5;stroke-linecap:round;stroke-linejoin:round;stroke-miterlimit:10}.st13{opacity:.25;fill:#87dde3;enable-background:new}.st14{opacity:.77}.st15{fill:#fff}.st16{fill:#e39e67}.st17{fill:#2d2d2d}.st18{fill:#595959}.st19{fill:#4c4c4c}.st20{fill:#5d7ab5}.st21{opacity:.41;fill:#050d2d;enable-background:new}.st22{fill:#323850}.st23{fill:#367dd0}.st29{fill:#22303f}.st32{fill:#f3ffff}.st33{fill:#99cfd9}.st37{opacity:.14;fill:#fff;enable-background:new}.st39{fill:none;stroke:#99cfd9;stroke-width:2;stroke-linecap:round;stroke-linejoin:round;stroke-miterlimit:10}.st42{fill:#095d9d}</style><g id="OBJECTS"><path id="XMLID_157_" class="st0" d="M206.6 80.6s-1.7 1.7 2.3 4.2 7.5 5.2 7.6 7 12.6 17.7 14 18.6c1.5.9 6.3 1 11.2.4s23.8-11 27.6-15.7c3.9-4.7-8.8-15-18.9-15.3-10.1-.3-24 4.9-24 4.9s-1.7-2.5-5.8-3.1-8.6-4.4-14-1z"/><path id="XMLID_46_" class="st1" d="M212.6 86c3.6 2.4 3.3 2.7 5.7 5.7l4.7-3.3s-.7-.6 0-2.3c.7-1.7-.2-3.3-3.9-2.9-3.6.3-5-1.4-7-2.5-1.5-.8-3.7-1.3-4.9-.7-.3.2-.6.4-.7.7-.5 1.4 2.5 2.9 6.1 5.3z"/><path id="XMLID_43_" class="st2" d="M207.3 79.9c2.1-.7 4.1 1.1 5.4 2.2 1.3 1.1 4.1 4 6.1 3.6 2-.5 2.1 1.3 1.5 2.3s-1.9 3.7-1.9 3.7l4.7-3.3s-.7-.6 0-2.3c.7-1.7-.2-3.3-3.9-2.9-3.6.3-5-1.4-7-2.5-1.6-1-3.8-1.4-4.9-.8z"/><path id="XMLID_337_" class="st3" d="M237.4 83c3.8 5.9 5.4 15.6 5.8 16.3 3.8 9 20.6 9.6 18.2-.6-2.4-10.2-9.4-18-9.4-18-.6-.7-12.9 1.9-14.4 2.3h-.2z"/><path id="XMLID_37_" class="st4" d="M237.4 83c3.8 5.8 5.4 15.5 5.7 16.3 3.8 9 20.6 9.6 18.2-.6-2.4-10.2-9.4-18-9.4-18-.6-.7-12.9 1.9-14.4 2.3.3.2.6.4 1 .6 0 0 5.7 1.6 9.8 1.2s9.1 17.2 4.4 17.8-6.7-1.1-8.3-5.7c-1.2-3.6-3-12.1-7-13.9z"/><path id="XMLID_60_" class="st5" d="M248 53.2c1 3.2 2.9 6.9 2.9 6.9 3.3 9.1 13.2 15.2 14 16.5.8 1.4.4 2.3.9 3 .3.4.3 1.4.6 1.8.2.3.4.3.8-.3 1.1-1.4.8-3.2.8-3.2.6.9 1.8 1.6 2.4 2 .5.4.3 2.5.7 4 .1.3.2.6.4.8.9 1.4 1.8 1.8 1.8 0v-4.8c0-1.2-.8-2.7-5.2-5.9s-5-5-10.3-12.9c-2.8-4.2-4.2-7.1-5-8.9-.7-1.6-.8-2.4-.8-2.4-5.1-3.4-5.2-.3-4 3.4z"/><path id="XMLID_33_" class="st6" d="M248 53.2c1 3.2 2.9 6.9 2.9 6.9 3.3 9.1 13.2 15.2 14 16.5.8 1.4.4 2.3.9 3 .3.4.3 1.4.6 1.8.1-1.1.1-3.6-.6-5-1-1.8-8.3-6.3-11-10.5s-2.8-7.6-2.5-9.2c0 0 .7-1.4 1.7 1 1 2.5 7.2 12.8 10 15.1 2.9 2.3 9.5 4.5 7.1 11 .1.3.2.6.4.8.9 1.4 1.8 1.8 1.8 0v-4.8c0-1.2-.8-2.7-5.2-5.9s-5-5-10.3-12.9c-2.8-4.2-4.2-7.1-5-8.9-1.9.5-3.6.8-4.8 1.1z"/><path id="XMLID_56_" class="st7" d="M230 35.2c.1.1.1.3.2.4.2.5.4 1 .7 1.5.7 1.3 1.7 2.5 2.9 3.6.3.3.7.6 1 .8 2.2 1.6 4.9 3 7.8 4 .1 0 .1 0 .2.1 4.4 1.6 9.4 2.5 13.9 2.7 2.7.1 5.2-.1 7.3-.6 0 0-8.2-7.1-2.7-22 5.5-14.9 1.7-19.3-2.9-22.8-1.5-1.2-3.1-2-4.7-2.4-3.4-1-7-.5-10.4 1.2-5.2 2.6-7.4 6.5-9.3 12-1.8 5.1-6.8 13.6-4 21.5z"/><path id="XMLID_22_" d="M230.2 35.7c.2.5.4 1 .7 1.5.7 1.3 1.7 2.5 2.9 3.6.5.2 1 .4 1.5.8 4.7-2.3 14.2-7.2 14.2-7.2v-18l-3.4 4.2-7.5-5.3s-3 2.2-.1 5.1c0 0-1.1 2.1 0 5.4 0 0-.4 2.6-1.1 4 0 0-1-.7-2 2.4 0 0-3.4 0-5.2 3.5z" opacity=".51" fill="#300e05"/><path id="XMLID_48_" class="st4" d="M241.3 32.6s1.3 9.5 1.5 13.1c7.1 2.5 15.6 3.4 21.1 2.1 0 0-8.2-7.1-2.7-22 5.5-14.9 1.7-19.3-2.9-22.8-1.5-1.2-3.1-2-4.7-2.4 2.6 1.6 9.3 6.9 4.3 17.7l2.3 2-18.9 12.3z"/><path id="XMLID_29_" class="st2" d="M238.5 31s2 7.3 4.1 14.6c.1 0 .1 0 .2.1 4.4 1.6 8.6 2.5 13 2.7-1.2-12.6-7.9-11.6-7.9-11.6l-1.3-2.4c1.1 0 2.2.5 7.1-2.7 4.9-3.3 6.8-11.8 6.8-11.8l-22 11.1z"/><path id="XMLID_61_" class="st9" d="M244.4 52.4c.4 1.3.9 2.5 1.4 3.5 0 0 1.1.4 3.1.3 1.8-.1 4.2-.8 6.9-2.6 0 0-1.9-14.4-7.2-15.6-.2 0-.3 0-.5-.1h-.9c-2.7.5-3.8 3-4 6-.2 2.7.4 5.9 1.2 8.5z"/><path id="XMLID_47_" class="st10" d="M244.4 52.4c1.4 1.2 3 2.5 4.4 3.7 1.8-.1 4.2-.8 6.9-2.6 0 0-1.9-14.4-7.2-15.6 2.9 2.7 4 8.9 4.7 12 .9 3.7-1.7 3.5-1.7 3.5-1.4-13.4-3.4-15.4-3.6-15.5 0 0-2.6 3.3-4.9 6.1 0 2.6.6 5.8 1.4 8.4z"/><path id="XMLID_334_" class="st3" d="M221 96.7c.2.3.5.6.8 1l.1.1c2.9 3.6 8.4 10.3 10.9 11.6 2.9 1.5 6.7 1.5 7.8 0s3.3-2.3 2.5-10.9c-.7-8.6-5-15.7-5-15.7-5.7.3-11.6-5-11.6-5-3.4 3.9-.9 10.6.3 13.2-2.5-4.9-3.4-2.9-7.1-.5-3.9 2.6-1.2 3.1 1.3 6.2z"/><path id="XMLID_36_" class="st4" d="M221.9 97.9c2.9 3.6 8.4 10.3 10.9 11.6 2.9 1.5 6.7 1.5 7.8 0s3.3-2.3 2.5-10.9c-.7-8.6-5-15.7-5-15.7-5.7.3-11.6-5-11.6-5s1.2 2.7 6.6 6.6c5.4 3.9 6.6 21.7 3.8 23.1-2.8 1.2-8.6-2.2-15-9.7z"/><path id="XMLID_306_" d="M226.5 77.8c.3.7.9 1.3 1.7 1.8 4.1 2.7 8 3.8 12.6 3.3s9.1-2.1 11.1-2.3c2-.2-.2-2.3 0-4.3.1-2 1-12.7-.9-23.1-1.9-10.3-1.7-15.8-6.7-19.4 0 0-3-1.8-6.4-1.3-.4.1-.9.2-1.3.3 0 0-2.2-.5-5 2.2-2.7 2.7-1.8 21.8-3.3 29.7-1.3 6.5-3.2 10.4-1.8 13.1z" fill="#fdd802"/><path id="XMLID_255_" class="st10" d="M226.5 77.8c.3.7.9 1.3 1.7 1.8 4.1 2.7 8 3.8 12.6 3.3s9.1-2.1 11.1-2.3c2-.2-.2-2.3 0-4.3.1-2 1-12.7-.9-23.1-1.9-10.3-1.7-15.8-6.7-19.4 0 0-3-1.8-6.4-1.3-1.4.8-2.4 1.4-2.4 1.4s.3 3.5 6.3 5.2c5.9 1.7 4.9 37.2 1.4 39.5-3.5 2.5-10.6 5.2-16.7-.8z"/><path id="XMLID_63_" class="st5" d="M225.4 56.2c.1.4.1.8.2 1.2 2.7 17.7 13.3 25.7 15.2 27.2 1.9 1.6 4.7 5.6 6.4 6.5 1.6.9 4.4 1.7 3.4 0-.1-.1-.1-.2-.2-.3-1.6-2.1-.6-1.1-2.3-2.4-1.7-1.4-1.6-3.5-1.6-3.5 1.6.6 3.1.4 3.6-1.2.5-1.7-.9-.2-2.3-.7-1.4-.5-3.5-.7-5.8-2.1-2.2-1.4-2.9-4.2-7-11.1-4.1-6.8-4.1-12.6-4.1-12.6l-5.5-1z"/><path id="XMLID_10_" class="st4" d="M227.3 92.2s.2 3.2 3.9 6.6c0 0-5.3-2.5-4.8-8.5l.9 1.9z"/><path id="XMLID_9_" class="st4" d="M242.5 91.5s.9 3.1 5.3 5.5c0 0-5.7-1.2-6.7-7.2l1.4 1.7z"/><path id="XMLID_50_" class="st12" d="M260.2 26l-1.1-2.6"/><path id="XMLID_293_" class="st5" d="M239.5 19.9c-.3.7-.9 2.5-.5 4.6v.1c.2 1.1.6 2.4 1.5 3.6 2.6 3.6 6.7 7.4 12.6 2.3 6.8-5.9 7.3-10.6 7.3-10.6.4-7.2-2.2-10.5-5.4-11.6-2-.7-4.2-.6-6 0-2.4.7-4.3 2.1-4.5 3.4-.5 3.2-2 4.1-2.5 4.3-.1.1-.2.1-.2.1-1.1-3-2.9-2.4-4.1 0-1.3 2.4 1.8 3.8 1.8 3.8z"/><path id="XMLID_51_" class="st10" d="M239 24.5c.2 1.2.7 2.5 1.6 3.7 2.6 3.6 6.7 7.4 12.6 2.3 6.8-5.9 7.3-10.6 7.3-10.6.4-7.2-2.2-10.5-5.4-11.6h-6c-2.4.7-4.3 2.1-4.5 3.4-.5 3.2-2 4.1-2.5 4.3.4-.2 1.4-.6 2.4-1.6 0 0 5.5 2 6.4 2.7 0 0 1.1-1.6 1.4-2.7 0 0 .4 1.3 0 3.1 0 0 2.8.8 3.5 1.3.7.6-4 10.9-9 11.3-5.3.4-7.8-5.6-7.8-5.6z"/><path id="XMLID_292_" class="st13" d="M254 27.1l.3.3c.2.2.5.3.8.5 0 0 .1 0 .1.1.4.2.7.3 1 .4 2.5.7 3.5-1.2 4-2.3l-4-1.9-1-.5-.8-.4-.2-.2s-1.9 2.2-.2 4z"/><path id="XMLID_291_" class="st13" d="M244.3 22.8c.1.1.2.2.4.3.2.2.5.4.9.5.1.1.3.1.5.2s.4.1.5.2c3.1 1 4-1 4.5-2.2l-4.5-2-1-.5-.7-.3-.3-.1-.5-.2c-.1 0-1.6 2.3.2 4.1z"/><g id="XMLID_21_" class="st14"><path id="XMLID_281_" class="st15" d="M255.3 23.6v4.3c.4.2.7.3 1 .4v-4.2l-1-.5z"/><path id="XMLID_276_" class="st15" d="M254 27.1l.2-4 .3.2-.1 4.1z"/></g><g id="XMLID_28_" class="st14"><path id="XMLID_35_" class="st15" d="M245.5 23.6v-4.3l1 .5V24z"/><path id="XMLID_27_" class="st15" d="M244.3 22.8l.2-3.9.3.1-.1 4.1z"/></g><path id="XMLID_249_" class="st1" d="M244.6 14c2 .5 6 2.2 6 2.2 1.5-2.6 2-6.7 2-6.7.6 3.2 0 7.4 0 7.4.6.3 3.8 1.2 3.8 1.2 2.4-3 1.4-7 1.4-7 2.6 3.6.1 7.1.1 7.1l2.1 1.3 1.2.7c1.9-4.6.3-8.5-1.6-11-.5-.6-1-1.2-1.5-1.6-1.7-1.5-3.8-2.4-6-2.6-7.2-.3-7.5 9-7.5 9z"/><path id="XMLID_26_" class="st12" d="M260.2 26l-6-2.9s-2.6 2.9.9 4.7c3.4 1.8 4.6-.6 5.1-1.8z"/><path id="XMLID_25_" class="st12" d="M251 21.8l-7-3.2s-2.3 3.4 2 5.1c3.5 1.5 4.6-.7 5-1.9z"/><path id="XMLID_24_" class="st12" d="M244 18.7l-2.7-3.7"/><path id="XMLID_23_" class="st12" d="M254.2 23.1l-3.2-1.3"/><path id="XMLID_290_" class="st16" d="M236.9 35c.2.3.4.5.7.6 1.9 1.1 4.6 2 6.4-.3 0 0 .1-1.7 1.1-2.9 0 0-3.9-2.3-6-7.2v.6c0 1.1-.3 3.9-2.2 6.3-.6.9-.6 2 0 2.9z"/><path id="XMLID_201_" class="st10" d="M236.9 35c.2.2.4.5.7.6 1.9 1.1 4.6 2 6.4-.3 0 0 .1-1.7 1.1-2.9 0 0-3.9-2.3-6-7.2v.6c.5 1.7 1.2 3.9 2.1 5.2 1.7 2.1-1.1 6.4-4.3 4 .1 0 0 0 0 0z"/><path id="XMLID_52_" class="st4" d="M276.5 4.3h-.1.1z"/><path id="XMLID_204_" class="st4" d="M260 19.6l1.2.7c1.9-4.6.3-8.5-1.6-11-.1 0 1.9 6.1.4 10.3z"/><path id="XMLID_12_" class="st9" d="M244 35.3s-6.3 2-7-3.3l.7-1.1s-1.7-.6-2.3 2c-.6 2.6 2.2 4.6 5.8 4.8 4.6.3 4.4-3.1 3-3.8l-.2 1.4z"/><path id="XMLID_49_" class="st6" d="M225.4 56.2c.1.4.1.8.2 1.2 0 0 2 1.5 3.3 1.7s.3 3.7 2.8 8.2 4.9 9.7 6.4 12.4c1.5 2.7 5.3 3.7 6.4 4.8 1 1 .7 4.5 6.1 6.8-.1-.1-.1-.2-.2-.3-1.6-2.1-.6-1.1-2.3-2.4-1.7-1.4-1.6-3.5-1.6-3.5 1.6.6 3.1.4 3.6-1.2.5-1.7-.9-.2-2.3-.7-1.4-.5-3.5-.7-5.8-2.1-2.2-1.4-2.9-4.2-7-11.1-4.1-6.8-4.1-12.6-4.1-12.6l-5.5-1.2z"/><path id="XMLID_323_" class="st9" d="M223.1 55.2s.2.2.7.5c1.4.9 5 2.4 10.8 1.2 0 0 4.7-18.7-2.6-20.1-1.2-.2-2.2-.1-3.2.4-4.7 2.5-6.2 12.9-5.7 18z"/><path id="XMLID_53_" class="st10" d="M223.8 55.7c1.4.9 5 2.4 10.8 1.2 0 0 4.7-18.7-2.6-20.1-1.2-.2-2.2-.1-3.2.4.3-.1 2.5-.3 3 5.9.6 6.6-1.7 15.3-8 12.6z"/><g id="XMLID_577_"><path id="XMLID_671_" class="st17" d="M267 280.4h-.6l-.9.3-1.4 1-.7-.5h-.7l-.4 1.1h-1.2l-.7-1.1h-1l-1 1.1-1.4-.6-.2-1h-.6l-.8.5-1.2-.5v-1.1l-.4-.4-.8.8-.1-4.2.3-.1-.1-1.5.5-.7.9.2.3-1.4 3.2 5.9 8.1-2.3.9 1.3z"/><path id="XMLID_663_" class="st18" d="M253 276.8l-.1-1.1 1.1-.1.1-.8-1-.7.5-.8 1 .3.4-.4-.2-1 .7-.6.7.6.5-.3.2-.8 1.1-.3.5.9h.7l.4-1.1h1l.5 1.1h.8l.6-1.1h.7l.3 1.1h.8l.6-.7 1.1.3v1.2l1.1-.5.7.7-.5 1 1.1.1v.9l-1.5.4v.6l.6.5-.7 1.1-1-.3-.5.2v1.3l-1.4.4-.9-1-.6.2-.3 1.4h-1.2l-.8-1.1H259l-.8 1-1.3-.2-.3-.9-.8-.3-.8.6-1-.4.6-1-.5-.3H253v-.1zm5.2-.7c.7.4 1.7.7 2.8.7 1.3 0 2.5-.4 3.1-1 0 0-.1-1.5-3.1-1.5-3.1.1-2.8 1.8-2.8 1.8z"/><path id="XMLID_660_" class="st17" d="M261 273.1c-2 0-3.6.8-3.6 1.9 0 .4.3.9.8 1.2 0 0-.3-1.8 2.8-1.8 3.1 0 3.1 1.5 3.1 1.5.3-.3.4-.6.4-.9 0-1.1-1.6-1.9-3.5-1.9z"/><g id="XMLID_634_"><g id="XMLID_638_"><path id="XMLID_653_" class="st19" d="M267.7 276.1v3.6l-.7.7v-3.2z"/><path id="XMLID_652_" class="st19" d="M265.5 278.3v2.9l-1.4.5v-3z"/><path id="XMLID_651_" class="st19" d="M261.1 279.2h1.2v3h-1.2z"/><path id="XMLID_648_" class="st19" d="M258.4 279.2v3.1l-1.4-.6.1-2.6z"/><path id="XMLID_644_" class="st19" d="M255.1 278.4l.2 2.7-1.2-.5V278z"/><path id="XMLID_639_" class="st19" d="M253 276.9v3l-.2-1.1.1-2.9z"/></g></g><path id="XMLID_578_" class="st17" d="M268.6 274.7l-.3 3.6-.6.6v-2.8l-.6-.5v-.5z"/></g><g id="XMLID_511_"><path id="XMLID_541_" class="st17" d="M290.2 275.2h-.5l-.8.3-1.3.9-.5-.4h-.7l-.3.9h-1l-.7-.9h-.9l-.8.9-1.2-.5-.2-.8-.6-.1-.7.5-1-.4v-1l-.3-.4-.8.7v-3.7h.2l-.1-1.4.4-.6.9.2.2-1.2 2.9 5.2 7-2.1.8 1.1z"/><path id="XMLID_533_" class="st18" d="M277.9 272.1l-.1-.9 1-.1.1-.7-.9-.6.4-.7.9.2.4-.4-.2-.9.6-.5.6.5.4-.3.1-.7 1-.3.5.8h.6l.4-1h.8l.4 1h.7l.5-1h.8l.3 1h.7l.5-.6 1 .3v1l1-.5.6.6-.4.9 1 .1v.8l-1.3.4v.5l.6.4-.6.9-.9-.3-.5.2v1.1l-1.3.3-.8-.9-.5.2-.2 1.2H285l-.7-.9h-.9l-.7.9-1.1-.2-.3-.8-.7-.3-.7.5-.9-.3.5-.8-.4-.2-1.2.1zm4.6-.6c.6.4 1.4.6 2.4.6 1.2 0 2.2-.3 2.7-.9 0 0 0-1.3-2.7-1.3s-2.4 1.6-2.4 1.6z"/><path id="XMLID_530_" class="st17" d="M284.9 268.8c-1.7 0-3.1.7-3.1 1.7 0 .4.3.8.7 1 0 0-.2-1.6 2.4-1.6s2.7 1.3 2.7 1.3c.2-.2.4-.5.4-.8 0-.8-1.4-1.6-3.1-1.6z"/><g id="XMLID_515_"><g id="XMLID_517_"><path id="XMLID_523_" class="st19" d="M290.8 271.5v3.2l-.6.5v-2.8z"/><path id="XMLID_522_" class="st19" d="M288.9 273.4v2.6l-1.3.4v-2.7z"/><path id="XMLID_521_" class="st19" d="M285 274.2h1.1v2.7H285z"/><path id="XMLID_520_" class="st19" d="M282.7 274.2v2.7l-1.2-.5v-2.3z"/><path id="XMLID_519_" class="st19" d="M279.8 273.5l.1 2.4-1-.4v-2.3z"/><path id="XMLID_518_" class="st19" d="M277.9 272.2v2.6l-.2-1 .2-2.5z"/></g></g><path id="XMLID_512_" class="st17" d="M291.6 270.2l-.2 3.2-.6.6v-2.5l-.5-.4v-.5z"/></g><g id="XMLID_817_"><g id="XMLID_821_"><path id="XMLID_835_" class="st15" d="M34.4 182.6l25 11.8 16-4.3 11.9-3.2-25.1-11.5-3.7 1z"/><g id="XMLID_822_"><g id="XMLID_824_"><g id="XMLID_827_"><path id="XMLID_828_" class="st20" d="M55 180.8c.4 2 7.5-1 8.5.4 1 1.3-5.7 4.6-3.7 7.9 1.3 2.1 9.6 1.6 15.5 1l11.9-3.2-25.1-11.5-3.8 1c-1.6 1.4-3.5 3.3-3.3 4.4z"/></g><g id="XMLID_825_"><path id="XMLID_826_" class="st20" d="M50.4 183.3c-1.3.1-2.3.9-2.2 1.8.1.9 1.2 1.5 2.5 1.4s2.3-.9 2.2-1.8c-.1-.9-1.2-1.5-2.5-1.4z"/></g></g></g></g><path id="XMLID_820_" class="st15" d="M85.8 187.2l-25-11.5 1.4-.3 25.1 11.5z"/><path id="XMLID_819_" class="st15" d="M62.2 175.4l-27.8 7.2 1.3.7 27.7-7.4z"/><path id="XMLID_818_" class="st15" d="M87.3 186.9l-27.9 7.5-1.4-.6 28-7.6z"/></g><path id="XMLID_814_" class="st0" d="M94.6 160.2l2.2-.6 1.3-.3 1.1.5 21.1 9.7 1.3.5-26.1 7.1-23.4-11z"/><path id="XMLID_811_" class="st0" d="M91.5 155.9s11.2-.1 20.3-.5c9.2-.4 16.5 5.2 23.7 7.3 7.2 2 23.3-4.5 34.2-5.8 10.8-1.3 14.6-6.6 22.4-10.1 7.8-3.5 16.6-11.8 9.2-14.6-7.4-2.8-5.9-3.5-11.2-4.2-5.4-.6-12.9 3.8-24 5.8s-19.8 3.7-25.5 6.5-21.9 7.8-27.9 7.3c-5.8-.5-20.9 4.2-21.2 8.3z"/><path id="XMLID_810_" class="st16" d="M114.2 121s-2.2 21.9-4.4 27.9c-2.3 6-4.7 3.1-4.2 6.4.5 3.2 4.4-1.6 4.9-2.1s3.9.5 2.5-1.9 6.6-11.8 5.4-30.9l-4.2.6z"/><path id="XMLID_809_" class="st5" d="M91.5 155.9c2-.2 6.2-3.1 8.7-3.9 2.5-.8 16.4-4.7 25.8-21.8l-5.9-1s-.2.5-.6 1.3c-1 1.9-3.5 5.8-8.1 9.4-6.6 5.1-8.3 7.6-11 8.1s-4.9-.1-6.4-.2c-1.5 0-2.3-2-2.5-.2s1.2 2.5 3 2.5c0 0-.7 2.1-2.9 2.8-2.1.7-.7.1-3.1 1.5-.1.1-.2.1-.3.2-1.7 1.3 1.4 1.5 3.3 1.3z"/><path id="XMLID_806_" class="st10" d="M91.5 155.9c2-.2 6.2-3.1 8.7-3.9 2.5-.8 16.4-4.7 25.8-21.8l-5.9-1s-.2.5-.6 1.3c0 0 1.3.9 2.5 1.7 1.1.8-7.9 11.5-15.1 14.9s-9.3 4-12 6.1c-2 1.5-4.2.1-6.6 1.4-1.8 1.3 1.3 1.5 3.2 1.3z"/><path id="XMLID_803_" class="st3" d="M145.6 152.1c.6 1.4 1.4 2.1 2.4 2.3 3.9 1 9.8-6.7 11.3-7l-2.5-8.9s-1.9.9-3.4 2.8c.8-1.3 2.6-4.9 1.6-10.7l-10.9-1.5c-.1-.1-1.9 15.8 1.5 23z"/><path id="XMLID_800_" class="st21" d="M147.9 154.4c3.9 1 9.8-6.7 11.3-7l-2.5-8.9s-1.9.9-3.4 2.8c.8-1.3 2.6-4.9 1.6-10.7l-10.9-1.5s2.9 2 5.9 4.1.1 5.4 0 9.4c-.1 4.1 4-1.1 5.2 1.2 1.1 2.3-1.3 10.5-7.2 10.6z"/><path id="XMLID_797_" class="st22" d="M111.5 124.3c.2.8 1 1.3 3.3 2 5.4 1.4 8.2.5 9.2-.1.9-.6-1-2.7-.4-7.1.5-4.4-1.6-6.6-4.4-7-2.3-.4-3.9.5-4.9 1.8-1.3 1.7-1.8 4.1-1.9 6.2-.2 1.9-1.1 3.2-.9 4.2z"/><path id="XMLID_794_" class="st21" d="M111.5 124.3c.1.7 1 1.3 3.3 1.9 5.4 1.4 8.2.5 9.2-.1.9-.6-1-2.7-.4-7.1.5-4.4-1.6-6.6-4.4-7-2.3-.4-3.9.5-4.9 1.8 0 0 .8 2.3 2.3 5 1.4 2.7-2.3 9-5.1 5.5z"/><path id="XMLID_791_" class="st1" d="M182 143.5l2.2 5.1c3.4-1.3 3.3-1.6 7.5-1.8h.5c4-.1 7 0 7.2-1.4.3-1.5-2.4-2.7-4.6-2.8-2.2-.1-4.2.7-7-1.4-1.8-1.3-3.1-1.5-3.8-1-.4.3-.7.8-.8 1.5-.3 1.6-1.2 1.8-1.2 1.8z"/><path id="XMLID_788_" class="st1" d="M165.1 135.6s.8-.1 1.1-1.8 1.7-2.4 4.3-.5c2.6 2 4.5 1.3 6.5 1.3 2 .1 4.5 1.2 4.3 2.6-.2 1.4-3.3 1.2-7.1 1.3-3.9.1-3.8.5-6.9 1.7l-2.2-4.6z"/><path id="XMLID_785_" class="st4" d="M167.1 132.5c.5.3 1.3 1 2.1 2.3 1.4 2.3 4.5.7 5.8 1.9.9.9 1.2 1.5-.3 2 3.6-.1 6.4 0 6.6-1.3.2-1.4-2.2-2.5-4.2-2.6s-3.8.6-6.4-1.4c-1.8-1.3-2.9-1.4-3.6-.9z"/><path id="XMLID_782_" class="st3" d="M154.7 130.4c0 .1 0 .1 0 0 0 .3 0 .6.1.9.6 4.5 4.2 17.5 6.1 21.3 2 4 5.1 3.2 9.7 1.4.9-.4 2.1-.8 3.4-1.3 4.8-1.8 10.9-4.1 10.9-4.1-.9-2.7-2.1-5.9-2.1-5.9-1.5-.2-6.1-.6-9.9.7-3.5 1.2-4.5 2.7-4.6 3.2 0-.6.1-2.7 0-8-.1-6.8-1.1-15.9-1.1-15.9-2.8 5.8-11 7.4-12.2 7.6l-.3.1z"/><path id="XMLID_779_" class="st21" d="M154.1 131l.6.3c.9.3 2.7.8 5.6.5 4.3-.5 1.6 13.6 3.2 16.8 1.6 3.2 5.8-1.8 9.6-1.3 3.6.5 3.4 2.4.7 5.4 4.8-1.8 10.9-4.1 10.9-4.1-.9-2.7-2.1-5.9-2.1-5.9-1.5-.2-6.1-.6-9.9.7-3.5 1.2-4.5 2.7-4.6 3.2 0-.6.1-2.7 0-8-.1-6.8-1.1-15.9-1.1-15.9-2.8 5.8-11 7.4-12.2 7.6l-.1.1-.6.6z"/><path id="XMLID_776_" class="st23" d="M114.4 112.2c0 .2 0 .3.1.4.5 2.5 2.7 5.2 7.2 7.4 4.8 2.4 23.9 11 31.6 10.9 7.7-.1 16.4-5 13.1-11.4-3.2-6.4-13.3-7.2-18.2-8.1-4.9-.8-18.1-1.5-23.2-3.9s-5.3-2.3-5.3-2.3c-4.3 1.7-5.3 7-5.3 7z"/><path id="XMLID_768_" class="st21" d="M114.4 112.2s1-5.3 5.2-6.8c0 0 .3-.1 5.3 2.3 5.1 2.4 18.4 3.1 23.2 3.9 4.9.8 15 1.7 18.2 8.1 3.3 6.4-5.4 11.3-13.1 11.4-7.7.1-26.8-8.5-31.6-10.9-4.5-2.3-6.7-4.9-7.2-7.4-.1-.2-.2-.5-.3-.7.1-.1.2 0 .3.1zm6.2 6.6c2.3 1.7 18.1 7.5 21.6 8.7s10.1 2.8 13.4 0c3.3-2.8-2-9.2-11.8-11-9.8-1.9-19.5-6.6-22.1-7.5-2.6-.8-3.3-.3-5.1 1.3-1.3 1.1-1.8 1.8-1.9 2.2 1.6 2.3 4.4 5.2 5.9 6.3z"/><path id="XMLID_764_" class="st22" d="M115.5 127.6c.1.2.3.3.5.5 1.3 1.1 4.3 2.7 10.2 2.9 6.9.2 4.1-2.1 5.2-6.5 1.1-4.4 1.2-10.8-5.2-11.7-.2 0-.4-.1-.7-.1-3.3-.2-6.1 1.7-7 6.7-.9 5.3-3.9 7.1-3 8.2z"/><path id="XMLID_763_" class="st12" d="M96.1 102.1l1.5-.7"/><path id="XMLID_760_" class="st7" d="M101.5 97.3c7.7 0 11.4-3.2 11.4-3.2-.4 2.1 1.3 11.3.1 12.2-1.1.9-3.4 3.1-4.3 3.2h-.2c-.7-.2.2-1.5-1.7-1.5s-5.1-.2-7 .6c-1.9.8-1.2.9-1.2.9.4 3.8 2.3 6.3 6.3 6.8.6.1 1.2.1 1.9.1 5.3-.1 7.8-4 9.1-7.4 1.3-3.3 5.2-2.1 5.6-10 .4-7.8-1.3-9.4-7.3-13.2-3.1-1.9-6.9-2.1-10.2-1.3-3.3.8-6 2.6-6.9 4.9-1.9 4.5-4 2.6-4.9 4.6-.8 1.9 1.3 3.1 8.2 3.2.4.1.8.1 1.1.1z"/><path id="XMLID_757_" class="st4" d="M109 110.2c.8 5.8-3.2 6.1-3.8 6.1.6.1 1.2.1 1.8.1 5.3-.1 7.8-4 9.1-7.3 1.3-3.3 5.2-2.1 5.6-10 .4-7.8-1.3-9.4-7.3-13.2-3-1.9-6.9-2.1-10.2-1.3 3.8.2 5.5 3 5.7 7.5.1 3.9-7.3 5-9.2 5.2h-.5s7.4 6.1 8.7 12.2c0 .2 0 .5.1.7z"/><path id="XMLID_756_" class="st5" d="M99.2 109s.5-.1 1.3-.2c2-.3 5.6-.7 6.4.2 1.1 1.2 1.7 2.2 5 0s2.4-5.7 2.5-8.3-1-5.6-.6-7.2c0 0-7.1 4.3-15.8 3.8 0-.1-1.5 5.3 1.2 11.7z"/><path id="XMLID_753_" class="st10" d="M100.5 108.7c2-.3 5.6-.7 6.4.2 1.1 1.2 1.7 2.2 5 0s2.4-5.7 2.5-8.3-1-5.6-.6-7.2c0 0-7.1 4.3-15.8 3.8 0 0 3.8 1.3 8.9 1.5s3 11.7 1.3 10.4c-1.7-1.2-5.9-1.2-7.7-.4z"/><path id="XMLID_752_" class="st13" d="M104 101.9c0 1.5 1 2.8 2.3 3.1.2 0 .4.1.6.1.3 0 .6-.1.9-.2.2-.1.5-.2.7-.4.7-.6 1.2-1.5 1.2-2.6 0-1.7-1.3-3.2-2.9-3.2-.5 0-1 .2-1.4.4-.3.2-.5.4-.7.7-.2.2-.3.4-.4.7-.1.2-.1.4-.2.6 0 .2-.1.5-.1.8z"/><path id="XMLID_751_" class="st13" d="M96.2 102.8c.2 1.5 1.2 2.7 2.4 2.8h.5c.3 0 .5-.1.7-.3.2-.1.4-.3.6-.5.6-.6.9-1.6.8-2.7-.2-1.7-1.5-3-2.9-2.8-.5.1-.9.3-1.2.6-.2.2-.4.5-.6.7-.1.2-.2.5-.3.7l-.1.6c0 .3 0 .6.1.9z"/><g id="XMLID_748_"><path id="XMLID_750_" class="st15" d="M96.2 101.7l1.9 3.9c.2 0 .3.1.5.1l-2.3-4.5-.1.5z"/><path id="XMLID_749_" class="st15" d="M99.4 105.5l-2.7-5c.2-.3.4-.5.6-.7l2.7 5.3-.6.4z"/></g><g id="XMLID_745_"><path id="XMLID_747_" class="st15" d="M104.3 100.5l2.6 4.5c-.2 0-.4 0-.6-.1l-2.2-3.9.2-.5z"/><path id="XMLID_746_" class="st15" d="M104.7 99.8l3.1 5 .7-.4-3-5.3c-.3.2-.6.4-.8.7z"/></g><path id="XMLID_744_" class="st5" d="M118 104c1-.9 1.2-3.4.6-4.5-.1-.3-.4-.6-.6-.6h-.3c-1.1 0-1.7 1.5-1.7 1.5-.4 5.2.8 4.8 2 3.6z"/><path id="XMLID_743_" class="st12" d="M104 101.9c0 1.7 1.3 3.2 2.8 3.2 1.6 0 2.8-1.4 2.8-3.2 0-1.7-1.3-3.2-2.8-3.2-1.5 0-2.8 1.4-2.8 3.2z"/><path id="XMLID_742_" d="M96.2 102.8c.2 1.7 1.5 3 2.9 2.8s2.3-1.7 2.1-3.4c-.2-1.7-1.5-3-2.9-2.8-1.4.1-2.4 1.7-2.1 3.4z" fill="none" stroke="#021826" stroke-width=".469" stroke-linecap="round" stroke-linejoin="round" stroke-miterlimit="10"/><path id="XMLID_741_" class="st12" d="M104 101.9l-2.8.1"/><path id="XMLID_740_" class="st12" d="M116.1 98.4l-6.4 3"/><g id="XMLID_707_"><path id="XMLID_737_" class="st17" d="M127.6 164.2h-1.1l-1.4.5-2.3 1.7-1.1-.8h-1.2l-.6 1.7H118l-1.2-1.7h-1.7l-1.6 1.7-2.3-.9-.4-1.6-1-.1-1.3.9-1.9-.8V163l-.6-.7-1.3 1.3-.2-6.9h.5l-.2-2.5.8-1.3 1.6.4.3-2.3 5.4 9.7 13.2-3.9 1.5 2.2z"/><path id="XMLID_729_" class="st18" d="M104.7 158.4l-.1-1.7 1.8-.2.2-1.2-1.7-1.1.8-1.2 1.6.4.7-.7-.4-1.6 1.1-.9 1.1.9.8-.5.2-1.3 1.8-.5.8 1.4h1.1l.7-1.8h1.6l.8 1.8h1.3l.9-1.8h1.4l.6 1.8h1.4l1-1.1 1.8.5v1.9l1.8-.9 1.2 1.1-.8 1.6 1.8.2v1.4l-2.4.7-.1.9 1.1.8-1.1 1.7-1.6-.6-.8.3v2.1l-2.3.6-1.5-1.6-.9.3-.4 2.3h-2l-1.3-1.8-1.8.1-1.3 1.7-2.1-.3-.5-1.5-1.3-.5-1.3 1-1.6-.6 1-1.6-.8-.4-2.3-.1zm8.4-1.1c1.1.7 2.7 1.2 4.5 1.2 2.2 0 4.1-.6 5.1-1.6 0 0-.1-2.5-5.1-2.5s-4.5 2.9-4.5 2.9z"/><path id="XMLID_726_" class="st17" d="M117.7 152.3c-3.2 0-5.8 1.4-5.8 3.1 0 .7.5 1.4 1.3 1.9 0 0-.5-2.9 4.5-2.9s5.1 2.5 5.1 2.5c.5-.4.7-.9.7-1.5 0-1.8-2.6-3.1-5.8-3.1z"/><g id="XMLID_711_"><g id="XMLID_713_"><path id="XMLID_719_" class="st19" d="M128.7 157.3v5.9l-1.1 1V159z"/><path id="XMLID_718_" class="st19" d="M125.1 160.8v4.8l-2.3.8v-5z"/><path id="XMLID_717_" class="st19" d="M117.9 162.3h2v5h-2z"/><path id="XMLID_716_" class="st19" d="M113.5 162.3v5l-2.3-.9.2-4.3z"/><path id="XMLID_715_" class="st19" d="M108.1 161l.3 4.4-1.9-.8v-4.2z"/><path id="XMLID_714_" class="st19" d="M104.7 158.5v5l-.4-1.9.2-4.8z"/></g></g><path id="XMLID_708_" class="st17" d="M130.1 154.9l-.4 5.9-1 1v-4.5l-1-.8v-.9z"/></g><g id="XMLID_674_"><path id="XMLID_704_" class="st17" d="M99.9 171.7h-.7l-.8.3-1.5 1.1-.6-.5h-.7l-.4 1H94l-.7-1h-1.1l-.9 1-1.4-.5-.3-1-.6-.1-.8.6-1.2-.5V171l-.3-.4-.8.7-.1-4.2h.3l-.2-1.5.5-.8 1 .3.2-1.5 3.3 6 8.1-2.4.9 1.3z"/><path id="XMLID_696_" class="st18" d="M85.9 168.2l-.1-1.1 1.1-.1.1-.8-1-.7.5-.8 1 .3.4-.4-.2-1 .7-.6.7.6.5-.3.2-.8 1.1-.3.5.9h.7l.4-1.1h1l.5 1.1h.8l.6-1.1h.9l.3 1.1h.6l.6-.7 1.1.3v1.2l1.1-.5.7.7-.5 1 1.1.1v.9l-1.5.4v.6l.6.5-.7 1.1-1-.3-.5.2v1.3l-1.4.4-.9-1-.6.2-.3 1.4h-1.2l-.8-1.1h-1.1l-.8 1-1.3-.2-.3-.9-.8-.3-.8.6-1-.4.6-1-.5-.3-1.1-.1zm5.1-.7c.7.4 1.7.7 2.8.7 1.3 0 2.5-.4 3.1-1 0 0-.1-1.5-3.1-1.5s-2.8 1.8-2.8 1.8z"/><path id="XMLID_693_" class="st17" d="M93.8 164.4c-2 0-3.6.8-3.6 1.9 0 .4.3.9.8 1.2 0 0-.3-1.8 2.8-1.8s3.1 1.5 3.1 1.5c.3-.3.4-.6.4-.9.1-1.1-1.5-1.9-3.5-1.9z"/><g id="XMLID_678_"><g id="XMLID_680_"><path id="XMLID_686_" class="st19" d="M100.6 167.5v3.6l-.7.6v-3.2z"/><path id="XMLID_685_" class="st19" d="M98.4 169.6v3l-1.5.5V170z"/><path id="XMLID_684_" class="st19" d="M94 170.6h1.2v3H94z"/><path id="XMLID_683_" class="st19" d="M91.3 170.6v3l-1.4-.5.1-2.7z"/><path id="XMLID_682_" class="st19" d="M87.9 169.8l.2 2.6-1.1-.4v-2.6z"/><path id="XMLID_681_" class="st19" d="M85.9 168.2v3.1l-.3-1.2.2-2.9z"/></g></g><path id="XMLID_675_" class="st17" d="M101.4 166l-.2 3.6-.6.7v-2.8l-.7-.5.1-.6z"/></g><g id="XMLID_544_"><path id="XMLID_574_" class="st17" d="M115 179.6h-.5l-.8.3-1.2.9-.6-.4h-.7l-.3.9h-1l-.7-.9h-.9l-.8.9-1.2-.5-.2-.8-.6-.1-.7.5-1-.4v-1l-.3-.4-.8.7v-3.7h.2l-.1-1.4.4-.6.9.2.2-1.2 2.9 5.2 7.1-2.1.7 1.2z"/><path id="XMLID_566_" class="st18" d="M102.7 176.5l-.1-.9 1-.1.1-.7-.9-.6.4-.7.9.2.4-.4-.2-.9.6-.5.6.5.4-.3.1-.7 1-.3.5.8h.6l.4-1h.8l.4 1h.7l.5-1h.8l.3 1h.7l.5-.6 1 .3v1l1-.5.6.6-.4.9 1 .1v.8l-1.3.4v.5l.6.4-.6.9-.9-.3-.5.2v1.1l-1.3.3-.8-.9-.5.2-.2 1.2h-1.1l-.7-.9h-.9l-.7.9-1.1-.2-.3-.8-.7-.3-.7.5-.9-.3.5-.8-.4-.2h-1.2v.1zm4.6-.6c.6.4 1.4.6 2.4.6 1.2 0 2.2-.3 2.7-.9 0 0 0-1.3-2.7-1.3-2.7.1-2.4 1.6-2.4 1.6z"/><path id="XMLID_563_" class="st17" d="M109.7 173.2c-1.7 0-3.1.7-3.1 1.7 0 .4.3.8.7 1 0 0-.2-1.6 2.4-1.6 2.7 0 2.7 1.3 2.7 1.3.2-.2.4-.5.4-.8 0-.8-1.4-1.6-3.1-1.6z"/><g id="XMLID_548_"><g id="XMLID_550_"><path id="XMLID_556_" class="st19" d="M115.7 175.9v3.2l-.7.5v-2.7z"/><path id="XMLID_555_" class="st19" d="M113.7 177.8v2.6l-1.2.4v-2.7z"/><path id="XMLID_554_" class="st19" d="M109.8 178.6h1.1v2.7h-1.1z"/><path id="XMLID_553_" class="st19" d="M107.5 178.6v2.7l-1.2-.5v-2.3z"/><path id="XMLID_552_" class="st19" d="M104.6 177.9l.1 2.4-1-.4v-2.3z"/><path id="XMLID_551_" class="st19" d="M102.7 176.6v2.6l-.1-1 .1-2.5z"/></g></g><path id="XMLID_545_" class="st17" d="M116.4 174.6l-.2 3.2-.5.6v-2.5l-.6-.4v-.5z"/></g><path id="XMLID_508_" class="st21" d="M116 128.1c1.3 1.1 4.3 2.7 10.2 2.9 6.9.2 4.1-2.1 5.2-6.5 1.1-4.4 1.2-10.8-5.2-11.7-.2 0-.4-.1-.7-.1.3.2 4.3 3.5 2.5 9.2-1.8 5.8-1.2 10-12 6.2z"/><path id="XMLID_505_" class="st4" d="M183.9 140.1c.5.3 1.4 1 2.3 2.5 1.5 2.5 5 .7 6.3 2.1 1 1 1.4 1.6-.4 2.1 4-.1 7 0 7.2-1.4.3-1.5-2.4-2.7-4.6-2.8-2.2-.1-4.2.7-7-1.4-1.7-1.5-3-1.6-3.8-1.1z"/><g id="XMLID_486_"><g id="XMLID_490_"><path id="XMLID_504_" class="st15" d="M44.8 148.6l25 11.8 15.9-4.4 11.9-3.2-25-11.5-3.8 1z"/><g id="XMLID_491_"><g id="XMLID_493_"><g id="XMLID_496_"><path id="XMLID_497_" class="st20" d="M65.4 146.7c.4 2 7.5-1 8.5.4s-5.7 4.6-3.7 7.9c1.3 2.1 9.6 1.6 15.5 1l11.9-3.2-25-11.5-3.8 1c-1.7 1.5-3.6 3.3-3.4 4.4z"/></g><g id="XMLID_494_"><path id="XMLID_495_" class="st20" d="M60.7 149.2c-1.3.1-2.3.9-2.2 1.8.1.9 1.2 1.5 2.5 1.4s2.3-.9 2.2-1.8c-.1-.8-1.2-1.5-2.5-1.4z"/></g></g></g></g><path id="XMLID_489_" class="st15" d="M96.2 153.2l-25-11.5 1.4-.4 25 11.5z"/><path id="XMLID_488_" class="st15" d="M72.6 141.3l-27.8 7.3 1.3.6 27.6-7.3z"/><path id="XMLID_487_" class="st15" d="M97.6 152.8l-27.8 7.6-1.4-.7 27.9-7.5z"/></g><g id="XMLID_467_"><g id="XMLID_471_"><path id="XMLID_485_" class="st15" d="M0 177l25 11.8 16-4.3 11.9-3.2-25.1-11.5-3.8 1z"/><g id="XMLID_472_"><g id="XMLID_474_"><g id="XMLID_477_"><path id="XMLID_478_" class="st20" d="M20.6 175.2c.4 2 7.5-1 8.5.4 1 1.3-5.7 4.6-3.7 7.9 1.3 2.1 9.6 1.6 15.5 1l11.9-3.2-25-11.5-3.8 1c-1.7 1.4-3.6 3.3-3.4 4.4z"/></g><g id="XMLID_475_"><path id="XMLID_476_" class="st20" d="M15.9 177.7c-1.3.1-2.3.9-2.2 1.8s1.2 1.5 2.5 1.4 2.3-.9 2.2-1.8c0-.9-1.2-1.5-2.5-1.4z"/></g></g></g></g><path id="XMLID_470_" class="st15" d="M51.4 181.7l-25-11.6 1.4-.3 25.1 11.5z"/><path id="XMLID_469_" class="st15" d="M27.8 169.8L0 177l1.3.7 27.7-7.4z"/><path id="XMLID_468_" class="st15" d="M52.9 181.3L25 188.8l-1.4-.6 27.9-7.5z"/></g><g id="XMLID_448_"><g id="XMLID_452_"><path id="XMLID_466_" class="st15" d="M32.4 167.3l20.3 9.6 13-3.5 9.6-2.6-20.3-9.4-3.1.8z"/><g id="XMLID_453_"><g id="XMLID_455_"><g id="XMLID_458_"><path id="XMLID_459_" class="st20" d="M49.1 165.8c.3 1.6 6.1-.8 6.9.3s-4.7 3.7-3 6.4c1 1.7 7.8 1.3 12.6.8l9.7-2.6-20.4-9.3-3.1.8c-1.3 1.2-2.8 2.7-2.7 3.6z"/></g><g id="XMLID_456_"><path id="XMLID_457_" class="st20" d="M45.3 167.8c-1.1.1-1.9.7-1.8 1.5.1.7 1 1.2 2 1.2 1.1-.1 1.9-.7 1.8-1.5 0-.7-.9-1.2-2-1.2z"/></g></g></g></g><path id="XMLID_451_" class="st15" d="M74.2 171.1l-20.3-9.4 1.1-.3 20.3 9.4z"/><path id="XMLID_450_" class="st15" d="M55 161.4l-22.6 5.9 1.1.5 22.4-5.9z"/><path id="XMLID_449_" class="st15" d="M75.3 170.8l-22.6 6.1-1.1-.5 22.7-6.1z"/></g><path id="XMLID_15_" class="st0" d="M323.9 287.4l-7.9-5.2-83.8 10.6 6.7 5.2z"/><path id="XMLID_41_" class="st0" d="M290.2 289.6l29.3 30.6-94.3 4.4 65-35zm-1.7 12.6l-28.6 12.3 39-1.6-10.4-10.7z"/><path id="XMLID_81_" class="st3" d="M319.9 285.4l-7.8-5.2-83.9 10.7 6.7 5.1z"/><path id="XMLID_128_" class="st23" d="M283.8 287.8l29.3 30.6-94.3 4.4 65-35zm-1.7 12.6l-28.6 12.3 39-1.6-10.4-10.7z"/><path id="XMLID_155_" class="st0" d="M88.1 231.7s71.9 63.4 98.3 72.1c0 0 14.8 5.2 27.7-2.7 5.5-3.3 152.4-96.6 181.8-127.6 4.2-4.4 4.8-9.5 4-10.6-6.5-8.4-51.5-26.9-52.2-26.7-.8.3-259.6 95.5-259.6 95.5z"/><path id="XMLID_69_" d="M87.9 224.3c-.6 4.2.6 8.7 3.9 12 15.8 16 46.4 40.8 81.6 62.2 4 2.4 8.5 3.5 12.9 3.4.5 0 1 0 1.5-.1 3.3-.4 6.6-1.4 9.5-3.3 31.9-19.7 135.7-87.1 187.9-129.3 1.4-1.1 2.3-2.5 2.9-4 .4-.9.5-1.9.6-2.9.9-4.9 1.9-14.7-1.8-21.4 0 0-5.6 3-6.6 8.7-1.4-.9-2.9-1.8-4.5-2.8-18.4-11.2-50.4-27.6-87.9-41.3-7.4-2.7-15.5-1.8-22.2 2.4-36.9 23.2-106.4 65.1-157 97.2-5.1 3.3-10 6.4-14.7 9.4-.1 0-.1.1-.2.1-.9-2.4-2.5-5-5.3-7.8.2-.1-1.9 5.7-.6 17.5z" fill="#c7c5c6"/><path id="XMLID_62_" d="M187.9 286.4v15.3c3.3-.4 6.6-1.4 9.5-3.3 31.8-19.6 135.6-87 187.8-129.2 1.4-1.1 2.3-2.5 2.9-4 .4-.9.5-1.9.6-2.9.9-4.9 1.9-14.7-1.8-21.4 0 0-5.6 3-6.6 8.7-1.4-.9-2.9-1.8-4.5-2.8L187.9 286.4z" opacity=".34" fill="#303030"/><path id="XMLID_146_" class="st29" d="M91.8 221.8c15.8 16 49.9 39.8 85.1 61.2 3.4 2.1 7.1 3.2 11 3.4 4.5.2 9-.9 13-3.3 3.6-2.2 4.7-2.6 9.5-5.6.4-.3.8-.5 1.3-.8l-14.1-10.2-97-70.5c-2.1 1.4-4.2 2.7-6.3 4-7.6 4.9-8.8 15.5-2.5 21.8z"/><path id="XMLID_136_" d="M100.5 196l96.5 71.6 13.4 9.9.3.2c1.4-.9 2.8-1.8 4.3-2.8 9-5.9 19.8-13 31.6-20.9 43.3-28.9 97.5-66.4 132.2-94l-71.3-38.2-17.3-9.2-14.6-7.8-14.9-8c-40.2 25-111.4 68-160.2 99.2z" fill="#284179"/><path id="XMLID_162_" class="st29" d="M260.7 96.7l14.9 8 14.6 7.8 17.3 9.2 71.3 38.2c2.2-1.8 4.4-3.5 6.5-5.2 5.6-4.5 4.3-13.6-1.7-17.6-12.4-8.4-36.8-21.9-67.2-34.9-5.8-2.5-11.9-4.9-18.1-7.4-3.4-1.3-6.8-2.6-10.3-3.9-1.7-.6-3.5-1.1-5.3-1.3-5.8-.8-11.8.5-16.9 3.7-1.6 1.2-3.3 2.3-5.1 3.4z"/><path id="XMLID_65_" d="M129.2 237.5c-1.7 4 1.1 9 6.3 11.2 5.2 2.2 10.7.8 12.4-3.2s-1.1-9-6.3-11.2-10.7-.8-12.4 3.2z" fill="none" stroke="#fff" stroke-width=".75" stroke-miterlimit="10"/><path id="XMLID_73_" class="st15" d="M342.6 130.5c0 2 1.6 3.6 3.6 3.6s3.6-1.6 3.6-3.6-1.6-3.6-3.6-3.6c-2-.1-3.6 1.6-3.6 3.6z"/><g id="XMLID_76_"><path id="XMLID_77_" class="st15" d="M335.1 125.6c.7 0 1.4-.4 1.8-1.1.5-1 .1-2.2-.9-2.7L296.5 102c-1-.5-2.2-.1-2.7.9s-.1 2.2.9 2.7l39.5 19.8c.3.2.6.2.9.2z"/></g><path id="XMLID_230_" class="st23" d="M237.6 125l12.3 7.2 10-7.3-11.8-6.8z"/><path id="XMLID_229_" class="st32" d="M249.9 132.2l78.6 45.5 11-7.4-79.6-45.4z"/><path id="XMLID_78_" class="st32" d="M308.9 185.8l-22.1 15.8-80.9-50.7 21.1-12.7z"/><path id="XMLID_104_" class="st33" d="M284.1 176.1l-15.2 10.7 17.1 11 15.3-11.9z"/><path id="XMLID_86_" class="st33" d="M190.9 154.9l-25.9 16 24.9 17 26.9-16.4z"/><path id="XMLID_80_" class="st33" d="M220.4 173.7l-26.3 16.9 26.9 17.6 25.4-17.7z"/><path id="XMLID_132_" class="st33" d="M251 193.2L224.9 211l28.8 19.3 26.2-18.4z"/><path id="XMLID_87_" class="st33" d="M202.6 208.3l-35.2 24.2 40.7 29.5 36.9-25.6z"/><path id="XMLID_88_" class="st33" d="M156 176.7l-34.1 22.7 41.8 30.2 35.5-24.1z"/><g id="XMLID_82_"><path id="XMLID_18_" class="st33" d="M273.2 174c.5 0 1-.3 1.3-.7.4-.7.2-1.6-.5-2.1L226 143c-.7-.4-1.6-.2-2.1.5-.4.7-.2 1.6.5 2.1l48 28.2c.3.1.6.2.8.2z"/></g><g id="XMLID_83_"><path id="XMLID_17_" class="st33" d="M266.5 178.2c.5 0 1-.3 1.3-.7.4-.7.2-1.6-.5-2.1l-48-28.2c-.7-.4-1.6-.2-2.1.5-.4.7-.2 1.6.5 2.1l48 28.2c.3.2.5.2.8.2z"/></g><g id="XMLID_34_" fill="none" stroke="#fff" stroke-width="1.5" stroke-miterlimit="10"><ellipse id="XMLID_103_" cx="250.5" cy="125.3" rx="3.1" ry="2.6"/><path id="XMLID_106_" stroke-linecap="round" stroke-linejoin="round" d="M246.8 125.3h-5.1"/></g><path id="XMLID_5_" fill="none" stroke="#99cfd9" stroke-miterlimit="10" d="M378.8 160L257.5 94.9"/><path id="XMLID_143_" class="st37" d="M91.8 221.8c15.8 16 49.9 39.8 85.1 61.2 3.4 2.1 7.1 3.2 11 3.4l9.1-18.8.5-1.1 78-161.7 7.2-14.9c-5.8-.8-11.8.5-16.9 3.7-1.7 1-3.4 2.1-5.2 3.3-40.2 25.1-111.4 68.1-160.2 99.3-2.1 1.4-4.2 2.7-6.3 4-7.4 4.7-8.6 15.3-2.3 21.6z"/><path id="XMLID_59_" class="st37" d="M246.5 254l60.9-132.2 9-19.5c-5.8-2.5-11.9-4.9-18.1-7.4l-8.1 17.6L215 274.8c9-5.8 19.7-13 31.5-20.8z"/><path id="XMLID_234_" opacity=".19" fill="#300e05" d="M279.8 141.4l-33.1-29.5 30-1.6 30.4 27.5z"/><path id="XMLID_207_" class="st32" d="M280.1 141.7l-33.4-55.5 24.1-3.6 35.9 55.3z"/><path id="XMLID_206_" class="st39" d="M300 135.7l-30.6-50.1"/><path id="XMLID_205_" class="st39" d="M285 123.7l-16-26.2"/><path id="XMLID_187_" class="st10" d="M116.1 100.3s.6-1.5 1.7-1.5h.3c.3.1.5.3.6.6.6 1.2.4 3.6-.6 4.5-1.3 1.3-2.5 1.7-2-3.6zm.4 2.9c0 1.1 1.5.8 1.3-1.4-.2-2.2-.9-1.5-.9-1.5v-.1c-.3.2-.4.3-.5.5 0 1.3.1 1.4.1 2.5z"/><path id="XMLID_186_" class="st33" d="M281.5 132.8c0 1.5 1.4 2.7 3.2 2.7 1.8 0 3.2-1.1 3.2-2.6s-1.4-2.7-3.2-2.7c-1.8 0-3.2 1.1-3.2 2.6z"/><path id="XMLID_185_" class="st33" d="M257.5 91.6c0 1.5 1.4 2.7 3.2 2.7s3.2-1.1 3.2-2.6-1.4-2.7-3.2-2.7c-1.7 0-3.2 1.2-3.2 2.6z"/><path id="XMLID_100_" class="st0" d="M307.3 265.9l30.9 19.5s10.7 3.4 13 5.8c2.2 2.4 11.4 1.3 8.3-3.2-3.1-4.5-8.6-8.9-3.1-6.4s5.7 3.5 8.9 2.3c3.2-1.2 10.5 6.1 13.5 7.2s13.1-4.7 7.7-11.1c-5.4-6.4-12.3-13.8-21.2-15.8s8.3-3.1 6.7-14.7c-1.7-11.6-36.6-14.6-36.6-14.6l-28.1 31z"/><path id="XMLID_620_" class="st1" d="M339.1 283.6c0 .1.1.1 0 0 .2.1.3.1.4.1 3.2 1.3 3.5 1 6.8 3.8 1.3 1.1 2.4 2 3.3 2.6 1.5 1 2.5 1.4 3.3.7 1.3-1 .5-2.9-1.1-4.5s-3.7-2.4-4.4-6.1c-.7-3.6-2.5-4.1-4-2.9s-2.3.7-2.3.7l-1.9 5.3-.1.3z"/><path id="XMLID_628_" class="st1" d="M364.8 281.5c3.6 1.5 3.7 1.1 7.1 3.9 1.1 1 2.1 1.8 3 2.4 1.6 1.2 2.8 1.6 3.6 1 1.3-1 .5-2.9-1.1-4.5s-3.7-2.5-4.4-6.1c-.7-3.6-2.5-4.1-4-2.9-1.4 1.2-2.3.7-2.3.7l-1.9 5.5z"/><path id="XMLID_626_" class="st4" d="M364.8 281.5s2.5-1.9 3.4-3.6 2.7-.8 2.6 1.2c-.1 1.9 7.6 6.8 4.1 8.7 1.6 1.2 2.8 1.6 3.6 1 1.3-1 .5-2.9-1.1-4.5s-3.7-2.5-4.4-6.1c-.7-3.6-2.5-4.1-4-2.9-1.4 1.2-2.3.7-2.3.7l-1.9 5.5z"/><path id="XMLID_354_" class="st4" d="M339.2 283.5v.6l.3-.3c.7-.6 2.4-2 3-3.3.9-1.7 2.7-.8 2.6 1.2-.1 1.9 7.2 6.6 4.4 8.6 1.5 1 2.5 1.4 3.3.7 1.3-1 .5-2.9-1.1-4.5s-3.7-2.4-4.4-6.1c-.7-3.6-2.5-4.1-4-2.9s-2.3.7-2.3.7l-1.8 5.3z"/><path id="XMLID_621_" class="st3" d="M336.9 271.3c1 .9 2.7 1.9 4.8 2.9 5.6 2.7 13.9 5.4 16.1 5.8 3.1.5 6.3 2.3 6.3 2.3 3.3-3.5 4-8.4 4-8.4s-5.3-1.3-11.4-5.1c-6.2-3.8-9.1-3.5-9.1-3.5 3.7-13 2.4-20.8 2.4-20.8 5.5-9.8 1.8-15.3 1.8-15.3l-7 2.3-.4.1c1.7 7.8-1.5 12.7-4.3 15.4-1.9 1.8-3.7 2.6-3.7 2.6-.1 4-.7 8-1.1 11.6-.4 4.5-.4 8.2 1.6 10.1z"/><path id="XMLID_219_" class="st21" d="M341.7 274.2c5.6 2.7 13.9 5.4 16.1 5.8 3.1.5 6.3 2.3 6.3 2.3 3.3-3.5 4-8.4 4-8.4s-5.3-1.3-11.4-5.1c-6.2-3.8-9.1-3.5-9.1-3.5 3.7-13 2.4-20.8 2.4-20.8 5.5-9.8 1.8-15.3 1.8-15.3l-7 2.3c.3.3.7.6 1.2.9 0 0-2.6 2.5-1 2s-.2 5-.8 10.1c-.1.6 2.8 6.5-.1 13.1s-2.1 9.6-.1 11.2 3 .1 6.1 1.1c3.1 1 5.7 3.2 3.3 5.6-2.2 2.4-6.6.2-11.7-1.3z"/><path id="XMLID_359_" d="M335.3 261.2c2.6-3.5 5.3-8.6 5.4-16.1-2.2 2.1-4.2 3-4.2 3-.1 4.5-.8 9.1-1.2 13.1z" opacity=".3" fill="#050d2d"/><path id="XMLID_592_" class="st3" d="M307.3 265.9c.5 1.4 2.5 3.2 5.3 5.1h.1c.1.1.3.2.6.4 8.4 5.5 22.9 11.9 25 14 0 0 3.5-3.2 4.6-8.6 0 0-4.8-2.8-8.9-5.7-4.1-2.8-7.2-7.1-14.6-9.8 0 0 4.5-1.9 7.6-5.1 3.1-3.2 5.3-5.9 7-6.2 1.8-.3 10.2-1.4 11.9-9.8 1.7-8.3-.7-8.8-.7-8.8l-16.8-1.7s-.7 1.8-5.8 9.1c-5.2 7.5-17.1 21.5-15.3 27.1z"/><path id="XMLID_257_" class="st21" d="M313.2 271.4c8.4 5.5 22.9 11.9 25 14 0 0 3.5-3.2 4.6-8.6 0 0-4.8-2.8-8.9-5.7-4.1-2.8-7.2-7.1-14.6-9.8 0 0 4.5-1.9 7.6-5.1 3.1-3.2 5.3-5.9 7-6.2 1.8-.3 10.2-1.4 11.9-9.8 1.7-8.3-.7-8.8-.7-8.8l-16.8-1.7s2.3 1.4 5.1 3.3c2.9 1.9 1.3 8.5-3.2 10.3s-5.9 8.5-11.9 11.4c-6 2.9-3.6 6.1 0 8.1s13.8 8.8 11.5 12.6c-2.1 3.8-13.5-2.1-16.6-4z"/><path id="XMLID_609_" class="st5" d="M267.3 195.8c1.7 1.3 6.9 2.4 9.4 3.7 2.4 1.3 15.6 8.9 35.4 3.3l-3.6-5.2s-2.8 1.2-7.4 1.6c-2 .1-4.4.1-7.1-.2-8.7-1.2-11.8-.6-14.2-2.2-2.4-1.6-3.5-3.8-4.6-4.9-1.1-1.2-.2-3.2-1.6-2-.5.4-.8.8-.9 1.3-.2.9.3 1.9 1.2 2.9 0 0-2.1 1-4.2-.1l-.8-.4c-.9-.5-.3-.2-2.6-.8-.2-.1-.4-.1-.6-.1-2-.5.1 1.9 1.6 3.1z"/><path id="XMLID_222_" class="st10" d="M267.3 195.8c1.7 1.3 6.9 2.4 9.4 3.7 2.4 1.3 15.6 8.9 35.4 3.3l-3.6-5.2s-2.8 1.2-7.4 1.6c0 .2-.1 2 .2 3.1.3 1.2-13.1 1.4-18.5-1.5-5.5-2.9-9.1-4.5-12.3-4.7-3.2-.2-5.4-3-4.8-3.6-2-.3.1 2.1 1.6 3.3z"/><path id="XMLID_597_" class="st16" d="M287.8 175.2c2.7 1.1 1.2.7 3.5 1 2.3.4 3.5 2.4 3.5 2.4-1.8.3-3.2 1.3-2.7 3.2s.9-.4 2.5-.7c1.6-.3 3.7-1.4 6.6-1.3 2.9.1 5.1 2.4 12.8 6.5 7.7 4.1 10.9 9.6 10.9 9.6l1.8-.6 4.1-1.4c-12.6-16.2-27.7-17.8-30.4-18.2-2.7-.4-7.6-2.6-9.7-2.5-1.2.1-2.8.4-3.5.8-.6.3-.6.8.6 1.2z"/><path id="XMLID_581_" class="st10" d="M287.1 174c.9-.1 3.6-.1 6.1 1.4 2.9 1.7 20.7 2.1 33.6 19.9l4.1-1.4c-12.7-16.2-27.8-17.8-30.5-18.2-2.7-.4-7.6-2.6-9.7-2.5-1.3.1-2.9.4-3.6.8z"/><path id="XMLID_598_" class="st23" d="M317 199.6c1 2.1 1.4 3.1 6.5 10 3.3 4.5 4.4 10.2 4.7 13.6.1 1.9.1 3.1.1 3.1 14.8 5.3 22.8-1 22.8-1-.5-1 .1-4.6-4.5-14.4s-11.7-19.1-16.2-22.6-7.2-3.9-10.2-3.6l-5.5 2.8c-.3.4-.5.7-.6 1.1-1.5 3.8 2 9.1 2.9 11z"/><path id="XMLID_580_" class="st21" d="M314.2 188.5c1.3.1 4.3.1 7.2-1.3 4-1.9 18.8 23.2 17.7 32.4-1.1 9.2-9.1 4.7-10.9 3.6.1 1.9.1 3.1.1 3.1 14.8 5.3 22.8-1 22.8-1-.5-1 .1-4.6-4.5-14.4s-11.7-19.1-16.2-22.6-7.2-3.9-10.2-3.6l-5.5 2.8c-.1.3-.3.6-.5 1z"/><path id="XMLID_588_" class="st7" d="M298 165c.1 2.4 3.1 3.2 5.6 3.3s2.3 1.3 1.1 4.2c-1.3 2.9-1.2 5.3-.9 6 .3.8 1.8.5 1.8.5-1-2.6 3.1-5.9 4.6-1.9s-1.4 5.5-1.4 5.5c.9 1.4 1.9 2.9 3.2 3.9 2.4 1.9 5.6 2.2 9.5-2.2 5.9-6.7 3.2-14.3 3.2-14.3s3.7 1.3 4.1 0c.4-1.3-3.8-2.3-3.8-2.3s2.4-2.8 1.2-3.6c-1.3-.8-3.3 3.5-3.3 3.5s-.6-2.1-5-5c-3.6-2.4-8.2-1.7-11.1-.4-.7.3-1.2.6-1.7.9-2.6 1.7-3.7 1.4-4.6.6-1.1-.6-2.6-1.1-2.5 1.3z"/><path id="XMLID_585_" class="st4" d="M306.7 162.3s4-1.1 7.3 4.8c2.4 4.4 4.1 14.8-1.9 19.5 2.4 1.9 5.6 2.2 9.5-2.2 5.9-6.7 3.2-14.3 3.2-14.3s3.7 1.3 4.1 0c.4-1.3-3.8-2.3-3.8-2.3s2.4-2.8 1.2-3.6c-1.3-.8-3.3 3.5-3.3 3.5s-.6-2.1-5-5c-3.8-2.4-8.4-1.7-11.3-.4z"/><path id="XMLID_594_" class="st5" d="M300.7 187.9c1.5 1 6.7 3.8 14.6 0 0 0-5.6-3.3-5-4.8s2.6-6.7-1.5-8.6c-2.8-1.4-3.7.7-4 2-.1.6-.1 1.1-.1 1.1v-1.7c.2-2 .8-5.2 2.9-6.4 3-1.7-4.6-4.2-6.6-2.1-.1.1-.2.3-.3.5 0 0-2.4 3.8-2.7 10.1-.3 6.3 1.2 8.9 2.7 9.9z"/><path id="XMLID_605_" class="st42" d="M306.8 205.7c2.3 1.4 1.9 2 8-3.3s5.1-9.8 3-12c-1.3-1.4-2.9-1.7-4.7-1.5-5.2.7-11.5 6.6-12.4 7.6-1.2 1.5 3.8 7.8 6.1 9.2z"/><path id="XMLID_584_" class="st10" d="M300.7 187.9c1.5 1 6.7 3.8 14.6 0 0 0-5.6-3.3-5-4.8s2.6-6.7-1.5-8.6c-2.8-1.4-3.7.7-4 2 .1-.3.8-2.7 2.7-1.1 2 1.7 2.4 2 1.6 4.9-.7 2.9-.5 3.4.8 5.5 1.3 2.2-1.9 3.8-9.2 2.1z"/><path id="XMLID_590_" class="st10" d="M301 167.4c.3-.1 3.5-.8 4.5 1s-2.3.7-.8 7.5c.2-2 .8-5.2 2.9-6.4 3.1-1.7-4.5-4.2-6.6-2.1z"/><path id="XMLID_224_" class="st21" d="M306.8 205.7c2.3 1.4 1.9 2 8-3.3s5.1-9.8 3-12c-1.3-1.4-2.9-1.7-4.7-1.5.9.4 4.6 2.5-.6 8.9-5.7 7-10.7 2.8-11.9-1.2-1.1 1.4 3.9 7.7 6.2 9.1z"/><path id="XMLID_258_" class="st10" d="M268.9 193.3c1.5 1.8 7.5 2.4 5.9.7s-2-3.1-2-3.1c-.2.9.3 1.9 1.2 2.9 0 0-2.1 1-4.2-.1-.5-.2-.8-.3-.9-.4z"/><path id="XMLID_362_" class="st42" d="M328.4 229.9c.2.1.4.1.6.1 20.4 4.6 23.7-1.6 23.7-1.6-.6-4.3-1.7-3.9-1.7-3.9-8.3 4.9-16.9 2.9-20.7 1.7-1-.4-1.7-.6-1.9-.7h-.1c-2.4-.2.1 4.4.1 4.4z"/><path id="XMLID_220_" class="st21" d="M329 230c20.4 4.6 23.7-1.6 23.7-1.6-.6-4.3-1.7-3.9-1.7-3.9-8.3 4.9-16.9 2.9-20.7 1.7.5.7 1.3 1.2 2.4 1.5 4.8 1 3.5 3.8-3.7 2.3z"/></g></svg>